<?xml version="1.0" encoding="UTF-8" standalone="yes"?><svg xmlns="http://www.w3.org/2000/svg" xmlns:xlink="http://www.w3.org/1999/xlink" height="742px" style="width:1269px;height:742px;" version="1.1" viewBox="0 0 1269 742" width="1269px"><defs/><g><text fill="#000000" font-family="sans-serif" font-size="20" lengthAdjust="spacingAndGlyphs" textLength="286" x="501.5" y="18.5645">Diagramme de collaboration</text><rect fill="#F8F8F8" height="36.2969" style="stroke: #383838; stroke-width: 1.5;" width="87" x="88.6703" y="705.2813"/><text fill="#000000" font-family="sans-serif" font-size="14" lengthAdjust="spacingAndGlyphs" textLength="67" x="98.6703" y="728.2764">Personne</text><rect fill="#F8F8F8" height="36.2969" style="stroke: #383838; stroke-width: 1.5;" width="59" x="259.67" y="575.2813"/><text fill="#000000" font-family="sans-serif" font-size="14" lengthAdjust="spacingAndGlyphs" textLength="39" x="269.67" y="598.2764">Client</text><rect fill="#F8F8F8" height="36.2969" style="stroke: #383838; stroke-width: 1.5;" width="84" x="793.42" y="31.2813"/><text fill="#000000" font-family="sans-serif" font-size="14" lengthAdjust="spacingAndGlyphs" textLength="64" x="803.42" y="54.2764">Structure</text><rect fill="#F8F8F8" height="36.2969" style="stroke: #383838; stroke-width: 1.5;" width="69" x="589.67" y="705.2813"/><text fill="#000000" font-family="sans-serif" font-size="14" lengthAdjust="spacingAndGlyphs" textLength="49" x="599.67" y="728.2764">Produit</text><rect fill="#F8F8F8" height="36.2969" style="stroke: #383838; stroke-width: 1.5;" width="74" x="678.92" y="431.2813"/><text fill="#000000" font-family="sans-serif" font-size="14" lengthAdjust="spacingAndGlyphs" textLength="54" x="688.92" y="454.2764">Contact</text><rect fill="#F8F8F8" height="36.2969" style="stroke: #383838; stroke-width: 1.5;" width="73" x="610.67" y="257.2813"/><text fill="#000000" font-family="sans-serif" font-size="14" lengthAdjust="spacingAndGlyphs" textLength="53" x="620.67" y="280.2764">Agenda</text><rect fill="#F8F8F8" height="36.2969" style="stroke: #383838; stroke-width: 1.5;" width="99" x="921.67" y="575.2813"/><text fill="#000000" font-family="sans-serif" font-size="14" lengthAdjust="spacingAndGlyphs" textLength="79" x="931.67" y="598.2764">Evénement</text><path d="M751.104,469.8733 C801.235,497.7893 892.409,548.5613 940.052,575.0923 " fill="none" style="stroke: #383838; stroke-width: 1.0;"/><polygon fill="#383838" points="746.679,467.4103,752.5958,475.2837,751.0473,469.843,756.4881,468.2945,746.679,467.4103" style="stroke: #383838; stroke-width: 1.0;"/><text fill="#000000" font-family="sans-serif" font-size="13" lengthAdjust="spacingAndGlyphs" textLength="287" x="882.92" y="517.8481">GenererContactPrevu(idClient, idEvenement)</text><text fill="#000000" font-family="sans-serif" font-size="13" lengthAdjust="spacingAndGlyphs" textLength="34" x="1009.42" y="532.981">: void</text><path d="M752.939,447.7143 C821.877,445.7963 965.774,437.4493 996.92,401.2813 C1258.07,98.0313 1039.02,189.6073 1000.92,129.2813 C974.986,88.2183 921.232,68.0593 881.894,58.4612 " fill="none" style="stroke: #383838; stroke-width: 1.0;"/><polygon fill="#383838" points="876.686,57.2323,884.5263,63.1929,881.5523,58.381,886.3642,55.4069,876.686,57.2323" style="stroke: #383838; stroke-width: 1.0;"/><text fill="#000000" font-family="sans-serif" font-size="13" lengthAdjust="spacingAndGlyphs" textLength="144" x="1124.92" y="206.8481">ObtenirAgent(idAgent)</text><text fill="#000000" font-family="sans-serif" font-size="13" lengthAdjust="spacingAndGlyphs" textLength="46" x="1173.92" y="221.981">: Agent</text><path d="M605.201,278.1213 C542.369,281.8643 428.101,292.7863 402.92,323.2813 C380.847,350.0123 380.3,375.0113 402.92,401.2813 C438.147,442.1933 603.707,447.9903 678.764,448.4753 " fill="none" style="stroke: #383838; stroke-width: 1.0;"/><polygon fill="#383838" points="610.375,277.8223,601.1591,274.3484,605.3833,278.1108,601.6209,282.335,610.375,277.8223" style="stroke: #383838; stroke-width: 1.0;"/><text fill="#000000" font-family="sans-serif" font-size="13" lengthAdjust="spacingAndGlyphs" textLength="267" x="403.92" y="343.8481">ObtenirPlageAgenda(idTacheElementaire)</text><text fill="#000000" font-family="sans-serif" font-size="13" lengthAdjust="spacingAndGlyphs" textLength="215" x="427.92" y="358.981">: PlageAgenda, TacheElementaire</text><text fill="#000000" font-family="sans-serif" font-size="13" lengthAdjust="spacingAndGlyphs" textLength="172" x="453.42" y="374.1138">ObtenirDateRdv(idContact)</text><text fill="#000000" font-family="sans-serif" font-size="13" lengthAdjust="spacingAndGlyphs" textLength="92" x="491.42" y="389.2466">: PlageAgenda</text><path d="M659.476,293.5003 C665.354,302.1283 672.104,312.9233 676.92,323.2813 C692.939,357.7293 704.663,400.4693 710.874,425.9963 " fill="none" style="stroke: #383838; stroke-width: 1.0;"/><polygon fill="#383838" points="712.115,431.1723,713.9068,421.4877,710.9494,426.31,706.1272,423.3527,712.115,431.1723" style="stroke: #383838; stroke-width: 1.0;"/><text fill="#000000" font-family="sans-serif" font-size="13" lengthAdjust="spacingAndGlyphs" textLength="212" x="740.42" y="336.3481">ObtenirDetailsContact(idContact)</text><text fill="#000000" font-family="sans-serif" font-size="13" lengthAdjust="spacingAndGlyphs" textLength="281" x="705.92" y="351.481">: Contact, MotifDeContact, idClient, idAgent,</text><text fill="#000000" font-family="sans-serif" font-size="13" lengthAdjust="spacingAndGlyphs" textLength="258" x="717.42" y="366.6138">Liste&lt;PropositionCommerciale, idOffre&gt;</text><text fill="#000000" font-family="sans-serif" font-size="13" lengthAdjust="spacingAndGlyphs" textLength="220" x="738.42" y="381.7466">ObtenirResumeContact(idContact)</text><text fill="#000000" font-family="sans-serif" font-size="13" lengthAdjust="spacingAndGlyphs" textLength="277" x="707.92" y="396.8794">: Contact, MotifDeContact, idClient, idAgent</text><path d="M678.873,450.2103 C620.115,451.3523 502.991,458.7943 412.92,497.2813 C371.901,514.8093 332.402,549.0313 309.404,571.2593 " fill="none" style="stroke: #383838; stroke-width: 1.0;"/><polygon fill="#383838" points="305.581,574.9913,314.8156,571.5674,309.1591,571.4988,309.2277,565.8424,305.581,574.9913" style="stroke: #383838; stroke-width: 1.0;"/><text fill="#000000" font-family="sans-serif" font-size="13" lengthAdjust="spacingAndGlyphs" textLength="140" x="480.92" y="510.3481">ObtenirClient(idClient)</text><text fill="#000000" font-family="sans-serif" font-size="13" lengthAdjust="spacingAndGlyphs" textLength="44" x="526.92" y="525.481">: Client</text><text fill="#000000" font-family="sans-serif" font-size="13" lengthAdjust="spacingAndGlyphs" textLength="270" x="417.92" y="540.6138">ObtenirClientDuContact(idContact) : Client</text><path d="M718.868,467.3003 C724.819,506.9763 734.479,607.3873 693.92,675.2813 C686.566,687.5926 674.589,697.3643 662.604,704.7371 " fill="none" style="stroke: #383838; stroke-width: 1.0;"/><polygon fill="#383838" points="658.197,707.3452,667.9797,706.2052,662.5003,704.7993,663.9062,699.3199,658.197,707.3452" style="stroke: #383838; stroke-width: 1.0;"/><text fill="#000000" font-family="sans-serif" font-size="13" lengthAdjust="spacingAndGlyphs" textLength="167" x="723.92" y="589.8481">ObtenirDetailOffre(idOffre)</text><text fill="#000000" font-family="sans-serif" font-size="13" lengthAdjust="spacingAndGlyphs" textLength="144" x="735.42" y="604.981">: Offre, Liste&lt;Produit&gt;</text><path d="M788.264,60.9283 C751.468,71.8162 701.848,92.4963 673.92,129.2813 C644.811,167.6232 643.895,227.8502 645.462,257.1403 " fill="none" style="stroke: #383838; stroke-width: 1.0;"/><polygon fill="#383838" points="793.14,59.5203,783.3835,58.1746,788.3363,60.9076,785.6033,65.8605,793.14,59.5203" style="stroke: #383838; stroke-width: 1.0;"/><text fill="#000000" font-family="sans-serif" font-size="13" lengthAdjust="spacingAndGlyphs" textLength="320" x="674.92" y="142.8481">MajNbContactsPotentiels(idAgent, tempsPourRdv)</text><text fill="#000000" font-family="sans-serif" font-size="13" lengthAdjust="spacingAndGlyphs" textLength="34" x="817.92" y="157.981">: void</text><path d="M259.578,594.7123 C195.094,596.3443 44.2729,604.1383 12.9203,641.2813 C3.1732,652.8286 4.4213,662.7868 12.9203,675.2813 C28.7319,698.5264 57.995,710.275 83.5446,716.213 " fill="none" style="stroke: #383838; stroke-width: 1.0;"/><polygon fill="#383838" points="88.5999,717.3248,80.6693,711.4847,83.7166,716.2506,78.9507,719.2979,88.5999,717.3248" style="stroke: #383838; stroke-width: 1.0;"/><text fill="#000000" font-family="sans-serif" font-size="13" lengthAdjust="spacingAndGlyphs" textLength="188" x="13.9203" y="654.8481">ObtenirPersonne(idPersonne)</text><text fill="#000000" font-family="sans-serif" font-size="13" lengthAdjust="spacingAndGlyphs" textLength="68" x="73.9203" y="669.981">: Personne</text><path d="M163.331,705.0737 C177.466,696.7795 194.054,686.2586 207.92,675.2813 C220.544,665.2875 249.604,635.5303 269.258,615.0093 " fill="none" style="stroke: #383838; stroke-width: 1.0;"/><polygon fill="#383838" points="272.812,611.2923,263.7005,615.0312,269.3559,614.9055,269.4816,620.5609,272.812,611.2923" style="stroke: #383838; stroke-width: 1.0;"/><text fill="#000000" font-family="sans-serif" font-size="13" lengthAdjust="spacingAndGlyphs" textLength="242" x="243.92" y="654.8481">AjouterPersonne(idClient, idPersonne)</text><text fill="#000000" font-family="sans-serif" font-size="13" lengthAdjust="spacingAndGlyphs" textLength="34" x="347.92" y="669.981">: void</text><path d="M318.311,596.2063 C359.541,599.9483 435.889,610.7413 492.92,641.2813 C512.322,651.6706 510.858,662.7074 528.92,675.2813 C546.176,687.2935 566.952,697.9456 584.67,706.0588 " fill="none" style="stroke: #383838; stroke-width: 1.0;"/><polygon fill="#383838" points="589.58,708.2788,583.0272,700.9261,585.024,706.2188,579.7313,708.2157,589.58,708.2788" style="stroke: #383838; stroke-width: 1.0;"/><text fill="#000000" font-family="sans-serif" font-size="13" lengthAdjust="spacingAndGlyphs" textLength="158" x="529.92" y="654.8481">ObtenirProduit(idProduit)</text><text fill="#000000" font-family="sans-serif" font-size="13" lengthAdjust="spacingAndGlyphs" textLength="53" x="582.42" y="669.981">: Produit</text></g></svg>