<?xml version="1.0" encoding="UTF-8" standalone="yes"?><svg xmlns="http://www.w3.org/2000/svg" xmlns:xlink="http://www.w3.org/1999/xlink" height="525px" style="width:1513px;height:525px;" version="1.1" viewBox="0 0 1513 525" width="1513px"><defs/><g><text fill="#000000" font-family="sans-serif" font-size="20" lengthAdjust="spacingAndGlyphs" textLength="177" x="672.5" y="28.5645">Identifier le client</text><line style="stroke: none; stroke-width: 1.0;" x1="672.5" x2="849.5" y1="38.2813" y2="38.2813"/><ellipse cx="754" cy="53.2813" fill="#000000" rx="10" ry="10" style="stroke: none; stroke-width: 1.0;"/><polygon fill="#ECECEC" points="459,80.1328,459,120.3984,670,120.3984,670,90.1328,660,80.1328,459,80.1328" style="stroke: #383838; stroke-width: 1.0;"/><polygon fill="#ECECEC" points="459,80.1328,459,120.3984,670,120.3984,670,104.2656,690,100.2656,670,96.2656,670,90.1328,660,80.1328,459,80.1328" style="stroke: #383838; stroke-width: 1.0;"/><line style="stroke: #383838; stroke-width: 1.0;" x1="660" x2="660" y1="80.1328" y2="90.1328"/><line style="stroke: #383838; stroke-width: 1.0;" x1="670" x2="660" y1="90.1328" y2="90.1328"/><text fill="#000000" font-family="sans-serif" font-size="13" lengthAdjust="spacingAndGlyphs" textLength="190" x="465" y="97.1997">Acteur : Un agent de l'agence</text><text fill="#000000" font-family="sans-serif" font-size="13" lengthAdjust="spacingAndGlyphs" textLength="147" x="465" y="112.3325">Voir DA Identifier Client</text><rect fill="#F8F8F8" height="33.9688" rx="12.5" ry="12.5" style="stroke: #383838; stroke-width: 1.5;" width="128" x="690" y="83.2813"/><text fill="#000000" font-family="sans-serif" font-size="12" lengthAdjust="spacingAndGlyphs" textLength="108" x="700" y="104.4199">Identifier le client</text><rect fill="#F8F8F8" height="61.9063" rx="12.5" ry="12.5" style="stroke: #383838; stroke-width: 1.5;" width="152" x="269" y="160.3984"/><text fill="#000000" font-family="sans-serif" font-size="12" lengthAdjust="spacingAndGlyphs" textLength="132" x="279" y="181.5371">Consulter bilan client</text><text fill="#000000" font-family="sans-serif" font-size="12" lengthAdjust="spacingAndGlyphs" textLength="100" x="279" y="195.5059">(Cotation, bilan,</text><text fill="#000000" font-family="sans-serif" font-size="12" lengthAdjust="spacingAndGlyphs" textLength="122" x="279" y="209.4746">liste de personnes)</text><rect fill="#F8F8F8" height="47.9375" rx="12.5" ry="12.5" style="stroke: #383838; stroke-width: 1.5;" width="126" x="23" y="302.3203"/><text fill="#000000" font-family="sans-serif" font-size="12" lengthAdjust="spacingAndGlyphs" textLength="106" x="33" y="323.459">Consulter details</text><text fill="#000000" font-family="sans-serif" font-size="12" lengthAdjust="spacingAndGlyphs" textLength="99" x="33" y="337.4277">d'une personne</text><rect fill="#F8F8F8" height="33.9688" rx="12.5" ry="12.5" style="stroke: #383838; stroke-width: 1.5;" width="152" x="10" y="385.2578"/><text fill="#000000" font-family="sans-serif" font-size="12" lengthAdjust="spacingAndGlyphs" textLength="132" x="20" y="406.3965">Mise à jour personne</text><rect fill="#F8F8F8" height="33.9688" rx="12.5" ry="12.5" style="stroke: #383838; stroke-width: 1.5;" width="157" x="218.5" y="277.3047"/><text fill="#000000" font-family="sans-serif" font-size="12" lengthAdjust="spacingAndGlyphs" textLength="137" x="228.5" y="298.4434">Ajouter une personne</text><polygon fill="#F8F8F8" points="237,346.2734,357,346.2734,369,358.2734,357,370.2734,237,370.2734,225,358.2734,237,346.2734" style="stroke: #383838; stroke-width: 1.5;"/><text fill="#000000" font-family="sans-serif" font-size="11" lengthAdjust="spacingAndGlyphs" textLength="120" x="237" y="362.0815">Personne existante ?</text><text fill="#000000" font-family="sans-serif" font-size="11" lengthAdjust="spacingAndGlyphs" textLength="17" x="208" y="355.6792">oui</text><text fill="#000000" font-family="sans-serif" font-size="11" lengthAdjust="spacingAndGlyphs" textLength="21" x="369" y="355.6792">non</text><rect fill="#F8F8F8" height="33.9688" rx="12.5" ry="12.5" style="stroke: #383838; stroke-width: 1.5;" width="174" x="292" y="380.2734"/><text fill="#000000" font-family="sans-serif" font-size="12" lengthAdjust="spacingAndGlyphs" textLength="154" x="302" y="401.4121">Créer nouvelle personne</text><polygon fill="#F8F8F8" points="297,420.2422,309,432.2422,297,444.2422,285,432.2422,297,420.2422" style="stroke: #383838; stroke-width: 1.5;"/><rect fill="#F8F8F8" height="33.9688" rx="12.5" ry="12.5" style="stroke: #383838; stroke-width: 1.5;" width="176" x="504" y="316.2891"/><text fill="#000000" font-family="sans-serif" font-size="12" lengthAdjust="spacingAndGlyphs" textLength="156" x="514" y="337.4277">Supprimer une personne</text><ellipse cx="592" cy="395.2578" fill="none" rx="10" ry="10" style="stroke: #000000; stroke-width: 1.0;"/><ellipse cx="592.5" cy="395.7578" fill="#000000" rx="6" ry="6" style="stroke: none; stroke-width: 1.0;"/><rect fill="#F8F8F8" height="61.9063" rx="12.5" ry="12.5" style="stroke: #383838; stroke-width: 1.5;" width="156" x="879" y="219.8984"/><text fill="#000000" font-family="sans-serif" font-size="12" lengthAdjust="spacingAndGlyphs" textLength="136" x="889" y="241.0371">Consulter produits du</text><text fill="#000000" font-family="sans-serif" font-size="12" lengthAdjust="spacingAndGlyphs" textLength="113" x="889" y="255.0059">client à la banque</text><text fill="#000000" font-family="sans-serif" font-size="12" lengthAdjust="spacingAndGlyphs" textLength="123" x="889" y="268.9746">et à la concurrence</text><rect fill="#F8F8F8" height="47.9375" rx="12.5" ry="12.5" style="stroke: #383838; stroke-width: 1.5;" width="126" x="736" y="336.8047"/><text fill="#000000" font-family="sans-serif" font-size="12" lengthAdjust="spacingAndGlyphs" textLength="106" x="746" y="357.9434">Consulter détails</text><text fill="#000000" font-family="sans-serif" font-size="12" lengthAdjust="spacingAndGlyphs" textLength="78" x="746" y="371.9121">d'un compte</text><rect fill="#F8F8F8" height="47.9375" rx="12.5" ry="12.5" style="stroke: #383838; stroke-width: 1.5;" width="119" x="890" y="336.8047"/><text fill="#000000" font-family="sans-serif" font-size="12" lengthAdjust="spacingAndGlyphs" textLength="99" x="900" y="357.9434">Consulter détail</text><text fill="#000000" font-family="sans-serif" font-size="12" lengthAdjust="spacingAndGlyphs" textLength="76" x="904" y="371.9121">d'un produit</text><rect fill="#F8F8F8" height="47.9375" rx="12.5" ry="12.5" style="stroke: #383838; stroke-width: 1.5;" width="141" x="1037" y="336.8047"/><text fill="#000000" font-family="sans-serif" font-size="12" lengthAdjust="spacingAndGlyphs" textLength="121" x="1047" y="357.9434">Maj compte/produit</text><text fill="#000000" font-family="sans-serif" font-size="12" lengthAdjust="spacingAndGlyphs" textLength="106" x="1047" y="371.9121">à la concurrence</text><rect fill="#F8F8F8" height="33.9688" rx="12.5" ry="12.5" style="stroke: #383838; stroke-width: 1.5;" width="125" x="1220" y="267.8359"/><text fill="#000000" font-family="sans-serif" font-size="12" lengthAdjust="spacingAndGlyphs" textLength="105" x="1230" y="288.9746">Maj entête client</text><ellipse cx="1282.5" cy="346.8047" fill="none" rx="10" ry="10" style="stroke: #000000; stroke-width: 1.0;"/><ellipse cx="1283" cy="347.3047" fill="#000000" rx="6" ry="6" style="stroke: none; stroke-width: 1.0;"/><rect fill="#F8F8F8" height="47.9375" rx="12.5" ry="12.5" style="stroke: #383838; stroke-width: 1.5;" width="139" x="1373" y="260.8516"/><text fill="#000000" font-family="sans-serif" font-size="12" lengthAdjust="spacingAndGlyphs" textLength="119" x="1383" y="281.9902">Consulter relations</text><text fill="#000000" font-family="sans-serif" font-size="12" lengthAdjust="spacingAndGlyphs" textLength="86" x="1387" y="295.959">banque-client</text><ellipse cx="1442.5" cy="353.7891" fill="none" rx="10" ry="10" style="stroke: #000000; stroke-width: 1.0;"/><ellipse cx="1443" cy="354.2891" fill="#000000" rx="6" ry="6" style="stroke: none; stroke-width: 1.0;"/><ellipse cx="754" cy="514.2422" fill="none" rx="10" ry="10" style="stroke: #000000; stroke-width: 1.0;"/><ellipse cx="754.5" cy="514.7422" fill="#000000" rx="6" ry="6" style="stroke: none; stroke-width: 1.0;"/><line style="stroke: #383838; stroke-width: 1.5;" x1="754" x2="754" y1="63.2813" y2="83.2813"/><polygon fill="#383838" points="750,73.2813,754,83.2813,758,73.2813,754,77.2813" style="stroke: #383838; stroke-width: 1.0;"/><line style="stroke: #383838; stroke-width: 1.5;" x1="86" x2="86" y1="350.2578" y2="385.2578"/><polygon fill="#383838" points="82,375.2578,86,385.2578,90,375.2578,86,379.2578" style="stroke: #383838; stroke-width: 1.0;"/><line style="stroke: #383838; stroke-width: 1.5;" x1="225" x2="215" y1="358.2734" y2="358.2734"/><polygon fill="#383838" points="211,385.2578,215,395.2578,219,385.2578,215,389.2578" style="stroke: #383838; stroke-width: 1.5;"/><line style="stroke: #383838; stroke-width: 1.5;" x1="215" x2="215" y1="358.2734" y2="432.2422"/><line style="stroke: #383838; stroke-width: 1.5;" x1="215" x2="285" y1="432.2422" y2="432.2422"/><polygon fill="#383838" points="275,428.2422,285,432.2422,275,436.2422,279,432.2422" style="stroke: #383838; stroke-width: 1.0;"/><line style="stroke: #383838; stroke-width: 1.5;" x1="369" x2="379" y1="358.2734" y2="358.2734"/><line style="stroke: #383838; stroke-width: 1.5;" x1="379" x2="379" y1="358.2734" y2="380.2734"/><polygon fill="#383838" points="375,370.2734,379,380.2734,383,370.2734,379,374.2734" style="stroke: #383838; stroke-width: 1.0;"/><line style="stroke: #383838; stroke-width: 1.5;" x1="379" x2="379" y1="414.2422" y2="432.2422"/><line style="stroke: #383838; stroke-width: 1.5;" x1="379" x2="309" y1="432.2422" y2="432.2422"/><polygon fill="#383838" points="319,428.2422,309,432.2422,319,436.2422,315,432.2422" style="stroke: #383838; stroke-width: 1.0;"/><line style="stroke: #383838; stroke-width: 1.5;" x1="297" x2="297" y1="311.2734" y2="346.2734"/><polygon fill="#383838" points="293,336.2734,297,346.2734,301,336.2734,297,340.2734" style="stroke: #383838; stroke-width: 1.0;"/><line style="stroke: #383838; stroke-width: 1.5;" x1="592" x2="592" y1="350.2578" y2="385.2578"/><polygon fill="#383838" points="588,375.2578,592,385.2578,596,375.2578,592,379.2578" style="stroke: #383838; stroke-width: 1.0;"/><line style="stroke: #383838; stroke-width: 1.5;" x1="86" x2="86" y1="257.3047" y2="302.3203"/><polygon fill="#383838" points="82,292.3203,86,302.3203,90,292.3203,86,296.3203" style="stroke: #383838; stroke-width: 1.0;"/><line style="stroke: #383838; stroke-width: 1.5;" x1="86" x2="86" y1="419.2266" y2="464.2422"/><polygon fill="#383838" points="82,454.2422,86,464.2422,90,454.2422,86,458.2422" style="stroke: #383838; stroke-width: 1.0;"/><line style="stroke: #383838; stroke-width: 1.5;" x1="297" x2="297" y1="257.3047" y2="277.3047"/><polygon fill="#383838" points="293,267.3047,297,277.3047,301,267.3047,297,271.3047" style="stroke: #383838; stroke-width: 1.0;"/><line style="stroke: #383838; stroke-width: 1.5;" x1="297" x2="297" y1="444.2422" y2="464.2422"/><polygon fill="#383838" points="293,454.2422,297,464.2422,301,454.2422,297,458.2422" style="stroke: #383838; stroke-width: 1.0;"/><line style="stroke: #383838; stroke-width: 1.5;" x1="592" x2="592" y1="257.3047" y2="316.2891"/><polygon fill="#383838" points="588,306.2891,592,316.2891,596,306.2891,592,310.2891" style="stroke: #383838; stroke-width: 1.0;"/><line style="stroke: #383838; stroke-width: 1.5;" x1="86" x2="592" y1="257.3047" y2="257.3047"/><line style="stroke: #383838; stroke-width: 1.5;" x1="86" x2="345" y1="464.2422" y2="464.2422"/><line style="stroke: #383838; stroke-width: 1.5;" x1="345" x2="345" y1="222.3047" y2="257.3047"/><polygon fill="#383838" points="341,247.3047,345,257.3047,349,247.3047,345,251.3047" style="stroke: #383838; stroke-width: 1.0;"/><line style="stroke: #383838; stroke-width: 1.5;" x1="799" x2="799" y1="316.8047" y2="336.8047"/><polygon fill="#383838" points="795,326.8047,799,336.8047,803,326.8047,799,330.8047" style="stroke: #383838; stroke-width: 1.0;"/><line style="stroke: #383838; stroke-width: 1.5;" x1="799" x2="799" y1="384.7422" y2="404.7422"/><polygon fill="#383838" points="795,394.7422,799,404.7422,803,394.7422,799,398.7422" style="stroke: #383838; stroke-width: 1.0;"/><line style="stroke: #383838; stroke-width: 1.5;" x1="949.5" x2="949.5" y1="316.8047" y2="336.8047"/><polygon fill="#383838" points="945.5,326.8047,949.5,336.8047,953.5,326.8047,949.5,330.8047" style="stroke: #383838; stroke-width: 1.0;"/><line style="stroke: #383838; stroke-width: 1.5;" x1="949.5" x2="949.5" y1="384.7422" y2="404.7422"/><polygon fill="#383838" points="945.5,394.7422,949.5,404.7422,953.5,394.7422,949.5,398.7422" style="stroke: #383838; stroke-width: 1.0;"/><line style="stroke: #383838; stroke-width: 1.5;" x1="1107.5" x2="1107.5" y1="316.8047" y2="336.8047"/><polygon fill="#383838" points="1103.5,326.8047,1107.5,336.8047,1111.5,326.8047,1107.5,330.8047" style="stroke: #383838; stroke-width: 1.0;"/><line style="stroke: #383838; stroke-width: 1.5;" x1="1107.5" x2="1107.5" y1="384.7422" y2="404.7422"/><polygon fill="#383838" points="1103.5,394.7422,1107.5,404.7422,1111.5,394.7422,1107.5,398.7422" style="stroke: #383838; stroke-width: 1.0;"/><line style="stroke: #383838; stroke-width: 1.5;" x1="799" x2="1107.5" y1="316.8047" y2="316.8047"/><line style="stroke: #383838; stroke-width: 1.5;" x1="799" x2="1107.5" y1="404.7422" y2="404.7422"/><line style="stroke: #383838; stroke-width: 1.5;" x1="957" x2="957" y1="281.8047" y2="316.8047"/><polygon fill="#383838" points="953,306.8047,957,316.8047,961,306.8047,957,310.8047" style="stroke: #383838; stroke-width: 1.0;"/><line style="stroke: #383838; stroke-width: 1.5;" x1="1282.5" x2="1282.5" y1="301.8047" y2="336.8047"/><polygon fill="#383838" points="1278.5,326.8047,1282.5,336.8047,1286.5,326.8047,1282.5,330.8047" style="stroke: #383838; stroke-width: 1.0;"/><line style="stroke: #383838; stroke-width: 1.5;" x1="1442.5" x2="1442.5" y1="308.7891" y2="343.7891"/><polygon fill="#383838" points="1438.5,333.7891,1442.5,343.7891,1446.5,333.7891,1442.5,337.7891" style="stroke: #383838; stroke-width: 1.0;"/><line style="stroke: #383838; stroke-width: 1.5;" x1="345" x2="345" y1="140.3984" y2="160.3984"/><polygon fill="#383838" points="341,150.3984,345,160.3984,349,150.3984,345,154.3984" style="stroke: #383838; stroke-width: 1.0;"/><line style="stroke: #383838; stroke-width: 1.5;" x1="345" x2="345" y1="464.2422" y2="484.2422"/><polygon fill="#383838" points="341,474.2422,345,484.2422,349,474.2422,345,478.2422" style="stroke: #383838; stroke-width: 1.0;"/><line style="stroke: #383838; stroke-width: 1.5;" x1="957" x2="957" y1="140.3984" y2="219.8984"/><polygon fill="#383838" points="953,209.8984,957,219.8984,961,209.8984,957,213.8984" style="stroke: #383838; stroke-width: 1.0;"/><line style="stroke: #383838; stroke-width: 1.5;" x1="957" x2="957" y1="404.7422" y2="484.2422"/><polygon fill="#383838" points="953,474.2422,957,484.2422,961,474.2422,957,478.2422" style="stroke: #383838; stroke-width: 1.0;"/><line style="stroke: #383838; stroke-width: 1.5;" x1="1282.5" x2="1282.5" y1="140.3984" y2="267.8359"/><polygon fill="#383838" points="1278.5,257.8359,1282.5,267.8359,1286.5,257.8359,1282.5,261.8359" style="stroke: #383838; stroke-width: 1.0;"/><line style="stroke: #383838; stroke-width: 1.5;" x1="1442.5" x2="1442.5" y1="140.3984" y2="260.8516"/><polygon fill="#383838" points="1438.5,250.8516,1442.5,260.8516,1446.5,250.8516,1442.5,254.8516" style="stroke: #383838; stroke-width: 1.0;"/><line style="stroke: #383838; stroke-width: 1.5;" x1="345" x2="1442.5" y1="140.3984" y2="140.3984"/><line style="stroke: #383838; stroke-width: 1.5;" x1="345" x2="957" y1="484.2422" y2="484.2422"/><line style="stroke: #383838; stroke-width: 1.5;" x1="754" x2="754" y1="117.25" y2="140.3984"/><polygon fill="#383838" points="750,130.3984,754,140.3984,758,130.3984,754,134.3984" style="stroke: #383838; stroke-width: 1.0;"/><line style="stroke: #383838; stroke-width: 1.5;" x1="754" x2="754" y1="484.2422" y2="504.2422"/><polygon fill="#383838" points="750,494.2422,754,504.2422,758,494.2422,754,498.2422" style="stroke: #383838; stroke-width: 1.0;"/></g></svg>