<?xml version="1.0" encoding="UTF-8" standalone="yes"?><svg xmlns="http://www.w3.org/2000/svg" xmlns:xlink="http://www.w3.org/1999/xlink" height="540px" style="width:373px;height:540px;" version="1.1" viewBox="0 0 373 540" width="373px"><defs/><g><text fill="#000000" font-family="sans-serif" font-size="20" lengthAdjust="spacingAndGlyphs" textLength="303" x="43.5" y="18.5645">Diagramme d'activité du CU 1</text><line style="stroke: none; stroke-width: 1.0;" x1="43.5" x2="346.5" y1="28.2813" y2="28.2813"/><polygon fill="#ECECEC" points="6,41.2813,6,81.5469,182,81.5469,182,51.2813,172,41.2813,6,41.2813" style="stroke: #383838; stroke-width: 1.0;"/><polygon fill="#ECECEC" points="6,41.2813,6,81.5469,182,81.5469,182,65.2813,221.872,61.2813,182,57.2813,182,51.2813,172,41.2813,6,41.2813" style="stroke: #383838; stroke-width: 1.0;"/><line style="stroke: #383838; stroke-width: 1.0;" x1="172" x2="172" y1="41.2813" y2="51.2813"/><line style="stroke: #383838; stroke-width: 1.0;" x1="182" x2="172" y1="51.2813" y2="51.2813"/><text fill="#000000" font-family="sans-serif" font-size="13" lengthAdjust="spacingAndGlyphs" textLength="107" x="12" y="58.3481">Déclenché par le</text><text fill="#000000" font-family="sans-serif" font-size="13" lengthAdjust="spacingAndGlyphs" textLength="155" x="12" y="73.481">système (horloge/timer)</text><ellipse cx="232" cy="61.2813" fill="#000000" rx="10" ry="10" style="stroke: none; stroke-width: 1.0;"/><rect fill="#F8F8F8" height="33.9688" rx="12.5" ry="12.5" style="stroke: #383838; stroke-width: 1.5;" width="280" x="92" y="122.2813"/><text fill="#000000" font-family="sans-serif" font-size="12" lengthAdjust="spacingAndGlyphs" textLength="260" x="102" y="143.4199">Consulter la liste des évènements captés</text><rect fill="#F8F8F8" height="33.9688" rx="12.5" ry="12.5" style="stroke: #383838; stroke-width: 1.5;" width="135" x="164.5" y="197.2813"/><text fill="#000000" font-family="sans-serif" font-size="12" lengthAdjust="spacingAndGlyphs" textLength="115" x="174.5" y="218.4199">Traiter évènement</text><rect fill="#F8F8F8" height="33.9688" rx="12.5" ry="12.5" style="stroke: #383838; stroke-width: 1.5;" width="198" x="36" y="272.2813"/><text fill="#000000" font-family="sans-serif" font-size="12" lengthAdjust="spacingAndGlyphs" textLength="178" x="46" y="293.4199">Générer un motif de contact</text><rect fill="#F8F8F8" height="33.9688" rx="12.5" ry="12.5" style="stroke: #383838; stroke-width: 1.5;" width="182" x="50" y="363.2813"/><text fill="#000000" font-family="sans-serif" font-size="12" lengthAdjust="spacingAndGlyphs" textLength="162" x="60" y="384.4199">Générer un contact prévu</text><polygon fill="#F8F8F8" points="227,438.2813,239,450.2813,227,462.2813,215,450.2813,227,438.2813" style="stroke: #383838; stroke-width: 1.5;"/><ellipse cx="227" cy="529.2813" fill="none" rx="10" ry="10" style="stroke: #000000; stroke-width: 1.0;"/><ellipse cx="227.5" cy="529.7813" fill="#000000" rx="6" ry="6" style="stroke: none; stroke-width: 1.0;"/><path d="M232,71.2983 C232,82.4343 232,101.7462 232,116.7813 " fill="none" style="stroke: #383838; stroke-width: 1.0;"/><polygon fill="#383838" points="232,122.1042,236,113.1042,232,117.1042,228,113.1042,232,122.1042" style="stroke: #383838; stroke-width: 1.0;"/><path d="M232,156.4823 C232,166.9733 232,180.7443 232,192.0992 " fill="none" style="stroke: #383838; stroke-width: 1.0;"/><polygon fill="#383838" points="232,197.1253,236,188.1253,232,192.1253,228,188.1253,232,197.1253" style="stroke: #383838; stroke-width: 1.0;"/><path d="M210.473,231.4823 C195.779,242.5403 176.244,257.2423 160.729,268.9183 " fill="none" style="stroke: #383838; stroke-width: 1.0;"/><polygon fill="#383838" points="156.467,272.1253,166.0633,269.9093,160.462,269.1186,161.2527,263.5173,156.467,272.1253" style="stroke: #383838; stroke-width: 1.0;"/><path d="M136.1,306.6053 C137.073,321.0323 138.498,342.1733 139.561,357.9383 " fill="none" style="stroke: #383838; stroke-width: 1.0;"/><polygon fill="#383838" points="139.906,363.0613,143.29,353.812,139.5689,358.0726,135.3082,354.3515,139.906,363.0613" style="stroke: #383838; stroke-width: 1.0;"/><path d="M161.381,397.3963 C178.696,411.0873 202.851,430.1863 216.506,440.9835 " fill="none" style="stroke: #383838; stroke-width: 1.0;"/><polygon fill="#383838" points="220.709,444.3069,216.1306,435.5868,216.7871,441.2055,211.1684,441.8619,220.709,444.3069" style="stroke: #383838; stroke-width: 1.0;"/><text fill="#000000" font-family="sans-serif" font-size="13" lengthAdjust="spacingAndGlyphs" textLength="136" x="71.0115" y="422.5316">Tous les évènements</text><text fill="#000000" font-family="sans-serif" font-size="13" lengthAdjust="spacingAndGlyphs" textLength="102" x="88.0115" y="437.6644">ont été traités ?</text><path d="M227,462.3135 C227,475.9428 227,499.1548 227,514.0961 " fill="none" style="stroke: #383838; stroke-width: 1.0;"/><polygon fill="#383838" points="227,519.1935,231,510.1935,227,514.1935,223,510.1935,227,519.1935" style="stroke: #383838; stroke-width: 1.0;"/><text fill="#000000" font-family="sans-serif" font-size="13" lengthAdjust="spacingAndGlyphs" textLength="19" x="228" y="495.3481">oui</text><path d="M230.125,440.9649 C233.767,430.8213 239.591,413.0713 242,397.2813 C245.987,371.1503 246.609,297.3423 244,272.2813 C242.758,260.3523 240.091,247.2433 237.587,236.6073 " fill="none" style="stroke: #383838; stroke-width: 1.0;"/><polygon fill="#383838" points="236.377,231.6013,234.6027,241.289,237.5513,236.4614,242.3789,239.41,236.377,231.6013" style="stroke: #383838; stroke-width: 1.0;"/><text fill="#000000" font-family="sans-serif" font-size="13" lengthAdjust="spacingAndGlyphs" textLength="24" x="246" y="339.3481">non</text></g></svg>