<?xml version="1.0" encoding="UTF-8" standalone="yes"?><svg xmlns="http://www.w3.org/2000/svg" xmlns:xlink="http://www.w3.org/1999/xlink" height="927px" style="width:552px;height:927px;" version="1.1" viewBox="0 0 552 927" width="552px"><defs/><g><text fill="#000000" font-family="sans-serif" font-size="20" lengthAdjust="spacingAndGlyphs" textLength="217" x="176.25" y="18.5645">Diagramme d'activité</text><text fill="#000000" font-family="sans-serif" font-size="20" lengthAdjust="spacingAndGlyphs" textLength="80" x="244.75" y="41.8457">du CU 9</text><line style="stroke: none; stroke-width: 1.0;" x1="176.25" x2="393.25" y1="51.5625" y2="51.5625"/><polygon fill="#ECECEC" points="6,65.0625,6,90.1953,217,90.1953,217,75.0625,207,65.0625,6,65.0625" style="stroke: #383838; stroke-width: 1.0;"/><polygon fill="#ECECEC" points="6,65.0625,6,90.1953,217,90.1953,217,83.0625,256.165,77.5625,217,75.0625,217,75.0625,207,65.0625,6,65.0625" style="stroke: #383838; stroke-width: 1.0;"/><line style="stroke: #383838; stroke-width: 1.0;" x1="207" x2="207" y1="65.0625" y2="75.0625"/><line style="stroke: #383838; stroke-width: 1.0;" x1="217" x2="207" y1="75.0625" y2="75.0625"/><text fill="#000000" font-family="sans-serif" font-size="13" lengthAdjust="spacingAndGlyphs" textLength="190" x="12" y="82.1294">Acteur : Un agent de l'agence</text><ellipse cx="266.25" cy="77.5625" fill="#000000" rx="10" ry="10" style="stroke: none; stroke-width: 1.0;"/><rect fill="#F8F8F8" height="33.9688" rx="12.5" ry="12.5" style="stroke: #383838; stroke-width: 1.5;" width="142" x="195.25" y="132.5625"/><text fill="#000000" font-family="sans-serif" font-size="12" lengthAdjust="spacingAndGlyphs" textLength="122" x="205.25" y="153.7012">Identifier le contact</text><rect fill="#F8F8F8" height="33.9688" rx="12.5" ry="12.5" style="stroke: #383838; stroke-width: 1.5;" width="184" x="174.25" y="208.5625"/><text fill="#000000" font-family="sans-serif" font-size="12" lengthAdjust="spacingAndGlyphs" textLength="164" x="184.25" y="229.7012">Voir les détails du contact</text><polygon fill="#F8F8F8" points="266.25,284.5625,278.25,296.5625,266.25,308.5625,254.25,296.5625,266.25,284.5625" style="stroke: #383838; stroke-width: 1.5;"/><rect fill="#F8F8F8" height="47.9375" rx="12.5" ry="12.5" style="stroke: #383838; stroke-width: 1.5;" width="261" x="8" y="366.5625"/><text fill="#000000" font-family="sans-serif" font-size="12" lengthAdjust="spacingAndGlyphs" textLength="241" x="18" y="387.7012">Afficher les propositions commerciales</text><text fill="#000000" font-family="sans-serif" font-size="12" lengthAdjust="spacingAndGlyphs" textLength="177" x="50" y="401.6699">et annotations enregistrées</text><rect fill="#F8F8F8" height="33.9688" rx="12.5" ry="12.5" style="stroke: #383838; stroke-width: 1.5;" width="255" x="132" y="456.5625"/><text fill="#000000" font-family="sans-serif" font-size="12" lengthAdjust="spacingAndGlyphs" textLength="235" x="142" y="477.7012">Consulter le dossier client du contact</text><rect fill="#000000" height="8" style="stroke: none; stroke-width: 1.0;" width="80" x="219.25" y="532.5625"/><rect fill="#F8F8F8" height="33.9688" rx="12.5" ry="12.5" style="stroke: #383838; stroke-width: 1.5;" width="192" x="68.25" y="582.5625"/><text fill="#000000" font-family="sans-serif" font-size="12" lengthAdjust="spacingAndGlyphs" textLength="172" x="78.25" y="603.7012">Consulter la liste des offres</text><rect fill="#F8F8F8" height="33.9688" rx="12.5" ry="12.5" style="stroke: #383838; stroke-width: 1.5;" width="264" x="23.25" y="690.5625"/><text fill="#000000" font-family="sans-serif" font-size="12" lengthAdjust="spacingAndGlyphs" textLength="244" x="33.25" y="711.7012">Voir le détails d'une offre du catalogue</text><rect fill="#000000" height="8" style="stroke: none; stroke-width: 1.0;" width="80" x="230.25" y="766.5625"/><rect fill="#F8F8F8" height="33.9688" rx="12.5" ry="12.5" style="stroke: #383838; stroke-width: 1.5;" width="285" x="175" y="636.5625"/><text fill="#000000" font-family="sans-serif" font-size="12" lengthAdjust="spacingAndGlyphs" textLength="265" x="185" y="657.7012">Soumettre des propositions commerciales</text><rect fill="#F8F8F8" height="47.9375" rx="12.5" ry="12.5" style="stroke: #383838; stroke-width: 1.5;" width="159" x="191" y="816.5625"/><text fill="#000000" font-family="sans-serif" font-size="12" lengthAdjust="spacingAndGlyphs" textLength="136" x="202.5" y="837.7012">Enregistrer le rapport</text><text fill="#000000" font-family="sans-serif" font-size="12" lengthAdjust="spacingAndGlyphs" textLength="139" x="201" y="851.6699">d'activité commerciale</text><polygon fill="#ECECEC" points="389.25,820.5625,389.25,860.8281,551.25,860.8281,551.25,830.5625,541.25,820.5625,389.25,820.5625" style="stroke: #383838; stroke-width: 1.0;"/><polygon fill="#ECECEC" points="389.25,820.5625,389.25,836.5625,349.547,840.5625,389.25,844.5625,389.25,860.8281,551.25,860.8281,551.25,830.5625,541.25,820.5625,389.25,820.5625" style="stroke: #383838; stroke-width: 1.0;"/><line style="stroke: #383838; stroke-width: 1.0;" x1="541.25" x2="541.25" y1="820.5625" y2="830.5625"/><line style="stroke: #383838; stroke-width: 1.0;" x1="551.25" x2="541.25" y1="830.5625" y2="830.5625"/><text fill="#000000" font-family="sans-serif" font-size="13" lengthAdjust="spacingAndGlyphs" textLength="137" x="395.25" y="837.6294">Enregistrer le contact</text><text fill="#000000" font-family="sans-serif" font-size="13" lengthAdjust="spacingAndGlyphs" textLength="141" x="395.25" y="852.7622">comme étant terminé</text><ellipse cx="270.25" cy="916.5625" fill="none" rx="10" ry="10" style="stroke: #000000; stroke-width: 1.0;"/><ellipse cx="270.75" cy="917.0625" fill="#000000" rx="6" ry="6" style="stroke: none; stroke-width: 1.0;"/><path d="M266.25,87.7135 C266.25,97.7245 266.25,114.1115 266.25,127.3585 " fill="none" style="stroke: #383838; stroke-width: 1.0;"/><polygon fill="#383838" points="266.25,132.4455,270.25,123.4455,266.25,127.4455,262.25,123.4455,266.25,132.4455" style="stroke: #383838; stroke-width: 1.0;"/><path d="M266.25,166.6195 C266.25,177.3835 266.25,191.6725 266.25,203.3685 " fill="none" style="stroke: #383838; stroke-width: 1.0;"/><polygon fill="#383838" points="266.25,208.5365,270.25,199.5365,266.25,203.5365,262.25,199.5365,266.25,208.5365" style="stroke: #383838; stroke-width: 1.0;"/><path d="M266.25,242.5655 C266.25,253.5135 266.25,267.9905 266.25,279.0465 " fill="none" style="stroke: #383838; stroke-width: 1.0;"/><polygon fill="#383838" points="266.25,284.1685,270.25,275.1685,266.25,279.1685,262.25,275.1685,266.25,284.1685" style="stroke: #383838; stroke-width: 1.0;"/><text fill="#000000" font-family="sans-serif" font-size="13" lengthAdjust="spacingAndGlyphs" textLength="117" x="129.2844" y="273.5966">Preparation faite ?</text><path d="M259.726,302.2515 C244.285,313.3495 204.556,341.9055 174.705,363.3605 " fill="none" style="stroke: #383838; stroke-width: 1.0;"/><polygon fill="#383838" points="170.377,366.4715,180.02,364.4684,174.4375,363.554,175.352,357.9715,170.377,366.4715" style="stroke: #383838; stroke-width: 1.0;"/><text fill="#000000" font-family="sans-serif" font-size="13" lengthAdjust="spacingAndGlyphs" textLength="19" x="221.25" y="341.6294">oui</text><path d="M172.924,414.7735 C191.336,427.0995 213.677,442.0555 231.018,453.6635 " fill="none" style="stroke: #383838; stroke-width: 1.0;"/><polygon fill="#383838" points="235.314,456.5395,230.0608,448.2086,231.1593,453.7578,225.6101,454.8562,235.314,456.5395" style="stroke: #383838; stroke-width: 1.0;"/><path d="M268.722,306.4125 C273.851,325.9955 284.655,374.4365 278.25,414.5625 C276.251,427.0845 271.969,440.5735 267.975,451.3895 " fill="none" style="stroke: #383838; stroke-width: 1.0;"/><polygon fill="#383838" points="266.17,456.1575,273.0991,449.1584,267.9414,451.4818,265.618,446.3241,266.17,456.1575" style="stroke: #383838; stroke-width: 1.0;"/><text fill="#000000" font-family="sans-serif" font-size="13" lengthAdjust="spacingAndGlyphs" textLength="24" x="280.25" y="394.6294">non</text><path d="M259.25,490.5895 C259.25,502.4035 259.25,517.9895 259.25,527.3675 " fill="none" style="stroke: #383838; stroke-width: 1.0;"/><polygon fill="#383838" points="259.25,532.5325,263.25,523.5325,259.25,527.5325,255.25,523.5325,259.25,532.5325" style="stroke: #383838; stroke-width: 1.0;"/><path d="M254.408,540.6715 C243.349,547.7725 215.5,565.6545 193.655,579.6815 " fill="none" style="stroke: #383838; stroke-width: 1.0;"/><polygon fill="#383838" points="189.373,582.4305,199.1074,580.9336,193.5803,579.729,194.785,574.2018,189.373,582.4305" style="stroke: #383838; stroke-width: 1.0;"/><path d="M162.883,616.6615 C161.33,634.9505 158.789,664.8775 157.07,685.1295 " fill="none" style="stroke: #383838; stroke-width: 1.0;"/><polygon fill="#383838" points="156.63,690.3115,161.3767,681.682,157.0528,685.3294,153.4054,681.0055,156.63,690.3115" style="stroke: #383838; stroke-width: 1.0;"/><path d="M185.465,724.5895 C210.071,737.6415 243.355,755.2965 259.951,764.0995 " fill="none" style="stroke: #383838; stroke-width: 1.0;"/><polygon fill="#383838" points="264.537,766.5325,258.4604,758.7817,260.1199,764.1896,254.7119,765.8491,264.537,766.5325" style="stroke: #383838; stroke-width: 1.0;"/><path d="M260.801,540.6385 C267.239,553.4015 292.185,602.8655 306.67,631.5855 " fill="none" style="stroke: #383838; stroke-width: 1.0;"/><polygon fill="#383838" points="309.074,636.3505,308.5928,626.5134,306.8225,631.8861,301.4498,630.1158,309.074,636.3505" style="stroke: #383838; stroke-width: 1.0;"/><path d="M313.88,670.8235 C310.587,685.2835 304.947,706.8225 297.25,724.5625 C291.244,738.4055 281.708,753.1725 275.723,761.8735 " fill="none" style="stroke: #383838; stroke-width: 1.0;"/><polygon fill="#383838" points="272.52,766.4445,280.9614,761.3708,275.39,762.3502,274.4106,756.7788,272.52,766.4445" style="stroke: #383838; stroke-width: 1.0;"/><path d="M270.25,774.8425 C270.25,781.4585 270.25,796.9825 270.25,811.1685 " fill="none" style="stroke: #383838; stroke-width: 1.0;"/><polygon fill="#383838" points="270.25,816.3155,274.25,807.3155,270.25,811.3155,266.25,807.3155,270.25,816.3155" style="stroke: #383838; stroke-width: 1.0;"/><path d="M270.25,864.5709 C270.25,876.566 270.25,890.8618 270.25,901.2601 " fill="none" style="stroke: #383838; stroke-width: 1.0;"/><polygon fill="#383838" points="270.25,906.3097,274.25,897.3097,270.25,901.3097,266.25,897.3097,270.25,906.3097" style="stroke: #383838; stroke-width: 1.0;"/></g></svg>