<?xml version="1.0" encoding="UTF-8" standalone="yes"?><svg xmlns="http://www.w3.org/2000/svg" xmlns:xlink="http://www.w3.org/1999/xlink" height="377px" style="width:841px;height:377px;" version="1.1" viewBox="0 0 841 377" width="841px"><defs/><g><text fill="#000000" font-family="sans-serif" font-size="20" lengthAdjust="spacingAndGlyphs" textLength="303" x="277.5" y="18.5645">Diagramme d'activité du CU 7</text><line style="stroke: none; stroke-width: 1.0;" x1="277.5" x2="580.5" y1="28.2813" y2="28.2813"/><polygon fill="#ECECEC" points="251.5,41.2813,251.5,66.4141,462.5,66.4141,462.5,51.2813,452.5,41.2813,251.5,41.2813" style="stroke: #383838; stroke-width: 1.0;"/><polygon fill="#ECECEC" points="251.5,41.2813,251.5,66.4141,462.5,66.4141,462.5,59.2813,482.591,53.7813,462.5,51.2813,462.5,51.2813,452.5,41.2813,251.5,41.2813" style="stroke: #383838; stroke-width: 1.0;"/><line style="stroke: #383838; stroke-width: 1.0;" x1="452.5" x2="452.5" y1="41.2813" y2="51.2813"/><line style="stroke: #383838; stroke-width: 1.0;" x1="462.5" x2="452.5" y1="51.2813" y2="51.2813"/><text fill="#000000" font-family="sans-serif" font-size="13" lengthAdjust="spacingAndGlyphs" textLength="190" x="257.5" y="58.3481">Acteur : Un agent de l'agence</text><ellipse cx="493" cy="53.7813" fill="#000000" rx="10" ry="10" style="stroke: none; stroke-width: 1.0;"/><rect fill="#F8F8F8" height="47.9375" rx="12.5" ry="12.5" style="stroke: #383838; stroke-width: 1.5;" width="187" x="399.5" y="106.2813"/><text fill="#000000" font-family="sans-serif" font-size="12" lengthAdjust="spacingAndGlyphs" textLength="118" x="434" y="127.4199">Consulter l'agenda</text><text fill="#000000" font-family="sans-serif" font-size="12" lengthAdjust="spacingAndGlyphs" textLength="163" x="413.5" y="141.3887">hebdomadaire d'un agent</text><rect fill="#F8F8F8" height="47.9375" rx="12.5" ry="12.5" style="stroke: #383838; stroke-width: 1.5;" width="201" x="197.5" y="194.2813"/><text fill="#000000" font-family="sans-serif" font-size="12" lengthAdjust="spacingAndGlyphs" textLength="181" x="207.5" y="215.4199">Consulter l'agenda quotidien</text><text fill="#000000" font-family="sans-serif" font-size="12" lengthAdjust="spacingAndGlyphs" textLength="73" x="261.5" y="229.3887">de l'agence</text><rect fill="#F8F8F8" height="33.9688" rx="12.5" ry="12.5" style="stroke: #383838; stroke-width: 1.5;" width="126" x="140" y="282.2813"/><text fill="#000000" font-family="sans-serif" font-size="12" lengthAdjust="spacingAndGlyphs" textLength="106" x="150" y="303.4199">Changer de date</text><rect fill="#F8F8F8" height="33.9688" rx="12.5" ry="12.5" style="stroke: #383838; stroke-width: 1.5;" width="155" x="286.5" y="282.2813"/><text fill="#000000" font-family="sans-serif" font-size="12" lengthAdjust="spacingAndGlyphs" textLength="135" x="296.5" y="303.4199">Consulter détails RDV</text><rect fill="#F8F8F8" height="33.9688" rx="12.5" ry="12.5" style="stroke: #383838; stroke-width: 1.5;" width="157" x="461.5" y="282.2813"/><text fill="#000000" font-family="sans-serif" font-size="12" lengthAdjust="spacingAndGlyphs" textLength="137" x="471.5" y="303.4199">Modifier plage horaire</text><rect fill="#F8F8F8" height="33.9688" rx="12.5" ry="12.5" style="stroke: #383838; stroke-width: 1.5;" width="97" x="638.5" y="282.2813"/><text fill="#000000" font-family="sans-serif" font-size="12" lengthAdjust="spacingAndGlyphs" textLength="77" x="648.5" y="303.4199">Annuler RDV</text><rect fill="#F8F8F8" height="33.9688" rx="12.5" ry="12.5" style="stroke: #383838; stroke-width: 1.5;" width="114" x="6" y="282.2813"/><text fill="#000000" font-family="sans-serif" font-size="12" lengthAdjust="spacingAndGlyphs" textLength="94" x="16" y="303.4199">Reaffecter RDV</text><rect fill="#F8F8F8" height="33.9688" rx="12.5" ry="12.5" style="stroke: #383838; stroke-width: 1.5;" width="125" x="545.5" y="201.2813"/><text fill="#000000" font-family="sans-serif" font-size="12" lengthAdjust="spacingAndGlyphs" textLength="105" x="555.5" y="222.4199">Changer d'agent</text><polygon fill="#ECECEC" points="154.5,117.7813,154.5,142.9141,379.5,142.9141,379.5,127.7813,369.5,117.7813,154.5,117.7813" style="stroke: #383838; stroke-width: 1.0;"/><polygon fill="#ECECEC" points="154.5,117.7813,154.5,142.9141,379.5,142.9141,379.5,135.7813,399.499,130.2813,379.5,127.7813,379.5,127.7813,369.5,117.7813,154.5,117.7813" style="stroke: #383838; stroke-width: 1.0;"/><line style="stroke: #383838; stroke-width: 1.0;" x1="369.5" x2="369.5" y1="117.7813" y2="127.7813"/><line style="stroke: #383838; stroke-width: 1.0;" x1="379.5" x2="369.5" y1="127.7813" y2="127.7813"/><text fill="#000000" font-family="sans-serif" font-size="13" lengthAdjust="spacingAndGlyphs" textLength="204" x="160.5" y="134.8481">Par défaut, l'agent est connecté</text><rect fill="#F8F8F8" height="33.9688" rx="12.5" ry="12.5" style="stroke: #383838; stroke-width: 1.5;" width="150" x="690" y="201.2813"/><text fill="#000000" font-family="sans-serif" font-size="12" lengthAdjust="spacingAndGlyphs" textLength="130" x="700" y="222.4199">Changer de semaine</text><ellipse cx="452" cy="366.2813" fill="none" rx="10" ry="10" style="stroke: #000000; stroke-width: 1.0;"/><ellipse cx="452.5" cy="366.7813" fill="#000000" rx="6" ry="6" style="stroke: none; stroke-width: 1.0;"/><path d="M493,63.9162 C493,73.1092 493,87.7633 493,100.8693 " fill="none" style="stroke: #383838; stroke-width: 1.0;"/><polygon fill="#383838" points="493,105.9903,497,96.9903,493,100.9903,489,96.9903,493,105.9903" style="stroke: #383838; stroke-width: 1.0;"/><path d="M263.377,242.3433 C248.699,253.8003 232.318,267.5033 220.213,278.4785 " fill="none" style="stroke: #383838; stroke-width: 1.0;"/><polygon fill="#383838" points="216.28,282.0889,225.6149,278.9489,219.9632,278.7075,220.2047,273.0558,216.28,282.0889" style="stroke: #383838; stroke-width: 1.0;"/><path d="M228.548,282.1754 C242.427,271.7513 259.366,257.9293 273.126,245.8983 " fill="none" style="stroke: #383838; stroke-width: 1.0;"/><polygon fill="#383838" points="276.917,242.5563,267.52,245.5053,273.1656,245.8619,272.8091,251.5075,276.917,242.5563" style="stroke: #383838; stroke-width: 1.0;"/><path d="M317.445,242.5563 C326.927,253.9063 338.217,267.4193 347.304,278.2964 " fill="none" style="stroke: #383838; stroke-width: 1.0;"/><polygon fill="#383838" points="350.544,282.1754,347.8434,272.704,347.3383,278.3382,341.704,277.8331,350.544,282.1754" style="stroke: #383838; stroke-width: 1.0;"/><path d="M368.647,242.3433 C406.012,254.5413 451.174,269.2843 485.751,280.5719 " fill="none" style="stroke: #383838; stroke-width: 1.0;"/><polygon fill="#383838" points="490.774,282.2115,483.4612,275.6143,486.0212,280.6587,480.9768,283.2187,490.774,282.2115" style="stroke: #383838; stroke-width: 1.0;"/><path d="M398.754,236.2693 C464.567,247.9033 552.227,264.4163 629,282.2813 C630.431,282.6142 631.879,282.9588 633.339,283.3129 " fill="none" style="stroke: #383838; stroke-width: 1.0;"/><polygon fill="#383838" points="638.339,284.5495,630.5621,278.5063,633.4851,283.3494,628.642,286.2725,638.339,284.5495" style="stroke: #383838; stroke-width: 1.0;"/><path d="M229.397,242.3433 C193.112,254.5413 149.257,269.2843 115.68,280.5719 " fill="none" style="stroke: #383838; stroke-width: 1.0;"/><polygon fill="#383838" points="110.802,282.2115,120.6074,283.1358,115.5415,280.6185,118.0587,275.5526,110.802,282.2115" style="stroke: #383838; stroke-width: 1.0;"/><path d="M592.559,201.2523 C577.683,188.9253 554.888,171.6383 534.792,157.3323 " fill="none" style="stroke: #383838; stroke-width: 1.0;"/><polygon fill="#383838" points="530.548,154.3273,535.5821,162.7923,534.6288,157.2164,540.2047,156.2631,530.548,154.3273" style="stroke: #383838; stroke-width: 1.0;"/><path d="M517.087,154.3273 C534.376,168.1123 557.64,185.4113 576.398,198.3853 " fill="none" style="stroke: #383838; stroke-width: 1.0;"/><polygon fill="#383838" points="580.572,201.2523,575.4169,192.8603,576.4502,198.422,570.8885,199.4552,580.572,201.2523" style="stroke: #383838; stroke-width: 1.0;"/><path d="M559.161,154.3273 C603.129,168.6043 660.393,186.6513 703.401,199.7593 " fill="none" style="stroke: #383838; stroke-width: 1.0;"/><polygon fill="#383838" points="708.309,201.2523,700.8614,194.8077,703.5251,199.7981,698.5347,202.4619,708.309,201.2523" style="stroke: #383838; stroke-width: 1.0;"/><path d="M720.296,201.2523 C681.587,188.4863 624.677,170.4033 577.452,155.8173 " fill="none" style="stroke: #383838; stroke-width: 1.0;"/><polygon fill="#383838" points="572.622,154.3273,580.0428,160.8028,577.3998,155.8013,582.4012,153.1583,572.622,154.3273" style="stroke: #383838; stroke-width: 1.0;"/><path d="M475.502,154.3053 C458.374,176.7993 431.505,211.9793 408,242.2813 C398.768,254.1833 388.358,267.4393 379.982,278.0659 " fill="none" style="stroke: #383838; stroke-width: 1.0;"/><polygon fill="#383838" points="376.761,282.1492,385.4753,277.5599,379.8575,278.2234,379.194,272.6056,376.761,282.1492" style="stroke: #383838; stroke-width: 1.0;"/><path d="M490.151,154.5783 C488.227,177.5823 487.648,213.4093 498,242.2813 C502.78,255.6123 511.911,268.4103 520.441,278.3983 " fill="none" style="stroke: #383838; stroke-width: 1.0;"/><polygon fill="#383838" points="523.795,282.2219,520.8671,272.8183,520.4978,278.4631,514.853,278.0938,523.795,282.2219" style="stroke: #383838; stroke-width: 1.0;"/><path d="M496.231,154.3133 C500.871,179.1523 511.715,218.3443 536,242.2813 C550.293,256.3692 596.038,272.2663 633.467,283.5141 " fill="none" style="stroke: #383838; stroke-width: 1.0;"/><polygon fill="#383838" points="638.455,285.0004,630.973,278.5957,633.6634,283.5718,628.6873,286.2623,638.455,285.0004" style="stroke: #383838; stroke-width: 1.0;"/><path d="M399.475,152.0673 C395.94,152.8203 392.439,153.5603 389,154.2813 C299.425,173.0523 269.541,154.7453 187,194.2813 C143.704,215.0193 102.9655,254.4022 80.6568,278.3042 " fill="none" style="stroke: #383838; stroke-width: 1.0;"/><polygon fill="#383838" points="77.2371,282.0022,86.2843,278.1101,80.6318,278.3312,80.4108,272.6786,77.2371,282.0022" style="stroke: #383838; stroke-width: 1.0;"/><path d="M434.013,154.3273 C406.71,165.9443 374.653,180.0563 348.481,191.9733 " fill="none" style="stroke: #383838; stroke-width: 1.0;"/><polygon fill="#383838" points="343.665,194.1713,353.5134,194.0738,348.2137,192.0955,350.1921,186.7958,343.665,194.1713" style="stroke: #383838; stroke-width: 1.0;"/><path d="M357.136,194.1713 C384.457,182.5463 416.512,168.4333 442.662,156.5243 " fill="none" style="stroke: #383838; stroke-width: 1.0;"/><polygon fill="#383838" points="447.474,154.3273,437.6256,154.4272,442.9258,156.4042,440.9488,161.7044,447.474,154.3273" style="stroke: #383838; stroke-width: 1.0;"/><path d="M385.753,316.3487 C402.764,328.9135 425.795,345.9251 439.738,356.224 " fill="none" style="stroke: #383838; stroke-width: 1.0;"/><polygon fill="#383838" points="444.096,359.4432,439.2323,350.879,440.0738,356.4729,434.4799,357.3145,444.096,359.4432" style="stroke: #383838; stroke-width: 1.0;"/><path d="M518.247,316.3487 C501.236,328.9135 478.205,345.9251 464.262,356.224 " fill="none" style="stroke: #383838; stroke-width: 1.0;"/><polygon fill="#383838" points="459.904,359.4432,469.5201,357.3145,463.9262,356.4729,464.7677,350.879,459.904,359.4432" style="stroke: #383838; stroke-width: 1.0;"/><path d="M638.308,313.7493 C584.2,328.7152 500.036,351.9947 466.502,361.27 " fill="none" style="stroke: #383838; stroke-width: 1.0;"/><polygon fill="#383838" points="461.568,362.635,471.3086,364.091,466.3871,361.3021,469.176,356.3805,461.568,362.635" style="stroke: #383838; stroke-width: 1.0;"/><path d="M120.314,314.3004 C123.585,314.9969 126.831,315.6629 130,316.2813 C247.596,339.2287 391.117,357.7576 437.087,363.462 " fill="none" style="stroke: #383838; stroke-width: 1.0;"/><polygon fill="#383838" points="442.201,364.0935,433.7591,359.0205,437.2387,363.4806,432.7786,366.9602,442.201,364.0935" style="stroke: #383838; stroke-width: 1.0;"/></g></svg>