<?xml version="1.0" encoding="UTF-8" standalone="yes"?><svg xmlns="http://www.w3.org/2000/svg" xmlns:xlink="http://www.w3.org/1999/xlink" height="423px" style="width:373px;height:423px;" version="1.1" viewBox="0 0 373 423" width="373px"><defs/><g><text fill="#000000" font-family="sans-serif" font-size="20" lengthAdjust="spacingAndGlyphs" textLength="303" x="44" y="18.5645">Diagramme d'activité du CU 3</text><line style="stroke: none; stroke-width: 1.0;" x1="44" x2="347" y1="28.2813" y2="28.2813"/><polygon fill="#ECECEC" points="6,41.2813,6,66.4141,204,66.4141,204,51.2813,194,41.2813,6,41.2813" style="stroke: #383838; stroke-width: 1.0;"/><polygon fill="#ECECEC" points="6,41.2813,6,66.4141,204,66.4141,204,59.2813,223.694,53.7813,204,51.2813,204,51.2813,194,41.2813,6,41.2813" style="stroke: #383838; stroke-width: 1.0;"/><line style="stroke: #383838; stroke-width: 1.0;" x1="194" x2="194" y1="41.2813" y2="51.2813"/><line style="stroke: #383838; stroke-width: 1.0;" x1="204" x2="194" y1="51.2813" y2="51.2813"/><text fill="#000000" font-family="sans-serif" font-size="13" lengthAdjust="spacingAndGlyphs" textLength="177" x="12" y="58.3481">Acteur : Le chef de l'agence</text><ellipse cx="234" cy="53.7813" fill="#000000" rx="10" ry="10" style="stroke: none; stroke-width: 1.0;"/><rect fill="#F8F8F8" height="33.9688" rx="12.5" ry="12.5" style="stroke: #383838; stroke-width: 1.5;" width="277" x="95.5" y="106.2813"/><text fill="#000000" font-family="sans-serif" font-size="12" lengthAdjust="spacingAndGlyphs" textLength="257" x="105.5" y="127.4199">Consulter la liste des agents de l'agence</text><rect fill="#F8F8F8" height="33.9688" rx="12.5" ry="12.5" style="stroke: #383838; stroke-width: 1.5;" width="206" x="131" y="180.2813"/><text fill="#000000" font-family="sans-serif" font-size="12" lengthAdjust="spacingAndGlyphs" textLength="186" x="141" y="201.4199">Consulter le détail d'un agent</text><rect fill="#F8F8F8" height="33.9688" rx="12.5" ry="12.5" style="stroke: #383838; stroke-width: 1.5;" width="233" x="117.5" y="254.2813"/><text fill="#000000" font-family="sans-serif" font-size="12" lengthAdjust="spacingAndGlyphs" textLength="213" x="127.5" y="275.4199">Consulter les contacts d'un agent</text><rect fill="#F8F8F8" height="33.9688" rx="12.5" ry="12.5" style="stroke: #383838; stroke-width: 1.5;" width="217" x="125.5" y="328.2813"/><text fill="#000000" font-family="sans-serif" font-size="12" lengthAdjust="spacingAndGlyphs" textLength="197" x="135.5" y="349.4199">Consulter le détail d'un contact</text><ellipse cx="234" cy="412.2813" fill="none" rx="10" ry="10" style="stroke: #000000; stroke-width: 1.0;"/><ellipse cx="234.5" cy="412.7813" fill="#000000" rx="6" ry="6" style="stroke: none; stroke-width: 1.0;"/><path d="M234,63.8843 C234,73.3313 234,88.4413 234,100.9242 " fill="none" style="stroke: #383838; stroke-width: 1.0;"/><polygon fill="#383838" points="234,106.0892,238,97.0892,234,101.0892,230,97.0892,234,106.0892" style="stroke: #383838; stroke-width: 1.0;"/><path d="M234,140.6193 C234,150.7453 234,163.8653 234,174.8243 " fill="none" style="stroke: #383838; stroke-width: 1.0;"/><polygon fill="#383838" points="234,180.0083,238,171.0083,234,175.0083,230,171.0083,234,180.0083" style="stroke: #383838; stroke-width: 1.0;"/><path d="M234,214.6193 C234,224.7453 234,237.8653 234,248.8243 " fill="none" style="stroke: #383838; stroke-width: 1.0;"/><polygon fill="#383838" points="234,254.0083,238,245.0083,234,249.0083,230,245.0083,234,254.0083" style="stroke: #383838; stroke-width: 1.0;"/><path d="M234,288.6192 C234,298.7453 234,311.8653 234,322.8245 " fill="none" style="stroke: #383838; stroke-width: 1.0;"/><polygon fill="#383838" points="234,328.008,238,319.008,234,323.008,230,319.008,234,328.008" style="stroke: #383838; stroke-width: 1.0;"/><path d="M234,362.3487 C234,372.8799 234,386.5349 234,396.7431 " fill="none" style="stroke: #383838; stroke-width: 1.0;"/><polygon fill="#383838" points="234,402.018,238,393.018,234,397.018,230,393.018,234,402.018" style="stroke: #383838; stroke-width: 1.0;"/></g></svg>