<?xml version="1.0" encoding="UTF-8" standalone="yes"?><svg xmlns="http://www.w3.org/2000/svg" xmlns:xlink="http://www.w3.org/1999/xlink" height="916px" style="width:552px;height:916px;" version="1.1" viewBox="0 0 552 916" width="552px"><defs/><g><text fill="#000000" font-family="sans-serif" font-size="20" lengthAdjust="spacingAndGlyphs" textLength="217" x="176.5" y="18.5645">Diagramme d'activité</text><text fill="#000000" font-family="sans-serif" font-size="20" lengthAdjust="spacingAndGlyphs" textLength="80" x="245" y="41.8457">du CU 9</text><line style="stroke: none; stroke-width: 1.0;" x1="176.5" x2="393.5" y1="51.5625" y2="51.5625"/><polygon fill="#ECECEC" points="6,64.5625,6,89.6953,217,89.6953,217,74.5625,207,64.5625,6,64.5625" style="stroke: #383838; stroke-width: 1.0;"/><polygon fill="#ECECEC" points="6,64.5625,6,89.6953,217,89.6953,217,82.5625,256.477,77.0625,217,74.5625,217,74.5625,207,64.5625,6,64.5625" style="stroke: #383838; stroke-width: 1.0;"/><line style="stroke: #383838; stroke-width: 1.0;" x1="207" x2="207" y1="64.5625" y2="74.5625"/><line style="stroke: #383838; stroke-width: 1.0;" x1="217" x2="207" y1="74.5625" y2="74.5625"/><text fill="#000000" font-family="sans-serif" font-size="13" lengthAdjust="spacingAndGlyphs" textLength="190" x="12" y="81.6294">Acteur : Un agent de l'agence</text><ellipse cx="266.5" cy="77.0625" fill="#000000" rx="10" ry="10" style="stroke: none; stroke-width: 1.0;"/><rect fill="#F8F8F8" height="33.9688" rx="12.5" ry="12.5" style="stroke: #383838; stroke-width: 1.5;" width="142" x="195.5" y="130.5625"/><text fill="#000000" font-family="sans-serif" font-size="12" lengthAdjust="spacingAndGlyphs" textLength="122" x="205.5" y="151.7012">Identifier le contact</text><rect fill="#F8F8F8" height="33.9688" rx="12.5" ry="12.5" style="stroke: #383838; stroke-width: 1.5;" width="184" x="174.5" y="205.5625"/><text fill="#000000" font-family="sans-serif" font-size="12" lengthAdjust="spacingAndGlyphs" textLength="164" x="184.5" y="226.7012">Voir les détails du contact</text><polygon fill="#F8F8F8" points="266.5,280.5625,278.5,292.5625,266.5,304.5625,254.5,292.5625,266.5,280.5625" style="stroke: #383838; stroke-width: 1.5;"/><rect fill="#F8F8F8" height="47.9375" rx="12.5" ry="12.5" style="stroke: #383838; stroke-width: 1.5;" width="261" x="8" y="361.5625"/><text fill="#000000" font-family="sans-serif" font-size="12" lengthAdjust="spacingAndGlyphs" textLength="241" x="18" y="382.7012">Afficher les propositions commerciales</text><text fill="#000000" font-family="sans-serif" font-size="12" lengthAdjust="spacingAndGlyphs" textLength="177" x="50" y="396.6699">et annotations enregistrées</text><rect fill="#F8F8F8" height="33.9688" rx="12.5" ry="12.5" style="stroke: #383838; stroke-width: 1.5;" width="255" x="132" y="450.5625"/><text fill="#000000" font-family="sans-serif" font-size="12" lengthAdjust="spacingAndGlyphs" textLength="235" x="142" y="471.7012">Consulter le dossier client du contact</text><rect fill="#000000" height="8" style="stroke: none; stroke-width: 1.0;" width="80" x="219.5" y="525.5625"/><rect fill="#F8F8F8" height="33.9688" rx="12.5" ry="12.5" style="stroke: #383838; stroke-width: 1.5;" width="192" x="68.5" y="574.5625"/><text fill="#000000" font-family="sans-serif" font-size="12" lengthAdjust="spacingAndGlyphs" textLength="172" x="78.5" y="595.7012">Consulter la liste des offres</text><rect fill="#F8F8F8" height="33.9688" rx="12.5" ry="12.5" style="stroke: #383838; stroke-width: 1.5;" width="264" x="23.5" y="682.5625"/><text fill="#000000" font-family="sans-serif" font-size="12" lengthAdjust="spacingAndGlyphs" textLength="244" x="33.5" y="703.7012">Voir le détails d'une offre du catalogue</text><rect fill="#000000" height="8" style="stroke: none; stroke-width: 1.0;" width="80" x="230.5" y="757.5625"/><rect fill="#F8F8F8" height="33.9688" rx="12.5" ry="12.5" style="stroke: #383838; stroke-width: 1.5;" width="285" x="175" y="628.5625"/><text fill="#000000" font-family="sans-serif" font-size="12" lengthAdjust="spacingAndGlyphs" textLength="265" x="185" y="649.7012">Soumettre des propositions commerciales</text><rect fill="#F8F8F8" height="47.9375" rx="12.5" ry="12.5" style="stroke: #383838; stroke-width: 1.5;" width="159" x="191" y="806.5625"/><text fill="#000000" font-family="sans-serif" font-size="12" lengthAdjust="spacingAndGlyphs" textLength="136" x="202.5" y="827.7012">Enregistrer le rapport</text><text fill="#000000" font-family="sans-serif" font-size="12" lengthAdjust="spacingAndGlyphs" textLength="139" x="201" y="841.6699">d'activité commerciale</text><polygon fill="#ECECEC" points="389.5,810.5625,389.5,850.8281,551.5,850.8281,551.5,820.5625,541.5,810.5625,389.5,810.5625" style="stroke: #383838; stroke-width: 1.0;"/><polygon fill="#ECECEC" points="389.5,810.5625,389.5,826.5625,350.188,830.5625,389.5,834.5625,389.5,850.8281,551.5,850.8281,551.5,820.5625,541.5,810.5625,389.5,810.5625" style="stroke: #383838; stroke-width: 1.0;"/><line style="stroke: #383838; stroke-width: 1.0;" x1="541.5" x2="541.5" y1="810.5625" y2="820.5625"/><line style="stroke: #383838; stroke-width: 1.0;" x1="551.5" x2="541.5" y1="820.5625" y2="820.5625"/><text fill="#000000" font-family="sans-serif" font-size="13" lengthAdjust="spacingAndGlyphs" textLength="137" x="395.5" y="827.6294">Enregistrer le contact</text><text fill="#000000" font-family="sans-serif" font-size="13" lengthAdjust="spacingAndGlyphs" textLength="141" x="395.5" y="842.7622">comme étant terminé</text><ellipse cx="270.5" cy="905.5625" fill="none" rx="10" ry="10" style="stroke: #000000; stroke-width: 1.0;"/><ellipse cx="271" cy="906.0625" fill="#000000" rx="6" ry="6" style="stroke: none; stroke-width: 1.0;"/><path d="M266.5,87.3005 C266.5,96.9505 266.5,112.4255 266.5,125.1425 " fill="none" style="stroke: #383838; stroke-width: 1.0;"/><polygon fill="#383838" points="266.5,130.3985,270.5,121.3985,266.5,125.3985,262.5,121.3985,266.5,130.3985" style="stroke: #383838; stroke-width: 1.0;"/><path d="M266.5,164.7635 C266.5,175.2545 266.5,189.0255 266.5,200.3805 " fill="none" style="stroke: #383838; stroke-width: 1.0;"/><polygon fill="#383838" points="266.5,205.4065,270.5,196.4065,266.5,200.4065,262.5,196.4065,266.5,205.4065" style="stroke: #383838; stroke-width: 1.0;"/><path d="M266.5,239.6775 C266.5,250.4785 266.5,264.6445 266.5,275.4455 " fill="none" style="stroke: #383838; stroke-width: 1.0;"/><polygon fill="#383838" points="266.5,280.4475,270.5,271.4475,266.5,275.4475,262.5,271.4475,266.5,280.4475" style="stroke: #383838; stroke-width: 1.0;"/><text fill="#000000" font-family="sans-serif" font-size="13" lengthAdjust="spacingAndGlyphs" textLength="117" x="129.3906" y="270.7946">Preparation faite ?</text><path d="M259.976,298.2005 C244.584,309.1435 205.055,337.2455 175.237,358.4445 " fill="none" style="stroke: #383838; stroke-width: 1.0;"/><polygon fill="#383838" points="170.912,361.5195,180.5651,359.5654,174.9873,358.6226,175.9301,353.0449,170.912,361.5195" style="stroke: #383838; stroke-width: 1.0;"/><text fill="#000000" font-family="sans-serif" font-size="13" lengthAdjust="spacingAndGlyphs" textLength="19" x="221.5" y="337.6294">oui</text><path d="M173.498,409.7015 C191.643,421.6985 213.534,436.1715 230.689,447.5135 " fill="none" style="stroke: #383838; stroke-width: 1.0;"/><polygon fill="#383838" points="234.943,450.3265,229.6437,442.0248,230.7729,447.5679,225.2299,448.697,234.943,450.3265" style="stroke: #383838; stroke-width: 1.0;"/><path d="M269.071,302.0505 C274.543,321.2815 286.306,369.6085 279.5,409.5625 C277.392,421.9345 272.885,435.1955 268.682,445.8105 " fill="none" style="stroke: #383838; stroke-width: 1.0;"/><polygon fill="#383838" points="266.781,450.4895,273.8741,443.6567,268.6628,445.8571,266.4624,440.6458,266.781,450.4895" style="stroke: #383838; stroke-width: 1.0;"/><text fill="#000000" font-family="sans-serif" font-size="13" lengthAdjust="spacingAndGlyphs" textLength="24" x="282.5" y="390.1294">non</text><path d="M259.5,484.6415 C259.5,496.0315 259.5,510.8615 259.5,520.0445 " fill="none" style="stroke: #383838; stroke-width: 1.0;"/><polygon fill="#383838" points="259.5,525.1705,263.5,516.1705,259.5,520.1705,255.5,516.1705,259.5,525.1705" style="stroke: #383838; stroke-width: 1.0;"/><path d="M254.658,533.6205 C243.67,540.5605 216.107,557.9685 194.326,571.7245 " fill="none" style="stroke: #383838; stroke-width: 1.0;"/><polygon fill="#383838" points="190.054,574.4235,199.7993,572.9991,194.2813,571.7534,195.5271,566.2354,190.054,574.4235" style="stroke: #383838; stroke-width: 1.0;"/><path d="M163.133,608.6615 C161.58,626.9505 159.039,656.8775 157.32,677.1295 " fill="none" style="stroke: #383838; stroke-width: 1.0;"/><polygon fill="#383838" points="156.88,682.3115,161.6267,673.682,157.3028,677.3294,153.6554,673.0055,156.88,682.3115" style="stroke: #383838; stroke-width: 1.0;"/><path d="M186.318,716.6415 C210.677,729.3505 243.245,746.3425 259.825,754.9935 " fill="none" style="stroke: #383838; stroke-width: 1.0;"/><polygon fill="#383838" points="264.431,757.3965,258.3021,749.687,259.9981,755.0836,254.6015,756.7796,264.431,757.3965" style="stroke: #383838; stroke-width: 1.0;"/><path d="M261.051,533.6115 C267.489,546.2645 292.435,595.2975 306.92,623.7675 " fill="none" style="stroke: #383838; stroke-width: 1.0;"/><polygon fill="#383838" points="309.324,628.4915,308.8089,618.6561,307.0571,624.0349,301.6784,622.2831,309.324,628.4915" style="stroke: #383838; stroke-width: 1.0;"/><path d="M314.173,662.8425 C310.908,677.3145 305.285,698.8615 297.5,716.5625 C291.524,730.1505 281.979,744.5735 275.985,753.0635 " fill="none" style="stroke: #383838; stroke-width: 1.0;"/><polygon fill="#383838" points="272.775,757.5225,281.2801,752.5563,275.6967,753.465,274.7881,747.8816,272.775,757.5225" style="stroke: #383838; stroke-width: 1.0;"/><path d="M270.5,765.7945 C270.5,772.2665 270.5,787.3905 270.5,801.2865 " fill="none" style="stroke: #383838; stroke-width: 1.0;"/><polygon fill="#383838" points="270.5,806.3315,274.5,797.3315,270.5,801.3315,266.5,797.3315,270.5,806.3315" style="stroke: #383838; stroke-width: 1.0;"/><path d="M270.5,854.6602 C270.5,866.3612 270.5,880.1963 270.5,890.3276 " fill="none" style="stroke: #383838; stroke-width: 1.0;"/><polygon fill="#383838" points="270.5,895.5381,274.5,886.5381,270.5,890.5381,266.5,886.5381,270.5,895.5381" style="stroke: #383838; stroke-width: 1.0;"/></g></svg>