<?xml version="1.0" encoding="UTF-8" standalone="yes"?><svg xmlns="http://www.w3.org/2000/svg" xmlns:xlink="http://www.w3.org/1999/xlink" height="424px" style="width:373px;height:424px;" version="1.1" viewBox="0 0 373 424" width="373px"><defs/><g><text fill="#000000" font-family="sans-serif" font-size="20" lengthAdjust="spacingAndGlyphs" textLength="303" x="43.5" y="18.5645">Diagramme d'activité du CU 3</text><line style="stroke: none; stroke-width: 1.0;" x1="43.5" x2="346.5" y1="28.2813" y2="28.2813"/><polygon fill="#ECECEC" points="6,41.7813,6,66.9141,204,66.9141,204,51.7813,194,41.7813,6,41.7813" style="stroke: #383838; stroke-width: 1.0;"/><polygon fill="#ECECEC" points="6,41.7813,6,66.9141,204,66.9141,204,59.7813,223.694,54.2813,204,51.7813,204,51.7813,194,41.7813,6,41.7813" style="stroke: #383838; stroke-width: 1.0;"/><line style="stroke: #383838; stroke-width: 1.0;" x1="194" x2="194" y1="41.7813" y2="51.7813"/><line style="stroke: #383838; stroke-width: 1.0;" x1="204" x2="194" y1="51.7813" y2="51.7813"/><text fill="#000000" font-family="sans-serif" font-size="13" lengthAdjust="spacingAndGlyphs" textLength="177" x="12" y="58.8481">Acteur : Le chef de l'agence</text><ellipse cx="234" cy="54.2813" fill="#000000" rx="10" ry="10" style="stroke: none; stroke-width: 1.0;"/><rect fill="#F8F8F8" height="33.9688" rx="12.5" ry="12.5" style="stroke: #383838; stroke-width: 1.5;" width="277" x="95.75" y="107.2813"/><text fill="#000000" font-family="sans-serif" font-size="12" lengthAdjust="spacingAndGlyphs" textLength="257" x="105.75" y="128.4199">Consulter la liste des agents de l'agence</text><rect fill="#F8F8F8" height="33.9688" rx="12.5" ry="12.5" style="stroke: #383838; stroke-width: 1.5;" width="206" x="131" y="181.2813"/><text fill="#000000" font-family="sans-serif" font-size="12" lengthAdjust="spacingAndGlyphs" textLength="186" x="141" y="202.4199">Consulter le détail d'un agent</text><rect fill="#F8F8F8" height="33.9688" rx="12.5" ry="12.5" style="stroke: #383838; stroke-width: 1.5;" width="233" x="117.75" y="255.2813"/><text fill="#000000" font-family="sans-serif" font-size="12" lengthAdjust="spacingAndGlyphs" textLength="213" x="127.75" y="276.4199">Consulter les contacts d'un agent</text><rect fill="#F8F8F8" height="33.9688" rx="12.5" ry="12.5" style="stroke: #383838; stroke-width: 1.5;" width="217" x="125.75" y="329.2813"/><text fill="#000000" font-family="sans-serif" font-size="12" lengthAdjust="spacingAndGlyphs" textLength="197" x="135.75" y="350.4199">Consulter le détail d'un contact</text><ellipse cx="234" cy="413.2813" fill="none" rx="10" ry="10" style="stroke: #000000; stroke-width: 1.0;"/><ellipse cx="234.5" cy="413.7813" fill="#000000" rx="6" ry="6" style="stroke: none; stroke-width: 1.0;"/><path d="M234,64.4522 C234,74.0313 234,89.3933 234,102.0172 " fill="none" style="stroke: #383838; stroke-width: 1.0;"/><polygon fill="#383838" points="234,107.2353,238,98.2353,234,102.2353,230,98.2353,234,107.2353" style="stroke: #383838; stroke-width: 1.0;"/><path d="M234,141.6193 C234,151.7453 234,164.8653 234,175.8243 " fill="none" style="stroke: #383838; stroke-width: 1.0;"/><polygon fill="#383838" points="234,181.0083,238,172.0083,234,176.0083,230,172.0083,234,181.0083" style="stroke: #383838; stroke-width: 1.0;"/><path d="M234,215.6193 C234,225.7453 234,238.8653 234,249.8243 " fill="none" style="stroke: #383838; stroke-width: 1.0;"/><polygon fill="#383838" points="234,255.0083,238,246.0083,234,250.0083,230,246.0083,234,255.0083" style="stroke: #383838; stroke-width: 1.0;"/><path d="M234,289.6192 C234,299.7453 234,312.8653 234,323.8245 " fill="none" style="stroke: #383838; stroke-width: 1.0;"/><polygon fill="#383838" points="234,329.008,238,320.008,234,324.008,230,320.008,234,329.008" style="stroke: #383838; stroke-width: 1.0;"/><path d="M234,363.3487 C234,373.8799 234,387.5349 234,397.7431 " fill="none" style="stroke: #383838; stroke-width: 1.0;"/><polygon fill="#383838" points="234,403.018,238,394.018,234,398.018,230,394.018,234,403.018" style="stroke: #383838; stroke-width: 1.0;"/></g></svg>