<?xml version="1.0" encoding="UTF-8" standalone="yes"?><svg xmlns="http://www.w3.org/2000/svg" xmlns:xlink="http://www.w3.org/1999/xlink" height="764px" style="width:508px;height:764px;" version="1.1" viewBox="0 0 508 764" width="508px"><defs/><g><text fill="#000000" font-family="sans-serif" font-size="20" lengthAdjust="spacingAndGlyphs" textLength="217" x="154.5" y="18.5645">Diagramme d'activité</text><text fill="#000000" font-family="sans-serif" font-size="20" lengthAdjust="spacingAndGlyphs" textLength="80" x="223" y="41.8457">du CU 8</text><line style="stroke: none; stroke-width: 1.0;" x1="154.5" x2="371.5" y1="51.5625" y2="51.5625"/><polygon fill="#ECECEC" points="6,64.5625,6,89.6953,217,89.6953,217,74.5625,207,64.5625,6,64.5625" style="stroke: #383838; stroke-width: 1.0;"/><polygon fill="#ECECEC" points="6,64.5625,6,89.6953,217,89.6953,217,82.5625,237.091,77.0625,217,74.5625,217,74.5625,207,64.5625,6,64.5625" style="stroke: #383838; stroke-width: 1.0;"/><line style="stroke: #383838; stroke-width: 1.0;" x1="207" x2="207" y1="64.5625" y2="74.5625"/><line style="stroke: #383838; stroke-width: 1.0;" x1="217" x2="207" y1="74.5625" y2="74.5625"/><text fill="#000000" font-family="sans-serif" font-size="13" lengthAdjust="spacingAndGlyphs" textLength="190" x="12" y="81.6294">Acteur : Un agent de l'agence</text><ellipse cx="247.5" cy="77.0625" fill="#000000" rx="10" ry="10" style="stroke: none; stroke-width: 1.0;"/><rect fill="#F8F8F8" height="33.9688" rx="12.5" ry="12.5" style="stroke: #383838; stroke-width: 1.5;" width="142" x="176.5" y="129.5625"/><text fill="#000000" font-family="sans-serif" font-size="12" lengthAdjust="spacingAndGlyphs" textLength="122" x="186.5" y="150.7012">Identifier le contact</text><rect fill="#F8F8F8" height="33.9688" rx="12.5" ry="12.5" style="stroke: #383838; stroke-width: 1.5;" width="184" x="155.5" y="203.5625"/><text fill="#000000" font-family="sans-serif" font-size="12" lengthAdjust="spacingAndGlyphs" textLength="164" x="165.5" y="224.7012">Voir les détails du contact</text><rect fill="#F8F8F8" height="33.9688" rx="12.5" ry="12.5" style="stroke: #383838; stroke-width: 1.5;" width="255" x="120" y="277.5625"/><text fill="#000000" font-family="sans-serif" font-size="12" lengthAdjust="spacingAndGlyphs" textLength="235" x="130" y="298.7012">Consulter le dossier client du contact</text><rect fill="#000000" height="8" style="stroke: none; stroke-width: 1.0;" width="80" x="207.5" y="351.5625"/><rect fill="#F8F8F8" height="33.9688" rx="12.5" ry="12.5" style="stroke: #383838; stroke-width: 1.5;" width="205" x="18" y="473.5625"/><text fill="#000000" font-family="sans-serif" font-size="12" lengthAdjust="spacingAndGlyphs" textLength="185" x="28" y="494.7012">Mettre à jour les informations</text><rect fill="#000000" height="8" style="stroke: none; stroke-width: 1.0;" width="80" x="220.5" y="621.5625"/><rect fill="#F8F8F8" height="33.9688" rx="12.5" ry="12.5" style="stroke: #383838; stroke-width: 1.5;" width="192" x="247.5" y="399.5625"/><text fill="#000000" font-family="sans-serif" font-size="12" lengthAdjust="spacingAndGlyphs" textLength="172" x="257.5" y="420.7012">Consulter la liste des offres</text><rect fill="#F8F8F8" height="33.9688" rx="12.5" ry="12.5" style="stroke: #383838; stroke-width: 1.5;" width="264" x="243.5" y="473.5625"/><text fill="#000000" font-family="sans-serif" font-size="12" lengthAdjust="spacingAndGlyphs" textLength="244" x="253.5" y="494.7012">Voir le détails d'une offre du catalogue</text><rect fill="#F8F8F8" height="33.9688" rx="12.5" ry="12.5" style="stroke: #383838; stroke-width: 1.5;" width="240" x="229.5" y="547.5625"/><text fill="#000000" font-family="sans-serif" font-size="12" lengthAdjust="spacingAndGlyphs" textLength="220" x="239.5" y="568.7012">Créer une proposition commerciale</text><rect fill="#F8F8F8" height="33.9688" rx="12.5" ry="12.5" style="stroke: #383838; stroke-width: 1.5;" width="295" x="113" y="669.5625"/><text fill="#000000" font-family="sans-serif" font-size="12" lengthAdjust="spacingAndGlyphs" textLength="275" x="123" y="690.7012">Enregistrer le compte rendu de préparation</text><ellipse cx="260.5" cy="753.5625" fill="none" rx="10" ry="10" style="stroke: #000000; stroke-width: 1.0;"/><ellipse cx="261" cy="754.0625" fill="#000000" rx="6" ry="6" style="stroke: none; stroke-width: 1.0;"/><path d="M247.5,87.1655 C247.5,96.6125 247.5,111.7225 247.5,124.2055 " fill="none" style="stroke: #383838; stroke-width: 1.0;"/><polygon fill="#383838" points="247.5,129.3705,251.5,120.3705,247.5,124.3705,243.5,120.3705,247.5,129.3705" style="stroke: #383838; stroke-width: 1.0;"/><path d="M247.5,163.9005 C247.5,174.0265 247.5,187.1465 247.5,198.1055 " fill="none" style="stroke: #383838; stroke-width: 1.0;"/><polygon fill="#383838" points="247.5,203.2895,251.5,194.2895,247.5,198.2895,243.5,194.2895,247.5,203.2895" style="stroke: #383838; stroke-width: 1.0;"/><path d="M247.5,237.9005 C247.5,248.0265 247.5,261.1465 247.5,272.1055 " fill="none" style="stroke: #383838; stroke-width: 1.0;"/><polygon fill="#383838" points="247.5,277.2895,251.5,268.2895,247.5,272.2895,243.5,268.2895,247.5,277.2895" style="stroke: #383838; stroke-width: 1.0;"/><path d="M247.5,311.6845 C247.5,322.7735 247.5,337.0615 247.5,346.0185 " fill="none" style="stroke: #383838; stroke-width: 1.0;"/><polygon fill="#383838" points="247.5,351.2635,251.5,342.2635,247.5,346.2635,243.5,342.2635,247.5,351.2635" style="stroke: #383838; stroke-width: 1.0;"/><path d="M244.361,359.8505 C230.119,374.7645 170.937,436.7425 139.819,469.3305 " fill="none" style="stroke: #383838; stroke-width: 1.0;"/><polygon fill="#383838" points="136.168,473.1545,145.2765,469.4082,139.6212,469.5385,139.4909,463.8831,136.168,473.1545" style="stroke: #383838; stroke-width: 1.0;"/><path d="M137.387,507.6055 C168.205,536.8825 232.341,597.8115 253.535,617.9455 " fill="none" style="stroke: #383838; stroke-width: 1.0;"/><polygon fill="#383838" points="257.178,621.4075,253.4078,612.3088,253.5529,617.9638,247.8979,618.1089,257.178,621.4075" style="stroke: #383838; stroke-width: 1.0;"/><path d="M252.393,359.5695 C263.425,366.3505 290.991,383.2915 312.933,396.7765 " fill="none" style="stroke: #383838; stroke-width: 1.0;"/><polygon fill="#383838" points="317.24,399.4235,311.6654,391.3042,312.9797,396.8062,307.4777,398.1206,317.24,399.4235" style="stroke: #383838; stroke-width: 1.0;"/><path d="M350.761,433.9005 C355.344,444.2105 361.306,457.6245 366.228,468.7015 " fill="none" style="stroke: #383838; stroke-width: 1.0;"/><polygon fill="#383838" points="368.267,473.2895,368.2679,463.4406,366.2367,468.7203,360.9571,466.6891,368.267,473.2895" style="stroke: #383838; stroke-width: 1.0;"/><path d="M369.6,507.9005 C365.91,518.1185 361.119,531.3855 357.141,542.4035 " fill="none" style="stroke: #383838; stroke-width: 1.0;"/><polygon fill="#383838" points="355.376,547.2895,362.1935,540.1817,357.0732,542.5864,354.6685,537.4661,355.376,547.2895" style="stroke: #383838; stroke-width: 1.0;"/><path d="M325.18,581.6845 C306.662,593.9605 282.228,610.1585 269.338,618.7035 " fill="none" style="stroke: #383838; stroke-width: 1.0;"/><polygon fill="#383838" points="265.144,621.4835,274.8554,619.844,269.3113,618.7206,270.4347,613.1764,265.144,621.4835" style="stroke: #383838; stroke-width: 1.0;"/><path d="M260.5,629.7345 C260.5,636.2425 260.5,651.5835 260.5,664.5402 " fill="none" style="stroke: #383838; stroke-width: 1.0;"/><polygon fill="#383838" points="260.5,669.5476,264.5,660.5476,260.5,664.5476,256.5,660.5476,260.5,669.5476" style="stroke: #383838; stroke-width: 1.0;"/><path d="M260.5,703.6299 C260.5,714.1611 260.5,727.8161 260.5,738.0243 " fill="none" style="stroke: #383838; stroke-width: 1.0;"/><polygon fill="#383838" points="260.5,743.2992,264.5,734.2992,260.5,738.2992,256.5,734.2992,260.5,743.2992" style="stroke: #383838; stroke-width: 1.0;"/></g></svg>