<?xml version="1.0" encoding="UTF-8" standalone="yes"?><svg xmlns="http://www.w3.org/2000/svg" xmlns:xlink="http://www.w3.org/1999/xlink" height="609px" style="width:371px;height:609px;" version="1.1" viewBox="0 0 371 609" width="371px"><defs/><g><text fill="#000000" font-family="sans-serif" font-size="20" lengthAdjust="spacingAndGlyphs" textLength="303" x="42.75" y="18.5645">Diagramme d'activité du CU 6</text><text fill="#000000" font-family="sans-serif" font-size="20" lengthAdjust="spacingAndGlyphs" textLength="123" x="132.75" y="41.8457">Partie Client</text><line style="stroke: none; stroke-width: 1.0;" x1="42.75" x2="345.75" y1="51.5625" y2="51.5625"/><polygon fill="#ECECEC" points="6,65.0625,6,90.1953,217,90.1953,217,75.0625,207,65.0625,6,65.0625" style="stroke: #383838; stroke-width: 1.0;"/><polygon fill="#ECECEC" points="6,65.0625,6,90.1953,217,90.1953,217,83.0625,237.227,77.5625,217,75.0625,217,75.0625,207,65.0625,6,65.0625" style="stroke: #383838; stroke-width: 1.0;"/><line style="stroke: #383838; stroke-width: 1.0;" x1="207" x2="207" y1="65.0625" y2="75.0625"/><line style="stroke: #383838; stroke-width: 1.0;" x1="217" x2="207" y1="75.0625" y2="75.0625"/><text fill="#000000" font-family="sans-serif" font-size="13" lengthAdjust="spacingAndGlyphs" textLength="190" x="12" y="82.1294">Acteur : Un agent de l'agence</text><ellipse cx="247.25" cy="77.5625" fill="#000000" rx="10" ry="10" style="stroke: none; stroke-width: 1.0;"/><rect fill="#F8F8F8" height="33.9688" rx="12.5" ry="12.5" style="stroke: #383838; stroke-width: 1.5;" width="145" x="175" y="130.5625"/><text fill="#000000" font-family="sans-serif" font-size="12" lengthAdjust="spacingAndGlyphs" textLength="125" x="185" y="151.7012">Rechercher le client</text><rect fill="#F8F8F8" height="33.9688" rx="12.5" ry="12.5" style="stroke: #383838; stroke-width: 1.5;" width="246" x="124.25" y="204.5625"/><text fill="#000000" font-family="sans-serif" font-size="12" lengthAdjust="spacingAndGlyphs" textLength="226" x="134.25" y="225.7012">Consulter son dossier client (CU 10)</text><rect fill="#F8F8F8" height="33.9688" rx="12.5" ry="12.5" style="stroke: #383838; stroke-width: 1.5;" width="245" x="125" y="278.5625"/><text fill="#000000" font-family="sans-serif" font-size="12" lengthAdjust="spacingAndGlyphs" textLength="225" x="135" y="299.7012">Voir les plages agenda libres (CU 7)</text><rect fill="#F8F8F8" height="33.9688" rx="12.5" ry="12.5" style="stroke: #383838; stroke-width: 1.5;" width="184" x="155.25" y="352.5625"/><text fill="#000000" font-family="sans-serif" font-size="12" lengthAdjust="spacingAndGlyphs" textLength="164" x="165.25" y="373.7012">Créer un nouveau contact</text><rect fill="#F8F8F8" height="33.9688" rx="12.5" ry="12.5" style="stroke: #383838; stroke-width: 1.5;" width="217" x="139" y="426.5625"/><text fill="#000000" font-family="sans-serif" font-size="12" lengthAdjust="spacingAndGlyphs" textLength="197" x="149" y="447.7012">Créer un rendez-vous spontané</text><rect fill="#F8F8F8" height="47.9375" rx="12.5" ry="12.5" style="stroke: #383838; stroke-width: 1.5;" width="217" x="139" y="500.5625"/><text fill="#000000" font-family="sans-serif" font-size="12" lengthAdjust="spacingAndGlyphs" textLength="90" x="202.5" y="521.7012">Editer la lettre</text><text fill="#000000" font-family="sans-serif" font-size="12" lengthAdjust="spacingAndGlyphs" textLength="197" x="149" y="535.6699">de confirmation du rendez-vous</text><ellipse cx="247.25" cy="598.5625" fill="none" rx="10" ry="10" style="stroke: #000000; stroke-width: 1.0;"/><ellipse cx="247.75" cy="599.0625" fill="#000000" rx="6" ry="6" style="stroke: none; stroke-width: 1.0;"/><path d="M247.25,87.7335 C247.25,97.3125 247.25,112.6745 247.25,125.2985 " fill="none" style="stroke: #383838; stroke-width: 1.0;"/><polygon fill="#383838" points="247.25,130.5165,251.25,121.5165,247.25,125.5165,243.25,121.5165,247.25,130.5165" style="stroke: #383838; stroke-width: 1.0;"/><path d="M247.25,164.9005 C247.25,175.0265 247.25,188.1465 247.25,199.1055 " fill="none" style="stroke: #383838; stroke-width: 1.0;"/><polygon fill="#383838" points="247.25,204.2895,251.25,195.2895,247.25,199.2895,243.25,195.2895,247.25,204.2895" style="stroke: #383838; stroke-width: 1.0;"/><path d="M247.25,238.9005 C247.25,249.0265 247.25,262.1465 247.25,273.1055 " fill="none" style="stroke: #383838; stroke-width: 1.0;"/><polygon fill="#383838" points="247.25,278.2895,251.25,269.2895,247.25,273.2895,243.25,269.2895,247.25,278.2895" style="stroke: #383838; stroke-width: 1.0;"/><path d="M247.25,312.9005 C247.25,323.0265 247.25,336.1465 247.25,347.1055 " fill="none" style="stroke: #383838; stroke-width: 1.0;"/><polygon fill="#383838" points="247.25,352.2895,251.25,343.2895,247.25,347.2895,243.25,343.2895,247.25,352.2895" style="stroke: #383838; stroke-width: 1.0;"/><path d="M247.25,386.9005 C247.25,397.0265 247.25,410.1465 247.25,421.1055 " fill="none" style="stroke: #383838; stroke-width: 1.0;"/><polygon fill="#383838" points="247.25,426.2895,251.25,417.2895,247.25,421.2895,243.25,417.2895,247.25,426.2895" style="stroke: #383838; stroke-width: 1.0;"/><path d="M247.25,460.9315 C247.25,470.8075 247.25,483.6635 247.25,495.1555 " fill="none" style="stroke: #383838; stroke-width: 1.0;"/><polygon fill="#383838" points="247.25,500.3235,251.25,491.3235,247.25,495.3235,243.25,491.3235,247.25,500.3235" style="stroke: #383838; stroke-width: 1.0;"/><path d="M247.25,548.7401 C247.25,560.117 247.25,573.4593 247.25,583.3183 " fill="none" style="stroke: #383838; stroke-width: 1.0;"/><polygon fill="#383838" points="247.25,588.4025,251.25,579.4025,247.25,583.4025,243.25,579.4025,247.25,588.4025" style="stroke: #383838; stroke-width: 1.0;"/></g></svg>