<?xml version="1.0" encoding="UTF-8" standalone="yes"?><svg xmlns="http://www.w3.org/2000/svg" xmlns:xlink="http://www.w3.org/1999/xlink" height="765px" style="width:508px;height:765px;" version="1.1" viewBox="0 0 508 765" width="508px"><defs/><g><text fill="#000000" font-family="sans-serif" font-size="20" lengthAdjust="spacingAndGlyphs" textLength="217" x="154.25" y="18.5645">Diagramme d'activité</text><text fill="#000000" font-family="sans-serif" font-size="20" lengthAdjust="spacingAndGlyphs" textLength="80" x="222.75" y="41.8457">du CU 8</text><line style="stroke: none; stroke-width: 1.0;" x1="154.25" x2="371.25" y1="51.5625" y2="51.5625"/><polygon fill="#ECECEC" points="6,65.0625,6,90.1953,217,90.1953,217,75.0625,207,65.0625,6,65.0625" style="stroke: #383838; stroke-width: 1.0;"/><polygon fill="#ECECEC" points="6,65.0625,6,90.1953,217,90.1953,217,83.0625,237.227,77.5625,217,75.0625,217,75.0625,207,65.0625,6,65.0625" style="stroke: #383838; stroke-width: 1.0;"/><line style="stroke: #383838; stroke-width: 1.0;" x1="207" x2="207" y1="65.0625" y2="75.0625"/><line style="stroke: #383838; stroke-width: 1.0;" x1="217" x2="207" y1="75.0625" y2="75.0625"/><text fill="#000000" font-family="sans-serif" font-size="13" lengthAdjust="spacingAndGlyphs" textLength="190" x="12" y="82.1294">Acteur : Un agent de l'agence</text><ellipse cx="247.25" cy="77.5625" fill="#000000" rx="10" ry="10" style="stroke: none; stroke-width: 1.0;"/><rect fill="#F8F8F8" height="33.9688" rx="12.5" ry="12.5" style="stroke: #383838; stroke-width: 1.5;" width="142" x="176.25" y="130.5625"/><text fill="#000000" font-family="sans-serif" font-size="12" lengthAdjust="spacingAndGlyphs" textLength="122" x="186.25" y="151.7012">Identifier le contact</text><rect fill="#F8F8F8" height="33.9688" rx="12.5" ry="12.5" style="stroke: #383838; stroke-width: 1.5;" width="184" x="155.25" y="204.5625"/><text fill="#000000" font-family="sans-serif" font-size="12" lengthAdjust="spacingAndGlyphs" textLength="164" x="165.25" y="225.7012">Voir les détails du contact</text><rect fill="#F8F8F8" height="33.9688" rx="12.5" ry="12.5" style="stroke: #383838; stroke-width: 1.5;" width="255" x="120" y="278.5625"/><text fill="#000000" font-family="sans-serif" font-size="12" lengthAdjust="spacingAndGlyphs" textLength="235" x="130" y="299.7012">Consulter le dossier client du contact</text><rect fill="#000000" height="8" style="stroke: none; stroke-width: 1.0;" width="80" x="207.25" y="352.5625"/><rect fill="#F8F8F8" height="33.9688" rx="12.5" ry="12.5" style="stroke: #383838; stroke-width: 1.5;" width="205" x="18" y="474.5625"/><text fill="#000000" font-family="sans-serif" font-size="12" lengthAdjust="spacingAndGlyphs" textLength="185" x="28" y="495.7012">Mettre à jour les informations</text><rect fill="#000000" height="8" style="stroke: none; stroke-width: 1.0;" width="80" x="220.25" y="622.5625"/><rect fill="#F8F8F8" height="33.9688" rx="12.5" ry="12.5" style="stroke: #383838; stroke-width: 1.5;" width="192" x="247.25" y="400.5625"/><text fill="#000000" font-family="sans-serif" font-size="12" lengthAdjust="spacingAndGlyphs" textLength="172" x="257.25" y="421.7012">Consulter la liste des offres</text><rect fill="#F8F8F8" height="33.9688" rx="12.5" ry="12.5" style="stroke: #383838; stroke-width: 1.5;" width="264" x="243.25" y="474.5625"/><text fill="#000000" font-family="sans-serif" font-size="12" lengthAdjust="spacingAndGlyphs" textLength="244" x="253.25" y="495.7012">Voir le détails d'une offre du catalogue</text><rect fill="#F8F8F8" height="33.9688" rx="12.5" ry="12.5" style="stroke: #383838; stroke-width: 1.5;" width="240" x="229.75" y="548.5625"/><text fill="#000000" font-family="sans-serif" font-size="12" lengthAdjust="spacingAndGlyphs" textLength="220" x="239.75" y="569.7012">Créer une proposition commerciale</text><rect fill="#F8F8F8" height="33.9688" rx="12.5" ry="12.5" style="stroke: #383838; stroke-width: 1.5;" width="295" x="113" y="670.5625"/><text fill="#000000" font-family="sans-serif" font-size="12" lengthAdjust="spacingAndGlyphs" textLength="275" x="123" y="691.7012">Enregistrer le compte rendu de préparation</text><ellipse cx="260.25" cy="754.5625" fill="none" rx="10" ry="10" style="stroke: #000000; stroke-width: 1.0;"/><ellipse cx="260.75" cy="755.0625" fill="#000000" rx="6" ry="6" style="stroke: none; stroke-width: 1.0;"/><path d="M247.25,87.7335 C247.25,97.3125 247.25,112.6745 247.25,125.2985 " fill="none" style="stroke: #383838; stroke-width: 1.0;"/><polygon fill="#383838" points="247.25,130.5165,251.25,121.5165,247.25,125.5165,243.25,121.5165,247.25,130.5165" style="stroke: #383838; stroke-width: 1.0;"/><path d="M247.25,164.9005 C247.25,175.0265 247.25,188.1465 247.25,199.1055 " fill="none" style="stroke: #383838; stroke-width: 1.0;"/><polygon fill="#383838" points="247.25,204.2895,251.25,195.2895,247.25,199.2895,243.25,195.2895,247.25,204.2895" style="stroke: #383838; stroke-width: 1.0;"/><path d="M247.25,238.9005 C247.25,249.0265 247.25,262.1465 247.25,273.1055 " fill="none" style="stroke: #383838; stroke-width: 1.0;"/><polygon fill="#383838" points="247.25,278.2895,251.25,269.2895,247.25,273.2895,243.25,269.2895,247.25,278.2895" style="stroke: #383838; stroke-width: 1.0;"/><path d="M247.25,312.6845 C247.25,323.7735 247.25,338.0615 247.25,347.0185 " fill="none" style="stroke: #383838; stroke-width: 1.0;"/><polygon fill="#383838" points="247.25,352.2635,251.25,343.2635,247.25,347.2635,243.25,343.2635,247.25,352.2635" style="stroke: #383838; stroke-width: 1.0;"/><path d="M244.111,360.8505 C229.869,375.7645 170.687,437.7425 139.569,470.3305 " fill="none" style="stroke: #383838; stroke-width: 1.0;"/><polygon fill="#383838" points="135.918,474.1545,145.0265,470.4082,139.3712,470.5385,139.2409,464.8831,135.918,474.1545" style="stroke: #383838; stroke-width: 1.0;"/><path d="M137.137,508.6055 C167.955,537.8825 232.091,598.8115 253.285,618.9455 " fill="none" style="stroke: #383838; stroke-width: 1.0;"/><polygon fill="#383838" points="256.928,622.4075,253.1578,613.3088,253.3029,618.9638,247.6479,619.1089,256.928,622.4075" style="stroke: #383838; stroke-width: 1.0;"/><path d="M252.143,360.5695 C263.175,367.3505 290.741,384.2915 312.683,397.7765 " fill="none" style="stroke: #383838; stroke-width: 1.0;"/><polygon fill="#383838" points="316.99,400.4235,311.4154,392.3042,312.7297,397.8062,307.2277,399.1206,316.99,400.4235" style="stroke: #383838; stroke-width: 1.0;"/><path d="M350.511,434.9005 C355.094,445.2105 361.056,458.6245 365.978,469.7015 " fill="none" style="stroke: #383838; stroke-width: 1.0;"/><polygon fill="#383838" points="368.017,474.2895,368.0179,464.4406,365.9867,469.7203,360.7071,467.6891,368.017,474.2895" style="stroke: #383838; stroke-width: 1.0;"/><path d="M369.35,508.9005 C365.66,519.1185 360.869,532.3855 356.891,543.4035 " fill="none" style="stroke: #383838; stroke-width: 1.0;"/><polygon fill="#383838" points="355.126,548.2895,361.9435,541.1817,356.8232,543.5864,354.4185,538.4661,355.126,548.2895" style="stroke: #383838; stroke-width: 1.0;"/><path d="M324.93,582.6845 C306.412,594.9605 281.978,611.1585 269.088,619.7035 " fill="none" style="stroke: #383838; stroke-width: 1.0;"/><polygon fill="#383838" points="264.894,622.4835,274.6054,620.844,269.0613,619.7206,270.1847,614.1764,264.894,622.4835" style="stroke: #383838; stroke-width: 1.0;"/><path d="M260.25,630.7345 C260.25,637.2425 260.25,652.5835 260.25,665.5402 " fill="none" style="stroke: #383838; stroke-width: 1.0;"/><polygon fill="#383838" points="260.25,670.5476,264.25,661.5476,260.25,665.5476,256.25,661.5476,260.25,670.5476" style="stroke: #383838; stroke-width: 1.0;"/><path d="M260.25,704.6299 C260.25,715.1611 260.25,728.8161 260.25,739.0243 " fill="none" style="stroke: #383838; stroke-width: 1.0;"/><polygon fill="#383838" points="260.25,744.2992,264.25,735.2992,260.25,739.2992,256.25,735.2992,260.25,744.2992" style="stroke: #383838; stroke-width: 1.0;"/></g></svg>