<?xml version="1.0" encoding="UTF-8" standalone="yes"?><svg xmlns="http://www.w3.org/2000/svg" xmlns:xlink="http://www.w3.org/1999/xlink" height="511px" style="width:1513px;height:511px;" version="1.1" viewBox="0 0 1513 511" width="1513px"><defs/><g><text fill="#000000" font-family="sans-serif" font-size="20" lengthAdjust="spacingAndGlyphs" textLength="177" x="672.5" y="28.5645">Identifier le client</text><line style="stroke: none; stroke-width: 1.0;" x1="672.5" x2="849.5" y1="38.2813" y2="38.2813"/><ellipse cx="754" cy="53.2813" fill="#000000" rx="10" ry="10" style="stroke: none; stroke-width: 1.0;"/><polygon fill="#ECECEC" points="459,80.1328,459,120.3984,670,120.3984,670,90.1328,660,80.1328,459,80.1328" style="stroke: #383838; stroke-width: 1.0;"/><polygon fill="#ECECEC" points="459,80.1328,459,120.3984,670,120.3984,670,104.2656,690,100.2656,670,96.2656,670,90.1328,660,80.1328,459,80.1328" style="stroke: #383838; stroke-width: 1.0;"/><line style="stroke: #383838; stroke-width: 1.0;" x1="660" x2="660" y1="80.1328" y2="90.1328"/><line style="stroke: #383838; stroke-width: 1.0;" x1="670" x2="660" y1="90.1328" y2="90.1328"/><text fill="#000000" font-family="sans-serif" font-size="13" lengthAdjust="spacingAndGlyphs" textLength="190" x="465" y="97.1997">Acteur : Un agent de l'agence</text><text fill="#000000" font-family="sans-serif" font-size="13" lengthAdjust="spacingAndGlyphs" textLength="147" x="465" y="112.3325">Voir DA Identifier Client</text><rect fill="#F8F8F8" height="33.9688" rx="12.5" ry="12.5" style="stroke: #383838; stroke-width: 1.5;" width="128" x="690" y="83.2813"/><text fill="#000000" font-family="sans-serif" font-size="12" lengthAdjust="spacingAndGlyphs" textLength="108" x="700" y="104.4199">Identifier le client</text><rect fill="#F8F8F8" height="47.9375" rx="12.5" ry="12.5" style="stroke: #383838; stroke-width: 1.5;" width="207" x="241.5" y="160.3984"/><text fill="#000000" font-family="sans-serif" font-size="12" lengthAdjust="spacingAndGlyphs" textLength="132" x="251.5" y="181.5371">Consulter bilan client</text><text fill="#000000" font-family="sans-serif" font-size="12" lengthAdjust="spacingAndGlyphs" textLength="187" x="251.5" y="195.5059">(cotation, liste de personnes)</text><rect fill="#F8F8F8" height="47.9375" rx="12.5" ry="12.5" style="stroke: #383838; stroke-width: 1.5;" width="126" x="23" y="288.3516"/><text fill="#000000" font-family="sans-serif" font-size="12" lengthAdjust="spacingAndGlyphs" textLength="106" x="33" y="309.4902">Consulter details</text><text fill="#000000" font-family="sans-serif" font-size="12" lengthAdjust="spacingAndGlyphs" textLength="99" x="33" y="323.459">d'une personne</text><rect fill="#F8F8F8" height="33.9688" rx="12.5" ry="12.5" style="stroke: #383838; stroke-width: 1.5;" width="152" x="10" y="371.2891"/><text fill="#000000" font-family="sans-serif" font-size="12" lengthAdjust="spacingAndGlyphs" textLength="132" x="20" y="392.4277">Mise à jour personne</text><rect fill="#F8F8F8" height="33.9688" rx="12.5" ry="12.5" style="stroke: #383838; stroke-width: 1.5;" width="157" x="218.5" y="263.3359"/><text fill="#000000" font-family="sans-serif" font-size="12" lengthAdjust="spacingAndGlyphs" textLength="137" x="228.5" y="284.4746">Ajouter une personne</text><polygon fill="#F8F8F8" points="237,332.3047,357,332.3047,369,344.3047,357,356.3047,237,356.3047,225,344.3047,237,332.3047" style="stroke: #383838; stroke-width: 1.5;"/><text fill="#000000" font-family="sans-serif" font-size="11" lengthAdjust="spacingAndGlyphs" textLength="120" x="237" y="348.1128">Personne existante ?</text><text fill="#000000" font-family="sans-serif" font-size="11" lengthAdjust="spacingAndGlyphs" textLength="17" x="208" y="341.7104">oui</text><text fill="#000000" font-family="sans-serif" font-size="11" lengthAdjust="spacingAndGlyphs" textLength="21" x="369" y="341.7104">non</text><rect fill="#F8F8F8" height="33.9688" rx="12.5" ry="12.5" style="stroke: #383838; stroke-width: 1.5;" width="174" x="292" y="366.3047"/><text fill="#000000" font-family="sans-serif" font-size="12" lengthAdjust="spacingAndGlyphs" textLength="154" x="302" y="387.4434">Créer nouvelle personne</text><polygon fill="#F8F8F8" points="297,406.2734,309,418.2734,297,430.2734,285,418.2734,297,406.2734" style="stroke: #383838; stroke-width: 1.5;"/><rect fill="#F8F8F8" height="33.9688" rx="12.5" ry="12.5" style="stroke: #383838; stroke-width: 1.5;" width="176" x="504" y="302.3203"/><text fill="#000000" font-family="sans-serif" font-size="12" lengthAdjust="spacingAndGlyphs" textLength="156" x="514" y="323.459">Supprimer une personne</text><ellipse cx="592" cy="381.2891" fill="none" rx="10" ry="10" style="stroke: #000000; stroke-width: 1.0;"/><ellipse cx="592.5" cy="381.7891" fill="#000000" rx="6" ry="6" style="stroke: none; stroke-width: 1.0;"/><rect fill="#F8F8F8" height="61.9063" rx="12.5" ry="12.5" style="stroke: #383838; stroke-width: 1.5;" width="156" x="879" y="212.9141"/><text fill="#000000" font-family="sans-serif" font-size="12" lengthAdjust="spacingAndGlyphs" textLength="136" x="889" y="234.0527">Consulter produits du</text><text fill="#000000" font-family="sans-serif" font-size="12" lengthAdjust="spacingAndGlyphs" textLength="113" x="889" y="248.0215">client à la banque</text><text fill="#000000" font-family="sans-serif" font-size="12" lengthAdjust="spacingAndGlyphs" textLength="123" x="889" y="261.9902">et à la concurrence</text><rect fill="#F8F8F8" height="47.9375" rx="12.5" ry="12.5" style="stroke: #383838; stroke-width: 1.5;" width="126" x="736" y="329.8203"/><text fill="#000000" font-family="sans-serif" font-size="12" lengthAdjust="spacingAndGlyphs" textLength="106" x="746" y="350.959">Consulter détails</text><text fill="#000000" font-family="sans-serif" font-size="12" lengthAdjust="spacingAndGlyphs" textLength="78" x="746" y="364.9277">d'un compte</text><rect fill="#F8F8F8" height="47.9375" rx="12.5" ry="12.5" style="stroke: #383838; stroke-width: 1.5;" width="119" x="890" y="329.8203"/><text fill="#000000" font-family="sans-serif" font-size="12" lengthAdjust="spacingAndGlyphs" textLength="99" x="900" y="350.959">Consulter détail</text><text fill="#000000" font-family="sans-serif" font-size="12" lengthAdjust="spacingAndGlyphs" textLength="76" x="904" y="364.9277">d'un produit</text><rect fill="#F8F8F8" height="47.9375" rx="12.5" ry="12.5" style="stroke: #383838; stroke-width: 1.5;" width="141" x="1037" y="329.8203"/><text fill="#000000" font-family="sans-serif" font-size="12" lengthAdjust="spacingAndGlyphs" textLength="121" x="1047" y="350.959">Maj compte/produit</text><text fill="#000000" font-family="sans-serif" font-size="12" lengthAdjust="spacingAndGlyphs" textLength="106" x="1047" y="364.9277">à la concurrence</text><rect fill="#F8F8F8" height="33.9688" rx="12.5" ry="12.5" style="stroke: #383838; stroke-width: 1.5;" width="125" x="1220" y="260.8516"/><text fill="#000000" font-family="sans-serif" font-size="12" lengthAdjust="spacingAndGlyphs" textLength="105" x="1230" y="281.9902">Maj entête client</text><ellipse cx="1282.5" cy="339.8203" fill="none" rx="10" ry="10" style="stroke: #000000; stroke-width: 1.0;"/><ellipse cx="1283" cy="340.3203" fill="#000000" rx="6" ry="6" style="stroke: none; stroke-width: 1.0;"/><rect fill="#F8F8F8" height="47.9375" rx="12.5" ry="12.5" style="stroke: #383838; stroke-width: 1.5;" width="139" x="1373" y="253.8672"/><text fill="#000000" font-family="sans-serif" font-size="12" lengthAdjust="spacingAndGlyphs" textLength="119" x="1383" y="275.0059">Consulter relations</text><text fill="#000000" font-family="sans-serif" font-size="12" lengthAdjust="spacingAndGlyphs" textLength="86" x="1387" y="288.9746">banque-client</text><ellipse cx="1442.5" cy="346.8047" fill="none" rx="10" ry="10" style="stroke: #000000; stroke-width: 1.0;"/><ellipse cx="1443" cy="347.3047" fill="#000000" rx="6" ry="6" style="stroke: none; stroke-width: 1.0;"/><ellipse cx="754" cy="500.2734" fill="none" rx="10" ry="10" style="stroke: #000000; stroke-width: 1.0;"/><ellipse cx="754.5" cy="500.7734" fill="#000000" rx="6" ry="6" style="stroke: none; stroke-width: 1.0;"/><line style="stroke: #383838; stroke-width: 1.5;" x1="754" x2="754" y1="63.2813" y2="83.2813"/><polygon fill="#383838" points="750,73.2813,754,83.2813,758,73.2813,754,77.2813" style="stroke: #383838; stroke-width: 1.0;"/><line style="stroke: #383838; stroke-width: 1.5;" x1="86" x2="86" y1="336.2891" y2="371.2891"/><polygon fill="#383838" points="82,361.2891,86,371.2891,90,361.2891,86,365.2891" style="stroke: #383838; stroke-width: 1.0;"/><line style="stroke: #383838; stroke-width: 1.5;" x1="225" x2="215" y1="344.3047" y2="344.3047"/><polygon fill="#383838" points="211,371.2891,215,381.2891,219,371.2891,215,375.2891" style="stroke: #383838; stroke-width: 1.5;"/><line style="stroke: #383838; stroke-width: 1.5;" x1="215" x2="215" y1="344.3047" y2="418.2734"/><line style="stroke: #383838; stroke-width: 1.5;" x1="215" x2="285" y1="418.2734" y2="418.2734"/><polygon fill="#383838" points="275,414.2734,285,418.2734,275,422.2734,279,418.2734" style="stroke: #383838; stroke-width: 1.0;"/><line style="stroke: #383838; stroke-width: 1.5;" x1="369" x2="379" y1="344.3047" y2="344.3047"/><line style="stroke: #383838; stroke-width: 1.5;" x1="379" x2="379" y1="344.3047" y2="366.3047"/><polygon fill="#383838" points="375,356.3047,379,366.3047,383,356.3047,379,360.3047" style="stroke: #383838; stroke-width: 1.0;"/><line style="stroke: #383838; stroke-width: 1.5;" x1="379" x2="379" y1="400.2734" y2="418.2734"/><line style="stroke: #383838; stroke-width: 1.5;" x1="379" x2="309" y1="418.2734" y2="418.2734"/><polygon fill="#383838" points="319,414.2734,309,418.2734,319,422.2734,315,418.2734" style="stroke: #383838; stroke-width: 1.0;"/><line style="stroke: #383838; stroke-width: 1.5;" x1="297" x2="297" y1="297.3047" y2="332.3047"/><polygon fill="#383838" points="293,322.3047,297,332.3047,301,322.3047,297,326.3047" style="stroke: #383838; stroke-width: 1.0;"/><line style="stroke: #383838; stroke-width: 1.5;" x1="592" x2="592" y1="336.2891" y2="371.2891"/><polygon fill="#383838" points="588,361.2891,592,371.2891,596,361.2891,592,365.2891" style="stroke: #383838; stroke-width: 1.0;"/><line style="stroke: #383838; stroke-width: 1.5;" x1="86" x2="86" y1="243.3359" y2="288.3516"/><polygon fill="#383838" points="82,278.3516,86,288.3516,90,278.3516,86,282.3516" style="stroke: #383838; stroke-width: 1.0;"/><line style="stroke: #383838; stroke-width: 1.5;" x1="86" x2="86" y1="405.2578" y2="450.2734"/><polygon fill="#383838" points="82,440.2734,86,450.2734,90,440.2734,86,444.2734" style="stroke: #383838; stroke-width: 1.0;"/><line style="stroke: #383838; stroke-width: 1.5;" x1="297" x2="297" y1="243.3359" y2="263.3359"/><polygon fill="#383838" points="293,253.3359,297,263.3359,301,253.3359,297,257.3359" style="stroke: #383838; stroke-width: 1.0;"/><line style="stroke: #383838; stroke-width: 1.5;" x1="297" x2="297" y1="430.2734" y2="450.2734"/><polygon fill="#383838" points="293,440.2734,297,450.2734,301,440.2734,297,444.2734" style="stroke: #383838; stroke-width: 1.0;"/><line style="stroke: #383838; stroke-width: 1.5;" x1="592" x2="592" y1="243.3359" y2="302.3203"/><polygon fill="#383838" points="588,292.3203,592,302.3203,596,292.3203,592,296.3203" style="stroke: #383838; stroke-width: 1.0;"/><line style="stroke: #383838; stroke-width: 1.5;" x1="86" x2="592" y1="243.3359" y2="243.3359"/><line style="stroke: #383838; stroke-width: 1.5;" x1="86" x2="345" y1="450.2734" y2="450.2734"/><line style="stroke: #383838; stroke-width: 1.5;" x1="345" x2="345" y1="208.3359" y2="243.3359"/><polygon fill="#383838" points="341,233.3359,345,243.3359,349,233.3359,345,237.3359" style="stroke: #383838; stroke-width: 1.0;"/><line style="stroke: #383838; stroke-width: 1.5;" x1="799" x2="799" y1="309.8203" y2="329.8203"/><polygon fill="#383838" points="795,319.8203,799,329.8203,803,319.8203,799,323.8203" style="stroke: #383838; stroke-width: 1.0;"/><line style="stroke: #383838; stroke-width: 1.5;" x1="799" x2="799" y1="377.7578" y2="397.7578"/><polygon fill="#383838" points="795,387.7578,799,397.7578,803,387.7578,799,391.7578" style="stroke: #383838; stroke-width: 1.0;"/><line style="stroke: #383838; stroke-width: 1.5;" x1="949.5" x2="949.5" y1="309.8203" y2="329.8203"/><polygon fill="#383838" points="945.5,319.8203,949.5,329.8203,953.5,319.8203,949.5,323.8203" style="stroke: #383838; stroke-width: 1.0;"/><line style="stroke: #383838; stroke-width: 1.5;" x1="949.5" x2="949.5" y1="377.7578" y2="397.7578"/><polygon fill="#383838" points="945.5,387.7578,949.5,397.7578,953.5,387.7578,949.5,391.7578" style="stroke: #383838; stroke-width: 1.0;"/><line style="stroke: #383838; stroke-width: 1.5;" x1="1107.5" x2="1107.5" y1="309.8203" y2="329.8203"/><polygon fill="#383838" points="1103.5,319.8203,1107.5,329.8203,1111.5,319.8203,1107.5,323.8203" style="stroke: #383838; stroke-width: 1.0;"/><line style="stroke: #383838; stroke-width: 1.5;" x1="1107.5" x2="1107.5" y1="377.7578" y2="397.7578"/><polygon fill="#383838" points="1103.5,387.7578,1107.5,397.7578,1111.5,387.7578,1107.5,391.7578" style="stroke: #383838; stroke-width: 1.0;"/><line style="stroke: #383838; stroke-width: 1.5;" x1="799" x2="1107.5" y1="309.8203" y2="309.8203"/><line style="stroke: #383838; stroke-width: 1.5;" x1="799" x2="1107.5" y1="397.7578" y2="397.7578"/><line style="stroke: #383838; stroke-width: 1.5;" x1="957" x2="957" y1="274.8203" y2="309.8203"/><polygon fill="#383838" points="953,299.8203,957,309.8203,961,299.8203,957,303.8203" style="stroke: #383838; stroke-width: 1.0;"/><line style="stroke: #383838; stroke-width: 1.5;" x1="1282.5" x2="1282.5" y1="294.8203" y2="329.8203"/><polygon fill="#383838" points="1278.5,319.8203,1282.5,329.8203,1286.5,319.8203,1282.5,323.8203" style="stroke: #383838; stroke-width: 1.0;"/><line style="stroke: #383838; stroke-width: 1.5;" x1="1442.5" x2="1442.5" y1="301.8047" y2="336.8047"/><polygon fill="#383838" points="1438.5,326.8047,1442.5,336.8047,1446.5,326.8047,1442.5,330.8047" style="stroke: #383838; stroke-width: 1.0;"/><line style="stroke: #383838; stroke-width: 1.5;" x1="345" x2="345" y1="140.3984" y2="160.3984"/><polygon fill="#383838" points="341,150.3984,345,160.3984,349,150.3984,345,154.3984" style="stroke: #383838; stroke-width: 1.0;"/><line style="stroke: #383838; stroke-width: 1.5;" x1="345" x2="345" y1="450.2734" y2="470.2734"/><polygon fill="#383838" points="341,460.2734,345,470.2734,349,460.2734,345,464.2734" style="stroke: #383838; stroke-width: 1.0;"/><line style="stroke: #383838; stroke-width: 1.5;" x1="957" x2="957" y1="140.3984" y2="212.9141"/><polygon fill="#383838" points="953,202.9141,957,212.9141,961,202.9141,957,206.9141" style="stroke: #383838; stroke-width: 1.0;"/><line style="stroke: #383838; stroke-width: 1.5;" x1="957" x2="957" y1="397.7578" y2="470.2734"/><polygon fill="#383838" points="953,460.2734,957,470.2734,961,460.2734,957,464.2734" style="stroke: #383838; stroke-width: 1.0;"/><line style="stroke: #383838; stroke-width: 1.5;" x1="1282.5" x2="1282.5" y1="140.3984" y2="260.8516"/><polygon fill="#383838" points="1278.5,250.8516,1282.5,260.8516,1286.5,250.8516,1282.5,254.8516" style="stroke: #383838; stroke-width: 1.0;"/><line style="stroke: #383838; stroke-width: 1.5;" x1="1442.5" x2="1442.5" y1="140.3984" y2="253.8672"/><polygon fill="#383838" points="1438.5,243.8672,1442.5,253.8672,1446.5,243.8672,1442.5,247.8672" style="stroke: #383838; stroke-width: 1.0;"/><line style="stroke: #383838; stroke-width: 1.5;" x1="345" x2="1442.5" y1="140.3984" y2="140.3984"/><line style="stroke: #383838; stroke-width: 1.5;" x1="345" x2="957" y1="470.2734" y2="470.2734"/><line style="stroke: #383838; stroke-width: 1.5;" x1="754" x2="754" y1="117.25" y2="140.3984"/><polygon fill="#383838" points="750,130.3984,754,140.3984,758,130.3984,754,134.3984" style="stroke: #383838; stroke-width: 1.0;"/><line style="stroke: #383838; stroke-width: 1.5;" x1="754" x2="754" y1="470.2734" y2="490.2734"/><polygon fill="#383838" points="750,480.2734,754,490.2734,758,480.2734,754,484.2734" style="stroke: #383838; stroke-width: 1.0;"/></g></svg>