<?xml version="1.0" encoding="UTF-8" standalone="yes"?><svg xmlns="http://www.w3.org/2000/svg" xmlns:xlink="http://www.w3.org/1999/xlink" height="378px" style="width:841px;height:378px;" version="1.1" viewBox="0 0 841 378" width="841px"><defs/><g><text fill="#000000" font-family="sans-serif" font-size="20" lengthAdjust="spacingAndGlyphs" textLength="303" x="277.5" y="18.5645">Diagramme d'activité du CU 7</text><line style="stroke: none; stroke-width: 1.0;" x1="277.5" x2="580.5" y1="28.2813" y2="28.2813"/><polygon fill="#ECECEC" points="251.75,41.7813,251.75,66.9141,462.75,66.9141,462.75,51.7813,452.75,41.7813,251.75,41.7813" style="stroke: #383838; stroke-width: 1.0;"/><polygon fill="#ECECEC" points="251.75,41.7813,251.75,66.9141,462.75,66.9141,462.75,59.7813,482.977,54.2813,462.75,51.7813,462.75,51.7813,452.75,41.7813,251.75,41.7813" style="stroke: #383838; stroke-width: 1.0;"/><line style="stroke: #383838; stroke-width: 1.0;" x1="452.75" x2="452.75" y1="41.7813" y2="51.7813"/><line style="stroke: #383838; stroke-width: 1.0;" x1="462.75" x2="452.75" y1="51.7813" y2="51.7813"/><text fill="#000000" font-family="sans-serif" font-size="13" lengthAdjust="spacingAndGlyphs" textLength="190" x="257.75" y="58.8481">Acteur : Un agent de l'agence</text><ellipse cx="493" cy="54.2813" fill="#000000" rx="10" ry="10" style="stroke: none; stroke-width: 1.0;"/><rect fill="#F8F8F8" height="47.9375" rx="12.5" ry="12.5" style="stroke: #383838; stroke-width: 1.5;" width="187" x="399.75" y="107.2813"/><text fill="#000000" font-family="sans-serif" font-size="12" lengthAdjust="spacingAndGlyphs" textLength="118" x="434.25" y="128.4199">Consulter l'agenda</text><text fill="#000000" font-family="sans-serif" font-size="12" lengthAdjust="spacingAndGlyphs" textLength="163" x="413.75" y="142.3887">hebdomadaire d'un agent</text><rect fill="#F8F8F8" height="47.9375" rx="12.5" ry="12.5" style="stroke: #383838; stroke-width: 1.5;" width="201" x="197.75" y="195.2813"/><text fill="#000000" font-family="sans-serif" font-size="12" lengthAdjust="spacingAndGlyphs" textLength="181" x="207.75" y="216.4199">Consulter l'agenda quotidien</text><text fill="#000000" font-family="sans-serif" font-size="12" lengthAdjust="spacingAndGlyphs" textLength="73" x="261.75" y="230.3887">de l'agence</text><rect fill="#F8F8F8" height="33.9688" rx="12.5" ry="12.5" style="stroke: #383838; stroke-width: 1.5;" width="126" x="140" y="283.2813"/><text fill="#000000" font-family="sans-serif" font-size="12" lengthAdjust="spacingAndGlyphs" textLength="106" x="150" y="304.4199">Changer de date</text><rect fill="#F8F8F8" height="33.9688" rx="12.5" ry="12.5" style="stroke: #383838; stroke-width: 1.5;" width="155" x="286.75" y="283.2813"/><text fill="#000000" font-family="sans-serif" font-size="12" lengthAdjust="spacingAndGlyphs" textLength="135" x="296.75" y="304.4199">Consulter détails RDV</text><rect fill="#F8F8F8" height="33.9688" rx="12.5" ry="12.5" style="stroke: #383838; stroke-width: 1.5;" width="157" x="461.75" y="283.2813"/><text fill="#000000" font-family="sans-serif" font-size="12" lengthAdjust="spacingAndGlyphs" textLength="137" x="471.75" y="304.4199">Modifier plage horaire</text><rect fill="#F8F8F8" height="33.9688" rx="12.5" ry="12.5" style="stroke: #383838; stroke-width: 1.5;" width="97" x="638.75" y="283.2813"/><text fill="#000000" font-family="sans-serif" font-size="12" lengthAdjust="spacingAndGlyphs" textLength="77" x="648.75" y="304.4199">Annuler RDV</text><rect fill="#F8F8F8" height="33.9688" rx="12.5" ry="12.5" style="stroke: #383838; stroke-width: 1.5;" width="114" x="6" y="283.2813"/><text fill="#000000" font-family="sans-serif" font-size="12" lengthAdjust="spacingAndGlyphs" textLength="94" x="16" y="304.4199">Reaffecter RDV</text><rect fill="#F8F8F8" height="33.9688" rx="12.5" ry="12.5" style="stroke: #383838; stroke-width: 1.5;" width="125" x="545.75" y="202.2813"/><text fill="#000000" font-family="sans-serif" font-size="12" lengthAdjust="spacingAndGlyphs" textLength="105" x="555.75" y="223.4199">Changer d'agent</text><polygon fill="#ECECEC" points="154.75,118.7813,154.75,143.9141,379.75,143.9141,379.75,128.7813,369.75,118.7813,154.75,118.7813" style="stroke: #383838; stroke-width: 1.0;"/><polygon fill="#ECECEC" points="154.75,118.7813,154.75,143.9141,379.75,143.9141,379.75,136.7813,399.499,131.2813,379.75,128.7813,379.75,128.7813,369.75,118.7813,154.75,118.7813" style="stroke: #383838; stroke-width: 1.0;"/><line style="stroke: #383838; stroke-width: 1.0;" x1="369.75" x2="369.75" y1="118.7813" y2="128.7813"/><line style="stroke: #383838; stroke-width: 1.0;" x1="379.75" x2="369.75" y1="128.7813" y2="128.7813"/><text fill="#000000" font-family="sans-serif" font-size="13" lengthAdjust="spacingAndGlyphs" textLength="204" x="160.75" y="135.8481">Par défaut, l'agent est connecté</text><rect fill="#F8F8F8" height="33.9688" rx="12.5" ry="12.5" style="stroke: #383838; stroke-width: 1.5;" width="150" x="690.5" y="202.2813"/><text fill="#000000" font-family="sans-serif" font-size="12" lengthAdjust="spacingAndGlyphs" textLength="130" x="700.5" y="223.4199">Changer de semaine</text><ellipse cx="452" cy="367.2813" fill="none" rx="10" ry="10" style="stroke: #000000; stroke-width: 1.0;"/><ellipse cx="452.5" cy="367.7813" fill="#000000" rx="6" ry="6" style="stroke: none; stroke-width: 1.0;"/><path d="M493,64.4773 C493,73.8012 493,88.7052 493,101.9733 " fill="none" style="stroke: #383838; stroke-width: 1.0;"/><polygon fill="#383838" points="493,107.1542,497,98.1542,493,102.1542,489,98.1542,493,107.1542" style="stroke: #383838; stroke-width: 1.0;"/><path d="M263.377,243.3433 C248.699,254.8003 232.318,268.5033 220.213,279.4785 " fill="none" style="stroke: #383838; stroke-width: 1.0;"/><polygon fill="#383838" points="216.28,283.0889,225.6149,279.9489,219.9632,279.7075,220.2047,274.0558,216.28,283.0889" style="stroke: #383838; stroke-width: 1.0;"/><path d="M228.548,283.1754 C242.427,272.7513 259.366,258.9293 273.126,246.8983 " fill="none" style="stroke: #383838; stroke-width: 1.0;"/><polygon fill="#383838" points="276.917,243.5563,267.52,246.5053,273.1656,246.8619,272.8091,252.5075,276.917,243.5563" style="stroke: #383838; stroke-width: 1.0;"/><path d="M317.445,243.5563 C326.927,254.9063 338.217,268.4193 347.304,279.2964 " fill="none" style="stroke: #383838; stroke-width: 1.0;"/><polygon fill="#383838" points="350.544,283.1754,347.8434,273.704,347.3383,279.3382,341.704,278.8331,350.544,283.1754" style="stroke: #383838; stroke-width: 1.0;"/><path d="M368.647,243.3433 C406.012,255.5413 451.174,270.2843 485.751,281.5719 " fill="none" style="stroke: #383838; stroke-width: 1.0;"/><polygon fill="#383838" points="490.774,283.2115,483.4612,276.6143,486.0212,281.6587,480.9768,284.2187,490.774,283.2115" style="stroke: #383838; stroke-width: 1.0;"/><path d="M398.421,237.4023 C464.025,249.0903 551.417,265.6142 628,283.2813 C629.813,283.6995 631.654,284.1355 633.512,284.5849 " fill="none" style="stroke: #383838; stroke-width: 1.0;"/><polygon fill="#383838" points="638.457,285.8025,630.673,279.7684,633.6017,284.6081,628.7621,287.5368,638.457,285.8025" style="stroke: #383838; stroke-width: 1.0;"/><path d="M229.397,243.3433 C193.112,255.5413 149.257,270.2843 115.68,281.5719 " fill="none" style="stroke: #383838; stroke-width: 1.0;"/><polygon fill="#383838" points="110.802,283.2115,120.6074,284.1358,115.5415,281.6185,118.0587,276.5526,110.802,283.2115" style="stroke: #383838; stroke-width: 1.0;"/><path d="M592.559,202.2523 C577.683,189.9253 554.888,172.6383 534.792,158.3323 " fill="none" style="stroke: #383838; stroke-width: 1.0;"/><polygon fill="#383838" points="530.548,155.3273,535.5821,163.7923,534.6288,158.2164,540.2047,157.2631,530.548,155.3273" style="stroke: #383838; stroke-width: 1.0;"/><path d="M517.087,155.3273 C534.376,169.1123 557.64,186.4113 576.398,199.3853 " fill="none" style="stroke: #383838; stroke-width: 1.0;"/><polygon fill="#383838" points="580.572,202.2523,575.4169,193.8603,576.4502,199.422,570.8885,200.4552,580.572,202.2523" style="stroke: #383838; stroke-width: 1.0;"/><path d="M559.161,155.3273 C603.129,169.6043 660.393,187.6513 703.401,200.7593 " fill="none" style="stroke: #383838; stroke-width: 1.0;"/><polygon fill="#383838" points="708.309,202.2523,700.8614,195.8077,703.5251,200.7981,698.5347,203.4619,708.309,202.2523" style="stroke: #383838; stroke-width: 1.0;"/><path d="M720.296,202.2523 C681.587,189.4863 624.677,171.4033 577.452,156.8173 " fill="none" style="stroke: #383838; stroke-width: 1.0;"/><polygon fill="#383838" points="572.622,155.3273,580.0428,161.8028,577.3998,156.8013,582.4012,154.1583,572.622,155.3273" style="stroke: #383838; stroke-width: 1.0;"/><path d="M475.502,155.3053 C458.374,177.7993 431.505,212.9793 408,243.2813 C398.768,255.1833 388.358,268.4393 379.982,279.0659 " fill="none" style="stroke: #383838; stroke-width: 1.0;"/><polygon fill="#383838" points="376.761,283.1492,385.4753,278.5599,379.8575,279.2234,379.194,273.6056,376.761,283.1492" style="stroke: #383838; stroke-width: 1.0;"/><path d="M490.151,155.5783 C488.227,178.5823 487.648,214.4093 498,243.2813 C502.78,256.6123 511.911,269.4103 520.441,279.3983 " fill="none" style="stroke: #383838; stroke-width: 1.0;"/><polygon fill="#383838" points="523.795,283.2219,520.8671,273.8183,520.4978,279.4631,514.853,279.0938,523.795,283.2219" style="stroke: #383838; stroke-width: 1.0;"/><path d="M496.231,155.3133 C500.871,180.1523 511.715,219.3443 536,243.2813 C550.293,257.3692 596.038,273.2663 633.467,284.5141 " fill="none" style="stroke: #383838; stroke-width: 1.0;"/><polygon fill="#383838" points="638.455,286.0004,630.973,279.5957,633.6634,284.5718,628.6873,287.2623,638.455,286.0004" style="stroke: #383838; stroke-width: 1.0;"/><path d="M399.475,153.0673 C395.94,153.8203 392.439,154.5603 389,155.2813 C299.425,174.0523 269.541,155.7453 187,195.2813 C143.704,216.0193 102.9655,255.4022 80.6568,279.3042 " fill="none" style="stroke: #383838; stroke-width: 1.0;"/><polygon fill="#383838" points="77.2371,283.0022,86.2843,279.1101,80.6318,279.3312,80.4108,273.6786,77.2371,283.0022" style="stroke: #383838; stroke-width: 1.0;"/><path d="M434.013,155.3273 C406.71,166.9443 374.653,181.0563 348.481,192.9733 " fill="none" style="stroke: #383838; stroke-width: 1.0;"/><polygon fill="#383838" points="343.665,195.1713,353.5134,195.0738,348.2137,193.0955,350.1921,187.7958,343.665,195.1713" style="stroke: #383838; stroke-width: 1.0;"/><path d="M357.136,195.1713 C384.457,183.5463 416.512,169.4333 442.662,157.5243 " fill="none" style="stroke: #383838; stroke-width: 1.0;"/><polygon fill="#383838" points="447.474,155.3273,437.6256,155.4272,442.9258,157.4042,440.9488,162.7044,447.474,155.3273" style="stroke: #383838; stroke-width: 1.0;"/><path d="M385.753,317.3487 C402.764,329.9135 425.795,346.9251 439.738,357.224 " fill="none" style="stroke: #383838; stroke-width: 1.0;"/><polygon fill="#383838" points="444.096,360.4432,439.2323,351.879,440.0738,357.4729,434.4799,358.3145,444.096,360.4432" style="stroke: #383838; stroke-width: 1.0;"/><path d="M518.247,317.3487 C501.236,329.9135 478.205,346.9251 464.262,357.224 " fill="none" style="stroke: #383838; stroke-width: 1.0;"/><polygon fill="#383838" points="459.904,360.4432,469.5201,358.3145,463.9262,357.4729,464.7677,351.879,459.904,360.4432" style="stroke: #383838; stroke-width: 1.0;"/><path d="M638.593,314.6705 C584.516,329.6278 500.159,352.9609 466.54,362.2595 " fill="none" style="stroke: #383838; stroke-width: 1.0;"/><polygon fill="#383838" points="461.593,363.628,471.3336,365.084,466.4121,362.2951,469.201,357.3735,461.593,363.628" style="stroke: #383838; stroke-width: 1.0;"/><path d="M120.314,315.3004 C123.585,315.9969 126.831,316.6629 130,317.2813 C247.596,340.2287 391.117,358.7576 437.087,364.462 " fill="none" style="stroke: #383838; stroke-width: 1.0;"/><polygon fill="#383838" points="442.201,365.0935,433.7591,360.0205,437.2387,364.4806,432.7786,367.9602,442.201,365.0935" style="stroke: #383838; stroke-width: 1.0;"/></g></svg>