<?xml version="1.0" encoding="UTF-8" standalone="yes"?><svg xmlns="http://www.w3.org/2000/svg" xmlns:xlink="http://www.w3.org/1999/xlink" height="471px" style="width:692px;height:471px;" version="1.1" viewBox="0 0 692 471" width="692px"><defs/><g><text fill="#000000" font-family="sans-serif" font-size="20" lengthAdjust="spacingAndGlyphs" textLength="303" x="203.5" y="18.5645">Diagramme d'activité du CU 4</text><line style="stroke: none; stroke-width: 1.0;" x1="203.5" x2="506.5" y1="28.2813" y2="28.2813"/><polygon fill="#ECECEC" points="179,41.2813,179,66.4141,390,66.4141,390,51.2813,380,41.2813,179,41.2813" style="stroke: #383838; stroke-width: 1.0;"/><polygon fill="#ECECEC" points="179,41.2813,179,66.4141,390,66.4141,390,59.2813,410.091,53.7813,390,51.2813,390,51.2813,380,41.2813,179,41.2813" style="stroke: #383838; stroke-width: 1.0;"/><line style="stroke: #383838; stroke-width: 1.0;" x1="380" x2="380" y1="41.2813" y2="51.2813"/><line style="stroke: #383838; stroke-width: 1.0;" x1="390" x2="380" y1="51.2813" y2="51.2813"/><text fill="#000000" font-family="sans-serif" font-size="13" lengthAdjust="spacingAndGlyphs" textLength="190" x="185" y="58.3481">Acteur : Un agent de l'agence</text><ellipse cx="420.5" cy="53.7813" fill="#000000" rx="10" ry="10" style="stroke: none; stroke-width: 1.0;"/><rect fill="#F8F8F8" height="33.9688" rx="12.5" ry="12.5" style="stroke: #383838; stroke-width: 1.5;" width="333" x="254" y="109.2813"/><text fill="#000000" font-family="sans-serif" font-size="12" lengthAdjust="spacingAndGlyphs" textLength="313" x="264" y="130.4199">Consulter la liste des contacts à traiter de l'agent</text><rect fill="#F8F8F8" height="47.9375" rx="12.5" ry="12.5" style="stroke: #383838; stroke-width: 1.5;" width="167" x="33" y="186.2813"/><text fill="#000000" font-family="sans-serif" font-size="12" lengthAdjust="spacingAndGlyphs" textLength="147" x="43" y="207.4199">Regrouper les contacts</text><text fill="#000000" font-family="sans-serif" font-size="12" lengthAdjust="spacingAndGlyphs" textLength="100" x="66.5" y="221.3887">(si même client)</text><polygon fill="#ECECEC" points="6,106.2813,6,146.5469,227,146.5469,227,116.2813,217,106.2813,6,106.2813" style="stroke: #383838; stroke-width: 1.0;"/><polygon fill="#ECECEC" points="6,106.2813,6,146.5469,112.5,146.5469,116.5,186.2763,120.5,146.5469,227,146.5469,227,116.2813,217,106.2813,6,106.2813" style="stroke: #383838; stroke-width: 1.0;"/><line style="stroke: #383838; stroke-width: 1.0;" x1="217" x2="217" y1="106.2813" y2="116.2813"/><line style="stroke: #383838; stroke-width: 1.0;" x1="227" x2="217" y1="116.2813" y2="116.2813"/><text fill="#000000" font-family="sans-serif" font-size="13" lengthAdjust="spacingAndGlyphs" textLength="200" x="12" y="123.3481">Définition d'un contact principal</text><text fill="#000000" font-family="sans-serif" font-size="13" lengthAdjust="spacingAndGlyphs" textLength="193" x="12" y="138.481">et de contact(s) secondaire(s)</text><ellipse cx="433.5" cy="460.2813" fill="none" rx="10" ry="10" style="stroke: #000000; stroke-width: 1.0;"/><ellipse cx="434" cy="460.7813" fill="#000000" rx="6" ry="6" style="stroke: none; stroke-width: 1.0;"/><rect fill="#F8F8F8" height="33.9688" rx="12.5" ry="12.5" style="stroke: #383838; stroke-width: 1.5;" width="217" x="325" y="193.2813"/><text fill="#000000" font-family="sans-serif" font-size="12" lengthAdjust="spacingAndGlyphs" textLength="197" x="335" y="214.4199">Consulter le détail d'un contact</text><rect fill="#F8F8F8" height="33.9688" rx="12.5" ry="12.5" style="stroke: #383838; stroke-width: 1.5;" width="135" x="226" y="281.2813"/><text fill="#000000" font-family="sans-serif" font-size="12" lengthAdjust="spacingAndGlyphs" textLength="115" x="236" y="302.4199">Annuler le contact</text><rect fill="#F8F8F8" height="33.9688" rx="12.5" ry="12.5" style="stroke: #383838; stroke-width: 1.5;" width="222" x="141.5" y="369.2813"/><text fill="#000000" font-family="sans-serif" font-size="12" lengthAdjust="spacingAndGlyphs" textLength="202" x="151.5" y="390.4199">Enregistrer le motif d'annulation</text><rect fill="#F8F8F8" height="47.9375" rx="12.5" ry="12.5" style="stroke: #383838; stroke-width: 1.5;" width="99" x="384" y="362.2813"/><text fill="#000000" font-family="sans-serif" font-size="12" lengthAdjust="spacingAndGlyphs" textLength="79" x="394" y="383.4199">Prendre RDV</text><text fill="#000000" font-family="sans-serif" font-size="12" lengthAdjust="spacingAndGlyphs" textLength="39" x="414" y="397.3887">(CU 6)</text><rect fill="#F8F8F8" height="47.9375" rx="12.5" ry="12.5" style="stroke: #383838; stroke-width: 1.5;" width="119" x="503" y="362.2813"/><text fill="#000000" font-family="sans-serif" font-size="12" lengthAdjust="spacingAndGlyphs" textLength="99" x="513" y="383.4199">Preparer le RDV</text><text fill="#000000" font-family="sans-serif" font-size="12" lengthAdjust="spacingAndGlyphs" textLength="39" x="543" y="397.3887">(CU 8)</text><rect fill="#F8F8F8" height="47.9375" rx="12.5" ry="12.5" style="stroke: #383838; stroke-width: 1.5;" width="120" x="571.5" y="274.2813"/><text fill="#000000" font-family="sans-serif" font-size="12" lengthAdjust="spacingAndGlyphs" textLength="100" x="581.5" y="295.4199">Conduire le RDV</text><text fill="#000000" font-family="sans-serif" font-size="12" lengthAdjust="spacingAndGlyphs" textLength="39" x="612" y="309.3887">(CU 9)</text><path d="M420.5,63.9982 C420.5,74.0802 420.5,90.5843 420.5,103.9253 " fill="none" style="stroke: #383838; stroke-width: 1.0;"/><polygon fill="#383838" points="420.5,109.0492,424.5,100.0492,420.5,104.0492,416.5,100.0492,420.5,109.0492" style="stroke: #383838; stroke-width: 1.0;"/><path d="M361.164,143.2863 C316.811,155.2503 255.436,171.8053 205.254,185.3413 " fill="none" style="stroke: #383838; stroke-width: 1.0;"/><polygon fill="#383838" points="200.125,186.7242,209.8564,188.2409,204.9523,185.4214,207.7718,180.5172,200.125,186.7242" style="stroke: #383838; stroke-width: 1.0;"/><path d="M110.101,234.4713 C100.2852,275.6573 86.9868,361.7843 131.5,410.2813 C170.652,452.9374 362.143,458.4775 418.111,459.1824 " fill="none" style="stroke: #383838; stroke-width: 1.0;"/><polygon fill="#383838" points="423.386,459.2393,414.43,455.1418,418.3863,459.185,414.3431,463.1413,423.386,459.2393" style="stroke: #383838; stroke-width: 1.0;"/><path d="M423.068,143.4823 C425.08,156.1733 427.897,173.9423 430.097,187.8163 " fill="none" style="stroke: #383838; stroke-width: 1.0;"/><polygon fill="#383838" points="430.937,193.1143,433.4782,183.5989,430.154,188.1759,425.5769,184.8517,430.937,193.1143" style="stroke: #383838; stroke-width: 1.0;"/><path d="M407.167,227.4573 C383.604,241.9313 349.049,263.1583 324.231,278.4033 " fill="none" style="stroke: #383838; stroke-width: 1.0;"/><polygon fill="#383838" points="319.715,281.1783,329.4775,279.8768,323.9756,278.5616,325.2908,273.0597,319.715,281.1783" style="stroke: #383838; stroke-width: 1.0;"/><path d="M285.788,315.4573 C279.203,329.2713 269.685,349.2343 262.512,364.2803 " fill="none" style="stroke: #383838; stroke-width: 1.0;"/><polygon fill="#383838" points="260.177,369.1783,267.6599,362.7746,262.3281,364.6646,260.4381,359.3329,260.177,369.1783" style="stroke: #383838; stroke-width: 1.0;"/><path d="M433.5,227.3393 C433.5,256.8483 433.5,320.0493 433.5,356.9323 " fill="none" style="stroke: #383838; stroke-width: 1.0;"/><polygon fill="#383838" points="433.5,362.1753,437.5,353.1753,433.5,357.1753,429.5,353.1753,433.5,362.1753" style="stroke: #383838; stroke-width: 1.0;"/><path d="M445.405,227.3393 C467.461,257.0902 514.908,321.0873 542.151,357.8333 " fill="none" style="stroke: #383838; stroke-width: 1.0;"/><polygon fill="#383838" points="545.37,362.1753,543.2227,352.5633,542.392,358.1589,536.7965,357.3282,545.37,362.1753" style="stroke: #383838; stroke-width: 1.0;"/><path d="M470.742,227.4573 C499.677,240.0253 540.332,257.6833 573.517,272.0963 " fill="none" style="stroke: #383838; stroke-width: 1.0;"/><polygon fill="#383838" points="578.356,274.1983,571.6941,266.9443,573.7698,272.2066,568.5075,274.2823,578.356,274.1983" style="stroke: #383838; stroke-width: 1.0;"/><path d="M293.12,403.4394 C333.378,419.4538 392.787,443.0861 419.541,453.7285 " fill="none" style="stroke: #383838; stroke-width: 1.0;"/><polygon fill="#383838" points="424.441,455.6776,417.5575,448.6337,419.7953,453.8291,414.5998,456.0669,424.441,455.6776" style="stroke: #383838; stroke-width: 1.0;"/><path d="M433.5,410.4589 C433.5,421.8358 433.5,435.1781 433.5,445.0371 " fill="none" style="stroke: #383838; stroke-width: 1.0;"/><polygon fill="#383838" points="433.5,450.1213,437.5,441.1213,433.5,445.1213,429.5,441.1213,433.5,450.1213" style="stroke: #383838; stroke-width: 1.0;"/><path d="M520.974,410.4589 C495.121,424.8882 463.604,442.4789 446.34,452.115 " fill="none" style="stroke: #383838; stroke-width: 1.0;"/><polygon fill="#383838" points="441.865,454.6127,451.6732,453.7186,446.2309,452.1756,447.7739,446.7332,441.865,454.6127" style="stroke: #383838; stroke-width: 1.0;"/><path d="M639.348,322.3463 C646.101,346.8463 651.995,385.4043 632.5,410.2813 C609.507,439.6228 490.833,453.7596 448.513,457.9246 " fill="none" style="stroke: #383838; stroke-width: 1.0;"/><polygon fill="#383838" points="443.516,458.4046,452.8566,461.5274,448.4932,457.9274,452.0932,453.5639,443.516,458.4046" style="stroke: #383838; stroke-width: 1.0;"/></g></svg>