<?xml version="1.0" encoding="UTF-8" standalone="yes"?><svg xmlns="http://www.w3.org/2000/svg" xmlns:xlink="http://www.w3.org/1999/xlink" height="546px" style="width:372px;height:546px;" version="1.1" viewBox="0 0 372 546" width="372px"><defs/><g><text fill="#000000" font-family="sans-serif" font-size="20" lengthAdjust="spacingAndGlyphs" textLength="303" x="43.5" y="18.5645">Diagramme d'activité du CU 1</text><line style="stroke: none; stroke-width: 1.0;" x1="43.5" x2="346.5" y1="28.2813" y2="28.2813"/><polygon fill="#ECECEC" points="6,41.2813,6,81.5469,182,81.5469,182,51.2813,172,41.2813,6,41.2813" style="stroke: #383838; stroke-width: 1.0;"/><polygon fill="#ECECEC" points="6,41.2813,6,81.5469,182,81.5469,182,65.2813,221.262,61.2813,182,57.2813,182,51.2813,172,41.2813,6,41.2813" style="stroke: #383838; stroke-width: 1.0;"/><line style="stroke: #383838; stroke-width: 1.0;" x1="172" x2="172" y1="41.2813" y2="51.2813"/><line style="stroke: #383838; stroke-width: 1.0;" x1="182" x2="172" y1="51.2813" y2="51.2813"/><text fill="#000000" font-family="sans-serif" font-size="13" lengthAdjust="spacingAndGlyphs" textLength="107" x="12" y="58.3481">Déclenché par le</text><text fill="#000000" font-family="sans-serif" font-size="13" lengthAdjust="spacingAndGlyphs" textLength="155" x="12" y="73.481">système (horloge/timer)</text><ellipse cx="231.5" cy="61.2813" fill="#000000" rx="10" ry="10" style="stroke: none; stroke-width: 1.0;"/><rect fill="#F8F8F8" height="33.9688" rx="12.5" ry="12.5" style="stroke: #383838; stroke-width: 1.5;" width="280" x="91.5" y="123.2813"/><text fill="#000000" font-family="sans-serif" font-size="12" lengthAdjust="spacingAndGlyphs" textLength="260" x="101.5" y="144.4199">Consulter la liste des évènements captés</text><rect fill="#F8F8F8" height="33.9688" rx="12.5" ry="12.5" style="stroke: #383838; stroke-width: 1.5;" width="135" x="164.25" y="199.2813"/><text fill="#000000" font-family="sans-serif" font-size="12" lengthAdjust="spacingAndGlyphs" textLength="115" x="174.25" y="220.4199">Traiter évènement</text><rect fill="#F8F8F8" height="33.9688" rx="12.5" ry="12.5" style="stroke: #383838; stroke-width: 1.5;" width="198" x="35.5" y="275.2813"/><text fill="#000000" font-family="sans-serif" font-size="12" lengthAdjust="spacingAndGlyphs" textLength="178" x="45.5" y="296.4199">Générer un motif de contact</text><rect fill="#F8F8F8" height="33.9688" rx="12.5" ry="12.5" style="stroke: #383838; stroke-width: 1.5;" width="182" x="49.5" y="367.2813"/><text fill="#000000" font-family="sans-serif" font-size="12" lengthAdjust="spacingAndGlyphs" textLength="162" x="59.5" y="388.4199">Générer un contact prévu</text><polygon fill="#F8F8F8" points="226.5,443.2813,238.5,455.2813,226.5,467.2813,214.5,455.2813,226.5,443.2813" style="stroke: #383838; stroke-width: 1.5;"/><ellipse cx="226.5" cy="535.2813" fill="none" rx="10" ry="10" style="stroke: #000000; stroke-width: 1.0;"/><ellipse cx="227" cy="535.7813" fill="#000000" rx="6" ry="6" style="stroke: none; stroke-width: 1.0;"/><path d="M231.5,71.4162 C231.5,82.8693 231.5,102.8583 231.5,118.1862 " fill="none" style="stroke: #383838; stroke-width: 1.0;"/><polygon fill="#383838" points="231.5,123.1862,235.5,114.1862,231.5,118.1862,227.5,114.1862,231.5,123.1862" style="stroke: #383838; stroke-width: 1.0;"/><path d="M231.5,157.3383 C231.5,168.1023 231.5,182.3913 231.5,194.0872 " fill="none" style="stroke: #383838; stroke-width: 1.0;"/><polygon fill="#383838" points="231.5,199.2553,235.5,190.2553,231.5,194.2553,227.5,190.2553,231.5,199.2553" style="stroke: #383838; stroke-width: 1.0;"/><path d="M210.452,233.3383 C195.581,244.6833 175.574,259.9463 159.827,271.9593 " fill="none" style="stroke: #383838; stroke-width: 1.0;"/><polygon fill="#383838" points="155.506,275.2553,165.0877,272.9769,159.4814,272.2227,160.2356,266.6163,155.506,275.2553" style="stroke: #383838; stroke-width: 1.0;"/><path d="M135.573,309.3713 C136.548,323.9983 137.994,345.6923 139.068,361.7972 " fill="none" style="stroke: #383838; stroke-width: 1.0;"/><polygon fill="#383838" points="139.416,367.0273,142.8079,357.7809,139.0831,362.0383,134.8257,358.3135,139.416,367.0273" style="stroke: #383838; stroke-width: 1.0;"/><path d="M160.446,401.2843 C177.743,415.1623 202.107,434.7093 215.896,445.7733 " fill="none" style="stroke: #383838; stroke-width: 1.0;"/><polygon fill="#383838" points="220.141,449.1795,215.6253,440.4268,216.2414,446.05,210.6182,446.6661,220.141,449.1795" style="stroke: #383838; stroke-width: 1.0;"/><text fill="#000000" font-family="sans-serif" font-size="13" lengthAdjust="spacingAndGlyphs" textLength="136" x="70.66" y="426.6075">Tous les évènements</text><text fill="#000000" font-family="sans-serif" font-size="13" lengthAdjust="spacingAndGlyphs" textLength="102" x="87.66" y="441.7403">ont été traités ?</text><path d="M226.5,467.4568 C226.5,481.2631 226.5,504.7766 226.5,519.9119 " fill="none" style="stroke: #383838; stroke-width: 1.0;"/><polygon fill="#383838" points="226.5,525.0755,230.5,516.0755,226.5,520.0755,222.5,516.0755,226.5,525.0755" style="stroke: #383838; stroke-width: 1.0;"/><text fill="#000000" font-family="sans-serif" font-size="13" lengthAdjust="spacingAndGlyphs" textLength="19" x="227.5" y="500.3481">oui</text><path d="M229.498,446.1612 C233.129,435.8813 239.062,417.5473 241.5,401.2813 C245.536,374.3533 246.098,300.6593 243.5,275.2813 C242.24,262.9743 239.514,249.4242 236.978,238.5183 " fill="none" style="stroke: #383838; stroke-width: 1.0;"/><polygon fill="#383838" points="235.756,233.3943,233.9535,243.0768,236.9162,238.2578,241.7351,241.2205,235.756,233.3943" style="stroke: #383838; stroke-width: 1.0;"/><text fill="#000000" font-family="sans-serif" font-size="13" lengthAdjust="spacingAndGlyphs" textLength="24" x="245.5" y="342.3481">non</text></g></svg>