<?xml version="1.0" encoding="UTF-8" standalone="yes"?><svg xmlns="http://www.w3.org/2000/svg" xmlns:xlink="http://www.w3.org/1999/xlink" height="522px" style="width:539px;height:522px;" version="1.1" viewBox="0 0 539 522" width="539px"><defs/><g><text fill="#000000" font-family="sans-serif" font-size="20" lengthAdjust="spacingAndGlyphs" textLength="303" x="126.5" y="18.5645">Diagramme d'activité du CU 5</text><line style="stroke: none; stroke-width: 1.0;" x1="126.5" x2="429.5" y1="28.2813" y2="28.2813"/><polygon fill="#ECECEC" points="107,41.2813,107,66.4141,318,66.4141,318,51.2813,308,41.2813,107,41.2813" style="stroke: #383838; stroke-width: 1.0;"/><polygon fill="#ECECEC" points="107,41.2813,107,66.4141,318,66.4141,318,59.2813,338.091,53.7813,318,51.2813,318,51.2813,308,41.2813,107,41.2813" style="stroke: #383838; stroke-width: 1.0;"/><line style="stroke: #383838; stroke-width: 1.0;" x1="308" x2="308" y1="41.2813" y2="51.2813"/><line style="stroke: #383838; stroke-width: 1.0;" x1="318" x2="308" y1="51.2813" y2="51.2813"/><text fill="#000000" font-family="sans-serif" font-size="13" lengthAdjust="spacingAndGlyphs" textLength="190" x="113" y="58.3481">Acteur : Un agent de l'agence</text><ellipse cx="348.5" cy="53.7813" fill="#000000" rx="10" ry="10" style="stroke: none; stroke-width: 1.0;"/><rect fill="#F8F8F8" height="47.9375" rx="12.5" ry="12.5" style="stroke: #383838; stroke-width: 1.5;" width="138" x="279.5" y="109.7813"/><text fill="#000000" font-family="sans-serif" font-size="12" lengthAdjust="spacingAndGlyphs" textLength="118" x="289.5" y="130.9199">Consulter l'agenda</text><text fill="#000000" font-family="sans-serif" font-size="12" lengthAdjust="spacingAndGlyphs" textLength="39" x="329" y="144.8887">(CU 7)</text><polygon fill="#ECECEC" points="6,106.2813,6,161.6797,259,161.6797,259,116.2813,249,106.2813,6,106.2813" style="stroke: #383838; stroke-width: 1.0;"/><polygon fill="#ECECEC" points="6,106.2813,6,161.6797,259,161.6797,259,137.7813,279.326,133.7813,259,129.7813,259,116.2813,249,106.2813,6,106.2813" style="stroke: #383838; stroke-width: 1.0;"/><line style="stroke: #383838; stroke-width: 1.0;" x1="249" x2="249" y1="106.2813" y2="116.2813"/><line style="stroke: #383838; stroke-width: 1.0;" x1="259" x2="249" y1="116.2813" y2="116.2813"/><text fill="#000000" font-family="sans-serif" font-size="13" lengthAdjust="spacingAndGlyphs" textLength="218" x="12" y="123.3481">Il peut s'agir de l'agenda quotidien</text><text fill="#000000" font-family="sans-serif" font-size="13" lengthAdjust="spacingAndGlyphs" textLength="228" x="12" y="138.481">ou hebdomadaire (defaut). De plus,</text><text fill="#000000" font-family="sans-serif" font-size="13" lengthAdjust="spacingAndGlyphs" textLength="164" x="12" y="153.6138">Un agent est sélectionné.</text><rect fill="#F8F8F8" height="33.9688" rx="12.5" ry="12.5" style="stroke: #383838; stroke-width: 1.5;" width="202" x="247.5" y="201.2813"/><text fill="#000000" font-family="sans-serif" font-size="12" lengthAdjust="spacingAndGlyphs" textLength="182" x="257.5" y="222.4199">Passer en mode planification</text><rect fill="#F8F8F8" height="47.9375" rx="12.5" ry="12.5" style="stroke: #383838; stroke-width: 1.5;" width="166" x="32.5" y="275.2813"/><text fill="#000000" font-family="sans-serif" font-size="12" lengthAdjust="spacingAndGlyphs" textLength="146" x="42.5" y="296.4199">Sélectionner une plage</text><text fill="#000000" font-family="sans-serif" font-size="12" lengthAdjust="spacingAndGlyphs" textLength="76" x="77.5" y="310.3887">horaire libre</text><rect fill="#F8F8F8" height="47.9375" rx="12.5" ry="12.5" style="stroke: #383838; stroke-width: 1.5;" width="205" x="63" y="363.2813"/><text fill="#000000" font-family="sans-serif" font-size="12" lengthAdjust="spacingAndGlyphs" textLength="185" x="73" y="384.4199">Sélectionner le type d'activité</text><text fill="#000000" font-family="sans-serif" font-size="12" lengthAdjust="spacingAndGlyphs" textLength="70" x="130.5" y="398.3887">à plannifier</text><polygon fill="#ECECEC" points="44,451.2813,44,521.8125,287,521.8125,287,461.2813,277,451.2813,44,451.2813" style="stroke: #383838; stroke-width: 1.0;"/><polygon fill="#ECECEC" points="44,451.2813,44,521.8125,287,521.8125,287,461.2813,277,451.2813,169.5,451.2813,165.5,411.3873,161.5,451.2813,44,451.2813" style="stroke: #383838; stroke-width: 1.0;"/><line style="stroke: #383838; stroke-width: 1.0;" x1="277" x2="277" y1="451.2813" y2="461.2813"/><line style="stroke: #383838; stroke-width: 1.0;" x1="287" x2="277" y1="461.2813" y2="461.2813"/><text fill="#000000" font-family="sans-serif" font-size="13" lengthAdjust="spacingAndGlyphs" textLength="198" x="50" y="468.3481">Il est alors possible de spécifier</text><text fill="#000000" font-family="sans-serif" font-size="13" lengthAdjust="spacingAndGlyphs" textLength="222" x="50" y="483.481">les congés dans un premier temps</text><text fill="#000000" font-family="sans-serif" font-size="13" lengthAdjust="spacingAndGlyphs" textLength="170" x="50" y="498.6138">puis d'indiquer les horaires</text><text fill="#000000" font-family="sans-serif" font-size="13" lengthAdjust="spacingAndGlyphs" textLength="85" x="50" y="513.7466">des guichets.</text><rect fill="#F8F8F8" height="33.9688" rx="12.5" ry="12.5" style="stroke: #383838; stroke-width: 1.5;" width="173" x="365" y="469.7813"/><text fill="#000000" font-family="sans-serif" font-size="12" lengthAdjust="spacingAndGlyphs" textLength="153" x="375" y="490.9199">Créer une plage agenda</text><rect fill="#F8F8F8" height="47.9375" rx="12.5" ry="12.5" style="stroke: #383838; stroke-width: 1.5;" width="260" x="218.5" y="275.2813"/><text fill="#000000" font-family="sans-serif" font-size="12" lengthAdjust="spacingAndGlyphs" textLength="236" x="228.5" y="296.4199">Valider et sortir du mode planification</text><text fill="#000000" font-family="sans-serif" font-size="12" lengthAdjust="spacingAndGlyphs" textLength="104" x="296.5" y="310.3887">(MajNbContacts)</text><ellipse cx="348.5" cy="387.2813" fill="none" rx="10" ry="10" style="stroke: #000000; stroke-width: 1.0;"/><ellipse cx="349" cy="387.7813" fill="#000000" rx="6" ry="6" style="stroke: none; stroke-width: 1.0;"/><path d="M348.5,64.0353 C348.5,73.9552 348.5,90.1952 348.5,104.4013 " fill="none" style="stroke: #383838; stroke-width: 1.0;"/><polygon fill="#383838" points="348.5,109.5272,352.5,100.5272,348.5,104.5272,344.5,100.5272,348.5,109.5272" style="stroke: #383838; stroke-width: 1.0;"/><path d="M348.5,158.2023 C348.5,170.0992 348.5,184.4473 348.5,196.0243 " fill="none" style="stroke: #383838; stroke-width: 1.0;"/><polygon fill="#383838" points="348.5,201.1293,352.5,192.1293,348.5,196.1293,344.5,192.1293,348.5,201.1293" style="stroke: #383838; stroke-width: 1.0;"/><path d="M301.068,235.3633 C268.724,246.3302 225.262,261.0653 188.531,273.5193 " fill="none" style="stroke: #383838; stroke-width: 1.0;"/><polygon fill="#383838" points="183.626,275.1823,193.4339,276.0795,188.3611,273.5763,190.8643,268.5034,183.626,275.1823" style="stroke: #383838; stroke-width: 1.0;"/><path d="M128.899,323.3273 C135.232,334.2213 142.842,347.3093 149.478,358.7233 " fill="none" style="stroke: #383838; stroke-width: 1.0;"/><polygon fill="#383838" points="152.064,363.1713,150.9992,353.3801,149.5512,358.8485,144.0828,357.4006,152.064,363.1713" style="stroke: #383838; stroke-width: 1.0;"/><path d="M233.278,411.3873 C284.119,428.7196 352.694,452.0975 399.309,467.989 " fill="none" style="stroke: #383838; stroke-width: 1.0;"/><polygon fill="#383838" points="404.315,469.6957,397.0883,463.0043,399.5827,468.0815,394.5056,470.5759,404.315,469.6957" style="stroke: #383838; stroke-width: 1.0;"/><path d="M461.516,469.6404 C483.424,432.0559 530.417,337.1933 488.5,275.2813 C476.594,257.6953 458.175,245.6323 438.566,237.3563 " fill="none" style="stroke: #383838; stroke-width: 1.0;"/><polygon fill="#383838" points="433.558,235.3333,440.4044,242.4133,438.194,237.2062,443.4011,234.9958,433.558,235.3333" style="stroke: #383838; stroke-width: 1.0;"/><path d="M348.5,235.6503 C348.5,245.5263 348.5,258.3823 348.5,269.8742 " fill="none" style="stroke: #383838; stroke-width: 1.0;"/><polygon fill="#383838" points="348.5,275.0422,352.5,266.0422,348.5,270.0422,344.5,266.0422,348.5,275.0422" style="stroke: #383838; stroke-width: 1.0;"/><path d="M348.5,323.3273 C348.5,338.8262 348.5,358.7682 348.5,372.0103 " fill="none" style="stroke: #383838; stroke-width: 1.0;"/><polygon fill="#383838" points="348.5,377.2433,352.5,368.2433,348.5,372.2433,344.5,368.2433,348.5,377.2433" style="stroke: #383838; stroke-width: 1.0;"/></g></svg>