<?xml version="1.0" encoding="UTF-8" standalone="yes"?><svg xmlns="http://www.w3.org/2000/svg" xmlns:xlink="http://www.w3.org/1999/xlink" height="472px" style="width:692px;height:472px;" version="1.1" viewBox="0 0 692 472" width="692px"><defs/><g><text fill="#000000" font-family="sans-serif" font-size="20" lengthAdjust="spacingAndGlyphs" textLength="303" x="203.25" y="18.5645">Diagramme d'activité du CU 4</text><line style="stroke: none; stroke-width: 1.0;" x1="203.25" x2="506.25" y1="28.2813" y2="28.2813"/><polygon fill="#ECECEC" points="179,41.7813,179,66.9141,390,66.9141,390,51.7813,380,41.7813,179,41.7813" style="stroke: #383838; stroke-width: 1.0;"/><polygon fill="#ECECEC" points="179,41.7813,179,66.9141,390,66.9141,390,59.7813,410.227,54.2813,390,51.7813,390,51.7813,380,41.7813,179,41.7813" style="stroke: #383838; stroke-width: 1.0;"/><line style="stroke: #383838; stroke-width: 1.0;" x1="380" x2="380" y1="41.7813" y2="51.7813"/><line style="stroke: #383838; stroke-width: 1.0;" x1="390" x2="380" y1="51.7813" y2="51.7813"/><text fill="#000000" font-family="sans-serif" font-size="13" lengthAdjust="spacingAndGlyphs" textLength="190" x="185" y="58.8481">Acteur : Un agent de l'agence</text><ellipse cx="420.25" cy="54.2813" fill="#000000" rx="10" ry="10" style="stroke: none; stroke-width: 1.0;"/><rect fill="#F8F8F8" height="33.9688" rx="12.5" ry="12.5" style="stroke: #383838; stroke-width: 1.5;" width="333" x="254" y="110.2813"/><text fill="#000000" font-family="sans-serif" font-size="12" lengthAdjust="spacingAndGlyphs" textLength="313" x="264" y="131.4199">Consulter la liste des contacts à traiter de l'agent</text><rect fill="#F8F8F8" height="47.9375" rx="12.5" ry="12.5" style="stroke: #383838; stroke-width: 1.5;" width="167" x="33" y="187.2813"/><text fill="#000000" font-family="sans-serif" font-size="12" lengthAdjust="spacingAndGlyphs" textLength="147" x="43" y="208.4199">Regrouper les contacts</text><text fill="#000000" font-family="sans-serif" font-size="12" lengthAdjust="spacingAndGlyphs" textLength="100" x="66.5" y="222.3887">(si même client)</text><polygon fill="#ECECEC" points="6,107.2813,6,147.5469,227,147.5469,227,117.2813,217,107.2813,6,107.2813" style="stroke: #383838; stroke-width: 1.0;"/><polygon fill="#ECECEC" points="6,107.2813,6,147.5469,112.25,147.5469,116.25,187.2763,120.25,147.5469,227,147.5469,227,117.2813,217,107.2813,6,107.2813" style="stroke: #383838; stroke-width: 1.0;"/><line style="stroke: #383838; stroke-width: 1.0;" x1="217" x2="217" y1="107.2813" y2="117.2813"/><line style="stroke: #383838; stroke-width: 1.0;" x1="227" x2="217" y1="117.2813" y2="117.2813"/><text fill="#000000" font-family="sans-serif" font-size="13" lengthAdjust="spacingAndGlyphs" textLength="200" x="12" y="124.3481">Définition d'un contact principal</text><text fill="#000000" font-family="sans-serif" font-size="13" lengthAdjust="spacingAndGlyphs" textLength="193" x="12" y="139.481">et de contact(s) secondaire(s)</text><ellipse cx="433.25" cy="461.2813" fill="none" rx="10" ry="10" style="stroke: #000000; stroke-width: 1.0;"/><ellipse cx="433.75" cy="461.7813" fill="#000000" rx="6" ry="6" style="stroke: none; stroke-width: 1.0;"/><rect fill="#F8F8F8" height="33.9688" rx="12.5" ry="12.5" style="stroke: #383838; stroke-width: 1.5;" width="217" x="325" y="194.2813"/><text fill="#000000" font-family="sans-serif" font-size="12" lengthAdjust="spacingAndGlyphs" textLength="197" x="335" y="215.4199">Consulter le détail d'un contact</text><rect fill="#F8F8F8" height="33.9688" rx="12.5" ry="12.5" style="stroke: #383838; stroke-width: 1.5;" width="135" x="226" y="282.2813"/><text fill="#000000" font-family="sans-serif" font-size="12" lengthAdjust="spacingAndGlyphs" textLength="115" x="236" y="303.4199">Annuler le contact</text><rect fill="#F8F8F8" height="33.9688" rx="12.5" ry="12.5" style="stroke: #383838; stroke-width: 1.5;" width="222" x="141.75" y="370.2813"/><text fill="#000000" font-family="sans-serif" font-size="12" lengthAdjust="spacingAndGlyphs" textLength="202" x="151.75" y="391.4199">Enregistrer le motif d'annulation</text><rect fill="#F8F8F8" height="47.9375" rx="12.5" ry="12.5" style="stroke: #383838; stroke-width: 1.5;" width="99" x="384" y="363.2813"/><text fill="#000000" font-family="sans-serif" font-size="12" lengthAdjust="spacingAndGlyphs" textLength="79" x="394" y="384.4199">Prendre RDV</text><text fill="#000000" font-family="sans-serif" font-size="12" lengthAdjust="spacingAndGlyphs" textLength="39" x="414" y="398.3887">(CU 6)</text><rect fill="#F8F8F8" height="47.9375" rx="12.5" ry="12.5" style="stroke: #383838; stroke-width: 1.5;" width="119" x="503" y="363.2813"/><text fill="#000000" font-family="sans-serif" font-size="12" lengthAdjust="spacingAndGlyphs" textLength="99" x="513" y="384.4199">Preparer le RDV</text><text fill="#000000" font-family="sans-serif" font-size="12" lengthAdjust="spacingAndGlyphs" textLength="39" x="543" y="398.3887">(CU 8)</text><rect fill="#F8F8F8" height="47.9375" rx="12.5" ry="12.5" style="stroke: #383838; stroke-width: 1.5;" width="120" x="571.75" y="275.2813"/><text fill="#000000" font-family="sans-serif" font-size="12" lengthAdjust="spacingAndGlyphs" textLength="100" x="581.75" y="296.4199">Conduire le RDV</text><text fill="#000000" font-family="sans-serif" font-size="12" lengthAdjust="spacingAndGlyphs" textLength="39" x="612.25" y="310.3887">(CU 9)</text><path d="M420.25,64.5632 C420.25,74.7842 420.25,91.5553 420.25,105.0372 " fill="none" style="stroke: #383838; stroke-width: 1.0;"/><polygon fill="#383838" points="420.25,110.2093,424.25,101.2093,420.25,105.2093,416.25,101.2093,420.25,110.2093" style="stroke: #383838; stroke-width: 1.0;"/><path d="M360.914,144.2863 C316.388,156.2963 254.706,172.9343 204.417,186.4993 " fill="none" style="stroke: #383838; stroke-width: 1.0;"/><polygon fill="#383838" points="199.586,187.8023,209.3173,189.3196,204.4134,186.4997,207.2332,181.5958,199.586,187.8023" style="stroke: #383838; stroke-width: 1.0;"/><path d="M109.851,235.4713 C100.0352,276.6573 86.7368,362.7843 131.25,411.2813 C170.402,453.9374 361.893,459.4775 417.861,460.1824 " fill="none" style="stroke: #383838; stroke-width: 1.0;"/><polygon fill="#383838" points="423.136,460.2393,414.18,456.1418,418.1363,460.185,414.0931,464.1413,423.136,460.2393" style="stroke: #383838; stroke-width: 1.0;"/><path d="M422.818,144.4823 C424.83,157.1733 427.647,174.9423 429.847,188.8163 " fill="none" style="stroke: #383838; stroke-width: 1.0;"/><polygon fill="#383838" points="430.687,194.1143,433.2282,184.5989,429.904,189.1759,425.3269,185.8517,430.687,194.1143" style="stroke: #383838; stroke-width: 1.0;"/><path d="M406.917,228.4573 C383.354,242.9313 348.799,264.1583 323.981,279.4033 " fill="none" style="stroke: #383838; stroke-width: 1.0;"/><polygon fill="#383838" points="319.465,282.1783,329.2275,280.8768,323.7256,279.5616,325.0408,274.0597,319.465,282.1783" style="stroke: #383838; stroke-width: 1.0;"/><path d="M285.538,316.4573 C278.953,330.2713 269.435,350.2343 262.262,365.2803 " fill="none" style="stroke: #383838; stroke-width: 1.0;"/><polygon fill="#383838" points="259.927,370.1783,267.4099,363.7746,262.0781,365.6646,260.1881,360.3329,259.927,370.1783" style="stroke: #383838; stroke-width: 1.0;"/><path d="M433.25,228.3393 C433.25,257.8483 433.25,321.0493 433.25,357.9323 " fill="none" style="stroke: #383838; stroke-width: 1.0;"/><polygon fill="#383838" points="433.25,363.1753,437.25,354.1753,433.25,358.1753,429.25,354.1753,433.25,363.1753" style="stroke: #383838; stroke-width: 1.0;"/><path d="M445.155,228.3393 C467.211,258.0902 514.658,322.0873 541.901,358.8333 " fill="none" style="stroke: #383838; stroke-width: 1.0;"/><polygon fill="#383838" points="545.12,363.1753,542.9727,353.5633,542.142,359.1589,536.5465,358.3282,545.12,363.1753" style="stroke: #383838; stroke-width: 1.0;"/><path d="M470.492,228.4573 C499.427,241.0253 540.082,258.6833 573.267,273.0963 " fill="none" style="stroke: #383838; stroke-width: 1.0;"/><polygon fill="#383838" points="578.106,275.1983,571.4441,267.9443,573.5198,273.2066,568.2575,275.2823,578.106,275.1983" style="stroke: #383838; stroke-width: 1.0;"/><path d="M292.87,404.4394 C333.128,420.4538 392.537,444.0861 419.291,454.7285 " fill="none" style="stroke: #383838; stroke-width: 1.0;"/><polygon fill="#383838" points="424.191,456.6776,417.3075,449.6337,419.5453,454.8291,414.3498,457.0669,424.191,456.6776" style="stroke: #383838; stroke-width: 1.0;"/><path d="M433.25,411.4589 C433.25,422.8358 433.25,436.1781 433.25,446.0371 " fill="none" style="stroke: #383838; stroke-width: 1.0;"/><polygon fill="#383838" points="433.25,451.1213,437.25,442.1213,433.25,446.1213,429.25,442.1213,433.25,451.1213" style="stroke: #383838; stroke-width: 1.0;"/><path d="M520.724,411.4589 C494.871,425.8882 463.354,443.4789 446.09,453.115 " fill="none" style="stroke: #383838; stroke-width: 1.0;"/><polygon fill="#383838" points="441.615,455.6127,451.4232,454.7186,445.9809,453.1756,447.5239,447.7332,441.615,455.6127" style="stroke: #383838; stroke-width: 1.0;"/><path d="M638.797,323.3423 C645.251,347.8393 650.729,386.3939 631.25,411.2813 C608.43,440.4377 490.779,454.656 448.447,458.8864 " fill="none" style="stroke: #383838; stroke-width: 1.0;"/><polygon fill="#383838" points="443.216,459.3962,452.5611,462.5056,448.1925,458.9119,451.7863,454.5432,443.216,459.3962" style="stroke: #383838; stroke-width: 1.0;"/></g></svg>