<?xml version="1.0" encoding="UTF-8" standalone="yes"?><svg xmlns="http://www.w3.org/2000/svg" xmlns:xlink="http://www.w3.org/1999/xlink" height="622px" style="width:357px;height:622px;" version="1.1" viewBox="0 0 357 622" width="357px"><defs/><g><text fill="#000000" font-family="sans-serif" font-size="20" lengthAdjust="spacingAndGlyphs" textLength="303" x="35.5" y="18.5645">Diagramme d'activité du CU 6</text><text fill="#000000" font-family="sans-serif" font-size="20" lengthAdjust="spacingAndGlyphs" textLength="123" x="125.5" y="41.8457">Partie Client</text><line style="stroke: none; stroke-width: 1.0;" x1="35.5" x2="338.5" y1="51.5625" y2="51.5625"/><polygon fill="#ECECEC" points="6,64.5625,6,89.6953,217,89.6953,217,74.5625,207,64.5625,6,64.5625" style="stroke: #383838; stroke-width: 1.0;"/><polygon fill="#ECECEC" points="6,64.5625,6,89.6953,217,89.6953,217,82.5625,237.091,77.0625,217,74.5625,217,74.5625,207,64.5625,6,64.5625" style="stroke: #383838; stroke-width: 1.0;"/><line style="stroke: #383838; stroke-width: 1.0;" x1="207" x2="207" y1="64.5625" y2="74.5625"/><line style="stroke: #383838; stroke-width: 1.0;" x1="217" x2="207" y1="74.5625" y2="74.5625"/><text fill="#000000" font-family="sans-serif" font-size="13" lengthAdjust="spacingAndGlyphs" textLength="190" x="12" y="81.6294">Acteur : Un agent de l'agence</text><ellipse cx="247.5" cy="77.0625" fill="#000000" rx="10" ry="10" style="stroke: none; stroke-width: 1.0;"/><rect fill="#F8F8F8" height="33.9688" rx="12.5" ry="12.5" style="stroke: #383838; stroke-width: 1.5;" width="145" x="175" y="129.5625"/><text fill="#000000" font-family="sans-serif" font-size="12" lengthAdjust="spacingAndGlyphs" textLength="125" x="185" y="150.7012">Rechercher le client</text><rect fill="#F8F8F8" height="47.9375" rx="12.5" ry="12.5" style="stroke: #383838; stroke-width: 1.5;" width="195" x="150" y="203.5625"/><text fill="#000000" font-family="sans-serif" font-size="12" lengthAdjust="spacingAndGlyphs" textLength="175" x="160" y="224.7012">Consulter son dossier client</text><text fill="#000000" font-family="sans-serif" font-size="12" lengthAdjust="spacingAndGlyphs" textLength="47" x="224" y="238.6699">(CU 10)</text><rect fill="#F8F8F8" height="33.9688" rx="12.5" ry="12.5" style="stroke: #383838; stroke-width: 1.5;" width="202" x="146.5" y="291.5625"/><text fill="#000000" font-family="sans-serif" font-size="12" lengthAdjust="spacingAndGlyphs" textLength="182" x="156.5" y="312.7012">Voir les plages agenda libres</text><rect fill="#F8F8F8" height="33.9688" rx="12.5" ry="12.5" style="stroke: #383838; stroke-width: 1.5;" width="184" x="155.5" y="365.5625"/><text fill="#000000" font-family="sans-serif" font-size="12" lengthAdjust="spacingAndGlyphs" textLength="164" x="165.5" y="386.7012">Créer un nouveau contact</text><rect fill="#F8F8F8" height="33.9688" rx="12.5" ry="12.5" style="stroke: #383838; stroke-width: 1.5;" width="217" x="139" y="439.5625"/><text fill="#000000" font-family="sans-serif" font-size="12" lengthAdjust="spacingAndGlyphs" textLength="197" x="149" y="460.7012">Créer un rendez-vous spontané</text><rect fill="#F8F8F8" height="47.9375" rx="12.5" ry="12.5" style="stroke: #383838; stroke-width: 1.5;" width="217" x="139" y="513.5625"/><text fill="#000000" font-family="sans-serif" font-size="12" lengthAdjust="spacingAndGlyphs" textLength="90" x="202.5" y="534.7012">Editer la lettre</text><text fill="#000000" font-family="sans-serif" font-size="12" lengthAdjust="spacingAndGlyphs" textLength="197" x="149" y="548.6699">de confirmation du rendez-vous</text><ellipse cx="247.5" cy="611.5625" fill="none" rx="10" ry="10" style="stroke: #000000; stroke-width: 1.0;"/><ellipse cx="248" cy="612.0625" fill="#000000" rx="6" ry="6" style="stroke: none; stroke-width: 1.0;"/><path d="M247.5,87.1655 C247.5,96.6125 247.5,111.7225 247.5,124.2055 " fill="none" style="stroke: #383838; stroke-width: 1.0;"/><polygon fill="#383838" points="247.5,129.3705,251.5,120.3705,247.5,124.3705,243.5,120.3705,247.5,129.3705" style="stroke: #383838; stroke-width: 1.0;"/><path d="M247.5,163.9315 C247.5,173.8075 247.5,186.6635 247.5,198.1555 " fill="none" style="stroke: #383838; stroke-width: 1.0;"/><polygon fill="#383838" points="247.5,203.3235,251.5,194.3235,247.5,198.3235,243.5,194.3235,247.5,203.3235" style="stroke: #383838; stroke-width: 1.0;"/><path d="M247.5,251.8375 C247.5,262.7895 247.5,275.7555 247.5,286.4235 " fill="none" style="stroke: #383838; stroke-width: 1.0;"/><polygon fill="#383838" points="247.5,291.4565,251.5,282.4565,247.5,286.4565,243.5,282.4565,247.5,291.4565" style="stroke: #383838; stroke-width: 1.0;"/><path d="M247.5,325.9005 C247.5,336.0265 247.5,349.1465 247.5,360.1055 " fill="none" style="stroke: #383838; stroke-width: 1.0;"/><polygon fill="#383838" points="247.5,365.2895,251.5,356.2895,247.5,360.2895,243.5,356.2895,247.5,365.2895" style="stroke: #383838; stroke-width: 1.0;"/><path d="M247.5,399.9005 C247.5,410.0265 247.5,423.1465 247.5,434.1055 " fill="none" style="stroke: #383838; stroke-width: 1.0;"/><polygon fill="#383838" points="247.5,439.2895,251.5,430.2895,247.5,434.2895,243.5,430.2895,247.5,439.2895" style="stroke: #383838; stroke-width: 1.0;"/><path d="M247.5,473.9315 C247.5,483.8075 247.5,496.6635 247.5,508.1555 " fill="none" style="stroke: #383838; stroke-width: 1.0;"/><polygon fill="#383838" points="247.5,513.3235,251.5,504.3235,247.5,508.3235,243.5,504.3235,247.5,513.3235" style="stroke: #383838; stroke-width: 1.0;"/><path d="M247.5,561.7401 C247.5,573.117 247.5,586.4593 247.5,596.3183 " fill="none" style="stroke: #383838; stroke-width: 1.0;"/><polygon fill="#383838" points="247.5,601.4025,251.5,592.4025,247.5,596.4025,243.5,592.4025,247.5,601.4025" style="stroke: #383838; stroke-width: 1.0;"/></g></svg>