<?xml version="1.0" encoding="UTF-8" standalone="yes"?><svg xmlns="http://www.w3.org/2000/svg" xmlns:xlink="http://www.w3.org/1999/xlink" height="622px" style="width:509px;height:622px;" version="1.1" viewBox="0 0 509 622" width="509px"><defs/><g><text fill="#000000" font-family="sans-serif" font-size="20" lengthAdjust="spacingAndGlyphs" textLength="303" x="112" y="18.5645">Diagramme d'activité du CU 2</text><line style="stroke: none; stroke-width: 1.0;" x1="112" x2="415" y1="28.2813" y2="28.2813"/><polygon fill="#ECECEC" points="142,41.2813,142,66.4141,340,66.4141,340,51.2813,330,41.2813,142,41.2813" style="stroke: #383838; stroke-width: 1.0;"/><polygon fill="#ECECEC" points="142,41.2813,142,66.4141,340,66.4141,340,59.2813,359.694,53.7813,340,51.2813,340,51.2813,330,41.2813,142,41.2813" style="stroke: #383838; stroke-width: 1.0;"/><line style="stroke: #383838; stroke-width: 1.0;" x1="330" x2="330" y1="41.2813" y2="51.2813"/><line style="stroke: #383838; stroke-width: 1.0;" x1="340" x2="330" y1="51.2813" y2="51.2813"/><text fill="#000000" font-family="sans-serif" font-size="13" lengthAdjust="spacingAndGlyphs" textLength="177" x="148" y="58.3481">Acteur : Le chef de l'agence</text><ellipse cx="370" cy="53.7813" fill="#000000" rx="10" ry="10" style="stroke: none; stroke-width: 1.0;"/><rect fill="#F8F8F8" height="47.9375" rx="12.5" ry="12.5" style="stroke: #383838; stroke-width: 1.5;" width="211" x="264.5" y="106.2813"/><text fill="#000000" font-family="sans-serif" font-size="12" lengthAdjust="spacingAndGlyphs" textLength="191" x="274.5" y="127.4199">Consulter la liste des contacts</text><text fill="#000000" font-family="sans-serif" font-size="12" lengthAdjust="spacingAndGlyphs" textLength="119" x="312.5" y="141.3887">prévus de l'agence</text><rect fill="#F8F8F8" height="33.9688" rx="12.5" ry="12.5" style="stroke: #383838; stroke-width: 1.5;" width="217" x="261.5" y="194.2813"/><text fill="#000000" font-family="sans-serif" font-size="12" lengthAdjust="spacingAndGlyphs" textLength="197" x="271.5" y="215.4199">Consulter le détail d'un contact</text><rect fill="#F8F8F8" height="33.9688" rx="12.5" ry="12.5" style="stroke: #383838; stroke-width: 1.5;" width="255" x="242.5" y="268.2813"/><text fill="#000000" font-family="sans-serif" font-size="12" lengthAdjust="spacingAndGlyphs" textLength="235" x="252.5" y="289.4199">Consulter le dossier client du contact</text><rect fill="#F8F8F8" height="33.9688" rx="12.5" ry="12.5" style="stroke: #383838; stroke-width: 1.5;" width="277" x="231.5" y="342.2813"/><text fill="#000000" font-family="sans-serif" font-size="12" lengthAdjust="spacingAndGlyphs" textLength="257" x="241.5" y="363.4199">Consulter la liste des agents de l'agence</text><rect fill="#F8F8F8" height="33.9688" rx="12.5" ry="12.5" style="stroke: #383838; stroke-width: 1.5;" width="206" x="267" y="416.2813"/><text fill="#000000" font-family="sans-serif" font-size="12" lengthAdjust="spacingAndGlyphs" textLength="186" x="277" y="437.4199">Consulter le détail d'un agent</text><rect fill="#F8F8F8" height="33.9688" rx="12.5" ry="12.5" style="stroke: #383838; stroke-width: 1.5;" width="272" x="234" y="508.7813"/><text fill="#000000" font-family="sans-serif" font-size="12" lengthAdjust="spacingAndGlyphs" textLength="252" x="244" y="529.9199">Affecter le contact à l'agent sélectionné</text><polygon fill="#ECECEC" points="6,490.2813,6,560.8125,214,560.8125,214,500.2813,204,490.2813,6,490.2813" style="stroke: #383838; stroke-width: 1.0;"/><polygon fill="#ECECEC" points="6,490.2813,6,560.8125,214,560.8125,214,529.7813,233.893,525.7813,214,521.7813,214,500.2813,204,490.2813,6,490.2813" style="stroke: #383838; stroke-width: 1.0;"/><line style="stroke: #383838; stroke-width: 1.0;" x1="204" x2="204" y1="490.2813" y2="500.2813"/><line style="stroke: #383838; stroke-width: 1.0;" x1="214" x2="204" y1="500.2813" y2="500.2813"/><text fill="#000000" font-family="sans-serif" font-size="13" lengthAdjust="spacingAndGlyphs" textLength="174" x="12" y="507.3481">Mise à jour des indicateurs,</text><text fill="#000000" font-family="sans-serif" font-size="13" lengthAdjust="spacingAndGlyphs" textLength="162" x="12" y="522.481">dont un nouvel indicateur</text><text fill="#000000" font-family="sans-serif" font-size="13" lengthAdjust="spacingAndGlyphs" textLength="187" x="12" y="537.6138">correspondant au nombre de</text><text fill="#000000" font-family="sans-serif" font-size="13" lengthAdjust="spacingAndGlyphs" textLength="169" x="12" y="552.7466">contacts affectés à l'agent</text><ellipse cx="370" cy="611.2813" fill="none" rx="10" ry="10" style="stroke: #000000; stroke-width: 1.0;"/><ellipse cx="370.5" cy="611.7813" fill="#000000" rx="6" ry="6" style="stroke: none; stroke-width: 1.0;"/><path d="M370,63.9162 C370,73.1092 370,87.7632 370,100.8692 " fill="none" style="stroke: #383838; stroke-width: 1.0;"/><polygon fill="#383838" points="370,105.9902,374,96.9902,370,100.9902,366,96.9902,370,105.9902" style="stroke: #383838; stroke-width: 1.0;"/><path d="M370,154.5562 C370,165.5082 370,178.4742 370,189.1423 " fill="none" style="stroke: #383838; stroke-width: 1.0;"/><polygon fill="#383838" points="370,194.1753,374,185.1753,370,189.1753,366,185.1753,370,194.1753" style="stroke: #383838; stroke-width: 1.0;"/><path d="M370,228.6193 C370,238.7453 370,251.8653 370,262.8243 " fill="none" style="stroke: #383838; stroke-width: 1.0;"/><polygon fill="#383838" points="370,268.0083,374,259.0083,370,263.0083,366,259.0083,370,268.0083" style="stroke: #383838; stroke-width: 1.0;"/><path d="M370,302.6193 C370,312.7453 370,325.8653 370,336.8243 " fill="none" style="stroke: #383838; stroke-width: 1.0;"/><polygon fill="#383838" points="370,342.0083,374,333.0083,370,337.0083,366,333.0083,370,342.0083" style="stroke: #383838; stroke-width: 1.0;"/><path d="M370,376.6192 C370,386.7453 370,399.8653 370,410.8243 " fill="none" style="stroke: #383838; stroke-width: 1.0;"/><polygon fill="#383838" points="370,416.0083,374,407.0083,370,411.0083,366,407.0083,370,416.0083" style="stroke: #383838; stroke-width: 1.0;"/><path d="M370,450.4613 C370,465.2603 370,487.2553 370,503.4793 " fill="none" style="stroke: #383838; stroke-width: 1.0;"/><polygon fill="#383838" points="370,508.7413,374,499.7413,370,503.7413,366,499.7413,370,508.7413" style="stroke: #383838; stroke-width: 1.0;"/><path d="M370,542.8809 C370,558.2445 370,581.1741 370,595.929 " fill="none" style="stroke: #383838; stroke-width: 1.0;"/><polygon fill="#383838" points="370,600.966,374,591.966,370,595.966,366,591.966,370,600.966" style="stroke: #383838; stroke-width: 1.0;"/></g></svg>