<?xml version="1.0" encoding="UTF-8" standalone="yes"?><svg xmlns="http://www.w3.org/2000/svg" xmlns:xlink="http://www.w3.org/1999/xlink" height="624px" style="width:509px;height:624px;" version="1.1" viewBox="0 0 509 624" width="509px"><defs/><g><text fill="#000000" font-family="sans-serif" font-size="20" lengthAdjust="spacingAndGlyphs" textLength="303" x="111.5" y="18.5645">Diagramme d'activité du CU 2</text><line style="stroke: none; stroke-width: 1.0;" x1="111.5" x2="414.5" y1="28.2813" y2="28.2813"/><polygon fill="#ECECEC" points="142,41.7813,142,66.9141,340,66.9141,340,51.7813,330,41.7813,142,41.7813" style="stroke: #383838; stroke-width: 1.0;"/><polygon fill="#ECECEC" points="142,41.7813,142,66.9141,340,66.9141,340,59.7813,359.694,54.2813,340,51.7813,340,51.7813,330,41.7813,142,41.7813" style="stroke: #383838; stroke-width: 1.0;"/><line style="stroke: #383838; stroke-width: 1.0;" x1="330" x2="330" y1="41.7813" y2="51.7813"/><line style="stroke: #383838; stroke-width: 1.0;" x1="340" x2="330" y1="51.7813" y2="51.7813"/><text fill="#000000" font-family="sans-serif" font-size="13" lengthAdjust="spacingAndGlyphs" textLength="177" x="148" y="58.8481">Acteur : Le chef de l'agence</text><ellipse cx="370" cy="54.2813" fill="#000000" rx="10" ry="10" style="stroke: none; stroke-width: 1.0;"/><rect fill="#F8F8F8" height="47.9375" rx="12.5" ry="12.5" style="stroke: #383838; stroke-width: 1.5;" width="211" x="264.75" y="107.2813"/><text fill="#000000" font-family="sans-serif" font-size="12" lengthAdjust="spacingAndGlyphs" textLength="191" x="274.75" y="128.4199">Consulter la liste des contacts</text><text fill="#000000" font-family="sans-serif" font-size="12" lengthAdjust="spacingAndGlyphs" textLength="119" x="312.75" y="142.3887">prévus de l'agence</text><rect fill="#F8F8F8" height="33.9688" rx="12.5" ry="12.5" style="stroke: #383838; stroke-width: 1.5;" width="217" x="261.75" y="195.2813"/><text fill="#000000" font-family="sans-serif" font-size="12" lengthAdjust="spacingAndGlyphs" textLength="197" x="271.75" y="216.4199">Consulter le détail d'un contact</text><rect fill="#F8F8F8" height="33.9688" rx="12.5" ry="12.5" style="stroke: #383838; stroke-width: 1.5;" width="255" x="242.75" y="269.2813"/><text fill="#000000" font-family="sans-serif" font-size="12" lengthAdjust="spacingAndGlyphs" textLength="235" x="252.75" y="290.4199">Consulter le dossier client du contact</text><rect fill="#F8F8F8" height="33.9688" rx="12.5" ry="12.5" style="stroke: #383838; stroke-width: 1.5;" width="277" x="231.75" y="343.2813"/><text fill="#000000" font-family="sans-serif" font-size="12" lengthAdjust="spacingAndGlyphs" textLength="257" x="241.75" y="364.4199">Consulter la liste des agents de l'agence</text><rect fill="#F8F8F8" height="33.9688" rx="12.5" ry="12.5" style="stroke: #383838; stroke-width: 1.5;" width="206" x="267" y="417.2813"/><text fill="#000000" font-family="sans-serif" font-size="12" lengthAdjust="spacingAndGlyphs" textLength="186" x="277" y="438.4199">Consulter le détail d'un agent</text><rect fill="#F8F8F8" height="33.9688" rx="12.5" ry="12.5" style="stroke: #383838; stroke-width: 1.5;" width="272" x="234" y="510.2813"/><text fill="#000000" font-family="sans-serif" font-size="12" lengthAdjust="spacingAndGlyphs" textLength="252" x="244" y="531.4199">Affecter le contact à l'agent sélectionné</text><polygon fill="#ECECEC" points="6,491.7813,6,562.3125,214,562.3125,214,501.7813,204,491.7813,6,491.7813" style="stroke: #383838; stroke-width: 1.0;"/><polygon fill="#ECECEC" points="6,491.7813,6,562.3125,214,562.3125,214,531.2813,233.893,527.2813,214,523.2813,214,501.7813,204,491.7813,6,491.7813" style="stroke: #383838; stroke-width: 1.0;"/><line style="stroke: #383838; stroke-width: 1.0;" x1="204" x2="204" y1="491.7813" y2="501.7813"/><line style="stroke: #383838; stroke-width: 1.0;" x1="214" x2="204" y1="501.7813" y2="501.7813"/><text fill="#000000" font-family="sans-serif" font-size="13" lengthAdjust="spacingAndGlyphs" textLength="174" x="12" y="508.8481">Mise à jour des indicateurs,</text><text fill="#000000" font-family="sans-serif" font-size="13" lengthAdjust="spacingAndGlyphs" textLength="162" x="12" y="523.981">dont un nouvel indicateur</text><text fill="#000000" font-family="sans-serif" font-size="13" lengthAdjust="spacingAndGlyphs" textLength="187" x="12" y="539.1138">correspondant au nombre de</text><text fill="#000000" font-family="sans-serif" font-size="13" lengthAdjust="spacingAndGlyphs" textLength="169" x="12" y="554.2466">contacts affectés à l'agent</text><ellipse cx="370" cy="613.2813" fill="none" rx="10" ry="10" style="stroke: #000000; stroke-width: 1.0;"/><ellipse cx="370.5" cy="613.7813" fill="#000000" rx="6" ry="6" style="stroke: none; stroke-width: 1.0;"/><path d="M370,64.4773 C370,73.8012 370,88.7052 370,101.9733 " fill="none" style="stroke: #383838; stroke-width: 1.0;"/><polygon fill="#383838" points="370,107.1543,374,98.1543,370,102.1543,366,98.1543,370,107.1543" style="stroke: #383838; stroke-width: 1.0;"/><path d="M370,155.5562 C370,166.5082 370,179.4742 370,190.1423 " fill="none" style="stroke: #383838; stroke-width: 1.0;"/><polygon fill="#383838" points="370,195.1753,374,186.1753,370,190.1753,366,186.1753,370,195.1753" style="stroke: #383838; stroke-width: 1.0;"/><path d="M370,229.6193 C370,239.7453 370,252.8653 370,263.8243 " fill="none" style="stroke: #383838; stroke-width: 1.0;"/><polygon fill="#383838" points="370,269.0083,374,260.0083,370,264.0083,366,260.0083,370,269.0083" style="stroke: #383838; stroke-width: 1.0;"/><path d="M370,303.6193 C370,313.7453 370,326.8653 370,337.8243 " fill="none" style="stroke: #383838; stroke-width: 1.0;"/><polygon fill="#383838" points="370,343.0083,374,334.0083,370,338.0083,366,334.0083,370,343.0083" style="stroke: #383838; stroke-width: 1.0;"/><path d="M370,377.6192 C370,387.7453 370,400.8653 370,411.8243 " fill="none" style="stroke: #383838; stroke-width: 1.0;"/><polygon fill="#383838" points="370,417.0083,374,408.0083,370,412.0083,366,408.0083,370,417.0083" style="stroke: #383838; stroke-width: 1.0;"/><path d="M370,451.5503 C370,466.4313 370,488.5483 370,504.8623 " fill="none" style="stroke: #383838; stroke-width: 1.0;"/><polygon fill="#383838" points="370,510.1533,374,501.1533,370,505.1533,366,501.1533,370,510.1533" style="stroke: #383838; stroke-width: 1.0;"/><path d="M370,544.4773 C370,559.9329 370,582.9998 370,597.8431 " fill="none" style="stroke: #383838; stroke-width: 1.0;"/><polygon fill="#383838" points="370,602.9102,374,593.9102,370,597.9102,366,593.9102,370,602.9102" style="stroke: #383838; stroke-width: 1.0;"/></g></svg>