<?xml version="1.0" encoding="UTF-8" standalone="yes"?><svg xmlns="http://www.w3.org/2000/svg" xmlns:xlink="http://www.w3.org/1999/xlink" height="291px" style="width:225px;height:291px;" version="1.1" viewBox="0 0 225 291" width="225px"><defs/><g><text fill="#000000" font-family="sans-serif" font-size="20" lengthAdjust="spacingAndGlyphs" textLength="177" x="28.75" y="28.5645">Identifier le client</text><line style="stroke: none; stroke-width: 1.0;" x1="28.75" x2="205.75" y1="38.2813" y2="38.2813"/><ellipse cx="84.5" cy="53.2813" fill="#000000" rx="10" ry="10" style="stroke: none; stroke-width: 1.0;"/><polygon fill="#F8F8F8" points="39,83.2813,130,83.2813,142,95.2813,130,107.2813,39,107.2813,27,95.2813,39,83.2813" style="stroke: #383838; stroke-width: 1.5;"/><text fill="#000000" font-family="sans-serif" font-size="11" lengthAdjust="spacingAndGlyphs" textLength="91" x="39" y="99.0894">Client identifié ?</text><text fill="#000000" font-family="sans-serif" font-size="11" lengthAdjust="spacingAndGlyphs" textLength="17" x="10" y="92.687">oui</text><text fill="#000000" font-family="sans-serif" font-size="11" lengthAdjust="spacingAndGlyphs" textLength="21" x="142" y="92.687">non</text><rect fill="#F8F8F8" height="33.9688" rx="12.5" ry="12.5" style="stroke: #383838; stroke-width: 1.5;" width="145" x="79.5" y="117.2813"/><text fill="#000000" font-family="sans-serif" font-size="12" lengthAdjust="spacingAndGlyphs" textLength="125" x="89.5" y="138.4199">Rechercher le client</text><rect fill="#F8F8F8" height="33.9688" rx="12.5" ry="12.5" style="stroke: #383838; stroke-width: 1.5;" width="100" x="102" y="186.25"/><text fill="#000000" font-family="sans-serif" font-size="12" lengthAdjust="spacingAndGlyphs" textLength="80" x="112" y="207.3887">Choisir client</text><polygon fill="#F8F8F8" points="84.5,226.2188,96.5,238.2188,84.5,250.2188,72.5,238.2188,84.5,226.2188" style="stroke: #383838; stroke-width: 1.5;"/><ellipse cx="84.5" cy="280.2188" fill="none" rx="10" ry="10" style="stroke: #000000; stroke-width: 1.0;"/><ellipse cx="85" cy="280.7188" fill="#000000" rx="6" ry="6" style="stroke: none; stroke-width: 1.0;"/><line style="stroke: #383838; stroke-width: 1.5;" x1="152" x2="152" y1="151.25" y2="186.25"/><polygon fill="#383838" points="148,176.25,152,186.25,156,176.25,152,180.25" style="stroke: #383838; stroke-width: 1.0;"/><line style="stroke: #383838; stroke-width: 1.5;" x1="27" x2="17" y1="95.2813" y2="95.2813"/><polygon fill="#383838" points="13,156.75,17,166.75,21,156.75,17,160.75" style="stroke: #383838; stroke-width: 1.5;"/><line style="stroke: #383838; stroke-width: 1.5;" x1="17" x2="17" y1="95.2813" y2="238.2188"/><line style="stroke: #383838; stroke-width: 1.5;" x1="17" x2="72.5" y1="238.2188" y2="238.2188"/><polygon fill="#383838" points="62.5,234.2188,72.5,238.2188,62.5,242.2188,66.5,238.2188" style="stroke: #383838; stroke-width: 1.0;"/><line style="stroke: #383838; stroke-width: 1.5;" x1="142" x2="152" y1="95.2813" y2="95.2813"/><line style="stroke: #383838; stroke-width: 1.5;" x1="152" x2="152" y1="95.2813" y2="117.2813"/><polygon fill="#383838" points="148,107.2813,152,117.2813,156,107.2813,152,111.2813" style="stroke: #383838; stroke-width: 1.0;"/><line style="stroke: #383838; stroke-width: 1.5;" x1="152" x2="152" y1="220.2188" y2="238.2188"/><line style="stroke: #383838; stroke-width: 1.5;" x1="152" x2="96.5" y1="238.2188" y2="238.2188"/><polygon fill="#383838" points="106.5,234.2188,96.5,238.2188,106.5,242.2188,102.5,238.2188" style="stroke: #383838; stroke-width: 1.0;"/><line style="stroke: #383838; stroke-width: 1.5;" x1="84.5" x2="84.5" y1="63.2813" y2="83.2813"/><polygon fill="#383838" points="80.5,73.2813,84.5,83.2813,88.5,73.2813,84.5,77.2813" style="stroke: #383838; stroke-width: 1.0;"/><line style="stroke: #383838; stroke-width: 1.5;" x1="84.5" x2="84.5" y1="250.2188" y2="270.2188"/><polygon fill="#383838" points="80.5,260.2188,84.5,270.2188,88.5,260.2188,84.5,264.2188" style="stroke: #383838; stroke-width: 1.0;"/></g></svg>