<?xml version="1.0" encoding="UTF-8" standalone="yes"?><svg xmlns="http://www.w3.org/2000/svg" xmlns:xlink="http://www.w3.org/1999/xlink" height="821px" style="width:980px;height:821px;" version="1.1" viewBox="0 0 980 821" width="980px"><defs/><g><text fill="#000000" font-family="sans-serif" font-size="20" lengthAdjust="spacingAndGlyphs" textLength="214" x="389" y="18.5645">Diagramme d'état de</text><text fill="#000000" font-family="sans-serif" font-size="20" lengthAdjust="spacingAndGlyphs" textLength="231" x="383.5" y="41.8457">l'Object Métier Contact</text><line style="stroke: none; stroke-width: 1.0;" x1="383.5" x2="614.5" y1="51.5625" y2="51.5625"/><rect fill="#F8F8F8" height="401" rx="12.5" ry="12.5" style="stroke: #383838; stroke-width: 1.5;" width="712" x="30" y="202.5625"/><rect fill="#FFFFFF" height="368.7031" rx="12.5" ry="12.5" style="stroke: #FFFFFF; stroke-width: 1.0;" width="706" x="33" y="231.8594"/><line style="stroke: #383838; stroke-width: 1.5;" x1="30" x2="742" y1="228.8594" y2="228.8594"/><text fill="#000000" font-family="sans-serif" font-size="14" lengthAdjust="spacingAndGlyphs" textLength="112" x="330" y="219.5576">EN TRAITEMENT</text><rect fill="#F8F8F8" height="50" rx="12.5" ry="12.5" style="stroke: #383838; stroke-width: 1.5;" width="85" x="249.5" y="387.5625"/><line style="stroke: #383838; stroke-width: 1.5;" x1="249.5" x2="334.5" y1="413.8594" y2="413.8594"/><text fill="#000000" font-family="sans-serif" font-size="14" lengthAdjust="spacingAndGlyphs" textLength="65" x="259.5" y="405.5576">RDV PRIS</text><ellipse cx="89" cy="270.5625" fill="#000000" rx="10" ry="10" style="stroke: none; stroke-width: 1.0;"/><rect fill="#F8F8F8" height="50" rx="12.5" ry="12.5" style="stroke: #383838; stroke-width: 1.5;" width="82" x="349" y="245.5625"/><line style="stroke: #383838; stroke-width: 1.5;" x1="349" x2="431" y1="271.8594" y2="271.8594"/><text fill="#000000" font-family="sans-serif" font-size="14" lengthAdjust="spacingAndGlyphs" textLength="62" x="359" y="263.5576">AFFECTE</text><rect fill="#F8F8F8" height="50" rx="12.5" ry="12.5" style="stroke: #383838; stroke-width: 1.5;" width="85" x="151.5" y="529.5625"/><line style="stroke: #383838; stroke-width: 1.5;" x1="151.5" x2="236.5" y1="555.8594" y2="555.8594"/><text fill="#000000" font-family="sans-serif" font-size="14" lengthAdjust="spacingAndGlyphs" textLength="65" x="161.5" y="547.5576">PREPARE</text><ellipse cx="192" cy="91.5625" fill="#000000" rx="10" ry="10" style="stroke: none; stroke-width: 1.0;"/><rect fill="#F8F8F8" height="50" rx="12.5" ry="12.5" style="stroke: #383838; stroke-width: 1.5;" width="67" x="356.5" y="66.5625"/><line style="stroke: #383838; stroke-width: 1.5;" x1="356.5" x2="423.5" y1="92.8594" y2="92.8594"/><text fill="#000000" font-family="sans-serif" font-size="14" lengthAdjust="spacingAndGlyphs" textLength="47" x="366.5" y="84.5576">PREVU</text><rect fill="#F8F8F8" height="50" rx="12.5" ry="12.5" style="stroke: #383838; stroke-width: 1.5;" width="76" x="518" y="689.5625"/><line style="stroke: #383838; stroke-width: 1.5;" x1="518" x2="594" y1="715.8594" y2="715.8594"/><text fill="#000000" font-family="sans-serif" font-size="14" lengthAdjust="spacingAndGlyphs" textLength="56" x="528" y="707.5576">REALISE</text><rect fill="#F8F8F8" height="50" rx="12.5" ry="12.5" style="stroke: #383838; stroke-width: 1.5;" width="75" x="765.5" y="387.5625"/><line style="stroke: #383838; stroke-width: 1.5;" x1="765.5" x2="840.5" y1="413.8594" y2="413.8594"/><text fill="#000000" font-family="sans-serif" font-size="14" lengthAdjust="spacingAndGlyphs" textLength="55" x="775.5" y="405.5576">ANNULE</text><ellipse cx="731" cy="810.5625" fill="none" rx="10" ry="10" style="stroke: #000000; stroke-width: 1.0;"/><ellipse cx="731.5" cy="811.0625" fill="#000000" rx="6" ry="6" style="stroke: none; stroke-width: 1.0;"/><path d="M202.091,91.5625 C229.181,91.5625 304.598,91.5625 351.238,91.5625 " fill="none" style="stroke: #383838; stroke-width: 1.0;"/><polygon fill="#383838" points="356.498,91.5625,347.498,87.5625,351.498,91.5625,347.498,95.5625,356.498,91.5625" style="stroke: #383838; stroke-width: 1.0;"/><text fill="#000000" font-family="sans-serif" font-size="13" lengthAdjust="spacingAndGlyphs" textLength="118" x="220.25" y="69.6294">[CU1] : génération</text><text fill="#000000" font-family="sans-serif" font-size="13" lengthAdjust="spacingAndGlyphs" textLength="95" x="231.75" y="84.7622">par le système</text><path d="M88.473,280.7215 C87.9963,298.1095 89.5447,336.0815 110,357.5625 C144.765,394.0715 202.96,406.2305 244.175,410.1035 " fill="none" style="stroke: #383838; stroke-width: 1.0;"/><polygon fill="#383838" points="249.367,410.5565,240.7484,405.79,244.3859,410.1222,240.0536,413.7597,249.367,410.5565" style="stroke: #383838; stroke-width: 1.0;"/><text fill="#000000" font-family="sans-serif" font-size="13" lengthAdjust="spacingAndGlyphs" textLength="161" x="111" y="346.1294">[CU6] : contact spontané</text><path d="M390,116.8025 C390,148.8865 390,205.4175 390,239.9805 " fill="none" style="stroke: #383838; stroke-width: 1.0;"/><polygon fill="#383838" points="390,245.3315,394,236.3315,390,240.3315,386,236.3315,390,245.3315" style="stroke: #383838; stroke-width: 1.0;"/><text fill="#000000" font-family="sans-serif" font-size="13" lengthAdjust="spacingAndGlyphs" textLength="117" x="397" y="159.6294">[CU2] : affectation</text><text fill="#000000" font-family="sans-serif" font-size="13" lengthAdjust="spacingAndGlyphs" textLength="129" x="391" y="174.7622">par le chef d'agence</text><path d="M348.797,282.3785 C326.939,290.4435 301.981,303.9025 289,325.5625 C278.908,342.4015 279.967,364.6135 283.389,382.2445 " fill="none" style="stroke: #383838; stroke-width: 1.0;"/><polygon fill="#383838" points="284.516,387.5585,286.5622,377.9245,283.4789,382.6672,278.7362,379.5839,284.516,387.5585" style="stroke: #383838; stroke-width: 1.0;"/><text fill="#000000" font-family="sans-serif" font-size="13" lengthAdjust="spacingAndGlyphs" textLength="155" x="290" y="338.6294">[CU6] : rendez-vous pris</text><text fill="#000000" font-family="sans-serif" font-size="13" lengthAdjust="spacingAndGlyphs" textLength="68" x="333.5" y="353.7622">par l'agent</text><path d="M334.532,410.0085 C371.795,406.1205 423.95,393.9945 450,357.5625 C463.898,338.1255 447.773,316.0135 428.758,299.0785 " fill="none" style="stroke: #383838; stroke-width: 1.0;"/><polygon fill="#383838" points="424.925,295.7625,429.1162,304.6751,428.707,299.033,434.3491,298.6238,424.925,295.7625" style="stroke: #383838; stroke-width: 1.0;"/><text fill="#000000" font-family="sans-serif" font-size="13" lengthAdjust="spacingAndGlyphs" textLength="219" x="456" y="338.6294">[CU7] : annulation du rendez-vous</text><text fill="#000000" font-family="sans-serif" font-size="13" lengthAdjust="spacingAndGlyphs" textLength="68" x="531.5" y="353.7622">par l'agent</text><path d="M275.153,437.6295 C258.185,461.8695 232.006,499.2685 213.995,524.9975 " fill="none" style="stroke: #383838; stroke-width: 1.0;"/><polygon fill="#383838" points="210.955,529.3415,219.3932,524.2625,213.8224,525.2454,212.8395,519.6746,210.955,529.3415" style="stroke: #383838; stroke-width: 1.0;"/><text fill="#000000" font-family="sans-serif" font-size="13" lengthAdjust="spacingAndGlyphs" textLength="123" x="252" y="480.6294">[CU8] : préparation</text><text fill="#000000" font-family="sans-serif" font-size="13" lengthAdjust="spacingAndGlyphs" textLength="68" x="279.5" y="495.7622">par l'agent</text><path d="M236.644,541.6175 C255.379,540.4725 271.5,544.7875 271.5,554.5625 C271.5,563.4215 258.26,567.7955 241.833,567.6855 " fill="none" style="stroke: #383838; stroke-width: 1.0;"/><polygon fill="#383838" points="236.644,567.5075,245.5016,571.8137,241.6411,567.6789,245.7758,563.8184,236.644,567.5075" style="stroke: #383838; stroke-width: 1.0;"/><text fill="#000000" font-family="sans-serif" font-size="13" lengthAdjust="spacingAndGlyphs" textLength="219" x="277.5" y="551.6294">[CU7] : annulation du rendez-vous</text><text fill="#000000" font-family="sans-serif" font-size="13" lengthAdjust="spacingAndGlyphs" textLength="68" x="353" y="566.7622">par l'agent</text><path d="M334.716,426.3085 C382.414,442.6775 458.711,475.5995 503,529.5625 C540.138,574.8125 551.262,644.8725 554.587,684.1995 " fill="none" style="stroke: #383838; stroke-width: 1.0;"/><polygon fill="#383838" points="554.99,689.3055,558.2705,680.019,554.5971,684.321,550.2952,680.6476,554.99,689.3055" style="stroke: #383838; stroke-width: 1.0;"/><text fill="#000000" font-family="sans-serif" font-size="13" lengthAdjust="spacingAndGlyphs" textLength="192" x="544" y="551.6294">[CU9] : conduite de l'entretien</text><text fill="#000000" font-family="sans-serif" font-size="13" lengthAdjust="spacingAndGlyphs" textLength="68" x="606" y="566.7622">par l'agent</text><path d="M220.237,579.7505 C247.299,603.4375 291.691,638.8965 336,659.5625 C394,686.6145 467.157,701.0935 512.766,708.0545 " fill="none" style="stroke: #383838; stroke-width: 1.0;"/><polygon fill="#383838" points="517.914,708.8255,509.6065,703.5354,512.9693,708.0842,508.4204,711.447,517.914,708.8255" style="stroke: #383838; stroke-width: 1.0;"/><text fill="#000000" font-family="sans-serif" font-size="13" lengthAdjust="spacingAndGlyphs" textLength="192" x="337" y="640.6294">[CU9] : conduite de l'entretien</text><text fill="#000000" font-family="sans-serif" font-size="13" lengthAdjust="spacingAndGlyphs" textLength="68" x="399" y="655.7622">par l'agent</text><path d="M741.884,287.5585 C753.303,310.7285 774.63,353.9995 788.824,382.7995 " fill="none" style="stroke: #383838; stroke-width: 1.0;"/><polygon fill="#383838" points="791.161,387.5405,790.7691,377.6994,788.9501,383.0559,783.5937,381.2369,791.161,387.5405" style="stroke: #383838; stroke-width: 1.0;"/><text fill="#000000" font-family="sans-serif" font-size="13" lengthAdjust="spacingAndGlyphs" textLength="204" x="775" y="338.6294">[CU4] : annulation de l'entretien</text><text fill="#000000" font-family="sans-serif" font-size="13" lengthAdjust="spacingAndGlyphs" textLength="68" x="843" y="353.7622">par l'agent</text><path d="M594.404,736.1912 C633.618,757.2544 692.282,788.7652 718.062,802.6129 " fill="none" style="stroke: #383838; stroke-width: 1.0;"/><polygon fill="#383838" points="722.481,804.9865,716.4448,797.2042,718.0761,802.6208,712.6596,804.2521,722.481,804.9865" style="stroke: #383838; stroke-width: 1.0;"/><path d="M798.604,437.7375 C785.058,512.2445 744.222,736.8434 733.566,795.4505 " fill="none" style="stroke: #383838; stroke-width: 1.0;"/><polygon fill="#383838" points="732.631,800.5933,738.1765,792.454,733.5255,795.674,730.3055,791.0229,732.631,800.5933" style="stroke: #383838; stroke-width: 1.0;"/></g></svg>