<?xml version="1.0" encoding="UTF-8" standalone="yes"?><svg xmlns="http://www.w3.org/2000/svg" xmlns:xlink="http://www.w3.org/1999/xlink" height="832px" style="width:985px;height:832px;" version="1.1" viewBox="0 0 985 832" width="985px"><defs/><g><text fill="#000000" font-family="sans-serif" font-size="20" lengthAdjust="spacingAndGlyphs" textLength="214" x="392" y="18.5645">Diagramme d'état de</text><text fill="#000000" font-family="sans-serif" font-size="20" lengthAdjust="spacingAndGlyphs" textLength="231" x="386.5" y="41.8457">l'Object Métier Contact</text><line style="stroke: none; stroke-width: 1.0;" x1="386.5" x2="617.5" y1="51.5625" y2="51.5625"/><rect fill="#F8F8F8" height="406" rx="12.5" ry="12.5" style="stroke: #383838; stroke-width: 1.5;" width="715" x="30" y="205.5625"/><rect fill="#FFFFFF" height="373.7031" rx="12.5" ry="12.5" style="stroke: #FFFFFF; stroke-width: 1.0;" width="709" x="33" y="234.8594"/><line style="stroke: #383838; stroke-width: 1.5;" x1="30" x2="745" y1="231.8594" y2="231.8594"/><text fill="#000000" font-family="sans-serif" font-size="14" lengthAdjust="spacingAndGlyphs" textLength="112" x="331" y="222.5576">EN TRAITEMENT</text><rect fill="#F8F8F8" height="50" rx="12.5" ry="12.5" style="stroke: #383838; stroke-width: 1.5;" width="85" x="250.75" y="393.5625"/><line style="stroke: #383838; stroke-width: 1.5;" x1="250.75" x2="335.75" y1="419.8594" y2="419.8594"/><text fill="#000000" font-family="sans-serif" font-size="14" lengthAdjust="spacingAndGlyphs" textLength="65" x="260.75" y="411.5576">RDV PRIS</text><ellipse cx="89" cy="274.5625" fill="#000000" rx="10" ry="10" style="stroke: none; stroke-width: 1.0;"/><rect fill="#F8F8F8" height="50" rx="12.5" ry="12.5" style="stroke: #383838; stroke-width: 1.5;" width="82" x="351" y="249.5625"/><line style="stroke: #383838; stroke-width: 1.5;" x1="351" x2="433" y1="275.8594" y2="275.8594"/><text fill="#000000" font-family="sans-serif" font-size="14" lengthAdjust="spacingAndGlyphs" textLength="62" x="361" y="267.5576">AFFECTE</text><rect fill="#F8F8F8" height="50" rx="12.5" ry="12.5" style="stroke: #383838; stroke-width: 1.5;" width="85" x="152.75" y="537.5625"/><line style="stroke: #383838; stroke-width: 1.5;" x1="152.75" x2="237.75" y1="563.8594" y2="563.8594"/><text fill="#000000" font-family="sans-serif" font-size="14" lengthAdjust="spacingAndGlyphs" textLength="65" x="162.75" y="555.5576">PREPARE</text><ellipse cx="193" cy="92.5625" fill="#000000" rx="10" ry="10" style="stroke: none; stroke-width: 1.0;"/><rect fill="#F8F8F8" height="50" rx="12.5" ry="12.5" style="stroke: #383838; stroke-width: 1.5;" width="67" x="358.75" y="67.5625"/><line style="stroke: #383838; stroke-width: 1.5;" x1="358.75" x2="425.75" y1="93.8594" y2="93.8594"/><text fill="#000000" font-family="sans-serif" font-size="14" lengthAdjust="spacingAndGlyphs" textLength="47" x="368.75" y="85.5576">PREVU</text><rect fill="#F8F8F8" height="50" rx="12.5" ry="12.5" style="stroke: #383838; stroke-width: 1.5;" width="76" x="520" y="699.5625"/><line style="stroke: #383838; stroke-width: 1.5;" x1="520" x2="596" y1="725.8594" y2="725.8594"/><text fill="#000000" font-family="sans-serif" font-size="14" lengthAdjust="spacingAndGlyphs" textLength="56" x="530" y="717.5576">REALISE</text><rect fill="#F8F8F8" height="50" rx="12.5" ry="12.5" style="stroke: #383838; stroke-width: 1.5;" width="75" x="768.75" y="393.5625"/><line style="stroke: #383838; stroke-width: 1.5;" x1="768.75" x2="843.75" y1="419.8594" y2="419.8594"/><text fill="#000000" font-family="sans-serif" font-size="14" lengthAdjust="spacingAndGlyphs" textLength="55" x="778.75" y="411.5576">ANNULE</text><ellipse cx="734" cy="821.5625" fill="none" rx="10" ry="10" style="stroke: #000000; stroke-width: 1.0;"/><ellipse cx="734.5" cy="822.0625" fill="#000000" rx="6" ry="6" style="stroke: none; stroke-width: 1.0;"/><path d="M203.142,92.5625 C230.445,92.5625 306.591,92.5625 353.435,92.5625 " fill="none" style="stroke: #383838; stroke-width: 1.0;"/><polygon fill="#383838" points="358.716,92.5625,349.716,88.5625,353.716,92.5625,349.716,96.5625,358.716,92.5625" style="stroke: #383838; stroke-width: 1.0;"/><text fill="#000000" font-family="sans-serif" font-size="13" lengthAdjust="spacingAndGlyphs" textLength="118" x="221.25" y="69.6294">[CU1] : génération</text><text fill="#000000" font-family="sans-serif" font-size="13" lengthAdjust="spacingAndGlyphs" textLength="95" x="232.75" y="84.7622">par le système</text><path d="M88.2882,284.6495 C87.4317,302.2975 88.184,341.4145 109,363.5625 C144.165,400.9775 203.743,412.9095 245.556,416.4845 " fill="none" style="stroke: #383838; stroke-width: 1.0;"/><polygon fill="#383838" points="250.564,416.8805,241.9075,412.1832,245.5796,416.4862,241.2766,420.1583,250.564,416.8805" style="stroke: #383838; stroke-width: 1.0;"/><text fill="#000000" font-family="sans-serif" font-size="13" lengthAdjust="spacingAndGlyphs" textLength="161" x="110" y="350.6294">[CU6] : contact spontané</text><path d="M392,117.8385 C392,150.6735 392,209.1725 392,244.3665 " fill="none" style="stroke: #383838; stroke-width: 1.0;"/><polygon fill="#383838" points="392,249.3845,396,240.3845,392,244.3845,388,240.3845,392,249.3845" style="stroke: #383838; stroke-width: 1.0;"/><text fill="#000000" font-family="sans-serif" font-size="13" lengthAdjust="spacingAndGlyphs" textLength="117" x="399" y="161.1294">[CU2] : affectation</text><text fill="#000000" font-family="sans-serif" font-size="13" lengthAdjust="spacingAndGlyphs" textLength="129" x="393" y="176.2622">par le chef d'agence</text><path d="M350.922,286.0835 C328.729,294.0905 303.229,307.5905 290,329.5625 C279.477,347.0395 280.741,370.2095 284.362,388.3875 " fill="none" style="stroke: #383838; stroke-width: 1.0;"/><polygon fill="#383838" points="285.438,393.3735,287.4508,383.7325,284.3839,388.4859,279.6305,385.419,285.438,393.3735" style="stroke: #383838; stroke-width: 1.0;"/><text fill="#000000" font-family="sans-serif" font-size="13" lengthAdjust="spacingAndGlyphs" textLength="155" x="291" y="343.1294">[CU6] : rendez-vous pris</text><text fill="#000000" font-family="sans-serif" font-size="13" lengthAdjust="spacingAndGlyphs" textLength="68" x="334.5" y="358.2622">par l'agent</text><path d="M335.429,416.1315 C372.946,412.3425 425.683,400.2945 452,363.5625 C466.337,343.5525 449.538,320.5565 430.108,303.0915 " fill="none" style="stroke: #383838; stroke-width: 1.0;"/><polygon fill="#383838" points="426.195,299.6745,430.3409,308.6082,429.9604,302.9642,435.6044,302.5837,426.195,299.6745" style="stroke: #383838; stroke-width: 1.0;"/><text fill="#000000" font-family="sans-serif" font-size="13" lengthAdjust="spacingAndGlyphs" textLength="219" x="458" y="343.1294">[CU7] : annulation du rendez-vous</text><text fill="#000000" font-family="sans-serif" font-size="13" lengthAdjust="spacingAndGlyphs" textLength="68" x="533.5" y="358.2622">par l'agent</text><path d="M276.376,443.6505 C259.34,468.3345 232.855,506.7115 214.759,532.9325 " fill="none" style="stroke: #383838; stroke-width: 1.0;"/><polygon fill="#383838" points="211.706,537.3555,220.1106,532.2211,214.5464,533.2406,213.5268,527.6764,211.706,537.3555" style="stroke: #383838; stroke-width: 1.0;"/><text fill="#000000" font-family="sans-serif" font-size="13" lengthAdjust="spacingAndGlyphs" textLength="123" x="256" y="487.1294">[CU8] : préparation</text><text fill="#000000" font-family="sans-serif" font-size="13" lengthAdjust="spacingAndGlyphs" textLength="68" x="283.5" y="502.2622">par l'agent</text><path d="M237.369,549.2475 C255.983,548.0695 272,552.5075 272,562.5625 C272,571.6745 258.845,576.1735 242.524,576.0605 " fill="none" style="stroke: #383838; stroke-width: 1.0;"/><polygon fill="#383838" points="237.369,575.8775,246.2204,580.1964,242.3658,576.0561,246.5061,572.2015,237.369,575.8775" style="stroke: #383838; stroke-width: 1.0;"/><text fill="#000000" font-family="sans-serif" font-size="13" lengthAdjust="spacingAndGlyphs" textLength="219" x="278" y="559.1294">[CU7] : annulation du rendez-vous</text><text fill="#000000" font-family="sans-serif" font-size="13" lengthAdjust="spacingAndGlyphs" textLength="68" x="353.5" y="574.2622">par l'agent</text><path d="M335.494,432.5225 C383.392,449.2565 460.381,482.9065 505,537.5625 C542.493,583.4895 553.479,654.5485 556.688,694.2215 " fill="none" style="stroke: #383838; stroke-width: 1.0;"/><polygon fill="#383838" points="557.074,699.3705,560.3864,690.0954,556.6983,694.3846,552.409,690.6965,557.074,699.3705" style="stroke: #383838; stroke-width: 1.0;"/><text fill="#000000" font-family="sans-serif" font-size="13" lengthAdjust="spacingAndGlyphs" textLength="192" x="546" y="559.1294">[CU9] : conduite de l'entretien</text><text fill="#000000" font-family="sans-serif" font-size="13" lengthAdjust="spacingAndGlyphs" textLength="68" x="608" y="574.2622">par l'agent</text><path d="M220.642,587.7965 C247.584,611.9645 292.197,648.4455 337,669.5625 C395.139,696.9645 468.662,711.3495 514.52,718.1935 " fill="none" style="stroke: #383838; stroke-width: 1.0;"/><polygon fill="#383838" points="519.696,718.9515,511.3719,713.6876,514.7489,718.2258,510.2107,721.6029,519.696,718.9515" style="stroke: #383838; stroke-width: 1.0;"/><text fill="#000000" font-family="sans-serif" font-size="13" lengthAdjust="spacingAndGlyphs" textLength="192" x="338" y="649.1294">[CU9] : conduite de l'entretien</text><text fill="#000000" font-family="sans-serif" font-size="13" lengthAdjust="spacingAndGlyphs" textLength="68" x="400" y="664.2622">par l'agent</text><path d="M744.919,291.8605 C756.39,315.4665 777.803,359.5335 791.981,388.7125 " fill="none" style="stroke: #383838; stroke-width: 1.0;"/><polygon fill="#383838" points="794.315,393.5145,793.981,383.6713,792.1305,389.0169,786.7849,387.1665,794.315,393.5145" style="stroke: #383838; stroke-width: 1.0;"/><text fill="#000000" font-family="sans-serif" font-size="13" lengthAdjust="spacingAndGlyphs" textLength="204" x="780" y="343.1294">[CU4] : annulation de l'entretien</text><text fill="#000000" font-family="sans-serif" font-size="13" lengthAdjust="spacingAndGlyphs" textLength="68" x="848" y="358.2622">par l'agent</text><path d="M596.189,746.1761 C635.592,767.4446 694.861,799.4364 720.919,813.502 " fill="none" style="stroke: #383838; stroke-width: 1.0;"/><polygon fill="#383838" points="725.386,815.9131,719.3671,808.1174,720.9864,813.5376,715.5662,815.1569,725.386,815.9131" style="stroke: #383838; stroke-width: 1.0;"/><path d="M801.658,443.7435 C788.169,518.8735 747.25,746.766 736.571,806.2408 " fill="none" style="stroke: #383838; stroke-width: 1.0;"/><polygon fill="#383838" points="735.634,811.4599,741.1617,803.3085,736.5177,806.5386,733.2876,801.8946,735.634,811.4599" style="stroke: #383838; stroke-width: 1.0;"/></g></svg>