<?xml version="1.0" encoding="UTF-8" standalone="yes"?><svg xmlns="http://www.w3.org/2000/svg" xmlns:xlink="http://www.w3.org/1999/xlink" height="260px" style="width:657px;height:260px;" version="1.1" viewBox="0 0 657 260" width="657px"><defs/><g><text fill="#000000" font-family="sans-serif" font-size="20" lengthAdjust="spacingAndGlyphs" textLength="268" x="203.5" y="18.5645">Diagramme d'organisation</text><rect fill="#F8F8F8" height="36.2969" style="stroke: #383838; stroke-width: 1.5;" width="59" x="368.5" y="31.2813"/><text fill="#000000" font-family="sans-serif" font-size="14" lengthAdjust="spacingAndGlyphs" textLength="39" x="378.5" y="54.2764">Siège</text><rect fill="#F8F8F8" height="36.2969" style="stroke: #383838; stroke-width: 1.5;" width="148" x="115" y="127.2813"/><text fill="#000000" font-family="sans-serif" font-size="14" lengthAdjust="spacingAndGlyphs" textLength="128" x="125" y="150.2764">AgencePrincipale1</text><rect fill="#F8F8F8" height="36.2969" style="stroke: #383838; stroke-width: 1.5;" width="148" x="324" y="127.2813"/><text fill="#000000" font-family="sans-serif" font-size="14" lengthAdjust="spacingAndGlyphs" textLength="128" x="334" y="150.2764">AgencePrincipale2</text><rect fill="#F8F8F8" height="36.2969" style="stroke: #383838; stroke-width: 1.5;" width="149" x="507.5" y="127.2813"/><text fill="#000000" font-family="sans-serif" font-size="14" lengthAdjust="spacingAndGlyphs" textLength="129" x="517.5" y="150.2764">AgencePrincipaleN</text><rect fill="#F8F8F8" height="36.2969" style="stroke: #383838; stroke-width: 1.5;" width="82" x="6" y="223.2813"/><text fill="#000000" font-family="sans-serif" font-size="14" lengthAdjust="spacingAndGlyphs" textLength="62" x="16" y="246.2764">Agence1</text><rect fill="#F8F8F8" height="36.2969" style="stroke: #383838; stroke-width: 1.5;" width="82" x="123" y="223.2813"/><text fill="#000000" font-family="sans-serif" font-size="14" lengthAdjust="spacingAndGlyphs" textLength="62" x="133" y="246.2764">Agence2</text><rect fill="#F8F8F8" height="36.2969" style="stroke: #383838; stroke-width: 1.5;" width="82" x="240" y="223.2813"/><text fill="#000000" font-family="sans-serif" font-size="14" lengthAdjust="spacingAndGlyphs" textLength="62" x="250" y="246.2764">Agence3</text><rect fill="#F8F8F8" height="36.2969" style="stroke: #383838; stroke-width: 1.5;" width="82" x="357" y="223.2813"/><text fill="#000000" font-family="sans-serif" font-size="14" lengthAdjust="spacingAndGlyphs" textLength="62" x="367" y="246.2764">Agence4</text><rect fill="#F8F8F8" height="36.2969" style="stroke: #383838; stroke-width: 1.5;" width="83" x="474.5" y="223.2813"/><text fill="#000000" font-family="sans-serif" font-size="14" lengthAdjust="spacingAndGlyphs" textLength="63" x="484.5" y="246.2764">AgenceN</text><path d="M368.499,63.5503 C331.367,80.2503 267.533,108.9603 226.843,127.2612 " fill="none" style="stroke: #383838; stroke-width: 1.0;"/><path d="M398,67.5223 C398,84.4833 398,110.2263 398,127.1493 " fill="none" style="stroke: #383838; stroke-width: 1.0;"/><path d="M427.563,65.3843 C460.579,82.2503 513.907,109.4943 548.457,127.1453 " fill="none" style="stroke: #383838; stroke-width: 1.0; stroke-dasharray: 7.0,7.0;"/><path d="M163.285,163.304 C137.71,180.2341 98.6796,206.0709 73.0037,223.0675 " fill="none" style="stroke: #383838; stroke-width: 1.0;"/><path d="M184.415,163.5222 C179.904,180.483 173.057,206.2268 168.556,223.1496 " fill="none" style="stroke: #383838; stroke-width: 1.0;"/><path d="M205.874,163.5222 C222.474,180.483 247.67,206.2268 264.233,223.1496 " fill="none" style="stroke: #383838; stroke-width: 1.0;"/><path d="M398,163.5222 C398,180.483 398,206.2268 398,223.1496 " fill="none" style="stroke: #383838; stroke-width: 1.0;"/><path d="M419.369,163.304 C440.622,180.2341 473.055,206.0709 494.391,223.0675 " fill="none" style="stroke: #383838; stroke-width: 1.0; stroke-dasharray: 7.0,7.0;"/></g></svg>