<?xml version="1.0" encoding="UTF-8" standalone="yes"?><svg xmlns="http://www.w3.org/2000/svg" xmlns:xlink="http://www.w3.org/1999/xlink" height="1245px" style="width:2058px;height:1245px;" version="1.1" viewBox="0 0 2058 1245" width="2058px"><defs/><g><text fill="#000000" font-family="sans-serif" font-size="20" lengthAdjust="spacingAndGlyphs" textLength="418" x="826" y="28.5645">Diagramme de séquence détaillé du CU 7</text><line style="stroke: none; stroke-width: 1.0;" x1="826" x2="1244" y1="38.2813" y2="38.2813"/><text fill="#000000" font-family="sans-serif" font-size="20" lengthAdjust="spacingAndGlyphs" textLength="155" x="957.5" y="61.8457">Actions agenda</text><line style="stroke: none; stroke-width: 1.0;" x1="826" x2="1244" y1="71.5625" y2="71.5625"/><rect fill="#FFFFFF" height="972.5938" style="stroke: #000000; stroke-width: 1.0;" width="2044" x="13" y="179.8594"/><rect fill="#FFFFFF" height="309.5313" style="stroke: none; stroke-width: 1.0;" width="2044" x="13" y="446.3203"/><rect fill="#FFFFFF" height="190.7344" style="stroke: none; stroke-width: 1.0;" width="2044" x="13" y="755.8516"/><rect fill="#FFFFFF" height="205.8672" style="stroke: none; stroke-width: 1.0;" width="2044" x="13" y="946.5859"/><line style="stroke: #383838; stroke-width: 1.0; stroke-dasharray: 5.0,5.0;" x1="46" x2="46" y1="162.8594" y2="1169.4531"/><line style="stroke: #383838; stroke-width: 1.0; stroke-dasharray: 5.0,5.0;" x1="328" x2="328" y1="162.8594" y2="1169.4531"/><line style="stroke: #383838; stroke-width: 1.0; stroke-dasharray: 5.0,5.0;" x1="924.5" x2="924.5" y1="162.8594" y2="1169.4531"/><line style="stroke: #383838; stroke-width: 1.0; stroke-dasharray: 5.0,5.0;" x1="1467" x2="1467" y1="162.8594" y2="1169.4531"/><line style="stroke: #383838; stroke-width: 1.0; stroke-dasharray: 5.0,5.0;" x1="1768.5" x2="1768.5" y1="162.8594" y2="1169.4531"/><line style="stroke: #383838; stroke-width: 1.0; stroke-dasharray: 5.0,5.0;" x1="1932" x2="1932" y1="162.8594" y2="1169.4531"/><line style="stroke: #383838; stroke-width: 1.0; stroke-dasharray: 5.0,5.0;" x1="2008" x2="2008" y1="162.8594" y2="1169.4531"/><text fill="#000000" font-family="sans-serif" font-size="14" lengthAdjust="spacingAndGlyphs" textLength="41" x="23" y="159.5576">Agent</text><ellipse cx="46.5" cy="93.5625" fill="#F8F8F8" rx="8" ry="8" style="stroke: #383838; stroke-width: 2.0;"/><path d="M46.5,101.5625 L46.5,128.5625 M33.5,109.5625 L59.5,109.5625 M46.5,128.5625 L33.5,143.5625 M46.5,128.5625 L59.5,143.5625 " fill="#F8F8F8" style="stroke: #383838; stroke-width: 2.0;"/><text fill="#000000" font-family="sans-serif" font-size="14" lengthAdjust="spacingAndGlyphs" textLength="41" x="23" y="1181.4482">Agent</text><ellipse cx="46.5" cy="1194.75" fill="#F8F8F8" rx="8" ry="8" style="stroke: #383838; stroke-width: 2.0;"/><path d="M46.5,1202.75 L46.5,1229.75 M33.5,1210.75 L59.5,1210.75 M46.5,1229.75 L33.5,1244.75 M46.5,1229.75 L59.5,1244.75 " fill="#F8F8F8" style="stroke: #383838; stroke-width: 2.0;"/><rect fill="#F8F8F8" height="30.2969" style="stroke: #383838; stroke-width: 1.0;" width="39" x="309" y="131.5625"/><text fill="#000000" font-family="sans-serif" font-size="14" lengthAdjust="spacingAndGlyphs" textLength="25" x="316" y="151.5576">IHM</text><rect fill="#F8F8F8" height="30.2969" style="stroke: #383838; stroke-width: 1.0;" width="39" x="309" y="1168.4531"/><text fill="#000000" font-family="sans-serif" font-size="14" lengthAdjust="spacingAndGlyphs" textLength="25" x="316" y="1188.4482">IHM</text><rect fill="#F8F8F8" height="30.2969" style="stroke: #383838; stroke-width: 1.0;" width="44" x="902.5" y="131.5625"/><text fill="#000000" font-family="sans-serif" font-size="14" lengthAdjust="spacingAndGlyphs" textLength="30" x="909.5" y="151.5576">SMA</text><rect fill="#F8F8F8" height="30.2969" style="stroke: #383838; stroke-width: 1.0;" width="44" x="902.5" y="1168.4531"/><text fill="#000000" font-family="sans-serif" font-size="14" lengthAdjust="spacingAndGlyphs" textLength="30" x="909.5" y="1188.4482">SMA</text><rect fill="#F8F8F8" height="30.2969" style="stroke: #383838; stroke-width: 1.0;" width="67" x="1434" y="131.5625"/><text fill="#000000" font-family="sans-serif" font-size="14" lengthAdjust="spacingAndGlyphs" textLength="53" x="1441" y="151.5576">Agenda</text><rect fill="#F8F8F8" height="30.2969" style="stroke: #383838; stroke-width: 1.0;" width="67" x="1434" y="1168.4531"/><text fill="#000000" font-family="sans-serif" font-size="14" lengthAdjust="spacingAndGlyphs" textLength="53" x="1441" y="1188.4482">Agenda</text><rect fill="#F8F8F8" height="30.2969" style="stroke: #383838; stroke-width: 1.0;" width="68" x="1734.5" y="131.5625"/><text fill="#000000" font-family="sans-serif" font-size="14" lengthAdjust="spacingAndGlyphs" textLength="54" x="1741.5" y="151.5576">Contact</text><rect fill="#F8F8F8" height="30.2969" style="stroke: #383838; stroke-width: 1.0;" width="68" x="1734.5" y="1168.4531"/><text fill="#000000" font-family="sans-serif" font-size="14" lengthAdjust="spacingAndGlyphs" textLength="54" x="1741.5" y="1188.4482">Contact</text><rect fill="#F8F8F8" height="30.2969" style="stroke: #383838; stroke-width: 1.0;" width="53" x="1906" y="131.5625"/><text fill="#000000" font-family="sans-serif" font-size="14" lengthAdjust="spacingAndGlyphs" textLength="39" x="1913" y="151.5576">Client</text><rect fill="#F8F8F8" height="30.2969" style="stroke: #383838; stroke-width: 1.0;" width="53" x="1906" y="1168.4531"/><text fill="#000000" font-family="sans-serif" font-size="14" lengthAdjust="spacingAndGlyphs" textLength="39" x="1913" y="1188.4482">Client</text><rect fill="#F8F8F8" height="30.2969" style="stroke: #383838; stroke-width: 1.0;" width="78" x="1969" y="131.5625"/><text fill="#000000" font-family="sans-serif" font-size="14" lengthAdjust="spacingAndGlyphs" textLength="64" x="1976" y="151.5576">Structure</text><rect fill="#F8F8F8" height="30.2969" style="stroke: #383838; stroke-width: 1.0;" width="78" x="1969" y="1168.4531"/><text fill="#000000" font-family="sans-serif" font-size="14" lengthAdjust="spacingAndGlyphs" textLength="64" x="1976" y="1188.4482">Structure</text><rect fill="none" height="972.5938" style="stroke: #000000; stroke-width: 1.0;" width="2044" x="13" y="179.8594"/><polygon fill="#EEEEEE" points="13,179.8594,77,179.8594,77,186.8594,67,196.8594,13,196.8594,13,179.8594" style="stroke: #000000; stroke-width: 1.0;"/><text fill="#000000" font-family="sans-serif" font-size="13" font-weight="bold" lengthAdjust="spacingAndGlyphs" textLength="19" x="28" y="192.9263">alt</text><text fill="#000000" font-family="sans-serif" font-size="11" font-weight="bold" lengthAdjust="spacingAndGlyphs" textLength="98" x="92" y="192.0698">[réaffecter rdv]</text><polygon fill="#383838" points="316.5,213.9922,326.5,217.9922,316.5,221.9922,320.5,217.9922" style="stroke: #383838; stroke-width: 1.0;"/><line style="stroke: #383838; stroke-width: 1.0;" x1="46.5" x2="322.5" y1="217.9922" y2="217.9922"/><text fill="#000000" font-family="sans-serif" font-size="13" lengthAdjust="spacingAndGlyphs" textLength="183" x="53.5" y="213.0591">Sélectionner un rendez-vous</text><polygon fill="#383838" points="316.5,243.125,326.5,247.125,316.5,251.125,320.5,247.125" style="stroke: #383838; stroke-width: 1.0;"/><line style="stroke: #383838; stroke-width: 1.0;" x1="46.5" x2="322.5" y1="247.125" y2="247.125"/><text fill="#000000" font-family="sans-serif" font-size="13" lengthAdjust="spacingAndGlyphs" textLength="258" x="53.5" y="242.1919">Consulter la liste des agents de l'agence</text><polygon fill="#383838" points="912.5,287.2578,922.5,291.2578,912.5,295.2578,916.5,291.2578" style="stroke: #383838; stroke-width: 1.0;"/><line style="stroke: #383838; stroke-width: 1.0;" x1="328.5" x2="918.5" y1="291.2578" y2="291.2578"/><text fill="#000000" font-family="sans-serif" font-size="13" lengthAdjust="spacingAndGlyphs" textLength="202" x="335.5" y="271.3247">SM4 - ObtenirAgents(idAgence)</text><text fill="#000000" font-family="sans-serif" font-size="13" lengthAdjust="spacingAndGlyphs" textLength="143" x="335.5" y="286.4575">: Liste&lt;Agent&gt; (CU 2)</text><polygon fill="#383838" points="316.5,316.5234,326.5,320.5234,316.5,324.5234,320.5,320.5234" style="stroke: #383838; stroke-width: 1.0;"/><line style="stroke: #383838; stroke-width: 1.0;" x1="46.5" x2="322.5" y1="320.5234" y2="320.5234"/><text fill="#000000" font-family="sans-serif" font-size="13" lengthAdjust="spacingAndGlyphs" textLength="141" x="53.5" y="315.5903">Sélectionner un agent</text><polygon fill="#383838" points="316.5,345.6563,326.5,349.6563,316.5,353.6563,320.5,349.6563" style="stroke: #383838; stroke-width: 1.0;"/><line style="stroke: #383838; stroke-width: 1.0;" x1="46.5" x2="322.5" y1="349.6563" y2="349.6563"/><text fill="#000000" font-family="sans-serif" font-size="13" lengthAdjust="spacingAndGlyphs" textLength="96" x="53.5" y="344.7231">Reaffecter RDV</text><polygon fill="#383838" points="912.5,389.7891,922.5,393.7891,912.5,397.7891,916.5,393.7891" style="stroke: #383838; stroke-width: 1.0;"/><line style="stroke: #383838; stroke-width: 1.0;" x1="328.5" x2="918.5" y1="393.7891" y2="393.7891"/><text fill="#000000" font-family="sans-serif" font-size="13" lengthAdjust="spacingAndGlyphs" textLength="330" x="335.5" y="373.856">SM21 - ReaffecterRdv(idTacheElementaire, idAgent)</text><text fill="#000000" font-family="sans-serif" font-size="13" lengthAdjust="spacingAndGlyphs" textLength="34" x="335.5" y="388.9888">: void</text><polygon fill="#383838" points="1455.5,434.0547,1465.5,438.0547,1455.5,442.0547,1459.5,438.0547" style="stroke: #383838; stroke-width: 1.0;"/><line style="stroke: #383838; stroke-width: 1.0;" x1="924.5" x2="1461.5" y1="438.0547" y2="438.0547"/><text fill="#000000" font-family="sans-serif" font-size="13" lengthAdjust="spacingAndGlyphs" textLength="281" x="931.5" y="418.1216">ReaffecterRdv(idTacheElementaire, idAgent)</text><text fill="#000000" font-family="sans-serif" font-size="13" lengthAdjust="spacingAndGlyphs" textLength="34" x="931.5" y="433.2544">: void</text><line style="stroke: #000000; stroke-width: 1.0; stroke-dasharray: 2.0,2.0;" x1="13" x2="2057" y1="447.3203" y2="447.3203"/><text fill="#000000" font-family="sans-serif" font-size="11" font-weight="bold" lengthAdjust="spacingAndGlyphs" textLength="142" x="18" y="457.5308">[consulter détails rdv]</text><polygon fill="#383838" points="316.5,478.125,326.5,482.125,316.5,486.125,320.5,482.125" style="stroke: #383838; stroke-width: 1.0;"/><line style="stroke: #383838; stroke-width: 1.0;" x1="46.5" x2="322.5" y1="482.125" y2="482.125"/><text fill="#000000" font-family="sans-serif" font-size="13" lengthAdjust="spacingAndGlyphs" textLength="183" x="53.5" y="477.1919">Sélectionner un rendez-vous</text><polygon fill="#383838" points="316.5,507.2578,326.5,511.2578,316.5,515.2578,320.5,511.2578" style="stroke: #383838; stroke-width: 1.0;"/><line style="stroke: #383838; stroke-width: 1.0;" x1="46.5" x2="322.5" y1="511.2578" y2="511.2578"/><text fill="#000000" font-family="sans-serif" font-size="13" lengthAdjust="spacingAndGlyphs" textLength="138" x="53.5" y="506.3247">Consulter détails RDV</text><polygon fill="#383838" points="912.5,566.3906,922.5,570.3906,912.5,574.3906,916.5,570.3906" style="stroke: #383838; stroke-width: 1.0;"/><line style="stroke: #383838; stroke-width: 1.0;" x1="328.5" x2="918.5" y1="570.3906" y2="570.3906"/><text fill="#000000" font-family="sans-serif" font-size="13" lengthAdjust="spacingAndGlyphs" textLength="299" x="335.5" y="535.4575">SM22 - ObtenirDetailsRdv(idTacheElementaire)</text><text fill="#000000" font-family="sans-serif" font-size="13" lengthAdjust="spacingAndGlyphs" textLength="323" x="335.5" y="550.5903">: PlageAgenda, TacheElementaire, Agent, Contact,</text><text fill="#000000" font-family="sans-serif" font-size="13" lengthAdjust="spacingAndGlyphs" textLength="143" x="335.5" y="565.7231">MotifDeContact, Client</text><polygon fill="#383838" points="1455.5,610.7891,1465.5,614.7891,1455.5,618.7891,1459.5,614.7891" style="stroke: #383838; stroke-width: 1.0;"/><line style="stroke: #383838; stroke-width: 1.0;" x1="924.5" x2="1461.5" y1="614.7891" y2="614.7891"/><text fill="#000000" font-family="sans-serif" font-size="13" lengthAdjust="spacingAndGlyphs" textLength="250" x="931.5" y="594.856">ObtenirDetailsRdv(idTacheElementaire)</text><text fill="#000000" font-family="sans-serif" font-size="13" lengthAdjust="spacingAndGlyphs" textLength="396" x="931.5" y="609.9888">: PlageAgenda, TacheElementaire, idAgent, idContact, idClient</text><polygon fill="#383838" points="1756.5,655.0547,1766.5,659.0547,1756.5,663.0547,1760.5,659.0547" style="stroke: #383838; stroke-width: 1.0;"/><line style="stroke: #383838; stroke-width: 1.0;" x1="1467.5" x2="1762.5" y1="659.0547" y2="659.0547"/><text fill="#000000" font-family="sans-serif" font-size="13" lengthAdjust="spacingAndGlyphs" textLength="220" x="1474.5" y="639.1216">ObtenirResumeContact(idContact)</text><text fill="#000000" font-family="sans-serif" font-size="13" lengthAdjust="spacingAndGlyphs" textLength="277" x="1474.5" y="654.2544">: Contact, MotifDeContact, idClient, idAgent</text><polygon fill="#383838" points="1920.5,699.3203,1930.5,703.3203,1920.5,707.3203,1924.5,703.3203" style="stroke: #383838; stroke-width: 1.0;"/><line style="stroke: #383838; stroke-width: 1.0;" x1="1768.5" x2="1926.5" y1="703.3203" y2="703.3203"/><text fill="#000000" font-family="sans-serif" font-size="13" lengthAdjust="spacingAndGlyphs" textLength="140" x="1775.5" y="683.3872">ObtenirClient(idClient)</text><text fill="#000000" font-family="sans-serif" font-size="13" lengthAdjust="spacingAndGlyphs" textLength="44" x="1775.5" y="698.52">: Client</text><polygon fill="#383838" points="1996,743.5859,2006,747.5859,1996,751.5859,2000,747.5859" style="stroke: #383838; stroke-width: 1.0;"/><line style="stroke: #383838; stroke-width: 1.0;" x1="1768.5" x2="2002" y1="747.5859" y2="747.5859"/><text fill="#000000" font-family="sans-serif" font-size="13" lengthAdjust="spacingAndGlyphs" textLength="144" x="1775.5" y="727.6528">ObtenirAgent(idAgent)</text><text fill="#000000" font-family="sans-serif" font-size="13" lengthAdjust="spacingAndGlyphs" textLength="46" x="1775.5" y="742.7856">: Agent</text><line style="stroke: #000000; stroke-width: 1.0; stroke-dasharray: 2.0,2.0;" x1="13" x2="2057" y1="756.8516" y2="756.8516"/><text fill="#000000" font-family="sans-serif" font-size="11" font-weight="bold" lengthAdjust="spacingAndGlyphs" textLength="153" x="18" y="767.062">[modifier plage horaire]</text><polygon fill="#383838" points="316.5,787.6563,326.5,791.6563,316.5,795.6563,320.5,791.6563" style="stroke: #383838; stroke-width: 1.0;"/><line style="stroke: #383838; stroke-width: 1.0;" x1="46.5" x2="322.5" y1="791.6563" y2="791.6563"/><text fill="#000000" font-family="sans-serif" font-size="13" lengthAdjust="spacingAndGlyphs" textLength="183" x="53.5" y="786.7231">Sélectionner un rendez-vous</text><polygon fill="#383838" points="316.5,816.7891,326.5,820.7891,316.5,824.7891,320.5,820.7891" style="stroke: #383838; stroke-width: 1.0;"/><line style="stroke: #383838; stroke-width: 1.0;" x1="46.5" x2="322.5" y1="820.7891" y2="820.7891"/><text fill="#000000" font-family="sans-serif" font-size="13" lengthAdjust="spacingAndGlyphs" textLength="196" x="53.5" y="815.856">Sélectionner une plage horaire</text><polygon fill="#383838" points="316.5,845.9219,326.5,849.9219,316.5,853.9219,320.5,849.9219" style="stroke: #383838; stroke-width: 1.0;"/><line style="stroke: #383838; stroke-width: 1.0;" x1="46.5" x2="322.5" y1="849.9219" y2="849.9219"/><text fill="#000000" font-family="sans-serif" font-size="13" lengthAdjust="spacingAndGlyphs" textLength="138" x="53.5" y="844.9888">Modifier plage horaire</text><polygon fill="#383838" points="912.5,890.0547,922.5,894.0547,912.5,898.0547,916.5,894.0547" style="stroke: #383838; stroke-width: 1.0;"/><line style="stroke: #383838; stroke-width: 1.0;" x1="328.5" x2="918.5" y1="894.0547" y2="894.0547"/><text fill="#000000" font-family="sans-serif" font-size="13" lengthAdjust="spacingAndGlyphs" textLength="568" x="335.5" y="874.1216">SM23 - ModifierPlageHoraire(idPlageAgenda, datePlageHoraireDeb, datePlageHoraireFin)</text><text fill="#000000" font-family="sans-serif" font-size="13" lengthAdjust="spacingAndGlyphs" textLength="92" x="335.5" y="889.2544">: PlageAgenda</text><polygon fill="#383838" points="1455.5,934.3203,1465.5,938.3203,1455.5,942.3203,1459.5,938.3203" style="stroke: #383838; stroke-width: 1.0;"/><line style="stroke: #383838; stroke-width: 1.0;" x1="924.5" x2="1461.5" y1="938.3203" y2="938.3203"/><text fill="#000000" font-family="sans-serif" font-size="13" lengthAdjust="spacingAndGlyphs" textLength="519" x="931.5" y="918.3872">ModifierPlageHoraire(idPlageAgenda, datePlageHoraireDeb, datePlageHoraireFin)</text><text fill="#000000" font-family="sans-serif" font-size="13" lengthAdjust="spacingAndGlyphs" textLength="92" x="931.5" y="933.52">: PlageAgenda</text><line style="stroke: #000000; stroke-width: 1.0; stroke-dasharray: 2.0,2.0;" x1="13" x2="2057" y1="947.5859" y2="947.5859"/><text fill="#000000" font-family="sans-serif" font-size="11" font-weight="bold" lengthAdjust="spacingAndGlyphs" textLength="83" x="18" y="957.7964">[annuler rdv]</text><polygon fill="#383838" points="316.5,978.3906,326.5,982.3906,316.5,986.3906,320.5,982.3906" style="stroke: #383838; stroke-width: 1.0;"/><line style="stroke: #383838; stroke-width: 1.0;" x1="46.5" x2="322.5" y1="982.3906" y2="982.3906"/><text fill="#000000" font-family="sans-serif" font-size="13" lengthAdjust="spacingAndGlyphs" textLength="183" x="53.5" y="977.4575">Sélectionner un rendez-vous</text><polygon fill="#383838" points="316.5,1007.5234,326.5,1011.5234,316.5,1015.5234,320.5,1011.5234" style="stroke: #383838; stroke-width: 1.0;"/><line style="stroke: #383838; stroke-width: 1.0;" x1="46.5" x2="322.5" y1="1011.5234" y2="1011.5234"/><text fill="#000000" font-family="sans-serif" font-size="13" lengthAdjust="spacingAndGlyphs" textLength="80" x="53.5" y="1006.5903">Annuler RDV</text><polygon fill="#383838" points="912.5,1051.6563,922.5,1055.6563,912.5,1059.6563,916.5,1055.6563" style="stroke: #383838; stroke-width: 1.0;"/><line style="stroke: #383838; stroke-width: 1.0;" x1="328.5" x2="918.5" y1="1055.6563" y2="1055.6563"/><text fill="#000000" font-family="sans-serif" font-size="13" lengthAdjust="spacingAndGlyphs" textLength="326" x="335.5" y="1035.7231">SM24 - AnnulerRdv(idTacheElementaire, idContact)</text><text fill="#000000" font-family="sans-serif" font-size="13" lengthAdjust="spacingAndGlyphs" textLength="34" x="335.5" y="1050.856">: void</text><polygon fill="#383838" points="1455.5,1095.9219,1465.5,1099.9219,1455.5,1103.9219,1459.5,1099.9219" style="stroke: #383838; stroke-width: 1.0;"/><line style="stroke: #383838; stroke-width: 1.0;" x1="924.5" x2="1461.5" y1="1099.9219" y2="1099.9219"/><text fill="#000000" font-family="sans-serif" font-size="13" lengthAdjust="spacingAndGlyphs" textLength="277" x="931.5" y="1079.9888">AnnulerRdv(idTacheElementaire, idContact)</text><text fill="#000000" font-family="sans-serif" font-size="13" lengthAdjust="spacingAndGlyphs" textLength="34" x="931.5" y="1095.1216">: void</text><polygon fill="#383838" points="1756.5,1140.1875,1766.5,1144.1875,1756.5,1148.1875,1760.5,1144.1875" style="stroke: #383838; stroke-width: 1.0;"/><line style="stroke: #383838; stroke-width: 1.0;" x1="924.5" x2="1762.5" y1="1144.1875" y2="1144.1875"/><text fill="#000000" font-family="sans-serif" font-size="13" lengthAdjust="spacingAndGlyphs" textLength="277" x="931.5" y="1124.2544">AnnulerRdv(idTacheElementaire, idContact)</text><text fill="#000000" font-family="sans-serif" font-size="13" lengthAdjust="spacingAndGlyphs" textLength="34" x="931.5" y="1139.3872">: void</text></g></svg>