<?xml version="1.0" encoding="UTF-8" standalone="yes"?><svg xmlns="http://www.w3.org/2000/svg" xmlns:xlink="http://www.w3.org/1999/xlink" height="328px" style="width:879px;height:328px;" version="1.1" viewBox="0 0 879 328" width="879px"><defs/><g><text fill="#000000" font-family="sans-serif" font-size="20" lengthAdjust="spacingAndGlyphs" textLength="418" x="236.5" y="28.5645">Diagramme de séquence détaillé du CU 1</text><line style="stroke: none; stroke-width: 1.0;" x1="236.5" x2="654.5" y1="38.2813" y2="38.2813"/><rect fill="#FFFFFF" height="61.3984" style="stroke: #000000; stroke-width: 1.0;" width="411.5" x="466.5" y="203.4063"/><line style="stroke: #383838; stroke-width: 1.0; stroke-dasharray: 5.0,5.0;" x1="84" x2="84" y1="97.875" y2="281.8047"/><line style="stroke: #383838; stroke-width: 1.0; stroke-dasharray: 5.0,5.0;" x1="294" x2="294" y1="97.875" y2="281.8047"/><line style="stroke: #383838; stroke-width: 1.0; stroke-dasharray: 5.0,5.0;" x1="522.5" x2="522.5" y1="97.875" y2="281.8047"/><line style="stroke: #383838; stroke-width: 1.0; stroke-dasharray: 5.0,5.0;" x1="834" x2="834" y1="97.875" y2="281.8047"/><rect fill="#F8F8F8" height="46.5938" style="stroke: #383838; stroke-width: 1.0;" width="152" x="8" y="50.2813"/><text fill="#000000" font-family="sans-serif" font-size="14" lengthAdjust="spacingAndGlyphs" textLength="138" x="15" y="70.2764">Tâches quotidienne</text><text fill="#000000" font-family="sans-serif" font-size="14" lengthAdjust="spacingAndGlyphs" textLength="59" x="54.5" y="86.5732">système</text><rect fill="#F8F8F8" height="46.5938" style="stroke: #383838; stroke-width: 1.0;" width="152" x="8" y="280.8047"/><text fill="#000000" font-family="sans-serif" font-size="14" lengthAdjust="spacingAndGlyphs" textLength="138" x="15" y="300.7998">Tâches quotidienne</text><text fill="#000000" font-family="sans-serif" font-size="14" lengthAdjust="spacingAndGlyphs" textLength="59" x="54.5" y="317.0967">système</text><rect fill="#F8F8F8" height="30.2969" style="stroke: #383838; stroke-width: 1.0;" width="44" x="272" y="66.5781"/><text fill="#000000" font-family="sans-serif" font-size="14" lengthAdjust="spacingAndGlyphs" textLength="30" x="279" y="86.5732">SMA</text><rect fill="#F8F8F8" height="30.2969" style="stroke: #383838; stroke-width: 1.0;" width="44" x="272" y="280.8047"/><text fill="#000000" font-family="sans-serif" font-size="14" lengthAdjust="spacingAndGlyphs" textLength="30" x="279" y="300.7998">SMA</text><rect fill="#F8F8F8" height="30.2969" style="stroke: #383838; stroke-width: 1.0;" width="93" x="476.5" y="66.5781"/><text fill="#000000" font-family="sans-serif" font-size="14" lengthAdjust="spacingAndGlyphs" textLength="79" x="483.5" y="86.5732">Evenement</text><rect fill="#F8F8F8" height="30.2969" style="stroke: #383838; stroke-width: 1.0;" width="93" x="476.5" y="280.8047"/><text fill="#000000" font-family="sans-serif" font-size="14" lengthAdjust="spacingAndGlyphs" textLength="79" x="483.5" y="300.7998">Evenement</text><rect fill="#F8F8F8" height="30.2969" style="stroke: #383838; stroke-width: 1.0;" width="68" x="800" y="66.5781"/><text fill="#000000" font-family="sans-serif" font-size="14" lengthAdjust="spacingAndGlyphs" textLength="54" x="807" y="86.5732">Contact</text><rect fill="#F8F8F8" height="30.2969" style="stroke: #383838; stroke-width: 1.0;" width="68" x="800" y="280.8047"/><text fill="#000000" font-family="sans-serif" font-size="14" lengthAdjust="spacingAndGlyphs" textLength="54" x="807" y="300.7998">Contact</text><polygon fill="#383838" points="282,139.875,292,143.875,282,147.875,286,143.875" style="stroke: #383838; stroke-width: 1.0;"/><line style="stroke: #383838; stroke-width: 1.0;" x1="84" x2="288" y1="143.875" y2="143.875"/><text fill="#000000" font-family="sans-serif" font-size="13" lengthAdjust="spacingAndGlyphs" textLength="186" x="91" y="123.9419">SM1 - GenererContacts(void)</text><text fill="#000000" font-family="sans-serif" font-size="13" lengthAdjust="spacingAndGlyphs" textLength="34" x="91" y="139.0747">: void</text><polygon fill="#383838" points="511,184.1406,521,188.1406,511,192.1406,515,188.1406" style="stroke: #383838; stroke-width: 1.0;"/><line style="stroke: #383838; stroke-width: 1.0;" x1="294" x2="517" y1="188.1406" y2="188.1406"/><text fill="#000000" font-family="sans-serif" font-size="13" lengthAdjust="spacingAndGlyphs" textLength="205" x="301" y="168.2075">RecupererEvenementsATraiter()</text><text fill="#000000" font-family="sans-serif" font-size="13" lengthAdjust="spacingAndGlyphs" textLength="188" x="301" y="183.3403">: Liste&lt;Evenement, idClient&gt;</text><rect fill="none" height="61.3984" style="stroke: #000000; stroke-width: 1.0;" width="411.5" x="466.5" y="203.4063"/><polygon fill="#EEEEEE" points="466.5,203.4063,543.5,203.4063,543.5,210.4063,533.5,220.4063,466.5,220.4063,466.5,203.4063" style="stroke: #000000; stroke-width: 1.0;"/><text fill="#000000" font-family="sans-serif" font-size="13" font-weight="bold" lengthAdjust="spacingAndGlyphs" textLength="32" x="481.5" y="216.4731">loop</text><text fill="#000000" font-family="sans-serif" font-size="11" font-weight="bold" lengthAdjust="spacingAndGlyphs" textLength="269" x="558.5" y="215.6167">[tant qu'il reste des événements à traiter]</text><polygon fill="#383838" points="822,252.5391,832,256.5391,822,260.5391,826,256.5391" style="stroke: #383838; stroke-width: 1.0;"/><line style="stroke: #383838; stroke-width: 1.0;" x1="523" x2="828" y1="256.5391" y2="256.5391"/><text fill="#000000" font-family="sans-serif" font-size="13" lengthAdjust="spacingAndGlyphs" textLength="287" x="530" y="236.606">GenererContactPrevu(idClient, idEvenement)</text><text fill="#000000" font-family="sans-serif" font-size="13" lengthAdjust="spacingAndGlyphs" textLength="34" x="530" y="251.7388">: void</text></g></svg>