<?xml version="1.0" encoding="UTF-8" standalone="yes"?><svg xmlns="http://www.w3.org/2000/svg" xmlns:xlink="http://www.w3.org/1999/xlink" height="2920px" style="width:1730px;height:2920px;" version="1.1" viewBox="0 0 1730 2920" width="1730px"><defs/><g><text fill="#000000" font-family="sans-serif" font-size="20" lengthAdjust="spacingAndGlyphs" textLength="431" x="655.5" y="28.5645">Diagramme de séquence détaillé du CU 10</text><line style="stroke: none; stroke-width: 1.0;" x1="655.5" x2="1086.5" y1="38.2813" y2="38.2813"/><rect fill="#FFFFFF" height="1401.1016" style="stroke: #000000; stroke-width: 1.0;" width="1482" x="13" y="353.7734"/><rect fill="#FFFFFF" height="61.3984" style="stroke: #000000; stroke-width: 1.0;" width="353" x="1122" y="510.7031"/><rect fill="#FFFFFF" height="997.8438" style="stroke: #000000; stroke-width: 1.0;" width="1462" x="23" y="586.1016"/><rect fill="#FFFFFF" height="506.9219" style="stroke: none; stroke-width: 1.0;" width="1462" x="23" y="957.3594"/><rect fill="#FFFFFF" height="344.125" style="stroke: #000000; stroke-width: 1.0;" width="1442" x="33" y="1113.1563"/><rect fill="#FFFFFF" height="194.1953" style="stroke: none; stroke-width: 1.0;" width="1442" x="33" y="1263.0859"/><rect fill="#FFFFFF" height="119.6641" style="stroke: none; stroke-width: 1.0;" width="1462" x="23" y="1464.2813"/><rect fill="#FFFFFF" height="163.9297" style="stroke: none; stroke-width: 1.0;" width="1482" x="13" y="1590.9453"/><rect fill="#FFFFFF" height="790.5156" style="stroke: #000000; stroke-width: 1.0;" width="1535" x="23" y="1768.875"/><rect fill="#FFFFFF" height="61.3984" style="stroke: #000000; stroke-width: 1.0;" width="426" x="1122" y="1940.9375"/><rect fill="#FFFFFF" height="179.0625" style="stroke: #000000; stroke-width: 1.0;" width="1162" x="33" y="2016.3359"/><rect fill="#FFFFFF" height="149.9297" style="stroke: #000000; stroke-width: 1.0;" width="1515" x="33" y="2209.3984"/><rect fill="#FFFFFF" height="179.0625" style="stroke: #000000; stroke-width: 1.0;" width="1162" x="33" y="2373.3281"/><rect fill="#FFFFFF" height="253.5938" style="stroke: #000000; stroke-width: 1.0;" width="1696" x="33" y="2573.3906"/><line style="stroke: #383838; stroke-width: 1.0; stroke-dasharray: 5.0,5.0;" x1="66" x2="66" y1="129.5781" y2="2843.9844"/><line style="stroke: #383838; stroke-width: 1.0; stroke-dasharray: 5.0,5.0;" x1="277" x2="277" y1="129.5781" y2="2843.9844"/><line style="stroke: #383838; stroke-width: 1.0; stroke-dasharray: 5.0,5.0;" x1="752.5" x2="752.5" y1="129.5781" y2="2843.9844"/><line style="stroke: #383838; stroke-width: 1.0; stroke-dasharray: 5.0,5.0;" x1="1158" x2="1158" y1="129.5781" y2="2843.9844"/><line style="stroke: #383838; stroke-width: 1.0; stroke-dasharray: 5.0,5.0;" x1="1234" x2="1234" y1="129.5781" y2="2843.9844"/><line style="stroke: #383838; stroke-width: 1.0; stroke-dasharray: 5.0,5.0;" x1="1424" x2="1424" y1="129.5781" y2="2843.9844"/><line style="stroke: #383838; stroke-width: 1.0; stroke-dasharray: 5.0,5.0;" x1="1506" x2="1506" y1="129.5781" y2="2843.9844"/><line style="stroke: #383838; stroke-width: 1.0; stroke-dasharray: 5.0,5.0;" x1="1582" x2="1582" y1="129.5781" y2="2843.9844"/><line style="stroke: #383838; stroke-width: 1.0; stroke-dasharray: 5.0,5.0;" x1="1672" x2="1672" y1="129.5781" y2="2843.9844"/><text fill="#000000" font-family="sans-serif" font-size="14" lengthAdjust="spacingAndGlyphs" textLength="41" x="43" y="126.2764">Agent</text><ellipse cx="66.5" cy="60.2813" fill="#F8F8F8" rx="8" ry="8" style="stroke: #383838; stroke-width: 2.0;"/><path d="M66.5,68.2813 L66.5,95.2813 M53.5,76.2813 L79.5,76.2813 M66.5,95.2813 L53.5,110.2813 M66.5,95.2813 L79.5,110.2813 " fill="#F8F8F8" style="stroke: #383838; stroke-width: 2.0;"/><text fill="#000000" font-family="sans-serif" font-size="14" lengthAdjust="spacingAndGlyphs" textLength="41" x="43" y="2855.9795">Agent</text><ellipse cx="66.5" cy="2869.2813" fill="#F8F8F8" rx="8" ry="8" style="stroke: #383838; stroke-width: 2.0;"/><path d="M66.5,2877.2813 L66.5,2904.2813 M53.5,2885.2813 L79.5,2885.2813 M66.5,2904.2813 L53.5,2919.2813 M66.5,2904.2813 L79.5,2919.2813 " fill="#F8F8F8" style="stroke: #383838; stroke-width: 2.0;"/><rect fill="#F8F8F8" height="30.2969" style="stroke: #383838; stroke-width: 1.0;" width="39" x="258" y="98.2813"/><text fill="#000000" font-family="sans-serif" font-size="14" lengthAdjust="spacingAndGlyphs" textLength="25" x="265" y="118.2764">IHM</text><rect fill="#F8F8F8" height="30.2969" style="stroke: #383838; stroke-width: 1.0;" width="39" x="258" y="2842.9844"/><text fill="#000000" font-family="sans-serif" font-size="14" lengthAdjust="spacingAndGlyphs" textLength="25" x="265" y="2862.9795">IHM</text><rect fill="#F8F8F8" height="30.2969" style="stroke: #383838; stroke-width: 1.0;" width="44" x="730.5" y="98.2813"/><text fill="#000000" font-family="sans-serif" font-size="14" lengthAdjust="spacingAndGlyphs" textLength="30" x="737.5" y="118.2764">SMA</text><rect fill="#F8F8F8" height="30.2969" style="stroke: #383838; stroke-width: 1.0;" width="44" x="730.5" y="2842.9844"/><text fill="#000000" font-family="sans-serif" font-size="14" lengthAdjust="spacingAndGlyphs" textLength="30" x="737.5" y="2862.9795">SMA</text><rect fill="#F8F8F8" height="30.2969" style="stroke: #383838; stroke-width: 1.0;" width="53" x="1132" y="98.2813"/><text fill="#000000" font-family="sans-serif" font-size="14" lengthAdjust="spacingAndGlyphs" textLength="39" x="1139" y="118.2764">Client</text><rect fill="#F8F8F8" height="30.2969" style="stroke: #383838; stroke-width: 1.0;" width="53" x="1132" y="2842.9844"/><text fill="#000000" font-family="sans-serif" font-size="14" lengthAdjust="spacingAndGlyphs" textLength="39" x="1139" y="2862.9795">Client</text><rect fill="#F8F8F8" height="30.2969" style="stroke: #383838; stroke-width: 1.0;" width="78" x="1195" y="98.2813"/><text fill="#000000" font-family="sans-serif" font-size="14" lengthAdjust="spacingAndGlyphs" textLength="64" x="1202" y="118.2764">Structure</text><rect fill="#F8F8F8" height="30.2969" style="stroke: #383838; stroke-width: 1.0;" width="78" x="1195" y="2842.9844"/><text fill="#000000" font-family="sans-serif" font-size="14" lengthAdjust="spacingAndGlyphs" textLength="64" x="1202" y="2862.9795">Structure</text><rect fill="#F8F8F8" height="30.2969" style="stroke: #383838; stroke-width: 1.0;" width="81" x="1384" y="98.2813"/><text fill="#000000" font-family="sans-serif" font-size="14" lengthAdjust="spacingAndGlyphs" textLength="67" x="1391" y="118.2764">Personne</text><rect fill="#F8F8F8" height="30.2969" style="stroke: #383838; stroke-width: 1.0;" width="81" x="1384" y="2842.9844"/><text fill="#000000" font-family="sans-serif" font-size="14" lengthAdjust="spacingAndGlyphs" textLength="67" x="1391" y="2862.9795">Personne</text><rect fill="#F8F8F8" height="30.2969" style="stroke: #383838; stroke-width: 1.0;" width="63" x="1475" y="98.2813"/><text fill="#000000" font-family="sans-serif" font-size="14" lengthAdjust="spacingAndGlyphs" textLength="49" x="1482" y="118.2764">Produit</text><rect fill="#F8F8F8" height="30.2969" style="stroke: #383838; stroke-width: 1.0;" width="63" x="1475" y="2842.9844"/><text fill="#000000" font-family="sans-serif" font-size="14" lengthAdjust="spacingAndGlyphs" textLength="49" x="1482" y="2862.9795">Produit</text><rect fill="#F8F8F8" height="30.2969" style="stroke: #383838; stroke-width: 1.0;" width="68" x="1548" y="98.2813"/><text fill="#000000" font-family="sans-serif" font-size="14" lengthAdjust="spacingAndGlyphs" textLength="54" x="1555" y="118.2764">Contact</text><rect fill="#F8F8F8" height="30.2969" style="stroke: #383838; stroke-width: 1.0;" width="68" x="1548" y="2842.9844"/><text fill="#000000" font-family="sans-serif" font-size="14" lengthAdjust="spacingAndGlyphs" textLength="54" x="1555" y="2862.9795">Contact</text><rect fill="#F8F8F8" height="30.2969" style="stroke: #383838; stroke-width: 1.0;" width="93" x="1626" y="98.2813"/><text fill="#000000" font-family="sans-serif" font-size="14" lengthAdjust="spacingAndGlyphs" textLength="79" x="1633" y="118.2764">Evenement</text><rect fill="#F8F8F8" height="30.2969" style="stroke: #383838; stroke-width: 1.0;" width="93" x="1626" y="2842.9844"/><text fill="#000000" font-family="sans-serif" font-size="14" lengthAdjust="spacingAndGlyphs" textLength="79" x="1633" y="2862.9795">Evenement</text><rect fill="#FFFFFF" height="40.2656" style="stroke: #000000; stroke-width: 1.0;" width="260" x="40" y="139.5781"/><polygon fill="#EEEEEE" points="40,139.5781,106,139.5781,106,146.5781,96,156.5781,40,156.5781,40,139.5781" style="stroke: #000000; stroke-width: 1.0;"/><text fill="#000000" font-family="sans-serif" font-size="13" font-weight="bold" lengthAdjust="spacingAndGlyphs" textLength="21" x="53" y="153.645">ref</text><text fill="#000000" font-family="sans-serif" font-size="13" lengthAdjust="spacingAndGlyphs" textLength="108" x="116" y="172.645">Identifier le client</text><polygon fill="#383838" points="265.5,201.8438,275.5,205.8438,265.5,209.8438,269.5,205.8438" style="stroke: #383838; stroke-width: 1.0;"/><line style="stroke: #383838; stroke-width: 1.0;" x1="66.5" x2="271.5" y1="205.8438" y2="205.8438"/><text fill="#000000" font-family="sans-serif" font-size="13" lengthAdjust="spacingAndGlyphs" textLength="184" x="73.5" y="200.9106">Consulter le dossier du client</text><polygon fill="#383838" points="740.5,245.9766,750.5,249.9766,740.5,253.9766,744.5,249.9766" style="stroke: #383838; stroke-width: 1.0;"/><line style="stroke: #383838; stroke-width: 1.0;" x1="277.5" x2="746.5" y1="249.9766" y2="249.9766"/><text fill="#000000" font-family="sans-serif" font-size="13" lengthAdjust="spacingAndGlyphs" textLength="201" x="284.5" y="230.0435">ObtenirClientEtAgence(idClient)</text><text fill="#000000" font-family="sans-serif" font-size="13" lengthAdjust="spacingAndGlyphs" textLength="100" x="284.5" y="245.1763">: Client, Agence</text><polygon fill="#383838" points="1146.5,290.2422,1156.5,294.2422,1146.5,298.2422,1150.5,294.2422" style="stroke: #383838; stroke-width: 1.0;"/><line style="stroke: #383838; stroke-width: 1.0;" x1="752.5" x2="1152.5" y1="294.2422" y2="294.2422"/><text fill="#000000" font-family="sans-serif" font-size="13" lengthAdjust="spacingAndGlyphs" textLength="140" x="759.5" y="274.3091">ObtenirClient(idClient)</text><text fill="#000000" font-family="sans-serif" font-size="13" lengthAdjust="spacingAndGlyphs" textLength="44" x="759.5" y="289.4419">: Client</text><polygon fill="#383838" points="1222,334.5078,1232,338.5078,1222,342.5078,1226,338.5078" style="stroke: #383838; stroke-width: 1.0;"/><line style="stroke: #383838; stroke-width: 1.0;" x1="752.5" x2="1228" y1="338.5078" y2="338.5078"/><text fill="#000000" font-family="sans-serif" font-size="13" lengthAdjust="spacingAndGlyphs" textLength="206" x="759.5" y="318.5747">ObtenirAgenceDuClient(idClient)</text><text fill="#000000" font-family="sans-serif" font-size="13" lengthAdjust="spacingAndGlyphs" textLength="68" x="759.5" y="333.7075">: Structure</text><rect fill="none" height="1401.1016" style="stroke: #000000; stroke-width: 1.0;" width="1482" x="13" y="353.7734"/><polygon fill="#EEEEEE" points="13,353.7734,83,353.7734,83,360.7734,73,370.7734,13,370.7734,13,353.7734" style="stroke: #000000; stroke-width: 1.0;"/><text fill="#000000" font-family="sans-serif" font-size="13" font-weight="bold" lengthAdjust="spacingAndGlyphs" textLength="25" x="28" y="366.8403">opt</text><text fill="#000000" font-family="sans-serif" font-size="11" font-weight="bold" lengthAdjust="spacingAndGlyphs" textLength="43" x="98" y="365.9839">[Bilan]</text><polygon fill="#383838" points="265.5,402.9063,275.5,406.9063,265.5,410.9063,269.5,406.9063" style="stroke: #383838; stroke-width: 1.0;"/><line style="stroke: #383838; stroke-width: 1.0;" x1="66.5" x2="271.5" y1="406.9063" y2="406.9063"/><text fill="#000000" font-family="sans-serif" font-size="13" lengthAdjust="spacingAndGlyphs" textLength="133" x="73.5" y="386.9731">Consulter bilan client</text><text fill="#000000" font-family="sans-serif" font-size="13" lengthAdjust="spacingAndGlyphs" textLength="187" x="73.5" y="402.106">(cotation, liste de personnes)</text><polygon fill="#383838" points="740.5,447.1719,750.5,451.1719,740.5,455.1719,744.5,451.1719" style="stroke: #383838; stroke-width: 1.0;"/><line style="stroke: #383838; stroke-width: 1.0;" x1="277.5" x2="746.5" y1="451.1719" y2="451.1719"/><text fill="#000000" font-family="sans-serif" font-size="13" lengthAdjust="spacingAndGlyphs" textLength="185" x="284.5" y="431.2388">ConsulterBilanClient(idClient)</text><text fill="#000000" font-family="sans-serif" font-size="13" lengthAdjust="spacingAndGlyphs" textLength="223" x="284.5" y="446.3716">: cotationsClient, Liste&lt;Personne&gt;</text><polygon fill="#383838" points="1146.5,491.4375,1156.5,495.4375,1146.5,499.4375,1150.5,495.4375" style="stroke: #383838; stroke-width: 1.0;"/><line style="stroke: #383838; stroke-width: 1.0;" x1="752.5" x2="1152.5" y1="495.4375" y2="495.4375"/><text fill="#000000" font-family="sans-serif" font-size="13" lengthAdjust="spacingAndGlyphs" textLength="191" x="759.5" y="475.5044">ConsulterDetailClient(idClient)</text><text fill="#000000" font-family="sans-serif" font-size="13" lengthAdjust="spacingAndGlyphs" textLength="234" x="759.5" y="490.6372">: cotationsClient, Liste&lt;idPersonne&gt;</text><rect fill="none" height="61.3984" style="stroke: #000000; stroke-width: 1.0;" width="353" x="1122" y="510.7031"/><polygon fill="#EEEEEE" points="1122,510.7031,1199,510.7031,1199,517.7031,1189,527.7031,1122,527.7031,1122,510.7031" style="stroke: #000000; stroke-width: 1.0;"/><text fill="#000000" font-family="sans-serif" font-size="13" font-weight="bold" lengthAdjust="spacingAndGlyphs" textLength="32" x="1137" y="523.77">loop</text><text fill="#000000" font-family="sans-serif" font-size="11" font-weight="bold" lengthAdjust="spacingAndGlyphs" textLength="154" x="1214" y="522.9136">[Pour chaque personne]</text><polygon fill="#383838" points="1412.5,559.8359,1422.5,563.8359,1412.5,567.8359,1416.5,563.8359" style="stroke: #383838; stroke-width: 1.0;"/><line style="stroke: #383838; stroke-width: 1.0;" x1="1158.5" x2="1418.5" y1="563.8359" y2="563.8359"/><text fill="#000000" font-family="sans-serif" font-size="13" lengthAdjust="spacingAndGlyphs" textLength="188" x="1165.5" y="543.9028">ObtenirPersonne(idPersonne)</text><text fill="#000000" font-family="sans-serif" font-size="13" lengthAdjust="spacingAndGlyphs" textLength="68" x="1165.5" y="559.0356">: Personne</text><rect fill="none" height="997.8438" style="stroke: #000000; stroke-width: 1.0;" width="1462" x="23" y="586.1016"/><polygon fill="#EEEEEE" points="23,586.1016,93,586.1016,93,593.1016,83,603.1016,23,603.1016,23,586.1016" style="stroke: #000000; stroke-width: 1.0;"/><text fill="#000000" font-family="sans-serif" font-size="13" font-weight="bold" lengthAdjust="spacingAndGlyphs" textLength="25" x="38" y="599.1685">opt</text><polygon fill="#383838" points="265.5,620.2344,275.5,624.2344,265.5,628.2344,269.5,624.2344" style="stroke: #383838; stroke-width: 1.0;"/><line style="stroke: #383838; stroke-width: 1.0;" x1="66.5" x2="271.5" y1="624.2344" y2="624.2344"/><text fill="#000000" font-family="sans-serif" font-size="13" lengthAdjust="spacingAndGlyphs" textLength="144" x="73.5" y="619.3013">Sélectionner Personne</text><polygon fill="#383838" points="265.5,664.3672,275.5,668.3672,265.5,672.3672,269.5,668.3672" style="stroke: #383838; stroke-width: 1.0;"/><line style="stroke: #383838; stroke-width: 1.0;" x1="66.5" x2="271.5" y1="668.3672" y2="668.3672"/><text fill="#000000" font-family="sans-serif" font-size="13" lengthAdjust="spacingAndGlyphs" textLength="107" x="73.5" y="648.4341">Consulter details</text><text fill="#000000" font-family="sans-serif" font-size="13" lengthAdjust="spacingAndGlyphs" textLength="99" x="73.5" y="663.5669">d'une personne</text><polygon fill="#383838" points="740.5,708.6328,750.5,712.6328,740.5,716.6328,744.5,712.6328" style="stroke: #383838; stroke-width: 1.0;"/><line style="stroke: #383838; stroke-width: 1.0;" x1="277.5" x2="746.5" y1="712.6328" y2="712.6328"/><text fill="#000000" font-family="sans-serif" font-size="13" lengthAdjust="spacingAndGlyphs" textLength="239" x="284.5" y="692.6997">ConsulterDetailPersonne(idPersonne)</text><text fill="#000000" font-family="sans-serif" font-size="13" lengthAdjust="spacingAndGlyphs" textLength="355" x="284.5" y="707.8325">: adresse, revenu, impot, dateNaissance, Liste&lt;Client&gt;</text><polygon fill="#383838" points="1412.5,752.8984,1422.5,756.8984,1412.5,760.8984,1416.5,756.8984" style="stroke: #383838; stroke-width: 1.0;"/><line style="stroke: #383838; stroke-width: 1.0;" x1="752.5" x2="1418.5" y1="756.8984" y2="756.8984"/><text fill="#000000" font-family="sans-serif" font-size="13" lengthAdjust="spacingAndGlyphs" textLength="232" x="759.5" y="736.9653">ObtenirDetailsPersonne(idPersonne)</text><text fill="#000000" font-family="sans-serif" font-size="13" lengthAdjust="spacingAndGlyphs" textLength="259" x="759.5" y="752.0981">: adresse, revenu, impot, dateNaissance</text><polygon fill="#383838" points="1146.5,797.1641,1156.5,801.1641,1146.5,805.1641,1150.5,801.1641" style="stroke: #383838; stroke-width: 1.0;"/><line style="stroke: #383838; stroke-width: 1.0;" x1="752.5" x2="1152.5" y1="801.1641" y2="801.1641"/><text fill="#000000" font-family="sans-serif" font-size="13" lengthAdjust="spacingAndGlyphs" textLength="231" x="759.5" y="781.231">ObtenirClientsPersonne(idPersonne)</text><text fill="#000000" font-family="sans-serif" font-size="13" lengthAdjust="spacingAndGlyphs" textLength="96" x="759.5" y="796.3638">: Liste&lt;Client&gt;</text><polygon fill="#383838" points="265.5,826.4297,275.5,830.4297,265.5,834.4297,269.5,830.4297" style="stroke: #383838; stroke-width: 1.0;"/><line style="stroke: #383838; stroke-width: 1.0;" x1="66.5" x2="271.5" y1="830.4297" y2="830.4297"/><text fill="#000000" font-family="sans-serif" font-size="13" lengthAdjust="spacingAndGlyphs" textLength="133" x="73.5" y="825.4966">Mise à jour personne</text><polygon fill="#383838" points="740.5,885.5625,750.5,889.5625,740.5,893.5625,744.5,889.5625" style="stroke: #383838; stroke-width: 1.0;"/><line style="stroke: #383838; stroke-width: 1.0;" x1="277.5" x2="746.5" y1="889.5625" y2="889.5625"/><text fill="#000000" font-family="sans-serif" font-size="13" lengthAdjust="spacingAndGlyphs" textLength="310" x="284.5" y="854.6294">MettreAJourPersonne(idPersonne, nom, prenom,</text><text fill="#000000" font-family="sans-serif" font-size="13" lengthAdjust="spacingAndGlyphs" textLength="256" x="284.5" y="869.7622">adresse, revenu, impot, dateNaissance)</text><text fill="#000000" font-family="sans-serif" font-size="13" lengthAdjust="spacingAndGlyphs" textLength="34" x="284.5" y="884.895">: void</text><polygon fill="#383838" points="1412.5,944.9609,1422.5,948.9609,1412.5,952.9609,1416.5,948.9609" style="stroke: #383838; stroke-width: 1.0;"/><line style="stroke: #383838; stroke-width: 1.0;" x1="752.5" x2="1418.5" y1="948.9609" y2="948.9609"/><text fill="#000000" font-family="sans-serif" font-size="13" lengthAdjust="spacingAndGlyphs" textLength="258" x="759.5" y="914.0278">MAJPersonne(idPersonne, nom, prenom,</text><text fill="#000000" font-family="sans-serif" font-size="13" lengthAdjust="spacingAndGlyphs" textLength="256" x="759.5" y="929.1606">adresse, revenu, impot, dateNaissance)</text><text fill="#000000" font-family="sans-serif" font-size="13" lengthAdjust="spacingAndGlyphs" textLength="34" x="759.5" y="944.2935">: void</text><line style="stroke: #000000; stroke-width: 1.0; stroke-dasharray: 2.0,2.0;" x1="23" x2="1485" y1="958.3594" y2="958.3594"/><polygon fill="#383838" points="265.5,976.3594,275.5,980.3594,265.5,984.3594,269.5,980.3594" style="stroke: #383838; stroke-width: 1.0;"/><line style="stroke: #383838; stroke-width: 1.0;" x1="66.5" x2="271.5" y1="980.3594" y2="980.3594"/><text fill="#000000" font-family="sans-serif" font-size="13" lengthAdjust="spacingAndGlyphs" textLength="119" x="73.5" y="975.4263">Saisir Informations</text><polygon fill="#383838" points="265.5,1005.4922,275.5,1009.4922,265.5,1013.4922,269.5,1009.4922" style="stroke: #383838; stroke-width: 1.0;"/><line style="stroke: #383838; stroke-width: 1.0;" x1="66.5" x2="271.5" y1="1009.4922" y2="1009.4922"/><text fill="#000000" font-family="sans-serif" font-size="13" lengthAdjust="spacingAndGlyphs" textLength="129" x="73.5" y="1004.5591">Récupérer personne</text><polygon fill="#383838" points="740.5,1049.625,750.5,1053.625,740.5,1057.625,744.5,1053.625" style="stroke: #383838; stroke-width: 1.0;"/><line style="stroke: #383838; stroke-width: 1.0;" x1="277.5" x2="746.5" y1="1053.625" y2="1053.625"/><text fill="#000000" font-family="sans-serif" font-size="13" lengthAdjust="spacingAndGlyphs" textLength="363" x="284.5" y="1033.6919">RecupererPersonne(nom, prenom, trancheAge, adresse)</text><text fill="#000000" font-family="sans-serif" font-size="13" lengthAdjust="spacingAndGlyphs" textLength="68" x="284.5" y="1048.8247">: Personne</text><polygon fill="#383838" points="1412.5,1093.8906,1422.5,1097.8906,1412.5,1101.8906,1416.5,1097.8906" style="stroke: #383838; stroke-width: 1.0;"/><line style="stroke: #383838; stroke-width: 1.0;" x1="752.5" x2="1418.5" y1="1097.8906" y2="1097.8906"/><text fill="#000000" font-family="sans-serif" font-size="13" lengthAdjust="spacingAndGlyphs" textLength="346" x="759.5" y="1077.9575">TrouverPersonne(nom, prenom, trancheAge, adresse)</text><text fill="#000000" font-family="sans-serif" font-size="13" lengthAdjust="spacingAndGlyphs" textLength="68" x="759.5" y="1093.0903">: Personne</text><rect fill="none" height="344.125" style="stroke: #000000; stroke-width: 1.0;" width="1442" x="33" y="1113.1563"/><polygon fill="#EEEEEE" points="33,1113.1563,103,1113.1563,103,1120.1563,93,1130.1563,33,1130.1563,33,1113.1563" style="stroke: #000000; stroke-width: 1.0;"/><text fill="#000000" font-family="sans-serif" font-size="13" font-weight="bold" lengthAdjust="spacingAndGlyphs" textLength="25" x="48" y="1126.2231">opt</text><polygon fill="#383838" points="265.5,1147.2891,275.5,1151.2891,265.5,1155.2891,269.5,1151.2891" style="stroke: #383838; stroke-width: 1.0;"/><line style="stroke: #383838; stroke-width: 1.0;" x1="66.5" x2="271.5" y1="1151.2891" y2="1151.2891"/><text fill="#000000" font-family="sans-serif" font-size="13" lengthAdjust="spacingAndGlyphs" textLength="138" x="73.5" y="1146.356">Ajouter une personne</text><polygon fill="#383838" points="740.5,1206.4219,750.5,1210.4219,740.5,1214.4219,744.5,1210.4219" style="stroke: #383838; stroke-width: 1.0;"/><line style="stroke: #383838; stroke-width: 1.0;" x1="277.5" x2="746.5" y1="1210.4219" y2="1210.4219"/><text fill="#000000" font-family="sans-serif" font-size="13" lengthAdjust="spacingAndGlyphs" textLength="257" x="284.5" y="1175.4888">AjouterPersonne(idClient, nom, prenom,</text><text fill="#000000" font-family="sans-serif" font-size="13" lengthAdjust="spacingAndGlyphs" textLength="270" x="284.5" y="1190.6216">dateNaissance, adresse, revenus, impots)</text><text fill="#000000" font-family="sans-serif" font-size="13" lengthAdjust="spacingAndGlyphs" textLength="34" x="284.5" y="1205.7544">: void</text><polygon fill="#383838" points="1146.5,1250.8203,1156.5,1254.8203,1146.5,1258.8203,1150.5,1254.8203" style="stroke: #383838; stroke-width: 1.0;"/><line style="stroke: #383838; stroke-width: 1.0;" x1="752.5" x2="1152.5" y1="1254.8203" y2="1254.8203"/><text fill="#000000" font-family="sans-serif" font-size="13" lengthAdjust="spacingAndGlyphs" textLength="242" x="759.5" y="1234.8872">AjouterPersonne(idClient, idPersonne)</text><text fill="#000000" font-family="sans-serif" font-size="13" lengthAdjust="spacingAndGlyphs" textLength="34" x="759.5" y="1250.02">: void</text><line style="stroke: #000000; stroke-width: 1.0; stroke-dasharray: 2.0,2.0;" x1="33" x2="1475" y1="1264.0859" y2="1264.0859"/><polygon fill="#383838" points="265.5,1282.0859,275.5,1286.0859,265.5,1290.0859,269.5,1286.0859" style="stroke: #383838; stroke-width: 1.0;"/><line style="stroke: #383838; stroke-width: 1.0;" x1="66.5" x2="271.5" y1="1286.0859" y2="1286.0859"/><text fill="#000000" font-family="sans-serif" font-size="13" lengthAdjust="spacingAndGlyphs" textLength="156" x="73.5" y="1281.1528">Créer nouvelle personne</text><polygon fill="#383838" points="740.5,1341.2188,750.5,1345.2188,740.5,1349.2188,744.5,1345.2188" style="stroke: #383838; stroke-width: 1.0;"/><line style="stroke: #383838; stroke-width: 1.0;" x1="277.5" x2="746.5" y1="1345.2188" y2="1345.2188"/><text fill="#000000" font-family="sans-serif" font-size="13" lengthAdjust="spacingAndGlyphs" textLength="360" x="284.5" y="1310.2856">CreerEtAjouterNouvellePersonne(idClient, nom, prenom,</text><text fill="#000000" font-family="sans-serif" font-size="13" lengthAdjust="spacingAndGlyphs" textLength="270" x="284.5" y="1325.4185">dateNaissance, adresse, revenus, impots)</text><text fill="#000000" font-family="sans-serif" font-size="13" lengthAdjust="spacingAndGlyphs" textLength="34" x="284.5" y="1340.5513">: void</text><polygon fill="#383838" points="1412.5,1400.6172,1422.5,1404.6172,1412.5,1408.6172,1416.5,1404.6172" style="stroke: #383838; stroke-width: 1.0;"/><line style="stroke: #383838; stroke-width: 1.0;" x1="752.5" x2="1418.5" y1="1404.6172" y2="1404.6172"/><text fill="#000000" font-family="sans-serif" font-size="13" lengthAdjust="spacingAndGlyphs" textLength="191" x="759.5" y="1369.6841">CreerPersonne(nom, prenom,</text><text fill="#000000" font-family="sans-serif" font-size="13" lengthAdjust="spacingAndGlyphs" textLength="270" x="759.5" y="1384.8169">dateNaissance, adresse, revenus, impots)</text><text fill="#000000" font-family="sans-serif" font-size="13" lengthAdjust="spacingAndGlyphs" textLength="68" x="759.5" y="1399.9497">: Personne</text><polygon fill="#383838" points="1169.5,1445.0156,1159.5,1449.0156,1169.5,1453.0156,1165.5,1449.0156" style="stroke: #383838; stroke-width: 1.0;"/><line style="stroke: #383838; stroke-width: 1.0;" x1="1163.5" x2="1423.5" y1="1449.0156" y2="1449.0156"/><text fill="#000000" font-family="sans-serif" font-size="13" lengthAdjust="spacingAndGlyphs" textLength="242" x="1175.5" y="1429.0825">AjouterPersonne(idClient, idPersonne)</text><text fill="#000000" font-family="sans-serif" font-size="13" lengthAdjust="spacingAndGlyphs" textLength="34" x="1175.5" y="1444.2153">: void</text><line style="stroke: #000000; stroke-width: 1.0; stroke-dasharray: 2.0,2.0;" x1="23" x2="1485" y1="1465.2813" y2="1465.2813"/><polygon fill="#383838" points="265.5,1483.2813,275.5,1487.2813,265.5,1491.2813,269.5,1487.2813" style="stroke: #383838; stroke-width: 1.0;"/><line style="stroke: #383838; stroke-width: 1.0;" x1="66.5" x2="271.5" y1="1487.2813" y2="1487.2813"/><text fill="#000000" font-family="sans-serif" font-size="13" lengthAdjust="spacingAndGlyphs" textLength="159" x="73.5" y="1482.3481">Supprimer une personne</text><polygon fill="#383838" points="740.5,1527.4141,750.5,1531.4141,740.5,1535.4141,744.5,1531.4141" style="stroke: #383838; stroke-width: 1.0;"/><line style="stroke: #383838; stroke-width: 1.0;" x1="277.5" x2="746.5" y1="1531.4141" y2="1531.4141"/><text fill="#000000" font-family="sans-serif" font-size="13" lengthAdjust="spacingAndGlyphs" textLength="263" x="284.5" y="1511.481">SupprimerPersonne(idClient, idPersonne)</text><text fill="#000000" font-family="sans-serif" font-size="13" lengthAdjust="spacingAndGlyphs" textLength="34" x="284.5" y="1526.6138">: void</text><polygon fill="#383838" points="1146.5,1571.6797,1156.5,1575.6797,1146.5,1579.6797,1150.5,1575.6797" style="stroke: #383838; stroke-width: 1.0;"/><line style="stroke: #383838; stroke-width: 1.0;" x1="752.5" x2="1152.5" y1="1575.6797" y2="1575.6797"/><text fill="#000000" font-family="sans-serif" font-size="13" lengthAdjust="spacingAndGlyphs" textLength="263" x="759.5" y="1555.7466">SupprimerPersonne(idClient, idPersonne)</text><text fill="#000000" font-family="sans-serif" font-size="13" lengthAdjust="spacingAndGlyphs" textLength="34" x="759.5" y="1570.8794">: void</text><line style="stroke: #000000; stroke-width: 1.0; stroke-dasharray: 2.0,2.0;" x1="13" x2="1495" y1="1591.9453" y2="1591.9453"/><polygon fill="#383838" points="265.5,1609.9453,275.5,1613.9453,265.5,1617.9453,269.5,1613.9453" style="stroke: #383838; stroke-width: 1.0;"/><line style="stroke: #383838; stroke-width: 1.0;" x1="66.5" x2="271.5" y1="1613.9453" y2="1613.9453"/><text fill="#000000" font-family="sans-serif" font-size="13" lengthAdjust="spacingAndGlyphs" textLength="140" x="73.5" y="1609.0122">Saisir Nouvelle Entete</text><polygon fill="#383838" points="265.5,1639.0781,275.5,1643.0781,265.5,1647.0781,269.5,1643.0781" style="stroke: #383838; stroke-width: 1.0;"/><line style="stroke: #383838; stroke-width: 1.0;" x1="66.5" x2="271.5" y1="1643.0781" y2="1643.0781"/><text fill="#000000" font-family="sans-serif" font-size="13" lengthAdjust="spacingAndGlyphs" textLength="106" x="73.5" y="1638.145">Maj entête client</text><polygon fill="#383838" points="740.5,1698.2109,750.5,1702.2109,740.5,1706.2109,744.5,1702.2109" style="stroke: #383838; stroke-width: 1.0;"/><line style="stroke: #383838; stroke-width: 1.0;" x1="277.5" x2="746.5" y1="1702.2109" y2="1702.2109"/><text fill="#000000" font-family="sans-serif" font-size="13" lengthAdjust="spacingAndGlyphs" textLength="113" x="284.5" y="1667.2778">MAJEnteteDossier</text><text fill="#000000" font-family="sans-serif" font-size="13" lengthAdjust="spacingAndGlyphs" textLength="259" x="284.5" y="1682.4106">(idClient, denomination, adressePostale)</text><text fill="#000000" font-family="sans-serif" font-size="13" lengthAdjust="spacingAndGlyphs" textLength="34" x="284.5" y="1697.5435">: void</text><polygon fill="#383838" points="1146.5,1742.6094,1156.5,1746.6094,1146.5,1750.6094,1150.5,1746.6094" style="stroke: #383838; stroke-width: 1.0;"/><line style="stroke: #383838; stroke-width: 1.0;" x1="752.5" x2="1152.5" y1="1746.6094" y2="1746.6094"/><text fill="#000000" font-family="sans-serif" font-size="13" lengthAdjust="spacingAndGlyphs" textLength="371" x="759.5" y="1726.6763">MajEnteteDossier(idClient, denomination, adressePostale)</text><text fill="#000000" font-family="sans-serif" font-size="13" lengthAdjust="spacingAndGlyphs" textLength="34" x="759.5" y="1741.8091">: void</text><rect fill="none" height="790.5156" style="stroke: #000000; stroke-width: 1.0;" width="1535" x="23" y="1768.875"/><polygon fill="#EEEEEE" points="23,1768.875,93,1768.875,93,1775.875,83,1785.875,23,1785.875,23,1768.875" style="stroke: #000000; stroke-width: 1.0;"/><text fill="#000000" font-family="sans-serif" font-size="13" font-weight="bold" lengthAdjust="spacingAndGlyphs" textLength="25" x="38" y="1781.9419">opt</text><text fill="#000000" font-family="sans-serif" font-size="11" font-weight="bold" lengthAdjust="spacingAndGlyphs" textLength="63" x="108" y="1781.0854">[Produits]</text><polygon fill="#383838" points="265.5,1833.0078,275.5,1837.0078,265.5,1841.0078,269.5,1837.0078" style="stroke: #383838; stroke-width: 1.0;"/><line style="stroke: #383838; stroke-width: 1.0;" x1="66.5" x2="271.5" y1="1837.0078" y2="1837.0078"/><text fill="#000000" font-family="sans-serif" font-size="13" lengthAdjust="spacingAndGlyphs" textLength="137" x="73.5" y="1802.0747">Consulter produits du</text><text fill="#000000" font-family="sans-serif" font-size="13" lengthAdjust="spacingAndGlyphs" textLength="113" x="73.5" y="1817.2075">client à la banque</text><text fill="#000000" font-family="sans-serif" font-size="13" lengthAdjust="spacingAndGlyphs" textLength="123" x="73.5" y="1832.3403">et à la concurrence</text><polygon fill="#383838" points="740.5,1877.4063,750.5,1881.4063,740.5,1885.4063,744.5,1881.4063" style="stroke: #383838; stroke-width: 1.0;"/><line style="stroke: #383838; stroke-width: 1.0;" x1="277.5" x2="746.5" y1="1881.4063" y2="1881.4063"/><text fill="#000000" font-family="sans-serif" font-size="13" lengthAdjust="spacingAndGlyphs" textLength="156" x="284.5" y="1861.4731">ObtenirProduits(idClient)</text><text fill="#000000" font-family="sans-serif" font-size="13" lengthAdjust="spacingAndGlyphs" textLength="164" x="284.5" y="1876.606">: Liste&lt;Compte, Produit&gt;</text><polygon fill="#383838" points="1146.5,1921.6719,1156.5,1925.6719,1146.5,1929.6719,1150.5,1925.6719" style="stroke: #383838; stroke-width: 1.0;"/><line style="stroke: #383838; stroke-width: 1.0;" x1="752.5" x2="1152.5" y1="1925.6719" y2="1925.6719"/><text fill="#000000" font-family="sans-serif" font-size="13" lengthAdjust="spacingAndGlyphs" textLength="156" x="759.5" y="1905.7388">ObtenirProduits(idClient)</text><text fill="#000000" font-family="sans-serif" font-size="13" lengthAdjust="spacingAndGlyphs" textLength="175" x="759.5" y="1920.8716">: Liste&lt;Compte, idProduit&gt;</text><rect fill="none" height="61.3984" style="stroke: #000000; stroke-width: 1.0;" width="426" x="1122" y="1940.9375"/><polygon fill="#EEEEEE" points="1122,1940.9375,1199,1940.9375,1199,1947.9375,1189,1957.9375,1122,1957.9375,1122,1940.9375" style="stroke: #000000; stroke-width: 1.0;"/><text fill="#000000" font-family="sans-serif" font-size="13" font-weight="bold" lengthAdjust="spacingAndGlyphs" textLength="32" x="1137" y="1954.0044">loop</text><text fill="#000000" font-family="sans-serif" font-size="11" font-weight="bold" lengthAdjust="spacingAndGlyphs" textLength="140" x="1214" y="1953.1479">[Pour chaque produit]</text><polygon fill="#383838" points="1494.5,1990.0703,1504.5,1994.0703,1494.5,1998.0703,1498.5,1994.0703" style="stroke: #383838; stroke-width: 1.0;"/><line style="stroke: #383838; stroke-width: 1.0;" x1="1158.5" x2="1500.5" y1="1994.0703" y2="1994.0703"/><text fill="#000000" font-family="sans-serif" font-size="13" lengthAdjust="spacingAndGlyphs" textLength="158" x="1165.5" y="1974.1372">ObtenirProduit(idProduit)</text><text fill="#000000" font-family="sans-serif" font-size="13" lengthAdjust="spacingAndGlyphs" textLength="53" x="1165.5" y="1989.27">: Produit</text><rect fill="none" height="179.0625" style="stroke: #000000; stroke-width: 1.0;" width="1162" x="33" y="2016.3359"/><polygon fill="#EEEEEE" points="33,2016.3359,103,2016.3359,103,2023.3359,93,2033.3359,33,2033.3359,33,2016.3359" style="stroke: #000000; stroke-width: 1.0;"/><text fill="#000000" font-family="sans-serif" font-size="13" font-weight="bold" lengthAdjust="spacingAndGlyphs" textLength="25" x="48" y="2029.4028">opt</text><text fill="#000000" font-family="sans-serif" font-size="11" font-weight="bold" lengthAdjust="spacingAndGlyphs" textLength="106" x="118" y="2028.5464">[Details compte]</text><polygon fill="#383838" points="265.5,2050.4688,275.5,2054.4688,265.5,2058.4688,269.5,2054.4688" style="stroke: #383838; stroke-width: 1.0;"/><line style="stroke: #383838; stroke-width: 1.0;" x1="66.5" x2="271.5" y1="2054.4688" y2="2054.4688"/><text fill="#000000" font-family="sans-serif" font-size="13" lengthAdjust="spacingAndGlyphs" textLength="135" x="73.5" y="2049.5356">Sélectionner Compte</text><polygon fill="#383838" points="265.5,2094.6016,275.5,2098.6016,265.5,2102.6016,269.5,2098.6016" style="stroke: #383838; stroke-width: 1.0;"/><line style="stroke: #383838; stroke-width: 1.0;" x1="66.5" x2="271.5" y1="2098.6016" y2="2098.6016"/><text fill="#000000" font-family="sans-serif" font-size="13" lengthAdjust="spacingAndGlyphs" textLength="107" x="73.5" y="2078.6685">Consulter détails</text><text fill="#000000" font-family="sans-serif" font-size="13" lengthAdjust="spacingAndGlyphs" textLength="80" x="73.5" y="2093.8013">d'un compte</text><polygon fill="#383838" points="740.5,2138.8672,750.5,2142.8672,740.5,2146.8672,744.5,2142.8672" style="stroke: #383838; stroke-width: 1.0;"/><line style="stroke: #383838; stroke-width: 1.0;" x1="277.5" x2="746.5" y1="2142.8672" y2="2142.8672"/><text fill="#000000" font-family="sans-serif" font-size="13" lengthAdjust="spacingAndGlyphs" textLength="207" x="284.5" y="2122.9341">ObtenirDetailCompte(idCompte)</text><text fill="#000000" font-family="sans-serif" font-size="13" lengthAdjust="spacingAndGlyphs" textLength="121" x="284.5" y="2138.0669">: details, historique</text><polygon fill="#383838" points="1146.5,2183.1328,1156.5,2187.1328,1146.5,2191.1328,1150.5,2187.1328" style="stroke: #383838; stroke-width: 1.0;"/><line style="stroke: #383838; stroke-width: 1.0;" x1="752.5" x2="1152.5" y1="2187.1328" y2="2187.1328"/><text fill="#000000" font-family="sans-serif" font-size="13" lengthAdjust="spacingAndGlyphs" textLength="214" x="759.5" y="2167.1997">ObtenirDetailsCompte(idCompte)</text><text fill="#000000" font-family="sans-serif" font-size="13" lengthAdjust="spacingAndGlyphs" textLength="121" x="759.5" y="2182.3325">: details, historique</text><rect fill="none" height="149.9297" style="stroke: #000000; stroke-width: 1.0;" width="1515" x="33" y="2209.3984"/><polygon fill="#EEEEEE" points="33,2209.3984,103,2209.3984,103,2216.3984,93,2226.3984,33,2226.3984,33,2209.3984" style="stroke: #000000; stroke-width: 1.0;"/><text fill="#000000" font-family="sans-serif" font-size="13" font-weight="bold" lengthAdjust="spacingAndGlyphs" textLength="25" x="48" y="2222.4653">opt</text><text fill="#000000" font-family="sans-serif" font-size="11" font-weight="bold" lengthAdjust="spacingAndGlyphs" textLength="241" x="118" y="2221.6089">[Détail Produit / Sélectionner Produit]</text><polygon fill="#383838" points="265.5,2258.5313,275.5,2262.5313,265.5,2266.5313,269.5,2262.5313" style="stroke: #383838; stroke-width: 1.0;"/><line style="stroke: #383838; stroke-width: 1.0;" x1="66.5" x2="271.5" y1="2262.5313" y2="2262.5313"/><text fill="#000000" font-family="sans-serif" font-size="13" lengthAdjust="spacingAndGlyphs" textLength="100" x="73.5" y="2242.5981">Consulter détail</text><text fill="#000000" font-family="sans-serif" font-size="13" lengthAdjust="spacingAndGlyphs" textLength="76" x="77.5" y="2257.731">d'un produit</text><polygon fill="#383838" points="740.5,2302.7969,750.5,2306.7969,740.5,2310.7969,744.5,2306.7969" style="stroke: #383838; stroke-width: 1.0;"/><line style="stroke: #383838; stroke-width: 1.0;" x1="277.5" x2="746.5" y1="2306.7969" y2="2306.7969"/><text fill="#000000" font-family="sans-serif" font-size="13" lengthAdjust="spacingAndGlyphs" textLength="195" x="284.5" y="2286.8638">ObtenirDetailProduit(idProduit)</text><text fill="#000000" font-family="sans-serif" font-size="13" lengthAdjust="spacingAndGlyphs" textLength="176" x="284.5" y="2301.9966">: solde, découvert, interet...</text><polygon fill="#383838" points="1494.5,2347.0625,1504.5,2351.0625,1494.5,2355.0625,1498.5,2351.0625" style="stroke: #383838; stroke-width: 1.0;"/><line style="stroke: #383838; stroke-width: 1.0;" x1="752.5" x2="1500.5" y1="2351.0625" y2="2351.0625"/><text fill="#000000" font-family="sans-serif" font-size="13" lengthAdjust="spacingAndGlyphs" textLength="202" x="759.5" y="2331.1294">ObtenirDetailsProduit(idProduit)</text><text fill="#000000" font-family="sans-serif" font-size="13" lengthAdjust="spacingAndGlyphs" textLength="176" x="759.5" y="2346.2622">: solde, découvert, interet...</text><rect fill="none" height="179.0625" style="stroke: #000000; stroke-width: 1.0;" width="1162" x="33" y="2373.3281"/><polygon fill="#EEEEEE" points="33,2373.3281,103,2373.3281,103,2380.3281,93,2390.3281,33,2390.3281,33,2373.3281" style="stroke: #000000; stroke-width: 1.0;"/><text fill="#000000" font-family="sans-serif" font-size="13" font-weight="bold" lengthAdjust="spacingAndGlyphs" textLength="25" x="48" y="2386.395">opt</text><text fill="#000000" font-family="sans-serif" font-size="11" font-weight="bold" lengthAdjust="spacingAndGlyphs" textLength="132" x="118" y="2385.5386">[Mise à jour compte]</text><polygon fill="#383838" points="265.5,2407.4609,275.5,2411.4609,265.5,2415.4609,269.5,2411.4609" style="stroke: #383838; stroke-width: 1.0;"/><line style="stroke: #383838; stroke-width: 1.0;" x1="66.5" x2="271.5" y1="2411.4609" y2="2411.4609"/><text fill="#000000" font-family="sans-serif" font-size="13" lengthAdjust="spacingAndGlyphs" textLength="119" x="73.5" y="2406.5278">Saisir Informations</text><polygon fill="#383838" points="265.5,2451.5938,275.5,2455.5938,265.5,2459.5938,269.5,2455.5938" style="stroke: #383838; stroke-width: 1.0;"/><line style="stroke: #383838; stroke-width: 1.0;" x1="66.5" x2="271.5" y1="2455.5938" y2="2455.5938"/><text fill="#000000" font-family="sans-serif" font-size="13" lengthAdjust="spacingAndGlyphs" textLength="124" x="73.5" y="2435.6606">Maj compte/produit</text><text fill="#000000" font-family="sans-serif" font-size="13" lengthAdjust="spacingAndGlyphs" textLength="106" x="73.5" y="2450.7935">à la concurrence</text><polygon fill="#383838" points="740.5,2495.8594,750.5,2499.8594,740.5,2503.8594,744.5,2499.8594" style="stroke: #383838; stroke-width: 1.0;"/><line style="stroke: #383838; stroke-width: 1.0;" x1="277.5" x2="746.5" y1="2499.8594" y2="2499.8594"/><text fill="#000000" font-family="sans-serif" font-size="13" lengthAdjust="spacingAndGlyphs" textLength="383" x="284.5" y="2479.9263">MAJComptesConcurrence(idClient, txtComptesConcurrence)</text><text fill="#000000" font-family="sans-serif" font-size="13" lengthAdjust="spacingAndGlyphs" textLength="34" x="284.5" y="2495.0591">: void</text><polygon fill="#383838" points="1146.5,2540.125,1156.5,2544.125,1146.5,2548.125,1150.5,2544.125" style="stroke: #383838; stroke-width: 1.0;"/><line style="stroke: #383838; stroke-width: 1.0;" x1="752.5" x2="1152.5" y1="2544.125" y2="2544.125"/><text fill="#000000" font-family="sans-serif" font-size="13" lengthAdjust="spacingAndGlyphs" textLength="382" x="759.5" y="2524.1919">MajComptesConcurrence(idClient, txtComptesConcurrence)</text><text fill="#000000" font-family="sans-serif" font-size="13" lengthAdjust="spacingAndGlyphs" textLength="34" x="759.5" y="2539.3247">: void</text><rect fill="none" height="253.5938" style="stroke: #000000; stroke-width: 1.0;" width="1696" x="33" y="2573.3906"/><polygon fill="#EEEEEE" points="33,2573.3906,103,2573.3906,103,2580.3906,93,2590.3906,33,2590.3906,33,2573.3906" style="stroke: #000000; stroke-width: 1.0;"/><text fill="#000000" font-family="sans-serif" font-size="13" font-weight="bold" lengthAdjust="spacingAndGlyphs" textLength="25" x="48" y="2586.4575">opt</text><text fill="#000000" font-family="sans-serif" font-size="11" font-weight="bold" lengthAdjust="spacingAndGlyphs" textLength="162" x="118" y="2585.6011">[Relations banque/client]</text><polygon fill="#383838" points="265.5,2622.5234,275.5,2626.5234,265.5,2630.5234,269.5,2626.5234" style="stroke: #383838; stroke-width: 1.0;"/><line style="stroke: #383838; stroke-width: 1.0;" x1="66.5" x2="271.5" y1="2626.5234" y2="2626.5234"/><text fill="#000000" font-family="sans-serif" font-size="13" lengthAdjust="spacingAndGlyphs" textLength="120" x="73.5" y="2606.5903">Consulter relations</text><text fill="#000000" font-family="sans-serif" font-size="13" lengthAdjust="spacingAndGlyphs" textLength="87" x="77.5" y="2621.7231">banque-client</text><polygon fill="#383838" points="740.5,2681.7891,750.5,2685.7891,740.5,2689.7891,744.5,2685.7891" style="stroke: #383838; stroke-width: 1.0;"/><line style="stroke: #383838; stroke-width: 1.0;" x1="277.5" x2="746.5" y1="2685.7891" y2="2685.7891"/><text fill="#000000" font-family="sans-serif" font-size="13" lengthAdjust="spacingAndGlyphs" textLength="261" x="284.5" y="2650.856">ConsulterRelationsBanqueClient(idClient)</text><text fill="#000000" font-family="sans-serif" font-size="13" lengthAdjust="spacingAndGlyphs" textLength="303" x="284.5" y="2665.9888">: technique de contact, incidents, reclamations,</text><text fill="#000000" font-family="sans-serif" font-size="13" lengthAdjust="spacingAndGlyphs" textLength="451" x="284.5" y="2681.1216">Liste&lt;PropositionCommerciale&gt;, Liste&lt;Contact&gt;, Liste&lt;Evenement&gt;</text><polygon fill="#383838" points="1146.5,2726.1875,1156.5,2730.1875,1146.5,2734.1875,1150.5,2730.1875" style="stroke: #383838; stroke-width: 1.0;"/><line style="stroke: #383838; stroke-width: 1.0;" x1="752.5" x2="1152.5" y1="2730.1875" y2="2730.1875"/><text fill="#000000" font-family="sans-serif" font-size="13" lengthAdjust="spacingAndGlyphs" textLength="235" x="759.5" y="2710.2544">ConsulterInfosRelationClient(idClient)</text><text fill="#000000" font-family="sans-serif" font-size="13" lengthAdjust="spacingAndGlyphs" textLength="299" x="759.5" y="2725.3872">: technique de contact, incidents, réclamations</text><polygon fill="#383838" points="1570,2770.4531,1580,2774.4531,1570,2778.4531,1574,2774.4531" style="stroke: #383838; stroke-width: 1.0;"/><line style="stroke: #383838; stroke-width: 1.0;" x1="752.5" x2="1576" y1="2774.4531" y2="2774.4531"/><text fill="#000000" font-family="sans-serif" font-size="13" lengthAdjust="spacingAndGlyphs" textLength="261" x="759.5" y="2754.52">ConsulterPropositionsHistorique(idClient)</text><text fill="#000000" font-family="sans-serif" font-size="13" lengthAdjust="spacingAndGlyphs" textLength="326" x="759.5" y="2769.6528">: Liste&lt;PropositionCommerciale&gt;, Liste&lt;Contact&gt;</text><polygon fill="#383838" points="1660.5,2814.7188,1670.5,2818.7188,1660.5,2822.7188,1664.5,2818.7188" style="stroke: #383838; stroke-width: 1.0;"/><line style="stroke: #383838; stroke-width: 1.0;" x1="752.5" x2="1666.5" y1="2818.7188" y2="2818.7188"/><text fill="#000000" font-family="sans-serif" font-size="13" lengthAdjust="spacingAndGlyphs" textLength="240" x="759.5" y="2798.7856">ConsulterEvenementsAVenir(idClient)</text><text fill="#000000" font-family="sans-serif" font-size="13" lengthAdjust="spacingAndGlyphs" textLength="133" x="759.5" y="2813.9185">: Liste&lt;Evenement&gt;</text></g></svg>