<?xml version="1.0" encoding="UTF-8" standalone="yes"?><svg xmlns="http://www.w3.org/2000/svg" xmlns:xlink="http://www.w3.org/1999/xlink" height="1588px" style="width:1572px;height:1588px;" version="1.1" viewBox="0 0 1572 1588" width="1572px"><defs/><g><text fill="#000000" font-family="sans-serif" font-size="20" lengthAdjust="spacingAndGlyphs" textLength="418" x="583" y="28.5645">Diagramme de séquence détaillé du CU 7</text><line style="stroke: none; stroke-width: 1.0;" x1="583" x2="1001" y1="38.2813" y2="38.2813"/><rect fill="#FFFFFF" height="1186.4609" style="stroke: #000000; stroke-width: 1.0;" width="1558" x="13" y="308.5078"/><rect fill="#FFFFFF" height="205.8672" style="stroke: none; stroke-width: 1.0;" width="1558" x="13" y="590.1016"/><rect fill="#FFFFFF" height="60.0703" style="stroke: none; stroke-width: 1.0;" width="1558" x="13" y="795.9688"/><rect fill="#FFFFFF" height="638.9297" style="stroke: none; stroke-width: 1.0;" width="1558" x="13" y="856.0391"/><rect fill="#FFFFFF" height="105.6641" style="stroke: #000000; stroke-width: 1.0;" width="591.5" x="959.5" y="1068.9063"/><rect fill="#FFFFFF" height="299.3984" style="stroke: #000000; stroke-width: 1.0;" width="1538" x="23" y="1188.5703"/><rect fill="#FFFFFF" height="105.6641" style="stroke: #000000; stroke-width: 1.0;" width="591.5" x="959.5" y="1315.2344"/><rect fill="#FFFFFF" height="60.0703" style="stroke: none; stroke-width: 1.0;" width="1538" x="23" y="1427.8984"/><line style="stroke: #383838; stroke-width: 1.0; stroke-dasharray: 5.0,5.0;" x1="56" x2="56" y1="129.5781" y2="1511.9688"/><line style="stroke: #383838; stroke-width: 1.0; stroke-dasharray: 5.0,5.0;" x1="465" x2="465" y1="129.5781" y2="1511.9688"/><line style="stroke: #383838; stroke-width: 1.0; stroke-dasharray: 5.0,5.0;" x1="991.5" x2="991.5" y1="129.5781" y2="1511.9688"/><line style="stroke: #383838; stroke-width: 1.0; stroke-dasharray: 5.0,5.0;" x1="1419" x2="1419" y1="129.5781" y2="1511.9688"/><line style="stroke: #383838; stroke-width: 1.0; stroke-dasharray: 5.0,5.0;" x1="1502" x2="1502" y1="129.5781" y2="1511.9688"/><text fill="#000000" font-family="sans-serif" font-size="14" lengthAdjust="spacingAndGlyphs" textLength="41" x="33" y="126.2764">Agent</text><ellipse cx="56.5" cy="60.2813" fill="#F8F8F8" rx="8" ry="8" style="stroke: #383838; stroke-width: 2.0;"/><path d="M56.5,68.2813 L56.5,95.2813 M43.5,76.2813 L69.5,76.2813 M56.5,95.2813 L43.5,110.2813 M56.5,95.2813 L69.5,110.2813 " fill="#F8F8F8" style="stroke: #383838; stroke-width: 2.0;"/><text fill="#000000" font-family="sans-serif" font-size="14" lengthAdjust="spacingAndGlyphs" textLength="41" x="33" y="1523.9639">Agent</text><ellipse cx="56.5" cy="1537.2656" fill="#F8F8F8" rx="8" ry="8" style="stroke: #383838; stroke-width: 2.0;"/><path d="M56.5,1545.2656 L56.5,1572.2656 M43.5,1553.2656 L69.5,1553.2656 M56.5,1572.2656 L43.5,1587.2656 M56.5,1572.2656 L69.5,1587.2656 " fill="#F8F8F8" style="stroke: #383838; stroke-width: 2.0;"/><rect fill="#F8F8F8" height="30.2969" style="stroke: #383838; stroke-width: 1.0;" width="39" x="446" y="98.2813"/><text fill="#000000" font-family="sans-serif" font-size="14" lengthAdjust="spacingAndGlyphs" textLength="25" x="453" y="118.2764">IHM</text><rect fill="#F8F8F8" height="30.2969" style="stroke: #383838; stroke-width: 1.0;" width="39" x="446" y="1510.9688"/><text fill="#000000" font-family="sans-serif" font-size="14" lengthAdjust="spacingAndGlyphs" textLength="25" x="453" y="1530.9639">IHM</text><rect fill="#F8F8F8" height="30.2969" style="stroke: #383838; stroke-width: 1.0;" width="44" x="969.5" y="98.2813"/><text fill="#000000" font-family="sans-serif" font-size="14" lengthAdjust="spacingAndGlyphs" textLength="30" x="976.5" y="118.2764">SMA</text><rect fill="#F8F8F8" height="30.2969" style="stroke: #383838; stroke-width: 1.0;" width="44" x="969.5" y="1510.9688"/><text fill="#000000" font-family="sans-serif" font-size="14" lengthAdjust="spacingAndGlyphs" textLength="30" x="976.5" y="1530.9639">SMA</text><rect fill="#F8F8F8" height="30.2969" style="stroke: #383838; stroke-width: 1.0;" width="67" x="1386" y="98.2813"/><text fill="#000000" font-family="sans-serif" font-size="14" lengthAdjust="spacingAndGlyphs" textLength="53" x="1393" y="118.2764">Agenda</text><rect fill="#F8F8F8" height="30.2969" style="stroke: #383838; stroke-width: 1.0;" width="67" x="1386" y="1510.9688"/><text fill="#000000" font-family="sans-serif" font-size="14" lengthAdjust="spacingAndGlyphs" textLength="53" x="1393" y="1530.9639">Agenda</text><rect fill="#F8F8F8" height="30.2969" style="stroke: #383838; stroke-width: 1.0;" width="78" x="1463" y="98.2813"/><text fill="#000000" font-family="sans-serif" font-size="14" lengthAdjust="spacingAndGlyphs" textLength="64" x="1470" y="118.2764">Structure</text><rect fill="#F8F8F8" height="30.2969" style="stroke: #383838; stroke-width: 1.0;" width="78" x="1463" y="1510.9688"/><text fill="#000000" font-family="sans-serif" font-size="14" lengthAdjust="spacingAndGlyphs" textLength="64" x="1470" y="1530.9639">Structure</text><polygon fill="#383838" points="453.5,156.5781,463.5,160.5781,453.5,164.5781,457.5,160.5781" style="stroke: #383838; stroke-width: 1.0;"/><line style="stroke: #383838; stroke-width: 1.0;" x1="56.5" x2="459.5" y1="160.5781" y2="160.5781"/><text fill="#000000" font-family="sans-serif" font-size="13" lengthAdjust="spacingAndGlyphs" textLength="385" x="63.5" y="155.645">Consultation de l'agenda hebdomadaire de l'agent connecté</text><polygon fill="#383838" points="979.5,200.7109,989.5,204.7109,979.5,208.7109,983.5,204.7109" style="stroke: #383838; stroke-width: 1.0;"/><line style="stroke: #383838; stroke-width: 1.0;" x1="465.5" x2="985.5" y1="204.7109" y2="204.7109"/><text fill="#000000" font-family="sans-serif" font-size="13" lengthAdjust="spacingAndGlyphs" textLength="384" x="472.5" y="184.7778">SM19 - ObtenirAgendaAgent(idAgent, numSemaine, annee)</text><text fill="#000000" font-family="sans-serif" font-size="13" lengthAdjust="spacingAndGlyphs" textLength="450" x="472.5" y="199.9106">: Agent, Liste&lt;PlageAgenda, TypeActivite, Liste&lt;TacheElementaire&gt;&gt;</text><polygon fill="#383838" points="1407.5,244.9766,1417.5,248.9766,1407.5,252.9766,1411.5,248.9766" style="stroke: #383838; stroke-width: 1.0;"/><line style="stroke: #383838; stroke-width: 1.0;" x1="991.5" x2="1413.5" y1="248.9766" y2="248.9766"/><text fill="#000000" font-family="sans-serif" font-size="13" lengthAdjust="spacingAndGlyphs" textLength="335" x="998.5" y="229.0435">ObtenirAgendaAgent(idAgent, numSemaine, annee)</text><text fill="#000000" font-family="sans-serif" font-size="13" lengthAdjust="spacingAndGlyphs" textLength="404" x="998.5" y="244.1763">: Liste&lt;PlageAgenda, TypeActivite, Liste&lt;TacheElementaire&gt;&gt;</text><polygon fill="#383838" points="1490,289.2422,1500,293.2422,1490,297.2422,1494,293.2422" style="stroke: #383838; stroke-width: 1.0;"/><line style="stroke: #383838; stroke-width: 1.0;" x1="991.5" x2="1496" y1="293.2422" y2="293.2422"/><text fill="#000000" font-family="sans-serif" font-size="13" lengthAdjust="spacingAndGlyphs" textLength="144" x="998.5" y="273.3091">ObtenirAgent(idAgent)</text><text fill="#000000" font-family="sans-serif" font-size="13" lengthAdjust="spacingAndGlyphs" textLength="46" x="998.5" y="288.4419">: Agent</text><rect fill="none" height="1186.4609" style="stroke: #000000; stroke-width: 1.0;" width="1558" x="13" y="308.5078"/><polygon fill="#EEEEEE" points="13,308.5078,77,308.5078,77,315.5078,67,325.5078,13,325.5078,13,308.5078" style="stroke: #000000; stroke-width: 1.0;"/><text fill="#000000" font-family="sans-serif" font-size="13" font-weight="bold" lengthAdjust="spacingAndGlyphs" textLength="19" x="28" y="321.5747">alt</text><text fill="#000000" font-family="sans-serif" font-size="11" font-weight="bold" lengthAdjust="spacingAndGlyphs" textLength="103" x="92" y="320.7183">[changer agent]</text><polygon fill="#383838" points="453.5,342.6406,463.5,346.6406,453.5,350.6406,457.5,346.6406" style="stroke: #383838; stroke-width: 1.0;"/><line style="stroke: #383838; stroke-width: 1.0;" x1="56.5" x2="459.5" y1="346.6406" y2="346.6406"/><text fill="#000000" font-family="sans-serif" font-size="13" lengthAdjust="spacingAndGlyphs" textLength="258" x="63.5" y="341.7075">Consulter la liste des agents de l'agence</text><polygon fill="#383838" points="979.5,386.7734,989.5,390.7734,979.5,394.7734,983.5,390.7734" style="stroke: #383838; stroke-width: 1.0;"/><line style="stroke: #383838; stroke-width: 1.0;" x1="465.5" x2="985.5" y1="390.7734" y2="390.7734"/><text fill="#000000" font-family="sans-serif" font-size="13" lengthAdjust="spacingAndGlyphs" textLength="202" x="472.5" y="370.8403">SM4 - ObtenirAgents(idAgence)</text><text fill="#000000" font-family="sans-serif" font-size="13" lengthAdjust="spacingAndGlyphs" textLength="143" x="472.5" y="385.9731">: Liste&lt;Agent&gt; (CU 2)</text><polygon fill="#383838" points="453.5,416.0391,463.5,420.0391,453.5,424.0391,457.5,420.0391" style="stroke: #383838; stroke-width: 1.0;"/><line style="stroke: #383838; stroke-width: 1.0;" x1="56.5" x2="459.5" y1="420.0391" y2="420.0391"/><text fill="#000000" font-family="sans-serif" font-size="13" lengthAdjust="spacingAndGlyphs" textLength="141" x="63.5" y="415.106">Sélectionner un agent</text><polygon fill="#383838" points="453.5,445.1719,463.5,449.1719,453.5,453.1719,457.5,449.1719" style="stroke: #383838; stroke-width: 1.0;"/><line style="stroke: #383838; stroke-width: 1.0;" x1="56.5" x2="459.5" y1="449.1719" y2="449.1719"/><text fill="#000000" font-family="sans-serif" font-size="13" lengthAdjust="spacingAndGlyphs" textLength="106" x="63.5" y="444.2388">Changer d'agent</text><polygon fill="#383838" points="979.5,489.3047,989.5,493.3047,979.5,497.3047,983.5,493.3047" style="stroke: #383838; stroke-width: 1.0;"/><line style="stroke: #383838; stroke-width: 1.0;" x1="465.5" x2="985.5" y1="493.3047" y2="493.3047"/><text fill="#000000" font-family="sans-serif" font-size="13" lengthAdjust="spacingAndGlyphs" textLength="384" x="472.5" y="473.3716">SM19 - ObtenirAgendaAgent(idAgent, numSemaine, annee)</text><text fill="#000000" font-family="sans-serif" font-size="13" lengthAdjust="spacingAndGlyphs" textLength="450" x="472.5" y="488.5044">: Agent, Liste&lt;PlageAgenda, TypeActivite, Liste&lt;TacheElementaire&gt;&gt;</text><polygon fill="#383838" points="1407.5,533.5703,1417.5,537.5703,1407.5,541.5703,1411.5,537.5703" style="stroke: #383838; stroke-width: 1.0;"/><line style="stroke: #383838; stroke-width: 1.0;" x1="991.5" x2="1413.5" y1="537.5703" y2="537.5703"/><text fill="#000000" font-family="sans-serif" font-size="13" lengthAdjust="spacingAndGlyphs" textLength="335" x="998.5" y="517.6372">ObtenirAgendaAgent(idAgent, numSemaine, annee)</text><text fill="#000000" font-family="sans-serif" font-size="13" lengthAdjust="spacingAndGlyphs" textLength="404" x="998.5" y="532.77">: Liste&lt;PlageAgenda, TypeActivite, Liste&lt;TacheElementaire&gt;&gt;</text><polygon fill="#383838" points="1490,577.8359,1500,581.8359,1490,585.8359,1494,581.8359" style="stroke: #383838; stroke-width: 1.0;"/><line style="stroke: #383838; stroke-width: 1.0;" x1="991.5" x2="1496" y1="581.8359" y2="581.8359"/><text fill="#000000" font-family="sans-serif" font-size="13" lengthAdjust="spacingAndGlyphs" textLength="144" x="998.5" y="561.9028">ObtenirAgent(idAgent)</text><text fill="#000000" font-family="sans-serif" font-size="13" lengthAdjust="spacingAndGlyphs" textLength="46" x="998.5" y="577.0356">: Agent</text><line style="stroke: #000000; stroke-width: 1.0; stroke-dasharray: 2.0,2.0;" x1="13" x2="1571" y1="591.1016" y2="591.1016"/><text fill="#000000" font-family="sans-serif" font-size="11" font-weight="bold" lengthAdjust="spacingAndGlyphs" textLength="120" x="18" y="601.312">[changer semaine]</text><polygon fill="#383838" points="453.5,621.9063,463.5,625.9063,453.5,629.9063,457.5,625.9063" style="stroke: #383838; stroke-width: 1.0;"/><line style="stroke: #383838; stroke-width: 1.0;" x1="56.5" x2="459.5" y1="625.9063" y2="625.9063"/><text fill="#000000" font-family="sans-serif" font-size="13" lengthAdjust="spacingAndGlyphs" textLength="167" x="63.5" y="620.9731">Sélectionner une semaine</text><polygon fill="#383838" points="453.5,651.0391,463.5,655.0391,453.5,659.0391,457.5,655.0391" style="stroke: #383838; stroke-width: 1.0;"/><line style="stroke: #383838; stroke-width: 1.0;" x1="56.5" x2="459.5" y1="655.0391" y2="655.0391"/><text fill="#000000" font-family="sans-serif" font-size="13" lengthAdjust="spacingAndGlyphs" textLength="133" x="63.5" y="650.106">Changer de semaine</text><polygon fill="#383838" points="979.5,695.1719,989.5,699.1719,979.5,703.1719,983.5,699.1719" style="stroke: #383838; stroke-width: 1.0;"/><line style="stroke: #383838; stroke-width: 1.0;" x1="465.5" x2="985.5" y1="699.1719" y2="699.1719"/><text fill="#000000" font-family="sans-serif" font-size="13" lengthAdjust="spacingAndGlyphs" textLength="384" x="472.5" y="679.2388">SM19 - ObtenirAgendaAgent(idAgent, numSemaine, annee)</text><text fill="#000000" font-family="sans-serif" font-size="13" lengthAdjust="spacingAndGlyphs" textLength="450" x="472.5" y="694.3716">: Agent, Liste&lt;PlageAgenda, TypeActivite, Liste&lt;TacheElementaire&gt;&gt;</text><polygon fill="#383838" points="1407.5,739.4375,1417.5,743.4375,1407.5,747.4375,1411.5,743.4375" style="stroke: #383838; stroke-width: 1.0;"/><line style="stroke: #383838; stroke-width: 1.0;" x1="991.5" x2="1413.5" y1="743.4375" y2="743.4375"/><text fill="#000000" font-family="sans-serif" font-size="13" lengthAdjust="spacingAndGlyphs" textLength="335" x="998.5" y="723.5044">ObtenirAgendaAgent(idAgent, numSemaine, annee)</text><text fill="#000000" font-family="sans-serif" font-size="13" lengthAdjust="spacingAndGlyphs" textLength="404" x="998.5" y="738.6372">: Liste&lt;PlageAgenda, TypeActivite, Liste&lt;TacheElementaire&gt;&gt;</text><polygon fill="#383838" points="1490,783.7031,1500,787.7031,1490,791.7031,1494,787.7031" style="stroke: #383838; stroke-width: 1.0;"/><line style="stroke: #383838; stroke-width: 1.0;" x1="991.5" x2="1496" y1="787.7031" y2="787.7031"/><text fill="#000000" font-family="sans-serif" font-size="13" lengthAdjust="spacingAndGlyphs" textLength="144" x="998.5" y="767.77">ObtenirAgent(idAgent)</text><text fill="#000000" font-family="sans-serif" font-size="13" lengthAdjust="spacingAndGlyphs" textLength="46" x="998.5" y="782.9028">: Agent</text><line style="stroke: #000000; stroke-width: 1.0; stroke-dasharray: 2.0,2.0;" x1="13" x2="1571" y1="796.9688" y2="796.9688"/><text fill="#000000" font-family="sans-serif" font-size="11" font-weight="bold" lengthAdjust="spacingAndGlyphs" textLength="185" x="18" y="807.1792">[actions sur plages horaires]</text><rect fill="#FFFFFF" height="40.2656" style="stroke: #000000; stroke-width: 1.0;" width="458" x="30" y="810.7734"/><polygon fill="#EEEEEE" points="30,810.7734,96,810.7734,96,817.7734,86,827.7734,30,827.7734,30,810.7734" style="stroke: #000000; stroke-width: 1.0;"/><text fill="#000000" font-family="sans-serif" font-size="13" font-weight="bold" lengthAdjust="spacingAndGlyphs" textLength="21" x="43" y="824.8403">ref</text><text fill="#000000" font-family="sans-serif" font-size="13" lengthAdjust="spacingAndGlyphs" textLength="131" x="193.5" y="843.8403">Actions Agenda CU7</text><line style="stroke: #000000; stroke-width: 1.0; stroke-dasharray: 2.0,2.0;" x1="13" x2="1571" y1="857.0391" y2="857.0391"/><text fill="#000000" font-family="sans-serif" font-size="11" font-weight="bold" lengthAdjust="spacingAndGlyphs" textLength="136" x="18" y="867.2495">[agenda de l'agence]</text><polygon fill="#383838" points="453.5,887.8438,463.5,891.8438,453.5,895.8438,457.5,891.8438" style="stroke: #383838; stroke-width: 1.0;"/><line style="stroke: #383838; stroke-width: 1.0;" x1="56.5" x2="459.5" y1="891.8438" y2="891.8438"/><text fill="#000000" font-family="sans-serif" font-size="13" lengthAdjust="spacingAndGlyphs" textLength="258" x="63.5" y="886.9106">Consulter la liste des agents de l'agence</text><polygon fill="#383838" points="979.5,931.9766,989.5,935.9766,979.5,939.9766,983.5,935.9766" style="stroke: #383838; stroke-width: 1.0;"/><line style="stroke: #383838; stroke-width: 1.0;" x1="465.5" x2="985.5" y1="935.9766" y2="935.9766"/><text fill="#000000" font-family="sans-serif" font-size="13" lengthAdjust="spacingAndGlyphs" textLength="202" x="472.5" y="916.0435">SM4 - ObtenirAgents(idAgence)</text><text fill="#000000" font-family="sans-serif" font-size="13" lengthAdjust="spacingAndGlyphs" textLength="143" x="472.5" y="931.1763">: Liste&lt;Agent&gt; (CU 2)</text><polygon fill="#383838" points="453.5,961.2422,463.5,965.2422,453.5,969.2422,457.5,965.2422" style="stroke: #383838; stroke-width: 1.0;"/><line style="stroke: #383838; stroke-width: 1.0;" x1="56.5" x2="459.5" y1="965.2422" y2="965.2422"/><text fill="#000000" font-family="sans-serif" font-size="13" lengthAdjust="spacingAndGlyphs" textLength="306" x="63.5" y="960.3091">Sélectionner les agents à afficher dans l'agenda</text><polygon fill="#383838" points="453.5,1005.375,463.5,1009.375,453.5,1013.375,457.5,1009.375" style="stroke: #383838; stroke-width: 1.0;"/><line style="stroke: #383838; stroke-width: 1.0;" x1="56.5" x2="459.5" y1="1009.375" y2="1009.375"/><text fill="#000000" font-family="sans-serif" font-size="13" lengthAdjust="spacingAndGlyphs" textLength="182" x="63.5" y="989.4419">Consulter l'agenda quotidien</text><text fill="#000000" font-family="sans-serif" font-size="13" lengthAdjust="spacingAndGlyphs" textLength="73" x="63.5" y="1004.5747">de l'agence</text><polygon fill="#383838" points="979.5,1049.6406,989.5,1053.6406,979.5,1057.6406,983.5,1053.6406" style="stroke: #383838; stroke-width: 1.0;"/><line style="stroke: #383838; stroke-width: 1.0;" x1="465.5" x2="985.5" y1="1053.6406" y2="1053.6406"/><text fill="#000000" font-family="sans-serif" font-size="13" lengthAdjust="spacingAndGlyphs" textLength="365" x="472.5" y="1033.7075">SM20 - ObtenirAgendaAgence(dateJour, Liste&lt;idAgent&gt;)</text><text fill="#000000" font-family="sans-serif" font-size="13" lengthAdjust="spacingAndGlyphs" textLength="502" x="472.5" y="1048.8403">: Liste&lt;Agent, Liste&lt;PlageAgenda, TypeActivite, Liste&lt;TacheElementaire&gt;&gt;&gt;</text><rect fill="none" height="105.6641" style="stroke: #000000; stroke-width: 1.0;" width="591.5" x="959.5" y="1068.9063"/><polygon fill="#EEEEEE" points="959.5,1068.9063,1036.5,1068.9063,1036.5,1075.9063,1026.5,1085.9063,959.5,1085.9063,959.5,1068.9063" style="stroke: #000000; stroke-width: 1.0;"/><text fill="#000000" font-family="sans-serif" font-size="13" font-weight="bold" lengthAdjust="spacingAndGlyphs" textLength="32" x="974.5" y="1081.9731">loop</text><text fill="#000000" font-family="sans-serif" font-size="11" font-weight="bold" lengthAdjust="spacingAndGlyphs" textLength="131" x="1051.5" y="1081.1167">[Pour chaque agent]</text><polygon fill="#383838" points="1490,1118.0391,1500,1122.0391,1490,1126.0391,1494,1122.0391" style="stroke: #383838; stroke-width: 1.0;"/><line style="stroke: #383838; stroke-width: 1.0;" x1="991.5" x2="1496" y1="1122.0391" y2="1122.0391"/><text fill="#000000" font-family="sans-serif" font-size="13" lengthAdjust="spacingAndGlyphs" textLength="144" x="998.5" y="1102.106">ObtenirAgent(idAgent)</text><text fill="#000000" font-family="sans-serif" font-size="13" lengthAdjust="spacingAndGlyphs" textLength="46" x="998.5" y="1117.2388">: Agent</text><polygon fill="#383838" points="1407.5,1162.3047,1417.5,1166.3047,1407.5,1170.3047,1411.5,1166.3047" style="stroke: #383838; stroke-width: 1.0;"/><line style="stroke: #383838; stroke-width: 1.0;" x1="991.5" x2="1413.5" y1="1166.3047" y2="1166.3047"/><text fill="#000000" font-family="sans-serif" font-size="13" lengthAdjust="spacingAndGlyphs" textLength="315" x="998.5" y="1146.3716">ObtenirAgendaAgentQuotidien(dateJour, idAgent)</text><text fill="#000000" font-family="sans-serif" font-size="13" lengthAdjust="spacingAndGlyphs" textLength="404" x="998.5" y="1161.5044">: Liste&lt;PlageAgenda, TypeActivite, Liste&lt;TacheElementaire&gt;&gt;</text><rect fill="none" height="299.3984" style="stroke: #000000; stroke-width: 1.0;" width="1538" x="23" y="1188.5703"/><polygon fill="#EEEEEE" points="23,1188.5703,87,1188.5703,87,1195.5703,77,1205.5703,23,1205.5703,23,1188.5703" style="stroke: #000000; stroke-width: 1.0;"/><text fill="#000000" font-family="sans-serif" font-size="13" font-weight="bold" lengthAdjust="spacingAndGlyphs" textLength="19" x="38" y="1201.6372">alt</text><text fill="#000000" font-family="sans-serif" font-size="11" font-weight="bold" lengthAdjust="spacingAndGlyphs" textLength="95" x="102" y="1200.7808">[changer date]</text><polygon fill="#383838" points="453.5,1222.7031,463.5,1226.7031,453.5,1230.7031,457.5,1226.7031" style="stroke: #383838; stroke-width: 1.0;"/><line style="stroke: #383838; stroke-width: 1.0;" x1="56.5" x2="459.5" y1="1226.7031" y2="1226.7031"/><text fill="#000000" font-family="sans-serif" font-size="13" lengthAdjust="spacingAndGlyphs" textLength="141" x="63.5" y="1221.77">Sélectionner une date</text><polygon fill="#383838" points="453.5,1251.8359,463.5,1255.8359,453.5,1259.8359,457.5,1255.8359" style="stroke: #383838; stroke-width: 1.0;"/><line style="stroke: #383838; stroke-width: 1.0;" x1="56.5" x2="459.5" y1="1255.8359" y2="1255.8359"/><text fill="#000000" font-family="sans-serif" font-size="13" lengthAdjust="spacingAndGlyphs" textLength="107" x="63.5" y="1250.9028">Changer de date</text><polygon fill="#383838" points="979.5,1295.9688,989.5,1299.9688,979.5,1303.9688,983.5,1299.9688" style="stroke: #383838; stroke-width: 1.0;"/><line style="stroke: #383838; stroke-width: 1.0;" x1="465.5" x2="985.5" y1="1299.9688" y2="1299.9688"/><text fill="#000000" font-family="sans-serif" font-size="13" lengthAdjust="spacingAndGlyphs" textLength="365" x="472.5" y="1280.0356">SM20 - ObtenirAgendaAgence(dateJour, Liste&lt;idAgent&gt;)</text><text fill="#000000" font-family="sans-serif" font-size="13" lengthAdjust="spacingAndGlyphs" textLength="502" x="472.5" y="1295.1685">: Liste&lt;Agent, Liste&lt;PlageAgenda, TypeActivite, Liste&lt;TacheElementaire&gt;&gt;&gt;</text><rect fill="none" height="105.6641" style="stroke: #000000; stroke-width: 1.0;" width="591.5" x="959.5" y="1315.2344"/><polygon fill="#EEEEEE" points="959.5,1315.2344,1036.5,1315.2344,1036.5,1322.2344,1026.5,1332.2344,959.5,1332.2344,959.5,1315.2344" style="stroke: #000000; stroke-width: 1.0;"/><text fill="#000000" font-family="sans-serif" font-size="13" font-weight="bold" lengthAdjust="spacingAndGlyphs" textLength="32" x="974.5" y="1328.3013">loop</text><text fill="#000000" font-family="sans-serif" font-size="11" font-weight="bold" lengthAdjust="spacingAndGlyphs" textLength="131" x="1051.5" y="1327.4448">[Pour chaque agent]</text><polygon fill="#383838" points="1490,1364.3672,1500,1368.3672,1490,1372.3672,1494,1368.3672" style="stroke: #383838; stroke-width: 1.0;"/><line style="stroke: #383838; stroke-width: 1.0;" x1="991.5" x2="1496" y1="1368.3672" y2="1368.3672"/><text fill="#000000" font-family="sans-serif" font-size="13" lengthAdjust="spacingAndGlyphs" textLength="144" x="998.5" y="1348.4341">ObtenirAgent(idAgent)</text><text fill="#000000" font-family="sans-serif" font-size="13" lengthAdjust="spacingAndGlyphs" textLength="46" x="998.5" y="1363.5669">: Agent</text><polygon fill="#383838" points="1407.5,1408.6328,1417.5,1412.6328,1407.5,1416.6328,1411.5,1412.6328" style="stroke: #383838; stroke-width: 1.0;"/><line style="stroke: #383838; stroke-width: 1.0;" x1="991.5" x2="1413.5" y1="1412.6328" y2="1412.6328"/><text fill="#000000" font-family="sans-serif" font-size="13" lengthAdjust="spacingAndGlyphs" textLength="315" x="998.5" y="1392.6997">ObtenirAgendaAgentQuotidien(dateJour, idAgent)</text><text fill="#000000" font-family="sans-serif" font-size="13" lengthAdjust="spacingAndGlyphs" textLength="404" x="998.5" y="1407.8325">: Liste&lt;PlageAgenda, TypeActivite, Liste&lt;TacheElementaire&gt;&gt;</text><line style="stroke: #000000; stroke-width: 1.0; stroke-dasharray: 2.0,2.0;" x1="23" x2="1561" y1="1428.8984" y2="1428.8984"/><text fill="#000000" font-family="sans-serif" font-size="11" font-weight="bold" lengthAdjust="spacingAndGlyphs" textLength="185" x="28" y="1439.1089">[actions sur plages horaires]</text><rect fill="#FFFFFF" height="40.2656" style="stroke: #000000; stroke-width: 1.0;" width="458" x="30" y="1442.7031"/><polygon fill="#EEEEEE" points="30,1442.7031,96,1442.7031,96,1449.7031,86,1459.7031,30,1459.7031,30,1442.7031" style="stroke: #000000; stroke-width: 1.0;"/><text fill="#000000" font-family="sans-serif" font-size="13" font-weight="bold" lengthAdjust="spacingAndGlyphs" textLength="21" x="43" y="1456.77">ref</text><text fill="#000000" font-family="sans-serif" font-size="13" lengthAdjust="spacingAndGlyphs" textLength="131" x="193.5" y="1475.77">Actions Agenda CU7</text></g></svg>