<?xml version="1.0" encoding="UTF-8" standalone="yes"?><svg xmlns="http://www.w3.org/2000/svg" xmlns:xlink="http://www.w3.org/1999/xlink" height="1285px" style="width:1429px;height:1285px;" version="1.1" viewBox="0 0 1429 1285" width="1429px"><defs/><g><text fill="#000000" font-family="sans-serif" font-size="20" lengthAdjust="spacingAndGlyphs" textLength="426" x="507.75" y="28.5645">Diagramme de séquence système du CU 8</text><line style="stroke: none; stroke-width: 1.0;" x1="507.75" x2="933.75" y1="38.2813" y2="38.2813"/><rect fill="#FFFFFF" height="589.9922" style="stroke: #000000; stroke-width: 1.0;" width="1415.5" x="13" y="455.3047"/><rect fill="#FFFFFF" height="426.0625" style="stroke: none; stroke-width: 1.0;" width="1415.5" x="13" y="619.2344"/><line style="stroke: #383838; stroke-width: 1.0; stroke-dasharray: 5.0,5.0;" x1="46" x2="46" y1="129.5781" y2="1209.0938"/><line style="stroke: #383838; stroke-width: 1.0; stroke-dasharray: 5.0,5.0;" x1="420" x2="420" y1="129.5781" y2="1209.0938"/><line style="stroke: #383838; stroke-width: 1.0; stroke-dasharray: 5.0,5.0;" x1="834.5" x2="834.5" y1="129.5781" y2="1209.0938"/><line style="stroke: #383838; stroke-width: 1.0; stroke-dasharray: 5.0,5.0;" x1="1248.5" x2="1248.5" y1="129.5781" y2="1209.0938"/><line style="stroke: #383838; stroke-width: 1.0; stroke-dasharray: 5.0,5.0;" x1="1318.5" x2="1318.5" y1="129.5781" y2="1209.0938"/><line style="stroke: #383838; stroke-width: 1.0; stroke-dasharray: 5.0,5.0;" x1="1386.5" x2="1386.5" y1="129.5781" y2="1209.0938"/><text fill="#000000" font-family="sans-serif" font-size="14" lengthAdjust="spacingAndGlyphs" textLength="41" x="23" y="126.2764">Agent</text><ellipse cx="46.5" cy="60.2813" fill="#F8F8F8" rx="8" ry="8" style="stroke: #383838; stroke-width: 2.0;"/><path d="M46.5,68.2813 L46.5,95.2813 M33.5,76.2813 L59.5,76.2813 M46.5,95.2813 L33.5,110.2813 M46.5,95.2813 L59.5,110.2813 " fill="#F8F8F8" style="stroke: #383838; stroke-width: 2.0;"/><text fill="#000000" font-family="sans-serif" font-size="14" lengthAdjust="spacingAndGlyphs" textLength="41" x="23" y="1221.0889">Agent</text><ellipse cx="46.5" cy="1234.3906" fill="#F8F8F8" rx="8" ry="8" style="stroke: #383838; stroke-width: 2.0;"/><path d="M46.5,1242.3906 L46.5,1269.3906 M33.5,1250.3906 L59.5,1250.3906 M46.5,1269.3906 L33.5,1284.3906 M46.5,1269.3906 L59.5,1284.3906 " fill="#F8F8F8" style="stroke: #383838; stroke-width: 2.0;"/><rect fill="#F8F8F8" height="30.2969" style="stroke: #383838; stroke-width: 1.0;" width="39" x="401" y="98.2813"/><text fill="#000000" font-family="sans-serif" font-size="14" lengthAdjust="spacingAndGlyphs" textLength="25" x="408" y="118.2764">IHM</text><rect fill="#F8F8F8" height="30.2969" style="stroke: #383838; stroke-width: 1.0;" width="39" x="401" y="1208.0938"/><text fill="#000000" font-family="sans-serif" font-size="14" lengthAdjust="spacingAndGlyphs" textLength="25" x="408" y="1228.0889">IHM</text><rect fill="#F8F8F8" height="30.2969" style="stroke: #383838; stroke-width: 1.0;" width="44" x="812.5" y="98.2813"/><text fill="#000000" font-family="sans-serif" font-size="14" lengthAdjust="spacingAndGlyphs" textLength="30" x="819.5" y="118.2764">SMA</text><rect fill="#F8F8F8" height="30.2969" style="stroke: #383838; stroke-width: 1.0;" width="44" x="812.5" y="1208.0938"/><text fill="#000000" font-family="sans-serif" font-size="14" lengthAdjust="spacingAndGlyphs" textLength="30" x="819.5" y="1228.0889">SMA</text><rect fill="#F8F8F8" height="30.2969" style="stroke: #383838; stroke-width: 1.0;" width="68" x="1214.5" y="98.2813"/><text fill="#000000" font-family="sans-serif" font-size="14" lengthAdjust="spacingAndGlyphs" textLength="54" x="1221.5" y="118.2764">Contact</text><rect fill="#F8F8F8" height="30.2969" style="stroke: #383838; stroke-width: 1.0;" width="68" x="1214.5" y="1208.0938"/><text fill="#000000" font-family="sans-serif" font-size="14" lengthAdjust="spacingAndGlyphs" textLength="54" x="1221.5" y="1228.0889">Contact</text><rect fill="#F8F8F8" height="30.2969" style="stroke: #383838; stroke-width: 1.0;" width="53" x="1292.5" y="98.2813"/><text fill="#000000" font-family="sans-serif" font-size="14" lengthAdjust="spacingAndGlyphs" textLength="39" x="1299.5" y="118.2764">Client</text><rect fill="#F8F8F8" height="30.2969" style="stroke: #383838; stroke-width: 1.0;" width="53" x="1292.5" y="1208.0938"/><text fill="#000000" font-family="sans-serif" font-size="14" lengthAdjust="spacingAndGlyphs" textLength="39" x="1299.5" y="1228.0889">Client</text><rect fill="#F8F8F8" height="30.2969" style="stroke: #383838; stroke-width: 1.0;" width="63" x="1355.5" y="98.2813"/><text fill="#000000" font-family="sans-serif" font-size="14" lengthAdjust="spacingAndGlyphs" textLength="49" x="1362.5" y="118.2764">Produit</text><rect fill="#F8F8F8" height="30.2969" style="stroke: #383838; stroke-width: 1.0;" width="63" x="1355.5" y="1208.0938"/><text fill="#000000" font-family="sans-serif" font-size="14" lengthAdjust="spacingAndGlyphs" textLength="49" x="1362.5" y="1228.0889">Produit</text><polygon fill="#383838" points="408.5,156.5781,418.5,160.5781,408.5,164.5781,412.5,160.5781" style="stroke: #383838; stroke-width: 1.0;"/><line style="stroke: #383838; stroke-width: 1.0;" x1="46.5" x2="414.5" y1="160.5781" y2="160.5781"/><text fill="#000000" font-family="sans-serif" font-size="13" lengthAdjust="spacingAndGlyphs" textLength="122" x="53.5" y="155.645">Identifier le contact</text><polygon fill="#383838" points="822.5,200.7109,832.5,204.7109,822.5,208.7109,826.5,204.7109" style="stroke: #383838; stroke-width: 1.0;"/><line style="stroke: #383838; stroke-width: 1.0;" x1="420.5" x2="828.5" y1="204.7109" y2="204.7109"/><text fill="#000000" font-family="sans-serif" font-size="13" lengthAdjust="spacingAndGlyphs" textLength="308" x="427.5" y="184.7778">IdentifierContact(denomination, nomClient, etc.)</text><text fill="#000000" font-family="sans-serif" font-size="13" lengthAdjust="spacingAndGlyphs" textLength="58" x="427.5" y="199.9106">: Contact</text><polygon fill="#383838" points="1236.5,244.9766,1246.5,248.9766,1236.5,252.9766,1240.5,248.9766" style="stroke: #383838; stroke-width: 1.0;"/><line style="stroke: #383838; stroke-width: 1.0;" x1="834.5" x2="1242.5" y1="248.9766" y2="248.9766"/><text fill="#000000" font-family="sans-serif" font-size="13" lengthAdjust="spacingAndGlyphs" textLength="308" x="841.5" y="229.0435">IdentifierContact(denomination, nomClient, etc.)</text><text fill="#000000" font-family="sans-serif" font-size="13" lengthAdjust="spacingAndGlyphs" textLength="58" x="841.5" y="244.1763">: Contact</text><polygon fill="#383838" points="408.5,289.2422,418.5,293.2422,408.5,297.2422,412.5,293.2422" style="stroke: #383838; stroke-width: 1.0;"/><line style="stroke: #383838; stroke-width: 1.0;" x1="46.5" x2="414.5" y1="293.2422" y2="293.2422"/><text fill="#000000" font-family="sans-serif" font-size="13" lengthAdjust="spacingAndGlyphs" textLength="198" x="53.5" y="273.3091">Consulter le détail d'un contact</text><text fill="#000000" font-family="sans-serif" font-size="13" lengthAdjust="spacingAndGlyphs" textLength="41" x="53.5" y="288.4419">(CU 4)</text><polygon fill="#383838" points="408.5,318.5078,418.5,322.5078,408.5,326.5078,412.5,322.5078" style="stroke: #383838; stroke-width: 1.0;"/><line style="stroke: #383838; stroke-width: 1.0;" x1="46.5" x2="414.5" y1="322.5078" y2="322.5078"/><text fill="#000000" font-family="sans-serif" font-size="13" lengthAdjust="spacingAndGlyphs" textLength="138" x="53.5" y="317.5747">Sélectionner un client</text><polygon fill="#383838" points="408.5,347.6406,418.5,351.6406,408.5,355.6406,412.5,351.6406" style="stroke: #383838; stroke-width: 1.0;"/><line style="stroke: #383838; stroke-width: 1.0;" x1="46.5" x2="414.5" y1="351.6406" y2="351.6406"/><text fill="#000000" font-family="sans-serif" font-size="13" lengthAdjust="spacingAndGlyphs" textLength="184" x="53.5" y="346.7075">Consulter le dossier du client</text><polygon fill="#383838" points="822.5,391.7734,832.5,395.7734,822.5,399.7734,826.5,395.7734" style="stroke: #383838; stroke-width: 1.0;"/><line style="stroke: #383838; stroke-width: 1.0;" x1="420.5" x2="828.5" y1="395.7734" y2="395.7734"/><text fill="#000000" font-family="sans-serif" font-size="13" lengthAdjust="spacingAndGlyphs" textLength="188" x="427.5" y="375.8403">ObtenirDossierClient(idClient)</text><text fill="#000000" font-family="sans-serif" font-size="13" lengthAdjust="spacingAndGlyphs" textLength="44" x="427.5" y="390.9731">: Client</text><polygon fill="#383838" points="1307,436.0391,1317,440.0391,1307,444.0391,1311,440.0391" style="stroke: #383838; stroke-width: 1.0;"/><line style="stroke: #383838; stroke-width: 1.0;" x1="834.5" x2="1313" y1="440.0391" y2="440.0391"/><text fill="#000000" font-family="sans-serif" font-size="13" lengthAdjust="spacingAndGlyphs" textLength="140" x="841.5" y="420.106">ObtenirClient(idClient)</text><text fill="#000000" font-family="sans-serif" font-size="13" lengthAdjust="spacingAndGlyphs" textLength="44" x="841.5" y="435.2388">: Client</text><rect fill="none" height="589.9922" style="stroke: #000000; stroke-width: 1.0;" width="1415.5" x="13" y="455.3047"/><polygon fill="#EEEEEE" points="13,455.3047,77,455.3047,77,462.3047,67,472.3047,13,472.3047,13,455.3047" style="stroke: #000000; stroke-width: 1.0;"/><text fill="#000000" font-family="sans-serif" font-size="13" font-weight="bold" lengthAdjust="spacingAndGlyphs" textLength="19" x="28" y="468.3716">alt</text><text fill="#000000" font-family="sans-serif" font-size="11" font-weight="bold" lengthAdjust="spacingAndGlyphs" textLength="121" x="92" y="467.5151">[Mise à jour client]</text><polygon fill="#383838" points="408.5,489.4375,418.5,493.4375,408.5,497.4375,412.5,493.4375" style="stroke: #383838; stroke-width: 1.0;"/><line style="stroke: #383838; stroke-width: 1.0;" x1="46.5" x2="414.5" y1="493.4375" y2="493.4375"/><text fill="#000000" font-family="sans-serif" font-size="13" lengthAdjust="spacingAndGlyphs" textLength="199" x="53.5" y="488.5044">Saisir les informations du client</text><polygon fill="#383838" points="408.5,518.5703,418.5,522.5703,408.5,526.5703,412.5,522.5703" style="stroke: #383838; stroke-width: 1.0;"/><line style="stroke: #383838; stroke-width: 1.0;" x1="46.5" x2="414.5" y1="522.5703" y2="522.5703"/><text fill="#000000" font-family="sans-serif" font-size="13" lengthAdjust="spacingAndGlyphs" textLength="188" x="53.5" y="517.6372">Mettre à jour les informations</text><polygon fill="#383838" points="822.5,562.7031,832.5,566.7031,822.5,570.7031,826.5,566.7031" style="stroke: #383838; stroke-width: 1.0;"/><line style="stroke: #383838; stroke-width: 1.0;" x1="420.5" x2="828.5" y1="566.7031" y2="566.7031"/><text fill="#000000" font-family="sans-serif" font-size="13" lengthAdjust="spacingAndGlyphs" textLength="154" x="427.5" y="546.77">MAJInfos(saisie, idClient)</text><text fill="#000000" font-family="sans-serif" font-size="13" lengthAdjust="spacingAndGlyphs" textLength="34" x="427.5" y="561.9028">: void</text><polygon fill="#383838" points="1307,606.9688,1317,610.9688,1307,614.9688,1311,610.9688" style="stroke: #383838; stroke-width: 1.0;"/><line style="stroke: #383838; stroke-width: 1.0;" x1="834.5" x2="1313" y1="610.9688" y2="610.9688"/><text fill="#000000" font-family="sans-serif" font-size="13" lengthAdjust="spacingAndGlyphs" textLength="154" x="841.5" y="591.0356">MAJInfos(saisie, idClient)</text><text fill="#000000" font-family="sans-serif" font-size="13" lengthAdjust="spacingAndGlyphs" textLength="34" x="841.5" y="606.1685">: void</text><line style="stroke: #000000; stroke-width: 1.0; stroke-dasharray: 2.0,2.0;" x1="13" x2="1428.5" y1="620.2344" y2="620.2344"/><text fill="#000000" font-family="sans-serif" font-size="11" font-weight="bold" lengthAdjust="spacingAndGlyphs" textLength="168" x="18" y="630.4448">[Proposition commerciale]</text><polygon fill="#383838" points="408.5,651.0391,418.5,655.0391,408.5,659.0391,412.5,655.0391" style="stroke: #383838; stroke-width: 1.0;"/><line style="stroke: #383838; stroke-width: 1.0;" x1="46.5" x2="414.5" y1="655.0391" y2="655.0391"/><text fill="#000000" font-family="sans-serif" font-size="13" lengthAdjust="spacingAndGlyphs" textLength="173" x="53.5" y="650.106">Consulter la liste des offres</text><polygon fill="#383838" points="822.5,695.1719,832.5,699.1719,822.5,703.1719,826.5,699.1719" style="stroke: #383838; stroke-width: 1.0;"/><line style="stroke: #383838; stroke-width: 1.0;" x1="420.5" x2="828.5" y1="699.1719" y2="699.1719"/><text fill="#000000" font-family="sans-serif" font-size="13" lengthAdjust="spacingAndGlyphs" textLength="121" x="427.5" y="679.2388">ObtenirOffres(void)</text><text fill="#000000" font-family="sans-serif" font-size="13" lengthAdjust="spacingAndGlyphs" textLength="91" x="427.5" y="694.3716">: Liste&lt;Offre&gt;</text><polygon fill="#383838" points="1375,739.4375,1385,743.4375,1375,747.4375,1379,743.4375" style="stroke: #383838; stroke-width: 1.0;"/><line style="stroke: #383838; stroke-width: 1.0;" x1="834.5" x2="1381" y1="743.4375" y2="743.4375"/><text fill="#000000" font-family="sans-serif" font-size="13" lengthAdjust="spacingAndGlyphs" textLength="121" x="841.5" y="723.5044">ObtenirOffres(void)</text><text fill="#000000" font-family="sans-serif" font-size="13" lengthAdjust="spacingAndGlyphs" textLength="91" x="841.5" y="738.6372">: Liste&lt;Offre&gt;</text><polygon fill="#383838" points="408.5,768.7031,418.5,772.7031,408.5,776.7031,412.5,772.7031" style="stroke: #383838; stroke-width: 1.0;"/><line style="stroke: #383838; stroke-width: 1.0;" x1="46.5" x2="414.5" y1="772.7031" y2="772.7031"/><text fill="#000000" font-family="sans-serif" font-size="13" lengthAdjust="spacingAndGlyphs" textLength="141" x="53.5" y="767.77">Sélectionner une offre</text><polygon fill="#383838" points="408.5,797.8359,418.5,801.8359,408.5,805.8359,412.5,801.8359" style="stroke: #383838; stroke-width: 1.0;"/><line style="stroke: #383838; stroke-width: 1.0;" x1="46.5" x2="414.5" y1="801.8359" y2="801.8359"/><text fill="#000000" font-family="sans-serif" font-size="13" lengthAdjust="spacingAndGlyphs" textLength="245" x="53.5" y="796.9028">Voir le détails d'une offre du catalogue</text><polygon fill="#383838" points="822.5,841.9688,832.5,845.9688,822.5,849.9688,826.5,845.9688" style="stroke: #383838; stroke-width: 1.0;"/><line style="stroke: #383838; stroke-width: 1.0;" x1="420.5" x2="828.5" y1="845.9688" y2="845.9688"/><text fill="#000000" font-family="sans-serif" font-size="13" lengthAdjust="spacingAndGlyphs" textLength="174" x="427.5" y="826.0356">ObtenirDetailsOffre(idOffre)</text><text fill="#000000" font-family="sans-serif" font-size="13" lengthAdjust="spacingAndGlyphs" textLength="237" x="427.5" y="841.1685">: Liste&lt;Produit&gt;, commentairesOffre</text><polygon fill="#383838" points="1375,886.2344,1385,890.2344,1375,894.2344,1379,890.2344" style="stroke: #383838; stroke-width: 1.0;"/><line style="stroke: #383838; stroke-width: 1.0;" x1="834.5" x2="1381" y1="890.2344" y2="890.2344"/><text fill="#000000" font-family="sans-serif" font-size="13" lengthAdjust="spacingAndGlyphs" textLength="174" x="841.5" y="870.3013">ObtenirDetailsOffre(idOffre)</text><text fill="#000000" font-family="sans-serif" font-size="13" lengthAdjust="spacingAndGlyphs" textLength="237" x="841.5" y="885.4341">: Liste&lt;Produit&gt;, commentairesOffre</text><polygon fill="#383838" points="408.5,915.5,418.5,919.5,408.5,923.5,412.5,919.5" style="stroke: #383838; stroke-width: 1.0;"/><line style="stroke: #383838; stroke-width: 1.0;" x1="46.5" x2="414.5" y1="919.5" y2="919.5"/><text fill="#000000" font-family="sans-serif" font-size="13" lengthAdjust="spacingAndGlyphs" textLength="195" x="53.5" y="914.5669">Rédiger une proposition d'offre</text><polygon fill="#383838" points="408.5,944.6328,418.5,948.6328,408.5,952.6328,412.5,948.6328" style="stroke: #383838; stroke-width: 1.0;"/><line style="stroke: #383838; stroke-width: 1.0;" x1="46.5" x2="414.5" y1="948.6328" y2="948.6328"/><text fill="#000000" font-family="sans-serif" font-size="13" lengthAdjust="spacingAndGlyphs" textLength="225" x="53.5" y="943.6997">Créer une proposition commerciale</text><polygon fill="#383838" points="822.5,988.7656,832.5,992.7656,822.5,996.7656,826.5,992.7656" style="stroke: #383838; stroke-width: 1.0;"/><line style="stroke: #383838; stroke-width: 1.0;" x1="420.5" x2="828.5" y1="992.7656" y2="992.7656"/><text fill="#000000" font-family="sans-serif" font-size="13" lengthAdjust="spacingAndGlyphs" textLength="323" x="427.5" y="972.8325">AjouterPropositionCommerciale(idOffre, idContact)</text><text fill="#000000" font-family="sans-serif" font-size="13" lengthAdjust="spacingAndGlyphs" textLength="34" x="427.5" y="987.9653">: void</text><polygon fill="#383838" points="1236.5,1033.0313,1246.5,1037.0313,1236.5,1041.0313,1240.5,1037.0313" style="stroke: #383838; stroke-width: 1.0;"/><line style="stroke: #383838; stroke-width: 1.0;" x1="834.5" x2="1242.5" y1="1037.0313" y2="1037.0313"/><text fill="#000000" font-family="sans-serif" font-size="13" lengthAdjust="spacingAndGlyphs" textLength="323" x="841.5" y="1017.0981">AjouterPropositionCommerciale(idContact, idOffre)</text><text fill="#000000" font-family="sans-serif" font-size="13" lengthAdjust="spacingAndGlyphs" textLength="34" x="841.5" y="1032.231">: void</text><polygon fill="#383838" points="408.5,1069.2969,418.5,1073.2969,408.5,1077.2969,412.5,1073.2969" style="stroke: #383838; stroke-width: 1.0;"/><line style="stroke: #383838; stroke-width: 1.0;" x1="46.5" x2="414.5" y1="1073.2969" y2="1073.2969"/><text fill="#000000" font-family="sans-serif" font-size="13" lengthAdjust="spacingAndGlyphs" textLength="350" x="53.5" y="1068.3638">Saisir les annotations du compte-rendu de préparation</text><polygon fill="#383838" points="408.5,1098.4297,418.5,1102.4297,408.5,1106.4297,412.5,1102.4297" style="stroke: #383838; stroke-width: 1.0;"/><line style="stroke: #383838; stroke-width: 1.0;" x1="46.5" x2="414.5" y1="1102.4297" y2="1102.4297"/><text fill="#000000" font-family="sans-serif" font-size="13" lengthAdjust="spacingAndGlyphs" textLength="277" x="53.5" y="1097.4966">Enregistrer le compte rendu de préparation</text><polygon fill="#383838" points="822.5,1142.5625,832.5,1146.5625,822.5,1150.5625,826.5,1146.5625" style="stroke: #383838; stroke-width: 1.0;"/><line style="stroke: #383838; stroke-width: 1.0;" x1="420.5" x2="828.5" y1="1146.5625" y2="1146.5625"/><text fill="#000000" font-family="sans-serif" font-size="13" lengthAdjust="spacingAndGlyphs" textLength="390" x="427.5" y="1126.6294">EnregistrerCompteRenduPreparation(annotations, idContact)</text><text fill="#000000" font-family="sans-serif" font-size="13" lengthAdjust="spacingAndGlyphs" textLength="34" x="427.5" y="1141.7622">: void</text><polygon fill="#383838" points="1236.5,1186.8281,1246.5,1190.8281,1236.5,1194.8281,1240.5,1190.8281" style="stroke: #383838; stroke-width: 1.0;"/><line style="stroke: #383838; stroke-width: 1.0;" x1="834.5" x2="1242.5" y1="1190.8281" y2="1190.8281"/><text fill="#000000" font-family="sans-serif" font-size="13" lengthAdjust="spacingAndGlyphs" textLength="390" x="841.5" y="1170.895">EnregistrerCompteRenduPreparation(annotations, idContact)</text><text fill="#000000" font-family="sans-serif" font-size="13" lengthAdjust="spacingAndGlyphs" textLength="34" x="841.5" y="1186.0278">: void</text></g></svg>