<?xml version="1.0" encoding="UTF-8" standalone="yes"?><svg xmlns="http://www.w3.org/2000/svg" xmlns:xlink="http://www.w3.org/1999/xlink" height="683px" style="width:1897px;height:683px;" version="1.1" viewBox="0 0 1897 683" width="1897px"><defs/><g><text fill="#000000" font-family="sans-serif" font-size="20" lengthAdjust="spacingAndGlyphs" textLength="423" x="743" y="28.5645">Diagramme de Séquence Détaillé du CU 5</text><line style="stroke: none; stroke-width: 1.0;" x1="743" x2="1166" y1="38.2813" y2="38.2813"/><rect fill="#FFFFFF" height="369.7969" style="stroke: #000000; stroke-width: 1.0;" width="1883" x="13" y="219.9766"/><rect fill="#FFFFFF" height="176.7344" style="stroke: none; stroke-width: 1.0;" width="1883" x="13" y="413.0391"/><line style="stroke: #383838; stroke-width: 1.0; stroke-dasharray: 5.0,5.0;" x1="76" x2="76" y1="129.5781" y2="606.7734"/><line style="stroke: #383838; stroke-width: 1.0; stroke-dasharray: 5.0,5.0;" x1="353.5" x2="353.5" y1="129.5781" y2="606.7734"/><line style="stroke: #383838; stroke-width: 1.0; stroke-dasharray: 5.0,5.0;" x1="953" x2="953" y1="129.5781" y2="606.7734"/><line style="stroke: #383838; stroke-width: 1.0; stroke-dasharray: 5.0,5.0;" x1="1502.5" x2="1502.5" y1="129.5781" y2="606.7734"/><line style="stroke: #383838; stroke-width: 1.0; stroke-dasharray: 5.0,5.0;" x1="1847" x2="1847" y1="129.5781" y2="606.7734"/><text fill="#000000" font-family="sans-serif" font-size="14" lengthAdjust="spacingAndGlyphs" textLength="100" x="23" y="126.2764">Chef d'agence</text><ellipse cx="76" cy="60.2813" fill="#F8F8F8" rx="8" ry="8" style="stroke: #383838; stroke-width: 2.0;"/><path d="M76,68.2813 L76,95.2813 M63,76.2813 L89,76.2813 M76,95.2813 L63,110.2813 M76,95.2813 L89,110.2813 " fill="#F8F8F8" style="stroke: #383838; stroke-width: 2.0;"/><text fill="#000000" font-family="sans-serif" font-size="14" lengthAdjust="spacingAndGlyphs" textLength="100" x="23" y="618.7686">Chef d'agence</text><ellipse cx="76" cy="632.0703" fill="#F8F8F8" rx="8" ry="8" style="stroke: #383838; stroke-width: 2.0;"/><path d="M76,640.0703 L76,667.0703 M63,648.0703 L89,648.0703 M76,667.0703 L63,682.0703 M76,667.0703 L89,682.0703 " fill="#F8F8F8" style="stroke: #383838; stroke-width: 2.0;"/><rect fill="#F8F8F8" height="30.2969" style="stroke: #383838; stroke-width: 1.0;" width="39" x="334.5" y="98.2813"/><text fill="#000000" font-family="sans-serif" font-size="14" lengthAdjust="spacingAndGlyphs" textLength="25" x="341.5" y="118.2764">IHM</text><rect fill="#F8F8F8" height="30.2969" style="stroke: #383838; stroke-width: 1.0;" width="39" x="334.5" y="605.7734"/><text fill="#000000" font-family="sans-serif" font-size="14" lengthAdjust="spacingAndGlyphs" textLength="25" x="341.5" y="625.7686">IHM</text><rect fill="#F8F8F8" height="30.2969" style="stroke: #383838; stroke-width: 1.0;" width="44" x="931" y="98.2813"/><text fill="#000000" font-family="sans-serif" font-size="14" lengthAdjust="spacingAndGlyphs" textLength="30" x="938" y="118.2764">SMA</text><rect fill="#F8F8F8" height="30.2969" style="stroke: #383838; stroke-width: 1.0;" width="44" x="931" y="605.7734"/><text fill="#000000" font-family="sans-serif" font-size="14" lengthAdjust="spacingAndGlyphs" textLength="30" x="938" y="625.7686">SMA</text><rect fill="#F8F8F8" height="30.2969" style="stroke: #383838; stroke-width: 1.0;" width="67" x="1469.5" y="98.2813"/><text fill="#000000" font-family="sans-serif" font-size="14" lengthAdjust="spacingAndGlyphs" textLength="53" x="1476.5" y="118.2764">Agenda</text><rect fill="#F8F8F8" height="30.2969" style="stroke: #383838; stroke-width: 1.0;" width="67" x="1469.5" y="605.7734"/><text fill="#000000" font-family="sans-serif" font-size="14" lengthAdjust="spacingAndGlyphs" textLength="53" x="1476.5" y="625.7686">Agenda</text><rect fill="#F8F8F8" height="30.2969" style="stroke: #383838; stroke-width: 1.0;" width="78" x="1808" y="98.2813"/><text fill="#000000" font-family="sans-serif" font-size="14" lengthAdjust="spacingAndGlyphs" textLength="64" x="1815" y="118.2764">Structure</text><rect fill="#F8F8F8" height="30.2969" style="stroke: #383838; stroke-width: 1.0;" width="78" x="1808" y="605.7734"/><text fill="#000000" font-family="sans-serif" font-size="14" lengthAdjust="spacingAndGlyphs" textLength="64" x="1815" y="625.7686">Structure</text><polygon fill="#383838" points="342,171.5781,352,175.5781,342,179.5781,346,175.5781" style="stroke: #383838; stroke-width: 1.0;"/><line style="stroke: #383838; stroke-width: 1.0;" x1="76" x2="348" y1="175.5781" y2="175.5781"/><text fill="#000000" font-family="sans-serif" font-size="13" lengthAdjust="spacingAndGlyphs" textLength="119" x="83" y="155.645">Consulter l'agenda</text><text fill="#000000" font-family="sans-serif" font-size="13" lengthAdjust="spacingAndGlyphs" textLength="41" x="83" y="170.7778">(CU 7)</text><polygon fill="#383838" points="342,200.8438,352,204.8438,342,208.8438,346,204.8438" style="stroke: #383838; stroke-width: 1.0;"/><line style="stroke: #383838; stroke-width: 1.0;" x1="76" x2="348" y1="204.8438" y2="204.8438"/><text fill="#000000" font-family="sans-serif" font-size="13" lengthAdjust="spacingAndGlyphs" textLength="184" x="83" y="199.9106">Passer en mode planification</text><rect fill="none" height="369.7969" style="stroke: #000000; stroke-width: 1.0;" width="1883" x="13" y="219.9766"/><polygon fill="#EEEEEE" points="13,219.9766,77,219.9766,77,226.9766,67,236.9766,13,236.9766,13,219.9766" style="stroke: #000000; stroke-width: 1.0;"/><text fill="#000000" font-family="sans-serif" font-size="13" font-weight="bold" lengthAdjust="spacingAndGlyphs" textLength="19" x="28" y="233.0435">alt</text><text fill="#000000" font-family="sans-serif" font-size="11" font-weight="bold" lengthAdjust="spacingAndGlyphs" textLength="124" x="92" y="232.187">[ajouter une plage]</text><polygon fill="#383838" points="342,254.1094,352,258.1094,342,262.1094,346,258.1094" style="stroke: #383838; stroke-width: 1.0;"/><line style="stroke: #383838; stroke-width: 1.0;" x1="76" x2="348" y1="258.1094" y2="258.1094"/><text fill="#000000" font-family="sans-serif" font-size="13" lengthAdjust="spacingAndGlyphs" textLength="227" x="83" y="253.1763">Sélectionner une plage horaire libre</text><polygon fill="#383838" points="342,283.2422,352,287.2422,342,291.2422,346,287.2422" style="stroke: #383838; stroke-width: 1.0;"/><line style="stroke: #383838; stroke-width: 1.0;" x1="76" x2="348" y1="287.2422" y2="287.2422"/><text fill="#000000" font-family="sans-serif" font-size="13" lengthAdjust="spacingAndGlyphs" textLength="254" x="83" y="282.3091">Sélectionner le type d'activité à planifier</text><polygon fill="#383838" points="342,312.375,352,316.375,342,320.375,346,316.375" style="stroke: #383838; stroke-width: 1.0;"/><line style="stroke: #383838; stroke-width: 1.0;" x1="76" x2="348" y1="316.375" y2="316.375"/><text fill="#000000" font-family="sans-serif" font-size="13" lengthAdjust="spacingAndGlyphs" textLength="154" x="83" y="311.4419">Créer une plage agenda</text><polygon fill="#383838" points="941,356.5078,951,360.5078,941,364.5078,945,360.5078" style="stroke: #383838; stroke-width: 1.0;"/><line style="stroke: #383838; stroke-width: 1.0;" x1="354" x2="947" y1="360.5078" y2="360.5078"/><text fill="#000000" font-family="sans-serif" font-size="13" lengthAdjust="spacingAndGlyphs" textLength="575" x="361" y="340.5747">SM11 - CreerPlageAgenda(idAgent, idActivite, datePlageHoraireDeb, datePlageHoraireFin)</text><text fill="#000000" font-family="sans-serif" font-size="13" lengthAdjust="spacingAndGlyphs" textLength="34" x="361" y="355.7075">: void</text><polygon fill="#383838" points="1491,400.7734,1501,404.7734,1491,408.7734,1495,404.7734" style="stroke: #383838; stroke-width: 1.0;"/><line style="stroke: #383838; stroke-width: 1.0;" x1="953" x2="1497" y1="404.7734" y2="404.7734"/><text fill="#000000" font-family="sans-serif" font-size="13" lengthAdjust="spacingAndGlyphs" textLength="526" x="960" y="384.8403">CreerPlageAgenda(idAgent, idActivite, datePlageHoraireDeb, datePlageHoraireFin)</text><text fill="#000000" font-family="sans-serif" font-size="13" lengthAdjust="spacingAndGlyphs" textLength="34" x="960" y="399.9731">: void</text><line style="stroke: #000000; stroke-width: 1.0; stroke-dasharray: 2.0,2.0;" x1="13" x2="1896" y1="414.0391" y2="414.0391"/><text fill="#000000" font-family="sans-serif" font-size="11" font-weight="bold" lengthAdjust="spacingAndGlyphs" textLength="165" x="18" y="424.2495">[terminer la planification]</text><polygon fill="#383838" points="342,444.8438,352,448.8438,342,452.8438,346,448.8438" style="stroke: #383838; stroke-width: 1.0;"/><line style="stroke: #383838; stroke-width: 1.0;" x1="76" x2="348" y1="448.8438" y2="448.8438"/><text fill="#000000" font-family="sans-serif" font-size="13" lengthAdjust="spacingAndGlyphs" textLength="239" x="83" y="443.9106">Valider et sortir du mode planification</text><polygon fill="#383838" points="941,488.9766,951,492.9766,941,496.9766,945,492.9766" style="stroke: #383838; stroke-width: 1.0;"/><line style="stroke: #383838; stroke-width: 1.0;" x1="354" x2="947" y1="492.9766" y2="492.9766"/><text fill="#000000" font-family="sans-serif" font-size="13" lengthAdjust="spacingAndGlyphs" textLength="423" x="361" y="473.0435">SM12 - MajNbContactsPotentiels(idAgent, Liste&lt;idPlageAgenda&gt;)</text><text fill="#000000" font-family="sans-serif" font-size="13" lengthAdjust="spacingAndGlyphs" textLength="34" x="361" y="488.1763">: void</text><polygon fill="#383838" points="1491,533.2422,1501,537.2422,1491,541.2422,1495,537.2422" style="stroke: #383838; stroke-width: 1.0;"/><line style="stroke: #383838; stroke-width: 1.0;" x1="953" x2="1497" y1="537.2422" y2="537.2422"/><text fill="#000000" font-family="sans-serif" font-size="13" lengthAdjust="spacingAndGlyphs" textLength="299" x="960" y="517.3091">ObtenirTempsPourRdv(Liste&lt;idPlageAgenda&gt;)</text><text fill="#000000" font-family="sans-serif" font-size="13" lengthAdjust="spacingAndGlyphs" textLength="101" x="960" y="532.4419">: tempsPourRdv</text><polygon fill="#383838" points="1835,577.5078,1845,581.5078,1835,585.5078,1839,581.5078" style="stroke: #383838; stroke-width: 1.0;"/><line style="stroke: #383838; stroke-width: 1.0;" x1="1503" x2="1841" y1="581.5078" y2="581.5078"/><text fill="#000000" font-family="sans-serif" font-size="13" lengthAdjust="spacingAndGlyphs" textLength="320" x="1510" y="561.5747">MajNbContactsPotentiels(idAgent, tempsPourRdv)</text><text fill="#000000" font-family="sans-serif" font-size="13" lengthAdjust="spacingAndGlyphs" textLength="34" x="1510" y="576.7075">: void</text></g></svg>