<?xml version="1.0" encoding="UTF-8" standalone="yes"?><svg xmlns="http://www.w3.org/2000/svg" xmlns:xlink="http://www.w3.org/1999/xlink" height="1426px" style="width:1390px;height:1426px;" version="1.1" viewBox="0 0 1390 1426" width="1390px"><defs/><g><text fill="#000000" font-family="sans-serif" font-size="20" lengthAdjust="spacingAndGlyphs" textLength="418" x="492" y="28.5645">Diagramme de séquence détaillé du CU 7</text><line style="stroke: none; stroke-width: 1.0;" x1="492" x2="910" y1="38.2813" y2="38.2813"/><rect fill="#FFFFFF" height="1039.0625" style="stroke: #000000; stroke-width: 1.0;" width="1376" x="13" y="294.5078"/><rect fill="#FFFFFF" height="191.8672" style="stroke: none; stroke-width: 1.0;" width="1376" x="13" y="606.3672"/><rect fill="#FFFFFF" height="60.0703" style="stroke: none; stroke-width: 1.0;" width="1376" x="13" y="798.2344"/><rect fill="#FFFFFF" height="475.2656" style="stroke: none; stroke-width: 1.0;" width="1376" x="13" y="858.3047"/><rect fill="#FFFFFF" height="254.2656" style="stroke: #000000; stroke-width: 1.0;" width="1278" x="23" y="1072.3047"/><rect fill="#FFFFFF" height="60.0703" style="stroke: none; stroke-width: 1.0;" width="1278" x="23" y="1266.5"/><line style="stroke: #383838; stroke-width: 1.0; stroke-dasharray: 5.0,5.0;" x1="56" x2="56" y1="129.5781" y2="1350.5703"/><line style="stroke: #383838; stroke-width: 1.0; stroke-dasharray: 5.0,5.0;" x1="465" x2="465" y1="129.5781" y2="1350.5703"/><line style="stroke: #383838; stroke-width: 1.0; stroke-dasharray: 5.0,5.0;" x1="861.5" x2="861.5" y1="129.5781" y2="1350.5703"/><line style="stroke: #383838; stroke-width: 1.0; stroke-dasharray: 5.0,5.0;" x1="1257" x2="1257" y1="129.5781" y2="1350.5703"/><line style="stroke: #383838; stroke-width: 1.0; stroke-dasharray: 5.0,5.0;" x1="1340" x2="1340" y1="129.5781" y2="1350.5703"/><text fill="#000000" font-family="sans-serif" font-size="14" lengthAdjust="spacingAndGlyphs" textLength="41" x="33" y="126.2764">Agent</text><ellipse cx="56.5" cy="60.2813" fill="#F8F8F8" rx="8" ry="8" style="stroke: #383838; stroke-width: 2.0;"/><path d="M56.5,68.2813 L56.5,95.2813 M43.5,76.2813 L69.5,76.2813 M56.5,95.2813 L43.5,110.2813 M56.5,95.2813 L69.5,110.2813 " fill="#F8F8F8" style="stroke: #383838; stroke-width: 2.0;"/><text fill="#000000" font-family="sans-serif" font-size="14" lengthAdjust="spacingAndGlyphs" textLength="41" x="33" y="1362.5654">Agent</text><ellipse cx="56.5" cy="1375.8672" fill="#F8F8F8" rx="8" ry="8" style="stroke: #383838; stroke-width: 2.0;"/><path d="M56.5,1383.8672 L56.5,1410.8672 M43.5,1391.8672 L69.5,1391.8672 M56.5,1410.8672 L43.5,1425.8672 M56.5,1410.8672 L69.5,1425.8672 " fill="#F8F8F8" style="stroke: #383838; stroke-width: 2.0;"/><rect fill="#F8F8F8" height="30.2969" style="stroke: #383838; stroke-width: 1.0;" width="39" x="446" y="98.2813"/><text fill="#000000" font-family="sans-serif" font-size="14" lengthAdjust="spacingAndGlyphs" textLength="25" x="453" y="118.2764">IHM</text><rect fill="#F8F8F8" height="30.2969" style="stroke: #383838; stroke-width: 1.0;" width="39" x="446" y="1349.5703"/><text fill="#000000" font-family="sans-serif" font-size="14" lengthAdjust="spacingAndGlyphs" textLength="25" x="453" y="1369.5654">IHM</text><rect fill="#F8F8F8" height="30.2969" style="stroke: #383838; stroke-width: 1.0;" width="44" x="839.5" y="98.2813"/><text fill="#000000" font-family="sans-serif" font-size="14" lengthAdjust="spacingAndGlyphs" textLength="30" x="846.5" y="118.2764">SMA</text><rect fill="#F8F8F8" height="30.2969" style="stroke: #383838; stroke-width: 1.0;" width="44" x="839.5" y="1349.5703"/><text fill="#000000" font-family="sans-serif" font-size="14" lengthAdjust="spacingAndGlyphs" textLength="30" x="846.5" y="1369.5654">SMA</text><rect fill="#F8F8F8" height="30.2969" style="stroke: #383838; stroke-width: 1.0;" width="67" x="1224" y="98.2813"/><text fill="#000000" font-family="sans-serif" font-size="14" lengthAdjust="spacingAndGlyphs" textLength="53" x="1231" y="118.2764">Agenda</text><rect fill="#F8F8F8" height="30.2969" style="stroke: #383838; stroke-width: 1.0;" width="67" x="1224" y="1349.5703"/><text fill="#000000" font-family="sans-serif" font-size="14" lengthAdjust="spacingAndGlyphs" textLength="53" x="1231" y="1369.5654">Agenda</text><rect fill="#F8F8F8" height="30.2969" style="stroke: #383838; stroke-width: 1.0;" width="78" x="1301" y="98.2813"/><text fill="#000000" font-family="sans-serif" font-size="14" lengthAdjust="spacingAndGlyphs" textLength="64" x="1308" y="118.2764">Structure</text><rect fill="#F8F8F8" height="30.2969" style="stroke: #383838; stroke-width: 1.0;" width="78" x="1301" y="1349.5703"/><text fill="#000000" font-family="sans-serif" font-size="14" lengthAdjust="spacingAndGlyphs" textLength="64" x="1308" y="1369.5654">Structure</text><polygon fill="#383838" points="453.5,156.5781,463.5,160.5781,453.5,164.5781,457.5,160.5781" style="stroke: #383838; stroke-width: 1.0;"/><line style="stroke: #383838; stroke-width: 1.0;" x1="56.5" x2="459.5" y1="160.5781" y2="160.5781"/><text fill="#000000" font-family="sans-serif" font-size="13" lengthAdjust="spacingAndGlyphs" textLength="385" x="63.5" y="155.645">Consultation de l'agenda hebdomadaire de l'agent connecté</text><polygon fill="#383838" points="849.5,215.7109,859.5,219.7109,849.5,223.7109,853.5,219.7109" style="stroke: #383838; stroke-width: 1.0;"/><line style="stroke: #383838; stroke-width: 1.0;" x1="465.5" x2="855.5" y1="219.7109" y2="219.7109"/><text fill="#000000" font-family="sans-serif" font-size="13" lengthAdjust="spacingAndGlyphs" textLength="335" x="472.5" y="184.7778">ObtenirAgendaAgent(idAgent, numSemaine, annee)</text><text fill="#000000" font-family="sans-serif" font-size="13" lengthAdjust="spacingAndGlyphs" textLength="323" x="472.5" y="199.9106">: Liste&lt;PlageAgenda&gt;, Liste&lt;TacheElementaire&gt;,</text><text fill="#000000" font-family="sans-serif" font-size="13" lengthAdjust="spacingAndGlyphs" textLength="129" x="480.5" y="215.0435">Liste&lt;TypeActivite&gt;</text><polygon fill="#383838" points="1245.5,275.1094,1255.5,279.1094,1245.5,283.1094,1249.5,279.1094" style="stroke: #383838; stroke-width: 1.0;"/><line style="stroke: #383838; stroke-width: 1.0;" x1="861.5" x2="1251.5" y1="279.1094" y2="279.1094"/><text fill="#000000" font-family="sans-serif" font-size="13" lengthAdjust="spacingAndGlyphs" textLength="335" x="868.5" y="244.1763">ObtenirAgendaAgent(idAgent, numSemaine, annee)</text><text fill="#000000" font-family="sans-serif" font-size="13" lengthAdjust="spacingAndGlyphs" textLength="312" x="868.5" y="259.3091">: Liste&lt;PlageAgenda&gt;, Liste&lt;TacheElementaire,</text><text fill="#000000" font-family="sans-serif" font-size="13" lengthAdjust="spacingAndGlyphs" textLength="129" x="876.5" y="274.4419">Liste&lt;TypeActivite&gt;</text><rect fill="none" height="1039.0625" style="stroke: #000000; stroke-width: 1.0;" width="1376" x="13" y="294.5078"/><polygon fill="#EEEEEE" points="13,294.5078,77,294.5078,77,301.5078,67,311.5078,13,311.5078,13,294.5078" style="stroke: #000000; stroke-width: 1.0;"/><text fill="#000000" font-family="sans-serif" font-size="13" font-weight="bold" lengthAdjust="spacingAndGlyphs" textLength="19" x="28" y="307.5747">alt</text><text fill="#000000" font-family="sans-serif" font-size="11" font-weight="bold" lengthAdjust="spacingAndGlyphs" textLength="103" x="92" y="306.7183">[changer agent]</text><polygon fill="#383838" points="453.5,328.6406,463.5,332.6406,453.5,336.6406,457.5,332.6406" style="stroke: #383838; stroke-width: 1.0;"/><line style="stroke: #383838; stroke-width: 1.0;" x1="56.5" x2="459.5" y1="332.6406" y2="332.6406"/><text fill="#000000" font-family="sans-serif" font-size="13" lengthAdjust="spacingAndGlyphs" textLength="258" x="63.5" y="327.7075">Consulter la liste des agents de l'agence</text><polygon fill="#383838" points="849.5,372.7734,859.5,376.7734,849.5,380.7734,853.5,376.7734" style="stroke: #383838; stroke-width: 1.0;"/><line style="stroke: #383838; stroke-width: 1.0;" x1="465.5" x2="855.5" y1="376.7734" y2="376.7734"/><text fill="#000000" font-family="sans-serif" font-size="13" lengthAdjust="spacingAndGlyphs" textLength="161" x="472.5" y="356.8403">ObtenirAgents(idAgence)</text><text fill="#000000" font-family="sans-serif" font-size="13" lengthAdjust="spacingAndGlyphs" textLength="98" x="472.5" y="371.9731">: Liste&lt;Agent&gt;</text><polygon fill="#383838" points="1328,417.0391,1338,421.0391,1328,425.0391,1332,421.0391" style="stroke: #383838; stroke-width: 1.0;"/><line style="stroke: #383838; stroke-width: 1.0;" x1="861.5" x2="1334" y1="421.0391" y2="421.0391"/><text fill="#000000" font-family="sans-serif" font-size="13" lengthAdjust="spacingAndGlyphs" textLength="161" x="868.5" y="401.106">ObtenirAgents(idAgence)</text><text fill="#000000" font-family="sans-serif" font-size="13" lengthAdjust="spacingAndGlyphs" textLength="98" x="868.5" y="416.2388">: Liste&lt;Agent&gt;</text><polygon fill="#383838" points="453.5,446.3047,463.5,450.3047,453.5,454.3047,457.5,450.3047" style="stroke: #383838; stroke-width: 1.0;"/><line style="stroke: #383838; stroke-width: 1.0;" x1="56.5" x2="459.5" y1="450.3047" y2="450.3047"/><text fill="#000000" font-family="sans-serif" font-size="13" lengthAdjust="spacingAndGlyphs" textLength="141" x="63.5" y="445.3716">Sélectionner un agent</text><polygon fill="#383838" points="453.5,475.4375,463.5,479.4375,453.5,483.4375,457.5,479.4375" style="stroke: #383838; stroke-width: 1.0;"/><line style="stroke: #383838; stroke-width: 1.0;" x1="56.5" x2="459.5" y1="479.4375" y2="479.4375"/><text fill="#000000" font-family="sans-serif" font-size="13" lengthAdjust="spacingAndGlyphs" textLength="106" x="63.5" y="474.5044">Changer d'agent</text><polygon fill="#383838" points="849.5,534.5703,859.5,538.5703,849.5,542.5703,853.5,538.5703" style="stroke: #383838; stroke-width: 1.0;"/><line style="stroke: #383838; stroke-width: 1.0;" x1="465.5" x2="855.5" y1="538.5703" y2="538.5703"/><text fill="#000000" font-family="sans-serif" font-size="13" lengthAdjust="spacingAndGlyphs" textLength="335" x="472.5" y="503.6372">ObtenirAgendaAgent(idAgent, numSemaine, annee)</text><text fill="#000000" font-family="sans-serif" font-size="13" lengthAdjust="spacingAndGlyphs" textLength="323" x="472.5" y="518.77">: Liste&lt;PlageAgenda&gt;, Liste&lt;TacheElementaire&gt;,</text><text fill="#000000" font-family="sans-serif" font-size="13" lengthAdjust="spacingAndGlyphs" textLength="129" x="480.5" y="533.9028">Liste&lt;TypeActivite&gt;</text><polygon fill="#383838" points="1245.5,593.9688,1255.5,597.9688,1245.5,601.9688,1249.5,597.9688" style="stroke: #383838; stroke-width: 1.0;"/><line style="stroke: #383838; stroke-width: 1.0;" x1="861.5" x2="1251.5" y1="597.9688" y2="597.9688"/><text fill="#000000" font-family="sans-serif" font-size="13" lengthAdjust="spacingAndGlyphs" textLength="335" x="868.5" y="563.0356">ObtenirAgendaAgent(idAgent, numSemaine, annee)</text><text fill="#000000" font-family="sans-serif" font-size="13" lengthAdjust="spacingAndGlyphs" textLength="312" x="868.5" y="578.1685">: Liste&lt;PlageAgenda&gt;, Liste&lt;TacheElementaire,</text><text fill="#000000" font-family="sans-serif" font-size="13" lengthAdjust="spacingAndGlyphs" textLength="129" x="876.5" y="593.3013">Liste&lt;TypeActivite&gt;</text><line style="stroke: #000000; stroke-width: 1.0; stroke-dasharray: 2.0,2.0;" x1="13" x2="1389" y1="607.3672" y2="607.3672"/><text fill="#000000" font-family="sans-serif" font-size="11" font-weight="bold" lengthAdjust="spacingAndGlyphs" textLength="120" x="18" y="617.5776">[changer semaine]</text><polygon fill="#383838" points="453.5,638.1719,463.5,642.1719,453.5,646.1719,457.5,642.1719" style="stroke: #383838; stroke-width: 1.0;"/><line style="stroke: #383838; stroke-width: 1.0;" x1="56.5" x2="459.5" y1="642.1719" y2="642.1719"/><text fill="#000000" font-family="sans-serif" font-size="13" lengthAdjust="spacingAndGlyphs" textLength="167" x="63.5" y="637.2388">Sélectionner une semaine</text><polygon fill="#383838" points="453.5,667.3047,463.5,671.3047,453.5,675.3047,457.5,671.3047" style="stroke: #383838; stroke-width: 1.0;"/><line style="stroke: #383838; stroke-width: 1.0;" x1="56.5" x2="459.5" y1="671.3047" y2="671.3047"/><text fill="#000000" font-family="sans-serif" font-size="13" lengthAdjust="spacingAndGlyphs" textLength="133" x="63.5" y="666.3716">Changer de semaine</text><polygon fill="#383838" points="849.5,726.4375,859.5,730.4375,849.5,734.4375,853.5,730.4375" style="stroke: #383838; stroke-width: 1.0;"/><line style="stroke: #383838; stroke-width: 1.0;" x1="465.5" x2="855.5" y1="730.4375" y2="730.4375"/><text fill="#000000" font-family="sans-serif" font-size="13" lengthAdjust="spacingAndGlyphs" textLength="335" x="472.5" y="695.5044">ObtenirAgendaAgent(idAgent, numSemaine, annee)</text><text fill="#000000" font-family="sans-serif" font-size="13" lengthAdjust="spacingAndGlyphs" textLength="323" x="472.5" y="710.6372">: Liste&lt;PlageAgenda&gt;, Liste&lt;TacheElementaire&gt;,</text><text fill="#000000" font-family="sans-serif" font-size="13" lengthAdjust="spacingAndGlyphs" textLength="129" x="480.5" y="725.77">Liste&lt;TypeActivite&gt;</text><polygon fill="#383838" points="1245.5,785.8359,1255.5,789.8359,1245.5,793.8359,1249.5,789.8359" style="stroke: #383838; stroke-width: 1.0;"/><line style="stroke: #383838; stroke-width: 1.0;" x1="861.5" x2="1251.5" y1="789.8359" y2="789.8359"/><text fill="#000000" font-family="sans-serif" font-size="13" lengthAdjust="spacingAndGlyphs" textLength="335" x="868.5" y="754.9028">ObtenirAgendaAgent(idAgent, numSemaine, annee)</text><text fill="#000000" font-family="sans-serif" font-size="13" lengthAdjust="spacingAndGlyphs" textLength="312" x="868.5" y="770.0356">: Liste&lt;PlageAgenda&gt;, Liste&lt;TacheElementaire,</text><text fill="#000000" font-family="sans-serif" font-size="13" lengthAdjust="spacingAndGlyphs" textLength="129" x="876.5" y="785.1685">Liste&lt;TypeActivite&gt;</text><line style="stroke: #000000; stroke-width: 1.0; stroke-dasharray: 2.0,2.0;" x1="13" x2="1389" y1="799.2344" y2="799.2344"/><text fill="#000000" font-family="sans-serif" font-size="11" font-weight="bold" lengthAdjust="spacingAndGlyphs" textLength="185" x="18" y="809.4448">[actions sur plages horaires]</text><rect fill="#FFFFFF" height="40.2656" style="stroke: #000000; stroke-width: 1.0;" width="458" x="30" y="813.0391"/><polygon fill="#EEEEEE" points="30,813.0391,96,813.0391,96,820.0391,86,830.0391,30,830.0391,30,813.0391" style="stroke: #000000; stroke-width: 1.0;"/><text fill="#000000" font-family="sans-serif" font-size="13" font-weight="bold" lengthAdjust="spacingAndGlyphs" textLength="21" x="43" y="827.106">ref</text><text fill="#000000" font-family="sans-serif" font-size="13" lengthAdjust="spacingAndGlyphs" textLength="131" x="193.5" y="846.106">Actions Agenda CU7</text><line style="stroke: #000000; stroke-width: 1.0; stroke-dasharray: 2.0,2.0;" x1="13" x2="1389" y1="859.3047" y2="859.3047"/><text fill="#000000" font-family="sans-serif" font-size="11" font-weight="bold" lengthAdjust="spacingAndGlyphs" textLength="136" x="18" y="869.5151">[agenda de l'agence]</text><polygon fill="#383838" points="453.5,890.1094,463.5,894.1094,453.5,898.1094,457.5,894.1094" style="stroke: #383838; stroke-width: 1.0;"/><line style="stroke: #383838; stroke-width: 1.0;" x1="56.5" x2="459.5" y1="894.1094" y2="894.1094"/><text fill="#000000" font-family="sans-serif" font-size="13" lengthAdjust="spacingAndGlyphs" textLength="306" x="63.5" y="889.1763">Sélectionner les agents à afficher dans l'agenda</text><polygon fill="#383838" points="453.5,934.2422,463.5,938.2422,453.5,942.2422,457.5,938.2422" style="stroke: #383838; stroke-width: 1.0;"/><line style="stroke: #383838; stroke-width: 1.0;" x1="56.5" x2="459.5" y1="938.2422" y2="938.2422"/><text fill="#000000" font-family="sans-serif" font-size="13" lengthAdjust="spacingAndGlyphs" textLength="182" x="63.5" y="918.3091">Consulter l'agenda quotidien</text><text fill="#000000" font-family="sans-serif" font-size="13" lengthAdjust="spacingAndGlyphs" textLength="73" x="63.5" y="933.4419">de l'agence</text><polygon fill="#383838" points="849.5,993.5078,859.5,997.5078,849.5,1001.5078,853.5,997.5078" style="stroke: #383838; stroke-width: 1.0;"/><line style="stroke: #383838; stroke-width: 1.0;" x1="465.5" x2="855.5" y1="997.5078" y2="997.5078"/><text fill="#000000" font-family="sans-serif" font-size="13" lengthAdjust="spacingAndGlyphs" textLength="372" x="472.5" y="962.5747">ObtenirAgendaAgence(idAgence, dateJour, Liste&lt;Agent&gt;)</text><text fill="#000000" font-family="sans-serif" font-size="13" lengthAdjust="spacingAndGlyphs" textLength="323" x="472.5" y="977.7075">: Liste&lt;PlageAgenda&gt;, Liste&lt;TacheElementaire&gt;,</text><text fill="#000000" font-family="sans-serif" font-size="13" lengthAdjust="spacingAndGlyphs" textLength="129" x="480.5" y="992.8403">Liste&lt;TypeActivite&gt;</text><polygon fill="#383838" points="1245.5,1052.9063,1255.5,1056.9063,1245.5,1060.9063,1249.5,1056.9063" style="stroke: #383838; stroke-width: 1.0;"/><line style="stroke: #383838; stroke-width: 1.0;" x1="861.5" x2="1251.5" y1="1056.9063" y2="1056.9063"/><text fill="#000000" font-family="sans-serif" font-size="13" lengthAdjust="spacingAndGlyphs" textLength="372" x="868.5" y="1021.9731">ObtenirAgendaAgence(idAgence, dateJour, Liste&lt;Agent&gt;)</text><text fill="#000000" font-family="sans-serif" font-size="13" lengthAdjust="spacingAndGlyphs" textLength="323" x="868.5" y="1037.106">: Liste&lt;PlageAgenda&gt;, Liste&lt;TacheElementaire&gt;,</text><text fill="#000000" font-family="sans-serif" font-size="13" lengthAdjust="spacingAndGlyphs" textLength="129" x="876.5" y="1052.2388">Liste&lt;TypeActivite&gt;</text><rect fill="none" height="254.2656" style="stroke: #000000; stroke-width: 1.0;" width="1278" x="23" y="1072.3047"/><polygon fill="#EEEEEE" points="23,1072.3047,87,1072.3047,87,1079.3047,77,1089.3047,23,1089.3047,23,1072.3047" style="stroke: #000000; stroke-width: 1.0;"/><text fill="#000000" font-family="sans-serif" font-size="13" font-weight="bold" lengthAdjust="spacingAndGlyphs" textLength="19" x="38" y="1085.3716">alt</text><text fill="#000000" font-family="sans-serif" font-size="11" font-weight="bold" lengthAdjust="spacingAndGlyphs" textLength="95" x="102" y="1084.5151">[changer date]</text><polygon fill="#383838" points="453.5,1106.4375,463.5,1110.4375,453.5,1114.4375,457.5,1110.4375" style="stroke: #383838; stroke-width: 1.0;"/><line style="stroke: #383838; stroke-width: 1.0;" x1="56.5" x2="459.5" y1="1110.4375" y2="1110.4375"/><text fill="#000000" font-family="sans-serif" font-size="13" lengthAdjust="spacingAndGlyphs" textLength="141" x="63.5" y="1105.5044">Sélectionner une date</text><polygon fill="#383838" points="453.5,1135.5703,463.5,1139.5703,453.5,1143.5703,457.5,1139.5703" style="stroke: #383838; stroke-width: 1.0;"/><line style="stroke: #383838; stroke-width: 1.0;" x1="56.5" x2="459.5" y1="1139.5703" y2="1139.5703"/><text fill="#000000" font-family="sans-serif" font-size="13" lengthAdjust="spacingAndGlyphs" textLength="107" x="63.5" y="1134.6372">Changer de date</text><polygon fill="#383838" points="849.5,1194.7031,859.5,1198.7031,849.5,1202.7031,853.5,1198.7031" style="stroke: #383838; stroke-width: 1.0;"/><line style="stroke: #383838; stroke-width: 1.0;" x1="465.5" x2="855.5" y1="1198.7031" y2="1198.7031"/><text fill="#000000" font-family="sans-serif" font-size="13" lengthAdjust="spacingAndGlyphs" textLength="372" x="472.5" y="1163.77">ObtenirAgendaAgence(idAgence, dateJour, Liste&lt;Agent&gt;)</text><text fill="#000000" font-family="sans-serif" font-size="13" lengthAdjust="spacingAndGlyphs" textLength="323" x="472.5" y="1178.9028">: Liste&lt;PlageAgenda&gt;, Liste&lt;TacheElementaire&gt;,</text><text fill="#000000" font-family="sans-serif" font-size="13" lengthAdjust="spacingAndGlyphs" textLength="129" x="480.5" y="1194.0356">Liste&lt;TypeActivite&gt;</text><polygon fill="#383838" points="1245.5,1254.1016,1255.5,1258.1016,1245.5,1262.1016,1249.5,1258.1016" style="stroke: #383838; stroke-width: 1.0;"/><line style="stroke: #383838; stroke-width: 1.0;" x1="861.5" x2="1251.5" y1="1258.1016" y2="1258.1016"/><text fill="#000000" font-family="sans-serif" font-size="13" lengthAdjust="spacingAndGlyphs" textLength="372" x="868.5" y="1223.1685">ObtenirAgendaAgence(idAgence, dateJour, Liste&lt;Agent&gt;)</text><text fill="#000000" font-family="sans-serif" font-size="13" lengthAdjust="spacingAndGlyphs" textLength="323" x="868.5" y="1238.3013">: Liste&lt;PlageAgenda&gt;, Liste&lt;TacheElementaire&gt;,</text><text fill="#000000" font-family="sans-serif" font-size="13" lengthAdjust="spacingAndGlyphs" textLength="129" x="876.5" y="1253.4341">Liste&lt;TypeActivite&gt;</text><line style="stroke: #000000; stroke-width: 1.0; stroke-dasharray: 2.0,2.0;" x1="23" x2="1301" y1="1267.5" y2="1267.5"/><text fill="#000000" font-family="sans-serif" font-size="11" font-weight="bold" lengthAdjust="spacingAndGlyphs" textLength="185" x="28" y="1277.7104">[actions sur plages horaires]</text><rect fill="#FFFFFF" height="40.2656" style="stroke: #000000; stroke-width: 1.0;" width="458" x="30" y="1281.3047"/><polygon fill="#EEEEEE" points="30,1281.3047,96,1281.3047,96,1288.3047,86,1298.3047,30,1298.3047,30,1281.3047" style="stroke: #000000; stroke-width: 1.0;"/><text fill="#000000" font-family="sans-serif" font-size="13" font-weight="bold" lengthAdjust="spacingAndGlyphs" textLength="21" x="43" y="1295.3716">ref</text><text fill="#000000" font-family="sans-serif" font-size="13" lengthAdjust="spacingAndGlyphs" textLength="131" x="193.5" y="1314.3716">Actions Agenda CU7</text></g></svg>