<?xml version="1.0" encoding="UTF-8" standalone="yes"?><svg xmlns="http://www.w3.org/2000/svg" xmlns:xlink="http://www.w3.org/1999/xlink" height="1500px" style="width:1838px;height:1500px;" version="1.1" viewBox="0 0 1838 1500" width="1838px"><defs/><g><text fill="#000000" font-family="sans-serif" font-size="20" lengthAdjust="spacingAndGlyphs" textLength="418" x="716" y="28.5645">Diagramme de séquence détaillé du CU 4</text><line style="stroke: none; stroke-width: 1.0;" x1="716" x2="1134" y1="38.2813" y2="38.2813"/><rect fill="#FFFFFF" height="149.9297" style="stroke: #000000; stroke-width: 1.0;" width="735.5" x="1018.5" y="308.5078"/><rect fill="#FFFFFF" height="905.1328" style="stroke: #000000; stroke-width: 1.0;" width="1824" x="13" y="501.5703"/><rect fill="#FFFFFF" height="726.0703" style="stroke: none; stroke-width: 1.0;" width="1824" x="13" y="680.6328"/><rect fill="#FFFFFF" height="61.3984" style="stroke: #000000; stroke-width: 1.0;" width="514.5" x="1312.5" y="850.3672"/><rect fill="#FFFFFF" height="385.4063" style="stroke: #000000; stroke-width: 1.0;" width="1668" x="23" y="1014.2969"/><rect fill="#FFFFFF" height="59.0703" style="stroke: none; stroke-width: 1.0;" width="1668" x="23" y="1222.4922"/><rect fill="#FFFFFF" height="59.0703" style="stroke: none; stroke-width: 1.0;" width="1668" x="23" y="1281.5625"/><rect fill="#FFFFFF" height="59.0703" style="stroke: none; stroke-width: 1.0;" width="1668" x="23" y="1340.6328"/><line style="stroke: #383838; stroke-width: 1.0; stroke-dasharray: 5.0,5.0;" x1="56" x2="56" y1="129.5781" y2="1423.7031"/><line style="stroke: #383838; stroke-width: 1.0; stroke-dasharray: 5.0,5.0;" x1="394" x2="394" y1="129.5781" y2="1423.7031"/><line style="stroke: #383838; stroke-width: 1.0; stroke-dasharray: 5.0,5.0;" x1="899.5" x2="899.5" y1="129.5781" y2="1423.7031"/><line style="stroke: #383838; stroke-width: 1.0; stroke-dasharray: 5.0,5.0;" x1="1067.5" x2="1067.5" y1="129.5781" y2="1423.7031"/><line style="stroke: #383838; stroke-width: 1.0; stroke-dasharray: 5.0,5.0;" x1="1356.5" x2="1356.5" y1="129.5781" y2="1423.7031"/><line style="stroke: #383838; stroke-width: 1.0; stroke-dasharray: 5.0,5.0;" x1="1647" x2="1647" y1="129.5781" y2="1423.7031"/><line style="stroke: #383838; stroke-width: 1.0; stroke-dasharray: 5.0,5.0;" x1="1717" x2="1717" y1="129.5781" y2="1423.7031"/><line style="stroke: #383838; stroke-width: 1.0; stroke-dasharray: 5.0,5.0;" x1="1785" x2="1785" y1="129.5781" y2="1423.7031"/><text fill="#000000" font-family="sans-serif" font-size="14" lengthAdjust="spacingAndGlyphs" textLength="41" x="33" y="126.2764">Agent</text><ellipse cx="56.5" cy="60.2813" fill="#F8F8F8" rx="8" ry="8" style="stroke: #383838; stroke-width: 2.0;"/><path d="M56.5,68.2813 L56.5,95.2813 M43.5,76.2813 L69.5,76.2813 M56.5,95.2813 L43.5,110.2813 M56.5,95.2813 L69.5,110.2813 " fill="#F8F8F8" style="stroke: #383838; stroke-width: 2.0;"/><text fill="#000000" font-family="sans-serif" font-size="14" lengthAdjust="spacingAndGlyphs" textLength="41" x="33" y="1435.6982">Agent</text><ellipse cx="56.5" cy="1449" fill="#F8F8F8" rx="8" ry="8" style="stroke: #383838; stroke-width: 2.0;"/><path d="M56.5,1457 L56.5,1484 M43.5,1465 L69.5,1465 M56.5,1484 L43.5,1499 M56.5,1484 L69.5,1499 " fill="#F8F8F8" style="stroke: #383838; stroke-width: 2.0;"/><rect fill="#F8F8F8" height="30.2969" style="stroke: #383838; stroke-width: 1.0;" width="39" x="375" y="98.2813"/><text fill="#000000" font-family="sans-serif" font-size="14" lengthAdjust="spacingAndGlyphs" textLength="25" x="382" y="118.2764">IHM</text><rect fill="#F8F8F8" height="30.2969" style="stroke: #383838; stroke-width: 1.0;" width="39" x="375" y="1422.7031"/><text fill="#000000" font-family="sans-serif" font-size="14" lengthAdjust="spacingAndGlyphs" textLength="25" x="382" y="1442.6982">IHM</text><rect fill="#F8F8F8" height="30.2969" style="stroke: #383838; stroke-width: 1.0;" width="44" x="877.5" y="98.2813"/><text fill="#000000" font-family="sans-serif" font-size="14" lengthAdjust="spacingAndGlyphs" textLength="30" x="884.5" y="118.2764">SMA</text><rect fill="#F8F8F8" height="30.2969" style="stroke: #383838; stroke-width: 1.0;" width="44" x="877.5" y="1422.7031"/><text fill="#000000" font-family="sans-serif" font-size="14" lengthAdjust="spacingAndGlyphs" textLength="30" x="884.5" y="1442.6982">SMA</text><rect fill="#F8F8F8" height="30.2969" style="stroke: #383838; stroke-width: 1.0;" width="78" x="1028.5" y="98.2813"/><text fill="#000000" font-family="sans-serif" font-size="14" lengthAdjust="spacingAndGlyphs" textLength="64" x="1035.5" y="118.2764">Structure</text><rect fill="#F8F8F8" height="30.2969" style="stroke: #383838; stroke-width: 1.0;" width="78" x="1028.5" y="1422.7031"/><text fill="#000000" font-family="sans-serif" font-size="14" lengthAdjust="spacingAndGlyphs" textLength="64" x="1035.5" y="1442.6982">Structure</text><rect fill="#F8F8F8" height="30.2969" style="stroke: #383838; stroke-width: 1.0;" width="68" x="1322.5" y="98.2813"/><text fill="#000000" font-family="sans-serif" font-size="14" lengthAdjust="spacingAndGlyphs" textLength="54" x="1329.5" y="118.2764">Contact</text><rect fill="#F8F8F8" height="30.2969" style="stroke: #383838; stroke-width: 1.0;" width="68" x="1322.5" y="1422.7031"/><text fill="#000000" font-family="sans-serif" font-size="14" lengthAdjust="spacingAndGlyphs" textLength="54" x="1329.5" y="1442.6982">Contact</text><rect fill="#F8F8F8" height="30.2969" style="stroke: #383838; stroke-width: 1.0;" width="67" x="1614" y="98.2813"/><text fill="#000000" font-family="sans-serif" font-size="14" lengthAdjust="spacingAndGlyphs" textLength="53" x="1621" y="118.2764">Agenda</text><rect fill="#F8F8F8" height="30.2969" style="stroke: #383838; stroke-width: 1.0;" width="67" x="1614" y="1422.7031"/><text fill="#000000" font-family="sans-serif" font-size="14" lengthAdjust="spacingAndGlyphs" textLength="53" x="1621" y="1442.6982">Agenda</text><rect fill="#F8F8F8" height="30.2969" style="stroke: #383838; stroke-width: 1.0;" width="53" x="1691" y="98.2813"/><text fill="#000000" font-family="sans-serif" font-size="14" lengthAdjust="spacingAndGlyphs" textLength="39" x="1698" y="118.2764">Client</text><rect fill="#F8F8F8" height="30.2969" style="stroke: #383838; stroke-width: 1.0;" width="53" x="1691" y="1422.7031"/><text fill="#000000" font-family="sans-serif" font-size="14" lengthAdjust="spacingAndGlyphs" textLength="39" x="1698" y="1442.6982">Client</text><rect fill="#F8F8F8" height="30.2969" style="stroke: #383838; stroke-width: 1.0;" width="63" x="1754" y="98.2813"/><text fill="#000000" font-family="sans-serif" font-size="14" lengthAdjust="spacingAndGlyphs" textLength="49" x="1761" y="118.2764">Produit</text><rect fill="#F8F8F8" height="30.2969" style="stroke: #383838; stroke-width: 1.0;" width="63" x="1754" y="1422.7031"/><text fill="#000000" font-family="sans-serif" font-size="14" lengthAdjust="spacingAndGlyphs" textLength="49" x="1761" y="1442.6982">Produit</text><polygon fill="#383838" points="382.5,156.5781,392.5,160.5781,382.5,164.5781,386.5,160.5781" style="stroke: #383838; stroke-width: 1.0;"/><line style="stroke: #383838; stroke-width: 1.0;" x1="56.5" x2="388.5" y1="160.5781" y2="160.5781"/><text fill="#000000" font-family="sans-serif" font-size="13" lengthAdjust="spacingAndGlyphs" textLength="314" x="63.5" y="155.645">Consulter la liste des contacts à traiter de l'agent</text><polygon fill="#383838" points="887.5,200.7109,897.5,204.7109,887.5,208.7109,891.5,204.7109" style="stroke: #383838; stroke-width: 1.0;"/><line style="stroke: #383838; stroke-width: 1.0;" x1="394.5" x2="893.5" y1="204.7109" y2="204.7109"/><text fill="#000000" font-family="sans-serif" font-size="13" lengthAdjust="spacingAndGlyphs" textLength="254" x="401.5" y="184.7778">SM7 - ObtenirContactsATraiter(idAgent)</text><text fill="#000000" font-family="sans-serif" font-size="13" lengthAdjust="spacingAndGlyphs" textLength="465" x="401.5" y="199.9106">: Agent, Liste &lt;Contact, PlageAgenda, TacheElementaire, Agent, Client&gt;</text><polygon fill="#383838" points="1055.5,244.9766,1065.5,248.9766,1055.5,252.9766,1059.5,248.9766" style="stroke: #383838; stroke-width: 1.0;"/><line style="stroke: #383838; stroke-width: 1.0;" x1="899.5" x2="1061.5" y1="248.9766" y2="248.9766"/><text fill="#000000" font-family="sans-serif" font-size="13" lengthAdjust="spacingAndGlyphs" textLength="144" x="906.5" y="229.0435">ObtenirAgent(idAgent)</text><text fill="#000000" font-family="sans-serif" font-size="13" lengthAdjust="spacingAndGlyphs" textLength="46" x="906.5" y="244.1763">: Agent</text><polygon fill="#383838" points="1344.5,289.2422,1354.5,293.2422,1344.5,297.2422,1348.5,293.2422" style="stroke: #383838; stroke-width: 1.0;"/><line style="stroke: #383838; stroke-width: 1.0;" x1="899.5" x2="1350.5" y1="293.2422" y2="293.2422"/><text fill="#000000" font-family="sans-serif" font-size="13" lengthAdjust="spacingAndGlyphs" textLength="213" x="906.5" y="273.3091">ObtenirContactsATraiter(idAgent)</text><text fill="#000000" font-family="sans-serif" font-size="13" lengthAdjust="spacingAndGlyphs" textLength="110" x="906.5" y="288.4419">: Liste&lt;Contact&gt;</text><rect fill="none" height="149.9297" style="stroke: #000000; stroke-width: 1.0;" width="735.5" x="1018.5" y="308.5078"/><polygon fill="#EEEEEE" points="1018.5,308.5078,1095.5,308.5078,1095.5,315.5078,1085.5,325.5078,1018.5,325.5078,1018.5,308.5078" style="stroke: #000000; stroke-width: 1.0;"/><text fill="#000000" font-family="sans-serif" font-size="13" font-weight="bold" lengthAdjust="spacingAndGlyphs" textLength="32" x="1033.5" y="321.5747">loop</text><text fill="#000000" font-family="sans-serif" font-size="11" font-weight="bold" lengthAdjust="spacingAndGlyphs" textLength="142" x="1110.5" y="320.7183">[Pour chaque contact]</text><polygon fill="#383838" points="1078.5,357.6406,1068.5,361.6406,1078.5,365.6406,1074.5,361.6406" style="stroke: #383838; stroke-width: 1.0;"/><line style="stroke: #383838; stroke-width: 1.0;" x1="1072.5" x2="1355.5" y1="361.6406" y2="361.6406"/><text fill="#000000" font-family="sans-serif" font-size="13" lengthAdjust="spacingAndGlyphs" textLength="144" x="1084.5" y="341.7075">ObtenirAgent(idAgent)</text><text fill="#000000" font-family="sans-serif" font-size="13" lengthAdjust="spacingAndGlyphs" textLength="46" x="1084.5" y="356.8403">: Agent</text><polygon fill="#383838" points="1635.5,401.9063,1645.5,405.9063,1635.5,409.9063,1639.5,405.9063" style="stroke: #383838; stroke-width: 1.0;"/><line style="stroke: #383838; stroke-width: 1.0;" x1="1356.5" x2="1641.5" y1="405.9063" y2="405.9063"/><text fill="#000000" font-family="sans-serif" font-size="13" lengthAdjust="spacingAndGlyphs" textLength="267" x="1363.5" y="385.9731">ObtenirPlageAgenda(idTacheElementaire)</text><text fill="#000000" font-family="sans-serif" font-size="13" lengthAdjust="spacingAndGlyphs" textLength="215" x="1363.5" y="401.106">: PlageAgenda, TacheElementaire</text><polygon fill="#383838" points="1705.5,446.1719,1715.5,450.1719,1705.5,454.1719,1709.5,450.1719" style="stroke: #383838; stroke-width: 1.0;"/><line style="stroke: #383838; stroke-width: 1.0;" x1="1356.5" x2="1711.5" y1="450.1719" y2="450.1719"/><text fill="#000000" font-family="sans-serif" font-size="13" lengthAdjust="spacingAndGlyphs" textLength="140" x="1363.5" y="430.2388">ObtenirClient(idClient)</text><text fill="#000000" font-family="sans-serif" font-size="13" lengthAdjust="spacingAndGlyphs" textLength="44" x="1363.5" y="445.3716">: Client</text><polygon fill="#383838" points="382.5,482.4375,392.5,486.4375,382.5,490.4375,386.5,486.4375" style="stroke: #383838; stroke-width: 1.0;"/><line style="stroke: #383838; stroke-width: 1.0;" x1="56.5" x2="388.5" y1="486.4375" y2="486.4375"/><text fill="#000000" font-family="sans-serif" font-size="13" lengthAdjust="spacingAndGlyphs" textLength="152" x="63.5" y="481.5044">Sélectionner un contact</text><rect fill="none" height="905.1328" style="stroke: #000000; stroke-width: 1.0;" width="1824" x="13" y="501.5703"/><polygon fill="#EEEEEE" points="13,501.5703,77,501.5703,77,508.5703,67,518.5703,13,518.5703,13,501.5703" style="stroke: #000000; stroke-width: 1.0;"/><text fill="#000000" font-family="sans-serif" font-size="13" font-weight="bold" lengthAdjust="spacingAndGlyphs" textLength="19" x="28" y="514.6372">alt</text><text fill="#000000" font-family="sans-serif" font-size="11" font-weight="bold" lengthAdjust="spacingAndGlyphs" textLength="297" x="92" y="513.7808">[sélection d'autres contacts d'un même client]</text><polygon fill="#383838" points="382.5,535.7031,392.5,539.7031,382.5,543.7031,386.5,539.7031" style="stroke: #383838; stroke-width: 1.0;"/><line style="stroke: #383838; stroke-width: 1.0;" x1="56.5" x2="388.5" y1="539.7031" y2="539.7031"/><text fill="#000000" font-family="sans-serif" font-size="13" lengthAdjust="spacingAndGlyphs" textLength="166" x="63.5" y="534.77">Sélectionner des contacts</text><polygon fill="#383838" points="382.5,579.8359,392.5,583.8359,382.5,587.8359,386.5,583.8359" style="stroke: #383838; stroke-width: 1.0;"/><line style="stroke: #383838; stroke-width: 1.0;" x1="56.5" x2="388.5" y1="583.8359" y2="583.8359"/><text fill="#000000" font-family="sans-serif" font-size="13" lengthAdjust="spacingAndGlyphs" textLength="147" x="63.5" y="563.9028">Regrouper les contacts</text><text fill="#000000" font-family="sans-serif" font-size="13" lengthAdjust="spacingAndGlyphs" textLength="104" x="63.5" y="579.0356">(si même client)</text><polygon fill="#383838" points="887.5,624.1016,897.5,628.1016,887.5,632.1016,891.5,628.1016" style="stroke: #383838; stroke-width: 1.0;"/><line style="stroke: #383838; stroke-width: 1.0;" x1="394.5" x2="893.5" y1="628.1016" y2="628.1016"/><text fill="#000000" font-family="sans-serif" font-size="13" lengthAdjust="spacingAndGlyphs" textLength="481" x="401.5" y="608.1685">SM8 - GrouperContacts(idContactPrincipal, Liste&lt;idContactsSecondaires&gt;)</text><text fill="#000000" font-family="sans-serif" font-size="13" lengthAdjust="spacingAndGlyphs" textLength="34" x="401.5" y="623.3013">: void</text><polygon fill="#383838" points="1344.5,668.3672,1354.5,672.3672,1344.5,676.3672,1348.5,672.3672" style="stroke: #383838; stroke-width: 1.0;"/><line style="stroke: #383838; stroke-width: 1.0;" x1="899.5" x2="1350.5" y1="672.3672" y2="672.3672"/><text fill="#000000" font-family="sans-serif" font-size="13" lengthAdjust="spacingAndGlyphs" textLength="433" x="906.5" y="652.4341">GrouperContacts(idContactPrincipal, Liste&lt;idContactSecondaires&gt;)</text><text fill="#000000" font-family="sans-serif" font-size="13" lengthAdjust="spacingAndGlyphs" textLength="34" x="906.5" y="667.5669">: void</text><line style="stroke: #000000; stroke-width: 1.0; stroke-dasharray: 2.0,2.0;" x1="13" x2="1837" y1="681.6328" y2="681.6328"/><text fill="#000000" font-family="sans-serif" font-size="11" font-weight="bold" lengthAdjust="spacingAndGlyphs" textLength="183" x="18" y="691.8433">[sélection d'un seul contact]</text><polygon fill="#383838" points="382.5,712.4375,392.5,716.4375,382.5,720.4375,386.5,716.4375" style="stroke: #383838; stroke-width: 1.0;"/><line style="stroke: #383838; stroke-width: 1.0;" x1="56.5" x2="388.5" y1="716.4375" y2="716.4375"/><text fill="#000000" font-family="sans-serif" font-size="13" lengthAdjust="spacingAndGlyphs" textLength="198" x="63.5" y="711.5044">Consulter le détail d'un contact</text><polygon fill="#383838" points="887.5,771.5703,897.5,775.5703,887.5,779.5703,891.5,775.5703" style="stroke: #383838; stroke-width: 1.0;"/><line style="stroke: #383838; stroke-width: 1.0;" x1="394.5" x2="893.5" y1="775.5703" y2="775.5703"/><text fill="#000000" font-family="sans-serif" font-size="13" lengthAdjust="spacingAndGlyphs" textLength="253" x="401.5" y="740.6372">SM9 - ObtenirDetailsContact(idContact)</text><text fill="#000000" font-family="sans-serif" font-size="13" lengthAdjust="spacingAndGlyphs" textLength="259" x="401.5" y="755.77">: Contact, MotifDeContact, Client, Agent,</text><text fill="#000000" font-family="sans-serif" font-size="13" lengthAdjust="spacingAndGlyphs" textLength="352" x="401.5" y="770.9028">Liste&lt;PropositionCommerciale, Offre, Liste&lt;Produit&gt;&gt;</text><polygon fill="#383838" points="1344.5,830.9688,1354.5,834.9688,1344.5,838.9688,1348.5,834.9688" style="stroke: #383838; stroke-width: 1.0;"/><line style="stroke: #383838; stroke-width: 1.0;" x1="899.5" x2="1350.5" y1="834.9688" y2="834.9688"/><text fill="#000000" font-family="sans-serif" font-size="13" lengthAdjust="spacingAndGlyphs" textLength="212" x="906.5" y="800.0356">ObtenirDetailsContact(idContact)</text><text fill="#000000" font-family="sans-serif" font-size="13" lengthAdjust="spacingAndGlyphs" textLength="281" x="906.5" y="815.1685">: Contact, MotifDeContact, idClient, idAgent,</text><text fill="#000000" font-family="sans-serif" font-size="13" lengthAdjust="spacingAndGlyphs" textLength="258" x="906.5" y="830.3013">Liste&lt;PropositionCommerciale, idOffre&gt;</text><rect fill="none" height="61.3984" style="stroke: #000000; stroke-width: 1.0;" width="514.5" x="1312.5" y="850.3672"/><polygon fill="#EEEEEE" points="1312.5,850.3672,1389.5,850.3672,1389.5,857.3672,1379.5,867.3672,1312.5,867.3672,1312.5,850.3672" style="stroke: #000000; stroke-width: 1.0;"/><text fill="#000000" font-family="sans-serif" font-size="13" font-weight="bold" lengthAdjust="spacingAndGlyphs" textLength="32" x="1327.5" y="863.4341">loop</text><text fill="#000000" font-family="sans-serif" font-size="11" font-weight="bold" lengthAdjust="spacingAndGlyphs" textLength="125" x="1404.5" y="862.5776">[Pour chaque offre]</text><polygon fill="#383838" points="1773.5,899.5,1783.5,903.5,1773.5,907.5,1777.5,903.5" style="stroke: #383838; stroke-width: 1.0;"/><line style="stroke: #383838; stroke-width: 1.0;" x1="1356.5" x2="1779.5" y1="903.5" y2="903.5"/><text fill="#000000" font-family="sans-serif" font-size="13" lengthAdjust="spacingAndGlyphs" textLength="167" x="1363.5" y="883.5669">ObtenirDetailOffre(idOffre)</text><text fill="#000000" font-family="sans-serif" font-size="13" lengthAdjust="spacingAndGlyphs" textLength="144" x="1363.5" y="898.6997">: Offre, Liste&lt;Produit&gt;</text><polygon fill="#383838" points="1705.5,950.7656,1715.5,954.7656,1705.5,958.7656,1709.5,954.7656" style="stroke: #383838; stroke-width: 1.0;"/><line style="stroke: #383838; stroke-width: 1.0;" x1="1356.5" x2="1711.5" y1="954.7656" y2="954.7656"/><text fill="#000000" font-family="sans-serif" font-size="13" lengthAdjust="spacingAndGlyphs" textLength="140" x="1363.5" y="934.8325">ObtenirClient(idClient)</text><text fill="#000000" font-family="sans-serif" font-size="13" lengthAdjust="spacingAndGlyphs" textLength="44" x="1363.5" y="949.9653">: Client</text><polygon fill="#383838" points="1078.5,995.0313,1068.5,999.0313,1078.5,1003.0313,1074.5,999.0313" style="stroke: #383838; stroke-width: 1.0;"/><line style="stroke: #383838; stroke-width: 1.0;" x1="1072.5" x2="1355.5" y1="999.0313" y2="999.0313"/><text fill="#000000" font-family="sans-serif" font-size="13" lengthAdjust="spacingAndGlyphs" textLength="144" x="1084.5" y="979.0981">ObtenirAgent(idAgent)</text><text fill="#000000" font-family="sans-serif" font-size="13" lengthAdjust="spacingAndGlyphs" textLength="46" x="1084.5" y="994.231">: Agent</text><rect fill="none" height="385.4063" style="stroke: #000000; stroke-width: 1.0;" width="1668" x="23" y="1014.2969"/><polygon fill="#EEEEEE" points="23,1014.2969,87,1014.2969,87,1021.2969,77,1031.2969,23,1031.2969,23,1014.2969" style="stroke: #000000; stroke-width: 1.0;"/><text fill="#000000" font-family="sans-serif" font-size="13" font-weight="bold" lengthAdjust="spacingAndGlyphs" textLength="19" x="38" y="1027.3638">alt</text><text fill="#000000" font-family="sans-serif" font-size="11" font-weight="bold" lengthAdjust="spacingAndGlyphs" textLength="131" x="102" y="1026.5073">[annulation contact]</text><polygon fill="#383838" points="382.5,1048.4297,392.5,1052.4297,382.5,1056.4297,386.5,1052.4297" style="stroke: #383838; stroke-width: 1.0;"/><line style="stroke: #383838; stroke-width: 1.0;" x1="56.5" x2="388.5" y1="1052.4297" y2="1052.4297"/><text fill="#000000" font-family="sans-serif" font-size="13" lengthAdjust="spacingAndGlyphs" textLength="169" x="63.5" y="1047.4966">Saisir le motif d'annulation</text><polygon fill="#383838" points="382.5,1077.5625,392.5,1081.5625,382.5,1085.5625,386.5,1081.5625" style="stroke: #383838; stroke-width: 1.0;"/><line style="stroke: #383838; stroke-width: 1.0;" x1="56.5" x2="388.5" y1="1081.5625" y2="1081.5625"/><text fill="#000000" font-family="sans-serif" font-size="13" lengthAdjust="spacingAndGlyphs" textLength="116" x="63.5" y="1076.6294">Annuler le contact</text><polygon fill="#383838" points="887.5,1121.6953,897.5,1125.6953,887.5,1129.6953,891.5,1125.6953" style="stroke: #383838; stroke-width: 1.0;"/><line style="stroke: #383838; stroke-width: 1.0;" x1="394.5" x2="893.5" y1="1125.6953" y2="1125.6953"/><text fill="#000000" font-family="sans-serif" font-size="13" lengthAdjust="spacingAndGlyphs" textLength="260" x="401.5" y="1105.7622">SM10 - AnnulerContact(idContact, motif)</text><text fill="#000000" font-family="sans-serif" font-size="13" lengthAdjust="spacingAndGlyphs" textLength="34" x="401.5" y="1120.895">: void</text><polygon fill="#383838" points="1344.5,1165.9609,1354.5,1169.9609,1344.5,1173.9609,1348.5,1169.9609" style="stroke: #383838; stroke-width: 1.0;"/><line style="stroke: #383838; stroke-width: 1.0;" x1="899.5" x2="1350.5" y1="1169.9609" y2="1169.9609"/><text fill="#000000" font-family="sans-serif" font-size="13" lengthAdjust="spacingAndGlyphs" textLength="211" x="906.5" y="1150.0278">AnnulerContact(idContact, motif)</text><text fill="#000000" font-family="sans-serif" font-size="13" lengthAdjust="spacingAndGlyphs" textLength="34" x="906.5" y="1165.1606">: void</text><polygon fill="#383838" points="1635.5,1210.2266,1645.5,1214.2266,1635.5,1218.2266,1639.5,1214.2266" style="stroke: #383838; stroke-width: 1.0;"/><line style="stroke: #383838; stroke-width: 1.0;" x1="899.5" x2="1641.5" y1="1214.2266" y2="1214.2266"/><text fill="#000000" font-family="sans-serif" font-size="13" lengthAdjust="spacingAndGlyphs" textLength="211" x="906.5" y="1194.2935">AnnulerContact(idContact, motif)</text><text fill="#000000" font-family="sans-serif" font-size="13" lengthAdjust="spacingAndGlyphs" textLength="34" x="906.5" y="1209.4263">: void</text><line style="stroke: #000000; stroke-width: 1.0; stroke-dasharray: 2.0,2.0;" x1="23" x2="1691" y1="1223.4922" y2="1223.4922"/><text fill="#000000" font-family="sans-serif" font-size="11" font-weight="bold" lengthAdjust="spacingAndGlyphs" textLength="71" x="28" y="1233.7026">[prise RDV]</text><polygon fill="#383838" points="382.5,1269.2969,392.5,1273.2969,382.5,1277.2969,386.5,1273.2969" style="stroke: #383838; stroke-width: 1.0;"/><line style="stroke: #383838; stroke-width: 1.0;" x1="56.5" x2="388.5" y1="1273.2969" y2="1273.2969"/><text fill="#000000" font-family="sans-serif" font-size="13" lengthAdjust="spacingAndGlyphs" textLength="81" x="63.5" y="1253.3638">Prendre RDV</text><text fill="#000000" font-family="sans-serif" font-size="13" lengthAdjust="spacingAndGlyphs" textLength="41" x="63.5" y="1268.4966">(CU 6)</text><line style="stroke: #000000; stroke-width: 1.0; stroke-dasharray: 2.0,2.0;" x1="23" x2="1691" y1="1282.5625" y2="1282.5625"/><text fill="#000000" font-family="sans-serif" font-size="11" font-weight="bold" lengthAdjust="spacingAndGlyphs" textLength="114" x="28" y="1292.7729">[preparation RDV]</text><polygon fill="#383838" points="382.5,1328.3672,392.5,1332.3672,382.5,1336.3672,386.5,1332.3672" style="stroke: #383838; stroke-width: 1.0;"/><line style="stroke: #383838; stroke-width: 1.0;" x1="56.5" x2="388.5" y1="1332.3672" y2="1332.3672"/><text fill="#000000" font-family="sans-serif" font-size="13" lengthAdjust="spacingAndGlyphs" textLength="101" x="63.5" y="1312.4341">Preparer le RDV</text><text fill="#000000" font-family="sans-serif" font-size="13" lengthAdjust="spacingAndGlyphs" textLength="41" x="63.5" y="1327.5669">(CU 8)</text><line style="stroke: #000000; stroke-width: 1.0; stroke-dasharray: 2.0,2.0;" x1="23" x2="1691" y1="1341.6328" y2="1341.6328"/><text fill="#000000" font-family="sans-serif" font-size="11" font-weight="bold" lengthAdjust="spacingAndGlyphs" textLength="95" x="28" y="1351.8433">[conduire RDV]</text><polygon fill="#383838" points="382.5,1387.4375,392.5,1391.4375,382.5,1395.4375,386.5,1391.4375" style="stroke: #383838; stroke-width: 1.0;"/><line style="stroke: #383838; stroke-width: 1.0;" x1="56.5" x2="388.5" y1="1391.4375" y2="1391.4375"/><text fill="#000000" font-family="sans-serif" font-size="13" lengthAdjust="spacingAndGlyphs" textLength="103" x="63.5" y="1371.5044">Conduire le RDV</text><text fill="#000000" font-family="sans-serif" font-size="13" lengthAdjust="spacingAndGlyphs" textLength="41" x="63.5" y="1386.6372">(CU 9)</text></g></svg>