<?xml version="1.0" encoding="UTF-8" standalone="yes"?><svg xmlns="http://www.w3.org/2000/svg" xmlns:xlink="http://www.w3.org/1999/xlink" height="3079px" style="width:1813px;height:3079px;" version="1.1" viewBox="0 0 1813 3079" width="1813px"><defs/><g><text fill="#000000" font-family="sans-serif" font-size="20" lengthAdjust="spacingAndGlyphs" textLength="431" x="697" y="28.5645">Diagramme de séquence détaillé du CU 10</text><line style="stroke: none; stroke-width: 1.0;" x1="697" x2="1128" y1="38.2813" y2="38.2813"/><rect fill="#FFFFFF" height="1385.9688" style="stroke: #000000; stroke-width: 1.0;" width="1565" x="13" y="353.7734"/><rect fill="#FFFFFF" height="61.3984" style="stroke: #000000; stroke-width: 1.0;" width="353" x="1205" y="510.7031"/><rect fill="#FFFFFF" height="982.7109" style="stroke: #000000; stroke-width: 1.0;" width="1545" x="23" y="586.1016"/><rect fill="#FFFFFF" height="491.7891" style="stroke: none; stroke-width: 1.0;" width="1545" x="23" y="957.3594"/><rect fill="#FFFFFF" height="328.9922" style="stroke: #000000; stroke-width: 1.0;" width="1525" x="33" y="1113.1563"/><rect fill="#FFFFFF" height="194.1953" style="stroke: none; stroke-width: 1.0;" width="1525" x="33" y="1247.9531"/><rect fill="#FFFFFF" height="119.6641" style="stroke: none; stroke-width: 1.0;" width="1545" x="23" y="1449.1484"/><rect fill="#FFFFFF" height="163.9297" style="stroke: none; stroke-width: 1.0;" width="1565" x="13" y="1575.8125"/><rect fill="#FFFFFF" height="790.5156" style="stroke: #000000; stroke-width: 1.0;" width="1618" x="23" y="1753.7422"/><rect fill="#FFFFFF" height="61.3984" style="stroke: #000000; stroke-width: 1.0;" width="426" x="1205" y="1925.8047"/><rect fill="#FFFFFF" height="179.0625" style="stroke: #000000; stroke-width: 1.0;" width="1245" x="33" y="2001.2031"/><rect fill="#FFFFFF" height="149.9297" style="stroke: #000000; stroke-width: 1.0;" width="1598" x="33" y="2194.2656"/><rect fill="#FFFFFF" height="179.0625" style="stroke: #000000; stroke-width: 1.0;" width="1245" x="33" y="2358.1953"/><rect fill="#FFFFFF" height="428.3906" style="stroke: #000000; stroke-width: 1.0;" width="1779" x="33" y="2558.2578"/><line style="stroke: #383838; stroke-width: 1.0; stroke-dasharray: 5.0,5.0;" x1="66" x2="66" y1="129.5781" y2="3003.6484"/><line style="stroke: #383838; stroke-width: 1.0; stroke-dasharray: 5.0,5.0;" x1="360" x2="360" y1="129.5781" y2="3003.6484"/><line style="stroke: #383838; stroke-width: 1.0; stroke-dasharray: 5.0,5.0;" x1="835.5" x2="835.5" y1="129.5781" y2="3003.6484"/><line style="stroke: #383838; stroke-width: 1.0; stroke-dasharray: 5.0,5.0;" x1="1241" x2="1241" y1="129.5781" y2="3003.6484"/><line style="stroke: #383838; stroke-width: 1.0; stroke-dasharray: 5.0,5.0;" x1="1317" x2="1317" y1="129.5781" y2="3003.6484"/><line style="stroke: #383838; stroke-width: 1.0; stroke-dasharray: 5.0,5.0;" x1="1507" x2="1507" y1="129.5781" y2="3003.6484"/><line style="stroke: #383838; stroke-width: 1.0; stroke-dasharray: 5.0,5.0;" x1="1589" x2="1589" y1="129.5781" y2="3003.6484"/><line style="stroke: #383838; stroke-width: 1.0; stroke-dasharray: 5.0,5.0;" x1="1665" x2="1665" y1="129.5781" y2="3003.6484"/><line style="stroke: #383838; stroke-width: 1.0; stroke-dasharray: 5.0,5.0;" x1="1755" x2="1755" y1="129.5781" y2="3003.6484"/><text fill="#000000" font-family="sans-serif" font-size="14" lengthAdjust="spacingAndGlyphs" textLength="41" x="43" y="126.2764">Agent</text><ellipse cx="66.5" cy="60.2813" fill="#F8F8F8" rx="8" ry="8" style="stroke: #383838; stroke-width: 2.0;"/><path d="M66.5,68.2813 L66.5,95.2813 M53.5,76.2813 L79.5,76.2813 M66.5,95.2813 L53.5,110.2813 M66.5,95.2813 L79.5,110.2813 " fill="#F8F8F8" style="stroke: #383838; stroke-width: 2.0;"/><text fill="#000000" font-family="sans-serif" font-size="14" lengthAdjust="spacingAndGlyphs" textLength="41" x="43" y="3015.6436">Agent</text><ellipse cx="66.5" cy="3028.9453" fill="#F8F8F8" rx="8" ry="8" style="stroke: #383838; stroke-width: 2.0;"/><path d="M66.5,3036.9453 L66.5,3063.9453 M53.5,3044.9453 L79.5,3044.9453 M66.5,3063.9453 L53.5,3078.9453 M66.5,3063.9453 L79.5,3078.9453 " fill="#F8F8F8" style="stroke: #383838; stroke-width: 2.0;"/><rect fill="#F8F8F8" height="30.2969" style="stroke: #383838; stroke-width: 1.0;" width="39" x="341" y="98.2813"/><text fill="#000000" font-family="sans-serif" font-size="14" lengthAdjust="spacingAndGlyphs" textLength="25" x="348" y="118.2764">IHM</text><rect fill="#F8F8F8" height="30.2969" style="stroke: #383838; stroke-width: 1.0;" width="39" x="341" y="3002.6484"/><text fill="#000000" font-family="sans-serif" font-size="14" lengthAdjust="spacingAndGlyphs" textLength="25" x="348" y="3022.6436">IHM</text><rect fill="#F8F8F8" height="30.2969" style="stroke: #383838; stroke-width: 1.0;" width="44" x="813.5" y="98.2813"/><text fill="#000000" font-family="sans-serif" font-size="14" lengthAdjust="spacingAndGlyphs" textLength="30" x="820.5" y="118.2764">SMA</text><rect fill="#F8F8F8" height="30.2969" style="stroke: #383838; stroke-width: 1.0;" width="44" x="813.5" y="3002.6484"/><text fill="#000000" font-family="sans-serif" font-size="14" lengthAdjust="spacingAndGlyphs" textLength="30" x="820.5" y="3022.6436">SMA</text><rect fill="#F8F8F8" height="30.2969" style="stroke: #383838; stroke-width: 1.0;" width="53" x="1215" y="98.2813"/><text fill="#000000" font-family="sans-serif" font-size="14" lengthAdjust="spacingAndGlyphs" textLength="39" x="1222" y="118.2764">Client</text><rect fill="#F8F8F8" height="30.2969" style="stroke: #383838; stroke-width: 1.0;" width="53" x="1215" y="3002.6484"/><text fill="#000000" font-family="sans-serif" font-size="14" lengthAdjust="spacingAndGlyphs" textLength="39" x="1222" y="3022.6436">Client</text><rect fill="#F8F8F8" height="30.2969" style="stroke: #383838; stroke-width: 1.0;" width="78" x="1278" y="98.2813"/><text fill="#000000" font-family="sans-serif" font-size="14" lengthAdjust="spacingAndGlyphs" textLength="64" x="1285" y="118.2764">Structure</text><rect fill="#F8F8F8" height="30.2969" style="stroke: #383838; stroke-width: 1.0;" width="78" x="1278" y="3002.6484"/><text fill="#000000" font-family="sans-serif" font-size="14" lengthAdjust="spacingAndGlyphs" textLength="64" x="1285" y="3022.6436">Structure</text><rect fill="#F8F8F8" height="30.2969" style="stroke: #383838; stroke-width: 1.0;" width="81" x="1467" y="98.2813"/><text fill="#000000" font-family="sans-serif" font-size="14" lengthAdjust="spacingAndGlyphs" textLength="67" x="1474" y="118.2764">Personne</text><rect fill="#F8F8F8" height="30.2969" style="stroke: #383838; stroke-width: 1.0;" width="81" x="1467" y="3002.6484"/><text fill="#000000" font-family="sans-serif" font-size="14" lengthAdjust="spacingAndGlyphs" textLength="67" x="1474" y="3022.6436">Personne</text><rect fill="#F8F8F8" height="30.2969" style="stroke: #383838; stroke-width: 1.0;" width="63" x="1558" y="98.2813"/><text fill="#000000" font-family="sans-serif" font-size="14" lengthAdjust="spacingAndGlyphs" textLength="49" x="1565" y="118.2764">Produit</text><rect fill="#F8F8F8" height="30.2969" style="stroke: #383838; stroke-width: 1.0;" width="63" x="1558" y="3002.6484"/><text fill="#000000" font-family="sans-serif" font-size="14" lengthAdjust="spacingAndGlyphs" textLength="49" x="1565" y="3022.6436">Produit</text><rect fill="#F8F8F8" height="30.2969" style="stroke: #383838; stroke-width: 1.0;" width="68" x="1631" y="98.2813"/><text fill="#000000" font-family="sans-serif" font-size="14" lengthAdjust="spacingAndGlyphs" textLength="54" x="1638" y="118.2764">Contact</text><rect fill="#F8F8F8" height="30.2969" style="stroke: #383838; stroke-width: 1.0;" width="68" x="1631" y="3002.6484"/><text fill="#000000" font-family="sans-serif" font-size="14" lengthAdjust="spacingAndGlyphs" textLength="54" x="1638" y="3022.6436">Contact</text><rect fill="#F8F8F8" height="30.2969" style="stroke: #383838; stroke-width: 1.0;" width="93" x="1709" y="98.2813"/><text fill="#000000" font-family="sans-serif" font-size="14" lengthAdjust="spacingAndGlyphs" textLength="79" x="1716" y="118.2764">Evenement</text><rect fill="#F8F8F8" height="30.2969" style="stroke: #383838; stroke-width: 1.0;" width="93" x="1709" y="3002.6484"/><text fill="#000000" font-family="sans-serif" font-size="14" lengthAdjust="spacingAndGlyphs" textLength="79" x="1716" y="3022.6436">Evenement</text><rect fill="#FFFFFF" height="40.2656" style="stroke: #000000; stroke-width: 1.0;" width="343" x="40" y="139.5781"/><polygon fill="#EEEEEE" points="40,139.5781,106,139.5781,106,146.5781,96,156.5781,40,156.5781,40,139.5781" style="stroke: #000000; stroke-width: 1.0;"/><text fill="#000000" font-family="sans-serif" font-size="13" font-weight="bold" lengthAdjust="spacingAndGlyphs" textLength="21" x="53" y="153.645">ref</text><text fill="#000000" font-family="sans-serif" font-size="13" lengthAdjust="spacingAndGlyphs" textLength="108" x="157.5" y="172.645">Identifier le client</text><polygon fill="#383838" points="348.5,201.8438,358.5,205.8438,348.5,209.8438,352.5,205.8438" style="stroke: #383838; stroke-width: 1.0;"/><line style="stroke: #383838; stroke-width: 1.0;" x1="66.5" x2="354.5" y1="205.8438" y2="205.8438"/><text fill="#000000" font-family="sans-serif" font-size="13" lengthAdjust="spacingAndGlyphs" textLength="184" x="73.5" y="200.9106">Consulter le dossier du client</text><polygon fill="#383838" points="823.5,245.9766,833.5,249.9766,823.5,253.9766,827.5,249.9766" style="stroke: #383838; stroke-width: 1.0;"/><line style="stroke: #383838; stroke-width: 1.0;" x1="360.5" x2="829.5" y1="249.9766" y2="249.9766"/><text fill="#000000" font-family="sans-serif" font-size="13" lengthAdjust="spacingAndGlyphs" textLength="250" x="367.5" y="230.0435">SM34 - ObtenirClientEtAgence(idClient)</text><text fill="#000000" font-family="sans-serif" font-size="13" lengthAdjust="spacingAndGlyphs" textLength="100" x="367.5" y="245.1763">: Client, Agence</text><polygon fill="#383838" points="1229.5,290.2422,1239.5,294.2422,1229.5,298.2422,1233.5,294.2422" style="stroke: #383838; stroke-width: 1.0;"/><line style="stroke: #383838; stroke-width: 1.0;" x1="835.5" x2="1235.5" y1="294.2422" y2="294.2422"/><text fill="#000000" font-family="sans-serif" font-size="13" lengthAdjust="spacingAndGlyphs" textLength="140" x="842.5" y="274.3091">ObtenirClient(idClient)</text><text fill="#000000" font-family="sans-serif" font-size="13" lengthAdjust="spacingAndGlyphs" textLength="44" x="842.5" y="289.4419">: Client</text><polygon fill="#383838" points="1305,334.5078,1315,338.5078,1305,342.5078,1309,338.5078" style="stroke: #383838; stroke-width: 1.0;"/><line style="stroke: #383838; stroke-width: 1.0;" x1="835.5" x2="1311" y1="338.5078" y2="338.5078"/><text fill="#000000" font-family="sans-serif" font-size="13" lengthAdjust="spacingAndGlyphs" textLength="206" x="842.5" y="318.5747">ObtenirAgenceDuClient(idClient)</text><text fill="#000000" font-family="sans-serif" font-size="13" lengthAdjust="spacingAndGlyphs" textLength="56" x="842.5" y="333.7075">: Agence</text><rect fill="none" height="1385.9688" style="stroke: #000000; stroke-width: 1.0;" width="1565" x="13" y="353.7734"/><polygon fill="#EEEEEE" points="13,353.7734,83,353.7734,83,360.7734,73,370.7734,13,370.7734,13,353.7734" style="stroke: #000000; stroke-width: 1.0;"/><text fill="#000000" font-family="sans-serif" font-size="13" font-weight="bold" lengthAdjust="spacingAndGlyphs" textLength="25" x="28" y="366.8403">opt</text><text fill="#000000" font-family="sans-serif" font-size="11" font-weight="bold" lengthAdjust="spacingAndGlyphs" textLength="43" x="98" y="365.9839">[Bilan]</text><polygon fill="#383838" points="348.5,402.9063,358.5,406.9063,348.5,410.9063,352.5,406.9063" style="stroke: #383838; stroke-width: 1.0;"/><line style="stroke: #383838; stroke-width: 1.0;" x1="66.5" x2="354.5" y1="406.9063" y2="406.9063"/><text fill="#000000" font-family="sans-serif" font-size="13" lengthAdjust="spacingAndGlyphs" textLength="133" x="73.5" y="386.9731">Consulter bilan client</text><text fill="#000000" font-family="sans-serif" font-size="13" lengthAdjust="spacingAndGlyphs" textLength="187" x="73.5" y="402.106">(cotation, liste de personnes)</text><polygon fill="#383838" points="823.5,447.1719,833.5,451.1719,823.5,455.1719,827.5,451.1719" style="stroke: #383838; stroke-width: 1.0;"/><line style="stroke: #383838; stroke-width: 1.0;" x1="360.5" x2="829.5" y1="451.1719" y2="451.1719"/><text fill="#000000" font-family="sans-serif" font-size="13" lengthAdjust="spacingAndGlyphs" textLength="234" x="367.5" y="431.2388">SM35 - ConsulterBilanClient(idClient)</text><text fill="#000000" font-family="sans-serif" font-size="13" lengthAdjust="spacingAndGlyphs" textLength="223" x="367.5" y="446.3716">: cotationsClient, Liste&lt;Personne&gt;</text><polygon fill="#383838" points="1229.5,491.4375,1239.5,495.4375,1229.5,499.4375,1233.5,495.4375" style="stroke: #383838; stroke-width: 1.0;"/><line style="stroke: #383838; stroke-width: 1.0;" x1="835.5" x2="1235.5" y1="495.4375" y2="495.4375"/><text fill="#000000" font-family="sans-serif" font-size="13" lengthAdjust="spacingAndGlyphs" textLength="191" x="842.5" y="475.5044">ConsulterDetailClient(idClient)</text><text fill="#000000" font-family="sans-serif" font-size="13" lengthAdjust="spacingAndGlyphs" textLength="234" x="842.5" y="490.6372">: cotationsClient, Liste&lt;idPersonne&gt;</text><rect fill="none" height="61.3984" style="stroke: #000000; stroke-width: 1.0;" width="353" x="1205" y="510.7031"/><polygon fill="#EEEEEE" points="1205,510.7031,1282,510.7031,1282,517.7031,1272,527.7031,1205,527.7031,1205,510.7031" style="stroke: #000000; stroke-width: 1.0;"/><text fill="#000000" font-family="sans-serif" font-size="13" font-weight="bold" lengthAdjust="spacingAndGlyphs" textLength="32" x="1220" y="523.77">loop</text><text fill="#000000" font-family="sans-serif" font-size="11" font-weight="bold" lengthAdjust="spacingAndGlyphs" textLength="154" x="1297" y="522.9136">[Pour chaque personne]</text><polygon fill="#383838" points="1495.5,559.8359,1505.5,563.8359,1495.5,567.8359,1499.5,563.8359" style="stroke: #383838; stroke-width: 1.0;"/><line style="stroke: #383838; stroke-width: 1.0;" x1="1241.5" x2="1501.5" y1="563.8359" y2="563.8359"/><text fill="#000000" font-family="sans-serif" font-size="13" lengthAdjust="spacingAndGlyphs" textLength="188" x="1248.5" y="543.9028">ObtenirPersonne(idPersonne)</text><text fill="#000000" font-family="sans-serif" font-size="13" lengthAdjust="spacingAndGlyphs" textLength="68" x="1248.5" y="559.0356">: Personne</text><rect fill="none" height="982.7109" style="stroke: #000000; stroke-width: 1.0;" width="1545" x="23" y="586.1016"/><polygon fill="#EEEEEE" points="23,586.1016,93,586.1016,93,593.1016,83,603.1016,23,603.1016,23,586.1016" style="stroke: #000000; stroke-width: 1.0;"/><text fill="#000000" font-family="sans-serif" font-size="13" font-weight="bold" lengthAdjust="spacingAndGlyphs" textLength="25" x="38" y="599.1685">opt</text><polygon fill="#383838" points="348.5,620.2344,358.5,624.2344,348.5,628.2344,352.5,624.2344" style="stroke: #383838; stroke-width: 1.0;"/><line style="stroke: #383838; stroke-width: 1.0;" x1="66.5" x2="354.5" y1="624.2344" y2="624.2344"/><text fill="#000000" font-family="sans-serif" font-size="13" lengthAdjust="spacingAndGlyphs" textLength="144" x="73.5" y="619.3013">Sélectionner Personne</text><polygon fill="#383838" points="348.5,664.3672,358.5,668.3672,348.5,672.3672,352.5,668.3672" style="stroke: #383838; stroke-width: 1.0;"/><line style="stroke: #383838; stroke-width: 1.0;" x1="66.5" x2="354.5" y1="668.3672" y2="668.3672"/><text fill="#000000" font-family="sans-serif" font-size="13" lengthAdjust="spacingAndGlyphs" textLength="107" x="73.5" y="648.4341">Consulter details</text><text fill="#000000" font-family="sans-serif" font-size="13" lengthAdjust="spacingAndGlyphs" textLength="99" x="73.5" y="663.5669">d'une personne</text><polygon fill="#383838" points="823.5,708.6328,833.5,712.6328,823.5,716.6328,827.5,712.6328" style="stroke: #383838; stroke-width: 1.0;"/><line style="stroke: #383838; stroke-width: 1.0;" x1="360.5" x2="829.5" y1="712.6328" y2="712.6328"/><text fill="#000000" font-family="sans-serif" font-size="13" lengthAdjust="spacingAndGlyphs" textLength="288" x="367.5" y="692.6997">SM36 - ConsulterDetailPersonne(idPersonne)</text><text fill="#000000" font-family="sans-serif" font-size="13" lengthAdjust="spacingAndGlyphs" textLength="355" x="367.5" y="707.8325">: adresse, revenu, impot, dateNaissance, Liste&lt;Client&gt;</text><polygon fill="#383838" points="1495.5,752.8984,1505.5,756.8984,1495.5,760.8984,1499.5,756.8984" style="stroke: #383838; stroke-width: 1.0;"/><line style="stroke: #383838; stroke-width: 1.0;" x1="835.5" x2="1501.5" y1="756.8984" y2="756.8984"/><text fill="#000000" font-family="sans-serif" font-size="13" lengthAdjust="spacingAndGlyphs" textLength="232" x="842.5" y="736.9653">ObtenirDetailsPersonne(idPersonne)</text><text fill="#000000" font-family="sans-serif" font-size="13" lengthAdjust="spacingAndGlyphs" textLength="259" x="842.5" y="752.0981">: adresse, revenu, impot, dateNaissance</text><polygon fill="#383838" points="1229.5,797.1641,1239.5,801.1641,1229.5,805.1641,1233.5,801.1641" style="stroke: #383838; stroke-width: 1.0;"/><line style="stroke: #383838; stroke-width: 1.0;" x1="835.5" x2="1235.5" y1="801.1641" y2="801.1641"/><text fill="#000000" font-family="sans-serif" font-size="13" lengthAdjust="spacingAndGlyphs" textLength="231" x="842.5" y="781.231">ObtenirClientsPersonne(idPersonne)</text><text fill="#000000" font-family="sans-serif" font-size="13" lengthAdjust="spacingAndGlyphs" textLength="96" x="842.5" y="796.3638">: Liste&lt;Client&gt;</text><polygon fill="#383838" points="348.5,826.4297,358.5,830.4297,348.5,834.4297,352.5,830.4297" style="stroke: #383838; stroke-width: 1.0;"/><line style="stroke: #383838; stroke-width: 1.0;" x1="66.5" x2="354.5" y1="830.4297" y2="830.4297"/><text fill="#000000" font-family="sans-serif" font-size="13" lengthAdjust="spacingAndGlyphs" textLength="133" x="73.5" y="825.4966">Mise à jour personne</text><polygon fill="#383838" points="823.5,885.5625,833.5,889.5625,823.5,893.5625,827.5,889.5625" style="stroke: #383838; stroke-width: 1.0;"/><line style="stroke: #383838; stroke-width: 1.0;" x1="360.5" x2="829.5" y1="889.5625" y2="889.5625"/><text fill="#000000" font-family="sans-serif" font-size="13" lengthAdjust="spacingAndGlyphs" textLength="359" x="367.5" y="854.6294">SM37 - MettreAJourPersonne(idPersonne, nom, prenom,</text><text fill="#000000" font-family="sans-serif" font-size="13" lengthAdjust="spacingAndGlyphs" textLength="256" x="367.5" y="869.7622">adresse, revenu, impot, dateNaissance)</text><text fill="#000000" font-family="sans-serif" font-size="13" lengthAdjust="spacingAndGlyphs" textLength="34" x="367.5" y="884.895">: void</text><polygon fill="#383838" points="1495.5,944.9609,1505.5,948.9609,1495.5,952.9609,1499.5,948.9609" style="stroke: #383838; stroke-width: 1.0;"/><line style="stroke: #383838; stroke-width: 1.0;" x1="835.5" x2="1501.5" y1="948.9609" y2="948.9609"/><text fill="#000000" font-family="sans-serif" font-size="13" lengthAdjust="spacingAndGlyphs" textLength="258" x="842.5" y="914.0278">MAJPersonne(idPersonne, nom, prenom,</text><text fill="#000000" font-family="sans-serif" font-size="13" lengthAdjust="spacingAndGlyphs" textLength="256" x="842.5" y="929.1606">adresse, revenu, impot, dateNaissance)</text><text fill="#000000" font-family="sans-serif" font-size="13" lengthAdjust="spacingAndGlyphs" textLength="34" x="842.5" y="944.2935">: void</text><line style="stroke: #000000; stroke-width: 1.0; stroke-dasharray: 2.0,2.0;" x1="23" x2="1568" y1="958.3594" y2="958.3594"/><polygon fill="#383838" points="348.5,976.3594,358.5,980.3594,348.5,984.3594,352.5,980.3594" style="stroke: #383838; stroke-width: 1.0;"/><line style="stroke: #383838; stroke-width: 1.0;" x1="66.5" x2="354.5" y1="980.3594" y2="980.3594"/><text fill="#000000" font-family="sans-serif" font-size="13" lengthAdjust="spacingAndGlyphs" textLength="119" x="73.5" y="975.4263">Saisir Informations</text><polygon fill="#383838" points="348.5,1005.4922,358.5,1009.4922,348.5,1013.4922,352.5,1009.4922" style="stroke: #383838; stroke-width: 1.0;"/><line style="stroke: #383838; stroke-width: 1.0;" x1="66.5" x2="354.5" y1="1009.4922" y2="1009.4922"/><text fill="#000000" font-family="sans-serif" font-size="13" lengthAdjust="spacingAndGlyphs" textLength="129" x="73.5" y="1004.5591">Récupérer personne</text><polygon fill="#383838" points="823.5,1049.625,833.5,1053.625,823.5,1057.625,827.5,1053.625" style="stroke: #383838; stroke-width: 1.0;"/><line style="stroke: #383838; stroke-width: 1.0;" x1="360.5" x2="829.5" y1="1053.625" y2="1053.625"/><text fill="#000000" font-family="sans-serif" font-size="13" lengthAdjust="spacingAndGlyphs" textLength="412" x="367.5" y="1033.6919">SM38 - RecupererPersonne(nom, prenom, trancheAge, adresse)</text><text fill="#000000" font-family="sans-serif" font-size="13" lengthAdjust="spacingAndGlyphs" textLength="68" x="367.5" y="1048.8247">: Personne</text><polygon fill="#383838" points="1495.5,1093.8906,1505.5,1097.8906,1495.5,1101.8906,1499.5,1097.8906" style="stroke: #383838; stroke-width: 1.0;"/><line style="stroke: #383838; stroke-width: 1.0;" x1="835.5" x2="1501.5" y1="1097.8906" y2="1097.8906"/><text fill="#000000" font-family="sans-serif" font-size="13" lengthAdjust="spacingAndGlyphs" textLength="346" x="842.5" y="1077.9575">TrouverPersonne(nom, prenom, trancheAge, adresse)</text><text fill="#000000" font-family="sans-serif" font-size="13" lengthAdjust="spacingAndGlyphs" textLength="68" x="842.5" y="1093.0903">: Personne</text><rect fill="none" height="328.9922" style="stroke: #000000; stroke-width: 1.0;" width="1525" x="33" y="1113.1563"/><polygon fill="#EEEEEE" points="33,1113.1563,103,1113.1563,103,1120.1563,93,1130.1563,33,1130.1563,33,1113.1563" style="stroke: #000000; stroke-width: 1.0;"/><text fill="#000000" font-family="sans-serif" font-size="13" font-weight="bold" lengthAdjust="spacingAndGlyphs" textLength="25" x="48" y="1126.2231">opt</text><polygon fill="#383838" points="348.5,1147.2891,358.5,1151.2891,348.5,1155.2891,352.5,1151.2891" style="stroke: #383838; stroke-width: 1.0;"/><line style="stroke: #383838; stroke-width: 1.0;" x1="66.5" x2="354.5" y1="1151.2891" y2="1151.2891"/><text fill="#000000" font-family="sans-serif" font-size="13" lengthAdjust="spacingAndGlyphs" textLength="138" x="73.5" y="1146.356">Ajouter une personne</text><polygon fill="#383838" points="823.5,1191.4219,833.5,1195.4219,823.5,1199.4219,827.5,1195.4219" style="stroke: #383838; stroke-width: 1.0;"/><line style="stroke: #383838; stroke-width: 1.0;" x1="360.5" x2="829.5" y1="1195.4219" y2="1195.4219"/><text fill="#000000" font-family="sans-serif" font-size="13" lengthAdjust="spacingAndGlyphs" textLength="291" x="367.5" y="1175.4888">SM39 - AjouterPersonne(idClient, idPersonne)</text><text fill="#000000" font-family="sans-serif" font-size="13" lengthAdjust="spacingAndGlyphs" textLength="34" x="367.5" y="1190.6216">: void</text><polygon fill="#383838" points="1229.5,1235.6875,1239.5,1239.6875,1229.5,1243.6875,1233.5,1239.6875" style="stroke: #383838; stroke-width: 1.0;"/><line style="stroke: #383838; stroke-width: 1.0;" x1="835.5" x2="1235.5" y1="1239.6875" y2="1239.6875"/><text fill="#000000" font-family="sans-serif" font-size="13" lengthAdjust="spacingAndGlyphs" textLength="242" x="842.5" y="1219.7544">AjouterPersonne(idClient, idPersonne)</text><text fill="#000000" font-family="sans-serif" font-size="13" lengthAdjust="spacingAndGlyphs" textLength="34" x="842.5" y="1234.8872">: void</text><line style="stroke: #000000; stroke-width: 1.0; stroke-dasharray: 2.0,2.0;" x1="33" x2="1558" y1="1248.9531" y2="1248.9531"/><polygon fill="#383838" points="348.5,1266.9531,358.5,1270.9531,348.5,1274.9531,352.5,1270.9531" style="stroke: #383838; stroke-width: 1.0;"/><line style="stroke: #383838; stroke-width: 1.0;" x1="66.5" x2="354.5" y1="1270.9531" y2="1270.9531"/><text fill="#000000" font-family="sans-serif" font-size="13" lengthAdjust="spacingAndGlyphs" textLength="156" x="73.5" y="1266.02">Créer nouvelle personne</text><polygon fill="#383838" points="823.5,1326.0859,833.5,1330.0859,823.5,1334.0859,827.5,1330.0859" style="stroke: #383838; stroke-width: 1.0;"/><line style="stroke: #383838; stroke-width: 1.0;" x1="360.5" x2="829.5" y1="1330.0859" y2="1330.0859"/><text fill="#000000" font-family="sans-serif" font-size="13" lengthAdjust="spacingAndGlyphs" textLength="409" x="367.5" y="1295.1528">SM40 - CreerEtAjouterNouvellePersonne(idClient, nom, prenom,</text><text fill="#000000" font-family="sans-serif" font-size="13" lengthAdjust="spacingAndGlyphs" textLength="270" x="367.5" y="1310.2856">dateNaissance, adresse, revenus, impots)</text><text fill="#000000" font-family="sans-serif" font-size="13" lengthAdjust="spacingAndGlyphs" textLength="34" x="367.5" y="1325.4185">: void</text><polygon fill="#383838" points="1495.5,1385.4844,1505.5,1389.4844,1495.5,1393.4844,1499.5,1389.4844" style="stroke: #383838; stroke-width: 1.0;"/><line style="stroke: #383838; stroke-width: 1.0;" x1="835.5" x2="1501.5" y1="1389.4844" y2="1389.4844"/><text fill="#000000" font-family="sans-serif" font-size="13" lengthAdjust="spacingAndGlyphs" textLength="191" x="842.5" y="1354.5513">CreerPersonne(nom, prenom,</text><text fill="#000000" font-family="sans-serif" font-size="13" lengthAdjust="spacingAndGlyphs" textLength="270" x="842.5" y="1369.6841">dateNaissance, adresse, revenus, impots)</text><text fill="#000000" font-family="sans-serif" font-size="13" lengthAdjust="spacingAndGlyphs" textLength="79" x="842.5" y="1384.8169">: idPersonne</text><polygon fill="#383838" points="1252.5,1429.8828,1242.5,1433.8828,1252.5,1437.8828,1248.5,1433.8828" style="stroke: #383838; stroke-width: 1.0;"/><line style="stroke: #383838; stroke-width: 1.0;" x1="1246.5" x2="1506.5" y1="1433.8828" y2="1433.8828"/><text fill="#000000" font-family="sans-serif" font-size="13" lengthAdjust="spacingAndGlyphs" textLength="242" x="1258.5" y="1413.9497">AjouterPersonne(idClient, idPersonne)</text><text fill="#000000" font-family="sans-serif" font-size="13" lengthAdjust="spacingAndGlyphs" textLength="34" x="1258.5" y="1429.0825">: void</text><line style="stroke: #000000; stroke-width: 1.0; stroke-dasharray: 2.0,2.0;" x1="23" x2="1568" y1="1450.1484" y2="1450.1484"/><polygon fill="#383838" points="348.5,1468.1484,358.5,1472.1484,348.5,1476.1484,352.5,1472.1484" style="stroke: #383838; stroke-width: 1.0;"/><line style="stroke: #383838; stroke-width: 1.0;" x1="66.5" x2="354.5" y1="1472.1484" y2="1472.1484"/><text fill="#000000" font-family="sans-serif" font-size="13" lengthAdjust="spacingAndGlyphs" textLength="134" x="73.5" y="1467.2153">Retirer une personne</text><polygon fill="#383838" points="823.5,1512.2813,833.5,1516.2813,823.5,1520.2813,827.5,1516.2813" style="stroke: #383838; stroke-width: 1.0;"/><line style="stroke: #383838; stroke-width: 1.0;" x1="360.5" x2="829.5" y1="1516.2813" y2="1516.2813"/><text fill="#000000" font-family="sans-serif" font-size="13" lengthAdjust="spacingAndGlyphs" textLength="287" x="367.5" y="1496.3481">SM41 - RetirerPersonne(idClient, idPersonne)</text><text fill="#000000" font-family="sans-serif" font-size="13" lengthAdjust="spacingAndGlyphs" textLength="34" x="367.5" y="1511.481">: void</text><polygon fill="#383838" points="1229.5,1556.5469,1239.5,1560.5469,1229.5,1564.5469,1233.5,1560.5469" style="stroke: #383838; stroke-width: 1.0;"/><line style="stroke: #383838; stroke-width: 1.0;" x1="835.5" x2="1235.5" y1="1560.5469" y2="1560.5469"/><text fill="#000000" font-family="sans-serif" font-size="13" lengthAdjust="spacingAndGlyphs" textLength="238" x="842.5" y="1540.6138">RetirerPersonne(idClient, idPersonne)</text><text fill="#000000" font-family="sans-serif" font-size="13" lengthAdjust="spacingAndGlyphs" textLength="34" x="842.5" y="1555.7466">: void</text><line style="stroke: #000000; stroke-width: 1.0; stroke-dasharray: 2.0,2.0;" x1="13" x2="1578" y1="1576.8125" y2="1576.8125"/><polygon fill="#383838" points="348.5,1594.8125,358.5,1598.8125,348.5,1602.8125,352.5,1598.8125" style="stroke: #383838; stroke-width: 1.0;"/><line style="stroke: #383838; stroke-width: 1.0;" x1="66.5" x2="354.5" y1="1598.8125" y2="1598.8125"/><text fill="#000000" font-family="sans-serif" font-size="13" lengthAdjust="spacingAndGlyphs" textLength="140" x="73.5" y="1593.8794">Saisir Nouvelle Entete</text><polygon fill="#383838" points="348.5,1623.9453,358.5,1627.9453,348.5,1631.9453,352.5,1627.9453" style="stroke: #383838; stroke-width: 1.0;"/><line style="stroke: #383838; stroke-width: 1.0;" x1="66.5" x2="354.5" y1="1627.9453" y2="1627.9453"/><text fill="#000000" font-family="sans-serif" font-size="13" lengthAdjust="spacingAndGlyphs" textLength="106" x="73.5" y="1623.0122">Maj entête client</text><polygon fill="#383838" points="823.5,1683.0781,833.5,1687.0781,823.5,1691.0781,827.5,1687.0781" style="stroke: #383838; stroke-width: 1.0;"/><line style="stroke: #383838; stroke-width: 1.0;" x1="360.5" x2="829.5" y1="1687.0781" y2="1687.0781"/><text fill="#000000" font-family="sans-serif" font-size="13" lengthAdjust="spacingAndGlyphs" textLength="162" x="367.5" y="1652.145">SM42 - MAJEnteteDossier</text><text fill="#000000" font-family="sans-serif" font-size="13" lengthAdjust="spacingAndGlyphs" textLength="259" x="367.5" y="1667.2778">(idClient, denomination, adressePostale)</text><text fill="#000000" font-family="sans-serif" font-size="13" lengthAdjust="spacingAndGlyphs" textLength="34" x="367.5" y="1682.4106">: void</text><polygon fill="#383838" points="1229.5,1727.4766,1239.5,1731.4766,1229.5,1735.4766,1233.5,1731.4766" style="stroke: #383838; stroke-width: 1.0;"/><line style="stroke: #383838; stroke-width: 1.0;" x1="835.5" x2="1235.5" y1="1731.4766" y2="1731.4766"/><text fill="#000000" font-family="sans-serif" font-size="13" lengthAdjust="spacingAndGlyphs" textLength="371" x="842.5" y="1711.5435">MajEnteteDossier(idClient, denomination, adressePostale)</text><text fill="#000000" font-family="sans-serif" font-size="13" lengthAdjust="spacingAndGlyphs" textLength="34" x="842.5" y="1726.6763">: void</text><rect fill="none" height="790.5156" style="stroke: #000000; stroke-width: 1.0;" width="1618" x="23" y="1753.7422"/><polygon fill="#EEEEEE" points="23,1753.7422,93,1753.7422,93,1760.7422,83,1770.7422,23,1770.7422,23,1753.7422" style="stroke: #000000; stroke-width: 1.0;"/><text fill="#000000" font-family="sans-serif" font-size="13" font-weight="bold" lengthAdjust="spacingAndGlyphs" textLength="25" x="38" y="1766.8091">opt</text><text fill="#000000" font-family="sans-serif" font-size="11" font-weight="bold" lengthAdjust="spacingAndGlyphs" textLength="63" x="108" y="1765.9526">[Produits]</text><polygon fill="#383838" points="348.5,1817.875,358.5,1821.875,348.5,1825.875,352.5,1821.875" style="stroke: #383838; stroke-width: 1.0;"/><line style="stroke: #383838; stroke-width: 1.0;" x1="66.5" x2="354.5" y1="1821.875" y2="1821.875"/><text fill="#000000" font-family="sans-serif" font-size="13" lengthAdjust="spacingAndGlyphs" textLength="137" x="73.5" y="1786.9419">Consulter produits du</text><text fill="#000000" font-family="sans-serif" font-size="13" lengthAdjust="spacingAndGlyphs" textLength="113" x="73.5" y="1802.0747">client à la banque</text><text fill="#000000" font-family="sans-serif" font-size="13" lengthAdjust="spacingAndGlyphs" textLength="123" x="73.5" y="1817.2075">et à la concurrence</text><polygon fill="#383838" points="823.5,1862.2734,833.5,1866.2734,823.5,1870.2734,827.5,1866.2734" style="stroke: #383838; stroke-width: 1.0;"/><line style="stroke: #383838; stroke-width: 1.0;" x1="360.5" x2="829.5" y1="1866.2734" y2="1866.2734"/><text fill="#000000" font-family="sans-serif" font-size="13" lengthAdjust="spacingAndGlyphs" textLength="205" x="367.5" y="1846.3403">SM43 - ObtenirProduits(idClient)</text><text fill="#000000" font-family="sans-serif" font-size="13" lengthAdjust="spacingAndGlyphs" textLength="164" x="367.5" y="1861.4731">: Liste&lt;Compte, Produit&gt;</text><polygon fill="#383838" points="1229.5,1906.5391,1239.5,1910.5391,1229.5,1914.5391,1233.5,1910.5391" style="stroke: #383838; stroke-width: 1.0;"/><line style="stroke: #383838; stroke-width: 1.0;" x1="835.5" x2="1235.5" y1="1910.5391" y2="1910.5391"/><text fill="#000000" font-family="sans-serif" font-size="13" lengthAdjust="spacingAndGlyphs" textLength="156" x="842.5" y="1890.606">ObtenirProduits(idClient)</text><text fill="#000000" font-family="sans-serif" font-size="13" lengthAdjust="spacingAndGlyphs" textLength="175" x="842.5" y="1905.7388">: Liste&lt;Compte, idProduit&gt;</text><rect fill="none" height="61.3984" style="stroke: #000000; stroke-width: 1.0;" width="426" x="1205" y="1925.8047"/><polygon fill="#EEEEEE" points="1205,1925.8047,1282,1925.8047,1282,1932.8047,1272,1942.8047,1205,1942.8047,1205,1925.8047" style="stroke: #000000; stroke-width: 1.0;"/><text fill="#000000" font-family="sans-serif" font-size="13" font-weight="bold" lengthAdjust="spacingAndGlyphs" textLength="32" x="1220" y="1938.8716">loop</text><text fill="#000000" font-family="sans-serif" font-size="11" font-weight="bold" lengthAdjust="spacingAndGlyphs" textLength="140" x="1297" y="1938.0151">[Pour chaque produit]</text><polygon fill="#383838" points="1577.5,1974.9375,1587.5,1978.9375,1577.5,1982.9375,1581.5,1978.9375" style="stroke: #383838; stroke-width: 1.0;"/><line style="stroke: #383838; stroke-width: 1.0;" x1="1241.5" x2="1583.5" y1="1978.9375" y2="1978.9375"/><text fill="#000000" font-family="sans-serif" font-size="13" lengthAdjust="spacingAndGlyphs" textLength="158" x="1248.5" y="1959.0044">ObtenirProduit(idProduit)</text><text fill="#000000" font-family="sans-serif" font-size="13" lengthAdjust="spacingAndGlyphs" textLength="53" x="1248.5" y="1974.1372">: Produit</text><rect fill="none" height="179.0625" style="stroke: #000000; stroke-width: 1.0;" width="1245" x="33" y="2001.2031"/><polygon fill="#EEEEEE" points="33,2001.2031,103,2001.2031,103,2008.2031,93,2018.2031,33,2018.2031,33,2001.2031" style="stroke: #000000; stroke-width: 1.0;"/><text fill="#000000" font-family="sans-serif" font-size="13" font-weight="bold" lengthAdjust="spacingAndGlyphs" textLength="25" x="48" y="2014.27">opt</text><text fill="#000000" font-family="sans-serif" font-size="11" font-weight="bold" lengthAdjust="spacingAndGlyphs" textLength="106" x="118" y="2013.4136">[Details compte]</text><polygon fill="#383838" points="348.5,2035.3359,358.5,2039.3359,348.5,2043.3359,352.5,2039.3359" style="stroke: #383838; stroke-width: 1.0;"/><line style="stroke: #383838; stroke-width: 1.0;" x1="66.5" x2="354.5" y1="2039.3359" y2="2039.3359"/><text fill="#000000" font-family="sans-serif" font-size="13" lengthAdjust="spacingAndGlyphs" textLength="135" x="73.5" y="2034.4028">Sélectionner Compte</text><polygon fill="#383838" points="348.5,2079.4688,358.5,2083.4688,348.5,2087.4688,352.5,2083.4688" style="stroke: #383838; stroke-width: 1.0;"/><line style="stroke: #383838; stroke-width: 1.0;" x1="66.5" x2="354.5" y1="2083.4688" y2="2083.4688"/><text fill="#000000" font-family="sans-serif" font-size="13" lengthAdjust="spacingAndGlyphs" textLength="107" x="73.5" y="2063.5356">Consulter détails</text><text fill="#000000" font-family="sans-serif" font-size="13" lengthAdjust="spacingAndGlyphs" textLength="80" x="73.5" y="2078.6685">d'un compte</text><polygon fill="#383838" points="823.5,2123.7344,833.5,2127.7344,823.5,2131.7344,827.5,2127.7344" style="stroke: #383838; stroke-width: 1.0;"/><line style="stroke: #383838; stroke-width: 1.0;" x1="360.5" x2="829.5" y1="2127.7344" y2="2127.7344"/><text fill="#000000" font-family="sans-serif" font-size="13" lengthAdjust="spacingAndGlyphs" textLength="256" x="367.5" y="2107.8013">SM44 - ObtenirDetailCompte(idCompte)</text><text fill="#000000" font-family="sans-serif" font-size="13" lengthAdjust="spacingAndGlyphs" textLength="207" x="367.5" y="2122.9341">: numero, description, historique</text><polygon fill="#383838" points="1229.5,2168,1239.5,2172,1229.5,2176,1233.5,2172" style="stroke: #383838; stroke-width: 1.0;"/><line style="stroke: #383838; stroke-width: 1.0;" x1="835.5" x2="1235.5" y1="2172" y2="2172"/><text fill="#000000" font-family="sans-serif" font-size="13" lengthAdjust="spacingAndGlyphs" textLength="214" x="842.5" y="2152.0669">ObtenirDetailsCompte(idCompte)</text><text fill="#000000" font-family="sans-serif" font-size="13" lengthAdjust="spacingAndGlyphs" textLength="207" x="842.5" y="2167.1997">: numero, description, historique</text><rect fill="none" height="149.9297" style="stroke: #000000; stroke-width: 1.0;" width="1598" x="33" y="2194.2656"/><polygon fill="#EEEEEE" points="33,2194.2656,103,2194.2656,103,2201.2656,93,2211.2656,33,2211.2656,33,2194.2656" style="stroke: #000000; stroke-width: 1.0;"/><text fill="#000000" font-family="sans-serif" font-size="13" font-weight="bold" lengthAdjust="spacingAndGlyphs" textLength="25" x="48" y="2207.3325">opt</text><text fill="#000000" font-family="sans-serif" font-size="11" font-weight="bold" lengthAdjust="spacingAndGlyphs" textLength="241" x="118" y="2206.4761">[Détail Produit / Sélectionner Produit]</text><polygon fill="#383838" points="348.5,2243.3984,358.5,2247.3984,348.5,2251.3984,352.5,2247.3984" style="stroke: #383838; stroke-width: 1.0;"/><line style="stroke: #383838; stroke-width: 1.0;" x1="66.5" x2="354.5" y1="2247.3984" y2="2247.3984"/><text fill="#000000" font-family="sans-serif" font-size="13" lengthAdjust="spacingAndGlyphs" textLength="100" x="73.5" y="2227.4653">Consulter détail</text><text fill="#000000" font-family="sans-serif" font-size="13" lengthAdjust="spacingAndGlyphs" textLength="76" x="77.5" y="2242.5981">d'un produit</text><polygon fill="#383838" points="823.5,2287.6641,833.5,2291.6641,823.5,2295.6641,827.5,2291.6641" style="stroke: #383838; stroke-width: 1.0;"/><line style="stroke: #383838; stroke-width: 1.0;" x1="360.5" x2="829.5" y1="2291.6641" y2="2291.6641"/><text fill="#000000" font-family="sans-serif" font-size="13" lengthAdjust="spacingAndGlyphs" textLength="244" x="367.5" y="2271.731">SM45 - ObtenirDetailProduit(idProduit)</text><text fill="#000000" font-family="sans-serif" font-size="13" lengthAdjust="spacingAndGlyphs" textLength="164" x="367.5" y="2286.8638">: solde, découvert, interet</text><polygon fill="#383838" points="1577.5,2331.9297,1587.5,2335.9297,1577.5,2339.9297,1581.5,2335.9297" style="stroke: #383838; stroke-width: 1.0;"/><line style="stroke: #383838; stroke-width: 1.0;" x1="835.5" x2="1583.5" y1="2335.9297" y2="2335.9297"/><text fill="#000000" font-family="sans-serif" font-size="13" lengthAdjust="spacingAndGlyphs" textLength="202" x="842.5" y="2315.9966">ObtenirDetailsProduit(idProduit)</text><text fill="#000000" font-family="sans-serif" font-size="13" lengthAdjust="spacingAndGlyphs" textLength="164" x="842.5" y="2331.1294">: solde, découvert, interet</text><rect fill="none" height="179.0625" style="stroke: #000000; stroke-width: 1.0;" width="1245" x="33" y="2358.1953"/><polygon fill="#EEEEEE" points="33,2358.1953,103,2358.1953,103,2365.1953,93,2375.1953,33,2375.1953,33,2358.1953" style="stroke: #000000; stroke-width: 1.0;"/><text fill="#000000" font-family="sans-serif" font-size="13" font-weight="bold" lengthAdjust="spacingAndGlyphs" textLength="25" x="48" y="2371.2622">opt</text><text fill="#000000" font-family="sans-serif" font-size="11" font-weight="bold" lengthAdjust="spacingAndGlyphs" textLength="132" x="118" y="2370.4058">[Mise à jour compte]</text><polygon fill="#383838" points="348.5,2392.3281,358.5,2396.3281,348.5,2400.3281,352.5,2396.3281" style="stroke: #383838; stroke-width: 1.0;"/><line style="stroke: #383838; stroke-width: 1.0;" x1="66.5" x2="354.5" y1="2396.3281" y2="2396.3281"/><text fill="#000000" font-family="sans-serif" font-size="13" lengthAdjust="spacingAndGlyphs" textLength="119" x="73.5" y="2391.395">Saisir Informations</text><polygon fill="#383838" points="348.5,2436.4609,358.5,2440.4609,348.5,2444.4609,352.5,2440.4609" style="stroke: #383838; stroke-width: 1.0;"/><line style="stroke: #383838; stroke-width: 1.0;" x1="66.5" x2="354.5" y1="2440.4609" y2="2440.4609"/><text fill="#000000" font-family="sans-serif" font-size="13" lengthAdjust="spacingAndGlyphs" textLength="124" x="73.5" y="2420.5278">Maj compte/produit</text><text fill="#000000" font-family="sans-serif" font-size="13" lengthAdjust="spacingAndGlyphs" textLength="106" x="73.5" y="2435.6606">à la concurrence</text><polygon fill="#383838" points="823.5,2480.7266,833.5,2484.7266,823.5,2488.7266,827.5,2484.7266" style="stroke: #383838; stroke-width: 1.0;"/><line style="stroke: #383838; stroke-width: 1.0;" x1="360.5" x2="829.5" y1="2484.7266" y2="2484.7266"/><text fill="#000000" font-family="sans-serif" font-size="13" lengthAdjust="spacingAndGlyphs" textLength="432" x="367.5" y="2464.7935">SM46 - MAJComptesConcurrence(idClient, txtComptesConcurrence)</text><text fill="#000000" font-family="sans-serif" font-size="13" lengthAdjust="spacingAndGlyphs" textLength="34" x="367.5" y="2479.9263">: void</text><polygon fill="#383838" points="1229.5,2524.9922,1239.5,2528.9922,1229.5,2532.9922,1233.5,2528.9922" style="stroke: #383838; stroke-width: 1.0;"/><line style="stroke: #383838; stroke-width: 1.0;" x1="835.5" x2="1235.5" y1="2528.9922" y2="2528.9922"/><text fill="#000000" font-family="sans-serif" font-size="13" lengthAdjust="spacingAndGlyphs" textLength="382" x="842.5" y="2509.0591">MajComptesConcurrence(idClient, txtComptesConcurrence)</text><text fill="#000000" font-family="sans-serif" font-size="13" lengthAdjust="spacingAndGlyphs" textLength="34" x="842.5" y="2524.1919">: void</text><rect fill="none" height="428.3906" style="stroke: #000000; stroke-width: 1.0;" width="1779" x="33" y="2558.2578"/><polygon fill="#EEEEEE" points="33,2558.2578,103,2558.2578,103,2565.2578,93,2575.2578,33,2575.2578,33,2558.2578" style="stroke: #000000; stroke-width: 1.0;"/><text fill="#000000" font-family="sans-serif" font-size="13" font-weight="bold" lengthAdjust="spacingAndGlyphs" textLength="25" x="48" y="2571.3247">opt</text><text fill="#000000" font-family="sans-serif" font-size="11" font-weight="bold" lengthAdjust="spacingAndGlyphs" textLength="162" x="118" y="2570.4683">[Relations banque/client]</text><polygon fill="#383838" points="348.5,2607.3906,358.5,2611.3906,348.5,2615.3906,352.5,2611.3906" style="stroke: #383838; stroke-width: 1.0;"/><line style="stroke: #383838; stroke-width: 1.0;" x1="66.5" x2="354.5" y1="2611.3906" y2="2611.3906"/><text fill="#000000" font-family="sans-serif" font-size="13" lengthAdjust="spacingAndGlyphs" textLength="120" x="73.5" y="2591.4575">Consulter relations</text><text fill="#000000" font-family="sans-serif" font-size="13" lengthAdjust="spacingAndGlyphs" textLength="87" x="77.5" y="2606.5903">banque-client</text><polygon fill="#383838" points="823.5,2666.6563,833.5,2670.6563,823.5,2674.6563,827.5,2670.6563" style="stroke: #383838; stroke-width: 1.0;"/><line style="stroke: #383838; stroke-width: 1.0;" x1="360.5" x2="829.5" y1="2670.6563" y2="2670.6563"/><text fill="#000000" font-family="sans-serif" font-size="13" lengthAdjust="spacingAndGlyphs" textLength="310" x="367.5" y="2635.7231">SM47 - ConsulterRelationsBanqueClient(idClient)</text><text fill="#000000" font-family="sans-serif" font-size="13" lengthAdjust="spacingAndGlyphs" textLength="303" x="367.5" y="2650.856">: technique de contact, incidents, reclamations,</text><text fill="#000000" font-family="sans-serif" font-size="13" lengthAdjust="spacingAndGlyphs" textLength="451" x="367.5" y="2665.9888">Liste&lt;PropositionCommerciale&gt;, Liste&lt;Contact&gt;, Liste&lt;Evenement&gt;</text><polygon fill="#383838" points="1229.5,2711.0547,1239.5,2715.0547,1229.5,2719.0547,1233.5,2715.0547" style="stroke: #383838; stroke-width: 1.0;"/><line style="stroke: #383838; stroke-width: 1.0;" x1="835.5" x2="1235.5" y1="2715.0547" y2="2715.0547"/><text fill="#000000" font-family="sans-serif" font-size="13" lengthAdjust="spacingAndGlyphs" textLength="235" x="842.5" y="2695.1216">ConsulterInfosRelationClient(idClient)</text><text fill="#000000" font-family="sans-serif" font-size="13" lengthAdjust="spacingAndGlyphs" textLength="299" x="842.5" y="2710.2544">: technique de contact, incidents, réclamations</text><polygon fill="#383838" points="1653,2755.3203,1663,2759.3203,1653,2763.3203,1657,2759.3203" style="stroke: #383838; stroke-width: 1.0;"/><line style="stroke: #383838; stroke-width: 1.0;" x1="835.5" x2="1659" y1="2759.3203" y2="2759.3203"/><text fill="#000000" font-family="sans-serif" font-size="13" lengthAdjust="spacingAndGlyphs" textLength="261" x="842.5" y="2739.3872">ConsulterPropositionsHistorique(idClient)</text><text fill="#000000" font-family="sans-serif" font-size="13" lengthAdjust="spacingAndGlyphs" textLength="326" x="842.5" y="2754.52">: Liste&lt;PropositionCommerciale&gt;, Liste&lt;Contact&gt;</text><polygon fill="#383838" points="1743.5,2799.5859,1753.5,2803.5859,1743.5,2807.5859,1747.5,2803.5859" style="stroke: #383838; stroke-width: 1.0;"/><line style="stroke: #383838; stroke-width: 1.0;" x1="835.5" x2="1749.5" y1="2803.5859" y2="2803.5859"/><text fill="#000000" font-family="sans-serif" font-size="13" lengthAdjust="spacingAndGlyphs" textLength="240" x="842.5" y="2783.6528">ConsulterEvenementsAVenir(idClient)</text><text fill="#000000" font-family="sans-serif" font-size="13" lengthAdjust="spacingAndGlyphs" textLength="133" x="842.5" y="2798.7856">: Liste&lt;Evenement&gt;</text><polygon fill="#383838" points="348.5,2828.8516,358.5,2832.8516,348.5,2836.8516,352.5,2832.8516" style="stroke: #383838; stroke-width: 1.0;"/><line style="stroke: #383838; stroke-width: 1.0;" x1="66.5" x2="354.5" y1="2832.8516" y2="2832.8516"/><text fill="#000000" font-family="sans-serif" font-size="13" lengthAdjust="spacingAndGlyphs" textLength="270" x="73.5" y="2827.9185">Sélectionner une proposition commerciale</text><polygon fill="#383838" points="348.5,2857.9844,358.5,2861.9844,348.5,2865.9844,352.5,2861.9844" style="stroke: #383838; stroke-width: 1.0;"/><line style="stroke: #383838; stroke-width: 1.0;" x1="66.5" x2="354.5" y1="2861.9844" y2="2861.9844"/><text fill="#000000" font-family="sans-serif" font-size="13" lengthAdjust="spacingAndGlyphs" textLength="167" x="73.5" y="2857.0513">Identifier le contact (CU 8)</text><polygon fill="#383838" points="348.5,2887.1172,358.5,2891.1172,348.5,2895.1172,352.5,2891.1172" style="stroke: #383838; stroke-width: 1.0;"/><line style="stroke: #383838; stroke-width: 1.0;" x1="66.5" x2="354.5" y1="2891.1172" y2="2891.1172"/><text fill="#000000" font-family="sans-serif" font-size="13" lengthAdjust="spacingAndGlyphs" textLength="177" x="73.5" y="2886.1841">Sélectionner un événement</text><polygon fill="#383838" points="348.5,2916.25,358.5,2920.25,348.5,2924.25,352.5,2920.25" style="stroke: #383838; stroke-width: 1.0;"/><line style="stroke: #383838; stroke-width: 1.0;" x1="66.5" x2="354.5" y1="2920.25" y2="2920.25"/><text fill="#000000" font-family="sans-serif" font-size="13" lengthAdjust="spacingAndGlyphs" textLength="167" x="73.5" y="2915.3169">Identifier le contact (CU 8)</text><polygon fill="#383838" points="348.5,2945.3828,358.5,2949.3828,348.5,2953.3828,352.5,2949.3828" style="stroke: #383838; stroke-width: 1.0;"/><line style="stroke: #383838; stroke-width: 1.0;" x1="66.5" x2="354.5" y1="2949.3828" y2="2949.3828"/><text fill="#000000" font-family="sans-serif" font-size="13" lengthAdjust="spacingAndGlyphs" textLength="183" x="73.5" y="2944.4497">Sélectionner un rendez-vous</text><polygon fill="#383838" points="348.5,2974.5156,358.5,2978.5156,348.5,2982.5156,352.5,2978.5156" style="stroke: #383838; stroke-width: 1.0;"/><line style="stroke: #383838; stroke-width: 1.0;" x1="66.5" x2="354.5" y1="2978.5156" y2="2978.5156"/><text fill="#000000" font-family="sans-serif" font-size="13" lengthAdjust="spacingAndGlyphs" textLength="167" x="73.5" y="2973.5825">Identifier le contact (CU 8)</text></g></svg>