<?xml version="1.0" encoding="UTF-8" standalone="yes"?><svg xmlns="http://www.w3.org/2000/svg" xmlns:xlink="http://www.w3.org/1999/xlink" height="2738px" style="width:1892px;height:2738px;" version="1.1" viewBox="0 0 1892 2738" width="1892px"><defs/><g><text fill="#000000" font-family="sans-serif" font-size="20" lengthAdjust="spacingAndGlyphs" textLength="123" x="890.75" y="28.5645">DSD - CU 10</text><line style="stroke: none; stroke-width: 1.0;" x1="890.75" x2="1013.75" y1="38.2813" y2="38.2813"/><rect fill="#FFFFFF" height="1309.4375" style="stroke: #000000; stroke-width: 1.0;" width="1634.5" x="13" y="309.5078"/><rect fill="#FFFFFF" height="922.1797" style="stroke: #000000; stroke-width: 1.0;" width="1614.5" x="23" y="525.8359"/><rect fill="#FFFFFF" height="505.7891" style="stroke: none; stroke-width: 1.0;" width="1614.5" x="23" y="822.5625"/><rect fill="#FFFFFF" height="298.7266" style="stroke: #000000; stroke-width: 1.0;" width="1437" x="33" y="1022.625"/><rect fill="#FFFFFF" height="163.9297" style="stroke: none; stroke-width: 1.0;" width="1437" x="33" y="1157.4219"/><rect fill="#FFFFFF" height="119.6641" style="stroke: none; stroke-width: 1.0;" width="1614.5" x="23" y="1328.3516"/><rect fill="#FFFFFF" height="163.9297" style="stroke: none; stroke-width: 1.0;" width="1634.5" x="13" y="1455.0156"/><rect fill="#FFFFFF" height="759.3828" style="stroke: #000000; stroke-width: 1.0;" width="1697.5" x="23" y="1632.9453"/><rect fill="#FFFFFF" height="179.0625" style="stroke: #000000; stroke-width: 1.0;" width="1211" x="33" y="1849.2734"/><rect fill="#FFFFFF" height="149.9297" style="stroke: #000000; stroke-width: 1.0;" width="1677.5" x="33" y="2042.3359"/><rect fill="#FFFFFF" height="179.0625" style="stroke: #000000; stroke-width: 1.0;" width="1211" x="33" y="2206.2656"/><rect fill="#FFFFFF" height="238.4609" style="stroke: #000000; stroke-width: 1.0;" width="1858.5" x="33" y="2406.3281"/><line style="stroke: #383838; stroke-width: 1.0; stroke-dasharray: 5.0,5.0;" x1="66" x2="66" y1="129.5781" y2="2661.7891"/><line style="stroke: #383838; stroke-width: 1.0; stroke-dasharray: 5.0,5.0;" x1="274" x2="274" y1="129.5781" y2="2661.7891"/><line style="stroke: #383838; stroke-width: 1.0; stroke-dasharray: 5.0,5.0;" x1="754.5" x2="754.5" y1="129.5781" y2="2661.7891"/><line style="stroke: #383838; stroke-width: 1.0; stroke-dasharray: 5.0,5.0;" x1="1207" x2="1207" y1="129.5781" y2="2661.7891"/><line style="stroke: #383838; stroke-width: 1.0; stroke-dasharray: 5.0,5.0;" x1="1419" x2="1419" y1="129.5781" y2="2661.7891"/><line style="stroke: #383838; stroke-width: 1.0; stroke-dasharray: 5.0,5.0;" x1="1588.5" x2="1588.5" y1="129.5781" y2="2661.7891"/><line style="stroke: #383838; stroke-width: 1.0; stroke-dasharray: 5.0,5.0;" x1="1668.5" x2="1668.5" y1="129.5781" y2="2661.7891"/><line style="stroke: #383838; stroke-width: 1.0; stroke-dasharray: 5.0,5.0;" x1="1744.5" x2="1744.5" y1="129.5781" y2="2661.7891"/><line style="stroke: #383838; stroke-width: 1.0; stroke-dasharray: 5.0,5.0;" x1="1834.5" x2="1834.5" y1="129.5781" y2="2661.7891"/><text fill="#000000" font-family="sans-serif" font-size="14" lengthAdjust="spacingAndGlyphs" textLength="41" x="43" y="126.2764">Agent</text><ellipse cx="66.5" cy="60.2813" fill="#F8F8F8" rx="8" ry="8" style="stroke: #383838; stroke-width: 2.0;"/><path d="M66.5,68.2813 L66.5,95.2813 M53.5,76.2813 L79.5,76.2813 M66.5,95.2813 L53.5,110.2813 M66.5,95.2813 L79.5,110.2813 " fill="#F8F8F8" style="stroke: #383838; stroke-width: 2.0;"/><text fill="#000000" font-family="sans-serif" font-size="14" lengthAdjust="spacingAndGlyphs" textLength="41" x="43" y="2673.7842">Agent</text><ellipse cx="66.5" cy="2687.0859" fill="#F8F8F8" rx="8" ry="8" style="stroke: #383838; stroke-width: 2.0;"/><path d="M66.5,2695.0859 L66.5,2722.0859 M53.5,2703.0859 L79.5,2703.0859 M66.5,2722.0859 L53.5,2737.0859 M66.5,2722.0859 L79.5,2737.0859 " fill="#F8F8F8" style="stroke: #383838; stroke-width: 2.0;"/><rect fill="#F8F8F8" height="30.2969" style="stroke: #383838; stroke-width: 1.0;" width="39" x="255" y="98.2813"/><text fill="#000000" font-family="sans-serif" font-size="14" lengthAdjust="spacingAndGlyphs" textLength="25" x="262" y="118.2764">IHM</text><rect fill="#F8F8F8" height="30.2969" style="stroke: #383838; stroke-width: 1.0;" width="39" x="255" y="2660.7891"/><text fill="#000000" font-family="sans-serif" font-size="14" lengthAdjust="spacingAndGlyphs" textLength="25" x="262" y="2680.7842">IHM</text><rect fill="#F8F8F8" height="30.2969" style="stroke: #383838; stroke-width: 1.0;" width="44" x="732.5" y="98.2813"/><text fill="#000000" font-family="sans-serif" font-size="14" lengthAdjust="spacingAndGlyphs" textLength="30" x="739.5" y="118.2764">SMA</text><rect fill="#F8F8F8" height="30.2969" style="stroke: #383838; stroke-width: 1.0;" width="44" x="732.5" y="2660.7891"/><text fill="#000000" font-family="sans-serif" font-size="14" lengthAdjust="spacingAndGlyphs" textLength="30" x="739.5" y="2680.7842">SMA</text><rect fill="#F8F8F8" height="30.2969" style="stroke: #383838; stroke-width: 1.0;" width="53" x="1181" y="98.2813"/><text fill="#000000" font-family="sans-serif" font-size="14" lengthAdjust="spacingAndGlyphs" textLength="39" x="1188" y="118.2764">Client</text><rect fill="#F8F8F8" height="30.2969" style="stroke: #383838; stroke-width: 1.0;" width="53" x="1181" y="2660.7891"/><text fill="#000000" font-family="sans-serif" font-size="14" lengthAdjust="spacingAndGlyphs" textLength="39" x="1188" y="2680.7842">Client</text><rect fill="#F8F8F8" height="30.2969" style="stroke: #383838; stroke-width: 1.0;" width="81" x="1379" y="98.2813"/><text fill="#000000" font-family="sans-serif" font-size="14" lengthAdjust="spacingAndGlyphs" textLength="67" x="1386" y="118.2764">Personne</text><rect fill="#F8F8F8" height="30.2969" style="stroke: #383838; stroke-width: 1.0;" width="81" x="1379" y="2660.7891"/><text fill="#000000" font-family="sans-serif" font-size="14" lengthAdjust="spacingAndGlyphs" textLength="67" x="1386" y="2680.7842">Personne</text><rect fill="#F8F8F8" height="30.2969" style="stroke: #383838; stroke-width: 1.0;" width="78" x="1549.5" y="98.2813"/><text fill="#000000" font-family="sans-serif" font-size="14" lengthAdjust="spacingAndGlyphs" textLength="64" x="1556.5" y="118.2764">Structure</text><rect fill="#F8F8F8" height="30.2969" style="stroke: #383838; stroke-width: 1.0;" width="78" x="1549.5" y="2660.7891"/><text fill="#000000" font-family="sans-serif" font-size="14" lengthAdjust="spacingAndGlyphs" textLength="64" x="1556.5" y="2680.7842">Structure</text><rect fill="#F8F8F8" height="30.2969" style="stroke: #383838; stroke-width: 1.0;" width="63" x="1637.5" y="98.2813"/><text fill="#000000" font-family="sans-serif" font-size="14" lengthAdjust="spacingAndGlyphs" textLength="49" x="1644.5" y="118.2764">Produit</text><rect fill="#F8F8F8" height="30.2969" style="stroke: #383838; stroke-width: 1.0;" width="63" x="1637.5" y="2660.7891"/><text fill="#000000" font-family="sans-serif" font-size="14" lengthAdjust="spacingAndGlyphs" textLength="49" x="1644.5" y="2680.7842">Produit</text><rect fill="#F8F8F8" height="30.2969" style="stroke: #383838; stroke-width: 1.0;" width="68" x="1710.5" y="98.2813"/><text fill="#000000" font-family="sans-serif" font-size="14" lengthAdjust="spacingAndGlyphs" textLength="54" x="1717.5" y="118.2764">Contact</text><rect fill="#F8F8F8" height="30.2969" style="stroke: #383838; stroke-width: 1.0;" width="68" x="1710.5" y="2660.7891"/><text fill="#000000" font-family="sans-serif" font-size="14" lengthAdjust="spacingAndGlyphs" textLength="54" x="1717.5" y="2680.7842">Contact</text><rect fill="#F8F8F8" height="30.2969" style="stroke: #383838; stroke-width: 1.0;" width="93" x="1788.5" y="98.2813"/><text fill="#000000" font-family="sans-serif" font-size="14" lengthAdjust="spacingAndGlyphs" textLength="79" x="1795.5" y="118.2764">Evenement</text><rect fill="#F8F8F8" height="30.2969" style="stroke: #383838; stroke-width: 1.0;" width="93" x="1788.5" y="2660.7891"/><text fill="#000000" font-family="sans-serif" font-size="14" lengthAdjust="spacingAndGlyphs" textLength="79" x="1795.5" y="2680.7842">Evenement</text><rect fill="#FFFFFF" height="40.2656" style="stroke: #000000; stroke-width: 1.0;" width="257" x="40" y="139.5781"/><polygon fill="#EEEEEE" points="40,139.5781,106,139.5781,106,146.5781,96,156.5781,40,156.5781,40,139.5781" style="stroke: #000000; stroke-width: 1.0;"/><text fill="#000000" font-family="sans-serif" font-size="13" font-weight="bold" lengthAdjust="spacingAndGlyphs" textLength="21" x="53" y="153.645">ref</text><text fill="#000000" font-family="sans-serif" font-size="13" lengthAdjust="spacingAndGlyphs" textLength="108" x="114.5" y="172.645">Identifier le client</text><polygon fill="#383838" points="262.5,201.8438,272.5,205.8438,262.5,209.8438,266.5,205.8438" style="stroke: #383838; stroke-width: 1.0;"/><line style="stroke: #383838; stroke-width: 1.0;" x1="66.5" x2="268.5" y1="205.8438" y2="205.8438"/><text fill="#000000" font-family="sans-serif" font-size="13" lengthAdjust="spacingAndGlyphs" textLength="184" x="73.5" y="200.9106">Consulter le dossier du client</text><polygon fill="#383838" points="742.5,245.9766,752.5,249.9766,742.5,253.9766,746.5,249.9766" style="stroke: #383838; stroke-width: 1.0;"/><line style="stroke: #383838; stroke-width: 1.0;" x1="274.5" x2="748.5" y1="249.9766" y2="249.9766"/><text fill="#000000" font-family="sans-serif" font-size="13" lengthAdjust="spacingAndGlyphs" textLength="202" x="281.5" y="230.0435">ConsulterDossierClient(idClient)</text><text fill="#000000" font-family="sans-serif" font-size="13" lengthAdjust="spacingAndGlyphs" textLength="264" x="281.5" y="245.1763">: numero, denomination, adresse postale</text><polygon fill="#383838" points="1195.5,290.2422,1205.5,294.2422,1195.5,298.2422,1199.5,294.2422" style="stroke: #383838; stroke-width: 1.0;"/><line style="stroke: #383838; stroke-width: 1.0;" x1="754.5" x2="1201.5" y1="294.2422" y2="294.2422"/><text fill="#000000" font-family="sans-serif" font-size="13" lengthAdjust="spacingAndGlyphs" textLength="140" x="761.5" y="274.3091">ObtenirClient(idClient)</text><text fill="#000000" font-family="sans-serif" font-size="13" lengthAdjust="spacingAndGlyphs" textLength="44" x="761.5" y="289.4419">: Client</text><rect fill="none" height="1309.4375" style="stroke: #000000; stroke-width: 1.0;" width="1634.5" x="13" y="309.5078"/><polygon fill="#EEEEEE" points="13,309.5078,83,309.5078,83,316.5078,73,326.5078,13,326.5078,13,309.5078" style="stroke: #000000; stroke-width: 1.0;"/><text fill="#000000" font-family="sans-serif" font-size="13" font-weight="bold" lengthAdjust="spacingAndGlyphs" textLength="25" x="28" y="322.5747">opt</text><text fill="#000000" font-family="sans-serif" font-size="11" font-weight="bold" lengthAdjust="spacingAndGlyphs" textLength="43" x="98" y="321.7183">[Bilan]</text><polygon fill="#383838" points="262.5,373.6406,272.5,377.6406,262.5,381.6406,266.5,377.6406" style="stroke: #383838; stroke-width: 1.0;"/><line style="stroke: #383838; stroke-width: 1.0;" x1="66.5" x2="268.5" y1="377.6406" y2="377.6406"/><text fill="#000000" font-family="sans-serif" font-size="13" lengthAdjust="spacingAndGlyphs" textLength="133" x="73.5" y="342.7075">Consulter bilan client</text><text fill="#000000" font-family="sans-serif" font-size="13" lengthAdjust="spacingAndGlyphs" textLength="101" x="73.5" y="357.8403">(Cotation, bilan,</text><text fill="#000000" font-family="sans-serif" font-size="13" lengthAdjust="spacingAndGlyphs" textLength="122" x="73.5" y="372.9731">liste de personnes)</text><polygon fill="#383838" points="742.5,418.0391,752.5,422.0391,742.5,426.0391,746.5,422.0391" style="stroke: #383838; stroke-width: 1.0;"/><line style="stroke: #383838; stroke-width: 1.0;" x1="274.5" x2="748.5" y1="422.0391" y2="422.0391"/><text fill="#000000" font-family="sans-serif" font-size="13" lengthAdjust="spacingAndGlyphs" textLength="185" x="281.5" y="402.106">ConsulterBilanClient(idClient)</text><text fill="#000000" font-family="sans-serif" font-size="13" lengthAdjust="spacingAndGlyphs" textLength="208" x="281.5" y="417.2388">: cotationsClient, liste Personnes</text><polygon fill="#383838" points="1195.5,462.3047,1205.5,466.3047,1195.5,470.3047,1199.5,466.3047" style="stroke: #383838; stroke-width: 1.0;"/><line style="stroke: #383838; stroke-width: 1.0;" x1="754.5" x2="1201.5" y1="466.3047" y2="466.3047"/><text fill="#000000" font-family="sans-serif" font-size="13" lengthAdjust="spacingAndGlyphs" textLength="191" x="761.5" y="446.3716">ConsulterDetailClient(idClient)</text><text fill="#000000" font-family="sans-serif" font-size="13" lengthAdjust="spacingAndGlyphs" textLength="164" x="761.5" y="461.5044">: Client, Liste&lt;Personne&gt;</text><polygon fill="#383838" points="1407.5,506.5703,1417.5,510.5703,1407.5,514.5703,1411.5,510.5703" style="stroke: #383838; stroke-width: 1.0;"/><line style="stroke: #383838; stroke-width: 1.0;" x1="1207.5" x2="1413.5" y1="510.5703" y2="510.5703"/><text fill="#000000" font-family="sans-serif" font-size="13" lengthAdjust="spacingAndGlyphs" textLength="188" x="1214.5" y="490.6372">ObtenirPersonne(idPersonne)</text><text fill="#000000" font-family="sans-serif" font-size="13" lengthAdjust="spacingAndGlyphs" textLength="68" x="1214.5" y="505.77">: personne</text><rect fill="none" height="922.1797" style="stroke: #000000; stroke-width: 1.0;" width="1614.5" x="23" y="525.8359"/><polygon fill="#EEEEEE" points="23,525.8359,93,525.8359,93,532.8359,83,542.8359,23,542.8359,23,525.8359" style="stroke: #000000; stroke-width: 1.0;"/><text fill="#000000" font-family="sans-serif" font-size="13" font-weight="bold" lengthAdjust="spacingAndGlyphs" textLength="25" x="38" y="538.9028">opt</text><polygon fill="#383838" points="262.5,559.9688,272.5,563.9688,262.5,567.9688,266.5,563.9688" style="stroke: #383838; stroke-width: 1.0;"/><line style="stroke: #383838; stroke-width: 1.0;" x1="66.5" x2="268.5" y1="563.9688" y2="563.9688"/><text fill="#000000" font-family="sans-serif" font-size="13" lengthAdjust="spacingAndGlyphs" textLength="144" x="73.5" y="559.0356">Sélectionner Personne</text><polygon fill="#383838" points="262.5,604.1016,272.5,608.1016,262.5,612.1016,266.5,608.1016" style="stroke: #383838; stroke-width: 1.0;"/><line style="stroke: #383838; stroke-width: 1.0;" x1="66.5" x2="268.5" y1="608.1016" y2="608.1016"/><text fill="#000000" font-family="sans-serif" font-size="13" lengthAdjust="spacingAndGlyphs" textLength="107" x="73.5" y="588.1685">Consulter details</text><text fill="#000000" font-family="sans-serif" font-size="13" lengthAdjust="spacingAndGlyphs" textLength="99" x="73.5" y="603.3013">d'une personne</text><polygon fill="#383838" points="742.5,648.3672,752.5,652.3672,742.5,656.3672,746.5,652.3672" style="stroke: #383838; stroke-width: 1.0;"/><line style="stroke: #383838; stroke-width: 1.0;" x1="274.5" x2="748.5" y1="652.3672" y2="652.3672"/><text fill="#000000" font-family="sans-serif" font-size="13" lengthAdjust="spacingAndGlyphs" textLength="239" x="281.5" y="632.4341">ConsulterDetailPersonne(idPersonne)</text><text fill="#000000" font-family="sans-serif" font-size="13" lengthAdjust="spacingAndGlyphs" textLength="224" x="281.5" y="647.5669">: données signalétiques...logement</text><polygon fill="#383838" points="1407.5,692.6328,1417.5,696.6328,1407.5,700.6328,1411.5,696.6328" style="stroke: #383838; stroke-width: 1.0;"/><line style="stroke: #383838; stroke-width: 1.0;" x1="754.5" x2="1413.5" y1="696.6328" y2="696.6328"/><text fill="#000000" font-family="sans-serif" font-size="13" lengthAdjust="spacingAndGlyphs" textLength="188" x="761.5" y="676.6997">ObtenirPersonne(idPersonne)</text><text fill="#000000" font-family="sans-serif" font-size="13" lengthAdjust="spacingAndGlyphs" textLength="68" x="761.5" y="691.8325">: personne</text><polygon fill="#383838" points="262.5,721.8984,272.5,725.8984,262.5,729.8984,266.5,725.8984" style="stroke: #383838; stroke-width: 1.0;"/><line style="stroke: #383838; stroke-width: 1.0;" x1="66.5" x2="268.5" y1="725.8984" y2="725.8984"/><text fill="#000000" font-family="sans-serif" font-size="13" lengthAdjust="spacingAndGlyphs" textLength="133" x="73.5" y="720.9653">Mise à jour personne</text><polygon fill="#383838" points="742.5,766.0313,752.5,770.0313,742.5,774.0313,746.5,770.0313" style="stroke: #383838; stroke-width: 1.0;"/><line style="stroke: #383838; stroke-width: 1.0;" x1="274.5" x2="748.5" y1="770.0313" y2="770.0313"/><text fill="#000000" font-family="sans-serif" font-size="13" lengthAdjust="spacingAndGlyphs" textLength="200" x="281.5" y="750.0981">MettreAJourPersonne(idPers,...)</text><text fill="#000000" font-family="sans-serif" font-size="13" lengthAdjust="spacingAndGlyphs" textLength="34" x="281.5" y="765.231">: void</text><polygon fill="#383838" points="1407.5,810.2969,1417.5,814.2969,1407.5,818.2969,1411.5,814.2969" style="stroke: #383838; stroke-width: 1.0;"/><line style="stroke: #383838; stroke-width: 1.0;" x1="754.5" x2="1413.5" y1="814.2969" y2="814.2969"/><text fill="#000000" font-family="sans-serif" font-size="13" lengthAdjust="spacingAndGlyphs" textLength="315" x="761.5" y="794.3638">MajPersonne(idPersonne, nouvelles informations)</text><text fill="#000000" font-family="sans-serif" font-size="13" lengthAdjust="spacingAndGlyphs" textLength="34" x="761.5" y="809.4966">: void</text><line style="stroke: #000000; stroke-width: 1.0; stroke-dasharray: 2.0,2.0;" x1="23" x2="1637.5" y1="823.5625" y2="823.5625"/><polygon fill="#383838" points="262.5,841.5625,272.5,845.5625,262.5,849.5625,266.5,845.5625" style="stroke: #383838; stroke-width: 1.0;"/><line style="stroke: #383838; stroke-width: 1.0;" x1="66.5" x2="268.5" y1="845.5625" y2="845.5625"/><text fill="#000000" font-family="sans-serif" font-size="13" lengthAdjust="spacingAndGlyphs" textLength="119" x="73.5" y="840.6294">Saisir Informations</text><polygon fill="#383838" points="262.5,870.6953,272.5,874.6953,262.5,878.6953,266.5,874.6953" style="stroke: #383838; stroke-width: 1.0;"/><line style="stroke: #383838; stroke-width: 1.0;" x1="66.5" x2="268.5" y1="874.6953" y2="874.6953"/><text fill="#000000" font-family="sans-serif" font-size="13" lengthAdjust="spacingAndGlyphs" textLength="129" x="73.5" y="869.7622">Récupérer personne</text><polygon fill="#383838" points="742.5,914.8281,752.5,918.8281,742.5,922.8281,746.5,918.8281" style="stroke: #383838; stroke-width: 1.0;"/><line style="stroke: #383838; stroke-width: 1.0;" x1="274.5" x2="748.5" y1="918.8281" y2="918.8281"/><text fill="#000000" font-family="sans-serif" font-size="13" lengthAdjust="spacingAndGlyphs" textLength="277" x="281.5" y="898.895">RecupererPersonne(nom, prenom, agence)</text><text fill="#000000" font-family="sans-serif" font-size="13" lengthAdjust="spacingAndGlyphs" textLength="68" x="281.5" y="914.0278">: personne</text><polygon fill="#383838" points="1407.5,959.0938,1417.5,963.0938,1407.5,967.0938,1411.5,963.0938" style="stroke: #383838; stroke-width: 1.0;"/><line style="stroke: #383838; stroke-width: 1.0;" x1="754.5" x2="1413.5" y1="963.0938" y2="963.0938"/><text fill="#000000" font-family="sans-serif" font-size="13" lengthAdjust="spacingAndGlyphs" textLength="260" x="761.5" y="943.1606">TrouverPersonne(nom, prenom, agence)</text><text fill="#000000" font-family="sans-serif" font-size="13" lengthAdjust="spacingAndGlyphs" textLength="68" x="761.5" y="958.2935">: personne</text><polygon fill="#383838" points="1576.5,1003.3594,1586.5,1007.3594,1576.5,1011.3594,1580.5,1007.3594" style="stroke: #383838; stroke-width: 1.0;"/><line style="stroke: #383838; stroke-width: 1.0;" x1="1419.5" x2="1582.5" y1="1007.3594" y2="1007.3594"/><text fill="#000000" font-family="sans-serif" font-size="13" lengthAdjust="spacingAndGlyphs" textLength="145" x="1426.5" y="987.4263">ObtenirAgenceId(nom)</text><text fill="#000000" font-family="sans-serif" font-size="13" lengthAdjust="spacingAndGlyphs" textLength="66" x="1426.5" y="1002.5591">: agenceId</text><rect fill="none" height="298.7266" style="stroke: #000000; stroke-width: 1.0;" width="1437" x="33" y="1022.625"/><polygon fill="#EEEEEE" points="33,1022.625,103,1022.625,103,1029.625,93,1039.625,33,1039.625,33,1022.625" style="stroke: #000000; stroke-width: 1.0;"/><text fill="#000000" font-family="sans-serif" font-size="13" font-weight="bold" lengthAdjust="spacingAndGlyphs" textLength="25" x="48" y="1035.6919">opt</text><polygon fill="#383838" points="262.5,1056.7578,272.5,1060.7578,262.5,1064.7578,266.5,1060.7578" style="stroke: #383838; stroke-width: 1.0;"/><line style="stroke: #383838; stroke-width: 1.0;" x1="66.5" x2="268.5" y1="1060.7578" y2="1060.7578"/><text fill="#000000" font-family="sans-serif" font-size="13" lengthAdjust="spacingAndGlyphs" textLength="138" x="73.5" y="1055.8247">Ajouter une personne</text><polygon fill="#383838" points="742.5,1100.8906,752.5,1104.8906,742.5,1108.8906,746.5,1104.8906" style="stroke: #383838; stroke-width: 1.0;"/><line style="stroke: #383838; stroke-width: 1.0;" x1="274.5" x2="748.5" y1="1104.8906" y2="1104.8906"/><text fill="#000000" font-family="sans-serif" font-size="13" lengthAdjust="spacingAndGlyphs" textLength="242" x="281.5" y="1084.9575">AjouterPersonne(idClient, idPersonne)</text><text fill="#000000" font-family="sans-serif" font-size="13" lengthAdjust="spacingAndGlyphs" textLength="34" x="281.5" y="1100.0903">: void</text><polygon fill="#383838" points="1195.5,1145.1563,1205.5,1149.1563,1195.5,1153.1563,1199.5,1149.1563" style="stroke: #383838; stroke-width: 1.0;"/><line style="stroke: #383838; stroke-width: 1.0;" x1="754.5" x2="1201.5" y1="1149.1563" y2="1149.1563"/><text fill="#000000" font-family="sans-serif" font-size="13" lengthAdjust="spacingAndGlyphs" textLength="242" x="761.5" y="1129.2231">AjouterPersonne(idClient, idPersonne)</text><text fill="#000000" font-family="sans-serif" font-size="13" lengthAdjust="spacingAndGlyphs" textLength="34" x="761.5" y="1144.356">: void</text><line style="stroke: #000000; stroke-width: 1.0; stroke-dasharray: 2.0,2.0;" x1="33" x2="1470" y1="1158.4219" y2="1158.4219"/><polygon fill="#383838" points="262.5,1176.4219,272.5,1180.4219,262.5,1184.4219,266.5,1180.4219" style="stroke: #383838; stroke-width: 1.0;"/><line style="stroke: #383838; stroke-width: 1.0;" x1="66.5" x2="268.5" y1="1180.4219" y2="1180.4219"/><text fill="#000000" font-family="sans-serif" font-size="13" lengthAdjust="spacingAndGlyphs" textLength="156" x="73.5" y="1175.4888">Créer nouvelle personne</text><polygon fill="#383838" points="742.5,1220.5547,752.5,1224.5547,742.5,1228.5547,746.5,1224.5547" style="stroke: #383838; stroke-width: 1.0;"/><line style="stroke: #383838; stroke-width: 1.0;" x1="274.5" x2="748.5" y1="1224.5547" y2="1224.5547"/><text fill="#000000" font-family="sans-serif" font-size="13" lengthAdjust="spacingAndGlyphs" textLength="304" x="281.5" y="1204.6216">CreerEtAjouterNouvellePersonne(infos, idClient)</text><text fill="#000000" font-family="sans-serif" font-size="13" lengthAdjust="spacingAndGlyphs" textLength="68" x="281.5" y="1219.7544">: personne</text><polygon fill="#383838" points="1195.5,1264.8203,1205.5,1268.8203,1195.5,1272.8203,1199.5,1268.8203" style="stroke: #383838; stroke-width: 1.0;"/><line style="stroke: #383838; stroke-width: 1.0;" x1="754.5" x2="1201.5" y1="1268.8203" y2="1268.8203"/><text fill="#000000" font-family="sans-serif" font-size="13" lengthAdjust="spacingAndGlyphs" textLength="242" x="761.5" y="1248.8872">AjouterPersonne(idClient, idPersonne)</text><text fill="#000000" font-family="sans-serif" font-size="13" lengthAdjust="spacingAndGlyphs" textLength="34" x="761.5" y="1264.02">: void</text><polygon fill="#383838" points="1407.5,1309.0859,1417.5,1313.0859,1407.5,1317.0859,1411.5,1313.0859" style="stroke: #383838; stroke-width: 1.0;"/><line style="stroke: #383838; stroke-width: 1.0;" x1="1207.5" x2="1413.5" y1="1313.0859" y2="1313.0859"/><text fill="#000000" font-family="sans-serif" font-size="13" lengthAdjust="spacingAndGlyphs" textLength="135" x="1214.5" y="1293.1528">CreerPersonne(infos)</text><text fill="#000000" font-family="sans-serif" font-size="13" lengthAdjust="spacingAndGlyphs" textLength="68" x="1214.5" y="1308.2856">: personne</text><line style="stroke: #000000; stroke-width: 1.0; stroke-dasharray: 2.0,2.0;" x1="23" x2="1637.5" y1="1329.3516" y2="1329.3516"/><polygon fill="#383838" points="262.5,1347.3516,272.5,1351.3516,262.5,1355.3516,266.5,1351.3516" style="stroke: #383838; stroke-width: 1.0;"/><line style="stroke: #383838; stroke-width: 1.0;" x1="66.5" x2="268.5" y1="1351.3516" y2="1351.3516"/><text fill="#000000" font-family="sans-serif" font-size="13" lengthAdjust="spacingAndGlyphs" textLength="159" x="73.5" y="1346.4185">Supprimer une personne</text><polygon fill="#383838" points="742.5,1391.4844,752.5,1395.4844,742.5,1399.4844,746.5,1395.4844" style="stroke: #383838; stroke-width: 1.0;"/><line style="stroke: #383838; stroke-width: 1.0;" x1="274.5" x2="748.5" y1="1395.4844" y2="1395.4844"/><text fill="#000000" font-family="sans-serif" font-size="13" lengthAdjust="spacingAndGlyphs" textLength="263" x="281.5" y="1375.5513">SupprimerPersonne(idClient, idPersonne)</text><text fill="#000000" font-family="sans-serif" font-size="13" lengthAdjust="spacingAndGlyphs" textLength="34" x="281.5" y="1390.6841">: void</text><polygon fill="#383838" points="1195.5,1435.75,1205.5,1439.75,1195.5,1443.75,1199.5,1439.75" style="stroke: #383838; stroke-width: 1.0;"/><line style="stroke: #383838; stroke-width: 1.0;" x1="754.5" x2="1201.5" y1="1439.75" y2="1439.75"/><text fill="#000000" font-family="sans-serif" font-size="13" lengthAdjust="spacingAndGlyphs" textLength="263" x="761.5" y="1419.8169">SupprimerPersonne(idClient, idPersonne)</text><text fill="#000000" font-family="sans-serif" font-size="13" lengthAdjust="spacingAndGlyphs" textLength="34" x="761.5" y="1434.9497">: void</text><line style="stroke: #000000; stroke-width: 1.0; stroke-dasharray: 2.0,2.0;" x1="13" x2="1647.5" y1="1456.0156" y2="1456.0156"/><polygon fill="#383838" points="262.5,1474.0156,272.5,1478.0156,262.5,1482.0156,266.5,1478.0156" style="stroke: #383838; stroke-width: 1.0;"/><line style="stroke: #383838; stroke-width: 1.0;" x1="66.5" x2="268.5" y1="1478.0156" y2="1478.0156"/><text fill="#000000" font-family="sans-serif" font-size="13" lengthAdjust="spacingAndGlyphs" textLength="140" x="73.5" y="1473.0825">Saisir Nouvelle Entete</text><polygon fill="#383838" points="262.5,1503.1484,272.5,1507.1484,262.5,1511.1484,266.5,1507.1484" style="stroke: #383838; stroke-width: 1.0;"/><line style="stroke: #383838; stroke-width: 1.0;" x1="66.5" x2="268.5" y1="1507.1484" y2="1507.1484"/><text fill="#000000" font-family="sans-serif" font-size="13" lengthAdjust="spacingAndGlyphs" textLength="106" x="73.5" y="1502.2153">Maj entête client</text><polygon fill="#383838" points="742.5,1562.2813,752.5,1566.2813,742.5,1570.2813,746.5,1566.2813" style="stroke: #383838; stroke-width: 1.0;"/><line style="stroke: #383838; stroke-width: 1.0;" x1="274.5" x2="748.5" y1="1566.2813" y2="1566.2813"/><text fill="#000000" font-family="sans-serif" font-size="13" lengthAdjust="spacingAndGlyphs" textLength="113" x="281.5" y="1531.3481">MAJEnteteDossier</text><text fill="#000000" font-family="sans-serif" font-size="13" lengthAdjust="spacingAndGlyphs" textLength="317" x="281.5" y="1546.481">(idClient, numero, denomination, adressePostale)</text><text fill="#000000" font-family="sans-serif" font-size="13" lengthAdjust="spacingAndGlyphs" textLength="34" x="281.5" y="1561.6138">: void</text><polygon fill="#383838" points="1195.5,1606.6797,1205.5,1610.6797,1195.5,1614.6797,1199.5,1610.6797" style="stroke: #383838; stroke-width: 1.0;"/><line style="stroke: #383838; stroke-width: 1.0;" x1="754.5" x2="1201.5" y1="1610.6797" y2="1610.6797"/><text fill="#000000" font-family="sans-serif" font-size="13" lengthAdjust="spacingAndGlyphs" textLength="429" x="761.5" y="1590.7466">MajEnteteDossier(idClient, numero, denomination, adressePostale)</text><text fill="#000000" font-family="sans-serif" font-size="13" lengthAdjust="spacingAndGlyphs" textLength="34" x="761.5" y="1605.8794">: void</text><rect fill="none" height="759.3828" style="stroke: #000000; stroke-width: 1.0;" width="1697.5" x="23" y="1632.9453"/><polygon fill="#EEEEEE" points="23,1632.9453,93,1632.9453,93,1639.9453,83,1649.9453,23,1649.9453,23,1632.9453" style="stroke: #000000; stroke-width: 1.0;"/><text fill="#000000" font-family="sans-serif" font-size="13" font-weight="bold" lengthAdjust="spacingAndGlyphs" textLength="25" x="38" y="1646.0122">opt</text><text fill="#000000" font-family="sans-serif" font-size="11" font-weight="bold" lengthAdjust="spacingAndGlyphs" textLength="63" x="108" y="1645.1558">[Produits]</text><polygon fill="#383838" points="262.5,1697.0781,272.5,1701.0781,262.5,1705.0781,266.5,1701.0781" style="stroke: #383838; stroke-width: 1.0;"/><line style="stroke: #383838; stroke-width: 1.0;" x1="66.5" x2="268.5" y1="1701.0781" y2="1701.0781"/><text fill="#000000" font-family="sans-serif" font-size="13" lengthAdjust="spacingAndGlyphs" textLength="137" x="73.5" y="1666.145">Consulter produits du</text><text fill="#000000" font-family="sans-serif" font-size="13" lengthAdjust="spacingAndGlyphs" textLength="113" x="73.5" y="1681.2778">client à la banque</text><text fill="#000000" font-family="sans-serif" font-size="13" lengthAdjust="spacingAndGlyphs" textLength="123" x="73.5" y="1696.4106">et à la concurrence</text><polygon fill="#383838" points="742.5,1741.4766,752.5,1745.4766,742.5,1749.4766,746.5,1745.4766" style="stroke: #383838; stroke-width: 1.0;"/><line style="stroke: #383838; stroke-width: 1.0;" x1="274.5" x2="748.5" y1="1745.4766" y2="1745.4766"/><text fill="#000000" font-family="sans-serif" font-size="13" lengthAdjust="spacingAndGlyphs" textLength="156" x="281.5" y="1725.5435">ObtenirProduits(idClient)</text><text fill="#000000" font-family="sans-serif" font-size="13" lengthAdjust="spacingAndGlyphs" textLength="164" x="281.5" y="1740.6763">: Liste&lt;Compte, Produit&gt;</text><polygon fill="#383838" points="1195.5,1785.7422,1205.5,1789.7422,1195.5,1793.7422,1199.5,1789.7422" style="stroke: #383838; stroke-width: 1.0;"/><line style="stroke: #383838; stroke-width: 1.0;" x1="754.5" x2="1201.5" y1="1789.7422" y2="1789.7422"/><text fill="#000000" font-family="sans-serif" font-size="13" lengthAdjust="spacingAndGlyphs" textLength="156" x="761.5" y="1769.8091">ObtenirProduits(idClient)</text><text fill="#000000" font-family="sans-serif" font-size="13" lengthAdjust="spacingAndGlyphs" textLength="164" x="761.5" y="1784.9419">: Liste&lt;Compte, Produit&gt;</text><polygon fill="#383838" points="1657,1830.0078,1667,1834.0078,1657,1838.0078,1661,1834.0078" style="stroke: #383838; stroke-width: 1.0;"/><line style="stroke: #383838; stroke-width: 1.0;" x1="1207.5" x2="1663" y1="1834.0078" y2="1834.0078"/><text fill="#000000" font-family="sans-serif" font-size="13" lengthAdjust="spacingAndGlyphs" textLength="158" x="1214.5" y="1814.0747">ObtenirProduit(idProduit)</text><text fill="#000000" font-family="sans-serif" font-size="13" lengthAdjust="spacingAndGlyphs" textLength="53" x="1214.5" y="1829.2075">: produit</text><rect fill="none" height="179.0625" style="stroke: #000000; stroke-width: 1.0;" width="1211" x="33" y="1849.2734"/><polygon fill="#EEEEEE" points="33,1849.2734,103,1849.2734,103,1856.2734,93,1866.2734,33,1866.2734,33,1849.2734" style="stroke: #000000; stroke-width: 1.0;"/><text fill="#000000" font-family="sans-serif" font-size="13" font-weight="bold" lengthAdjust="spacingAndGlyphs" textLength="25" x="48" y="1862.3403">opt</text><text fill="#000000" font-family="sans-serif" font-size="11" font-weight="bold" lengthAdjust="spacingAndGlyphs" textLength="106" x="118" y="1861.4839">[Details compte]</text><polygon fill="#383838" points="262.5,1883.4063,272.5,1887.4063,262.5,1891.4063,266.5,1887.4063" style="stroke: #383838; stroke-width: 1.0;"/><line style="stroke: #383838; stroke-width: 1.0;" x1="66.5" x2="268.5" y1="1887.4063" y2="1887.4063"/><text fill="#000000" font-family="sans-serif" font-size="13" lengthAdjust="spacingAndGlyphs" textLength="135" x="73.5" y="1882.4731">Sélectionner Compte</text><polygon fill="#383838" points="262.5,1927.5391,272.5,1931.5391,262.5,1935.5391,266.5,1931.5391" style="stroke: #383838; stroke-width: 1.0;"/><line style="stroke: #383838; stroke-width: 1.0;" x1="66.5" x2="268.5" y1="1931.5391" y2="1931.5391"/><text fill="#000000" font-family="sans-serif" font-size="13" lengthAdjust="spacingAndGlyphs" textLength="107" x="73.5" y="1911.606">Consulter détails</text><text fill="#000000" font-family="sans-serif" font-size="13" lengthAdjust="spacingAndGlyphs" textLength="80" x="73.5" y="1926.7388">d'un compte</text><polygon fill="#383838" points="742.5,1971.8047,752.5,1975.8047,742.5,1979.8047,746.5,1975.8047" style="stroke: #383838; stroke-width: 1.0;"/><line style="stroke: #383838; stroke-width: 1.0;" x1="274.5" x2="748.5" y1="1975.8047" y2="1975.8047"/><text fill="#000000" font-family="sans-serif" font-size="13" lengthAdjust="spacingAndGlyphs" textLength="207" x="281.5" y="1955.8716">ObtenirDetailCompte(idCompte)</text><text fill="#000000" font-family="sans-serif" font-size="13" lengthAdjust="spacingAndGlyphs" textLength="121" x="281.5" y="1971.0044">: details, historique</text><polygon fill="#383838" points="1195.5,2016.0703,1205.5,2020.0703,1195.5,2024.0703,1199.5,2020.0703" style="stroke: #383838; stroke-width: 1.0;"/><line style="stroke: #383838; stroke-width: 1.0;" x1="754.5" x2="1201.5" y1="2020.0703" y2="2020.0703"/><text fill="#000000" font-family="sans-serif" font-size="13" lengthAdjust="spacingAndGlyphs" textLength="170" x="761.5" y="2000.1372">ObtenirCompte(idCompte)</text><text fill="#000000" font-family="sans-serif" font-size="13" lengthAdjust="spacingAndGlyphs" textLength="57" x="761.5" y="2015.27">: compte</text><rect fill="none" height="149.9297" style="stroke: #000000; stroke-width: 1.0;" width="1677.5" x="33" y="2042.3359"/><polygon fill="#EEEEEE" points="33,2042.3359,103,2042.3359,103,2049.3359,93,2059.3359,33,2059.3359,33,2042.3359" style="stroke: #000000; stroke-width: 1.0;"/><text fill="#000000" font-family="sans-serif" font-size="13" font-weight="bold" lengthAdjust="spacingAndGlyphs" textLength="25" x="48" y="2055.4028">opt</text><text fill="#000000" font-family="sans-serif" font-size="11" font-weight="bold" lengthAdjust="spacingAndGlyphs" textLength="241" x="118" y="2054.5464">[Détail Produit / Sélectionner Produit]</text><polygon fill="#383838" points="262.5,2091.4688,272.5,2095.4688,262.5,2099.4688,266.5,2095.4688" style="stroke: #383838; stroke-width: 1.0;"/><line style="stroke: #383838; stroke-width: 1.0;" x1="66.5" x2="268.5" y1="2095.4688" y2="2095.4688"/><text fill="#000000" font-family="sans-serif" font-size="13" lengthAdjust="spacingAndGlyphs" textLength="100" x="73.5" y="2075.5356">Consulter détail</text><text fill="#000000" font-family="sans-serif" font-size="13" lengthAdjust="spacingAndGlyphs" textLength="76" x="77.5" y="2090.6685">d'un produit</text><polygon fill="#383838" points="742.5,2135.7344,752.5,2139.7344,742.5,2143.7344,746.5,2139.7344" style="stroke: #383838; stroke-width: 1.0;"/><line style="stroke: #383838; stroke-width: 1.0;" x1="274.5" x2="748.5" y1="2139.7344" y2="2139.7344"/><text fill="#000000" font-family="sans-serif" font-size="13" lengthAdjust="spacingAndGlyphs" textLength="195" x="281.5" y="2119.8013">ObtenirDetailProduit(idProduit)</text><text fill="#000000" font-family="sans-serif" font-size="13" lengthAdjust="spacingAndGlyphs" textLength="50" x="281.5" y="2134.9341">: details</text><polygon fill="#383838" points="1657,2180,1667,2184,1657,2188,1661,2184" style="stroke: #383838; stroke-width: 1.0;"/><line style="stroke: #383838; stroke-width: 1.0;" x1="754.5" x2="1663" y1="2184" y2="2184"/><text fill="#000000" font-family="sans-serif" font-size="13" lengthAdjust="spacingAndGlyphs" textLength="158" x="761.5" y="2164.0669">ObtenirProduit(idProduit)</text><text fill="#000000" font-family="sans-serif" font-size="13" lengthAdjust="spacingAndGlyphs" textLength="53" x="761.5" y="2179.1997">: produit</text><rect fill="none" height="179.0625" style="stroke: #000000; stroke-width: 1.0;" width="1211" x="33" y="2206.2656"/><polygon fill="#EEEEEE" points="33,2206.2656,103,2206.2656,103,2213.2656,93,2223.2656,33,2223.2656,33,2206.2656" style="stroke: #000000; stroke-width: 1.0;"/><text fill="#000000" font-family="sans-serif" font-size="13" font-weight="bold" lengthAdjust="spacingAndGlyphs" textLength="25" x="48" y="2219.3325">opt</text><text fill="#000000" font-family="sans-serif" font-size="11" font-weight="bold" lengthAdjust="spacingAndGlyphs" textLength="132" x="118" y="2218.4761">[Mise à jour compte]</text><polygon fill="#383838" points="262.5,2240.3984,272.5,2244.3984,262.5,2248.3984,266.5,2244.3984" style="stroke: #383838; stroke-width: 1.0;"/><line style="stroke: #383838; stroke-width: 1.0;" x1="66.5" x2="268.5" y1="2244.3984" y2="2244.3984"/><text fill="#000000" font-family="sans-serif" font-size="13" lengthAdjust="spacingAndGlyphs" textLength="119" x="73.5" y="2239.4653">Saisir Informations</text><polygon fill="#383838" points="262.5,2284.5313,272.5,2288.5313,262.5,2292.5313,266.5,2288.5313" style="stroke: #383838; stroke-width: 1.0;"/><line style="stroke: #383838; stroke-width: 1.0;" x1="66.5" x2="268.5" y1="2288.5313" y2="2288.5313"/><text fill="#000000" font-family="sans-serif" font-size="13" lengthAdjust="spacingAndGlyphs" textLength="124" x="73.5" y="2268.5981">Maj compte/produit</text><text fill="#000000" font-family="sans-serif" font-size="13" lengthAdjust="spacingAndGlyphs" textLength="106" x="73.5" y="2283.731">à la concurrence</text><polygon fill="#383838" points="742.5,2328.7969,752.5,2332.7969,742.5,2336.7969,746.5,2332.7969" style="stroke: #383838; stroke-width: 1.0;"/><line style="stroke: #383838; stroke-width: 1.0;" x1="274.5" x2="748.5" y1="2332.7969" y2="2332.7969"/><text fill="#000000" font-family="sans-serif" font-size="13" lengthAdjust="spacingAndGlyphs" textLength="383" x="281.5" y="2312.8638">MAJComptesConcurrence(idClient, txtComptesConcurrence)</text><text fill="#000000" font-family="sans-serif" font-size="13" lengthAdjust="spacingAndGlyphs" textLength="34" x="281.5" y="2327.9966">: void</text><polygon fill="#383838" points="1195.5,2373.0625,1205.5,2377.0625,1195.5,2381.0625,1199.5,2377.0625" style="stroke: #383838; stroke-width: 1.0;"/><line style="stroke: #383838; stroke-width: 1.0;" x1="754.5" x2="1201.5" y1="2377.0625" y2="2377.0625"/><text fill="#000000" font-family="sans-serif" font-size="13" lengthAdjust="spacingAndGlyphs" textLength="382" x="761.5" y="2357.1294">MajComptesConcurrence(idClient, txtComptesConcurrence)</text><text fill="#000000" font-family="sans-serif" font-size="13" lengthAdjust="spacingAndGlyphs" textLength="34" x="761.5" y="2372.2622">: void</text><rect fill="none" height="238.4609" style="stroke: #000000; stroke-width: 1.0;" width="1858.5" x="33" y="2406.3281"/><polygon fill="#EEEEEE" points="33,2406.3281,103,2406.3281,103,2413.3281,93,2423.3281,33,2423.3281,33,2406.3281" style="stroke: #000000; stroke-width: 1.0;"/><text fill="#000000" font-family="sans-serif" font-size="13" font-weight="bold" lengthAdjust="spacingAndGlyphs" textLength="25" x="48" y="2419.395">opt</text><text fill="#000000" font-family="sans-serif" font-size="11" font-weight="bold" lengthAdjust="spacingAndGlyphs" textLength="162" x="118" y="2418.5386">[Relations banque/client]</text><polygon fill="#383838" points="262.5,2455.4609,272.5,2459.4609,262.5,2463.4609,266.5,2459.4609" style="stroke: #383838; stroke-width: 1.0;"/><line style="stroke: #383838; stroke-width: 1.0;" x1="66.5" x2="268.5" y1="2459.4609" y2="2459.4609"/><text fill="#000000" font-family="sans-serif" font-size="13" lengthAdjust="spacingAndGlyphs" textLength="120" x="73.5" y="2439.5278">Consulter relations</text><text fill="#000000" font-family="sans-serif" font-size="13" lengthAdjust="spacingAndGlyphs" textLength="87" x="77.5" y="2454.6606">banque-client</text><polygon fill="#383838" points="742.5,2499.7266,752.5,2503.7266,742.5,2507.7266,746.5,2503.7266" style="stroke: #383838; stroke-width: 1.0;"/><line style="stroke: #383838; stroke-width: 1.0;" x1="274.5" x2="748.5" y1="2503.7266" y2="2503.7266"/><text fill="#000000" font-family="sans-serif" font-size="13" lengthAdjust="spacingAndGlyphs" textLength="261" x="281.5" y="2483.7935">ConsulterRelationsBanqueClient(idClient)</text><text fill="#000000" font-family="sans-serif" font-size="13" lengthAdjust="spacingAndGlyphs" textLength="456" x="281.5" y="2498.9263">: technique de contact, propositions, historique contacts, incidents, etc.</text><polygon fill="#383838" points="1195.5,2543.9922,1205.5,2547.9922,1195.5,2551.9922,1199.5,2547.9922" style="stroke: #383838; stroke-width: 1.0;"/><line style="stroke: #383838; stroke-width: 1.0;" x1="754.5" x2="1201.5" y1="2547.9922" y2="2547.9922"/><text fill="#000000" font-family="sans-serif" font-size="13" lengthAdjust="spacingAndGlyphs" textLength="235" x="761.5" y="2528.0591">ConsulterInfosRelationClient(idClient)</text><text fill="#000000" font-family="sans-serif" font-size="13" lengthAdjust="spacingAndGlyphs" textLength="299" x="761.5" y="2543.1919">: technique de contact, incidents, réclamations</text><polygon fill="#383838" points="1732.5,2588.2578,1742.5,2592.2578,1732.5,2596.2578,1736.5,2592.2578" style="stroke: #383838; stroke-width: 1.0;"/><line style="stroke: #383838; stroke-width: 1.0;" x1="754.5" x2="1738.5" y1="2592.2578" y2="2592.2578"/><text fill="#000000" font-family="sans-serif" font-size="13" lengthAdjust="spacingAndGlyphs" textLength="261" x="761.5" y="2572.3247">ConsulterPropositionsHistorique(idClient)</text><text fill="#000000" font-family="sans-serif" font-size="13" lengthAdjust="spacingAndGlyphs" textLength="326" x="761.5" y="2587.4575">: Liste&lt;PropositionCommerciale&gt;, Liste&lt;Contact&gt;</text><polygon fill="#383838" points="1823,2632.5234,1833,2636.5234,1823,2640.5234,1827,2636.5234" style="stroke: #383838; stroke-width: 1.0;"/><line style="stroke: #383838; stroke-width: 1.0;" x1="754.5" x2="1829" y1="2636.5234" y2="2636.5234"/><text fill="#000000" font-family="sans-serif" font-size="13" lengthAdjust="spacingAndGlyphs" textLength="240" x="761.5" y="2616.5903">ConsulterEvenementsAVenir(idClient)</text><text fill="#000000" font-family="sans-serif" font-size="13" lengthAdjust="spacingAndGlyphs" textLength="133" x="761.5" y="2631.7231">: Liste&lt;Evenement&gt;</text></g></svg>