<?xml version="1.0" encoding="UTF-8" standalone="yes"?><svg xmlns="http://www.w3.org/2000/svg" xmlns:xlink="http://www.w3.org/1999/xlink" height="974px" style="width:1273px;height:974px;" version="1.1" viewBox="0 0 1273 974" width="1273px"><defs/><g><text fill="#000000" font-family="sans-serif" font-size="20" lengthAdjust="spacingAndGlyphs" textLength="637" x="321.5" y="28.5645">Diagramme de séquence détaillé du CU 6 (Contacts spontanés)</text><line style="stroke: none; stroke-width: 1.0;" x1="321.5" x2="958.5" y1="38.2813" y2="38.2813"/><line style="stroke: #383838; stroke-width: 1.0; stroke-dasharray: 5.0,5.0;" x1="31" x2="31" y1="129.5781" y2="898.6953"/><line style="stroke: #383838; stroke-width: 1.0; stroke-dasharray: 5.0,5.0;" x1="370" x2="370" y1="129.5781" y2="898.6953"/><line style="stroke: #383838; stroke-width: 1.0; stroke-dasharray: 5.0,5.0;" x1="765.5" x2="765.5" y1="129.5781" y2="898.6953"/><line style="stroke: #383838; stroke-width: 1.0; stroke-dasharray: 5.0,5.0;" x1="1026" x2="1026" y1="129.5781" y2="898.6953"/><line style="stroke: #383838; stroke-width: 1.0; stroke-dasharray: 5.0,5.0;" x1="1160" x2="1160" y1="129.5781" y2="898.6953"/><line style="stroke: #383838; stroke-width: 1.0; stroke-dasharray: 5.0,5.0;" x1="1238" x2="1238" y1="129.5781" y2="898.6953"/><text fill="#000000" font-family="sans-serif" font-size="14" lengthAdjust="spacingAndGlyphs" textLength="41" x="8" y="126.2764">Agent</text><ellipse cx="31.5" cy="60.2813" fill="#F8F8F8" rx="8" ry="8" style="stroke: #383838; stroke-width: 2.0;"/><path d="M31.5,68.2813 L31.5,95.2813 M18.5,76.2813 L44.5,76.2813 M31.5,95.2813 L18.5,110.2813 M31.5,95.2813 L44.5,110.2813 " fill="#F8F8F8" style="stroke: #383838; stroke-width: 2.0;"/><text fill="#000000" font-family="sans-serif" font-size="14" lengthAdjust="spacingAndGlyphs" textLength="41" x="8" y="910.6904">Agent</text><ellipse cx="31.5" cy="923.9922" fill="#F8F8F8" rx="8" ry="8" style="stroke: #383838; stroke-width: 2.0;"/><path d="M31.5,931.9922 L31.5,958.9922 M18.5,939.9922 L44.5,939.9922 M31.5,958.9922 L18.5,973.9922 M31.5,958.9922 L44.5,973.9922 " fill="#F8F8F8" style="stroke: #383838; stroke-width: 2.0;"/><rect fill="#F8F8F8" height="30.2969" style="stroke: #383838; stroke-width: 1.0;" width="39" x="351" y="98.2813"/><text fill="#000000" font-family="sans-serif" font-size="14" lengthAdjust="spacingAndGlyphs" textLength="25" x="358" y="118.2764">IHM</text><rect fill="#F8F8F8" height="30.2969" style="stroke: #383838; stroke-width: 1.0;" width="39" x="351" y="897.6953"/><text fill="#000000" font-family="sans-serif" font-size="14" lengthAdjust="spacingAndGlyphs" textLength="25" x="358" y="917.6904">IHM</text><rect fill="#F8F8F8" height="30.2969" style="stroke: #383838; stroke-width: 1.0;" width="44" x="743.5" y="98.2813"/><text fill="#000000" font-family="sans-serif" font-size="14" lengthAdjust="spacingAndGlyphs" textLength="30" x="750.5" y="118.2764">SMA</text><rect fill="#F8F8F8" height="30.2969" style="stroke: #383838; stroke-width: 1.0;" width="44" x="743.5" y="897.6953"/><text fill="#000000" font-family="sans-serif" font-size="14" lengthAdjust="spacingAndGlyphs" textLength="30" x="750.5" y="917.6904">SMA</text><rect fill="#F8F8F8" height="30.2969" style="stroke: #383838; stroke-width: 1.0;" width="53" x="1000" y="98.2813"/><text fill="#000000" font-family="sans-serif" font-size="14" lengthAdjust="spacingAndGlyphs" textLength="39" x="1007" y="118.2764">Client</text><rect fill="#F8F8F8" height="30.2969" style="stroke: #383838; stroke-width: 1.0;" width="53" x="1000" y="897.6953"/><text fill="#000000" font-family="sans-serif" font-size="14" lengthAdjust="spacingAndGlyphs" textLength="39" x="1007" y="917.6904">Client</text><rect fill="#F8F8F8" height="30.2969" style="stroke: #383838; stroke-width: 1.0;" width="67" x="1127" y="98.2813"/><text fill="#000000" font-family="sans-serif" font-size="14" lengthAdjust="spacingAndGlyphs" textLength="53" x="1134" y="118.2764">Agenda</text><rect fill="#F8F8F8" height="30.2969" style="stroke: #383838; stroke-width: 1.0;" width="67" x="1127" y="897.6953"/><text fill="#000000" font-family="sans-serif" font-size="14" lengthAdjust="spacingAndGlyphs" textLength="53" x="1134" y="917.6904">Agenda</text><rect fill="#F8F8F8" height="30.2969" style="stroke: #383838; stroke-width: 1.0;" width="68" x="1204" y="98.2813"/><text fill="#000000" font-family="sans-serif" font-size="14" lengthAdjust="spacingAndGlyphs" textLength="54" x="1211" y="118.2764">Contact</text><rect fill="#F8F8F8" height="30.2969" style="stroke: #383838; stroke-width: 1.0;" width="68" x="1204" y="897.6953"/><text fill="#000000" font-family="sans-serif" font-size="14" lengthAdjust="spacingAndGlyphs" textLength="54" x="1211" y="917.6904">Contact</text><polygon fill="#383838" points="358.5,156.5781,368.5,160.5781,358.5,164.5781,362.5,160.5781" style="stroke: #383838; stroke-width: 1.0;"/><line style="stroke: #383838; stroke-width: 1.0;" x1="31.5" x2="364.5" y1="160.5781" y2="160.5781"/><text fill="#000000" font-family="sans-serif" font-size="13" lengthAdjust="spacingAndGlyphs" textLength="199" x="38.5" y="155.645">Saisir les informations du client</text><polygon fill="#383838" points="358.5,185.7109,368.5,189.7109,358.5,193.7109,362.5,189.7109" style="stroke: #383838; stroke-width: 1.0;"/><line style="stroke: #383838; stroke-width: 1.0;" x1="31.5" x2="364.5" y1="189.7109" y2="189.7109"/><text fill="#000000" font-family="sans-serif" font-size="13" lengthAdjust="spacingAndGlyphs" textLength="125" x="38.5" y="184.7778">Rechercher le client</text><polygon fill="#383838" points="753.5,229.8438,763.5,233.8438,753.5,237.8438,757.5,233.8438" style="stroke: #383838; stroke-width: 1.0;"/><line style="stroke: #383838; stroke-width: 1.0;" x1="370.5" x2="759.5" y1="233.8438" y2="233.8438"/><text fill="#000000" font-family="sans-serif" font-size="13" lengthAdjust="spacingAndGlyphs" textLength="233" x="377.5" y="213.9106">RechercherClient(prenom, nom, etc)</text><text fill="#000000" font-family="sans-serif" font-size="13" lengthAdjust="spacingAndGlyphs" textLength="42" x="377.5" y="229.0435">: client</text><polygon fill="#383838" points="1014.5,274.1094,1024.5,278.1094,1014.5,282.1094,1018.5,278.1094" style="stroke: #383838; stroke-width: 1.0;"/><line style="stroke: #383838; stroke-width: 1.0;" x1="765.5" x2="1020.5" y1="278.1094" y2="278.1094"/><text fill="#000000" font-family="sans-serif" font-size="13" lengthAdjust="spacingAndGlyphs" textLength="237" x="772.5" y="258.1763">RechercherClient(prenom, nom, etc.)</text><text fill="#000000" font-family="sans-serif" font-size="13" lengthAdjust="spacingAndGlyphs" textLength="42" x="772.5" y="273.3091">: client</text><polygon fill="#383838" points="358.5,318.375,368.5,322.375,358.5,326.375,362.5,322.375" style="stroke: #383838; stroke-width: 1.0;"/><line style="stroke: #383838; stroke-width: 1.0;" x1="31.5" x2="364.5" y1="322.375" y2="322.375"/><text fill="#000000" font-family="sans-serif" font-size="13" lengthAdjust="spacingAndGlyphs" textLength="176" x="38.5" y="302.4419">Consulter son dossier client</text><text fill="#000000" font-family="sans-serif" font-size="13" lengthAdjust="spacingAndGlyphs" textLength="49" x="38.5" y="317.5747">(CU 10)</text><polygon fill="#383838" points="358.5,347.6406,368.5,351.6406,358.5,355.6406,362.5,351.6406" style="stroke: #383838; stroke-width: 1.0;"/><line style="stroke: #383838; stroke-width: 1.0;" x1="31.5" x2="364.5" y1="351.6406" y2="351.6406"/><text fill="#000000" font-family="sans-serif" font-size="13" lengthAdjust="spacingAndGlyphs" textLength="183" x="38.5" y="346.7075">Voir les plages agenda libres</text><polygon fill="#383838" points="753.5,391.7734,763.5,395.7734,753.5,399.7734,757.5,395.7734" style="stroke: #383838; stroke-width: 1.0;"/><line style="stroke: #383838; stroke-width: 1.0;" x1="370.5" x2="759.5" y1="395.7734" y2="395.7734"/><text fill="#000000" font-family="sans-serif" font-size="13" lengthAdjust="spacingAndGlyphs" textLength="186" x="377.5" y="375.8403">ObtenirPlagesLibres(idAgent)</text><text fill="#000000" font-family="sans-serif" font-size="13" lengthAdjust="spacingAndGlyphs" textLength="144" x="377.5" y="390.9731">: Liste&lt;PlageAgenda&gt;</text><polygon fill="#383838" points="1148.5,421.0391,1158.5,425.0391,1148.5,429.0391,1152.5,425.0391" style="stroke: #383838; stroke-width: 1.0;"/><line style="stroke: #383838; stroke-width: 1.0;" x1="765.5" x2="1154.5" y1="425.0391" y2="425.0391"/><text fill="#000000" font-family="sans-serif" font-size="13" lengthAdjust="spacingAndGlyphs" textLength="334" x="772.5" y="420.106">ObtenirPlagesLibres(idAgent) : Liste&lt;PlageAgenda&gt;</text><polygon fill="#383838" points="358.5,450.1719,368.5,454.1719,358.5,458.1719,362.5,454.1719" style="stroke: #383838; stroke-width: 1.0;"/><line style="stroke: #383838; stroke-width: 1.0;" x1="31.5" x2="364.5" y1="454.1719" y2="454.1719"/><text fill="#000000" font-family="sans-serif" font-size="13" lengthAdjust="spacingAndGlyphs" textLength="234" x="38.5" y="449.2388">Saisir les infos concernant le contact</text><polygon fill="#383838" points="358.5,479.3047,368.5,483.3047,358.5,487.3047,362.5,483.3047" style="stroke: #383838; stroke-width: 1.0;"/><line style="stroke: #383838; stroke-width: 1.0;" x1="31.5" x2="364.5" y1="483.3047" y2="483.3047"/><text fill="#000000" font-family="sans-serif" font-size="13" lengthAdjust="spacingAndGlyphs" textLength="166" x="38.5" y="478.3716">Créer un nouveau contact</text><polygon fill="#383838" points="753.5,523.4375,763.5,527.4375,753.5,531.4375,757.5,527.4375" style="stroke: #383838; stroke-width: 1.0;"/><line style="stroke: #383838; stroke-width: 1.0;" x1="370.5" x2="759.5" y1="527.4375" y2="527.4375"/><text fill="#000000" font-family="sans-serif" font-size="13" lengthAdjust="spacingAndGlyphs" textLength="352" x="377.5" y="507.5044">CreerContactSpontane(idClient, idAgent, motifContact)</text><text fill="#000000" font-family="sans-serif" font-size="13" lengthAdjust="spacingAndGlyphs" textLength="193" x="377.5" y="522.6372">: contactPrevu, contactRealise</text><polygon fill="#383838" points="1226,567.7031,1236,571.7031,1226,575.7031,1230,571.7031" style="stroke: #383838; stroke-width: 1.0;"/><line style="stroke: #383838; stroke-width: 1.0;" x1="765.5" x2="1232" y1="571.7031" y2="571.7031"/><text fill="#000000" font-family="sans-serif" font-size="13" lengthAdjust="spacingAndGlyphs" textLength="352" x="772.5" y="551.77">CreerContactSpontane(idClient, idAgent, motifContact)</text><text fill="#000000" font-family="sans-serif" font-size="13" lengthAdjust="spacingAndGlyphs" textLength="193" x="772.5" y="566.9028">: contactPrevu, contactRealise</text><polygon fill="#383838" points="358.5,596.9688,368.5,600.9688,358.5,604.9688,362.5,600.9688" style="stroke: #383838; stroke-width: 1.0;"/><line style="stroke: #383838; stroke-width: 1.0;" x1="31.5" x2="364.5" y1="600.9688" y2="600.9688"/><text fill="#000000" font-family="sans-serif" font-size="13" lengthAdjust="spacingAndGlyphs" textLength="315" x="38.5" y="596.0356">Saisir les informations concernant le rendez-vous</text><polygon fill="#383838" points="358.5,626.1016,368.5,630.1016,358.5,634.1016,362.5,630.1016" style="stroke: #383838; stroke-width: 1.0;"/><line style="stroke: #383838; stroke-width: 1.0;" x1="31.5" x2="364.5" y1="630.1016" y2="630.1016"/><text fill="#000000" font-family="sans-serif" font-size="13" lengthAdjust="spacingAndGlyphs" textLength="202" x="38.5" y="625.1685">Créer un rendez-vous spontané</text><polygon fill="#383838" points="753.5,670.2344,763.5,674.2344,753.5,678.2344,757.5,674.2344" style="stroke: #383838; stroke-width: 1.0;"/><line style="stroke: #383838; stroke-width: 1.0;" x1="370.5" x2="759.5" y1="674.2344" y2="674.2344"/><text fill="#000000" font-family="sans-serif" font-size="13" lengthAdjust="spacingAndGlyphs" textLength="371" x="377.5" y="654.3013">CreerRDVSpontane(idContactRealise, date, commentaire)</text><text fill="#000000" font-family="sans-serif" font-size="13" lengthAdjust="spacingAndGlyphs" textLength="92" x="377.5" y="669.4341">: plageAgenda</text><polygon fill="#383838" points="1148.5,714.5,1158.5,718.5,1148.5,722.5,1152.5,718.5" style="stroke: #383838; stroke-width: 1.0;"/><line style="stroke: #383838; stroke-width: 1.0;" x1="765.5" x2="1154.5" y1="718.5" y2="718.5"/><text fill="#000000" font-family="sans-serif" font-size="13" lengthAdjust="spacingAndGlyphs" textLength="371" x="772.5" y="698.5669">CreerRDVSpontane(idContactRealise, date, commentaire)</text><text fill="#000000" font-family="sans-serif" font-size="13" lengthAdjust="spacingAndGlyphs" textLength="92" x="772.5" y="713.6997">: plageAgenda</text><polygon fill="#383838" points="358.5,743.7656,368.5,747.7656,358.5,751.7656,362.5,747.7656" style="stroke: #383838; stroke-width: 1.0;"/><line style="stroke: #383838; stroke-width: 1.0;" x1="31.5" x2="364.5" y1="747.7656" y2="747.7656"/><text fill="#000000" font-family="sans-serif" font-size="13" lengthAdjust="spacingAndGlyphs" textLength="281" x="38.5" y="742.8325">Ecrire lettre de confirmation de rendez-vous</text><polygon fill="#383838" points="358.5,787.8984,368.5,791.8984,358.5,795.8984,362.5,791.8984" style="stroke: #383838; stroke-width: 1.0;"/><line style="stroke: #383838; stroke-width: 1.0;" x1="31.5" x2="364.5" y1="791.8984" y2="791.8984"/><text fill="#000000" font-family="sans-serif" font-size="13" lengthAdjust="spacingAndGlyphs" textLength="90" x="38.5" y="771.9653">Editer la lettre</text><text fill="#000000" font-family="sans-serif" font-size="13" lengthAdjust="spacingAndGlyphs" textLength="203" x="38.5" y="787.0981">de confirmation du rendez-vous</text><polygon fill="#383838" points="753.5,832.1641,763.5,836.1641,753.5,840.1641,757.5,836.1641" style="stroke: #383838; stroke-width: 1.0;"/><line style="stroke: #383838; stroke-width: 1.0;" x1="370.5" x2="759.5" y1="836.1641" y2="836.1641"/><text fill="#000000" font-family="sans-serif" font-size="13" lengthAdjust="spacingAndGlyphs" textLength="363" x="377.5" y="816.231">EnregistrerLettreConfirmationRdv(idContact, texteLettre)</text><text fill="#000000" font-family="sans-serif" font-size="13" lengthAdjust="spacingAndGlyphs" textLength="34" x="377.5" y="831.3638">: void</text><polygon fill="#383838" points="1226,876.4297,1236,880.4297,1226,884.4297,1230,880.4297" style="stroke: #383838; stroke-width: 1.0;"/><line style="stroke: #383838; stroke-width: 1.0;" x1="765.5" x2="1232" y1="880.4297" y2="880.4297"/><text fill="#000000" font-family="sans-serif" font-size="13" lengthAdjust="spacingAndGlyphs" textLength="363" x="772.5" y="860.4966">EnregistrerLettreConfirmationRdv(idContact, texteLettre)</text><text fill="#000000" font-family="sans-serif" font-size="13" lengthAdjust="spacingAndGlyphs" textLength="34" x="772.5" y="875.6294">: void</text></g></svg>