<?xml version="1.0" encoding="UTF-8" standalone="yes"?><svg xmlns="http://www.w3.org/2000/svg" xmlns:xlink="http://www.w3.org/1999/xlink" height="1378px" style="width:1365px;height:1378px;" version="1.1" viewBox="0 0 1365 1378" width="1365px"><defs/><g><text fill="#000000" font-family="sans-serif" font-size="20" lengthAdjust="spacingAndGlyphs" textLength="418" x="479.75" y="28.5645">Diagramme de séquence détaillé du CU 9</text><line style="stroke: none; stroke-width: 1.0;" x1="479.75" x2="897.75" y1="38.2813" y2="38.2813"/><rect fill="#FFFFFF" height="134.7969" style="stroke: #000000; stroke-width: 1.0;" width="1215.5" x="13" y="441.3047"/><rect fill="#FFFFFF" height="430.3906" style="stroke: #000000; stroke-width: 1.0;" width="1351.5" x="13" y="736.8984"/><rect fill="#FFFFFF" height="148.7969" style="stroke: none; stroke-width: 1.0;" width="1351.5" x="13" y="1018.4922"/><line style="stroke: #383838; stroke-width: 1.0; stroke-dasharray: 5.0,5.0;" x1="46" x2="46" y1="129.5781" y2="1301.9531"/><line style="stroke: #383838; stroke-width: 1.0; stroke-dasharray: 5.0,5.0;" x1="342" x2="342" y1="129.5781" y2="1301.9531"/><line style="stroke: #383838; stroke-width: 1.0; stroke-dasharray: 5.0,5.0;" x1="718.5" x2="718.5" y1="129.5781" y2="1301.9531"/><line style="stroke: #383838; stroke-width: 1.0; stroke-dasharray: 5.0,5.0;" x1="1184.5" x2="1184.5" y1="129.5781" y2="1301.9531"/><line style="stroke: #383838; stroke-width: 1.0; stroke-dasharray: 5.0,5.0;" x1="1254.5" x2="1254.5" y1="129.5781" y2="1301.9531"/><line style="stroke: #383838; stroke-width: 1.0; stroke-dasharray: 5.0,5.0;" x1="1322.5" x2="1322.5" y1="129.5781" y2="1301.9531"/><text fill="#000000" font-family="sans-serif" font-size="14" lengthAdjust="spacingAndGlyphs" textLength="41" x="23" y="126.2764">Agent</text><ellipse cx="46.5" cy="60.2813" fill="#F8F8F8" rx="8" ry="8" style="stroke: #383838; stroke-width: 2.0;"/><path d="M46.5,68.2813 L46.5,95.2813 M33.5,76.2813 L59.5,76.2813 M46.5,95.2813 L33.5,110.2813 M46.5,95.2813 L59.5,110.2813 " fill="#F8F8F8" style="stroke: #383838; stroke-width: 2.0;"/><text fill="#000000" font-family="sans-serif" font-size="14" lengthAdjust="spacingAndGlyphs" textLength="41" x="23" y="1313.9482">Agent</text><ellipse cx="46.5" cy="1327.25" fill="#F8F8F8" rx="8" ry="8" style="stroke: #383838; stroke-width: 2.0;"/><path d="M46.5,1335.25 L46.5,1362.25 M33.5,1343.25 L59.5,1343.25 M46.5,1362.25 L33.5,1377.25 M46.5,1362.25 L59.5,1377.25 " fill="#F8F8F8" style="stroke: #383838; stroke-width: 2.0;"/><rect fill="#F8F8F8" height="30.2969" style="stroke: #383838; stroke-width: 1.0;" width="39" x="323" y="98.2813"/><text fill="#000000" font-family="sans-serif" font-size="14" lengthAdjust="spacingAndGlyphs" textLength="25" x="330" y="118.2764">IHM</text><rect fill="#F8F8F8" height="30.2969" style="stroke: #383838; stroke-width: 1.0;" width="39" x="323" y="1300.9531"/><text fill="#000000" font-family="sans-serif" font-size="14" lengthAdjust="spacingAndGlyphs" textLength="25" x="330" y="1320.9482">IHM</text><rect fill="#F8F8F8" height="30.2969" style="stroke: #383838; stroke-width: 1.0;" width="44" x="696.5" y="98.2813"/><text fill="#000000" font-family="sans-serif" font-size="14" lengthAdjust="spacingAndGlyphs" textLength="30" x="703.5" y="118.2764">SMA</text><rect fill="#F8F8F8" height="30.2969" style="stroke: #383838; stroke-width: 1.0;" width="44" x="696.5" y="1300.9531"/><text fill="#000000" font-family="sans-serif" font-size="14" lengthAdjust="spacingAndGlyphs" textLength="30" x="703.5" y="1320.9482">SMA</text><rect fill="#F8F8F8" height="30.2969" style="stroke: #383838; stroke-width: 1.0;" width="68" x="1150.5" y="98.2813"/><text fill="#000000" font-family="sans-serif" font-size="14" lengthAdjust="spacingAndGlyphs" textLength="54" x="1157.5" y="118.2764">Contact</text><rect fill="#F8F8F8" height="30.2969" style="stroke: #383838; stroke-width: 1.0;" width="68" x="1150.5" y="1300.9531"/><text fill="#000000" font-family="sans-serif" font-size="14" lengthAdjust="spacingAndGlyphs" textLength="54" x="1157.5" y="1320.9482">Contact</text><rect fill="#F8F8F8" height="30.2969" style="stroke: #383838; stroke-width: 1.0;" width="53" x="1228.5" y="98.2813"/><text fill="#000000" font-family="sans-serif" font-size="14" lengthAdjust="spacingAndGlyphs" textLength="39" x="1235.5" y="118.2764">Client</text><rect fill="#F8F8F8" height="30.2969" style="stroke: #383838; stroke-width: 1.0;" width="53" x="1228.5" y="1300.9531"/><text fill="#000000" font-family="sans-serif" font-size="14" lengthAdjust="spacingAndGlyphs" textLength="39" x="1235.5" y="1320.9482">Client</text><rect fill="#F8F8F8" height="30.2969" style="stroke: #383838; stroke-width: 1.0;" width="63" x="1291.5" y="98.2813"/><text fill="#000000" font-family="sans-serif" font-size="14" lengthAdjust="spacingAndGlyphs" textLength="49" x="1298.5" y="118.2764">Produit</text><rect fill="#F8F8F8" height="30.2969" style="stroke: #383838; stroke-width: 1.0;" width="63" x="1291.5" y="1300.9531"/><text fill="#000000" font-family="sans-serif" font-size="14" lengthAdjust="spacingAndGlyphs" textLength="49" x="1298.5" y="1320.9482">Produit</text><polygon fill="#383838" points="330.5,156.5781,340.5,160.5781,330.5,164.5781,334.5,160.5781" style="stroke: #383838; stroke-width: 1.0;"/><line style="stroke: #383838; stroke-width: 1.0;" x1="46.5" x2="336.5" y1="160.5781" y2="160.5781"/><text fill="#000000" font-family="sans-serif" font-size="13" lengthAdjust="spacingAndGlyphs" textLength="213" x="53.5" y="155.645">Saisir les informations du contact</text><polygon fill="#383838" points="330.5,185.7109,340.5,189.7109,330.5,193.7109,334.5,189.7109" style="stroke: #383838; stroke-width: 1.0;"/><line style="stroke: #383838; stroke-width: 1.0;" x1="46.5" x2="336.5" y1="189.7109" y2="189.7109"/><text fill="#000000" font-family="sans-serif" font-size="13" lengthAdjust="spacingAndGlyphs" textLength="122" x="53.5" y="184.7778">Identifier le contact</text><polygon fill="#383838" points="706.5,229.8438,716.5,233.8438,706.5,237.8438,710.5,233.8438" style="stroke: #383838; stroke-width: 1.0;"/><line style="stroke: #383838; stroke-width: 1.0;" x1="342.5" x2="712.5" y1="233.8438" y2="233.8438"/><text fill="#000000" font-family="sans-serif" font-size="13" lengthAdjust="spacingAndGlyphs" textLength="176" x="349.5" y="213.9106">IdentifierContact(idContact)</text><text fill="#000000" font-family="sans-serif" font-size="13" lengthAdjust="spacingAndGlyphs" textLength="58" x="349.5" y="229.0435">: Contact</text><polygon fill="#383838" points="1172.5,274.1094,1182.5,278.1094,1172.5,282.1094,1176.5,278.1094" style="stroke: #383838; stroke-width: 1.0;"/><line style="stroke: #383838; stroke-width: 1.0;" x1="718.5" x2="1178.5" y1="278.1094" y2="278.1094"/><text fill="#000000" font-family="sans-serif" font-size="13" lengthAdjust="spacingAndGlyphs" textLength="308" x="725.5" y="258.1763">IdentifierContact(denomination, nomClient, etc.)</text><text fill="#000000" font-family="sans-serif" font-size="13" lengthAdjust="spacingAndGlyphs" textLength="58" x="725.5" y="273.3091">: Contact</text><polygon fill="#383838" points="330.5,303.375,340.5,307.375,330.5,311.375,334.5,307.375" style="stroke: #383838; stroke-width: 1.0;"/><line style="stroke: #383838; stroke-width: 1.0;" x1="46.5" x2="336.5" y1="307.375" y2="307.375"/><text fill="#000000" font-family="sans-serif" font-size="13" lengthAdjust="spacingAndGlyphs" textLength="165" x="53.5" y="302.4419">Voir les détails du contact</text><polygon fill="#383838" points="706.5,362.5078,716.5,366.5078,706.5,370.5078,710.5,366.5078" style="stroke: #383838; stroke-width: 1.0;"/><line style="stroke: #383838; stroke-width: 1.0;" x1="342.5" x2="712.5" y1="366.5078" y2="366.5078"/><text fill="#000000" font-family="sans-serif" font-size="13" lengthAdjust="spacingAndGlyphs" textLength="212" x="349.5" y="331.5747">ObtenirDetailsContact(idContact)</text><text fill="#000000" font-family="sans-serif" font-size="13" lengthAdjust="spacingAndGlyphs" textLength="258" x="349.5" y="346.7075">: contact, motifDeContact, Client, agent,</text><text fill="#000000" font-family="sans-serif" font-size="13" lengthAdjust="spacingAndGlyphs" textLength="352" x="349.5" y="361.8403">Liste&lt;PropositionCommerciale, Offre, Liste&lt;Produit&gt;&gt;</text><polygon fill="#383838" points="1172.5,421.9063,1182.5,425.9063,1172.5,429.9063,1176.5,425.9063" style="stroke: #383838; stroke-width: 1.0;"/><line style="stroke: #383838; stroke-width: 1.0;" x1="718.5" x2="1178.5" y1="425.9063" y2="425.9063"/><text fill="#000000" font-family="sans-serif" font-size="13" lengthAdjust="spacingAndGlyphs" textLength="212" x="725.5" y="390.9731">ObtenirDetailsContact(idContact)</text><text fill="#000000" font-family="sans-serif" font-size="13" lengthAdjust="spacingAndGlyphs" textLength="281" x="725.5" y="406.106">: Contact, MotifDeContact, idClient, idAgent,</text><text fill="#000000" font-family="sans-serif" font-size="13" lengthAdjust="spacingAndGlyphs" textLength="258" x="725.5" y="421.2388">Liste&lt;PropositionCommerciale, idOffre&gt;</text><rect fill="none" height="134.7969" style="stroke: #000000; stroke-width: 1.0;" width="1215.5" x="13" y="441.3047"/><polygon fill="#EEEEEE" points="13,441.3047,77,441.3047,77,448.3047,67,458.3047,13,458.3047,13,441.3047" style="stroke: #000000; stroke-width: 1.0;"/><text fill="#000000" font-family="sans-serif" font-size="13" font-weight="bold" lengthAdjust="spacingAndGlyphs" textLength="19" x="28" y="454.3716">alt</text><text fill="#000000" font-family="sans-serif" font-size="11" font-weight="bold" lengthAdjust="spacingAndGlyphs" textLength="119" x="92" y="453.5151">[Préparation faite]</text><polygon fill="#383838" points="330.5,490.4375,340.5,494.4375,330.5,498.4375,334.5,494.4375" style="stroke: #383838; stroke-width: 1.0;"/><line style="stroke: #383838; stroke-width: 1.0;" x1="46.5" x2="336.5" y1="494.4375" y2="494.4375"/><text fill="#000000" font-family="sans-serif" font-size="13" lengthAdjust="spacingAndGlyphs" textLength="246" x="53.5" y="474.5044">Afficher les propositions commerciales</text><text fill="#000000" font-family="sans-serif" font-size="13" lengthAdjust="spacingAndGlyphs" textLength="177" x="53.5" y="489.6372">et annotations enregistrées</text><polygon fill="#383838" points="706.5,534.7031,716.5,538.7031,706.5,542.7031,710.5,538.7031" style="stroke: #383838; stroke-width: 1.0;"/><line style="stroke: #383838; stroke-width: 1.0;" x1="342.5" x2="712.5" y1="538.7031" y2="538.7031"/><text fill="#000000" font-family="sans-serif" font-size="13" lengthAdjust="spacingAndGlyphs" textLength="274" x="349.5" y="518.77">ObtenirPropositionCommerciale(idContact)</text><text fill="#000000" font-family="sans-serif" font-size="13" lengthAdjust="spacingAndGlyphs" textLength="216" x="349.5" y="533.9028">: Liste&lt;PropositionCommerciale&gt;</text><polygon fill="#383838" points="1172.5,563.9688,1182.5,567.9688,1172.5,571.9688,1176.5,567.9688" style="stroke: #383838; stroke-width: 1.0;"/><line style="stroke: #383838; stroke-width: 1.0;" x1="718.5" x2="1178.5" y1="567.9688" y2="567.9688"/><text fill="#000000" font-family="sans-serif" font-size="13" lengthAdjust="spacingAndGlyphs" textLength="442" x="725.5" y="563.0356">ObtenirPropositionCommerciale(idContact) : PropositionCommerciale</text><polygon fill="#383838" points="330.5,600.1016,340.5,604.1016,330.5,608.1016,334.5,604.1016" style="stroke: #383838; stroke-width: 1.0;"/><line style="stroke: #383838; stroke-width: 1.0;" x1="46.5" x2="336.5" y1="604.1016" y2="604.1016"/><text fill="#000000" font-family="sans-serif" font-size="13" lengthAdjust="spacingAndGlyphs" textLength="138" x="53.5" y="599.1685">Sélectionner un client</text><polygon fill="#383838" points="330.5,629.2344,340.5,633.2344,330.5,637.2344,334.5,633.2344" style="stroke: #383838; stroke-width: 1.0;"/><line style="stroke: #383838; stroke-width: 1.0;" x1="46.5" x2="336.5" y1="633.2344" y2="633.2344"/><text fill="#000000" font-family="sans-serif" font-size="13" lengthAdjust="spacingAndGlyphs" textLength="184" x="53.5" y="628.3013">Consulter le dossier du client</text><polygon fill="#383838" points="706.5,673.3672,716.5,677.3672,706.5,681.3672,710.5,677.3672" style="stroke: #383838; stroke-width: 1.0;"/><line style="stroke: #383838; stroke-width: 1.0;" x1="342.5" x2="712.5" y1="677.3672" y2="677.3672"/><text fill="#000000" font-family="sans-serif" font-size="13" lengthAdjust="spacingAndGlyphs" textLength="188" x="349.5" y="657.4341">ObtenirDossierClient(idClient)</text><text fill="#000000" font-family="sans-serif" font-size="13" lengthAdjust="spacingAndGlyphs" textLength="44" x="349.5" y="672.5669">: Client</text><polygon fill="#383838" points="1243,717.6328,1253,721.6328,1243,725.6328,1247,721.6328" style="stroke: #383838; stroke-width: 1.0;"/><line style="stroke: #383838; stroke-width: 1.0;" x1="718.5" x2="1249" y1="721.6328" y2="721.6328"/><text fill="#000000" font-family="sans-serif" font-size="13" lengthAdjust="spacingAndGlyphs" textLength="188" x="725.5" y="701.6997">ObtenirDossierClient(idClient)</text><text fill="#000000" font-family="sans-serif" font-size="13" lengthAdjust="spacingAndGlyphs" textLength="107" x="725.5" y="716.8325">: motif, etat, etc.</text><rect fill="none" height="430.3906" style="stroke: #000000; stroke-width: 1.0;" width="1351.5" x="13" y="736.8984"/><polygon fill="#EEEEEE" points="13,736.8984,83,736.8984,83,743.8984,73,753.8984,13,753.8984,13,736.8984" style="stroke: #000000; stroke-width: 1.0;"/><text fill="#000000" font-family="sans-serif" font-size="13" font-weight="bold" lengthAdjust="spacingAndGlyphs" textLength="25" x="28" y="749.9653">par</text><polygon fill="#383838" points="330.5,771.0313,340.5,775.0313,330.5,779.0313,334.5,775.0313" style="stroke: #383838; stroke-width: 1.0;"/><line style="stroke: #383838; stroke-width: 1.0;" x1="46.5" x2="336.5" y1="775.0313" y2="775.0313"/><text fill="#000000" font-family="sans-serif" font-size="13" lengthAdjust="spacingAndGlyphs" textLength="173" x="53.5" y="770.0981">Consulter la liste des offres</text><polygon fill="#383838" points="706.5,815.1641,716.5,819.1641,706.5,823.1641,710.5,819.1641" style="stroke: #383838; stroke-width: 1.0;"/><line style="stroke: #383838; stroke-width: 1.0;" x1="342.5" x2="712.5" y1="819.1641" y2="819.1641"/><text fill="#000000" font-family="sans-serif" font-size="13" lengthAdjust="spacingAndGlyphs" textLength="121" x="349.5" y="799.231">ObtenirOffres(void)</text><text fill="#000000" font-family="sans-serif" font-size="13" lengthAdjust="spacingAndGlyphs" textLength="91" x="349.5" y="814.3638">: Liste&lt;Offre&gt;</text><polygon fill="#383838" points="1311,859.4297,1321,863.4297,1311,867.4297,1315,863.4297" style="stroke: #383838; stroke-width: 1.0;"/><line style="stroke: #383838; stroke-width: 1.0;" x1="718.5" x2="1317" y1="863.4297" y2="863.4297"/><text fill="#000000" font-family="sans-serif" font-size="13" lengthAdjust="spacingAndGlyphs" textLength="121" x="725.5" y="843.4966">ObtenirOffres(void)</text><text fill="#000000" font-family="sans-serif" font-size="13" lengthAdjust="spacingAndGlyphs" textLength="91" x="725.5" y="858.6294">: Liste&lt;Offre&gt;</text><polygon fill="#383838" points="330.5,888.6953,340.5,892.6953,330.5,896.6953,334.5,892.6953" style="stroke: #383838; stroke-width: 1.0;"/><line style="stroke: #383838; stroke-width: 1.0;" x1="46.5" x2="336.5" y1="892.6953" y2="892.6953"/><text fill="#000000" font-family="sans-serif" font-size="13" lengthAdjust="spacingAndGlyphs" textLength="141" x="53.5" y="887.7622">Sélectionner une offre</text><polygon fill="#383838" points="330.5,917.8281,340.5,921.8281,330.5,925.8281,334.5,921.8281" style="stroke: #383838; stroke-width: 1.0;"/><line style="stroke: #383838; stroke-width: 1.0;" x1="46.5" x2="336.5" y1="921.8281" y2="921.8281"/><text fill="#000000" font-family="sans-serif" font-size="13" lengthAdjust="spacingAndGlyphs" textLength="245" x="53.5" y="916.895">Voir le détails d'une offre du catalogue</text><polygon fill="#383838" points="706.5,961.9609,716.5,965.9609,706.5,969.9609,710.5,965.9609" style="stroke: #383838; stroke-width: 1.0;"/><line style="stroke: #383838; stroke-width: 1.0;" x1="342.5" x2="712.5" y1="965.9609" y2="965.9609"/><text fill="#000000" font-family="sans-serif" font-size="13" lengthAdjust="spacingAndGlyphs" textLength="174" x="349.5" y="946.0278">ObtenirDetailsOffre(idOffre)</text><text fill="#000000" font-family="sans-serif" font-size="13" lengthAdjust="spacingAndGlyphs" textLength="237" x="349.5" y="961.1606">: Liste&lt;Produit&gt;, commentairesOffre</text><polygon fill="#383838" points="1311,1006.2266,1321,1010.2266,1311,1014.2266,1315,1010.2266" style="stroke: #383838; stroke-width: 1.0;"/><line style="stroke: #383838; stroke-width: 1.0;" x1="718.5" x2="1317" y1="1010.2266" y2="1010.2266"/><text fill="#000000" font-family="sans-serif" font-size="13" lengthAdjust="spacingAndGlyphs" textLength="174" x="725.5" y="990.2935">ObtenirDetailsOffre(idOffre)</text><text fill="#000000" font-family="sans-serif" font-size="13" lengthAdjust="spacingAndGlyphs" textLength="237" x="725.5" y="1005.4263">: Liste&lt;Produit&gt;, commentairesOffre</text><line style="stroke: #000000; stroke-width: 1.0; stroke-dasharray: 2.0,2.0;" x1="13" x2="1364.5" y1="1019.4922" y2="1019.4922"/><polygon fill="#383838" points="330.5,1037.4922,340.5,1041.4922,330.5,1045.4922,334.5,1041.4922" style="stroke: #383838; stroke-width: 1.0;"/><line style="stroke: #383838; stroke-width: 1.0;" x1="46.5" x2="336.5" y1="1041.4922" y2="1041.4922"/><text fill="#000000" font-family="sans-serif" font-size="13" lengthAdjust="spacingAndGlyphs" textLength="195" x="53.5" y="1036.5591">Rédiger une proposition d'offre</text><polygon fill="#383838" points="330.5,1066.625,340.5,1070.625,330.5,1074.625,334.5,1070.625" style="stroke: #383838; stroke-width: 1.0;"/><line style="stroke: #383838; stroke-width: 1.0;" x1="46.5" x2="336.5" y1="1070.625" y2="1070.625"/><text fill="#000000" font-family="sans-serif" font-size="13" lengthAdjust="spacingAndGlyphs" textLength="272" x="53.5" y="1065.6919">Soumettre des propositions commerciales</text><polygon fill="#383838" points="706.5,1110.7578,716.5,1114.7578,706.5,1118.7578,710.5,1114.7578" style="stroke: #383838; stroke-width: 1.0;"/><line style="stroke: #383838; stroke-width: 1.0;" x1="342.5" x2="712.5" y1="1114.7578" y2="1114.7578"/><text fill="#000000" font-family="sans-serif" font-size="13" lengthAdjust="spacingAndGlyphs" textLength="323" x="349.5" y="1094.8247">AjouterPropositionCommerciale(idOffre, idContact)</text><text fill="#000000" font-family="sans-serif" font-size="13" lengthAdjust="spacingAndGlyphs" textLength="34" x="349.5" y="1109.9575">: void</text><polygon fill="#383838" points="1172.5,1155.0234,1182.5,1159.0234,1172.5,1163.0234,1176.5,1159.0234" style="stroke: #383838; stroke-width: 1.0;"/><line style="stroke: #383838; stroke-width: 1.0;" x1="718.5" x2="1178.5" y1="1159.0234" y2="1159.0234"/><text fill="#000000" font-family="sans-serif" font-size="13" lengthAdjust="spacingAndGlyphs" textLength="323" x="725.5" y="1139.0903">AjouterPropositionCommerciale(idContact, idOffre)</text><text fill="#000000" font-family="sans-serif" font-size="13" lengthAdjust="spacingAndGlyphs" textLength="34" x="725.5" y="1154.2231">: void</text><polygon fill="#383838" points="330.5,1206.2891,340.5,1210.2891,330.5,1214.2891,334.5,1210.2891" style="stroke: #383838; stroke-width: 1.0;"/><line style="stroke: #383838; stroke-width: 1.0;" x1="46.5" x2="336.5" y1="1210.2891" y2="1210.2891"/><text fill="#000000" font-family="sans-serif" font-size="13" lengthAdjust="spacingAndGlyphs" textLength="136" x="53.5" y="1190.356">Enregistrer le rapport</text><text fill="#000000" font-family="sans-serif" font-size="13" lengthAdjust="spacingAndGlyphs" textLength="144" x="53.5" y="1205.4888">d'activité commerciale</text><polygon fill="#383838" points="706.5,1250.5547,716.5,1254.5547,706.5,1258.5547,710.5,1254.5547" style="stroke: #383838; stroke-width: 1.0;"/><line style="stroke: #383838; stroke-width: 1.0;" x1="342.5" x2="712.5" y1="1254.5547" y2="1254.5547"/><text fill="#000000" font-family="sans-serif" font-size="13" lengthAdjust="spacingAndGlyphs" textLength="238" x="349.5" y="1234.6216">EnregistrerRapportActivite(idContact)</text><text fill="#000000" font-family="sans-serif" font-size="13" lengthAdjust="spacingAndGlyphs" textLength="34" x="349.5" y="1249.7544">: void</text><polygon fill="#383838" points="1172.5,1279.8203,1182.5,1283.8203,1172.5,1287.8203,1176.5,1283.8203" style="stroke: #383838; stroke-width: 1.0;"/><line style="stroke: #383838; stroke-width: 1.0;" x1="718.5" x2="1178.5" y1="1283.8203" y2="1283.8203"/><text fill="#000000" font-family="sans-serif" font-size="13" lengthAdjust="spacingAndGlyphs" textLength="331" x="725.5" y="1278.8872">EnregistrerRapportActivite(idContact, rapport) : void</text></g></svg>