<?xml version="1.0" encoding="UTF-8" standalone="yes"?><svg xmlns="http://www.w3.org/2000/svg" xmlns:xlink="http://www.w3.org/1999/xlink" height="847px" style="width:1027px;height:847px;" version="1.1" viewBox="0 0 1027 847" width="1027px"><defs/><g><text fill="#000000" font-family="sans-serif" font-size="20" lengthAdjust="spacingAndGlyphs" textLength="418" x="310.75" y="28.5645">Diagramme de séquence détaillé du CU 9</text><line style="stroke: none; stroke-width: 1.0;" x1="310.75" x2="728.75" y1="38.2813" y2="38.2813"/><rect fill="#FFFFFF" height="149.9297" style="stroke: #000000; stroke-width: 1.0;" width="1013.5" x="13" y="233.9766"/><rect fill="#FFFFFF" height="164.7969" style="stroke: #000000; stroke-width: 1.0;" width="377" x="13" y="456.1719"/><rect fill="#FFFFFF" height="60.2656" style="stroke: none; stroke-width: 1.0;" width="377" x="13" y="560.7031"/><line style="stroke: #383838; stroke-width: 1.0; stroke-dasharray: 5.0,5.0;" x1="46" x2="46" y1="129.5781" y2="770.7656"/><line style="stroke: #383838; stroke-width: 1.0; stroke-dasharray: 5.0,5.0;" x1="360" x2="360" y1="129.5781" y2="770.7656"/><line style="stroke: #383838; stroke-width: 1.0; stroke-dasharray: 5.0,5.0;" x1="684.5" x2="684.5" y1="129.5781" y2="770.7656"/><line style="stroke: #383838; stroke-width: 1.0; stroke-dasharray: 5.0,5.0;" x1="982.5" x2="982.5" y1="129.5781" y2="770.7656"/><text fill="#000000" font-family="sans-serif" font-size="14" lengthAdjust="spacingAndGlyphs" textLength="41" x="23" y="126.2764">Agent</text><ellipse cx="46.5" cy="60.2813" fill="#F8F8F8" rx="8" ry="8" style="stroke: #383838; stroke-width: 2.0;"/><path d="M46.5,68.2813 L46.5,95.2813 M33.5,76.2813 L59.5,76.2813 M46.5,95.2813 L33.5,110.2813 M46.5,95.2813 L59.5,110.2813 " fill="#F8F8F8" style="stroke: #383838; stroke-width: 2.0;"/><text fill="#000000" font-family="sans-serif" font-size="14" lengthAdjust="spacingAndGlyphs" textLength="41" x="23" y="782.7607">Agent</text><ellipse cx="46.5" cy="796.0625" fill="#F8F8F8" rx="8" ry="8" style="stroke: #383838; stroke-width: 2.0;"/><path d="M46.5,804.0625 L46.5,831.0625 M33.5,812.0625 L59.5,812.0625 M46.5,831.0625 L33.5,846.0625 M46.5,831.0625 L59.5,846.0625 " fill="#F8F8F8" style="stroke: #383838; stroke-width: 2.0;"/><rect fill="#F8F8F8" height="30.2969" style="stroke: #383838; stroke-width: 1.0;" width="39" x="341" y="98.2813"/><text fill="#000000" font-family="sans-serif" font-size="14" lengthAdjust="spacingAndGlyphs" textLength="25" x="348" y="118.2764">IHM</text><rect fill="#F8F8F8" height="30.2969" style="stroke: #383838; stroke-width: 1.0;" width="39" x="341" y="769.7656"/><text fill="#000000" font-family="sans-serif" font-size="14" lengthAdjust="spacingAndGlyphs" textLength="25" x="348" y="789.7607">IHM</text><rect fill="#F8F8F8" height="30.2969" style="stroke: #383838; stroke-width: 1.0;" width="44" x="662.5" y="98.2813"/><text fill="#000000" font-family="sans-serif" font-size="14" lengthAdjust="spacingAndGlyphs" textLength="30" x="669.5" y="118.2764">SMA</text><rect fill="#F8F8F8" height="30.2969" style="stroke: #383838; stroke-width: 1.0;" width="44" x="662.5" y="769.7656"/><text fill="#000000" font-family="sans-serif" font-size="14" lengthAdjust="spacingAndGlyphs" textLength="30" x="669.5" y="789.7607">SMA</text><rect fill="#F8F8F8" height="30.2969" style="stroke: #383838; stroke-width: 1.0;" width="68" x="948.5" y="98.2813"/><text fill="#000000" font-family="sans-serif" font-size="14" lengthAdjust="spacingAndGlyphs" textLength="54" x="955.5" y="118.2764">Contact</text><rect fill="#F8F8F8" height="30.2969" style="stroke: #383838; stroke-width: 1.0;" width="68" x="948.5" y="769.7656"/><text fill="#000000" font-family="sans-serif" font-size="14" lengthAdjust="spacingAndGlyphs" textLength="54" x="955.5" y="789.7607">Contact</text><polygon fill="#383838" points="348.5,156.5781,358.5,160.5781,348.5,164.5781,352.5,160.5781" style="stroke: #383838; stroke-width: 1.0;"/><line style="stroke: #383838; stroke-width: 1.0;" x1="46.5" x2="354.5" y1="160.5781" y2="160.5781"/><text fill="#000000" font-family="sans-serif" font-size="13" lengthAdjust="spacingAndGlyphs" textLength="213" x="53.5" y="155.645">Saisir les informations du contact</text><polygon fill="#383838" points="348.5,185.7109,358.5,189.7109,348.5,193.7109,352.5,189.7109" style="stroke: #383838; stroke-width: 1.0;"/><line style="stroke: #383838; stroke-width: 1.0;" x1="46.5" x2="354.5" y1="189.7109" y2="189.7109"/><text fill="#000000" font-family="sans-serif" font-size="13" lengthAdjust="spacingAndGlyphs" textLength="167" x="53.5" y="184.7778">Identifier le contact (CU 8)</text><polygon fill="#383838" points="348.5,214.8438,358.5,218.8438,348.5,222.8438,352.5,218.8438" style="stroke: #383838; stroke-width: 1.0;"/><line style="stroke: #383838; stroke-width: 1.0;" x1="46.5" x2="354.5" y1="218.8438" y2="218.8438"/><text fill="#000000" font-family="sans-serif" font-size="13" lengthAdjust="spacingAndGlyphs" textLength="243" x="53.5" y="213.9106">Consulter le détail d'un contact (CU 4)</text><rect fill="none" height="149.9297" style="stroke: #000000; stroke-width: 1.0;" width="1013.5" x="13" y="233.9766"/><polygon fill="#EEEEEE" points="13,233.9766,77,233.9766,77,240.9766,67,250.9766,13,250.9766,13,233.9766" style="stroke: #000000; stroke-width: 1.0;"/><text fill="#000000" font-family="sans-serif" font-size="13" font-weight="bold" lengthAdjust="spacingAndGlyphs" textLength="19" x="28" y="247.0435">alt</text><text fill="#000000" font-family="sans-serif" font-size="11" font-weight="bold" lengthAdjust="spacingAndGlyphs" textLength="119" x="92" y="246.187">[Préparation faite]</text><polygon fill="#383838" points="348.5,283.1094,358.5,287.1094,348.5,291.1094,352.5,287.1094" style="stroke: #383838; stroke-width: 1.0;"/><line style="stroke: #383838; stroke-width: 1.0;" x1="46.5" x2="354.5" y1="287.1094" y2="287.1094"/><text fill="#000000" font-family="sans-serif" font-size="13" lengthAdjust="spacingAndGlyphs" textLength="246" x="53.5" y="267.1763">Afficher les propositions commerciales</text><text fill="#000000" font-family="sans-serif" font-size="13" lengthAdjust="spacingAndGlyphs" textLength="177" x="53.5" y="282.3091">et annotations enregistrées</text><polygon fill="#383838" points="672.5,327.375,682.5,331.375,672.5,335.375,676.5,331.375" style="stroke: #383838; stroke-width: 1.0;"/><line style="stroke: #383838; stroke-width: 1.0;" x1="360.5" x2="678.5" y1="331.375" y2="331.375"/><text fill="#000000" font-family="sans-serif" font-size="13" lengthAdjust="spacingAndGlyphs" textLength="274" x="367.5" y="311.4419">ObtenirPropositionCommerciale(idContact)</text><text fill="#000000" font-family="sans-serif" font-size="13" lengthAdjust="spacingAndGlyphs" textLength="300" x="367.5" y="326.5747">: Liste&lt;PropositionCommerciale&gt;, annotations</text><polygon fill="#383838" points="970.5,371.6406,980.5,375.6406,970.5,379.6406,974.5,375.6406" style="stroke: #383838; stroke-width: 1.0;"/><line style="stroke: #383838; stroke-width: 1.0;" x1="684.5" x2="976.5" y1="375.6406" y2="375.6406"/><text fill="#000000" font-family="sans-serif" font-size="13" lengthAdjust="spacingAndGlyphs" textLength="274" x="691.5" y="355.7075">ObtenirPropositionCommerciale(idContact)</text><text fill="#000000" font-family="sans-serif" font-size="13" lengthAdjust="spacingAndGlyphs" textLength="248" x="691.5" y="370.8403">: PropositionCommerciale, annotations</text><polygon fill="#383838" points="348.5,407.9063,358.5,411.9063,348.5,415.9063,352.5,411.9063" style="stroke: #383838; stroke-width: 1.0;"/><line style="stroke: #383838; stroke-width: 1.0;" x1="46.5" x2="354.5" y1="411.9063" y2="411.9063"/><text fill="#000000" font-family="sans-serif" font-size="13" lengthAdjust="spacingAndGlyphs" textLength="138" x="53.5" y="406.9731">Sélectionner un client</text><polygon fill="#383838" points="348.5,437.0391,358.5,441.0391,348.5,445.0391,352.5,441.0391" style="stroke: #383838; stroke-width: 1.0;"/><line style="stroke: #383838; stroke-width: 1.0;" x1="46.5" x2="354.5" y1="441.0391" y2="441.0391"/><text fill="#000000" font-family="sans-serif" font-size="13" lengthAdjust="spacingAndGlyphs" textLength="229" x="53.5" y="436.106">Consulter le dossier du client (CU 8)</text><rect fill="none" height="164.7969" style="stroke: #000000; stroke-width: 1.0;" width="377" x="13" y="456.1719"/><polygon fill="#EEEEEE" points="13,456.1719,83,456.1719,83,463.1719,73,473.1719,13,473.1719,13,456.1719" style="stroke: #000000; stroke-width: 1.0;"/><text fill="#000000" font-family="sans-serif" font-size="13" font-weight="bold" lengthAdjust="spacingAndGlyphs" textLength="25" x="28" y="469.2388">par</text><polygon fill="#383838" points="348.5,490.3047,358.5,494.3047,348.5,498.3047,352.5,494.3047" style="stroke: #383838; stroke-width: 1.0;"/><line style="stroke: #383838; stroke-width: 1.0;" x1="46.5" x2="354.5" y1="494.3047" y2="494.3047"/><text fill="#000000" font-family="sans-serif" font-size="13" lengthAdjust="spacingAndGlyphs" textLength="218" x="53.5" y="489.3716">Consulter la liste des offres (CU 8)</text><polygon fill="#383838" points="348.5,519.4375,358.5,523.4375,348.5,527.4375,352.5,523.4375" style="stroke: #383838; stroke-width: 1.0;"/><line style="stroke: #383838; stroke-width: 1.0;" x1="46.5" x2="354.5" y1="523.4375" y2="523.4375"/><text fill="#000000" font-family="sans-serif" font-size="13" lengthAdjust="spacingAndGlyphs" textLength="141" x="53.5" y="518.5044">Sélectionner une offre</text><polygon fill="#383838" points="348.5,548.5703,358.5,552.5703,348.5,556.5703,352.5,552.5703" style="stroke: #383838; stroke-width: 1.0;"/><line style="stroke: #383838; stroke-width: 1.0;" x1="46.5" x2="354.5" y1="552.5703" y2="552.5703"/><text fill="#000000" font-family="sans-serif" font-size="13" lengthAdjust="spacingAndGlyphs" textLength="290" x="53.5" y="547.6372">Voir le détails d'une offre du catalogue (CU 8)</text><line style="stroke: #000000; stroke-width: 1.0; stroke-dasharray: 2.0,2.0;" x1="13" x2="390" y1="561.7031" y2="561.7031"/><polygon fill="#383838" points="348.5,579.7031,358.5,583.7031,348.5,587.7031,352.5,583.7031" style="stroke: #383838; stroke-width: 1.0;"/><line style="stroke: #383838; stroke-width: 1.0;" x1="46.5" x2="354.5" y1="583.7031" y2="583.7031"/><text fill="#000000" font-family="sans-serif" font-size="13" lengthAdjust="spacingAndGlyphs" textLength="195" x="53.5" y="578.77">Rédiger une proposition d'offre</text><polygon fill="#383838" points="348.5,608.8359,358.5,612.8359,348.5,616.8359,352.5,612.8359" style="stroke: #383838; stroke-width: 1.0;"/><line style="stroke: #383838; stroke-width: 1.0;" x1="46.5" x2="354.5" y1="612.8359" y2="612.8359"/><text fill="#000000" font-family="sans-serif" font-size="13" lengthAdjust="spacingAndGlyphs" textLength="270" x="53.5" y="607.9028">Créer une proposition commerciale (CU 8)</text><polygon fill="#383838" points="348.5,659.9688,358.5,663.9688,348.5,667.9688,352.5,663.9688" style="stroke: #383838; stroke-width: 1.0;"/><line style="stroke: #383838; stroke-width: 1.0;" x1="46.5" x2="354.5" y1="663.9688" y2="663.9688"/><text fill="#000000" font-family="sans-serif" font-size="13" lengthAdjust="spacingAndGlyphs" textLength="136" x="53.5" y="644.0356">Enregistrer le rapport</text><text fill="#000000" font-family="sans-serif" font-size="13" lengthAdjust="spacingAndGlyphs" textLength="144" x="53.5" y="659.1685">d'activité commerciale</text><polygon fill="#383838" points="672.5,704.2344,682.5,708.2344,672.5,712.2344,676.5,708.2344" style="stroke: #383838; stroke-width: 1.0;"/><line style="stroke: #383838; stroke-width: 1.0;" x1="360.5" x2="678.5" y1="708.2344" y2="708.2344"/><text fill="#000000" font-family="sans-serif" font-size="13" lengthAdjust="spacingAndGlyphs" textLength="238" x="367.5" y="688.3013">EnregistrerRapportActivite(idContact)</text><text fill="#000000" font-family="sans-serif" font-size="13" lengthAdjust="spacingAndGlyphs" textLength="34" x="367.5" y="703.4341">: void</text><polygon fill="#383838" points="970.5,748.5,980.5,752.5,970.5,756.5,974.5,752.5" style="stroke: #383838; stroke-width: 1.0;"/><line style="stroke: #383838; stroke-width: 1.0;" x1="684.5" x2="976.5" y1="752.5" y2="752.5"/><text fill="#000000" font-family="sans-serif" font-size="13" lengthAdjust="spacingAndGlyphs" textLength="238" x="691.5" y="732.5669">EnregistrerRapportActivite(idContact)</text><text fill="#000000" font-family="sans-serif" font-size="13" lengthAdjust="spacingAndGlyphs" textLength="34" x="691.5" y="747.6997">: void</text></g></svg>