<?xml version="1.0" encoding="UTF-8" standalone="yes"?><svg xmlns="http://www.w3.org/2000/svg" xmlns:xlink="http://www.w3.org/1999/xlink" height="357px" style="width:434px;height:357px;" version="1.1" viewBox="0 0 434 357" width="434px"><defs/><g><text fill="#000000" font-family="sans-serif" font-size="20" lengthAdjust="spacingAndGlyphs" textLength="418" x="15" y="28.5645">Diagramme de séquence détaillé du CU 3</text><line style="stroke: none; stroke-width: 1.0;" x1="15" x2="433" y1="38.2813" y2="38.2813"/><line style="stroke: #383838; stroke-width: 1.0; stroke-dasharray: 5.0,5.0;" x1="62" x2="62" y1="129.5781" y2="281.2422"/><line style="stroke: #383838; stroke-width: 1.0; stroke-dasharray: 5.0,5.0;" x1="389" x2="389" y1="129.5781" y2="281.2422"/><text fill="#000000" font-family="sans-serif" font-size="14" lengthAdjust="spacingAndGlyphs" textLength="41" x="39" y="126.2764">Agent</text><ellipse cx="62.5" cy="60.2813" fill="#F8F8F8" rx="8" ry="8" style="stroke: #383838; stroke-width: 2.0;"/><path d="M62.5,68.2813 L62.5,95.2813 M49.5,76.2813 L75.5,76.2813 M62.5,95.2813 L49.5,110.2813 M62.5,95.2813 L75.5,110.2813 " fill="#F8F8F8" style="stroke: #383838; stroke-width: 2.0;"/><text fill="#000000" font-family="sans-serif" font-size="14" lengthAdjust="spacingAndGlyphs" textLength="41" x="39" y="293.2373">Agent</text><ellipse cx="62.5" cy="306.5391" fill="#F8F8F8" rx="8" ry="8" style="stroke: #383838; stroke-width: 2.0;"/><path d="M62.5,314.5391 L62.5,341.5391 M49.5,322.5391 L75.5,322.5391 M62.5,341.5391 L49.5,356.5391 M62.5,341.5391 L75.5,356.5391 " fill="#F8F8F8" style="stroke: #383838; stroke-width: 2.0;"/><rect fill="#F8F8F8" height="30.2969" style="stroke: #383838; stroke-width: 1.0;" width="39" x="370" y="98.2813"/><text fill="#000000" font-family="sans-serif" font-size="14" lengthAdjust="spacingAndGlyphs" textLength="25" x="377" y="118.2764">IHM</text><rect fill="#F8F8F8" height="30.2969" style="stroke: #383838; stroke-width: 1.0;" width="39" x="370" y="280.2422"/><text fill="#000000" font-family="sans-serif" font-size="14" lengthAdjust="spacingAndGlyphs" textLength="25" x="377" y="300.2373">IHM</text><polygon fill="#383838" points="377.5,156.5781,387.5,160.5781,377.5,164.5781,381.5,160.5781" style="stroke: #383838; stroke-width: 1.0;"/><line style="stroke: #383838; stroke-width: 1.0;" x1="62.5" x2="383.5" y1="160.5781" y2="160.5781"/><text fill="#000000" font-family="sans-serif" font-size="13" lengthAdjust="spacingAndGlyphs" textLength="303" x="69.5" y="155.645">Consulter la liste des agents de l'agence (CU 2)</text><polygon fill="#383838" points="377.5,185.7109,387.5,189.7109,377.5,193.7109,381.5,189.7109" style="stroke: #383838; stroke-width: 1.0;"/><line style="stroke: #383838; stroke-width: 1.0;" x1="62.5" x2="383.5" y1="189.7109" y2="189.7109"/><text fill="#000000" font-family="sans-serif" font-size="13" lengthAdjust="spacingAndGlyphs" textLength="141" x="69.5" y="184.7778">Sélectionner un agent</text><polygon fill="#383838" points="377.5,214.8438,387.5,218.8438,377.5,222.8438,381.5,218.8438" style="stroke: #383838; stroke-width: 1.0;"/><line style="stroke: #383838; stroke-width: 1.0;" x1="62.5" x2="383.5" y1="218.8438" y2="218.8438"/><text fill="#000000" font-family="sans-serif" font-size="13" lengthAdjust="spacingAndGlyphs" textLength="152" x="69.5" y="213.9106">Sélectionner un contact</text><polygon fill="#383838" points="377.5,258.9766,387.5,262.9766,377.5,266.9766,381.5,262.9766" style="stroke: #383838; stroke-width: 1.0;"/><line style="stroke: #383838; stroke-width: 1.0;" x1="62.5" x2="383.5" y1="262.9766" y2="262.9766"/><text fill="#000000" font-family="sans-serif" font-size="13" lengthAdjust="spacingAndGlyphs" textLength="198" x="69.5" y="243.0435">Consulter le détail d'un contact</text><text fill="#000000" font-family="sans-serif" font-size="13" lengthAdjust="spacingAndGlyphs" textLength="41" x="69.5" y="258.1763">(CU 4)</text></g></svg>