<?xml version="1.0" encoding="UTF-8" standalone="yes"?><svg xmlns="http://www.w3.org/2000/svg" xmlns:xlink="http://www.w3.org/1999/xlink" height="683px" style="width:1724px;height:683px;" version="1.1" viewBox="0 0 1724 683" width="1724px"><defs/><g><text fill="#000000" font-family="sans-serif" font-size="20" lengthAdjust="spacingAndGlyphs" textLength="129" x="803.75" y="28.5645">DSD du CU 5</text><line style="stroke: none; stroke-width: 1.0;" x1="803.75" x2="932.75" y1="38.2813" y2="38.2813"/><rect fill="#FFFFFF" height="369.7969" style="stroke: #000000; stroke-width: 1.0;" width="1710.5" x="13" y="219.9766"/><rect fill="#FFFFFF" height="176.7344" style="stroke: none; stroke-width: 1.0;" width="1710.5" x="13" y="413.0391"/><line style="stroke: #383838; stroke-width: 1.0; stroke-dasharray: 5.0,5.0;" x1="46" x2="46" y1="129.5781" y2="606.7734"/><line style="stroke: #383838; stroke-width: 1.0; stroke-dasharray: 5.0,5.0;" x1="324" x2="324" y1="129.5781" y2="606.7734"/><line style="stroke: #383838; stroke-width: 1.0; stroke-dasharray: 5.0,5.0;" x1="874.5" x2="874.5" y1="129.5781" y2="606.7734"/><line style="stroke: #383838; stroke-width: 1.0; stroke-dasharray: 5.0,5.0;" x1="1424" x2="1424" y1="129.5781" y2="606.7734"/><line style="stroke: #383838; stroke-width: 1.0; stroke-dasharray: 5.0,5.0;" x1="1674.5" x2="1674.5" y1="129.5781" y2="606.7734"/><text fill="#000000" font-family="sans-serif" font-size="14" lengthAdjust="spacingAndGlyphs" textLength="41" x="23" y="126.2764">Agent</text><ellipse cx="46.5" cy="60.2813" fill="#F8F8F8" rx="8" ry="8" style="stroke: #383838; stroke-width: 2.0;"/><path d="M46.5,68.2813 L46.5,95.2813 M33.5,76.2813 L59.5,76.2813 M46.5,95.2813 L33.5,110.2813 M46.5,95.2813 L59.5,110.2813 " fill="#F8F8F8" style="stroke: #383838; stroke-width: 2.0;"/><text fill="#000000" font-family="sans-serif" font-size="14" lengthAdjust="spacingAndGlyphs" textLength="41" x="23" y="618.7686">Agent</text><ellipse cx="46.5" cy="632.0703" fill="#F8F8F8" rx="8" ry="8" style="stroke: #383838; stroke-width: 2.0;"/><path d="M46.5,640.0703 L46.5,667.0703 M33.5,648.0703 L59.5,648.0703 M46.5,667.0703 L33.5,682.0703 M46.5,667.0703 L59.5,682.0703 " fill="#F8F8F8" style="stroke: #383838; stroke-width: 2.0;"/><rect fill="#F8F8F8" height="30.2969" style="stroke: #383838; stroke-width: 1.0;" width="39" x="305" y="98.2813"/><text fill="#000000" font-family="sans-serif" font-size="14" lengthAdjust="spacingAndGlyphs" textLength="25" x="312" y="118.2764">IHM</text><rect fill="#F8F8F8" height="30.2969" style="stroke: #383838; stroke-width: 1.0;" width="39" x="305" y="605.7734"/><text fill="#000000" font-family="sans-serif" font-size="14" lengthAdjust="spacingAndGlyphs" textLength="25" x="312" y="625.7686">IHM</text><rect fill="#F8F8F8" height="30.2969" style="stroke: #383838; stroke-width: 1.0;" width="44" x="852.5" y="98.2813"/><text fill="#000000" font-family="sans-serif" font-size="14" lengthAdjust="spacingAndGlyphs" textLength="30" x="859.5" y="118.2764">SMA</text><rect fill="#F8F8F8" height="30.2969" style="stroke: #383838; stroke-width: 1.0;" width="44" x="852.5" y="605.7734"/><text fill="#000000" font-family="sans-serif" font-size="14" lengthAdjust="spacingAndGlyphs" textLength="30" x="859.5" y="625.7686">SMA</text><rect fill="#F8F8F8" height="30.2969" style="stroke: #383838; stroke-width: 1.0;" width="67" x="1391" y="98.2813"/><text fill="#000000" font-family="sans-serif" font-size="14" lengthAdjust="spacingAndGlyphs" textLength="53" x="1398" y="118.2764">Agenda</text><rect fill="#F8F8F8" height="30.2969" style="stroke: #383838; stroke-width: 1.0;" width="67" x="1391" y="605.7734"/><text fill="#000000" font-family="sans-serif" font-size="14" lengthAdjust="spacingAndGlyphs" textLength="53" x="1398" y="625.7686">Agenda</text><rect fill="#F8F8F8" height="30.2969" style="stroke: #383838; stroke-width: 1.0;" width="78" x="1635.5" y="98.2813"/><text fill="#000000" font-family="sans-serif" font-size="14" lengthAdjust="spacingAndGlyphs" textLength="64" x="1642.5" y="118.2764">Structure</text><rect fill="#F8F8F8" height="30.2969" style="stroke: #383838; stroke-width: 1.0;" width="78" x="1635.5" y="605.7734"/><text fill="#000000" font-family="sans-serif" font-size="14" lengthAdjust="spacingAndGlyphs" textLength="64" x="1642.5" y="625.7686">Structure</text><polygon fill="#383838" points="312.5,171.5781,322.5,175.5781,312.5,179.5781,316.5,175.5781" style="stroke: #383838; stroke-width: 1.0;"/><line style="stroke: #383838; stroke-width: 1.0;" x1="46.5" x2="318.5" y1="175.5781" y2="175.5781"/><text fill="#000000" font-family="sans-serif" font-size="13" lengthAdjust="spacingAndGlyphs" textLength="119" x="53.5" y="155.645">Consulter l'agenda</text><text fill="#000000" font-family="sans-serif" font-size="13" lengthAdjust="spacingAndGlyphs" textLength="41" x="53.5" y="170.7778">(CU 7)</text><polygon fill="#383838" points="312.5,200.8438,322.5,204.8438,312.5,208.8438,316.5,204.8438" style="stroke: #383838; stroke-width: 1.0;"/><line style="stroke: #383838; stroke-width: 1.0;" x1="46.5" x2="318.5" y1="204.8438" y2="204.8438"/><text fill="#000000" font-family="sans-serif" font-size="13" lengthAdjust="spacingAndGlyphs" textLength="184" x="53.5" y="199.9106">Passer en mode planification</text><rect fill="none" height="369.7969" style="stroke: #000000; stroke-width: 1.0;" width="1710.5" x="13" y="219.9766"/><polygon fill="#EEEEEE" points="13,219.9766,77,219.9766,77,226.9766,67,236.9766,13,236.9766,13,219.9766" style="stroke: #000000; stroke-width: 1.0;"/><text fill="#000000" font-family="sans-serif" font-size="13" font-weight="bold" lengthAdjust="spacingAndGlyphs" textLength="19" x="28" y="233.0435">alt</text><text fill="#000000" font-family="sans-serif" font-size="11" font-weight="bold" lengthAdjust="spacingAndGlyphs" textLength="124" x="92" y="232.187">[ajouter une plage]</text><polygon fill="#383838" points="312.5,254.1094,322.5,258.1094,312.5,262.1094,316.5,258.1094" style="stroke: #383838; stroke-width: 1.0;"/><line style="stroke: #383838; stroke-width: 1.0;" x1="46.5" x2="318.5" y1="258.1094" y2="258.1094"/><text fill="#000000" font-family="sans-serif" font-size="13" lengthAdjust="spacingAndGlyphs" textLength="227" x="53.5" y="253.1763">Sélectionner une plage horaire libre</text><polygon fill="#383838" points="312.5,283.2422,322.5,287.2422,312.5,291.2422,316.5,287.2422" style="stroke: #383838; stroke-width: 1.0;"/><line style="stroke: #383838; stroke-width: 1.0;" x1="46.5" x2="318.5" y1="287.2422" y2="287.2422"/><text fill="#000000" font-family="sans-serif" font-size="13" lengthAdjust="spacingAndGlyphs" textLength="254" x="53.5" y="282.3091">Sélectionner le type d'activité à planifier</text><polygon fill="#383838" points="312.5,312.375,322.5,316.375,312.5,320.375,316.5,316.375" style="stroke: #383838; stroke-width: 1.0;"/><line style="stroke: #383838; stroke-width: 1.0;" x1="46.5" x2="318.5" y1="316.375" y2="316.375"/><text fill="#000000" font-family="sans-serif" font-size="13" lengthAdjust="spacingAndGlyphs" textLength="154" x="53.5" y="311.4419">Créer une plage agenda</text><polygon fill="#383838" points="862.5,356.5078,872.5,360.5078,862.5,364.5078,866.5,360.5078" style="stroke: #383838; stroke-width: 1.0;"/><line style="stroke: #383838; stroke-width: 1.0;" x1="324.5" x2="868.5" y1="360.5078" y2="360.5078"/><text fill="#000000" font-family="sans-serif" font-size="13" lengthAdjust="spacingAndGlyphs" textLength="526" x="331.5" y="340.5747">CreerPlageAgenda(idAgent, idActivite, datePlageHoraireDeb, datePlageHoraireFin)</text><text fill="#000000" font-family="sans-serif" font-size="13" lengthAdjust="spacingAndGlyphs" textLength="92" x="331.5" y="355.7075">: plageAgenda</text><polygon fill="#383838" points="1412.5,400.7734,1422.5,404.7734,1412.5,408.7734,1416.5,404.7734" style="stroke: #383838; stroke-width: 1.0;"/><line style="stroke: #383838; stroke-width: 1.0;" x1="874.5" x2="1418.5" y1="404.7734" y2="404.7734"/><text fill="#000000" font-family="sans-serif" font-size="13" lengthAdjust="spacingAndGlyphs" textLength="526" x="881.5" y="384.8403">CreerPlageAgenda(idAgent, idActivite, datePlageHoraireDeb, datePlageHoraireFin)</text><text fill="#000000" font-family="sans-serif" font-size="13" lengthAdjust="spacingAndGlyphs" textLength="92" x="881.5" y="399.9731">: plageAgenda</text><line style="stroke: #000000; stroke-width: 1.0; stroke-dasharray: 2.0,2.0;" x1="13" x2="1723.5" y1="414.0391" y2="414.0391"/><text fill="#000000" font-family="sans-serif" font-size="11" font-weight="bold" lengthAdjust="spacingAndGlyphs" textLength="165" x="18" y="424.2495">[terminer la planification]</text><polygon fill="#383838" points="312.5,444.8438,322.5,448.8438,312.5,452.8438,316.5,448.8438" style="stroke: #383838; stroke-width: 1.0;"/><line style="stroke: #383838; stroke-width: 1.0;" x1="46.5" x2="318.5" y1="448.8438" y2="448.8438"/><text fill="#000000" font-family="sans-serif" font-size="13" lengthAdjust="spacingAndGlyphs" textLength="239" x="53.5" y="443.9106">Valider et sortir du mode planification</text><polygon fill="#383838" points="862.5,488.9766,872.5,492.9766,862.5,496.9766,866.5,492.9766" style="stroke: #383838; stroke-width: 1.0;"/><line style="stroke: #383838; stroke-width: 1.0;" x1="324.5" x2="868.5" y1="492.9766" y2="492.9766"/><text fill="#000000" font-family="sans-serif" font-size="13" lengthAdjust="spacingAndGlyphs" textLength="374" x="331.5" y="473.0435">MajNbContactsPotentiels(idAgent, Liste&lt;idPlageAgenda&gt;)</text><text fill="#000000" font-family="sans-serif" font-size="13" lengthAdjust="spacingAndGlyphs" textLength="34" x="331.5" y="488.1763">: void</text><polygon fill="#383838" points="1662.5,533.2422,1672.5,537.2422,1662.5,541.2422,1666.5,537.2422" style="stroke: #383838; stroke-width: 1.0;"/><line style="stroke: #383838; stroke-width: 1.0;" x1="874.5" x2="1668.5" y1="537.2422" y2="537.2422"/><text fill="#000000" font-family="sans-serif" font-size="13" lengthAdjust="spacingAndGlyphs" textLength="374" x="881.5" y="517.3091">MajNbContactsPotentiels(idAgent, Liste&lt;idPlageAgenda&gt;)</text><text fill="#000000" font-family="sans-serif" font-size="13" lengthAdjust="spacingAndGlyphs" textLength="34" x="881.5" y="532.4419">: void</text><polygon fill="#383838" points="1435.5,577.5078,1425.5,581.5078,1435.5,585.5078,1431.5,581.5078" style="stroke: #383838; stroke-width: 1.0;"/><line style="stroke: #383838; stroke-width: 1.0;" x1="1429.5" x2="1673.5" y1="581.5078" y2="581.5078"/><text fill="#000000" font-family="sans-serif" font-size="13" lengthAdjust="spacingAndGlyphs" textLength="226" x="1441.5" y="561.5747">DetailPlageAgenda(idPlageAgenda)</text><text fill="#000000" font-family="sans-serif" font-size="13" lengthAdjust="spacingAndGlyphs" textLength="92" x="1441.5" y="576.7075">: plageAgenda</text></g></svg>