<?xml version="1.0" encoding="UTF-8" standalone="yes"?><svg xmlns="http://www.w3.org/2000/svg" xmlns:xlink="http://www.w3.org/1999/xlink" height="933px" style="width:1379px;height:933px;" version="1.1" viewBox="0 0 1379 933" width="1379px"><defs/><g><text fill="#000000" font-family="sans-serif" font-size="20" lengthAdjust="spacingAndGlyphs" textLength="418" x="486.75" y="28.5645">Diagramme de séquence détaillé du CU 2</text><line style="stroke: none; stroke-width: 1.0;" x1="486.75" x2="904.75" y1="38.2813" y2="38.2813"/><rect fill="#FFFFFF" height="149.9297" style="stroke: #000000; stroke-width: 1.0;" width="410.5" x="968" y="279.375"/><line style="stroke: #383838; stroke-width: 1.0; stroke-dasharray: 5.0,5.0;" x1="61" x2="61" y1="129.5781" y2="857.5625"/><line style="stroke: #383838; stroke-width: 1.0; stroke-dasharray: 5.0,5.0;" x1="342.5" x2="342.5" y1="129.5781" y2="857.5625"/><line style="stroke: #383838; stroke-width: 1.0; stroke-dasharray: 5.0,5.0;" x1="663" x2="663" y1="129.5781" y2="857.5625"/><line style="stroke: #383838; stroke-width: 1.0; stroke-dasharray: 5.0,5.0;" x1="1012" x2="1012" y1="129.5781" y2="857.5625"/><line style="stroke: #383838; stroke-width: 1.0; stroke-dasharray: 5.0,5.0;" x1="1180" x2="1180" y1="129.5781" y2="857.5625"/><line style="stroke: #383838; stroke-width: 1.0; stroke-dasharray: 5.0,5.0;" x1="1271.5" x2="1271.5" y1="129.5781" y2="857.5625"/><line style="stroke: #383838; stroke-width: 1.0; stroke-dasharray: 5.0,5.0;" x1="1341.5" x2="1341.5" y1="129.5781" y2="857.5625"/><text fill="#000000" font-family="sans-serif" font-size="14" lengthAdjust="spacingAndGlyphs" textLength="100" x="8" y="126.2764">Chef d'agence</text><ellipse cx="61" cy="60.2813" fill="#F8F8F8" rx="8" ry="8" style="stroke: #383838; stroke-width: 2.0;"/><path d="M61,68.2813 L61,95.2813 M48,76.2813 L74,76.2813 M61,95.2813 L48,110.2813 M61,95.2813 L74,110.2813 " fill="#F8F8F8" style="stroke: #383838; stroke-width: 2.0;"/><text fill="#000000" font-family="sans-serif" font-size="14" lengthAdjust="spacingAndGlyphs" textLength="100" x="8" y="869.5576">Chef d'agence</text><ellipse cx="61" cy="882.8594" fill="#F8F8F8" rx="8" ry="8" style="stroke: #383838; stroke-width: 2.0;"/><path d="M61,890.8594 L61,917.8594 M48,898.8594 L74,898.8594 M61,917.8594 L48,932.8594 M61,917.8594 L74,932.8594 " fill="#F8F8F8" style="stroke: #383838; stroke-width: 2.0;"/><rect fill="#F8F8F8" height="30.2969" style="stroke: #383838; stroke-width: 1.0;" width="39" x="323.5" y="98.2813"/><text fill="#000000" font-family="sans-serif" font-size="14" lengthAdjust="spacingAndGlyphs" textLength="25" x="330.5" y="118.2764">IHM</text><rect fill="#F8F8F8" height="30.2969" style="stroke: #383838; stroke-width: 1.0;" width="39" x="323.5" y="856.5625"/><text fill="#000000" font-family="sans-serif" font-size="14" lengthAdjust="spacingAndGlyphs" textLength="25" x="330.5" y="876.5576">IHM</text><rect fill="#F8F8F8" height="30.2969" style="stroke: #383838; stroke-width: 1.0;" width="44" x="641" y="98.2813"/><text fill="#000000" font-family="sans-serif" font-size="14" lengthAdjust="spacingAndGlyphs" textLength="30" x="648" y="118.2764">SMA</text><rect fill="#F8F8F8" height="30.2969" style="stroke: #383838; stroke-width: 1.0;" width="44" x="641" y="856.5625"/><text fill="#000000" font-family="sans-serif" font-size="14" lengthAdjust="spacingAndGlyphs" textLength="30" x="648" y="876.5576">SMA</text><rect fill="#F8F8F8" height="30.2969" style="stroke: #383838; stroke-width: 1.0;" width="68" x="978" y="98.2813"/><text fill="#000000" font-family="sans-serif" font-size="14" lengthAdjust="spacingAndGlyphs" textLength="54" x="985" y="118.2764">Contact</text><rect fill="#F8F8F8" height="30.2969" style="stroke: #383838; stroke-width: 1.0;" width="68" x="978" y="856.5625"/><text fill="#000000" font-family="sans-serif" font-size="14" lengthAdjust="spacingAndGlyphs" textLength="54" x="985" y="876.5576">Contact</text><rect fill="#F8F8F8" height="30.2969" style="stroke: #383838; stroke-width: 1.0;" width="78" x="1141" y="98.2813"/><text fill="#000000" font-family="sans-serif" font-size="14" lengthAdjust="spacingAndGlyphs" textLength="64" x="1148" y="118.2764">Structure</text><rect fill="#F8F8F8" height="30.2969" style="stroke: #383838; stroke-width: 1.0;" width="78" x="1141" y="856.5625"/><text fill="#000000" font-family="sans-serif" font-size="14" lengthAdjust="spacingAndGlyphs" textLength="64" x="1148" y="876.5576">Structure</text><rect fill="#F8F8F8" height="30.2969" style="stroke: #383838; stroke-width: 1.0;" width="67" x="1238.5" y="98.2813"/><text fill="#000000" font-family="sans-serif" font-size="14" lengthAdjust="spacingAndGlyphs" textLength="53" x="1245.5" y="118.2764">Agenda</text><rect fill="#F8F8F8" height="30.2969" style="stroke: #383838; stroke-width: 1.0;" width="67" x="1238.5" y="856.5625"/><text fill="#000000" font-family="sans-serif" font-size="14" lengthAdjust="spacingAndGlyphs" textLength="53" x="1245.5" y="876.5576">Agenda</text><rect fill="#F8F8F8" height="30.2969" style="stroke: #383838; stroke-width: 1.0;" width="53" x="1315.5" y="98.2813"/><text fill="#000000" font-family="sans-serif" font-size="14" lengthAdjust="spacingAndGlyphs" textLength="39" x="1322.5" y="118.2764">Client</text><rect fill="#F8F8F8" height="30.2969" style="stroke: #383838; stroke-width: 1.0;" width="53" x="1315.5" y="856.5625"/><text fill="#000000" font-family="sans-serif" font-size="14" lengthAdjust="spacingAndGlyphs" textLength="39" x="1322.5" y="876.5576">Client</text><polygon fill="#383838" points="331,171.5781,341,175.5781,331,179.5781,335,175.5781" style="stroke: #383838; stroke-width: 1.0;"/><line style="stroke: #383838; stroke-width: 1.0;" x1="61" x2="337" y1="175.5781" y2="175.5781"/><text fill="#000000" font-family="sans-serif" font-size="13" lengthAdjust="spacingAndGlyphs" textLength="192" x="68" y="155.645">Consulter la liste des contacts</text><text fill="#000000" font-family="sans-serif" font-size="13" lengthAdjust="spacingAndGlyphs" textLength="120" x="72" y="170.7778">prévus de l'agence</text><polygon fill="#383838" points="651,215.8438,661,219.8438,651,223.8438,655,219.8438" style="stroke: #383838; stroke-width: 1.0;"/><line style="stroke: #383838; stroke-width: 1.0;" x1="343" x2="657" y1="219.8438" y2="219.8438"/><text fill="#000000" font-family="sans-serif" font-size="13" lengthAdjust="spacingAndGlyphs" textLength="216" x="350" y="199.9106">ObtenirContactsPrevus(idAgence)</text><text fill="#000000" font-family="sans-serif" font-size="13" lengthAdjust="spacingAndGlyphs" textLength="296" x="350" y="215.0435">: Liste &lt;Contact, PlageAgenda, Agent, Client&gt;</text><polygon fill="#383838" points="1000,260.1094,1010,264.1094,1000,268.1094,1004,264.1094" style="stroke: #383838; stroke-width: 1.0;"/><line style="stroke: #383838; stroke-width: 1.0;" x1="663" x2="1006" y1="264.1094" y2="264.1094"/><text fill="#000000" font-family="sans-serif" font-size="13" lengthAdjust="spacingAndGlyphs" textLength="221" x="670" y="244.1763">ObtenirContactsAgence(idAgence)</text><text fill="#000000" font-family="sans-serif" font-size="13" lengthAdjust="spacingAndGlyphs" textLength="325" x="670" y="259.3091">: Liste&lt;Contact, idAgent, idPlageAgenda, idClient&gt;</text><rect fill="none" height="149.9297" style="stroke: #000000; stroke-width: 1.0;" width="410.5" x="968" y="279.375"/><polygon fill="#EEEEEE" points="968,279.375,1045,279.375,1045,286.375,1035,296.375,968,296.375,968,279.375" style="stroke: #000000; stroke-width: 1.0;"/><text fill="#000000" font-family="sans-serif" font-size="13" font-weight="bold" lengthAdjust="spacingAndGlyphs" textLength="32" x="983" y="292.4419">loop</text><text fill="#000000" font-family="sans-serif" font-size="11" font-weight="bold" lengthAdjust="spacingAndGlyphs" textLength="142" x="1060" y="291.5854">[Pour chaque contact]</text><polygon fill="#383838" points="1168,328.5078,1178,332.5078,1168,336.5078,1172,332.5078" style="stroke: #383838; stroke-width: 1.0;"/><line style="stroke: #383838; stroke-width: 1.0;" x1="1012" x2="1174" y1="332.5078" y2="332.5078"/><text fill="#000000" font-family="sans-serif" font-size="13" lengthAdjust="spacingAndGlyphs" textLength="144" x="1019" y="312.5747">ObtenirAgent(idAgent)</text><text fill="#000000" font-family="sans-serif" font-size="13" lengthAdjust="spacingAndGlyphs" textLength="46" x="1019" y="327.7075">: Agent</text><polygon fill="#383838" points="1260,372.7734,1270,376.7734,1260,380.7734,1264,376.7734" style="stroke: #383838; stroke-width: 1.0;"/><line style="stroke: #383838; stroke-width: 1.0;" x1="1012" x2="1266" y1="376.7734" y2="376.7734"/><text fill="#000000" font-family="sans-serif" font-size="13" lengthAdjust="spacingAndGlyphs" textLength="236" x="1019" y="356.8403">ObtenirPlageAgenda(idPlageAgenda)</text><text fill="#000000" font-family="sans-serif" font-size="13" lengthAdjust="spacingAndGlyphs" textLength="92" x="1019" y="371.9731">: PlageAgenda</text><polygon fill="#383838" points="1330,417.0391,1340,421.0391,1330,425.0391,1334,421.0391" style="stroke: #383838; stroke-width: 1.0;"/><line style="stroke: #383838; stroke-width: 1.0;" x1="1012" x2="1336" y1="421.0391" y2="421.0391"/><text fill="#000000" font-family="sans-serif" font-size="13" lengthAdjust="spacingAndGlyphs" textLength="140" x="1019" y="401.106">ObtenirClient(idClient)</text><text fill="#000000" font-family="sans-serif" font-size="13" lengthAdjust="spacingAndGlyphs" textLength="44" x="1019" y="416.2388">: Client</text><polygon fill="#383838" points="331,453.3047,341,457.3047,331,461.3047,335,457.3047" style="stroke: #383838; stroke-width: 1.0;"/><line style="stroke: #383838; stroke-width: 1.0;" x1="61" x2="337" y1="457.3047" y2="457.3047"/><text fill="#000000" font-family="sans-serif" font-size="13" lengthAdjust="spacingAndGlyphs" textLength="152" x="68" y="452.3716">Sélectionner un contact</text><polygon fill="#383838" points="331,497.4375,341,501.4375,331,505.4375,335,501.4375" style="stroke: #383838; stroke-width: 1.0;"/><line style="stroke: #383838; stroke-width: 1.0;" x1="61" x2="337" y1="501.4375" y2="501.4375"/><text fill="#000000" font-family="sans-serif" font-size="13" lengthAdjust="spacingAndGlyphs" textLength="198" x="68" y="481.5044">Consulter le détail d'un contact</text><text fill="#000000" font-family="sans-serif" font-size="13" lengthAdjust="spacingAndGlyphs" textLength="41" x="68" y="496.6372">(CU 4)</text><polygon fill="#383838" points="331,526.7031,341,530.7031,331,534.7031,335,530.7031" style="stroke: #383838; stroke-width: 1.0;"/><line style="stroke: #383838; stroke-width: 1.0;" x1="61" x2="337" y1="530.7031" y2="530.7031"/><text fill="#000000" font-family="sans-serif" font-size="13" lengthAdjust="spacingAndGlyphs" textLength="236" x="68" y="525.77">Consulter le dossier client du contact</text><polygon fill="#383838" points="331,555.8359,341,559.8359,331,563.8359,335,559.8359" style="stroke: #383838; stroke-width: 1.0;"/><line style="stroke: #383838; stroke-width: 1.0;" x1="61" x2="337" y1="559.8359" y2="559.8359"/><text fill="#000000" font-family="sans-serif" font-size="13" lengthAdjust="spacingAndGlyphs" textLength="258" x="68" y="554.9028">Consulter la liste des agents de l'agence</text><polygon fill="#383838" points="651,599.9688,661,603.9688,651,607.9688,655,603.9688" style="stroke: #383838; stroke-width: 1.0;"/><line style="stroke: #383838; stroke-width: 1.0;" x1="343" x2="657" y1="603.9688" y2="603.9688"/><text fill="#000000" font-family="sans-serif" font-size="13" lengthAdjust="spacingAndGlyphs" textLength="161" x="350" y="584.0356">ObtenirAgents(idAgence)</text><text fill="#000000" font-family="sans-serif" font-size="13" lengthAdjust="spacingAndGlyphs" textLength="98" x="350" y="599.1685">: Liste&lt;Agent&gt;</text><polygon fill="#383838" points="1168,644.2344,1178,648.2344,1168,652.2344,1172,648.2344" style="stroke: #383838; stroke-width: 1.0;"/><line style="stroke: #383838; stroke-width: 1.0;" x1="663" x2="1174" y1="648.2344" y2="648.2344"/><text fill="#000000" font-family="sans-serif" font-size="13" lengthAdjust="spacingAndGlyphs" textLength="161" x="670" y="628.3013">ObtenirAgents(idAgence)</text><text fill="#000000" font-family="sans-serif" font-size="13" lengthAdjust="spacingAndGlyphs" textLength="98" x="670" y="643.4341">: Liste&lt;Agent&gt;</text><polygon fill="#383838" points="331,673.5,341,677.5,331,681.5,335,677.5" style="stroke: #383838; stroke-width: 1.0;"/><line style="stroke: #383838; stroke-width: 1.0;" x1="61" x2="337" y1="677.5" y2="677.5"/><text fill="#000000" font-family="sans-serif" font-size="13" lengthAdjust="spacingAndGlyphs" textLength="141" x="68" y="672.5669">Sélectionner un agent</text><polygon fill="#383838" points="331,702.6328,341,706.6328,331,710.6328,335,706.6328" style="stroke: #383838; stroke-width: 1.0;"/><line style="stroke: #383838; stroke-width: 1.0;" x1="61" x2="337" y1="706.6328" y2="706.6328"/><text fill="#000000" font-family="sans-serif" font-size="13" lengthAdjust="spacingAndGlyphs" textLength="253" x="68" y="701.6997">Affecter le contact à l'agent sélectionné</text><polygon fill="#383838" points="651,746.7656,661,750.7656,651,754.7656,655,750.7656" style="stroke: #383838; stroke-width: 1.0;"/><line style="stroke: #383838; stroke-width: 1.0;" x1="343" x2="657" y1="750.7656" y2="750.7656"/><text fill="#000000" font-family="sans-serif" font-size="13" lengthAdjust="spacingAndGlyphs" textLength="228" x="350" y="730.8325">AffecterContact(idContact, idAgent)</text><text fill="#000000" font-family="sans-serif" font-size="13" lengthAdjust="spacingAndGlyphs" textLength="34" x="350" y="745.9653">: void</text><polygon fill="#383838" points="1000,791.0313,1010,795.0313,1000,799.0313,1004,795.0313" style="stroke: #383838; stroke-width: 1.0;"/><line style="stroke: #383838; stroke-width: 1.0;" x1="663" x2="1006" y1="795.0313" y2="795.0313"/><text fill="#000000" font-family="sans-serif" font-size="13" lengthAdjust="spacingAndGlyphs" textLength="228" x="670" y="775.0981">AffecterContact(idContact, idAgent)</text><text fill="#000000" font-family="sans-serif" font-size="13" lengthAdjust="spacingAndGlyphs" textLength="34" x="670" y="790.231">: void</text><polygon fill="#383838" points="1168,835.2969,1178,839.2969,1168,843.2969,1172,839.2969" style="stroke: #383838; stroke-width: 1.0;"/><line style="stroke: #383838; stroke-width: 1.0;" x1="663" x2="1174" y1="839.2969" y2="839.2969"/><text fill="#000000" font-family="sans-serif" font-size="13" lengthAdjust="spacingAndGlyphs" textLength="261" x="670" y="819.3638">MettreAJourNbContactsAffectes(idAgent)</text><text fill="#000000" font-family="sans-serif" font-size="13" lengthAdjust="spacingAndGlyphs" textLength="34" x="670" y="834.4966">: void</text></g></svg>