<?xml version="1.0" encoding="UTF-8" standalone="yes"?><svg xmlns="http://www.w3.org/2000/svg" xmlns:xlink="http://www.w3.org/1999/xlink" height="1314px" style="width:1478px;height:1314px;" version="1.1" viewBox="0 0 1478 1314" width="1478px"><defs/><g><text fill="#000000" font-family="sans-serif" font-size="20" lengthAdjust="spacingAndGlyphs" textLength="426" x="532.25" y="28.5645">Diagramme de séquence système du CU 8</text><line style="stroke: none; stroke-width: 1.0;" x1="532.25" x2="958.25" y1="38.2813" y2="38.2813"/><rect fill="#FFFFFF" height="765.9219" style="stroke: #000000; stroke-width: 1.0;" width="1464.5" x="13" y="308.5078"/><rect fill="#FFFFFF" height="543.7266" style="stroke: none; stroke-width: 1.0;" width="1464.5" x="13" y="530.7031"/><line style="stroke: #383838; stroke-width: 1.0; stroke-dasharray: 5.0,5.0;" x1="46" x2="46" y1="129.5781" y2="1238.2266"/><line style="stroke: #383838; stroke-width: 1.0; stroke-dasharray: 5.0,5.0;" x1="420" x2="420" y1="129.5781" y2="1238.2266"/><line style="stroke: #383838; stroke-width: 1.0; stroke-dasharray: 5.0,5.0;" x1="883.5" x2="883.5" y1="129.5781" y2="1238.2266"/><line style="stroke: #383838; stroke-width: 1.0; stroke-dasharray: 5.0,5.0;" x1="1297.5" x2="1297.5" y1="129.5781" y2="1238.2266"/><line style="stroke: #383838; stroke-width: 1.0; stroke-dasharray: 5.0,5.0;" x1="1367.5" x2="1367.5" y1="129.5781" y2="1238.2266"/><line style="stroke: #383838; stroke-width: 1.0; stroke-dasharray: 5.0,5.0;" x1="1435.5" x2="1435.5" y1="129.5781" y2="1238.2266"/><text fill="#000000" font-family="sans-serif" font-size="14" lengthAdjust="spacingAndGlyphs" textLength="41" x="23" y="126.2764">Agent</text><ellipse cx="46.5" cy="60.2813" fill="#F8F8F8" rx="8" ry="8" style="stroke: #383838; stroke-width: 2.0;"/><path d="M46.5,68.2813 L46.5,95.2813 M33.5,76.2813 L59.5,76.2813 M46.5,95.2813 L33.5,110.2813 M46.5,95.2813 L59.5,110.2813 " fill="#F8F8F8" style="stroke: #383838; stroke-width: 2.0;"/><text fill="#000000" font-family="sans-serif" font-size="14" lengthAdjust="spacingAndGlyphs" textLength="41" x="23" y="1250.2217">Agent</text><ellipse cx="46.5" cy="1263.5234" fill="#F8F8F8" rx="8" ry="8" style="stroke: #383838; stroke-width: 2.0;"/><path d="M46.5,1271.5234 L46.5,1298.5234 M33.5,1279.5234 L59.5,1279.5234 M46.5,1298.5234 L33.5,1313.5234 M46.5,1298.5234 L59.5,1313.5234 " fill="#F8F8F8" style="stroke: #383838; stroke-width: 2.0;"/><rect fill="#F8F8F8" height="30.2969" style="stroke: #383838; stroke-width: 1.0;" width="39" x="401" y="98.2813"/><text fill="#000000" font-family="sans-serif" font-size="14" lengthAdjust="spacingAndGlyphs" textLength="25" x="408" y="118.2764">IHM</text><rect fill="#F8F8F8" height="30.2969" style="stroke: #383838; stroke-width: 1.0;" width="39" x="401" y="1237.2266"/><text fill="#000000" font-family="sans-serif" font-size="14" lengthAdjust="spacingAndGlyphs" textLength="25" x="408" y="1257.2217">IHM</text><rect fill="#F8F8F8" height="30.2969" style="stroke: #383838; stroke-width: 1.0;" width="44" x="861.5" y="98.2813"/><text fill="#000000" font-family="sans-serif" font-size="14" lengthAdjust="spacingAndGlyphs" textLength="30" x="868.5" y="118.2764">SMA</text><rect fill="#F8F8F8" height="30.2969" style="stroke: #383838; stroke-width: 1.0;" width="44" x="861.5" y="1237.2266"/><text fill="#000000" font-family="sans-serif" font-size="14" lengthAdjust="spacingAndGlyphs" textLength="30" x="868.5" y="1257.2217">SMA</text><rect fill="#F8F8F8" height="30.2969" style="stroke: #383838; stroke-width: 1.0;" width="68" x="1263.5" y="98.2813"/><text fill="#000000" font-family="sans-serif" font-size="14" lengthAdjust="spacingAndGlyphs" textLength="54" x="1270.5" y="118.2764">Contact</text><rect fill="#F8F8F8" height="30.2969" style="stroke: #383838; stroke-width: 1.0;" width="68" x="1263.5" y="1237.2266"/><text fill="#000000" font-family="sans-serif" font-size="14" lengthAdjust="spacingAndGlyphs" textLength="54" x="1270.5" y="1257.2217">Contact</text><rect fill="#F8F8F8" height="30.2969" style="stroke: #383838; stroke-width: 1.0;" width="53" x="1341.5" y="98.2813"/><text fill="#000000" font-family="sans-serif" font-size="14" lengthAdjust="spacingAndGlyphs" textLength="39" x="1348.5" y="118.2764">Client</text><rect fill="#F8F8F8" height="30.2969" style="stroke: #383838; stroke-width: 1.0;" width="53" x="1341.5" y="1237.2266"/><text fill="#000000" font-family="sans-serif" font-size="14" lengthAdjust="spacingAndGlyphs" textLength="39" x="1348.5" y="1257.2217">Client</text><rect fill="#F8F8F8" height="30.2969" style="stroke: #383838; stroke-width: 1.0;" width="63" x="1404.5" y="98.2813"/><text fill="#000000" font-family="sans-serif" font-size="14" lengthAdjust="spacingAndGlyphs" textLength="49" x="1411.5" y="118.2764">Produit</text><rect fill="#F8F8F8" height="30.2969" style="stroke: #383838; stroke-width: 1.0;" width="63" x="1404.5" y="1237.2266"/><text fill="#000000" font-family="sans-serif" font-size="14" lengthAdjust="spacingAndGlyphs" textLength="49" x="1411.5" y="1257.2217">Produit</text><polygon fill="#383838" points="408.5,156.5781,418.5,160.5781,408.5,164.5781,412.5,160.5781" style="stroke: #383838; stroke-width: 1.0;"/><line style="stroke: #383838; stroke-width: 1.0;" x1="46.5" x2="414.5" y1="160.5781" y2="160.5781"/><text fill="#000000" font-family="sans-serif" font-size="13" lengthAdjust="spacingAndGlyphs" textLength="122" x="53.5" y="155.645">Identifier le contact</text><polygon fill="#383838" points="871.5,200.7109,881.5,204.7109,871.5,208.7109,875.5,204.7109" style="stroke: #383838; stroke-width: 1.0;"/><line style="stroke: #383838; stroke-width: 1.0;" x1="420.5" x2="877.5" y1="204.7109" y2="204.7109"/><text fill="#000000" font-family="sans-serif" font-size="13" lengthAdjust="spacingAndGlyphs" textLength="225" x="427.5" y="184.7778">SM25 - IdentifierContact(idContact)</text><text fill="#000000" font-family="sans-serif" font-size="13" lengthAdjust="spacingAndGlyphs" textLength="58" x="427.5" y="199.9106">: Contact</text><polygon fill="#383838" points="1285.5,244.9766,1295.5,248.9766,1285.5,252.9766,1289.5,248.9766" style="stroke: #383838; stroke-width: 1.0;"/><line style="stroke: #383838; stroke-width: 1.0;" x1="883.5" x2="1291.5" y1="248.9766" y2="248.9766"/><text fill="#000000" font-family="sans-serif" font-size="13" lengthAdjust="spacingAndGlyphs" textLength="176" x="890.5" y="229.0435">IdentifierContact(idContact)</text><text fill="#000000" font-family="sans-serif" font-size="13" lengthAdjust="spacingAndGlyphs" textLength="58" x="890.5" y="244.1763">: Contact</text><polygon fill="#383838" points="408.5,289.2422,418.5,293.2422,408.5,297.2422,412.5,293.2422" style="stroke: #383838; stroke-width: 1.0;"/><line style="stroke: #383838; stroke-width: 1.0;" x1="46.5" x2="414.5" y1="293.2422" y2="293.2422"/><text fill="#000000" font-family="sans-serif" font-size="13" lengthAdjust="spacingAndGlyphs" textLength="198" x="53.5" y="273.3091">Consulter le détail d'un contact</text><text fill="#000000" font-family="sans-serif" font-size="13" lengthAdjust="spacingAndGlyphs" textLength="41" x="53.5" y="288.4419">(CU 4)</text><rect fill="none" height="765.9219" style="stroke: #000000; stroke-width: 1.0;" width="1464.5" x="13" y="308.5078"/><polygon fill="#EEEEEE" points="13,308.5078,77,308.5078,77,315.5078,67,325.5078,13,325.5078,13,308.5078" style="stroke: #000000; stroke-width: 1.0;"/><text fill="#000000" font-family="sans-serif" font-size="13" font-weight="bold" lengthAdjust="spacingAndGlyphs" textLength="19" x="28" y="321.5747">alt</text><text fill="#000000" font-family="sans-serif" font-size="11" font-weight="bold" lengthAdjust="spacingAndGlyphs" textLength="121" x="92" y="320.7183">[Mise à jour client]</text><polygon fill="#383838" points="408.5,342.6406,418.5,346.6406,408.5,350.6406,412.5,346.6406" style="stroke: #383838; stroke-width: 1.0;"/><line style="stroke: #383838; stroke-width: 1.0;" x1="46.5" x2="414.5" y1="346.6406" y2="346.6406"/><text fill="#000000" font-family="sans-serif" font-size="13" lengthAdjust="spacingAndGlyphs" textLength="138" x="53.5" y="341.7075">Sélectionner un client</text><polygon fill="#383838" points="408.5,371.7734,418.5,375.7734,408.5,379.7734,412.5,375.7734" style="stroke: #383838; stroke-width: 1.0;"/><line style="stroke: #383838; stroke-width: 1.0;" x1="46.5" x2="414.5" y1="375.7734" y2="375.7734"/><text fill="#000000" font-family="sans-serif" font-size="13" lengthAdjust="spacingAndGlyphs" textLength="237" x="53.5" y="370.8403">Consulter le dossier du client (CU 10)</text><polygon fill="#383838" points="408.5,400.9063,418.5,404.9063,408.5,408.9063,412.5,404.9063" style="stroke: #383838; stroke-width: 1.0;"/><line style="stroke: #383838; stroke-width: 1.0;" x1="46.5" x2="414.5" y1="404.9063" y2="404.9063"/><text fill="#000000" font-family="sans-serif" font-size="13" lengthAdjust="spacingAndGlyphs" textLength="199" x="53.5" y="399.9731">Saisir les informations du client</text><polygon fill="#383838" points="408.5,430.0391,418.5,434.0391,408.5,438.0391,412.5,434.0391" style="stroke: #383838; stroke-width: 1.0;"/><line style="stroke: #383838; stroke-width: 1.0;" x1="46.5" x2="414.5" y1="434.0391" y2="434.0391"/><text fill="#000000" font-family="sans-serif" font-size="13" lengthAdjust="spacingAndGlyphs" textLength="188" x="53.5" y="429.106">Mettre à jour les informations</text><polygon fill="#383838" points="871.5,474.1719,881.5,478.1719,871.5,482.1719,875.5,478.1719" style="stroke: #383838; stroke-width: 1.0;"/><line style="stroke: #383838; stroke-width: 1.0;" x1="420.5" x2="877.5" y1="478.1719" y2="478.1719"/><text fill="#000000" font-family="sans-serif" font-size="13" lengthAdjust="spacingAndGlyphs" textLength="314" x="427.5" y="458.2388">SM26 - MAJInfos(denomination, adresse, idClient)</text><text fill="#000000" font-family="sans-serif" font-size="13" lengthAdjust="spacingAndGlyphs" textLength="34" x="427.5" y="473.3716">: void</text><polygon fill="#383838" points="1356,518.4375,1366,522.4375,1356,526.4375,1360,522.4375" style="stroke: #383838; stroke-width: 1.0;"/><line style="stroke: #383838; stroke-width: 1.0;" x1="883.5" x2="1362" y1="522.4375" y2="522.4375"/><text fill="#000000" font-family="sans-serif" font-size="13" lengthAdjust="spacingAndGlyphs" textLength="265" x="890.5" y="502.5044">MAJInfos(denomination, adresse, idClient)</text><text fill="#000000" font-family="sans-serif" font-size="13" lengthAdjust="spacingAndGlyphs" textLength="34" x="890.5" y="517.6372">: void</text><line style="stroke: #000000; stroke-width: 1.0; stroke-dasharray: 2.0,2.0;" x1="13" x2="1477.5" y1="531.7031" y2="531.7031"/><text fill="#000000" font-family="sans-serif" font-size="11" font-weight="bold" lengthAdjust="spacingAndGlyphs" textLength="168" x="18" y="541.9136">[Proposition commerciale]</text><polygon fill="#383838" points="408.5,562.5078,418.5,566.5078,408.5,570.5078,412.5,566.5078" style="stroke: #383838; stroke-width: 1.0;"/><line style="stroke: #383838; stroke-width: 1.0;" x1="46.5" x2="414.5" y1="566.5078" y2="566.5078"/><text fill="#000000" font-family="sans-serif" font-size="13" lengthAdjust="spacingAndGlyphs" textLength="173" x="53.5" y="561.5747">Consulter la liste des offres</text><polygon fill="#383838" points="871.5,606.6406,881.5,610.6406,871.5,614.6406,875.5,610.6406" style="stroke: #383838; stroke-width: 1.0;"/><line style="stroke: #383838; stroke-width: 1.0;" x1="420.5" x2="877.5" y1="610.6406" y2="610.6406"/><text fill="#000000" font-family="sans-serif" font-size="13" lengthAdjust="spacingAndGlyphs" textLength="170" x="427.5" y="590.7075">SM27 - ObtenirOffres(void)</text><text fill="#000000" font-family="sans-serif" font-size="13" lengthAdjust="spacingAndGlyphs" textLength="91" x="427.5" y="605.8403">: Liste&lt;Offre&gt;</text><polygon fill="#383838" points="1424,650.9063,1434,654.9063,1424,658.9063,1428,654.9063" style="stroke: #383838; stroke-width: 1.0;"/><line style="stroke: #383838; stroke-width: 1.0;" x1="883.5" x2="1430" y1="654.9063" y2="654.9063"/><text fill="#000000" font-family="sans-serif" font-size="13" lengthAdjust="spacingAndGlyphs" textLength="121" x="890.5" y="634.9731">ObtenirOffres(void)</text><text fill="#000000" font-family="sans-serif" font-size="13" lengthAdjust="spacingAndGlyphs" textLength="91" x="890.5" y="650.106">: Liste&lt;Offre&gt;</text><polygon fill="#383838" points="408.5,680.1719,418.5,684.1719,408.5,688.1719,412.5,684.1719" style="stroke: #383838; stroke-width: 1.0;"/><line style="stroke: #383838; stroke-width: 1.0;" x1="46.5" x2="414.5" y1="684.1719" y2="684.1719"/><text fill="#000000" font-family="sans-serif" font-size="13" lengthAdjust="spacingAndGlyphs" textLength="141" x="53.5" y="679.2388">Sélectionner une offre</text><polygon fill="#383838" points="408.5,709.3047,418.5,713.3047,408.5,717.3047,412.5,713.3047" style="stroke: #383838; stroke-width: 1.0;"/><line style="stroke: #383838; stroke-width: 1.0;" x1="46.5" x2="414.5" y1="713.3047" y2="713.3047"/><text fill="#000000" font-family="sans-serif" font-size="13" lengthAdjust="spacingAndGlyphs" textLength="245" x="53.5" y="708.3716">Voir le détails d'une offre du catalogue</text><polygon fill="#383838" points="871.5,753.4375,881.5,757.4375,871.5,761.4375,875.5,757.4375" style="stroke: #383838; stroke-width: 1.0;"/><line style="stroke: #383838; stroke-width: 1.0;" x1="420.5" x2="877.5" y1="757.4375" y2="757.4375"/><text fill="#000000" font-family="sans-serif" font-size="13" lengthAdjust="spacingAndGlyphs" textLength="223" x="427.5" y="737.5044">SM28 - ObtenirDetailsOffre(idOffre)</text><text fill="#000000" font-family="sans-serif" font-size="13" lengthAdjust="spacingAndGlyphs" textLength="237" x="427.5" y="752.6372">: Liste&lt;Produit&gt;, commentairesOffre</text><polygon fill="#383838" points="1424,797.7031,1434,801.7031,1424,805.7031,1428,801.7031" style="stroke: #383838; stroke-width: 1.0;"/><line style="stroke: #383838; stroke-width: 1.0;" x1="883.5" x2="1430" y1="801.7031" y2="801.7031"/><text fill="#000000" font-family="sans-serif" font-size="13" lengthAdjust="spacingAndGlyphs" textLength="174" x="890.5" y="781.77">ObtenirDetailsOffre(idOffre)</text><text fill="#000000" font-family="sans-serif" font-size="13" lengthAdjust="spacingAndGlyphs" textLength="237" x="890.5" y="796.9028">: Liste&lt;Produit&gt;, commentairesOffre</text><polygon fill="#383838" points="408.5,826.9688,418.5,830.9688,408.5,834.9688,412.5,830.9688" style="stroke: #383838; stroke-width: 1.0;"/><line style="stroke: #383838; stroke-width: 1.0;" x1="46.5" x2="414.5" y1="830.9688" y2="830.9688"/><text fill="#000000" font-family="sans-serif" font-size="13" lengthAdjust="spacingAndGlyphs" textLength="225" x="53.5" y="826.0356">Créer une proposition commerciale</text><polygon fill="#383838" points="871.5,871.1016,881.5,875.1016,871.5,879.1016,875.5,875.1016" style="stroke: #383838; stroke-width: 1.0;"/><line style="stroke: #383838; stroke-width: 1.0;" x1="420.5" x2="877.5" y1="875.1016" y2="875.1016"/><text fill="#000000" font-family="sans-serif" font-size="13" lengthAdjust="spacingAndGlyphs" textLength="372" x="427.5" y="855.1685">SM29 - AjouterPropositionCommerciale(idOffre, idContact)</text><text fill="#000000" font-family="sans-serif" font-size="13" lengthAdjust="spacingAndGlyphs" textLength="34" x="427.5" y="870.3013">: void</text><polygon fill="#383838" points="1285.5,915.3672,1295.5,919.3672,1285.5,923.3672,1289.5,919.3672" style="stroke: #383838; stroke-width: 1.0;"/><line style="stroke: #383838; stroke-width: 1.0;" x1="883.5" x2="1291.5" y1="919.3672" y2="919.3672"/><text fill="#000000" font-family="sans-serif" font-size="13" lengthAdjust="spacingAndGlyphs" textLength="323" x="890.5" y="899.4341">AjouterPropositionCommerciale(idContact, idOffre)</text><text fill="#000000" font-family="sans-serif" font-size="13" lengthAdjust="spacingAndGlyphs" textLength="34" x="890.5" y="914.5669">: void</text><polygon fill="#383838" points="408.5,944.6328,418.5,948.6328,408.5,952.6328,412.5,948.6328" style="stroke: #383838; stroke-width: 1.0;"/><line style="stroke: #383838; stroke-width: 1.0;" x1="46.5" x2="414.5" y1="948.6328" y2="948.6328"/><text fill="#000000" font-family="sans-serif" font-size="13" lengthAdjust="spacingAndGlyphs" textLength="195" x="53.5" y="943.6997">Rédiger une proposition d'offre</text><polygon fill="#383838" points="408.5,973.7656,418.5,977.7656,408.5,981.7656,412.5,977.7656" style="stroke: #383838; stroke-width: 1.0;"/><line style="stroke: #383838; stroke-width: 1.0;" x1="46.5" x2="414.5" y1="977.7656" y2="977.7656"/><text fill="#000000" font-family="sans-serif" font-size="13" lengthAdjust="spacingAndGlyphs" textLength="213" x="53.5" y="972.8325">Annoter proposition commerciale</text><polygon fill="#383838" points="871.5,1017.8984,881.5,1021.8984,871.5,1025.8984,875.5,1021.8984" style="stroke: #383838; stroke-width: 1.0;"/><line style="stroke: #383838; stroke-width: 1.0;" x1="420.5" x2="877.5" y1="1021.8984" y2="1021.8984"/><text fill="#000000" font-family="sans-serif" font-size="13" lengthAdjust="spacingAndGlyphs" textLength="432" x="427.5" y="1001.9653">SM30 - AnnoterProposition(annotations, idPropositionCommerciale)</text><text fill="#000000" font-family="sans-serif" font-size="13" lengthAdjust="spacingAndGlyphs" textLength="34" x="427.5" y="1017.0981">: void</text><polygon fill="#383838" points="1285.5,1062.1641,1295.5,1066.1641,1285.5,1070.1641,1289.5,1066.1641" style="stroke: #383838; stroke-width: 1.0;"/><line style="stroke: #383838; stroke-width: 1.0;" x1="883.5" x2="1291.5" y1="1066.1641" y2="1066.1641"/><text fill="#000000" font-family="sans-serif" font-size="13" lengthAdjust="spacingAndGlyphs" textLength="383" x="890.5" y="1046.231">AnnoterProposition(annotations, idPropositionCommerciale)</text><text fill="#000000" font-family="sans-serif" font-size="13" lengthAdjust="spacingAndGlyphs" textLength="34" x="890.5" y="1061.3638">: void</text><polygon fill="#383838" points="408.5,1098.4297,418.5,1102.4297,408.5,1106.4297,412.5,1102.4297" style="stroke: #383838; stroke-width: 1.0;"/><line style="stroke: #383838; stroke-width: 1.0;" x1="46.5" x2="414.5" y1="1102.4297" y2="1102.4297"/><text fill="#000000" font-family="sans-serif" font-size="13" lengthAdjust="spacingAndGlyphs" textLength="350" x="53.5" y="1097.4966">Saisir les annotations du compte-rendu de préparation</text><polygon fill="#383838" points="408.5,1127.5625,418.5,1131.5625,408.5,1135.5625,412.5,1131.5625" style="stroke: #383838; stroke-width: 1.0;"/><line style="stroke: #383838; stroke-width: 1.0;" x1="46.5" x2="414.5" y1="1131.5625" y2="1131.5625"/><text fill="#000000" font-family="sans-serif" font-size="13" lengthAdjust="spacingAndGlyphs" textLength="277" x="53.5" y="1126.6294">Enregistrer le compte rendu de préparation</text><polygon fill="#383838" points="871.5,1171.6953,881.5,1175.6953,871.5,1179.6953,875.5,1175.6953" style="stroke: #383838; stroke-width: 1.0;"/><line style="stroke: #383838; stroke-width: 1.0;" x1="420.5" x2="877.5" y1="1175.6953" y2="1175.6953"/><text fill="#000000" font-family="sans-serif" font-size="13" lengthAdjust="spacingAndGlyphs" textLength="439" x="427.5" y="1155.7622">SM31 - EnregistrerCompteRenduPreparation(annotations, idContact)</text><text fill="#000000" font-family="sans-serif" font-size="13" lengthAdjust="spacingAndGlyphs" textLength="34" x="427.5" y="1170.895">: void</text><polygon fill="#383838" points="1285.5,1215.9609,1295.5,1219.9609,1285.5,1223.9609,1289.5,1219.9609" style="stroke: #383838; stroke-width: 1.0;"/><line style="stroke: #383838; stroke-width: 1.0;" x1="883.5" x2="1291.5" y1="1219.9609" y2="1219.9609"/><text fill="#000000" font-family="sans-serif" font-size="13" lengthAdjust="spacingAndGlyphs" textLength="390" x="890.5" y="1200.0278">EnregistrerCompteRenduPreparation(annotations, idContact)</text><text fill="#000000" font-family="sans-serif" font-size="13" lengthAdjust="spacingAndGlyphs" textLength="34" x="890.5" y="1215.1606">: void</text></g></svg>