<?xml version="1.0" encoding="UTF-8" standalone="yes"?><svg xmlns="http://www.w3.org/2000/svg" xmlns:xlink="http://www.w3.org/1999/xlink" height="1380px" style="width:2008px;height:1380px;" version="1.1" viewBox="0 0 2008 1380" width="2008px"><defs/><g><text fill="#000000" font-family="sans-serif" font-size="20" lengthAdjust="spacingAndGlyphs" textLength="418" x="801" y="28.5645">Diagramme de séquence détaillé du CU 7</text><line style="stroke: none; stroke-width: 1.0;" x1="801" x2="1219" y1="38.2813" y2="38.2813"/><text fill="#000000" font-family="sans-serif" font-size="20" lengthAdjust="spacingAndGlyphs" textLength="155" x="932.5" y="61.8457">Actions agenda</text><line style="stroke: none; stroke-width: 1.0;" x1="801" x2="1219" y1="71.5625" y2="71.5625"/><rect fill="#FFFFFF" height="1107.3906" style="stroke: #000000; stroke-width: 1.0;" width="1994" x="13" y="179.8594"/><rect fill="#FFFFFF" height="400.0625" style="stroke: none; stroke-width: 1.0;" width="1994" x="13" y="490.5859"/><rect fill="#FFFFFF" height="61.3984" style="stroke: #000000; stroke-width: 1.0;" width="317.5" x="1679.5" y="822.25"/><rect fill="#FFFFFF" height="190.7344" style="stroke: none; stroke-width: 1.0;" width="1994" x="13" y="890.6484"/><rect fill="#FFFFFF" height="205.8672" style="stroke: none; stroke-width: 1.0;" width="1994" x="13" y="1081.3828"/><line style="stroke: #383838; stroke-width: 1.0; stroke-dasharray: 5.0,5.0;" x1="46" x2="46" y1="162.8594" y2="1304.25"/><line style="stroke: #383838; stroke-width: 1.0; stroke-dasharray: 5.0,5.0;" x1="328" x2="328" y1="162.8594" y2="1304.25"/><line style="stroke: #383838; stroke-width: 1.0; stroke-dasharray: 5.0,5.0;" x1="875.5" x2="875.5" y1="162.8594" y2="1304.25"/><line style="stroke: #383838; stroke-width: 1.0; stroke-dasharray: 5.0,5.0;" x1="1060.5" x2="1060.5" y1="162.8594" y2="1304.25"/><line style="stroke: #383838; stroke-width: 1.0; stroke-dasharray: 5.0,5.0;" x1="1418" x2="1418" y1="162.8594" y2="1304.25"/><line style="stroke: #383838; stroke-width: 1.0; stroke-dasharray: 5.0,5.0;" x1="1723.5" x2="1723.5" y1="162.8594" y2="1304.25"/><line style="stroke: #383838; stroke-width: 1.0; stroke-dasharray: 5.0,5.0;" x1="1887" x2="1887" y1="162.8594" y2="1304.25"/><line style="stroke: #383838; stroke-width: 1.0; stroke-dasharray: 5.0,5.0;" x1="1955" x2="1955" y1="162.8594" y2="1304.25"/><text fill="#000000" font-family="sans-serif" font-size="14" lengthAdjust="spacingAndGlyphs" textLength="41" x="23" y="159.5576">Agent</text><ellipse cx="46.5" cy="93.5625" fill="#F8F8F8" rx="8" ry="8" style="stroke: #383838; stroke-width: 2.0;"/><path d="M46.5,101.5625 L46.5,128.5625 M33.5,109.5625 L59.5,109.5625 M46.5,128.5625 L33.5,143.5625 M46.5,128.5625 L59.5,143.5625 " fill="#F8F8F8" style="stroke: #383838; stroke-width: 2.0;"/><text fill="#000000" font-family="sans-serif" font-size="14" lengthAdjust="spacingAndGlyphs" textLength="41" x="23" y="1316.2451">Agent</text><ellipse cx="46.5" cy="1329.5469" fill="#F8F8F8" rx="8" ry="8" style="stroke: #383838; stroke-width: 2.0;"/><path d="M46.5,1337.5469 L46.5,1364.5469 M33.5,1345.5469 L59.5,1345.5469 M46.5,1364.5469 L33.5,1379.5469 M46.5,1364.5469 L59.5,1379.5469 " fill="#F8F8F8" style="stroke: #383838; stroke-width: 2.0;"/><rect fill="#F8F8F8" height="30.2969" style="stroke: #383838; stroke-width: 1.0;" width="39" x="309" y="131.5625"/><text fill="#000000" font-family="sans-serif" font-size="14" lengthAdjust="spacingAndGlyphs" textLength="25" x="316" y="151.5576">IHM</text><rect fill="#F8F8F8" height="30.2969" style="stroke: #383838; stroke-width: 1.0;" width="39" x="309" y="1303.25"/><text fill="#000000" font-family="sans-serif" font-size="14" lengthAdjust="spacingAndGlyphs" textLength="25" x="316" y="1323.2451">IHM</text><rect fill="#F8F8F8" height="30.2969" style="stroke: #383838; stroke-width: 1.0;" width="44" x="853.5" y="131.5625"/><text fill="#000000" font-family="sans-serif" font-size="14" lengthAdjust="spacingAndGlyphs" textLength="30" x="860.5" y="151.5576">SMA</text><rect fill="#F8F8F8" height="30.2969" style="stroke: #383838; stroke-width: 1.0;" width="44" x="853.5" y="1303.25"/><text fill="#000000" font-family="sans-serif" font-size="14" lengthAdjust="spacingAndGlyphs" textLength="30" x="860.5" y="1323.2451">SMA</text><rect fill="#F8F8F8" height="30.2969" style="stroke: #383838; stroke-width: 1.0;" width="78" x="1021.5" y="131.5625"/><text fill="#000000" font-family="sans-serif" font-size="14" lengthAdjust="spacingAndGlyphs" textLength="64" x="1028.5" y="151.5576">Structure</text><rect fill="#F8F8F8" height="30.2969" style="stroke: #383838; stroke-width: 1.0;" width="78" x="1021.5" y="1303.25"/><text fill="#000000" font-family="sans-serif" font-size="14" lengthAdjust="spacingAndGlyphs" textLength="64" x="1028.5" y="1323.2451">Structure</text><rect fill="#F8F8F8" height="30.2969" style="stroke: #383838; stroke-width: 1.0;" width="67" x="1385" y="131.5625"/><text fill="#000000" font-family="sans-serif" font-size="14" lengthAdjust="spacingAndGlyphs" textLength="53" x="1392" y="151.5576">Agenda</text><rect fill="#F8F8F8" height="30.2969" style="stroke: #383838; stroke-width: 1.0;" width="67" x="1385" y="1303.25"/><text fill="#000000" font-family="sans-serif" font-size="14" lengthAdjust="spacingAndGlyphs" textLength="53" x="1392" y="1323.2451">Agenda</text><rect fill="#F8F8F8" height="30.2969" style="stroke: #383838; stroke-width: 1.0;" width="68" x="1689.5" y="131.5625"/><text fill="#000000" font-family="sans-serif" font-size="14" lengthAdjust="spacingAndGlyphs" textLength="54" x="1696.5" y="151.5576">Contact</text><rect fill="#F8F8F8" height="30.2969" style="stroke: #383838; stroke-width: 1.0;" width="68" x="1689.5" y="1303.25"/><text fill="#000000" font-family="sans-serif" font-size="14" lengthAdjust="spacingAndGlyphs" textLength="54" x="1696.5" y="1323.2451">Contact</text><rect fill="#F8F8F8" height="30.2969" style="stroke: #383838; stroke-width: 1.0;" width="53" x="1861" y="131.5625"/><text fill="#000000" font-family="sans-serif" font-size="14" lengthAdjust="spacingAndGlyphs" textLength="39" x="1868" y="151.5576">Client</text><rect fill="#F8F8F8" height="30.2969" style="stroke: #383838; stroke-width: 1.0;" width="53" x="1861" y="1303.25"/><text fill="#000000" font-family="sans-serif" font-size="14" lengthAdjust="spacingAndGlyphs" textLength="39" x="1868" y="1323.2451">Client</text><rect fill="#F8F8F8" height="30.2969" style="stroke: #383838; stroke-width: 1.0;" width="63" x="1924" y="131.5625"/><text fill="#000000" font-family="sans-serif" font-size="14" lengthAdjust="spacingAndGlyphs" textLength="49" x="1931" y="151.5576">Produit</text><rect fill="#F8F8F8" height="30.2969" style="stroke: #383838; stroke-width: 1.0;" width="63" x="1924" y="1303.25"/><text fill="#000000" font-family="sans-serif" font-size="14" lengthAdjust="spacingAndGlyphs" textLength="49" x="1931" y="1323.2451">Produit</text><rect fill="none" height="1107.3906" style="stroke: #000000; stroke-width: 1.0;" width="1994" x="13" y="179.8594"/><polygon fill="#EEEEEE" points="13,179.8594,77,179.8594,77,186.8594,67,196.8594,13,196.8594,13,179.8594" style="stroke: #000000; stroke-width: 1.0;"/><text fill="#000000" font-family="sans-serif" font-size="13" font-weight="bold" lengthAdjust="spacingAndGlyphs" textLength="19" x="28" y="192.9263">alt</text><text fill="#000000" font-family="sans-serif" font-size="11" font-weight="bold" lengthAdjust="spacingAndGlyphs" textLength="98" x="92" y="192.0698">[réaffecter rdv]</text><polygon fill="#383838" points="316.5,213.9922,326.5,217.9922,316.5,221.9922,320.5,217.9922" style="stroke: #383838; stroke-width: 1.0;"/><line style="stroke: #383838; stroke-width: 1.0;" x1="46.5" x2="322.5" y1="217.9922" y2="217.9922"/><text fill="#000000" font-family="sans-serif" font-size="13" lengthAdjust="spacingAndGlyphs" textLength="183" x="53.5" y="213.0591">Sélectionner un rendez-vous</text><polygon fill="#383838" points="316.5,243.125,326.5,247.125,316.5,251.125,320.5,247.125" style="stroke: #383838; stroke-width: 1.0;"/><line style="stroke: #383838; stroke-width: 1.0;" x1="46.5" x2="322.5" y1="247.125" y2="247.125"/><text fill="#000000" font-family="sans-serif" font-size="13" lengthAdjust="spacingAndGlyphs" textLength="258" x="53.5" y="242.1919">Consulter la liste des agents de l'agence</text><polygon fill="#383838" points="863.5,287.2578,873.5,291.2578,863.5,295.2578,867.5,291.2578" style="stroke: #383838; stroke-width: 1.0;"/><line style="stroke: #383838; stroke-width: 1.0;" x1="328.5" x2="869.5" y1="291.2578" y2="291.2578"/><text fill="#000000" font-family="sans-serif" font-size="13" lengthAdjust="spacingAndGlyphs" textLength="161" x="335.5" y="271.3247">ObtenirAgents(idAgence)</text><text fill="#000000" font-family="sans-serif" font-size="13" lengthAdjust="spacingAndGlyphs" textLength="98" x="335.5" y="286.4575">: Liste&lt;Agent&gt;</text><polygon fill="#383838" points="1048.5,331.5234,1058.5,335.5234,1048.5,339.5234,1052.5,335.5234" style="stroke: #383838; stroke-width: 1.0;"/><line style="stroke: #383838; stroke-width: 1.0;" x1="875.5" x2="1054.5" y1="335.5234" y2="335.5234"/><text fill="#000000" font-family="sans-serif" font-size="13" lengthAdjust="spacingAndGlyphs" textLength="161" x="882.5" y="315.5903">ObtenirAgents(idAgence)</text><text fill="#000000" font-family="sans-serif" font-size="13" lengthAdjust="spacingAndGlyphs" textLength="98" x="882.5" y="330.7231">: Liste&lt;Agent&gt;</text><polygon fill="#383838" points="316.5,360.7891,326.5,364.7891,316.5,368.7891,320.5,364.7891" style="stroke: #383838; stroke-width: 1.0;"/><line style="stroke: #383838; stroke-width: 1.0;" x1="46.5" x2="322.5" y1="364.7891" y2="364.7891"/><text fill="#000000" font-family="sans-serif" font-size="13" lengthAdjust="spacingAndGlyphs" textLength="141" x="53.5" y="359.856">Sélectionner un agent</text><polygon fill="#383838" points="316.5,389.9219,326.5,393.9219,316.5,397.9219,320.5,393.9219" style="stroke: #383838; stroke-width: 1.0;"/><line style="stroke: #383838; stroke-width: 1.0;" x1="46.5" x2="322.5" y1="393.9219" y2="393.9219"/><text fill="#000000" font-family="sans-serif" font-size="13" lengthAdjust="spacingAndGlyphs" textLength="96" x="53.5" y="388.9888">Reaffecter RDV</text><polygon fill="#383838" points="863.5,434.0547,873.5,438.0547,863.5,442.0547,867.5,438.0547" style="stroke: #383838; stroke-width: 1.0;"/><line style="stroke: #383838; stroke-width: 1.0;" x1="328.5" x2="869.5" y1="438.0547" y2="438.0547"/><text fill="#000000" font-family="sans-serif" font-size="13" lengthAdjust="spacingAndGlyphs" textLength="250" x="335.5" y="418.1216">ReaffecterRdv(idPlageAgenda, idAgent)</text><text fill="#000000" font-family="sans-serif" font-size="13" lengthAdjust="spacingAndGlyphs" textLength="34" x="335.5" y="433.2544">: void</text><polygon fill="#383838" points="1406.5,478.3203,1416.5,482.3203,1406.5,486.3203,1410.5,482.3203" style="stroke: #383838; stroke-width: 1.0;"/><line style="stroke: #383838; stroke-width: 1.0;" x1="875.5" x2="1412.5" y1="482.3203" y2="482.3203"/><text fill="#000000" font-family="sans-serif" font-size="13" lengthAdjust="spacingAndGlyphs" textLength="250" x="882.5" y="462.3872">ReaffecterRdv(idPlageAgenda, idAgent)</text><text fill="#000000" font-family="sans-serif" font-size="13" lengthAdjust="spacingAndGlyphs" textLength="34" x="882.5" y="477.52">: void</text><line style="stroke: #000000; stroke-width: 1.0; stroke-dasharray: 2.0,2.0;" x1="13" x2="2007" y1="491.5859" y2="491.5859"/><text fill="#000000" font-family="sans-serif" font-size="11" font-weight="bold" lengthAdjust="spacingAndGlyphs" textLength="142" x="18" y="501.7964">[consulter détails rdv]</text><polygon fill="#383838" points="316.5,522.3906,326.5,526.3906,316.5,530.3906,320.5,526.3906" style="stroke: #383838; stroke-width: 1.0;"/><line style="stroke: #383838; stroke-width: 1.0;" x1="46.5" x2="322.5" y1="526.3906" y2="526.3906"/><text fill="#000000" font-family="sans-serif" font-size="13" lengthAdjust="spacingAndGlyphs" textLength="183" x="53.5" y="521.4575">Sélectionner un rendez-vous</text><polygon fill="#383838" points="316.5,551.5234,326.5,555.5234,316.5,559.5234,320.5,555.5234" style="stroke: #383838; stroke-width: 1.0;"/><line style="stroke: #383838; stroke-width: 1.0;" x1="46.5" x2="322.5" y1="555.5234" y2="555.5234"/><text fill="#000000" font-family="sans-serif" font-size="13" lengthAdjust="spacingAndGlyphs" textLength="138" x="53.5" y="550.5903">Consulter détails RDV</text><polygon fill="#383838" points="863.5,610.6563,873.5,614.6563,863.5,618.6563,867.5,614.6563" style="stroke: #383838; stroke-width: 1.0;"/><line style="stroke: #383838; stroke-width: 1.0;" x1="328.5" x2="869.5" y1="614.6563" y2="614.6563"/><text fill="#000000" font-family="sans-serif" font-size="13" lengthAdjust="spacingAndGlyphs" textLength="219" x="335.5" y="579.7231">ObtenirDetailsRdv(idPlageAgenda)</text><text fill="#000000" font-family="sans-serif" font-size="13" lengthAdjust="spacingAndGlyphs" textLength="200" x="335.5" y="594.856">: PlageAgenda, Agent, Contact,</text><text fill="#000000" font-family="sans-serif" font-size="13" lengthAdjust="spacingAndGlyphs" textLength="143" x="335.5" y="609.9888">MotifDeContact, Client</text><polygon fill="#383838" points="1406.5,655.0547,1416.5,659.0547,1406.5,663.0547,1410.5,659.0547" style="stroke: #383838; stroke-width: 1.0;"/><line style="stroke: #383838; stroke-width: 1.0;" x1="875.5" x2="1412.5" y1="659.0547" y2="659.0547"/><text fill="#000000" font-family="sans-serif" font-size="13" lengthAdjust="spacingAndGlyphs" textLength="219" x="882.5" y="639.1216">ObtenirDetailsRdv(idPlageAgenda)</text><text fill="#000000" font-family="sans-serif" font-size="13" lengthAdjust="spacingAndGlyphs" textLength="273" x="882.5" y="654.2544">: PlageAgenda, idAgent, idContact, idClient</text><polygon fill="#383838" points="1711.5,714.3203,1721.5,718.3203,1711.5,722.3203,1715.5,718.3203" style="stroke: #383838; stroke-width: 1.0;"/><line style="stroke: #383838; stroke-width: 1.0;" x1="1418.5" x2="1717.5" y1="718.3203" y2="718.3203"/><text fill="#000000" font-family="sans-serif" font-size="13" lengthAdjust="spacingAndGlyphs" textLength="212" x="1425.5" y="683.3872">ObtenirDetailsContact(idContact)</text><text fill="#000000" font-family="sans-serif" font-size="13" lengthAdjust="spacingAndGlyphs" textLength="281" x="1425.5" y="698.52">: Contact, MotifDeContact, idClient, idAgent,</text><text fill="#000000" font-family="sans-serif" font-size="13" lengthAdjust="spacingAndGlyphs" textLength="258" x="1425.5" y="713.6528">Liste&lt;PropositionCommerciale, idOffre&gt;</text><polygon fill="#383838" points="1875.5,758.7188,1885.5,762.7188,1875.5,766.7188,1879.5,762.7188" style="stroke: #383838; stroke-width: 1.0;"/><line style="stroke: #383838; stroke-width: 1.0;" x1="1723.5" x2="1881.5" y1="762.7188" y2="762.7188"/><text fill="#000000" font-family="sans-serif" font-size="13" lengthAdjust="spacingAndGlyphs" textLength="140" x="1730.5" y="742.7856">ObtenirClient(idClient)</text><text fill="#000000" font-family="sans-serif" font-size="13" lengthAdjust="spacingAndGlyphs" textLength="44" x="1730.5" y="757.9185">: Client</text><polygon fill="#383838" points="1071.5,802.9844,1061.5,806.9844,1071.5,810.9844,1067.5,806.9844" style="stroke: #383838; stroke-width: 1.0;"/><line style="stroke: #383838; stroke-width: 1.0;" x1="1065.5" x2="1722.5" y1="806.9844" y2="806.9844"/><text fill="#000000" font-family="sans-serif" font-size="13" lengthAdjust="spacingAndGlyphs" textLength="144" x="1077.5" y="787.0513">ObtenirAgent(idAgent)</text><text fill="#000000" font-family="sans-serif" font-size="13" lengthAdjust="spacingAndGlyphs" textLength="46" x="1077.5" y="802.1841">: Agent</text><rect fill="none" height="61.3984" style="stroke: #000000; stroke-width: 1.0;" width="317.5" x="1679.5" y="822.25"/><polygon fill="#EEEEEE" points="1679.5,822.25,1756.5,822.25,1756.5,829.25,1746.5,839.25,1679.5,839.25,1679.5,822.25" style="stroke: #000000; stroke-width: 1.0;"/><text fill="#000000" font-family="sans-serif" font-size="13" font-weight="bold" lengthAdjust="spacingAndGlyphs" textLength="32" x="1694.5" y="835.3169">loop</text><text fill="#000000" font-family="sans-serif" font-size="11" font-weight="bold" lengthAdjust="spacingAndGlyphs" textLength="125" x="1771.5" y="834.4604">[Pour chaque offre]</text><polygon fill="#383838" points="1943.5,871.3828,1953.5,875.3828,1943.5,879.3828,1947.5,875.3828" style="stroke: #383838; stroke-width: 1.0;"/><line style="stroke: #383838; stroke-width: 1.0;" x1="1723.5" x2="1949.5" y1="875.3828" y2="875.3828"/><text fill="#000000" font-family="sans-serif" font-size="13" lengthAdjust="spacingAndGlyphs" textLength="167" x="1730.5" y="855.4497">ObtenirDetailOffre(idOffre)</text><text fill="#000000" font-family="sans-serif" font-size="13" lengthAdjust="spacingAndGlyphs" textLength="144" x="1730.5" y="870.5825">: Offre, Liste&lt;Produit&gt;</text><line style="stroke: #000000; stroke-width: 1.0; stroke-dasharray: 2.0,2.0;" x1="13" x2="2007" y1="891.6484" y2="891.6484"/><text fill="#000000" font-family="sans-serif" font-size="11" font-weight="bold" lengthAdjust="spacingAndGlyphs" textLength="153" x="18" y="901.8589">[modifier plage horaire]</text><polygon fill="#383838" points="316.5,922.4531,326.5,926.4531,316.5,930.4531,320.5,926.4531" style="stroke: #383838; stroke-width: 1.0;"/><line style="stroke: #383838; stroke-width: 1.0;" x1="46.5" x2="322.5" y1="926.4531" y2="926.4531"/><text fill="#000000" font-family="sans-serif" font-size="13" lengthAdjust="spacingAndGlyphs" textLength="183" x="53.5" y="921.52">Sélectionner un rendez-vous</text><polygon fill="#383838" points="316.5,951.5859,326.5,955.5859,316.5,959.5859,320.5,955.5859" style="stroke: #383838; stroke-width: 1.0;"/><line style="stroke: #383838; stroke-width: 1.0;" x1="46.5" x2="322.5" y1="955.5859" y2="955.5859"/><text fill="#000000" font-family="sans-serif" font-size="13" lengthAdjust="spacingAndGlyphs" textLength="196" x="53.5" y="950.6528">Sélectionner une plage horaire</text><polygon fill="#383838" points="316.5,980.7188,326.5,984.7188,316.5,988.7188,320.5,984.7188" style="stroke: #383838; stroke-width: 1.0;"/><line style="stroke: #383838; stroke-width: 1.0;" x1="46.5" x2="322.5" y1="984.7188" y2="984.7188"/><text fill="#000000" font-family="sans-serif" font-size="13" lengthAdjust="spacingAndGlyphs" textLength="138" x="53.5" y="979.7856">Modifier plage horaire</text><polygon fill="#383838" points="863.5,1024.8516,873.5,1028.8516,863.5,1032.8516,867.5,1028.8516" style="stroke: #383838; stroke-width: 1.0;"/><line style="stroke: #383838; stroke-width: 1.0;" x1="328.5" x2="869.5" y1="1028.8516" y2="1028.8516"/><text fill="#000000" font-family="sans-serif" font-size="13" lengthAdjust="spacingAndGlyphs" textLength="519" x="335.5" y="1008.9185">ModifierPlageHoraire(idPlageAgenda, datePlageHoraireDeb, datePlageHoraireFin)</text><text fill="#000000" font-family="sans-serif" font-size="13" lengthAdjust="spacingAndGlyphs" textLength="92" x="335.5" y="1024.0513">: PlageAgenda</text><polygon fill="#383838" points="1406.5,1069.1172,1416.5,1073.1172,1406.5,1077.1172,1410.5,1073.1172" style="stroke: #383838; stroke-width: 1.0;"/><line style="stroke: #383838; stroke-width: 1.0;" x1="875.5" x2="1412.5" y1="1073.1172" y2="1073.1172"/><text fill="#000000" font-family="sans-serif" font-size="13" lengthAdjust="spacingAndGlyphs" textLength="519" x="882.5" y="1053.1841">ModifierPlageHoraire(idPlageAgenda, datePlageHoraireDeb, datePlageHoraireFin)</text><text fill="#000000" font-family="sans-serif" font-size="13" lengthAdjust="spacingAndGlyphs" textLength="92" x="882.5" y="1068.3169">: PlageAgenda</text><line style="stroke: #000000; stroke-width: 1.0; stroke-dasharray: 2.0,2.0;" x1="13" x2="2007" y1="1082.3828" y2="1082.3828"/><text fill="#000000" font-family="sans-serif" font-size="11" font-weight="bold" lengthAdjust="spacingAndGlyphs" textLength="83" x="18" y="1092.5933">[annuler rdv]</text><polygon fill="#383838" points="316.5,1113.1875,326.5,1117.1875,316.5,1121.1875,320.5,1117.1875" style="stroke: #383838; stroke-width: 1.0;"/><line style="stroke: #383838; stroke-width: 1.0;" x1="46.5" x2="322.5" y1="1117.1875" y2="1117.1875"/><text fill="#000000" font-family="sans-serif" font-size="13" lengthAdjust="spacingAndGlyphs" textLength="183" x="53.5" y="1112.2544">Sélectionner un rendez-vous</text><polygon fill="#383838" points="316.5,1142.3203,326.5,1146.3203,316.5,1150.3203,320.5,1146.3203" style="stroke: #383838; stroke-width: 1.0;"/><line style="stroke: #383838; stroke-width: 1.0;" x1="46.5" x2="322.5" y1="1146.3203" y2="1146.3203"/><text fill="#000000" font-family="sans-serif" font-size="13" lengthAdjust="spacingAndGlyphs" textLength="80" x="53.5" y="1141.3872">Annuler RDV</text><polygon fill="#383838" points="863.5,1186.4531,873.5,1190.4531,863.5,1194.4531,867.5,1190.4531" style="stroke: #383838; stroke-width: 1.0;"/><line style="stroke: #383838; stroke-width: 1.0;" x1="328.5" x2="869.5" y1="1190.4531" y2="1190.4531"/><text fill="#000000" font-family="sans-serif" font-size="13" lengthAdjust="spacingAndGlyphs" textLength="177" x="335.5" y="1170.52">AnnulerRdv(idPlageAgenda)</text><text fill="#000000" font-family="sans-serif" font-size="13" lengthAdjust="spacingAndGlyphs" textLength="34" x="335.5" y="1185.6528">: void</text><polygon fill="#383838" points="1406.5,1230.7188,1416.5,1234.7188,1406.5,1238.7188,1410.5,1234.7188" style="stroke: #383838; stroke-width: 1.0;"/><line style="stroke: #383838; stroke-width: 1.0;" x1="875.5" x2="1412.5" y1="1234.7188" y2="1234.7188"/><text fill="#000000" font-family="sans-serif" font-size="13" lengthAdjust="spacingAndGlyphs" textLength="177" x="882.5" y="1214.7856">AnnulerRdv(idPlageAgenda)</text><text fill="#000000" font-family="sans-serif" font-size="13" lengthAdjust="spacingAndGlyphs" textLength="34" x="882.5" y="1229.9185">: void</text><polygon fill="#383838" points="1711.5,1274.9844,1721.5,1278.9844,1711.5,1282.9844,1715.5,1278.9844" style="stroke: #383838; stroke-width: 1.0;"/><line style="stroke: #383838; stroke-width: 1.0;" x1="1418.5" x2="1717.5" y1="1278.9844" y2="1278.9844"/><text fill="#000000" font-family="sans-serif" font-size="13" lengthAdjust="spacingAndGlyphs" textLength="177" x="1425.5" y="1259.0513">AnnulerRdv(idPlageAgenda)</text><text fill="#000000" font-family="sans-serif" font-size="13" lengthAdjust="spacingAndGlyphs" textLength="34" x="1425.5" y="1274.1841">: void</text></g></svg>