<?xml version="1.0" encoding="UTF-8" standalone="yes"?><svg xmlns="http://www.w3.org/2000/svg" xmlns:xlink="http://www.w3.org/1999/xlink" height="328px" style="width:838px;height:328px;" version="1.1" viewBox="0 0 838 328" width="838px"><defs/><g><text fill="#000000" font-family="sans-serif" font-size="20" lengthAdjust="spacingAndGlyphs" textLength="418" x="216" y="28.5645">Diagramme de séquence détaillé du CU 1</text><line style="stroke: none; stroke-width: 1.0;" x1="216" x2="634" y1="38.2813" y2="38.2813"/><rect fill="#FFFFFF" height="61.3984" style="stroke: #000000; stroke-width: 1.0;" width="411.5" x="425.5" y="203.4063"/><line style="stroke: #383838; stroke-width: 1.0; stroke-dasharray: 5.0,5.0;" x1="84" x2="84" y1="97.875" y2="281.8047"/><line style="stroke: #383838; stroke-width: 1.0; stroke-dasharray: 5.0,5.0;" x1="253" x2="253" y1="97.875" y2="281.8047"/><line style="stroke: #383838; stroke-width: 1.0; stroke-dasharray: 5.0,5.0;" x1="481.5" x2="481.5" y1="97.875" y2="281.8047"/><line style="stroke: #383838; stroke-width: 1.0; stroke-dasharray: 5.0,5.0;" x1="793" x2="793" y1="97.875" y2="281.8047"/><rect fill="#F8F8F8" height="46.5938" style="stroke: #383838; stroke-width: 1.0;" width="152" x="8" y="50.2813"/><text fill="#000000" font-family="sans-serif" font-size="14" lengthAdjust="spacingAndGlyphs" textLength="138" x="15" y="70.2764">Tâches quotidienne</text><text fill="#000000" font-family="sans-serif" font-size="14" lengthAdjust="spacingAndGlyphs" textLength="59" x="54.5" y="86.5732">système</text><rect fill="#F8F8F8" height="46.5938" style="stroke: #383838; stroke-width: 1.0;" width="152" x="8" y="280.8047"/><text fill="#000000" font-family="sans-serif" font-size="14" lengthAdjust="spacingAndGlyphs" textLength="138" x="15" y="300.7998">Tâches quotidienne</text><text fill="#000000" font-family="sans-serif" font-size="14" lengthAdjust="spacingAndGlyphs" textLength="59" x="54.5" y="317.0967">système</text><rect fill="#F8F8F8" height="30.2969" style="stroke: #383838; stroke-width: 1.0;" width="44" x="231" y="66.5781"/><text fill="#000000" font-family="sans-serif" font-size="14" lengthAdjust="spacingAndGlyphs" textLength="30" x="238" y="86.5732">SMA</text><rect fill="#F8F8F8" height="30.2969" style="stroke: #383838; stroke-width: 1.0;" width="44" x="231" y="280.8047"/><text fill="#000000" font-family="sans-serif" font-size="14" lengthAdjust="spacingAndGlyphs" textLength="30" x="238" y="300.7998">SMA</text><rect fill="#F8F8F8" height="30.2969" style="stroke: #383838; stroke-width: 1.0;" width="93" x="435.5" y="66.5781"/><text fill="#000000" font-family="sans-serif" font-size="14" lengthAdjust="spacingAndGlyphs" textLength="79" x="442.5" y="86.5732">Evenement</text><rect fill="#F8F8F8" height="30.2969" style="stroke: #383838; stroke-width: 1.0;" width="93" x="435.5" y="280.8047"/><text fill="#000000" font-family="sans-serif" font-size="14" lengthAdjust="spacingAndGlyphs" textLength="79" x="442.5" y="300.7998">Evenement</text><rect fill="#F8F8F8" height="30.2969" style="stroke: #383838; stroke-width: 1.0;" width="68" x="759" y="66.5781"/><text fill="#000000" font-family="sans-serif" font-size="14" lengthAdjust="spacingAndGlyphs" textLength="54" x="766" y="86.5732">Contact</text><rect fill="#F8F8F8" height="30.2969" style="stroke: #383838; stroke-width: 1.0;" width="68" x="759" y="280.8047"/><text fill="#000000" font-family="sans-serif" font-size="14" lengthAdjust="spacingAndGlyphs" textLength="54" x="766" y="300.7998">Contact</text><polygon fill="#383838" points="241,139.875,251,143.875,241,147.875,245,143.875" style="stroke: #383838; stroke-width: 1.0;"/><line style="stroke: #383838; stroke-width: 1.0;" x1="84" x2="247" y1="143.875" y2="143.875"/><text fill="#000000" font-family="sans-serif" font-size="13" lengthAdjust="spacingAndGlyphs" textLength="145" x="91" y="123.9419">GenererContacts(void)</text><text fill="#000000" font-family="sans-serif" font-size="13" lengthAdjust="spacingAndGlyphs" textLength="34" x="91" y="139.0747">: void</text><polygon fill="#383838" points="470,184.1406,480,188.1406,470,192.1406,474,188.1406" style="stroke: #383838; stroke-width: 1.0;"/><line style="stroke: #383838; stroke-width: 1.0;" x1="253" x2="476" y1="188.1406" y2="188.1406"/><text fill="#000000" font-family="sans-serif" font-size="13" lengthAdjust="spacingAndGlyphs" textLength="205" x="260" y="168.2075">RecupererEvenementsATraiter()</text><text fill="#000000" font-family="sans-serif" font-size="13" lengthAdjust="spacingAndGlyphs" textLength="188" x="260" y="183.3403">: Liste&lt;Evenement, idClient&gt;</text><rect fill="none" height="61.3984" style="stroke: #000000; stroke-width: 1.0;" width="411.5" x="425.5" y="203.4063"/><polygon fill="#EEEEEE" points="425.5,203.4063,502.5,203.4063,502.5,210.4063,492.5,220.4063,425.5,220.4063,425.5,203.4063" style="stroke: #000000; stroke-width: 1.0;"/><text fill="#000000" font-family="sans-serif" font-size="13" font-weight="bold" lengthAdjust="spacingAndGlyphs" textLength="32" x="440.5" y="216.4731">loop</text><text fill="#000000" font-family="sans-serif" font-size="11" font-weight="bold" lengthAdjust="spacingAndGlyphs" textLength="269" x="517.5" y="215.6167">[tant qu'il reste des événements à traiter]</text><polygon fill="#383838" points="781,252.5391,791,256.5391,781,260.5391,785,256.5391" style="stroke: #383838; stroke-width: 1.0;"/><line style="stroke: #383838; stroke-width: 1.0;" x1="482" x2="787" y1="256.5391" y2="256.5391"/><text fill="#000000" font-family="sans-serif" font-size="13" lengthAdjust="spacingAndGlyphs" textLength="287" x="489" y="236.606">GenererContactPrevu(idClient, idEvenement)</text><text fill="#000000" font-family="sans-serif" font-size="13" lengthAdjust="spacingAndGlyphs" textLength="34" x="489" y="251.7388">: void</text></g></svg>