<?xml version="1.0" encoding="UTF-8" standalone="yes"?><svg xmlns="http://www.w3.org/2000/svg" xmlns:xlink="http://www.w3.org/1999/xlink" height="1364px" style="width:1950px;height:1364px;" version="1.1" viewBox="0 0 1950 1364" width="1950px"><defs/><g><text fill="#000000" font-family="sans-serif" font-size="20" lengthAdjust="spacingAndGlyphs" textLength="418" x="772" y="28.5645">Diagramme de séquence détaillé du CU 7</text><line style="stroke: none; stroke-width: 1.0;" x1="772" x2="1190" y1="38.2813" y2="38.2813"/><text fill="#000000" font-family="sans-serif" font-size="20" lengthAdjust="spacingAndGlyphs" textLength="155" x="903.5" y="61.8457">Actions agenda</text><line style="stroke: none; stroke-width: 1.0;" x1="772" x2="1190" y1="71.5625" y2="71.5625"/><rect fill="#FFFFFF" height="1091.3906" style="stroke: #000000; stroke-width: 1.0;" width="1936" x="13" y="179.8594"/><rect fill="#FFFFFF" height="384.0625" style="stroke: none; stroke-width: 1.0;" width="1936" x="13" y="490.5859"/><rect fill="#FFFFFF" height="190.7344" style="stroke: none; stroke-width: 1.0;" width="1936" x="13" y="874.6484"/><rect fill="#FFFFFF" height="205.8672" style="stroke: none; stroke-width: 1.0;" width="1936" x="13" y="1065.3828"/><line style="stroke: #383838; stroke-width: 1.0; stroke-dasharray: 5.0,5.0;" x1="46" x2="46" y1="162.8594" y2="1288.25"/><line style="stroke: #383838; stroke-width: 1.0; stroke-dasharray: 5.0,5.0;" x1="328" x2="328" y1="162.8594" y2="1288.25"/><line style="stroke: #383838; stroke-width: 1.0; stroke-dasharray: 5.0,5.0;" x1="817.5" x2="817.5" y1="162.8594" y2="1288.25"/><line style="stroke: #383838; stroke-width: 1.0; stroke-dasharray: 5.0,5.0;" x1="1002.5" x2="1002.5" y1="162.8594" y2="1288.25"/><line style="stroke: #383838; stroke-width: 1.0; stroke-dasharray: 5.0,5.0;" x1="1360" x2="1360" y1="162.8594" y2="1288.25"/><line style="stroke: #383838; stroke-width: 1.0; stroke-dasharray: 5.0,5.0;" x1="1675.5" x2="1675.5" y1="162.8594" y2="1288.25"/><line style="stroke: #383838; stroke-width: 1.0; stroke-dasharray: 5.0,5.0;" x1="1839" x2="1839" y1="162.8594" y2="1288.25"/><line style="stroke: #383838; stroke-width: 1.0; stroke-dasharray: 5.0,5.0;" x1="1907" x2="1907" y1="162.8594" y2="1288.25"/><text fill="#000000" font-family="sans-serif" font-size="14" lengthAdjust="spacingAndGlyphs" textLength="41" x="23" y="159.5576">Agent</text><ellipse cx="46.5" cy="93.5625" fill="#F8F8F8" rx="8" ry="8" style="stroke: #383838; stroke-width: 2.0;"/><path d="M46.5,101.5625 L46.5,128.5625 M33.5,109.5625 L59.5,109.5625 M46.5,128.5625 L33.5,143.5625 M46.5,128.5625 L59.5,143.5625 " fill="#F8F8F8" style="stroke: #383838; stroke-width: 2.0;"/><text fill="#000000" font-family="sans-serif" font-size="14" lengthAdjust="spacingAndGlyphs" textLength="41" x="23" y="1300.2451">Agent</text><ellipse cx="46.5" cy="1313.5469" fill="#F8F8F8" rx="8" ry="8" style="stroke: #383838; stroke-width: 2.0;"/><path d="M46.5,1321.5469 L46.5,1348.5469 M33.5,1329.5469 L59.5,1329.5469 M46.5,1348.5469 L33.5,1363.5469 M46.5,1348.5469 L59.5,1363.5469 " fill="#F8F8F8" style="stroke: #383838; stroke-width: 2.0;"/><rect fill="#F8F8F8" height="30.2969" style="stroke: #383838; stroke-width: 1.0;" width="39" x="309" y="131.5625"/><text fill="#000000" font-family="sans-serif" font-size="14" lengthAdjust="spacingAndGlyphs" textLength="25" x="316" y="151.5576">IHM</text><rect fill="#F8F8F8" height="30.2969" style="stroke: #383838; stroke-width: 1.0;" width="39" x="309" y="1287.25"/><text fill="#000000" font-family="sans-serif" font-size="14" lengthAdjust="spacingAndGlyphs" textLength="25" x="316" y="1307.2451">IHM</text><rect fill="#F8F8F8" height="30.2969" style="stroke: #383838; stroke-width: 1.0;" width="44" x="795.5" y="131.5625"/><text fill="#000000" font-family="sans-serif" font-size="14" lengthAdjust="spacingAndGlyphs" textLength="30" x="802.5" y="151.5576">SMA</text><rect fill="#F8F8F8" height="30.2969" style="stroke: #383838; stroke-width: 1.0;" width="44" x="795.5" y="1287.25"/><text fill="#000000" font-family="sans-serif" font-size="14" lengthAdjust="spacingAndGlyphs" textLength="30" x="802.5" y="1307.2451">SMA</text><rect fill="#F8F8F8" height="30.2969" style="stroke: #383838; stroke-width: 1.0;" width="78" x="963.5" y="131.5625"/><text fill="#000000" font-family="sans-serif" font-size="14" lengthAdjust="spacingAndGlyphs" textLength="64" x="970.5" y="151.5576">Structure</text><rect fill="#F8F8F8" height="30.2969" style="stroke: #383838; stroke-width: 1.0;" width="78" x="963.5" y="1287.25"/><text fill="#000000" font-family="sans-serif" font-size="14" lengthAdjust="spacingAndGlyphs" textLength="64" x="970.5" y="1307.2451">Structure</text><rect fill="#F8F8F8" height="30.2969" style="stroke: #383838; stroke-width: 1.0;" width="67" x="1327" y="131.5625"/><text fill="#000000" font-family="sans-serif" font-size="14" lengthAdjust="spacingAndGlyphs" textLength="53" x="1334" y="151.5576">Agenda</text><rect fill="#F8F8F8" height="30.2969" style="stroke: #383838; stroke-width: 1.0;" width="67" x="1327" y="1287.25"/><text fill="#000000" font-family="sans-serif" font-size="14" lengthAdjust="spacingAndGlyphs" textLength="53" x="1334" y="1307.2451">Agenda</text><rect fill="#F8F8F8" height="30.2969" style="stroke: #383838; stroke-width: 1.0;" width="68" x="1641.5" y="131.5625"/><text fill="#000000" font-family="sans-serif" font-size="14" lengthAdjust="spacingAndGlyphs" textLength="54" x="1648.5" y="151.5576">Contact</text><rect fill="#F8F8F8" height="30.2969" style="stroke: #383838; stroke-width: 1.0;" width="68" x="1641.5" y="1287.25"/><text fill="#000000" font-family="sans-serif" font-size="14" lengthAdjust="spacingAndGlyphs" textLength="54" x="1648.5" y="1307.2451">Contact</text><rect fill="#F8F8F8" height="30.2969" style="stroke: #383838; stroke-width: 1.0;" width="53" x="1813" y="131.5625"/><text fill="#000000" font-family="sans-serif" font-size="14" lengthAdjust="spacingAndGlyphs" textLength="39" x="1820" y="151.5576">Client</text><rect fill="#F8F8F8" height="30.2969" style="stroke: #383838; stroke-width: 1.0;" width="53" x="1813" y="1287.25"/><text fill="#000000" font-family="sans-serif" font-size="14" lengthAdjust="spacingAndGlyphs" textLength="39" x="1820" y="1307.2451">Client</text><rect fill="#F8F8F8" height="30.2969" style="stroke: #383838; stroke-width: 1.0;" width="63" x="1876" y="131.5625"/><text fill="#000000" font-family="sans-serif" font-size="14" lengthAdjust="spacingAndGlyphs" textLength="49" x="1883" y="151.5576">Produit</text><rect fill="#F8F8F8" height="30.2969" style="stroke: #383838; stroke-width: 1.0;" width="63" x="1876" y="1287.25"/><text fill="#000000" font-family="sans-serif" font-size="14" lengthAdjust="spacingAndGlyphs" textLength="49" x="1883" y="1307.2451">Produit</text><rect fill="none" height="1091.3906" style="stroke: #000000; stroke-width: 1.0;" width="1936" x="13" y="179.8594"/><polygon fill="#EEEEEE" points="13,179.8594,77,179.8594,77,186.8594,67,196.8594,13,196.8594,13,179.8594" style="stroke: #000000; stroke-width: 1.0;"/><text fill="#000000" font-family="sans-serif" font-size="13" font-weight="bold" lengthAdjust="spacingAndGlyphs" textLength="19" x="28" y="192.9263">alt</text><text fill="#000000" font-family="sans-serif" font-size="11" font-weight="bold" lengthAdjust="spacingAndGlyphs" textLength="98" x="92" y="192.0698">[réaffecter rdv]</text><polygon fill="#383838" points="316.5,213.9922,326.5,217.9922,316.5,221.9922,320.5,217.9922" style="stroke: #383838; stroke-width: 1.0;"/><line style="stroke: #383838; stroke-width: 1.0;" x1="46.5" x2="322.5" y1="217.9922" y2="217.9922"/><text fill="#000000" font-family="sans-serif" font-size="13" lengthAdjust="spacingAndGlyphs" textLength="183" x="53.5" y="213.0591">Sélectionner un rendez-vous</text><polygon fill="#383838" points="316.5,243.125,326.5,247.125,316.5,251.125,320.5,247.125" style="stroke: #383838; stroke-width: 1.0;"/><line style="stroke: #383838; stroke-width: 1.0;" x1="46.5" x2="322.5" y1="247.125" y2="247.125"/><text fill="#000000" font-family="sans-serif" font-size="13" lengthAdjust="spacingAndGlyphs" textLength="258" x="53.5" y="242.1919">Consulter la liste des agents de l'agence</text><polygon fill="#383838" points="805.5,287.2578,815.5,291.2578,805.5,295.2578,809.5,291.2578" style="stroke: #383838; stroke-width: 1.0;"/><line style="stroke: #383838; stroke-width: 1.0;" x1="328.5" x2="811.5" y1="291.2578" y2="291.2578"/><text fill="#000000" font-family="sans-serif" font-size="13" lengthAdjust="spacingAndGlyphs" textLength="161" x="335.5" y="271.3247">ObtenirAgents(idAgence)</text><text fill="#000000" font-family="sans-serif" font-size="13" lengthAdjust="spacingAndGlyphs" textLength="98" x="335.5" y="286.4575">: Liste&lt;Agent&gt;</text><polygon fill="#383838" points="990.5,331.5234,1000.5,335.5234,990.5,339.5234,994.5,335.5234" style="stroke: #383838; stroke-width: 1.0;"/><line style="stroke: #383838; stroke-width: 1.0;" x1="817.5" x2="996.5" y1="335.5234" y2="335.5234"/><text fill="#000000" font-family="sans-serif" font-size="13" lengthAdjust="spacingAndGlyphs" textLength="161" x="824.5" y="315.5903">ObtenirAgents(idAgence)</text><text fill="#000000" font-family="sans-serif" font-size="13" lengthAdjust="spacingAndGlyphs" textLength="98" x="824.5" y="330.7231">: Liste&lt;Agent&gt;</text><polygon fill="#383838" points="316.5,360.7891,326.5,364.7891,316.5,368.7891,320.5,364.7891" style="stroke: #383838; stroke-width: 1.0;"/><line style="stroke: #383838; stroke-width: 1.0;" x1="46.5" x2="322.5" y1="364.7891" y2="364.7891"/><text fill="#000000" font-family="sans-serif" font-size="13" lengthAdjust="spacingAndGlyphs" textLength="141" x="53.5" y="359.856">Sélectionner un agent</text><polygon fill="#383838" points="316.5,389.9219,326.5,393.9219,316.5,397.9219,320.5,393.9219" style="stroke: #383838; stroke-width: 1.0;"/><line style="stroke: #383838; stroke-width: 1.0;" x1="46.5" x2="322.5" y1="393.9219" y2="393.9219"/><text fill="#000000" font-family="sans-serif" font-size="13" lengthAdjust="spacingAndGlyphs" textLength="96" x="53.5" y="388.9888">Reaffecter RDV</text><polygon fill="#383838" points="805.5,434.0547,815.5,438.0547,805.5,442.0547,809.5,438.0547" style="stroke: #383838; stroke-width: 1.0;"/><line style="stroke: #383838; stroke-width: 1.0;" x1="328.5" x2="811.5" y1="438.0547" y2="438.0547"/><text fill="#000000" font-family="sans-serif" font-size="13" lengthAdjust="spacingAndGlyphs" textLength="250" x="335.5" y="418.1216">ReaffecterRdv(idPlageAgenda, idAgent)</text><text fill="#000000" font-family="sans-serif" font-size="13" lengthAdjust="spacingAndGlyphs" textLength="34" x="335.5" y="433.2544">: void</text><polygon fill="#383838" points="1348.5,478.3203,1358.5,482.3203,1348.5,486.3203,1352.5,482.3203" style="stroke: #383838; stroke-width: 1.0;"/><line style="stroke: #383838; stroke-width: 1.0;" x1="817.5" x2="1354.5" y1="482.3203" y2="482.3203"/><text fill="#000000" font-family="sans-serif" font-size="13" lengthAdjust="spacingAndGlyphs" textLength="224" x="824.5" y="462.3872">ReaffecterRdv(idRdv, idAutreAgent)</text><text fill="#000000" font-family="sans-serif" font-size="13" lengthAdjust="spacingAndGlyphs" textLength="34" x="824.5" y="477.52">: void</text><line style="stroke: #000000; stroke-width: 1.0; stroke-dasharray: 2.0,2.0;" x1="13" x2="1949" y1="491.5859" y2="491.5859"/><text fill="#000000" font-family="sans-serif" font-size="11" font-weight="bold" lengthAdjust="spacingAndGlyphs" textLength="142" x="18" y="501.7964">[consulter détails rdv]</text><polygon fill="#383838" points="316.5,522.3906,326.5,526.3906,316.5,530.3906,320.5,526.3906" style="stroke: #383838; stroke-width: 1.0;"/><line style="stroke: #383838; stroke-width: 1.0;" x1="46.5" x2="322.5" y1="526.3906" y2="526.3906"/><text fill="#000000" font-family="sans-serif" font-size="13" lengthAdjust="spacingAndGlyphs" textLength="183" x="53.5" y="521.4575">Sélectionner un rendez-vous</text><polygon fill="#383838" points="316.5,551.5234,326.5,555.5234,316.5,559.5234,320.5,555.5234" style="stroke: #383838; stroke-width: 1.0;"/><line style="stroke: #383838; stroke-width: 1.0;" x1="46.5" x2="322.5" y1="555.5234" y2="555.5234"/><text fill="#000000" font-family="sans-serif" font-size="13" lengthAdjust="spacingAndGlyphs" textLength="138" x="53.5" y="550.5903">Consulter détails RDV</text><polygon fill="#383838" points="805.5,610.6563,815.5,614.6563,805.5,618.6563,809.5,614.6563" style="stroke: #383838; stroke-width: 1.0;"/><line style="stroke: #383838; stroke-width: 1.0;" x1="328.5" x2="811.5" y1="614.6563" y2="614.6563"/><text fill="#000000" font-family="sans-serif" font-size="13" lengthAdjust="spacingAndGlyphs" textLength="219" x="335.5" y="579.7231">ObtenirDetailsRdv(idPlageAgenda)</text><text fill="#000000" font-family="sans-serif" font-size="13" lengthAdjust="spacingAndGlyphs" textLength="242" x="335.5" y="594.856">: plageAgenda, agent, contactRealise,</text><text fill="#000000" font-family="sans-serif" font-size="13" lengthAdjust="spacingAndGlyphs" textLength="235" x="343.5" y="609.9888">contactPrevu, motifDeContact, client</text><polygon fill="#383838" points="1348.5,670.0547,1358.5,674.0547,1348.5,678.0547,1352.5,674.0547" style="stroke: #383838; stroke-width: 1.0;"/><line style="stroke: #383838; stroke-width: 1.0;" x1="817.5" x2="1354.5" y1="674.0547" y2="674.0547"/><text fill="#000000" font-family="sans-serif" font-size="13" lengthAdjust="spacingAndGlyphs" textLength="219" x="824.5" y="639.1216">ObtenirDetailsRdv(idPlageAgenda)</text><text fill="#000000" font-family="sans-serif" font-size="13" lengthAdjust="spacingAndGlyphs" textLength="242" x="824.5" y="654.2544">: plageAgenda, agent, contactRealise,</text><text fill="#000000" font-family="sans-serif" font-size="13" lengthAdjust="spacingAndGlyphs" textLength="235" x="832.5" y="669.3872">contactPrevu, motifDeContact, client</text><polygon fill="#383838" points="1663.5,729.4531,1673.5,733.4531,1663.5,737.4531,1667.5,733.4531" style="stroke: #383838; stroke-width: 1.0;"/><line style="stroke: #383838; stroke-width: 1.0;" x1="1360.5" x2="1669.5" y1="733.4531" y2="733.4531"/><text fill="#000000" font-family="sans-serif" font-size="13" lengthAdjust="spacingAndGlyphs" textLength="212" x="1367.5" y="698.52">ObtenirDetailsContact(idContact)</text><text fill="#000000" font-family="sans-serif" font-size="13" lengthAdjust="spacingAndGlyphs" textLength="281" x="1367.5" y="713.6528">: Contact, MotifDeContact, idClient, idAgent,</text><text fill="#000000" font-family="sans-serif" font-size="13" lengthAdjust="spacingAndGlyphs" textLength="258" x="1367.5" y="728.7856">Liste&lt;PropositionCommerciale, idOffre&gt;</text><polygon fill="#383838" points="1827.5,773.8516,1837.5,777.8516,1827.5,781.8516,1831.5,777.8516" style="stroke: #383838; stroke-width: 1.0;"/><line style="stroke: #383838; stroke-width: 1.0;" x1="1675.5" x2="1833.5" y1="777.8516" y2="777.8516"/><text fill="#000000" font-family="sans-serif" font-size="13" lengthAdjust="spacingAndGlyphs" textLength="140" x="1682.5" y="757.9185">ObtenirClient(idClient)</text><text fill="#000000" font-family="sans-serif" font-size="13" lengthAdjust="spacingAndGlyphs" textLength="44" x="1682.5" y="773.0513">: Client</text><polygon fill="#383838" points="1013.5,818.1172,1003.5,822.1172,1013.5,826.1172,1009.5,822.1172" style="stroke: #383838; stroke-width: 1.0;"/><line style="stroke: #383838; stroke-width: 1.0;" x1="1007.5" x2="1674.5" y1="822.1172" y2="822.1172"/><text fill="#000000" font-family="sans-serif" font-size="13" lengthAdjust="spacingAndGlyphs" textLength="144" x="1019.5" y="802.1841">ObtenirAgent(idAgent)</text><text fill="#000000" font-family="sans-serif" font-size="13" lengthAdjust="spacingAndGlyphs" textLength="46" x="1019.5" y="817.3169">: Agent</text><polygon fill="#383838" points="1895.5,862.3828,1905.5,866.3828,1895.5,870.3828,1899.5,866.3828" style="stroke: #383838; stroke-width: 1.0;"/><line style="stroke: #383838; stroke-width: 1.0;" x1="1675.5" x2="1901.5" y1="866.3828" y2="866.3828"/><text fill="#000000" font-family="sans-serif" font-size="13" lengthAdjust="spacingAndGlyphs" textLength="167" x="1682.5" y="846.4497">ObtenirDetailOffre(idOffre)</text><text fill="#000000" font-family="sans-serif" font-size="13" lengthAdjust="spacingAndGlyphs" textLength="144" x="1682.5" y="861.5825">: Offre, Liste&lt;Produit&gt;</text><line style="stroke: #000000; stroke-width: 1.0; stroke-dasharray: 2.0,2.0;" x1="13" x2="1949" y1="875.6484" y2="875.6484"/><text fill="#000000" font-family="sans-serif" font-size="11" font-weight="bold" lengthAdjust="spacingAndGlyphs" textLength="153" x="18" y="885.8589">[modifier plage horaire]</text><polygon fill="#383838" points="316.5,906.4531,326.5,910.4531,316.5,914.4531,320.5,910.4531" style="stroke: #383838; stroke-width: 1.0;"/><line style="stroke: #383838; stroke-width: 1.0;" x1="46.5" x2="322.5" y1="910.4531" y2="910.4531"/><text fill="#000000" font-family="sans-serif" font-size="13" lengthAdjust="spacingAndGlyphs" textLength="183" x="53.5" y="905.52">Sélectionner un rendez-vous</text><polygon fill="#383838" points="316.5,935.5859,326.5,939.5859,316.5,943.5859,320.5,939.5859" style="stroke: #383838; stroke-width: 1.0;"/><line style="stroke: #383838; stroke-width: 1.0;" x1="46.5" x2="322.5" y1="939.5859" y2="939.5859"/><text fill="#000000" font-family="sans-serif" font-size="13" lengthAdjust="spacingAndGlyphs" textLength="196" x="53.5" y="934.6528">Sélectionner une plage horaire</text><polygon fill="#383838" points="316.5,964.7188,326.5,968.7188,316.5,972.7188,320.5,968.7188" style="stroke: #383838; stroke-width: 1.0;"/><line style="stroke: #383838; stroke-width: 1.0;" x1="46.5" x2="322.5" y1="968.7188" y2="968.7188"/><text fill="#000000" font-family="sans-serif" font-size="13" lengthAdjust="spacingAndGlyphs" textLength="138" x="53.5" y="963.7856">Modifier plage horaire</text><polygon fill="#383838" points="805.5,1008.8516,815.5,1012.8516,805.5,1016.8516,809.5,1012.8516" style="stroke: #383838; stroke-width: 1.0;"/><line style="stroke: #383838; stroke-width: 1.0;" x1="328.5" x2="811.5" y1="1012.8516" y2="1012.8516"/><text fill="#000000" font-family="sans-serif" font-size="13" lengthAdjust="spacingAndGlyphs" textLength="461" x="335.5" y="992.9185">ModifierPlageHoraire(idPlageAgenda, plageHoraireDeb, plageHoraireFin)</text><text fill="#000000" font-family="sans-serif" font-size="13" lengthAdjust="spacingAndGlyphs" textLength="92" x="335.5" y="1008.0513">: plageAgenda</text><polygon fill="#383838" points="1348.5,1053.1172,1358.5,1057.1172,1348.5,1061.1172,1352.5,1057.1172" style="stroke: #383838; stroke-width: 1.0;"/><line style="stroke: #383838; stroke-width: 1.0;" x1="817.5" x2="1354.5" y1="1057.1172" y2="1057.1172"/><text fill="#000000" font-family="sans-serif" font-size="13" lengthAdjust="spacingAndGlyphs" textLength="519" x="824.5" y="1037.1841">ModifierPlageHoraire(idPlageAgenda, datePlageHoraireDeb, datePlageHoraireFin)</text><text fill="#000000" font-family="sans-serif" font-size="13" lengthAdjust="spacingAndGlyphs" textLength="92" x="824.5" y="1052.3169">: plageAgenda</text><line style="stroke: #000000; stroke-width: 1.0; stroke-dasharray: 2.0,2.0;" x1="13" x2="1949" y1="1066.3828" y2="1066.3828"/><text fill="#000000" font-family="sans-serif" font-size="11" font-weight="bold" lengthAdjust="spacingAndGlyphs" textLength="83" x="18" y="1076.5933">[annuler rdv]</text><polygon fill="#383838" points="316.5,1097.1875,326.5,1101.1875,316.5,1105.1875,320.5,1101.1875" style="stroke: #383838; stroke-width: 1.0;"/><line style="stroke: #383838; stroke-width: 1.0;" x1="46.5" x2="322.5" y1="1101.1875" y2="1101.1875"/><text fill="#000000" font-family="sans-serif" font-size="13" lengthAdjust="spacingAndGlyphs" textLength="183" x="53.5" y="1096.2544">Sélectionner un rendez-vous</text><polygon fill="#383838" points="316.5,1126.3203,326.5,1130.3203,316.5,1134.3203,320.5,1130.3203" style="stroke: #383838; stroke-width: 1.0;"/><line style="stroke: #383838; stroke-width: 1.0;" x1="46.5" x2="322.5" y1="1130.3203" y2="1130.3203"/><text fill="#000000" font-family="sans-serif" font-size="13" lengthAdjust="spacingAndGlyphs" textLength="80" x="53.5" y="1125.3872">Annuler RDV</text><polygon fill="#383838" points="805.5,1170.4531,815.5,1174.4531,805.5,1178.4531,809.5,1174.4531" style="stroke: #383838; stroke-width: 1.0;"/><line style="stroke: #383838; stroke-width: 1.0;" x1="328.5" x2="811.5" y1="1174.4531" y2="1174.4531"/><text fill="#000000" font-family="sans-serif" font-size="13" lengthAdjust="spacingAndGlyphs" textLength="177" x="335.5" y="1154.52">AnnulerRdv(idPlageAgenda)</text><text fill="#000000" font-family="sans-serif" font-size="13" lengthAdjust="spacingAndGlyphs" textLength="34" x="335.5" y="1169.6528">: void</text><polygon fill="#383838" points="1348.5,1214.7188,1358.5,1218.7188,1348.5,1222.7188,1352.5,1218.7188" style="stroke: #383838; stroke-width: 1.0;"/><line style="stroke: #383838; stroke-width: 1.0;" x1="817.5" x2="1354.5" y1="1218.7188" y2="1218.7188"/><text fill="#000000" font-family="sans-serif" font-size="13" lengthAdjust="spacingAndGlyphs" textLength="177" x="824.5" y="1198.7856">AnnulerRdv(idPlageAgenda)</text><text fill="#000000" font-family="sans-serif" font-size="13" lengthAdjust="spacingAndGlyphs" textLength="34" x="824.5" y="1213.9185">: void</text><polygon fill="#383838" points="1663.5,1258.9844,1673.5,1262.9844,1663.5,1266.9844,1667.5,1262.9844" style="stroke: #383838; stroke-width: 1.0;"/><line style="stroke: #383838; stroke-width: 1.0;" x1="1360.5" x2="1669.5" y1="1262.9844" y2="1262.9844"/><text fill="#000000" font-family="sans-serif" font-size="13" lengthAdjust="spacingAndGlyphs" textLength="291" x="1367.5" y="1243.0513">AnnulerRdv(idContactRealise, idPlageAgenda)</text><text fill="#000000" font-family="sans-serif" font-size="13" lengthAdjust="spacingAndGlyphs" textLength="34" x="1367.5" y="1258.1841">: void</text></g></svg>