<?xml version="1.0" encoding="UTF-8" standalone="yes"?><svg xmlns="http://www.w3.org/2000/svg" xmlns:xlink="http://www.w3.org/1999/xlink" height="1424px" style="width:1677px;height:1424px;" version="1.1" viewBox="0 0 1677 1424" width="1677px"><defs/><g><text fill="#000000" font-family="sans-serif" font-size="20" lengthAdjust="spacingAndGlyphs" textLength="418" x="635.5" y="28.5645">Diagramme de séquence détaillé du CU 4</text><line style="stroke: none; stroke-width: 1.0;" x1="635.5" x2="1053.5" y1="38.2813" y2="38.2813"/><rect fill="#FFFFFF" height="149.9297" style="stroke: #000000; stroke-width: 1.0;" width="410.5" x="1192.5" y="264.2422"/><rect fill="#FFFFFF" height="874" style="stroke: #000000; stroke-width: 1.0;" width="1663" x="13" y="457.3047"/><rect fill="#FFFFFF" height="694.9375" style="stroke: none; stroke-width: 1.0;" width="1663" x="13" y="636.3672"/><rect fill="#FFFFFF" height="385.4063" style="stroke: #000000; stroke-width: 1.0;" width="1517" x="23" y="938.8984"/><rect fill="#FFFFFF" height="59.0703" style="stroke: none; stroke-width: 1.0;" width="1517" x="23" y="1147.0938"/><rect fill="#FFFFFF" height="59.0703" style="stroke: none; stroke-width: 1.0;" width="1517" x="23" y="1206.1641"/><rect fill="#FFFFFF" height="59.0703" style="stroke: none; stroke-width: 1.0;" width="1517" x="23" y="1265.2344"/><line style="stroke: #383838; stroke-width: 1.0; stroke-dasharray: 5.0,5.0;" x1="56" x2="56" y1="129.5781" y2="1348.3047"/><line style="stroke: #383838; stroke-width: 1.0; stroke-dasharray: 5.0,5.0;" x1="394" x2="394" y1="129.5781" y2="1348.3047"/><line style="stroke: #383838; stroke-width: 1.0; stroke-dasharray: 5.0,5.0;" x1="815.5" x2="815.5" y1="129.5781" y2="1348.3047"/><line style="stroke: #383838; stroke-width: 1.0; stroke-dasharray: 5.0,5.0;" x1="1236.5" x2="1236.5" y1="129.5781" y2="1348.3047"/><line style="stroke: #383838; stroke-width: 1.0; stroke-dasharray: 5.0,5.0;" x1="1404.5" x2="1404.5" y1="129.5781" y2="1348.3047"/><line style="stroke: #383838; stroke-width: 1.0; stroke-dasharray: 5.0,5.0;" x1="1496" x2="1496" y1="129.5781" y2="1348.3047"/><line style="stroke: #383838; stroke-width: 1.0; stroke-dasharray: 5.0,5.0;" x1="1566" x2="1566" y1="129.5781" y2="1348.3047"/><line style="stroke: #383838; stroke-width: 1.0; stroke-dasharray: 5.0,5.0;" x1="1634" x2="1634" y1="129.5781" y2="1348.3047"/><text fill="#000000" font-family="sans-serif" font-size="14" lengthAdjust="spacingAndGlyphs" textLength="41" x="33" y="126.2764">Agent</text><ellipse cx="56.5" cy="60.2813" fill="#F8F8F8" rx="8" ry="8" style="stroke: #383838; stroke-width: 2.0;"/><path d="M56.5,68.2813 L56.5,95.2813 M43.5,76.2813 L69.5,76.2813 M56.5,95.2813 L43.5,110.2813 M56.5,95.2813 L69.5,110.2813 " fill="#F8F8F8" style="stroke: #383838; stroke-width: 2.0;"/><text fill="#000000" font-family="sans-serif" font-size="14" lengthAdjust="spacingAndGlyphs" textLength="41" x="33" y="1360.2998">Agent</text><ellipse cx="56.5" cy="1373.6016" fill="#F8F8F8" rx="8" ry="8" style="stroke: #383838; stroke-width: 2.0;"/><path d="M56.5,1381.6016 L56.5,1408.6016 M43.5,1389.6016 L69.5,1389.6016 M56.5,1408.6016 L43.5,1423.6016 M56.5,1408.6016 L69.5,1423.6016 " fill="#F8F8F8" style="stroke: #383838; stroke-width: 2.0;"/><rect fill="#F8F8F8" height="30.2969" style="stroke: #383838; stroke-width: 1.0;" width="39" x="375" y="98.2813"/><text fill="#000000" font-family="sans-serif" font-size="14" lengthAdjust="spacingAndGlyphs" textLength="25" x="382" y="118.2764">IHM</text><rect fill="#F8F8F8" height="30.2969" style="stroke: #383838; stroke-width: 1.0;" width="39" x="375" y="1347.3047"/><text fill="#000000" font-family="sans-serif" font-size="14" lengthAdjust="spacingAndGlyphs" textLength="25" x="382" y="1367.2998">IHM</text><rect fill="#F8F8F8" height="30.2969" style="stroke: #383838; stroke-width: 1.0;" width="44" x="793.5" y="98.2813"/><text fill="#000000" font-family="sans-serif" font-size="14" lengthAdjust="spacingAndGlyphs" textLength="30" x="800.5" y="118.2764">SMA</text><rect fill="#F8F8F8" height="30.2969" style="stroke: #383838; stroke-width: 1.0;" width="44" x="793.5" y="1347.3047"/><text fill="#000000" font-family="sans-serif" font-size="14" lengthAdjust="spacingAndGlyphs" textLength="30" x="800.5" y="1367.2998">SMA</text><rect fill="#F8F8F8" height="30.2969" style="stroke: #383838; stroke-width: 1.0;" width="68" x="1202.5" y="98.2813"/><text fill="#000000" font-family="sans-serif" font-size="14" lengthAdjust="spacingAndGlyphs" textLength="54" x="1209.5" y="118.2764">Contact</text><rect fill="#F8F8F8" height="30.2969" style="stroke: #383838; stroke-width: 1.0;" width="68" x="1202.5" y="1347.3047"/><text fill="#000000" font-family="sans-serif" font-size="14" lengthAdjust="spacingAndGlyphs" textLength="54" x="1209.5" y="1367.2998">Contact</text><rect fill="#F8F8F8" height="30.2969" style="stroke: #383838; stroke-width: 1.0;" width="78" x="1365.5" y="98.2813"/><text fill="#000000" font-family="sans-serif" font-size="14" lengthAdjust="spacingAndGlyphs" textLength="64" x="1372.5" y="118.2764">Structure</text><rect fill="#F8F8F8" height="30.2969" style="stroke: #383838; stroke-width: 1.0;" width="78" x="1365.5" y="1347.3047"/><text fill="#000000" font-family="sans-serif" font-size="14" lengthAdjust="spacingAndGlyphs" textLength="64" x="1372.5" y="1367.2998">Structure</text><rect fill="#F8F8F8" height="30.2969" style="stroke: #383838; stroke-width: 1.0;" width="67" x="1463" y="98.2813"/><text fill="#000000" font-family="sans-serif" font-size="14" lengthAdjust="spacingAndGlyphs" textLength="53" x="1470" y="118.2764">Agenda</text><rect fill="#F8F8F8" height="30.2969" style="stroke: #383838; stroke-width: 1.0;" width="67" x="1463" y="1347.3047"/><text fill="#000000" font-family="sans-serif" font-size="14" lengthAdjust="spacingAndGlyphs" textLength="53" x="1470" y="1367.2998">Agenda</text><rect fill="#F8F8F8" height="30.2969" style="stroke: #383838; stroke-width: 1.0;" width="53" x="1540" y="98.2813"/><text fill="#000000" font-family="sans-serif" font-size="14" lengthAdjust="spacingAndGlyphs" textLength="39" x="1547" y="118.2764">Client</text><rect fill="#F8F8F8" height="30.2969" style="stroke: #383838; stroke-width: 1.0;" width="53" x="1540" y="1347.3047"/><text fill="#000000" font-family="sans-serif" font-size="14" lengthAdjust="spacingAndGlyphs" textLength="39" x="1547" y="1367.2998">Client</text><rect fill="#F8F8F8" height="30.2969" style="stroke: #383838; stroke-width: 1.0;" width="63" x="1603" y="98.2813"/><text fill="#000000" font-family="sans-serif" font-size="14" lengthAdjust="spacingAndGlyphs" textLength="49" x="1610" y="118.2764">Produit</text><rect fill="#F8F8F8" height="30.2969" style="stroke: #383838; stroke-width: 1.0;" width="63" x="1603" y="1347.3047"/><text fill="#000000" font-family="sans-serif" font-size="14" lengthAdjust="spacingAndGlyphs" textLength="49" x="1610" y="1367.2998">Produit</text><polygon fill="#383838" points="382.5,156.5781,392.5,160.5781,382.5,164.5781,386.5,160.5781" style="stroke: #383838; stroke-width: 1.0;"/><line style="stroke: #383838; stroke-width: 1.0;" x1="56.5" x2="388.5" y1="160.5781" y2="160.5781"/><text fill="#000000" font-family="sans-serif" font-size="13" lengthAdjust="spacingAndGlyphs" textLength="314" x="63.5" y="155.645">Consulter la liste des contacts à traiter de l'agent</text><polygon fill="#383838" points="803.5,200.7109,813.5,204.7109,803.5,208.7109,807.5,204.7109" style="stroke: #383838; stroke-width: 1.0;"/><line style="stroke: #383838; stroke-width: 1.0;" x1="394.5" x2="809.5" y1="204.7109" y2="204.7109"/><text fill="#000000" font-family="sans-serif" font-size="13" lengthAdjust="spacingAndGlyphs" textLength="213" x="401.5" y="184.7778">ObtenirContactsATraiter(idAgent)</text><text fill="#000000" font-family="sans-serif" font-size="13" lengthAdjust="spacingAndGlyphs" textLength="296" x="401.5" y="199.9106">: Liste &lt;Contact, PlageAgenda, Agent, Client&gt;</text><polygon fill="#383838" points="1224.5,244.9766,1234.5,248.9766,1224.5,252.9766,1228.5,248.9766" style="stroke: #383838; stroke-width: 1.0;"/><line style="stroke: #383838; stroke-width: 1.0;" x1="815.5" x2="1230.5" y1="248.9766" y2="248.9766"/><text fill="#000000" font-family="sans-serif" font-size="13" lengthAdjust="spacingAndGlyphs" textLength="213" x="822.5" y="229.0435">ObtenirContactsATraiter(idAgent)</text><text fill="#000000" font-family="sans-serif" font-size="13" lengthAdjust="spacingAndGlyphs" textLength="110" x="822.5" y="244.1763">: Liste&lt;Contact&gt;</text><rect fill="none" height="149.9297" style="stroke: #000000; stroke-width: 1.0;" width="410.5" x="1192.5" y="264.2422"/><polygon fill="#EEEEEE" points="1192.5,264.2422,1269.5,264.2422,1269.5,271.2422,1259.5,281.2422,1192.5,281.2422,1192.5,264.2422" style="stroke: #000000; stroke-width: 1.0;"/><text fill="#000000" font-family="sans-serif" font-size="13" font-weight="bold" lengthAdjust="spacingAndGlyphs" textLength="32" x="1207.5" y="277.3091">loop</text><text fill="#000000" font-family="sans-serif" font-size="11" font-weight="bold" lengthAdjust="spacingAndGlyphs" textLength="142" x="1284.5" y="276.4526">[Pour chaque contact]</text><polygon fill="#383838" points="1392.5,313.375,1402.5,317.375,1392.5,321.375,1396.5,317.375" style="stroke: #383838; stroke-width: 1.0;"/><line style="stroke: #383838; stroke-width: 1.0;" x1="1236.5" x2="1398.5" y1="317.375" y2="317.375"/><text fill="#000000" font-family="sans-serif" font-size="13" lengthAdjust="spacingAndGlyphs" textLength="144" x="1243.5" y="297.4419">ObtenirAgent(idAgent)</text><text fill="#000000" font-family="sans-serif" font-size="13" lengthAdjust="spacingAndGlyphs" textLength="46" x="1243.5" y="312.5747">: Agent</text><polygon fill="#383838" points="1484.5,357.6406,1494.5,361.6406,1484.5,365.6406,1488.5,361.6406" style="stroke: #383838; stroke-width: 1.0;"/><line style="stroke: #383838; stroke-width: 1.0;" x1="1236.5" x2="1490.5" y1="361.6406" y2="361.6406"/><text fill="#000000" font-family="sans-serif" font-size="13" lengthAdjust="spacingAndGlyphs" textLength="236" x="1243.5" y="341.7075">ObtenirPlageAgenda(idPlageAgenda)</text><text fill="#000000" font-family="sans-serif" font-size="13" lengthAdjust="spacingAndGlyphs" textLength="92" x="1243.5" y="356.8403">: PlageAgenda</text><polygon fill="#383838" points="1554.5,401.9063,1564.5,405.9063,1554.5,409.9063,1558.5,405.9063" style="stroke: #383838; stroke-width: 1.0;"/><line style="stroke: #383838; stroke-width: 1.0;" x1="1236.5" x2="1560.5" y1="405.9063" y2="405.9063"/><text fill="#000000" font-family="sans-serif" font-size="13" lengthAdjust="spacingAndGlyphs" textLength="140" x="1243.5" y="385.9731">ObtenirClient(idClient)</text><text fill="#000000" font-family="sans-serif" font-size="13" lengthAdjust="spacingAndGlyphs" textLength="44" x="1243.5" y="401.106">: Client</text><polygon fill="#383838" points="382.5,438.1719,392.5,442.1719,382.5,446.1719,386.5,442.1719" style="stroke: #383838; stroke-width: 1.0;"/><line style="stroke: #383838; stroke-width: 1.0;" x1="56.5" x2="388.5" y1="442.1719" y2="442.1719"/><text fill="#000000" font-family="sans-serif" font-size="13" lengthAdjust="spacingAndGlyphs" textLength="152" x="63.5" y="437.2388">Sélectionner un contact</text><rect fill="none" height="874" style="stroke: #000000; stroke-width: 1.0;" width="1663" x="13" y="457.3047"/><polygon fill="#EEEEEE" points="13,457.3047,77,457.3047,77,464.3047,67,474.3047,13,474.3047,13,457.3047" style="stroke: #000000; stroke-width: 1.0;"/><text fill="#000000" font-family="sans-serif" font-size="13" font-weight="bold" lengthAdjust="spacingAndGlyphs" textLength="19" x="28" y="470.3716">alt</text><text fill="#000000" font-family="sans-serif" font-size="11" font-weight="bold" lengthAdjust="spacingAndGlyphs" textLength="297" x="92" y="469.5151">[sélection d'autres contacts d'un même client]</text><polygon fill="#383838" points="382.5,491.4375,392.5,495.4375,382.5,499.4375,386.5,495.4375" style="stroke: #383838; stroke-width: 1.0;"/><line style="stroke: #383838; stroke-width: 1.0;" x1="56.5" x2="388.5" y1="495.4375" y2="495.4375"/><text fill="#000000" font-family="sans-serif" font-size="13" lengthAdjust="spacingAndGlyphs" textLength="166" x="63.5" y="490.5044">Sélectionner des contacts</text><polygon fill="#383838" points="382.5,535.5703,392.5,539.5703,382.5,543.5703,386.5,539.5703" style="stroke: #383838; stroke-width: 1.0;"/><line style="stroke: #383838; stroke-width: 1.0;" x1="56.5" x2="388.5" y1="539.5703" y2="539.5703"/><text fill="#000000" font-family="sans-serif" font-size="13" lengthAdjust="spacingAndGlyphs" textLength="147" x="63.5" y="519.6372">Regrouper les contacts</text><text fill="#000000" font-family="sans-serif" font-size="13" lengthAdjust="spacingAndGlyphs" textLength="104" x="63.5" y="534.77">(si même client)</text><polygon fill="#383838" points="803.5,579.8359,813.5,583.8359,803.5,587.8359,807.5,583.8359" style="stroke: #383838; stroke-width: 1.0;"/><line style="stroke: #383838; stroke-width: 1.0;" x1="394.5" x2="809.5" y1="583.8359" y2="583.8359"/><text fill="#000000" font-family="sans-serif" font-size="13" lengthAdjust="spacingAndGlyphs" textLength="397" x="401.5" y="563.9028">GrouperContacts(idContactPrincipal, Liste&lt;idContactPrevus&gt;)</text><text fill="#000000" font-family="sans-serif" font-size="13" lengthAdjust="spacingAndGlyphs" textLength="34" x="401.5" y="579.0356">: void</text><polygon fill="#383838" points="1224.5,624.1016,1234.5,628.1016,1224.5,632.1016,1228.5,628.1016" style="stroke: #383838; stroke-width: 1.0;"/><line style="stroke: #383838; stroke-width: 1.0;" x1="815.5" x2="1230.5" y1="628.1016" y2="628.1016"/><text fill="#000000" font-family="sans-serif" font-size="13" lengthAdjust="spacingAndGlyphs" textLength="397" x="822.5" y="608.1685">GrouperContacts(idContactPrincipal, Liste&lt;idContactPrevus&gt;)</text><text fill="#000000" font-family="sans-serif" font-size="13" lengthAdjust="spacingAndGlyphs" textLength="34" x="822.5" y="623.3013">: void</text><line style="stroke: #000000; stroke-width: 1.0; stroke-dasharray: 2.0,2.0;" x1="13" x2="1676" y1="637.3672" y2="637.3672"/><text fill="#000000" font-family="sans-serif" font-size="11" font-weight="bold" lengthAdjust="spacingAndGlyphs" textLength="183" x="18" y="647.5776">[sélection d'un seul contact]</text><polygon fill="#383838" points="382.5,668.1719,392.5,672.1719,382.5,676.1719,386.5,672.1719" style="stroke: #383838; stroke-width: 1.0;"/><line style="stroke: #383838; stroke-width: 1.0;" x1="56.5" x2="388.5" y1="672.1719" y2="672.1719"/><text fill="#000000" font-family="sans-serif" font-size="13" lengthAdjust="spacingAndGlyphs" textLength="198" x="63.5" y="667.2388">Consulter le détail d'un contact</text><polygon fill="#383838" points="803.5,727.3047,813.5,731.3047,803.5,735.3047,807.5,731.3047" style="stroke: #383838; stroke-width: 1.0;"/><line style="stroke: #383838; stroke-width: 1.0;" x1="394.5" x2="809.5" y1="731.3047" y2="731.3047"/><text fill="#000000" font-family="sans-serif" font-size="13" lengthAdjust="spacingAndGlyphs" textLength="212" x="401.5" y="696.3716">ObtenirDetailsContact(idContact)</text><text fill="#000000" font-family="sans-serif" font-size="13" lengthAdjust="spacingAndGlyphs" textLength="258" x="401.5" y="711.5044">: contact, motifDeContact, Client, agent,</text><text fill="#000000" font-family="sans-serif" font-size="13" lengthAdjust="spacingAndGlyphs" textLength="352" x="401.5" y="726.6372">Liste&lt;PropositionCommerciale, Offre, Liste&lt;Produit&gt;&gt;</text><polygon fill="#383838" points="1224.5,786.7031,1234.5,790.7031,1224.5,794.7031,1228.5,790.7031" style="stroke: #383838; stroke-width: 1.0;"/><line style="stroke: #383838; stroke-width: 1.0;" x1="815.5" x2="1230.5" y1="790.7031" y2="790.7031"/><text fill="#000000" font-family="sans-serif" font-size="13" lengthAdjust="spacingAndGlyphs" textLength="212" x="822.5" y="755.77">ObtenirDetailsContact(idContact)</text><text fill="#000000" font-family="sans-serif" font-size="13" lengthAdjust="spacingAndGlyphs" textLength="281" x="822.5" y="770.9028">: Contact, MotifDeContact, idClient, idAgent,</text><text fill="#000000" font-family="sans-serif" font-size="13" lengthAdjust="spacingAndGlyphs" textLength="258" x="822.5" y="786.0356">Liste&lt;PropositionCommerciale, idOffre&gt;</text><polygon fill="#383838" points="1554.5,831.1016,1564.5,835.1016,1554.5,839.1016,1558.5,835.1016" style="stroke: #383838; stroke-width: 1.0;"/><line style="stroke: #383838; stroke-width: 1.0;" x1="1236.5" x2="1560.5" y1="835.1016" y2="835.1016"/><text fill="#000000" font-family="sans-serif" font-size="13" lengthAdjust="spacingAndGlyphs" textLength="140" x="1243.5" y="815.1685">ObtenirClient(idClient)</text><text fill="#000000" font-family="sans-serif" font-size="13" lengthAdjust="spacingAndGlyphs" textLength="44" x="1243.5" y="830.3013">: Client</text><polygon fill="#383838" points="1392.5,875.3672,1402.5,879.3672,1392.5,883.3672,1396.5,879.3672" style="stroke: #383838; stroke-width: 1.0;"/><line style="stroke: #383838; stroke-width: 1.0;" x1="1236.5" x2="1398.5" y1="879.3672" y2="879.3672"/><text fill="#000000" font-family="sans-serif" font-size="13" lengthAdjust="spacingAndGlyphs" textLength="144" x="1243.5" y="859.4341">ObtenirAgent(idAgent)</text><text fill="#000000" font-family="sans-serif" font-size="13" lengthAdjust="spacingAndGlyphs" textLength="46" x="1243.5" y="874.5669">: Agent</text><polygon fill="#383838" points="1622.5,919.6328,1632.5,923.6328,1622.5,927.6328,1626.5,923.6328" style="stroke: #383838; stroke-width: 1.0;"/><line style="stroke: #383838; stroke-width: 1.0;" x1="1236.5" x2="1628.5" y1="923.6328" y2="923.6328"/><text fill="#000000" font-family="sans-serif" font-size="13" lengthAdjust="spacingAndGlyphs" textLength="167" x="1243.5" y="903.6997">ObtenirDetailOffre(idOffre)</text><text fill="#000000" font-family="sans-serif" font-size="13" lengthAdjust="spacingAndGlyphs" textLength="144" x="1243.5" y="918.8325">: Offre, Liste&lt;Produit&gt;</text><rect fill="none" height="385.4063" style="stroke: #000000; stroke-width: 1.0;" width="1517" x="23" y="938.8984"/><polygon fill="#EEEEEE" points="23,938.8984,87,938.8984,87,945.8984,77,955.8984,23,955.8984,23,938.8984" style="stroke: #000000; stroke-width: 1.0;"/><text fill="#000000" font-family="sans-serif" font-size="13" font-weight="bold" lengthAdjust="spacingAndGlyphs" textLength="19" x="38" y="951.9653">alt</text><text fill="#000000" font-family="sans-serif" font-size="11" font-weight="bold" lengthAdjust="spacingAndGlyphs" textLength="131" x="102" y="951.1089">[annulation contact]</text><polygon fill="#383838" points="382.5,973.0313,392.5,977.0313,382.5,981.0313,386.5,977.0313" style="stroke: #383838; stroke-width: 1.0;"/><line style="stroke: #383838; stroke-width: 1.0;" x1="56.5" x2="388.5" y1="977.0313" y2="977.0313"/><text fill="#000000" font-family="sans-serif" font-size="13" lengthAdjust="spacingAndGlyphs" textLength="169" x="63.5" y="972.0981">Saisir le motif d'annulation</text><polygon fill="#383838" points="382.5,1002.1641,392.5,1006.1641,382.5,1010.1641,386.5,1006.1641" style="stroke: #383838; stroke-width: 1.0;"/><line style="stroke: #383838; stroke-width: 1.0;" x1="56.5" x2="388.5" y1="1006.1641" y2="1006.1641"/><text fill="#000000" font-family="sans-serif" font-size="13" lengthAdjust="spacingAndGlyphs" textLength="116" x="63.5" y="1001.231">Annuler le contact</text><polygon fill="#383838" points="803.5,1046.2969,813.5,1050.2969,803.5,1054.2969,807.5,1050.2969" style="stroke: #383838; stroke-width: 1.0;"/><line style="stroke: #383838; stroke-width: 1.0;" x1="394.5" x2="809.5" y1="1050.2969" y2="1050.2969"/><text fill="#000000" font-family="sans-serif" font-size="13" lengthAdjust="spacingAndGlyphs" textLength="211" x="401.5" y="1030.3638">AnnulerContact(idContact, motif)</text><text fill="#000000" font-family="sans-serif" font-size="13" lengthAdjust="spacingAndGlyphs" textLength="34" x="401.5" y="1045.4966">: void</text><polygon fill="#383838" points="1224.5,1090.5625,1234.5,1094.5625,1224.5,1098.5625,1228.5,1094.5625" style="stroke: #383838; stroke-width: 1.0;"/><line style="stroke: #383838; stroke-width: 1.0;" x1="815.5" x2="1230.5" y1="1094.5625" y2="1094.5625"/><text fill="#000000" font-family="sans-serif" font-size="13" lengthAdjust="spacingAndGlyphs" textLength="211" x="822.5" y="1074.6294">AnnulerContact(idContact, motif)</text><text fill="#000000" font-family="sans-serif" font-size="13" lengthAdjust="spacingAndGlyphs" textLength="34" x="822.5" y="1089.7622">: void</text><polygon fill="#383838" points="1484.5,1134.8281,1494.5,1138.8281,1484.5,1142.8281,1488.5,1138.8281" style="stroke: #383838; stroke-width: 1.0;"/><line style="stroke: #383838; stroke-width: 1.0;" x1="815.5" x2="1490.5" y1="1138.8281" y2="1138.8281"/><text fill="#000000" font-family="sans-serif" font-size="13" lengthAdjust="spacingAndGlyphs" textLength="211" x="822.5" y="1118.895">AnnulerContact(idContact, motif)</text><text fill="#000000" font-family="sans-serif" font-size="13" lengthAdjust="spacingAndGlyphs" textLength="34" x="822.5" y="1134.0278">: void</text><line style="stroke: #000000; stroke-width: 1.0; stroke-dasharray: 2.0,2.0;" x1="23" x2="1540" y1="1148.0938" y2="1148.0938"/><text fill="#000000" font-family="sans-serif" font-size="11" font-weight="bold" lengthAdjust="spacingAndGlyphs" textLength="71" x="28" y="1158.3042">[prise RDV]</text><polygon fill="#383838" points="382.5,1193.8984,392.5,1197.8984,382.5,1201.8984,386.5,1197.8984" style="stroke: #383838; stroke-width: 1.0;"/><line style="stroke: #383838; stroke-width: 1.0;" x1="56.5" x2="388.5" y1="1197.8984" y2="1197.8984"/><text fill="#000000" font-family="sans-serif" font-size="13" lengthAdjust="spacingAndGlyphs" textLength="81" x="63.5" y="1177.9653">Prendre RDV</text><text fill="#000000" font-family="sans-serif" font-size="13" lengthAdjust="spacingAndGlyphs" textLength="41" x="63.5" y="1193.0981">(CU 6)</text><line style="stroke: #000000; stroke-width: 1.0; stroke-dasharray: 2.0,2.0;" x1="23" x2="1540" y1="1207.1641" y2="1207.1641"/><text fill="#000000" font-family="sans-serif" font-size="11" font-weight="bold" lengthAdjust="spacingAndGlyphs" textLength="114" x="28" y="1217.3745">[preparation RDV]</text><polygon fill="#383838" points="382.5,1252.9688,392.5,1256.9688,382.5,1260.9688,386.5,1256.9688" style="stroke: #383838; stroke-width: 1.0;"/><line style="stroke: #383838; stroke-width: 1.0;" x1="56.5" x2="388.5" y1="1256.9688" y2="1256.9688"/><text fill="#000000" font-family="sans-serif" font-size="13" lengthAdjust="spacingAndGlyphs" textLength="101" x="63.5" y="1237.0356">Preparer le RDV</text><text fill="#000000" font-family="sans-serif" font-size="13" lengthAdjust="spacingAndGlyphs" textLength="41" x="63.5" y="1252.1685">(CU 8)</text><line style="stroke: #000000; stroke-width: 1.0; stroke-dasharray: 2.0,2.0;" x1="23" x2="1540" y1="1266.2344" y2="1266.2344"/><text fill="#000000" font-family="sans-serif" font-size="11" font-weight="bold" lengthAdjust="spacingAndGlyphs" textLength="95" x="28" y="1276.4448">[conduire RDV]</text><polygon fill="#383838" points="382.5,1312.0391,392.5,1316.0391,382.5,1320.0391,386.5,1316.0391" style="stroke: #383838; stroke-width: 1.0;"/><line style="stroke: #383838; stroke-width: 1.0;" x1="56.5" x2="388.5" y1="1316.0391" y2="1316.0391"/><text fill="#000000" font-family="sans-serif" font-size="13" lengthAdjust="spacingAndGlyphs" textLength="103" x="63.5" y="1296.106">Conduire le RDV</text><text fill="#000000" font-family="sans-serif" font-size="13" lengthAdjust="spacingAndGlyphs" textLength="41" x="63.5" y="1311.2388">(CU 9)</text></g></svg>