<?xml version="1.0" encoding="UTF-8" standalone="yes"?><svg xmlns="http://www.w3.org/2000/svg" xmlns:xlink="http://www.w3.org/1999/xlink" height="992px" style="width:1564px;height:992px;" version="1.1" viewBox="0 0 1564 992" width="1564px"><defs/><g><text fill="#000000" font-family="sans-serif" font-size="20" lengthAdjust="spacingAndGlyphs" textLength="418" x="579.25" y="28.5645">Diagramme de séquence détaillé du CU 2</text><line style="stroke: none; stroke-width: 1.0;" x1="579.25" x2="997.25" y1="38.2813" y2="38.2813"/><rect fill="#FFFFFF" height="149.9297" style="stroke: #000000; stroke-width: 1.0;" width="441.5" x="1122" y="279.375"/><line style="stroke: #383838; stroke-width: 1.0; stroke-dasharray: 5.0,5.0;" x1="61" x2="61" y1="129.5781" y2="915.8281"/><line style="stroke: #383838; stroke-width: 1.0; stroke-dasharray: 5.0,5.0;" x1="342.5" x2="342.5" y1="129.5781" y2="915.8281"/><line style="stroke: #383838; stroke-width: 1.0; stroke-dasharray: 5.0,5.0;" x1="786" x2="786" y1="129.5781" y2="915.8281"/><line style="stroke: #383838; stroke-width: 1.0; stroke-dasharray: 5.0,5.0;" x1="1166" x2="1166" y1="129.5781" y2="915.8281"/><line style="stroke: #383838; stroke-width: 1.0; stroke-dasharray: 5.0,5.0;" x1="1334" x2="1334" y1="129.5781" y2="915.8281"/><line style="stroke: #383838; stroke-width: 1.0; stroke-dasharray: 5.0,5.0;" x1="1456.5" x2="1456.5" y1="129.5781" y2="915.8281"/><line style="stroke: #383838; stroke-width: 1.0; stroke-dasharray: 5.0,5.0;" x1="1526.5" x2="1526.5" y1="129.5781" y2="915.8281"/><text fill="#000000" font-family="sans-serif" font-size="14" lengthAdjust="spacingAndGlyphs" textLength="100" x="8" y="126.2764">Chef d'agence</text><ellipse cx="61" cy="60.2813" fill="#F8F8F8" rx="8" ry="8" style="stroke: #383838; stroke-width: 2.0;"/><path d="M61,68.2813 L61,95.2813 M48,76.2813 L74,76.2813 M61,95.2813 L48,110.2813 M61,95.2813 L74,110.2813 " fill="#F8F8F8" style="stroke: #383838; stroke-width: 2.0;"/><text fill="#000000" font-family="sans-serif" font-size="14" lengthAdjust="spacingAndGlyphs" textLength="100" x="8" y="927.8232">Chef d'agence</text><ellipse cx="61" cy="941.125" fill="#F8F8F8" rx="8" ry="8" style="stroke: #383838; stroke-width: 2.0;"/><path d="M61,949.125 L61,976.125 M48,957.125 L74,957.125 M61,976.125 L48,991.125 M61,976.125 L74,991.125 " fill="#F8F8F8" style="stroke: #383838; stroke-width: 2.0;"/><rect fill="#F8F8F8" height="30.2969" style="stroke: #383838; stroke-width: 1.0;" width="39" x="323.5" y="98.2813"/><text fill="#000000" font-family="sans-serif" font-size="14" lengthAdjust="spacingAndGlyphs" textLength="25" x="330.5" y="118.2764">IHM</text><rect fill="#F8F8F8" height="30.2969" style="stroke: #383838; stroke-width: 1.0;" width="39" x="323.5" y="914.8281"/><text fill="#000000" font-family="sans-serif" font-size="14" lengthAdjust="spacingAndGlyphs" textLength="25" x="330.5" y="934.8232">IHM</text><rect fill="#F8F8F8" height="30.2969" style="stroke: #383838; stroke-width: 1.0;" width="44" x="764" y="98.2813"/><text fill="#000000" font-family="sans-serif" font-size="14" lengthAdjust="spacingAndGlyphs" textLength="30" x="771" y="118.2764">SMA</text><rect fill="#F8F8F8" height="30.2969" style="stroke: #383838; stroke-width: 1.0;" width="44" x="764" y="914.8281"/><text fill="#000000" font-family="sans-serif" font-size="14" lengthAdjust="spacingAndGlyphs" textLength="30" x="771" y="934.8232">SMA</text><rect fill="#F8F8F8" height="30.2969" style="stroke: #383838; stroke-width: 1.0;" width="68" x="1132" y="98.2813"/><text fill="#000000" font-family="sans-serif" font-size="14" lengthAdjust="spacingAndGlyphs" textLength="54" x="1139" y="118.2764">Contact</text><rect fill="#F8F8F8" height="30.2969" style="stroke: #383838; stroke-width: 1.0;" width="68" x="1132" y="914.8281"/><text fill="#000000" font-family="sans-serif" font-size="14" lengthAdjust="spacingAndGlyphs" textLength="54" x="1139" y="934.8232">Contact</text><rect fill="#F8F8F8" height="30.2969" style="stroke: #383838; stroke-width: 1.0;" width="78" x="1295" y="98.2813"/><text fill="#000000" font-family="sans-serif" font-size="14" lengthAdjust="spacingAndGlyphs" textLength="64" x="1302" y="118.2764">Structure</text><rect fill="#F8F8F8" height="30.2969" style="stroke: #383838; stroke-width: 1.0;" width="78" x="1295" y="914.8281"/><text fill="#000000" font-family="sans-serif" font-size="14" lengthAdjust="spacingAndGlyphs" textLength="64" x="1302" y="934.8232">Structure</text><rect fill="#F8F8F8" height="30.2969" style="stroke: #383838; stroke-width: 1.0;" width="67" x="1423.5" y="98.2813"/><text fill="#000000" font-family="sans-serif" font-size="14" lengthAdjust="spacingAndGlyphs" textLength="53" x="1430.5" y="118.2764">Agenda</text><rect fill="#F8F8F8" height="30.2969" style="stroke: #383838; stroke-width: 1.0;" width="67" x="1423.5" y="914.8281"/><text fill="#000000" font-family="sans-serif" font-size="14" lengthAdjust="spacingAndGlyphs" textLength="53" x="1430.5" y="934.8232">Agenda</text><rect fill="#F8F8F8" height="30.2969" style="stroke: #383838; stroke-width: 1.0;" width="53" x="1500.5" y="98.2813"/><text fill="#000000" font-family="sans-serif" font-size="14" lengthAdjust="spacingAndGlyphs" textLength="39" x="1507.5" y="118.2764">Client</text><rect fill="#F8F8F8" height="30.2969" style="stroke: #383838; stroke-width: 1.0;" width="53" x="1500.5" y="914.8281"/><text fill="#000000" font-family="sans-serif" font-size="14" lengthAdjust="spacingAndGlyphs" textLength="39" x="1507.5" y="934.8232">Client</text><polygon fill="#383838" points="331,171.5781,341,175.5781,331,179.5781,335,175.5781" style="stroke: #383838; stroke-width: 1.0;"/><line style="stroke: #383838; stroke-width: 1.0;" x1="61" x2="337" y1="175.5781" y2="175.5781"/><text fill="#000000" font-family="sans-serif" font-size="13" lengthAdjust="spacingAndGlyphs" textLength="192" x="68" y="155.645">Consulter la liste des contacts</text><text fill="#000000" font-family="sans-serif" font-size="13" lengthAdjust="spacingAndGlyphs" textLength="120" x="72" y="170.7778">prévus de l'agence</text><polygon fill="#383838" points="774,215.8438,784,219.8438,774,223.8438,778,219.8438" style="stroke: #383838; stroke-width: 1.0;"/><line style="stroke: #383838; stroke-width: 1.0;" x1="343" x2="780" y1="219.8438" y2="219.8438"/><text fill="#000000" font-family="sans-serif" font-size="13" lengthAdjust="spacingAndGlyphs" textLength="257" x="350" y="199.9106">SM2 - ObtenirContactsPrevus(idAgence)</text><text fill="#000000" font-family="sans-serif" font-size="13" lengthAdjust="spacingAndGlyphs" textLength="419" x="350" y="215.0435">: Liste &lt;Contact, PlageAgenda, TacheElementaire, Agent, Client&gt;</text><polygon fill="#383838" points="1154,260.1094,1164,264.1094,1154,268.1094,1158,264.1094" style="stroke: #383838; stroke-width: 1.0;"/><line style="stroke: #383838; stroke-width: 1.0;" x1="786" x2="1160" y1="264.1094" y2="264.1094"/><text fill="#000000" font-family="sans-serif" font-size="13" lengthAdjust="spacingAndGlyphs" textLength="221" x="793" y="244.1763">ObtenirContactsAgence(idAgence)</text><text fill="#000000" font-family="sans-serif" font-size="13" lengthAdjust="spacingAndGlyphs" textLength="356" x="793" y="259.3091">: Liste&lt;Contact, idAgent, idTacheElementaire, idClient&gt;</text><rect fill="none" height="149.9297" style="stroke: #000000; stroke-width: 1.0;" width="441.5" x="1122" y="279.375"/><polygon fill="#EEEEEE" points="1122,279.375,1199,279.375,1199,286.375,1189,296.375,1122,296.375,1122,279.375" style="stroke: #000000; stroke-width: 1.0;"/><text fill="#000000" font-family="sans-serif" font-size="13" font-weight="bold" lengthAdjust="spacingAndGlyphs" textLength="32" x="1137" y="292.4419">loop</text><text fill="#000000" font-family="sans-serif" font-size="11" font-weight="bold" lengthAdjust="spacingAndGlyphs" textLength="142" x="1214" y="291.5854">[Pour chaque contact]</text><polygon fill="#383838" points="1322,328.5078,1332,332.5078,1322,336.5078,1326,332.5078" style="stroke: #383838; stroke-width: 1.0;"/><line style="stroke: #383838; stroke-width: 1.0;" x1="1166" x2="1328" y1="332.5078" y2="332.5078"/><text fill="#000000" font-family="sans-serif" font-size="13" lengthAdjust="spacingAndGlyphs" textLength="144" x="1173" y="312.5747">ObtenirAgent(idAgent)</text><text fill="#000000" font-family="sans-serif" font-size="13" lengthAdjust="spacingAndGlyphs" textLength="46" x="1173" y="327.7075">: Agent</text><polygon fill="#383838" points="1445,372.7734,1455,376.7734,1445,380.7734,1449,376.7734" style="stroke: #383838; stroke-width: 1.0;"/><line style="stroke: #383838; stroke-width: 1.0;" x1="1166" x2="1451" y1="376.7734" y2="376.7734"/><text fill="#000000" font-family="sans-serif" font-size="13" lengthAdjust="spacingAndGlyphs" textLength="267" x="1173" y="356.8403">ObtenirPlageAgenda(idTacheElementaire)</text><text fill="#000000" font-family="sans-serif" font-size="13" lengthAdjust="spacingAndGlyphs" textLength="215" x="1173" y="371.9731">: PlageAgenda, TacheElementaire</text><polygon fill="#383838" points="1515,417.0391,1525,421.0391,1515,425.0391,1519,421.0391" style="stroke: #383838; stroke-width: 1.0;"/><line style="stroke: #383838; stroke-width: 1.0;" x1="1166" x2="1521" y1="421.0391" y2="421.0391"/><text fill="#000000" font-family="sans-serif" font-size="13" lengthAdjust="spacingAndGlyphs" textLength="140" x="1173" y="401.106">ObtenirClient(idClient)</text><text fill="#000000" font-family="sans-serif" font-size="13" lengthAdjust="spacingAndGlyphs" textLength="44" x="1173" y="416.2388">: Client</text><polygon fill="#383838" points="331,453.3047,341,457.3047,331,461.3047,335,457.3047" style="stroke: #383838; stroke-width: 1.0;"/><line style="stroke: #383838; stroke-width: 1.0;" x1="61" x2="337" y1="457.3047" y2="457.3047"/><text fill="#000000" font-family="sans-serif" font-size="13" lengthAdjust="spacingAndGlyphs" textLength="152" x="68" y="452.3716">Sélectionner un contact</text><polygon fill="#383838" points="331,497.4375,341,501.4375,331,505.4375,335,501.4375" style="stroke: #383838; stroke-width: 1.0;"/><line style="stroke: #383838; stroke-width: 1.0;" x1="61" x2="337" y1="501.4375" y2="501.4375"/><text fill="#000000" font-family="sans-serif" font-size="13" lengthAdjust="spacingAndGlyphs" textLength="198" x="68" y="481.5044">Consulter le détail d'un contact</text><text fill="#000000" font-family="sans-serif" font-size="13" lengthAdjust="spacingAndGlyphs" textLength="41" x="68" y="496.6372">(CU 4)</text><polygon fill="#383838" points="331,526.7031,341,530.7031,331,534.7031,335,530.7031" style="stroke: #383838; stroke-width: 1.0;"/><line style="stroke: #383838; stroke-width: 1.0;" x1="61" x2="337" y1="530.7031" y2="530.7031"/><text fill="#000000" font-family="sans-serif" font-size="13" lengthAdjust="spacingAndGlyphs" textLength="236" x="68" y="525.77">Consulter le dossier client du contact</text><polygon fill="#383838" points="774,555.8359,784,559.8359,774,563.8359,778,559.8359" style="stroke: #383838; stroke-width: 1.0;"/><line style="stroke: #383838; stroke-width: 1.0;" x1="343" x2="780" y1="559.8359" y2="559.8359"/><text fill="#000000" font-family="sans-serif" font-size="13" lengthAdjust="spacingAndGlyphs" textLength="311" x="350" y="554.9028">SM3 - ObtenirClientDuContact(idContact) : Client</text><polygon fill="#383838" points="1515,584.9688,1525,588.9688,1515,592.9688,1519,588.9688" style="stroke: #383838; stroke-width: 1.0;"/><line style="stroke: #383838; stroke-width: 1.0;" x1="786" x2="1521" y1="588.9688" y2="588.9688"/><text fill="#000000" font-family="sans-serif" font-size="13" lengthAdjust="spacingAndGlyphs" textLength="270" x="793" y="584.0356">ObtenirClientDuContact(idContact) : Client</text><polygon fill="#383838" points="331,614.1016,341,618.1016,331,622.1016,335,618.1016" style="stroke: #383838; stroke-width: 1.0;"/><line style="stroke: #383838; stroke-width: 1.0;" x1="61" x2="337" y1="618.1016" y2="618.1016"/><text fill="#000000" font-family="sans-serif" font-size="13" lengthAdjust="spacingAndGlyphs" textLength="258" x="68" y="613.1685">Consulter la liste des agents de l'agence</text><polygon fill="#383838" points="774,658.2344,784,662.2344,774,666.2344,778,662.2344" style="stroke: #383838; stroke-width: 1.0;"/><line style="stroke: #383838; stroke-width: 1.0;" x1="343" x2="780" y1="662.2344" y2="662.2344"/><text fill="#000000" font-family="sans-serif" font-size="13" lengthAdjust="spacingAndGlyphs" textLength="202" x="350" y="642.3013">SM4 - ObtenirAgents(idAgence)</text><text fill="#000000" font-family="sans-serif" font-size="13" lengthAdjust="spacingAndGlyphs" textLength="98" x="350" y="657.4341">: Liste&lt;Agent&gt;</text><polygon fill="#383838" points="1322,702.5,1332,706.5,1322,710.5,1326,706.5" style="stroke: #383838; stroke-width: 1.0;"/><line style="stroke: #383838; stroke-width: 1.0;" x1="786" x2="1328" y1="706.5" y2="706.5"/><text fill="#000000" font-family="sans-serif" font-size="13" lengthAdjust="spacingAndGlyphs" textLength="161" x="793" y="686.5669">ObtenirAgents(idAgence)</text><text fill="#000000" font-family="sans-serif" font-size="13" lengthAdjust="spacingAndGlyphs" textLength="98" x="793" y="701.6997">: Liste&lt;Agent&gt;</text><polygon fill="#383838" points="331,731.7656,341,735.7656,331,739.7656,335,735.7656" style="stroke: #383838; stroke-width: 1.0;"/><line style="stroke: #383838; stroke-width: 1.0;" x1="61" x2="337" y1="735.7656" y2="735.7656"/><text fill="#000000" font-family="sans-serif" font-size="13" lengthAdjust="spacingAndGlyphs" textLength="141" x="68" y="730.8325">Sélectionner un agent</text><polygon fill="#383838" points="331,760.8984,341,764.8984,331,768.8984,335,764.8984" style="stroke: #383838; stroke-width: 1.0;"/><line style="stroke: #383838; stroke-width: 1.0;" x1="61" x2="337" y1="764.8984" y2="764.8984"/><text fill="#000000" font-family="sans-serif" font-size="13" lengthAdjust="spacingAndGlyphs" textLength="253" x="68" y="759.9653">Affecter le contact à l'agent sélectionné</text><polygon fill="#383838" points="774,805.0313,784,809.0313,774,813.0313,778,809.0313" style="stroke: #383838; stroke-width: 1.0;"/><line style="stroke: #383838; stroke-width: 1.0;" x1="343" x2="780" y1="809.0313" y2="809.0313"/><text fill="#000000" font-family="sans-serif" font-size="13" lengthAdjust="spacingAndGlyphs" textLength="413" x="350" y="789.0981">SM5 - AffecterContact(idContact, idAncienAgent, idNouvelAgent)</text><text fill="#000000" font-family="sans-serif" font-size="13" lengthAdjust="spacingAndGlyphs" textLength="34" x="350" y="804.231">: void</text><polygon fill="#383838" points="1154,849.2969,1164,853.2969,1154,857.2969,1158,853.2969" style="stroke: #383838; stroke-width: 1.0;"/><line style="stroke: #383838; stroke-width: 1.0;" x1="786" x2="1160" y1="853.2969" y2="853.2969"/><text fill="#000000" font-family="sans-serif" font-size="13" lengthAdjust="spacingAndGlyphs" textLength="228" x="793" y="833.3638">AffecterContact(idContact, idAgent)</text><text fill="#000000" font-family="sans-serif" font-size="13" lengthAdjust="spacingAndGlyphs" textLength="34" x="793" y="848.4966">: void</text><polygon fill="#383838" points="1322,893.5625,1332,897.5625,1322,901.5625,1326,897.5625" style="stroke: #383838; stroke-width: 1.0;"/><line style="stroke: #383838; stroke-width: 1.0;" x1="786" x2="1328" y1="897.5625" y2="897.5625"/><text fill="#000000" font-family="sans-serif" font-size="13" lengthAdjust="spacingAndGlyphs" textLength="405" x="793" y="877.6294">MettreAJourNbContactsAffectes(idAncienAgent, idNouvelAgent)</text><text fill="#000000" font-family="sans-serif" font-size="13" lengthAdjust="spacingAndGlyphs" textLength="34" x="793" y="892.7622">: void</text></g></svg>