<?xml version="1.0" encoding="UTF-8" standalone="yes"?><svg xmlns="http://www.w3.org/2000/svg" xmlns:xlink="http://www.w3.org/1999/xlink" height="768px" style="width:788px;height:768px;" version="1.1" viewBox="0 0 788 768" width="788px"><defs/><g><text fill="#000000" font-family="sans-serif" font-size="20" lengthAdjust="spacingAndGlyphs" textLength="569" x="113.25" y="28.5645">Diagramme de séquence système du CU 6 (partie client)</text><line style="stroke: none; stroke-width: 1.0;" x1="113.25" x2="682.25" y1="38.2813" y2="38.2813"/><line style="stroke: #383838; stroke-width: 1.0; stroke-dasharray: 5.0,5.0;" x1="31" x2="31" y1="129.5781" y2="692.5"/><line style="stroke: #383838; stroke-width: 1.0; stroke-dasharray: 5.0,5.0;" x1="370" x2="370" y1="129.5781" y2="692.5"/><line style="stroke: #383838; stroke-width: 1.0; stroke-dasharray: 5.0,5.0;" x1="765.5" x2="765.5" y1="129.5781" y2="692.5"/><text fill="#000000" font-family="sans-serif" font-size="14" lengthAdjust="spacingAndGlyphs" textLength="41" x="8" y="126.2764">Agent</text><ellipse cx="31.5" cy="60.2813" fill="#F8F8F8" rx="8" ry="8" style="stroke: #383838; stroke-width: 2.0;"/><path d="M31.5,68.2813 L31.5,95.2813 M18.5,76.2813 L44.5,76.2813 M31.5,95.2813 L18.5,110.2813 M31.5,95.2813 L44.5,110.2813 " fill="#F8F8F8" style="stroke: #383838; stroke-width: 2.0;"/><text fill="#000000" font-family="sans-serif" font-size="14" lengthAdjust="spacingAndGlyphs" textLength="41" x="8" y="704.4951">Agent</text><ellipse cx="31.5" cy="717.7969" fill="#F8F8F8" rx="8" ry="8" style="stroke: #383838; stroke-width: 2.0;"/><path d="M31.5,725.7969 L31.5,752.7969 M18.5,733.7969 L44.5,733.7969 M31.5,752.7969 L18.5,767.7969 M31.5,752.7969 L44.5,767.7969 " fill="#F8F8F8" style="stroke: #383838; stroke-width: 2.0;"/><rect fill="#F8F8F8" height="30.2969" style="stroke: #383838; stroke-width: 1.0;" width="39" x="351" y="98.2813"/><text fill="#000000" font-family="sans-serif" font-size="14" lengthAdjust="spacingAndGlyphs" textLength="25" x="358" y="118.2764">IHM</text><rect fill="#F8F8F8" height="30.2969" style="stroke: #383838; stroke-width: 1.0;" width="39" x="351" y="691.5"/><text fill="#000000" font-family="sans-serif" font-size="14" lengthAdjust="spacingAndGlyphs" textLength="25" x="358" y="711.4951">IHM</text><rect fill="#F8F8F8" height="30.2969" style="stroke: #383838; stroke-width: 1.0;" width="44" x="743.5" y="98.2813"/><text fill="#000000" font-family="sans-serif" font-size="14" lengthAdjust="spacingAndGlyphs" textLength="30" x="750.5" y="118.2764">SMA</text><rect fill="#F8F8F8" height="30.2969" style="stroke: #383838; stroke-width: 1.0;" width="44" x="743.5" y="691.5"/><text fill="#000000" font-family="sans-serif" font-size="14" lengthAdjust="spacingAndGlyphs" textLength="30" x="750.5" y="711.4951">SMA</text><polygon fill="#383838" points="358.5,156.5781,368.5,160.5781,358.5,164.5781,362.5,160.5781" style="stroke: #383838; stroke-width: 1.0;"/><line style="stroke: #383838; stroke-width: 1.0;" x1="31.5" x2="364.5" y1="160.5781" y2="160.5781"/><text fill="#000000" font-family="sans-serif" font-size="13" lengthAdjust="spacingAndGlyphs" textLength="199" x="38.5" y="155.645">Saisir les informations du client</text><polygon fill="#383838" points="358.5,185.7109,368.5,189.7109,358.5,193.7109,362.5,189.7109" style="stroke: #383838; stroke-width: 1.0;"/><line style="stroke: #383838; stroke-width: 1.0;" x1="31.5" x2="364.5" y1="189.7109" y2="189.7109"/><text fill="#000000" font-family="sans-serif" font-size="13" lengthAdjust="spacingAndGlyphs" textLength="125" x="38.5" y="184.7778">Rechercher le client</text><polygon fill="#383838" points="753.5,229.8438,763.5,233.8438,753.5,237.8438,757.5,233.8438" style="stroke: #383838; stroke-width: 1.0;"/><line style="stroke: #383838; stroke-width: 1.0;" x1="370.5" x2="759.5" y1="233.8438" y2="233.8438"/><text fill="#000000" font-family="sans-serif" font-size="13" lengthAdjust="spacingAndGlyphs" textLength="233" x="377.5" y="213.9106">RechercherClient(prenom, nom, etc)</text><text fill="#000000" font-family="sans-serif" font-size="13" lengthAdjust="spacingAndGlyphs" textLength="42" x="377.5" y="229.0435">: client</text><polygon fill="#383838" points="358.5,274.1094,368.5,278.1094,358.5,282.1094,362.5,278.1094" style="stroke: #383838; stroke-width: 1.0;"/><line style="stroke: #383838; stroke-width: 1.0;" x1="31.5" x2="364.5" y1="278.1094" y2="278.1094"/><text fill="#000000" font-family="sans-serif" font-size="13" lengthAdjust="spacingAndGlyphs" textLength="176" x="38.5" y="258.1763">Consulter son dossier client</text><text fill="#000000" font-family="sans-serif" font-size="13" lengthAdjust="spacingAndGlyphs" textLength="49" x="38.5" y="273.3091">(CU 10)</text><polygon fill="#383838" points="358.5,303.375,368.5,307.375,358.5,311.375,362.5,307.375" style="stroke: #383838; stroke-width: 1.0;"/><line style="stroke: #383838; stroke-width: 1.0;" x1="31.5" x2="364.5" y1="307.375" y2="307.375"/><text fill="#000000" font-family="sans-serif" font-size="13" lengthAdjust="spacingAndGlyphs" textLength="183" x="38.5" y="302.4419">Voir les plages agenda libres</text><polygon fill="#383838" points="753.5,347.5078,763.5,351.5078,753.5,355.5078,757.5,351.5078" style="stroke: #383838; stroke-width: 1.0;"/><line style="stroke: #383838; stroke-width: 1.0;" x1="370.5" x2="759.5" y1="351.5078" y2="351.5078"/><text fill="#000000" font-family="sans-serif" font-size="13" lengthAdjust="spacingAndGlyphs" textLength="186" x="377.5" y="331.5747">ObtenirPlagesLibres(idAgent)</text><text fill="#000000" font-family="sans-serif" font-size="13" lengthAdjust="spacingAndGlyphs" textLength="144" x="377.5" y="346.7075">: Liste&lt;PlageAgenda&gt;</text><polygon fill="#383838" points="358.5,376.7734,368.5,380.7734,358.5,384.7734,362.5,380.7734" style="stroke: #383838; stroke-width: 1.0;"/><line style="stroke: #383838; stroke-width: 1.0;" x1="31.5" x2="364.5" y1="380.7734" y2="380.7734"/><text fill="#000000" font-family="sans-serif" font-size="13" lengthAdjust="spacingAndGlyphs" textLength="234" x="38.5" y="375.8403">Saisir les infos concernant le contact</text><polygon fill="#383838" points="358.5,405.9063,368.5,409.9063,358.5,413.9063,362.5,409.9063" style="stroke: #383838; stroke-width: 1.0;"/><line style="stroke: #383838; stroke-width: 1.0;" x1="31.5" x2="364.5" y1="409.9063" y2="409.9063"/><text fill="#000000" font-family="sans-serif" font-size="13" lengthAdjust="spacingAndGlyphs" textLength="166" x="38.5" y="404.9731">Créer un nouveau contact</text><polygon fill="#383838" points="753.5,450.0391,763.5,454.0391,753.5,458.0391,757.5,454.0391" style="stroke: #383838; stroke-width: 1.0;"/><line style="stroke: #383838; stroke-width: 1.0;" x1="370.5" x2="759.5" y1="454.0391" y2="454.0391"/><text fill="#000000" font-family="sans-serif" font-size="13" lengthAdjust="spacingAndGlyphs" textLength="352" x="377.5" y="434.106">CreerContactSpontane(idClient, idAgent, motifContact)</text><text fill="#000000" font-family="sans-serif" font-size="13" lengthAdjust="spacingAndGlyphs" textLength="193" x="377.5" y="449.2388">: contactPrevu, contactRealise</text><polygon fill="#383838" points="358.5,479.3047,368.5,483.3047,358.5,487.3047,362.5,483.3047" style="stroke: #383838; stroke-width: 1.0;"/><line style="stroke: #383838; stroke-width: 1.0;" x1="31.5" x2="364.5" y1="483.3047" y2="483.3047"/><text fill="#000000" font-family="sans-serif" font-size="13" lengthAdjust="spacingAndGlyphs" textLength="315" x="38.5" y="478.3716">Saisir les informations concernant le rendez-vous</text><polygon fill="#383838" points="358.5,508.4375,368.5,512.4375,358.5,516.4375,362.5,512.4375" style="stroke: #383838; stroke-width: 1.0;"/><line style="stroke: #383838; stroke-width: 1.0;" x1="31.5" x2="364.5" y1="512.4375" y2="512.4375"/><text fill="#000000" font-family="sans-serif" font-size="13" lengthAdjust="spacingAndGlyphs" textLength="202" x="38.5" y="507.5044">Créer un rendez-vous spontané</text><polygon fill="#383838" points="753.5,552.5703,763.5,556.5703,753.5,560.5703,757.5,556.5703" style="stroke: #383838; stroke-width: 1.0;"/><line style="stroke: #383838; stroke-width: 1.0;" x1="370.5" x2="759.5" y1="556.5703" y2="556.5703"/><text fill="#000000" font-family="sans-serif" font-size="13" lengthAdjust="spacingAndGlyphs" textLength="371" x="377.5" y="536.6372">CreerRDVSpontane(idContactRealise, date, commentaire)</text><text fill="#000000" font-family="sans-serif" font-size="13" lengthAdjust="spacingAndGlyphs" textLength="92" x="377.5" y="551.77">: plageAgenda</text><polygon fill="#383838" points="358.5,581.8359,368.5,585.8359,358.5,589.8359,362.5,585.8359" style="stroke: #383838; stroke-width: 1.0;"/><line style="stroke: #383838; stroke-width: 1.0;" x1="31.5" x2="364.5" y1="585.8359" y2="585.8359"/><text fill="#000000" font-family="sans-serif" font-size="13" lengthAdjust="spacingAndGlyphs" textLength="281" x="38.5" y="580.9028">Ecrire lettre de confirmation de rendez-vous</text><polygon fill="#383838" points="358.5,625.9688,368.5,629.9688,358.5,633.9688,362.5,629.9688" style="stroke: #383838; stroke-width: 1.0;"/><line style="stroke: #383838; stroke-width: 1.0;" x1="31.5" x2="364.5" y1="629.9688" y2="629.9688"/><text fill="#000000" font-family="sans-serif" font-size="13" lengthAdjust="spacingAndGlyphs" textLength="90" x="38.5" y="610.0356">Editer la lettre</text><text fill="#000000" font-family="sans-serif" font-size="13" lengthAdjust="spacingAndGlyphs" textLength="203" x="38.5" y="625.1685">de confirmation du rendez-vous</text><polygon fill="#383838" points="753.5,670.2344,763.5,674.2344,753.5,678.2344,757.5,674.2344" style="stroke: #383838; stroke-width: 1.0;"/><line style="stroke: #383838; stroke-width: 1.0;" x1="370.5" x2="759.5" y1="674.2344" y2="674.2344"/><text fill="#000000" font-family="sans-serif" font-size="13" lengthAdjust="spacingAndGlyphs" textLength="363" x="377.5" y="654.3013">EnregistrerLettreConfirmationRdv(idContact, texteLettre)</text><text fill="#000000" font-family="sans-serif" font-size="13" lengthAdjust="spacingAndGlyphs" textLength="34" x="377.5" y="669.4341">: void</text></g></svg>