<?xml version="1.0" encoding="UTF-8" standalone="yes"?><svg xmlns="http://www.w3.org/2000/svg" xmlns:xlink="http://www.w3.org/1999/xlink" height="758px" style="width:717px;height:758px;" version="1.1" viewBox="0 0 717 758" width="717px"><defs/><g><text fill="#000000" font-family="sans-serif" font-size="20" lengthAdjust="spacingAndGlyphs" textLength="426" x="151.75" y="28.5645">Diagramme de séquence système du CU 9</text><line style="stroke: none; stroke-width: 1.0;" x1="151.75" x2="577.75" y1="38.2813" y2="38.2813"/><rect fill="#FFFFFF" height="105.6641" style="stroke: #000000; stroke-width: 1.0;" width="703.5" x="13" y="233.9766"/><rect fill="#FFFFFF" height="164.7969" style="stroke: #000000; stroke-width: 1.0;" width="377" x="13" y="411.9063"/><rect fill="#FFFFFF" height="60.2656" style="stroke: none; stroke-width: 1.0;" width="377" x="13" y="516.4375"/><line style="stroke: #383838; stroke-width: 1.0; stroke-dasharray: 5.0,5.0;" x1="46" x2="46" y1="129.5781" y2="682.2344"/><line style="stroke: #383838; stroke-width: 1.0; stroke-dasharray: 5.0,5.0;" x1="360" x2="360" y1="129.5781" y2="682.2344"/><line style="stroke: #383838; stroke-width: 1.0; stroke-dasharray: 5.0,5.0;" x1="684.5" x2="684.5" y1="129.5781" y2="682.2344"/><text fill="#000000" font-family="sans-serif" font-size="14" lengthAdjust="spacingAndGlyphs" textLength="41" x="23" y="126.2764">Agent</text><ellipse cx="46.5" cy="60.2813" fill="#F8F8F8" rx="8" ry="8" style="stroke: #383838; stroke-width: 2.0;"/><path d="M46.5,68.2813 L46.5,95.2813 M33.5,76.2813 L59.5,76.2813 M46.5,95.2813 L33.5,110.2813 M46.5,95.2813 L59.5,110.2813 " fill="#F8F8F8" style="stroke: #383838; stroke-width: 2.0;"/><text fill="#000000" font-family="sans-serif" font-size="14" lengthAdjust="spacingAndGlyphs" textLength="41" x="23" y="694.2295">Agent</text><ellipse cx="46.5" cy="707.5313" fill="#F8F8F8" rx="8" ry="8" style="stroke: #383838; stroke-width: 2.0;"/><path d="M46.5,715.5313 L46.5,742.5313 M33.5,723.5313 L59.5,723.5313 M46.5,742.5313 L33.5,757.5313 M46.5,742.5313 L59.5,757.5313 " fill="#F8F8F8" style="stroke: #383838; stroke-width: 2.0;"/><rect fill="#F8F8F8" height="30.2969" style="stroke: #383838; stroke-width: 1.0;" width="39" x="341" y="98.2813"/><text fill="#000000" font-family="sans-serif" font-size="14" lengthAdjust="spacingAndGlyphs" textLength="25" x="348" y="118.2764">IHM</text><rect fill="#F8F8F8" height="30.2969" style="stroke: #383838; stroke-width: 1.0;" width="39" x="341" y="681.2344"/><text fill="#000000" font-family="sans-serif" font-size="14" lengthAdjust="spacingAndGlyphs" textLength="25" x="348" y="701.2295">IHM</text><rect fill="#F8F8F8" height="30.2969" style="stroke: #383838; stroke-width: 1.0;" width="44" x="662.5" y="98.2813"/><text fill="#000000" font-family="sans-serif" font-size="14" lengthAdjust="spacingAndGlyphs" textLength="30" x="669.5" y="118.2764">SMA</text><rect fill="#F8F8F8" height="30.2969" style="stroke: #383838; stroke-width: 1.0;" width="44" x="662.5" y="681.2344"/><text fill="#000000" font-family="sans-serif" font-size="14" lengthAdjust="spacingAndGlyphs" textLength="30" x="669.5" y="701.2295">SMA</text><polygon fill="#383838" points="348.5,156.5781,358.5,160.5781,348.5,164.5781,352.5,160.5781" style="stroke: #383838; stroke-width: 1.0;"/><line style="stroke: #383838; stroke-width: 1.0;" x1="46.5" x2="354.5" y1="160.5781" y2="160.5781"/><text fill="#000000" font-family="sans-serif" font-size="13" lengthAdjust="spacingAndGlyphs" textLength="213" x="53.5" y="155.645">Saisir les informations du contact</text><polygon fill="#383838" points="348.5,185.7109,358.5,189.7109,348.5,193.7109,352.5,189.7109" style="stroke: #383838; stroke-width: 1.0;"/><line style="stroke: #383838; stroke-width: 1.0;" x1="46.5" x2="354.5" y1="189.7109" y2="189.7109"/><text fill="#000000" font-family="sans-serif" font-size="13" lengthAdjust="spacingAndGlyphs" textLength="167" x="53.5" y="184.7778">Identifier le contact (CU 8)</text><polygon fill="#383838" points="348.5,214.8438,358.5,218.8438,348.5,222.8438,352.5,218.8438" style="stroke: #383838; stroke-width: 1.0;"/><line style="stroke: #383838; stroke-width: 1.0;" x1="46.5" x2="354.5" y1="218.8438" y2="218.8438"/><text fill="#000000" font-family="sans-serif" font-size="13" lengthAdjust="spacingAndGlyphs" textLength="243" x="53.5" y="213.9106">Consulter le détail d'un contact (CU 4)</text><rect fill="none" height="105.6641" style="stroke: #000000; stroke-width: 1.0;" width="703.5" x="13" y="233.9766"/><polygon fill="#EEEEEE" points="13,233.9766,77,233.9766,77,240.9766,67,250.9766,13,250.9766,13,233.9766" style="stroke: #000000; stroke-width: 1.0;"/><text fill="#000000" font-family="sans-serif" font-size="13" font-weight="bold" lengthAdjust="spacingAndGlyphs" textLength="19" x="28" y="247.0435">alt</text><text fill="#000000" font-family="sans-serif" font-size="11" font-weight="bold" lengthAdjust="spacingAndGlyphs" textLength="119" x="92" y="246.187">[Préparation faite]</text><polygon fill="#383838" points="348.5,283.1094,358.5,287.1094,348.5,291.1094,352.5,287.1094" style="stroke: #383838; stroke-width: 1.0;"/><line style="stroke: #383838; stroke-width: 1.0;" x1="46.5" x2="354.5" y1="287.1094" y2="287.1094"/><text fill="#000000" font-family="sans-serif" font-size="13" lengthAdjust="spacingAndGlyphs" textLength="246" x="53.5" y="267.1763">Afficher les propositions commerciales</text><text fill="#000000" font-family="sans-serif" font-size="13" lengthAdjust="spacingAndGlyphs" textLength="177" x="53.5" y="282.3091">et annotations enregistrées</text><polygon fill="#383838" points="672.5,327.375,682.5,331.375,672.5,335.375,676.5,331.375" style="stroke: #383838; stroke-width: 1.0;"/><line style="stroke: #383838; stroke-width: 1.0;" x1="360.5" x2="678.5" y1="331.375" y2="331.375"/><text fill="#000000" font-family="sans-serif" font-size="13" lengthAdjust="spacingAndGlyphs" textLength="274" x="367.5" y="311.4419">ObtenirPropositionCommerciale(idContact)</text><text fill="#000000" font-family="sans-serif" font-size="13" lengthAdjust="spacingAndGlyphs" textLength="300" x="367.5" y="326.5747">: Liste&lt;PropositionCommerciale&gt;, annotations</text><polygon fill="#383838" points="348.5,363.6406,358.5,367.6406,348.5,371.6406,352.5,367.6406" style="stroke: #383838; stroke-width: 1.0;"/><line style="stroke: #383838; stroke-width: 1.0;" x1="46.5" x2="354.5" y1="367.6406" y2="367.6406"/><text fill="#000000" font-family="sans-serif" font-size="13" lengthAdjust="spacingAndGlyphs" textLength="138" x="53.5" y="362.7075">Sélectionner un client</text><polygon fill="#383838" points="348.5,392.7734,358.5,396.7734,348.5,400.7734,352.5,396.7734" style="stroke: #383838; stroke-width: 1.0;"/><line style="stroke: #383838; stroke-width: 1.0;" x1="46.5" x2="354.5" y1="396.7734" y2="396.7734"/><text fill="#000000" font-family="sans-serif" font-size="13" lengthAdjust="spacingAndGlyphs" textLength="229" x="53.5" y="391.8403">Consulter le dossier du client (CU 8)</text><rect fill="none" height="164.7969" style="stroke: #000000; stroke-width: 1.0;" width="377" x="13" y="411.9063"/><polygon fill="#EEEEEE" points="13,411.9063,83,411.9063,83,418.9063,73,428.9063,13,428.9063,13,411.9063" style="stroke: #000000; stroke-width: 1.0;"/><text fill="#000000" font-family="sans-serif" font-size="13" font-weight="bold" lengthAdjust="spacingAndGlyphs" textLength="25" x="28" y="424.9731">par</text><polygon fill="#383838" points="348.5,446.0391,358.5,450.0391,348.5,454.0391,352.5,450.0391" style="stroke: #383838; stroke-width: 1.0;"/><line style="stroke: #383838; stroke-width: 1.0;" x1="46.5" x2="354.5" y1="450.0391" y2="450.0391"/><text fill="#000000" font-family="sans-serif" font-size="13" lengthAdjust="spacingAndGlyphs" textLength="218" x="53.5" y="445.106">Consulter la liste des offres (CU 8)</text><polygon fill="#383838" points="348.5,475.1719,358.5,479.1719,348.5,483.1719,352.5,479.1719" style="stroke: #383838; stroke-width: 1.0;"/><line style="stroke: #383838; stroke-width: 1.0;" x1="46.5" x2="354.5" y1="479.1719" y2="479.1719"/><text fill="#000000" font-family="sans-serif" font-size="13" lengthAdjust="spacingAndGlyphs" textLength="141" x="53.5" y="474.2388">Sélectionner une offre</text><polygon fill="#383838" points="348.5,504.3047,358.5,508.3047,348.5,512.3047,352.5,508.3047" style="stroke: #383838; stroke-width: 1.0;"/><line style="stroke: #383838; stroke-width: 1.0;" x1="46.5" x2="354.5" y1="508.3047" y2="508.3047"/><text fill="#000000" font-family="sans-serif" font-size="13" lengthAdjust="spacingAndGlyphs" textLength="290" x="53.5" y="503.3716">Voir le détails d'une offre du catalogue (CU 8)</text><line style="stroke: #000000; stroke-width: 1.0; stroke-dasharray: 2.0,2.0;" x1="13" x2="390" y1="517.4375" y2="517.4375"/><polygon fill="#383838" points="348.5,535.4375,358.5,539.4375,348.5,543.4375,352.5,539.4375" style="stroke: #383838; stroke-width: 1.0;"/><line style="stroke: #383838; stroke-width: 1.0;" x1="46.5" x2="354.5" y1="539.4375" y2="539.4375"/><text fill="#000000" font-family="sans-serif" font-size="13" lengthAdjust="spacingAndGlyphs" textLength="195" x="53.5" y="534.5044">Rédiger une proposition d'offre</text><polygon fill="#383838" points="348.5,564.5703,358.5,568.5703,348.5,572.5703,352.5,568.5703" style="stroke: #383838; stroke-width: 1.0;"/><line style="stroke: #383838; stroke-width: 1.0;" x1="46.5" x2="354.5" y1="568.5703" y2="568.5703"/><text fill="#000000" font-family="sans-serif" font-size="13" lengthAdjust="spacingAndGlyphs" textLength="270" x="53.5" y="563.6372">Créer une proposition commerciale (CU 8)</text><polygon fill="#383838" points="348.5,615.7031,358.5,619.7031,348.5,623.7031,352.5,619.7031" style="stroke: #383838; stroke-width: 1.0;"/><line style="stroke: #383838; stroke-width: 1.0;" x1="46.5" x2="354.5" y1="619.7031" y2="619.7031"/><text fill="#000000" font-family="sans-serif" font-size="13" lengthAdjust="spacingAndGlyphs" textLength="136" x="53.5" y="599.77">Enregistrer le rapport</text><text fill="#000000" font-family="sans-serif" font-size="13" lengthAdjust="spacingAndGlyphs" textLength="144" x="53.5" y="614.9028">d'activité commerciale</text><polygon fill="#383838" points="672.5,659.9688,682.5,663.9688,672.5,667.9688,676.5,663.9688" style="stroke: #383838; stroke-width: 1.0;"/><line style="stroke: #383838; stroke-width: 1.0;" x1="360.5" x2="678.5" y1="663.9688" y2="663.9688"/><text fill="#000000" font-family="sans-serif" font-size="13" lengthAdjust="spacingAndGlyphs" textLength="238" x="367.5" y="644.0356">EnregistrerRapportActivite(idContact)</text><text fill="#000000" font-family="sans-serif" font-size="13" lengthAdjust="spacingAndGlyphs" textLength="34" x="367.5" y="659.1685">: void</text></g></svg>