<?xml version="1.0" encoding="UTF-8" standalone="yes"?><svg xmlns="http://www.w3.org/2000/svg" xmlns:xlink="http://www.w3.org/1999/xlink" height="1039px" style="width:751px;height:1039px;" version="1.1" viewBox="0 0 751 1039" width="751px"><defs/><g><text fill="#000000" font-family="sans-serif" font-size="20" lengthAdjust="spacingAndGlyphs" textLength="426" x="168.75" y="28.5645">Diagramme de séquence système du CU 9</text><line style="stroke: none; stroke-width: 1.0;" x1="168.75" x2="594.75" y1="38.2813" y2="38.2813"/><rect fill="#FFFFFF" height="105.6641" style="stroke: #000000; stroke-width: 1.0;" width="737.5" x="13" y="337.6406"/><rect fill="#FFFFFF" height="297.5938" style="stroke: #000000; stroke-width: 1.0;" width="737.5" x="13" y="559.8359"/><rect fill="#FFFFFF" height="104.5313" style="stroke: none; stroke-width: 1.0;" width="737.5" x="13" y="752.8984"/><line style="stroke: #383838; stroke-width: 1.0; stroke-dasharray: 5.0,5.0;" x1="46" x2="46" y1="129.5781" y2="962.9609"/><line style="stroke: #383838; stroke-width: 1.0; stroke-dasharray: 5.0,5.0;" x1="342" x2="342" y1="129.5781" y2="962.9609"/><line style="stroke: #383838; stroke-width: 1.0; stroke-dasharray: 5.0,5.0;" x1="718.5" x2="718.5" y1="129.5781" y2="962.9609"/><text fill="#000000" font-family="sans-serif" font-size="14" lengthAdjust="spacingAndGlyphs" textLength="41" x="23" y="126.2764">Agent</text><ellipse cx="46.5" cy="60.2813" fill="#F8F8F8" rx="8" ry="8" style="stroke: #383838; stroke-width: 2.0;"/><path d="M46.5,68.2813 L46.5,95.2813 M33.5,76.2813 L59.5,76.2813 M46.5,95.2813 L33.5,110.2813 M46.5,95.2813 L59.5,110.2813 " fill="#F8F8F8" style="stroke: #383838; stroke-width: 2.0;"/><text fill="#000000" font-family="sans-serif" font-size="14" lengthAdjust="spacingAndGlyphs" textLength="41" x="23" y="974.9561">Agent</text><ellipse cx="46.5" cy="988.2578" fill="#F8F8F8" rx="8" ry="8" style="stroke: #383838; stroke-width: 2.0;"/><path d="M46.5,996.2578 L46.5,1023.2578 M33.5,1004.2578 L59.5,1004.2578 M46.5,1023.2578 L33.5,1038.2578 M46.5,1023.2578 L59.5,1038.2578 " fill="#F8F8F8" style="stroke: #383838; stroke-width: 2.0;"/><rect fill="#F8F8F8" height="30.2969" style="stroke: #383838; stroke-width: 1.0;" width="39" x="323" y="98.2813"/><text fill="#000000" font-family="sans-serif" font-size="14" lengthAdjust="spacingAndGlyphs" textLength="25" x="330" y="118.2764">IHM</text><rect fill="#F8F8F8" height="30.2969" style="stroke: #383838; stroke-width: 1.0;" width="39" x="323" y="961.9609"/><text fill="#000000" font-family="sans-serif" font-size="14" lengthAdjust="spacingAndGlyphs" textLength="25" x="330" y="981.9561">IHM</text><rect fill="#F8F8F8" height="30.2969" style="stroke: #383838; stroke-width: 1.0;" width="44" x="696.5" y="98.2813"/><text fill="#000000" font-family="sans-serif" font-size="14" lengthAdjust="spacingAndGlyphs" textLength="30" x="703.5" y="118.2764">SMA</text><rect fill="#F8F8F8" height="30.2969" style="stroke: #383838; stroke-width: 1.0;" width="44" x="696.5" y="961.9609"/><text fill="#000000" font-family="sans-serif" font-size="14" lengthAdjust="spacingAndGlyphs" textLength="30" x="703.5" y="981.9561">SMA</text><polygon fill="#383838" points="330.5,156.5781,340.5,160.5781,330.5,164.5781,334.5,160.5781" style="stroke: #383838; stroke-width: 1.0;"/><line style="stroke: #383838; stroke-width: 1.0;" x1="46.5" x2="336.5" y1="160.5781" y2="160.5781"/><text fill="#000000" font-family="sans-serif" font-size="13" lengthAdjust="spacingAndGlyphs" textLength="213" x="53.5" y="155.645">Saisir les informations du contact</text><polygon fill="#383838" points="330.5,185.7109,340.5,189.7109,330.5,193.7109,334.5,189.7109" style="stroke: #383838; stroke-width: 1.0;"/><line style="stroke: #383838; stroke-width: 1.0;" x1="46.5" x2="336.5" y1="189.7109" y2="189.7109"/><text fill="#000000" font-family="sans-serif" font-size="13" lengthAdjust="spacingAndGlyphs" textLength="122" x="53.5" y="184.7778">Identifier le contact</text><polygon fill="#383838" points="706.5,229.8438,716.5,233.8438,706.5,237.8438,710.5,233.8438" style="stroke: #383838; stroke-width: 1.0;"/><line style="stroke: #383838; stroke-width: 1.0;" x1="342.5" x2="712.5" y1="233.8438" y2="233.8438"/><text fill="#000000" font-family="sans-serif" font-size="13" lengthAdjust="spacingAndGlyphs" textLength="176" x="349.5" y="213.9106">IdentifierContact(idContact)</text><text fill="#000000" font-family="sans-serif" font-size="13" lengthAdjust="spacingAndGlyphs" textLength="58" x="349.5" y="229.0435">: Contact</text><polygon fill="#383838" points="330.5,259.1094,340.5,263.1094,330.5,267.1094,334.5,263.1094" style="stroke: #383838; stroke-width: 1.0;"/><line style="stroke: #383838; stroke-width: 1.0;" x1="46.5" x2="336.5" y1="263.1094" y2="263.1094"/><text fill="#000000" font-family="sans-serif" font-size="13" lengthAdjust="spacingAndGlyphs" textLength="165" x="53.5" y="258.1763">Voir les détails du contact</text><polygon fill="#383838" points="706.5,318.2422,716.5,322.2422,706.5,326.2422,710.5,322.2422" style="stroke: #383838; stroke-width: 1.0;"/><line style="stroke: #383838; stroke-width: 1.0;" x1="342.5" x2="712.5" y1="322.2422" y2="322.2422"/><text fill="#000000" font-family="sans-serif" font-size="13" lengthAdjust="spacingAndGlyphs" textLength="212" x="349.5" y="287.3091">ObtenirDetailsContact(idContact)</text><text fill="#000000" font-family="sans-serif" font-size="13" lengthAdjust="spacingAndGlyphs" textLength="258" x="349.5" y="302.4419">: contact, motifDeContact, Client, agent,</text><text fill="#000000" font-family="sans-serif" font-size="13" lengthAdjust="spacingAndGlyphs" textLength="352" x="349.5" y="317.5747">Liste&lt;PropositionCommerciale, Offre, Liste&lt;Produit&gt;&gt;</text><rect fill="none" height="105.6641" style="stroke: #000000; stroke-width: 1.0;" width="737.5" x="13" y="337.6406"/><polygon fill="#EEEEEE" points="13,337.6406,77,337.6406,77,344.6406,67,354.6406,13,354.6406,13,337.6406" style="stroke: #000000; stroke-width: 1.0;"/><text fill="#000000" font-family="sans-serif" font-size="13" font-weight="bold" lengthAdjust="spacingAndGlyphs" textLength="19" x="28" y="350.7075">alt</text><text fill="#000000" font-family="sans-serif" font-size="11" font-weight="bold" lengthAdjust="spacingAndGlyphs" textLength="119" x="92" y="349.8511">[Préparation faite]</text><polygon fill="#383838" points="330.5,386.7734,340.5,390.7734,330.5,394.7734,334.5,390.7734" style="stroke: #383838; stroke-width: 1.0;"/><line style="stroke: #383838; stroke-width: 1.0;" x1="46.5" x2="336.5" y1="390.7734" y2="390.7734"/><text fill="#000000" font-family="sans-serif" font-size="13" lengthAdjust="spacingAndGlyphs" textLength="246" x="53.5" y="370.8403">Afficher les propositions commerciales</text><text fill="#000000" font-family="sans-serif" font-size="13" lengthAdjust="spacingAndGlyphs" textLength="177" x="53.5" y="385.9731">et annotations enregistrées</text><polygon fill="#383838" points="706.5,431.0391,716.5,435.0391,706.5,439.0391,710.5,435.0391" style="stroke: #383838; stroke-width: 1.0;"/><line style="stroke: #383838; stroke-width: 1.0;" x1="342.5" x2="712.5" y1="435.0391" y2="435.0391"/><text fill="#000000" font-family="sans-serif" font-size="13" lengthAdjust="spacingAndGlyphs" textLength="274" x="349.5" y="415.106">ObtenirPropositionCommerciale(idContact)</text><text fill="#000000" font-family="sans-serif" font-size="13" lengthAdjust="spacingAndGlyphs" textLength="216" x="349.5" y="430.2388">: Liste&lt;PropositionCommerciale&gt;</text><polygon fill="#383838" points="330.5,467.3047,340.5,471.3047,330.5,475.3047,334.5,471.3047" style="stroke: #383838; stroke-width: 1.0;"/><line style="stroke: #383838; stroke-width: 1.0;" x1="46.5" x2="336.5" y1="471.3047" y2="471.3047"/><text fill="#000000" font-family="sans-serif" font-size="13" lengthAdjust="spacingAndGlyphs" textLength="138" x="53.5" y="466.3716">Sélectionner un client</text><polygon fill="#383838" points="330.5,496.4375,340.5,500.4375,330.5,504.4375,334.5,500.4375" style="stroke: #383838; stroke-width: 1.0;"/><line style="stroke: #383838; stroke-width: 1.0;" x1="46.5" x2="336.5" y1="500.4375" y2="500.4375"/><text fill="#000000" font-family="sans-serif" font-size="13" lengthAdjust="spacingAndGlyphs" textLength="184" x="53.5" y="495.5044">Consulter le dossier du client</text><polygon fill="#383838" points="706.5,540.5703,716.5,544.5703,706.5,548.5703,710.5,544.5703" style="stroke: #383838; stroke-width: 1.0;"/><line style="stroke: #383838; stroke-width: 1.0;" x1="342.5" x2="712.5" y1="544.5703" y2="544.5703"/><text fill="#000000" font-family="sans-serif" font-size="13" lengthAdjust="spacingAndGlyphs" textLength="188" x="349.5" y="524.6372">ObtenirDossierClient(idClient)</text><text fill="#000000" font-family="sans-serif" font-size="13" lengthAdjust="spacingAndGlyphs" textLength="44" x="349.5" y="539.77">: Client</text><rect fill="none" height="297.5938" style="stroke: #000000; stroke-width: 1.0;" width="737.5" x="13" y="559.8359"/><polygon fill="#EEEEEE" points="13,559.8359,83,559.8359,83,566.8359,73,576.8359,13,576.8359,13,559.8359" style="stroke: #000000; stroke-width: 1.0;"/><text fill="#000000" font-family="sans-serif" font-size="13" font-weight="bold" lengthAdjust="spacingAndGlyphs" textLength="25" x="28" y="572.9028">par</text><polygon fill="#383838" points="330.5,593.9688,340.5,597.9688,330.5,601.9688,334.5,597.9688" style="stroke: #383838; stroke-width: 1.0;"/><line style="stroke: #383838; stroke-width: 1.0;" x1="46.5" x2="336.5" y1="597.9688" y2="597.9688"/><text fill="#000000" font-family="sans-serif" font-size="13" lengthAdjust="spacingAndGlyphs" textLength="173" x="53.5" y="593.0356">Consulter la liste des offres</text><polygon fill="#383838" points="706.5,638.1016,716.5,642.1016,706.5,646.1016,710.5,642.1016" style="stroke: #383838; stroke-width: 1.0;"/><line style="stroke: #383838; stroke-width: 1.0;" x1="342.5" x2="712.5" y1="642.1016" y2="642.1016"/><text fill="#000000" font-family="sans-serif" font-size="13" lengthAdjust="spacingAndGlyphs" textLength="121" x="349.5" y="622.1685">ObtenirOffres(void)</text><text fill="#000000" font-family="sans-serif" font-size="13" lengthAdjust="spacingAndGlyphs" textLength="91" x="349.5" y="637.3013">: Liste&lt;Offre&gt;</text><polygon fill="#383838" points="330.5,667.3672,340.5,671.3672,330.5,675.3672,334.5,671.3672" style="stroke: #383838; stroke-width: 1.0;"/><line style="stroke: #383838; stroke-width: 1.0;" x1="46.5" x2="336.5" y1="671.3672" y2="671.3672"/><text fill="#000000" font-family="sans-serif" font-size="13" lengthAdjust="spacingAndGlyphs" textLength="141" x="53.5" y="666.4341">Sélectionner une offre</text><polygon fill="#383838" points="330.5,696.5,340.5,700.5,330.5,704.5,334.5,700.5" style="stroke: #383838; stroke-width: 1.0;"/><line style="stroke: #383838; stroke-width: 1.0;" x1="46.5" x2="336.5" y1="700.5" y2="700.5"/><text fill="#000000" font-family="sans-serif" font-size="13" lengthAdjust="spacingAndGlyphs" textLength="245" x="53.5" y="695.5669">Voir le détails d'une offre du catalogue</text><polygon fill="#383838" points="706.5,740.6328,716.5,744.6328,706.5,748.6328,710.5,744.6328" style="stroke: #383838; stroke-width: 1.0;"/><line style="stroke: #383838; stroke-width: 1.0;" x1="342.5" x2="712.5" y1="744.6328" y2="744.6328"/><text fill="#000000" font-family="sans-serif" font-size="13" lengthAdjust="spacingAndGlyphs" textLength="174" x="349.5" y="724.6997">ObtenirDetailsOffre(idOffre)</text><text fill="#000000" font-family="sans-serif" font-size="13" lengthAdjust="spacingAndGlyphs" textLength="237" x="349.5" y="739.8325">: Liste&lt;Produit&gt;, commentairesOffre</text><line style="stroke: #000000; stroke-width: 1.0; stroke-dasharray: 2.0,2.0;" x1="13" x2="750.5" y1="753.8984" y2="753.8984"/><polygon fill="#383838" points="330.5,771.8984,340.5,775.8984,330.5,779.8984,334.5,775.8984" style="stroke: #383838; stroke-width: 1.0;"/><line style="stroke: #383838; stroke-width: 1.0;" x1="46.5" x2="336.5" y1="775.8984" y2="775.8984"/><text fill="#000000" font-family="sans-serif" font-size="13" lengthAdjust="spacingAndGlyphs" textLength="195" x="53.5" y="770.9653">Rédiger une proposition d'offre</text><polygon fill="#383838" points="330.5,801.0313,340.5,805.0313,330.5,809.0313,334.5,805.0313" style="stroke: #383838; stroke-width: 1.0;"/><line style="stroke: #383838; stroke-width: 1.0;" x1="46.5" x2="336.5" y1="805.0313" y2="805.0313"/><text fill="#000000" font-family="sans-serif" font-size="13" lengthAdjust="spacingAndGlyphs" textLength="272" x="53.5" y="800.0981">Soumettre des propositions commerciales</text><polygon fill="#383838" points="706.5,845.1641,716.5,849.1641,706.5,853.1641,710.5,849.1641" style="stroke: #383838; stroke-width: 1.0;"/><line style="stroke: #383838; stroke-width: 1.0;" x1="342.5" x2="712.5" y1="849.1641" y2="849.1641"/><text fill="#000000" font-family="sans-serif" font-size="13" lengthAdjust="spacingAndGlyphs" textLength="323" x="349.5" y="829.231">AjouterPropositionCommerciale(idOffre, idContact)</text><text fill="#000000" font-family="sans-serif" font-size="13" lengthAdjust="spacingAndGlyphs" textLength="34" x="349.5" y="844.3638">: void</text><polygon fill="#383838" points="330.5,896.4297,340.5,900.4297,330.5,904.4297,334.5,900.4297" style="stroke: #383838; stroke-width: 1.0;"/><line style="stroke: #383838; stroke-width: 1.0;" x1="46.5" x2="336.5" y1="900.4297" y2="900.4297"/><text fill="#000000" font-family="sans-serif" font-size="13" lengthAdjust="spacingAndGlyphs" textLength="136" x="53.5" y="880.4966">Enregistrer le rapport</text><text fill="#000000" font-family="sans-serif" font-size="13" lengthAdjust="spacingAndGlyphs" textLength="144" x="53.5" y="895.6294">d'activité commerciale</text><polygon fill="#383838" points="706.5,940.6953,716.5,944.6953,706.5,948.6953,710.5,944.6953" style="stroke: #383838; stroke-width: 1.0;"/><line style="stroke: #383838; stroke-width: 1.0;" x1="342.5" x2="712.5" y1="944.6953" y2="944.6953"/><text fill="#000000" font-family="sans-serif" font-size="13" lengthAdjust="spacingAndGlyphs" textLength="238" x="349.5" y="924.7622">EnregistrerRapportActivite(idContact)</text><text fill="#000000" font-family="sans-serif" font-size="13" lengthAdjust="spacingAndGlyphs" textLength="34" x="349.5" y="939.895">: void</text></g></svg>