<?xml version="1.0" encoding="UTF-8" standalone="yes"?><svg xmlns="http://www.w3.org/2000/svg" xmlns:xlink="http://www.w3.org/1999/xlink" height="462px" style="width:945px;height:462px;" version="1.1" viewBox="0 0 945 462" width="945px"><defs/><g><text fill="#000000" font-family="sans-serif" font-size="20" lengthAdjust="spacingAndGlyphs" textLength="638" x="159.75" y="28.5645">Diagramme de séquence système du CU 10 (identifier le client)</text><line style="stroke: none; stroke-width: 1.0;" x1="159.75" x2="797.75" y1="38.2813" y2="38.2813"/><rect fill="#FFFFFF" height="222.1953" style="stroke: #000000; stroke-width: 1.0;" width="931.5" x="13" y="146.5781"/><line style="stroke: #383838; stroke-width: 1.0; stroke-dasharray: 5.0,5.0;" x1="46" x2="46" y1="129.5781" y2="385.7734"/><line style="stroke: #383838; stroke-width: 1.0; stroke-dasharray: 5.0,5.0;" x1="269" x2="269" y1="129.5781" y2="385.7734"/><line style="stroke: #383838; stroke-width: 1.0; stroke-dasharray: 5.0,5.0;" x1="912.5" x2="912.5" y1="129.5781" y2="385.7734"/><text fill="#000000" font-family="sans-serif" font-size="14" lengthAdjust="spacingAndGlyphs" textLength="41" x="23" y="126.2764">Agent</text><ellipse cx="46.5" cy="60.2813" fill="#F8F8F8" rx="8" ry="8" style="stroke: #383838; stroke-width: 2.0;"/><path d="M46.5,68.2813 L46.5,95.2813 M33.5,76.2813 L59.5,76.2813 M46.5,95.2813 L33.5,110.2813 M46.5,95.2813 L59.5,110.2813 " fill="#F8F8F8" style="stroke: #383838; stroke-width: 2.0;"/><text fill="#000000" font-family="sans-serif" font-size="14" lengthAdjust="spacingAndGlyphs" textLength="41" x="23" y="397.7686">Agent</text><ellipse cx="46.5" cy="411.0703" fill="#F8F8F8" rx="8" ry="8" style="stroke: #383838; stroke-width: 2.0;"/><path d="M46.5,419.0703 L46.5,446.0703 M33.5,427.0703 L59.5,427.0703 M46.5,446.0703 L33.5,461.0703 M46.5,446.0703 L59.5,461.0703 " fill="#F8F8F8" style="stroke: #383838; stroke-width: 2.0;"/><rect fill="#F8F8F8" height="30.2969" style="stroke: #383838; stroke-width: 1.0;" width="39" x="250" y="98.2813"/><text fill="#000000" font-family="sans-serif" font-size="14" lengthAdjust="spacingAndGlyphs" textLength="25" x="257" y="118.2764">IHM</text><rect fill="#F8F8F8" height="30.2969" style="stroke: #383838; stroke-width: 1.0;" width="39" x="250" y="384.7734"/><text fill="#000000" font-family="sans-serif" font-size="14" lengthAdjust="spacingAndGlyphs" textLength="25" x="257" y="404.7686">IHM</text><rect fill="#F8F8F8" height="30.2969" style="stroke: #383838; stroke-width: 1.0;" width="44" x="890.5" y="98.2813"/><text fill="#000000" font-family="sans-serif" font-size="14" lengthAdjust="spacingAndGlyphs" textLength="30" x="897.5" y="118.2764">SMA</text><rect fill="#F8F8F8" height="30.2969" style="stroke: #383838; stroke-width: 1.0;" width="44" x="890.5" y="384.7734"/><text fill="#000000" font-family="sans-serif" font-size="14" lengthAdjust="spacingAndGlyphs" textLength="30" x="897.5" y="404.7686">SMA</text><rect fill="none" height="222.1953" style="stroke: #000000; stroke-width: 1.0;" width="931.5" x="13" y="146.5781"/><polygon fill="#EEEEEE" points="13,146.5781,77,146.5781,77,153.5781,67,163.5781,13,163.5781,13,146.5781" style="stroke: #000000; stroke-width: 1.0;"/><text fill="#000000" font-family="sans-serif" font-size="13" font-weight="bold" lengthAdjust="spacingAndGlyphs" textLength="19" x="28" y="159.645">alt</text><text fill="#000000" font-family="sans-serif" font-size="11" font-weight="bold" lengthAdjust="spacingAndGlyphs" textLength="139" x="92" y="158.7886">[Client non identifier]</text><polygon fill="#383838" points="257.5,180.7109,267.5,184.7109,257.5,188.7109,261.5,184.7109" style="stroke: #383838; stroke-width: 1.0;"/><line style="stroke: #383838; stroke-width: 1.0;" x1="46.5" x2="263.5" y1="184.7109" y2="184.7109"/><text fill="#000000" font-family="sans-serif" font-size="13" lengthAdjust="spacingAndGlyphs" textLength="199" x="53.5" y="179.7778">Saisir les informations du client</text><polygon fill="#383838" points="257.5,209.8438,267.5,213.8438,257.5,217.8438,261.5,213.8438" style="stroke: #383838; stroke-width: 1.0;"/><line style="stroke: #383838; stroke-width: 1.0;" x1="46.5" x2="263.5" y1="213.8438" y2="213.8438"/><text fill="#000000" font-family="sans-serif" font-size="13" lengthAdjust="spacingAndGlyphs" textLength="125" x="53.5" y="208.9106">Rechercher le client</text><polygon fill="#383838" points="900.5,253.9766,910.5,257.9766,900.5,261.9766,904.5,257.9766" style="stroke: #383838; stroke-width: 1.0;"/><line style="stroke: #383838; stroke-width: 1.0;" x1="269.5" x2="906.5" y1="257.9766" y2="257.9766"/><text fill="#000000" font-family="sans-serif" font-size="13" lengthAdjust="spacingAndGlyphs" textLength="619" x="276.5" y="238.0435">SM48 - RechercherTousLesClients(idClient, noCompte, denomination, idAgence, texteRecherche)</text><text fill="#000000" font-family="sans-serif" font-size="13" lengthAdjust="spacingAndGlyphs" textLength="96" x="276.5" y="253.1763">: Liste&lt;Client&gt;</text><polygon fill="#383838" points="257.5,283.2422,267.5,287.2422,257.5,291.2422,261.5,287.2422" style="stroke: #383838; stroke-width: 1.0;"/><line style="stroke: #383838; stroke-width: 1.0;" x1="46.5" x2="263.5" y1="287.2422" y2="287.2422"/><text fill="#000000" font-family="sans-serif" font-size="13" lengthAdjust="spacingAndGlyphs" textLength="138" x="53.5" y="282.3091">Sélectionner un client</text><polygon fill="#383838" points="257.5,312.375,267.5,316.375,257.5,320.375,261.5,316.375" style="stroke: #383838; stroke-width: 1.0;"/><line style="stroke: #383838; stroke-width: 1.0;" x1="46.5" x2="263.5" y1="316.375" y2="316.375"/><text fill="#000000" font-family="sans-serif" font-size="13" lengthAdjust="spacingAndGlyphs" textLength="184" x="53.5" y="311.4419">Consulter le dossier du client</text><polygon fill="#383838" points="900.5,356.5078,910.5,360.5078,900.5,364.5078,904.5,360.5078" style="stroke: #383838; stroke-width: 1.0;"/><line style="stroke: #383838; stroke-width: 1.0;" x1="269.5" x2="906.5" y1="360.5078" y2="360.5078"/><text fill="#000000" font-family="sans-serif" font-size="13" lengthAdjust="spacingAndGlyphs" textLength="237" x="276.5" y="340.5747">SM49 - ObtenirDossierClient(idClient)</text><text fill="#000000" font-family="sans-serif" font-size="13" lengthAdjust="spacingAndGlyphs" textLength="44" x="276.5" y="355.7075">: Client</text></g></svg>