<?xml version="1.0" encoding="UTF-8" standalone="yes"?><svg xmlns="http://www.w3.org/2000/svg" xmlns:xlink="http://www.w3.org/1999/xlink" height="1056px" style="width:904px;height:1056px;" version="1.1" viewBox="0 0 904 1056" width="904px"><defs/><g><text fill="#000000" font-family="sans-serif" font-size="20" lengthAdjust="spacingAndGlyphs" textLength="426" x="245.25" y="28.5645">Diagramme de séquence système du CU 7</text><line style="stroke: none; stroke-width: 1.0;" x1="245.25" x2="671.25" y1="38.2813" y2="38.2813"/><rect fill="#FFFFFF" height="728.0703" style="stroke: #000000; stroke-width: 1.0;" width="890.5" x="13" y="235.1094"/><rect fill="#FFFFFF" height="132.4688" style="stroke: none; stroke-width: 1.0;" width="890.5" x="13" y="443.3047"/><rect fill="#FFFFFF" height="60.0703" style="stroke: none; stroke-width: 1.0;" width="890.5" x="13" y="575.7734"/><rect fill="#FFFFFF" height="327.3359" style="stroke: none; stroke-width: 1.0;" width="890.5" x="13" y="635.8438"/><rect fill="#FFFFFF" height="194.8672" style="stroke: #000000; stroke-width: 1.0;" width="870.5" x="23" y="761.3125"/><rect fill="#FFFFFF" height="60.0703" style="stroke: none; stroke-width: 1.0;" width="870.5" x="23" y="896.1094"/><line style="stroke: #383838; stroke-width: 1.0; stroke-dasharray: 5.0,5.0;" x1="56" x2="56" y1="129.5781" y2="980.1797"/><line style="stroke: #383838; stroke-width: 1.0; stroke-dasharray: 5.0,5.0;" x1="465" x2="465" y1="129.5781" y2="980.1797"/><line style="stroke: #383838; stroke-width: 1.0; stroke-dasharray: 5.0,5.0;" x1="861.5" x2="861.5" y1="129.5781" y2="980.1797"/><text fill="#000000" font-family="sans-serif" font-size="14" lengthAdjust="spacingAndGlyphs" textLength="41" x="33" y="126.2764">Agent</text><ellipse cx="56.5" cy="60.2813" fill="#F8F8F8" rx="8" ry="8" style="stroke: #383838; stroke-width: 2.0;"/><path d="M56.5,68.2813 L56.5,95.2813 M43.5,76.2813 L69.5,76.2813 M56.5,95.2813 L43.5,110.2813 M56.5,95.2813 L69.5,110.2813 " fill="#F8F8F8" style="stroke: #383838; stroke-width: 2.0;"/><text fill="#000000" font-family="sans-serif" font-size="14" lengthAdjust="spacingAndGlyphs" textLength="41" x="33" y="992.1748">Agent</text><ellipse cx="56.5" cy="1005.4766" fill="#F8F8F8" rx="8" ry="8" style="stroke: #383838; stroke-width: 2.0;"/><path d="M56.5,1013.4766 L56.5,1040.4766 M43.5,1021.4766 L69.5,1021.4766 M56.5,1040.4766 L43.5,1055.4766 M56.5,1040.4766 L69.5,1055.4766 " fill="#F8F8F8" style="stroke: #383838; stroke-width: 2.0;"/><rect fill="#F8F8F8" height="30.2969" style="stroke: #383838; stroke-width: 1.0;" width="39" x="446" y="98.2813"/><text fill="#000000" font-family="sans-serif" font-size="14" lengthAdjust="spacingAndGlyphs" textLength="25" x="453" y="118.2764">IHM</text><rect fill="#F8F8F8" height="30.2969" style="stroke: #383838; stroke-width: 1.0;" width="39" x="446" y="979.1797"/><text fill="#000000" font-family="sans-serif" font-size="14" lengthAdjust="spacingAndGlyphs" textLength="25" x="453" y="999.1748">IHM</text><rect fill="#F8F8F8" height="30.2969" style="stroke: #383838; stroke-width: 1.0;" width="44" x="839.5" y="98.2813"/><text fill="#000000" font-family="sans-serif" font-size="14" lengthAdjust="spacingAndGlyphs" textLength="30" x="846.5" y="118.2764">SMA</text><rect fill="#F8F8F8" height="30.2969" style="stroke: #383838; stroke-width: 1.0;" width="44" x="839.5" y="979.1797"/><text fill="#000000" font-family="sans-serif" font-size="14" lengthAdjust="spacingAndGlyphs" textLength="30" x="846.5" y="999.1748">SMA</text><polygon fill="#383838" points="453.5,156.5781,463.5,160.5781,453.5,164.5781,457.5,160.5781" style="stroke: #383838; stroke-width: 1.0;"/><line style="stroke: #383838; stroke-width: 1.0;" x1="56.5" x2="459.5" y1="160.5781" y2="160.5781"/><text fill="#000000" font-family="sans-serif" font-size="13" lengthAdjust="spacingAndGlyphs" textLength="385" x="63.5" y="155.645">Consultation de l'agenda hebdomadaire de l'agent connecté</text><polygon fill="#383838" points="849.5,215.7109,859.5,219.7109,849.5,223.7109,853.5,219.7109" style="stroke: #383838; stroke-width: 1.0;"/><line style="stroke: #383838; stroke-width: 1.0;" x1="465.5" x2="855.5" y1="219.7109" y2="219.7109"/><text fill="#000000" font-family="sans-serif" font-size="13" lengthAdjust="spacingAndGlyphs" textLength="335" x="472.5" y="184.7778">ObtenirAgendaAgent(idAgent, numSemaine, annee)</text><text fill="#000000" font-family="sans-serif" font-size="13" lengthAdjust="spacingAndGlyphs" textLength="323" x="472.5" y="199.9106">: Liste&lt;PlageAgenda&gt;, Liste&lt;TacheElementaire&gt;,</text><text fill="#000000" font-family="sans-serif" font-size="13" lengthAdjust="spacingAndGlyphs" textLength="129" x="480.5" y="215.0435">Liste&lt;TypeActivite&gt;</text><rect fill="none" height="728.0703" style="stroke: #000000; stroke-width: 1.0;" width="890.5" x="13" y="235.1094"/><polygon fill="#EEEEEE" points="13,235.1094,77,235.1094,77,242.1094,67,252.1094,13,252.1094,13,235.1094" style="stroke: #000000; stroke-width: 1.0;"/><text fill="#000000" font-family="sans-serif" font-size="13" font-weight="bold" lengthAdjust="spacingAndGlyphs" textLength="19" x="28" y="248.1763">alt</text><text fill="#000000" font-family="sans-serif" font-size="11" font-weight="bold" lengthAdjust="spacingAndGlyphs" textLength="103" x="92" y="247.3198">[changer agent]</text><polygon fill="#383838" points="453.5,269.2422,463.5,273.2422,453.5,277.2422,457.5,273.2422" style="stroke: #383838; stroke-width: 1.0;"/><line style="stroke: #383838; stroke-width: 1.0;" x1="56.5" x2="459.5" y1="273.2422" y2="273.2422"/><text fill="#000000" font-family="sans-serif" font-size="13" lengthAdjust="spacingAndGlyphs" textLength="258" x="63.5" y="268.3091">Consulter la liste des agents de l'agence</text><polygon fill="#383838" points="849.5,313.375,859.5,317.375,849.5,321.375,853.5,317.375" style="stroke: #383838; stroke-width: 1.0;"/><line style="stroke: #383838; stroke-width: 1.0;" x1="465.5" x2="855.5" y1="317.375" y2="317.375"/><text fill="#000000" font-family="sans-serif" font-size="13" lengthAdjust="spacingAndGlyphs" textLength="161" x="472.5" y="297.4419">ObtenirAgents(idAgence)</text><text fill="#000000" font-family="sans-serif" font-size="13" lengthAdjust="spacingAndGlyphs" textLength="98" x="472.5" y="312.5747">: Liste&lt;Agent&gt;</text><polygon fill="#383838" points="453.5,342.6406,463.5,346.6406,453.5,350.6406,457.5,346.6406" style="stroke: #383838; stroke-width: 1.0;"/><line style="stroke: #383838; stroke-width: 1.0;" x1="56.5" x2="459.5" y1="346.6406" y2="346.6406"/><text fill="#000000" font-family="sans-serif" font-size="13" lengthAdjust="spacingAndGlyphs" textLength="141" x="63.5" y="341.7075">Sélectionner un agent</text><polygon fill="#383838" points="453.5,371.7734,463.5,375.7734,453.5,379.7734,457.5,375.7734" style="stroke: #383838; stroke-width: 1.0;"/><line style="stroke: #383838; stroke-width: 1.0;" x1="56.5" x2="459.5" y1="375.7734" y2="375.7734"/><text fill="#000000" font-family="sans-serif" font-size="13" lengthAdjust="spacingAndGlyphs" textLength="106" x="63.5" y="370.8403">Changer d'agent</text><polygon fill="#383838" points="849.5,430.9063,859.5,434.9063,849.5,438.9063,853.5,434.9063" style="stroke: #383838; stroke-width: 1.0;"/><line style="stroke: #383838; stroke-width: 1.0;" x1="465.5" x2="855.5" y1="434.9063" y2="434.9063"/><text fill="#000000" font-family="sans-serif" font-size="13" lengthAdjust="spacingAndGlyphs" textLength="335" x="472.5" y="399.9731">ObtenirAgendaAgent(idAgent, numSemaine, annee)</text><text fill="#000000" font-family="sans-serif" font-size="13" lengthAdjust="spacingAndGlyphs" textLength="323" x="472.5" y="415.106">: Liste&lt;PlageAgenda&gt;, Liste&lt;TacheElementaire&gt;,</text><text fill="#000000" font-family="sans-serif" font-size="13" lengthAdjust="spacingAndGlyphs" textLength="129" x="480.5" y="430.2388">Liste&lt;TypeActivite&gt;</text><line style="stroke: #000000; stroke-width: 1.0; stroke-dasharray: 2.0,2.0;" x1="13" x2="903.5" y1="444.3047" y2="444.3047"/><text fill="#000000" font-family="sans-serif" font-size="11" font-weight="bold" lengthAdjust="spacingAndGlyphs" textLength="120" x="18" y="454.5151">[changer semaine]</text><polygon fill="#383838" points="453.5,475.1094,463.5,479.1094,453.5,483.1094,457.5,479.1094" style="stroke: #383838; stroke-width: 1.0;"/><line style="stroke: #383838; stroke-width: 1.0;" x1="56.5" x2="459.5" y1="479.1094" y2="479.1094"/><text fill="#000000" font-family="sans-serif" font-size="13" lengthAdjust="spacingAndGlyphs" textLength="167" x="63.5" y="474.1763">Sélectionner une semaine</text><polygon fill="#383838" points="453.5,504.2422,463.5,508.2422,453.5,512.2422,457.5,508.2422" style="stroke: #383838; stroke-width: 1.0;"/><line style="stroke: #383838; stroke-width: 1.0;" x1="56.5" x2="459.5" y1="508.2422" y2="508.2422"/><text fill="#000000" font-family="sans-serif" font-size="13" lengthAdjust="spacingAndGlyphs" textLength="133" x="63.5" y="503.3091">Changer de semaine</text><polygon fill="#383838" points="849.5,563.375,859.5,567.375,849.5,571.375,853.5,567.375" style="stroke: #383838; stroke-width: 1.0;"/><line style="stroke: #383838; stroke-width: 1.0;" x1="465.5" x2="855.5" y1="567.375" y2="567.375"/><text fill="#000000" font-family="sans-serif" font-size="13" lengthAdjust="spacingAndGlyphs" textLength="335" x="472.5" y="532.4419">ObtenirAgendaAgent(idAgent, numSemaine, annee)</text><text fill="#000000" font-family="sans-serif" font-size="13" lengthAdjust="spacingAndGlyphs" textLength="323" x="472.5" y="547.5747">: Liste&lt;PlageAgenda&gt;, Liste&lt;TacheElementaire&gt;,</text><text fill="#000000" font-family="sans-serif" font-size="13" lengthAdjust="spacingAndGlyphs" textLength="129" x="480.5" y="562.7075">Liste&lt;TypeActivite&gt;</text><line style="stroke: #000000; stroke-width: 1.0; stroke-dasharray: 2.0,2.0;" x1="13" x2="903.5" y1="576.7734" y2="576.7734"/><text fill="#000000" font-family="sans-serif" font-size="11" font-weight="bold" lengthAdjust="spacingAndGlyphs" textLength="185" x="18" y="586.9839">[actions sur plages horaires]</text><rect fill="#FFFFFF" height="40.2656" style="stroke: #000000; stroke-width: 1.0;" width="458" x="30" y="590.5781"/><polygon fill="#EEEEEE" points="30,590.5781,96,590.5781,96,597.5781,86,607.5781,30,607.5781,30,590.5781" style="stroke: #000000; stroke-width: 1.0;"/><text fill="#000000" font-family="sans-serif" font-size="13" font-weight="bold" lengthAdjust="spacingAndGlyphs" textLength="21" x="43" y="604.645">ref</text><text fill="#000000" font-family="sans-serif" font-size="13" lengthAdjust="spacingAndGlyphs" textLength="131" x="193.5" y="623.645">Actions Agenda CU7</text><line style="stroke: #000000; stroke-width: 1.0; stroke-dasharray: 2.0,2.0;" x1="13" x2="903.5" y1="636.8438" y2="636.8438"/><text fill="#000000" font-family="sans-serif" font-size="11" font-weight="bold" lengthAdjust="spacingAndGlyphs" textLength="136" x="18" y="647.0542">[agenda de l'agence]</text><polygon fill="#383838" points="453.5,682.6484,463.5,686.6484,453.5,690.6484,457.5,686.6484" style="stroke: #383838; stroke-width: 1.0;"/><line style="stroke: #383838; stroke-width: 1.0;" x1="56.5" x2="459.5" y1="686.6484" y2="686.6484"/><text fill="#000000" font-family="sans-serif" font-size="13" lengthAdjust="spacingAndGlyphs" textLength="182" x="63.5" y="666.7153">Consulter l'agenda quotidien</text><text fill="#000000" font-family="sans-serif" font-size="13" lengthAdjust="spacingAndGlyphs" textLength="73" x="63.5" y="681.8481">de l'agence</text><polygon fill="#383838" points="849.5,741.9141,859.5,745.9141,849.5,749.9141,853.5,745.9141" style="stroke: #383838; stroke-width: 1.0;"/><line style="stroke: #383838; stroke-width: 1.0;" x1="465.5" x2="855.5" y1="745.9141" y2="745.9141"/><text fill="#000000" font-family="sans-serif" font-size="13" lengthAdjust="spacingAndGlyphs" textLength="372" x="472.5" y="710.981">ObtenirAgendaAgence(idAgence, dateJour, Liste&lt;Agent&gt;)</text><text fill="#000000" font-family="sans-serif" font-size="13" lengthAdjust="spacingAndGlyphs" textLength="323" x="472.5" y="726.1138">: Liste&lt;PlageAgenda&gt;, Liste&lt;TacheElementaire&gt;,</text><text fill="#000000" font-family="sans-serif" font-size="13" lengthAdjust="spacingAndGlyphs" textLength="129" x="480.5" y="741.2466">Liste&lt;TypeActivite&gt;</text><rect fill="none" height="194.8672" style="stroke: #000000; stroke-width: 1.0;" width="870.5" x="23" y="761.3125"/><polygon fill="#EEEEEE" points="23,761.3125,87,761.3125,87,768.3125,77,778.3125,23,778.3125,23,761.3125" style="stroke: #000000; stroke-width: 1.0;"/><text fill="#000000" font-family="sans-serif" font-size="13" font-weight="bold" lengthAdjust="spacingAndGlyphs" textLength="19" x="38" y="774.3794">alt</text><text fill="#000000" font-family="sans-serif" font-size="11" font-weight="bold" lengthAdjust="spacingAndGlyphs" textLength="95" x="102" y="773.5229">[changer date]</text><polygon fill="#383838" points="453.5,795.4453,463.5,799.4453,453.5,803.4453,457.5,799.4453" style="stroke: #383838; stroke-width: 1.0;"/><line style="stroke: #383838; stroke-width: 1.0;" x1="56.5" x2="459.5" y1="799.4453" y2="799.4453"/><text fill="#000000" font-family="sans-serif" font-size="13" lengthAdjust="spacingAndGlyphs" textLength="141" x="63.5" y="794.5122">Sélectionner une date</text><polygon fill="#383838" points="453.5,824.5781,463.5,828.5781,453.5,832.5781,457.5,828.5781" style="stroke: #383838; stroke-width: 1.0;"/><line style="stroke: #383838; stroke-width: 1.0;" x1="56.5" x2="459.5" y1="828.5781" y2="828.5781"/><text fill="#000000" font-family="sans-serif" font-size="13" lengthAdjust="spacingAndGlyphs" textLength="107" x="63.5" y="823.645">Changer de date</text><polygon fill="#383838" points="849.5,883.7109,859.5,887.7109,849.5,891.7109,853.5,887.7109" style="stroke: #383838; stroke-width: 1.0;"/><line style="stroke: #383838; stroke-width: 1.0;" x1="465.5" x2="855.5" y1="887.7109" y2="887.7109"/><text fill="#000000" font-family="sans-serif" font-size="13" lengthAdjust="spacingAndGlyphs" textLength="372" x="472.5" y="852.7778">ObtenirAgendaAgence(idAgence, dateJour, Liste&lt;Agent&gt;)</text><text fill="#000000" font-family="sans-serif" font-size="13" lengthAdjust="spacingAndGlyphs" textLength="323" x="472.5" y="867.9106">: Liste&lt;PlageAgenda&gt;, Liste&lt;TacheElementaire&gt;,</text><text fill="#000000" font-family="sans-serif" font-size="13" lengthAdjust="spacingAndGlyphs" textLength="129" x="480.5" y="883.0435">Liste&lt;TypeActivite&gt;</text><line style="stroke: #000000; stroke-width: 1.0; stroke-dasharray: 2.0,2.0;" x1="23" x2="893.5" y1="897.1094" y2="897.1094"/><text fill="#000000" font-family="sans-serif" font-size="11" font-weight="bold" lengthAdjust="spacingAndGlyphs" textLength="185" x="28" y="907.3198">[actions sur plages horaires]</text><rect fill="#FFFFFF" height="40.2656" style="stroke: #000000; stroke-width: 1.0;" width="458" x="30" y="910.9141"/><polygon fill="#EEEEEE" points="30,910.9141,96,910.9141,96,917.9141,86,927.9141,30,927.9141,30,910.9141" style="stroke: #000000; stroke-width: 1.0;"/><text fill="#000000" font-family="sans-serif" font-size="13" font-weight="bold" lengthAdjust="spacingAndGlyphs" textLength="21" x="43" y="924.981">ref</text><text fill="#000000" font-family="sans-serif" font-size="13" lengthAdjust="spacingAndGlyphs" textLength="131" x="193.5" y="943.981">Actions Agenda CU7</text></g></svg>