<?xml version="1.0" encoding="UTF-8" standalone="yes"?><svg xmlns="http://www.w3.org/2000/svg" xmlns:xlink="http://www.w3.org/1999/xlink" height="710px" style="width:712px;height:710px;" version="1.1" viewBox="0 0 712 710" width="712px"><defs/><g><text fill="#000000" font-family="sans-serif" font-size="20" lengthAdjust="spacingAndGlyphs" textLength="426" x="146.75" y="28.5645">Diagramme de séquence système du CU 2</text><line style="stroke: none; stroke-width: 1.0;" x1="146.75" x2="572.75" y1="38.2813" y2="38.2813"/><line style="stroke: #383838; stroke-width: 1.0; stroke-dasharray: 5.0,5.0;" x1="31" x2="31" y1="129.5781" y2="634.2344"/><line style="stroke: #383838; stroke-width: 1.0; stroke-dasharray: 5.0,5.0;" x1="313" x2="313" y1="129.5781" y2="634.2344"/><line style="stroke: #383838; stroke-width: 1.0; stroke-dasharray: 5.0,5.0;" x1="689.5" x2="689.5" y1="129.5781" y2="634.2344"/><text fill="#000000" font-family="sans-serif" font-size="14" lengthAdjust="spacingAndGlyphs" textLength="41" x="8" y="126.2764">Agent</text><ellipse cx="31.5" cy="60.2813" fill="#F8F8F8" rx="8" ry="8" style="stroke: #383838; stroke-width: 2.0;"/><path d="M31.5,68.2813 L31.5,95.2813 M18.5,76.2813 L44.5,76.2813 M31.5,95.2813 L18.5,110.2813 M31.5,95.2813 L44.5,110.2813 " fill="#F8F8F8" style="stroke: #383838; stroke-width: 2.0;"/><text fill="#000000" font-family="sans-serif" font-size="14" lengthAdjust="spacingAndGlyphs" textLength="41" x="8" y="646.2295">Agent</text><ellipse cx="31.5" cy="659.5313" fill="#F8F8F8" rx="8" ry="8" style="stroke: #383838; stroke-width: 2.0;"/><path d="M31.5,667.5313 L31.5,694.5313 M18.5,675.5313 L44.5,675.5313 M31.5,694.5313 L18.5,709.5313 M31.5,694.5313 L44.5,709.5313 " fill="#F8F8F8" style="stroke: #383838; stroke-width: 2.0;"/><rect fill="#F8F8F8" height="30.2969" style="stroke: #383838; stroke-width: 1.0;" width="39" x="294" y="98.2813"/><text fill="#000000" font-family="sans-serif" font-size="14" lengthAdjust="spacingAndGlyphs" textLength="25" x="301" y="118.2764">IHM</text><rect fill="#F8F8F8" height="30.2969" style="stroke: #383838; stroke-width: 1.0;" width="39" x="294" y="633.2344"/><text fill="#000000" font-family="sans-serif" font-size="14" lengthAdjust="spacingAndGlyphs" textLength="25" x="301" y="653.2295">IHM</text><rect fill="#F8F8F8" height="30.2969" style="stroke: #383838; stroke-width: 1.0;" width="44" x="667.5" y="98.2813"/><text fill="#000000" font-family="sans-serif" font-size="14" lengthAdjust="spacingAndGlyphs" textLength="30" x="674.5" y="118.2764">SMA</text><rect fill="#F8F8F8" height="30.2969" style="stroke: #383838; stroke-width: 1.0;" width="44" x="667.5" y="633.2344"/><text fill="#000000" font-family="sans-serif" font-size="14" lengthAdjust="spacingAndGlyphs" textLength="30" x="674.5" y="653.2295">SMA</text><polygon fill="#383838" points="301.5,171.5781,311.5,175.5781,301.5,179.5781,305.5,175.5781" style="stroke: #383838; stroke-width: 1.0;"/><line style="stroke: #383838; stroke-width: 1.0;" x1="31.5" x2="307.5" y1="175.5781" y2="175.5781"/><text fill="#000000" font-family="sans-serif" font-size="13" lengthAdjust="spacingAndGlyphs" textLength="192" x="38.5" y="155.645">Consulter la liste des contacts</text><text fill="#000000" font-family="sans-serif" font-size="13" lengthAdjust="spacingAndGlyphs" textLength="120" x="42.5" y="170.7778">prévus de l'agence</text><polygon fill="#383838" points="677.5,215.8438,687.5,219.8438,677.5,223.8438,681.5,219.8438" style="stroke: #383838; stroke-width: 1.0;"/><line style="stroke: #383838; stroke-width: 1.0;" x1="313.5" x2="683.5" y1="219.8438" y2="219.8438"/><text fill="#000000" font-family="sans-serif" font-size="13" lengthAdjust="spacingAndGlyphs" textLength="216" x="320.5" y="199.9106">ObtenirContactsPrevus(idAgence)</text><text fill="#000000" font-family="sans-serif" font-size="13" lengthAdjust="spacingAndGlyphs" textLength="296" x="320.5" y="215.0435">: Liste &lt;Contact, PlageAgenda, Agent, Client&gt;</text><polygon fill="#383838" points="301.5,245.1094,311.5,249.1094,301.5,253.1094,305.5,249.1094" style="stroke: #383838; stroke-width: 1.0;"/><line style="stroke: #383838; stroke-width: 1.0;" x1="31.5" x2="307.5" y1="249.1094" y2="249.1094"/><text fill="#000000" font-family="sans-serif" font-size="13" lengthAdjust="spacingAndGlyphs" textLength="152" x="38.5" y="244.1763">Sélectionner un contact</text><polygon fill="#383838" points="301.5,274.2422,311.5,278.2422,301.5,282.2422,305.5,278.2422" style="stroke: #383838; stroke-width: 1.0;"/><line style="stroke: #383838; stroke-width: 1.0;" x1="31.5" x2="307.5" y1="278.2422" y2="278.2422"/><text fill="#000000" font-family="sans-serif" font-size="13" lengthAdjust="spacingAndGlyphs" textLength="198" x="38.5" y="273.3091">Consulter le détail d'un contact</text><polygon fill="#383838" points="677.5,333.375,687.5,337.375,677.5,341.375,681.5,337.375" style="stroke: #383838; stroke-width: 1.0;"/><line style="stroke: #383838; stroke-width: 1.0;" x1="313.5" x2="683.5" y1="337.375" y2="337.375"/><text fill="#000000" font-family="sans-serif" font-size="13" lengthAdjust="spacingAndGlyphs" textLength="212" x="320.5" y="302.4419">ObtenirDetailsContact(idContact)</text><text fill="#000000" font-family="sans-serif" font-size="13" lengthAdjust="spacingAndGlyphs" textLength="258" x="320.5" y="317.5747">: contact, motifDeContact, Client, agent,</text><text fill="#000000" font-family="sans-serif" font-size="13" lengthAdjust="spacingAndGlyphs" textLength="352" x="320.5" y="332.7075">Liste&lt;PropositionCommerciale, Offre, Liste&lt;Produit&gt;&gt;</text><polygon fill="#383838" points="301.5,362.7734,311.5,366.7734,301.5,370.7734,305.5,366.7734" style="stroke: #383838; stroke-width: 1.0;"/><line style="stroke: #383838; stroke-width: 1.0;" x1="31.5" x2="307.5" y1="366.7734" y2="366.7734"/><text fill="#000000" font-family="sans-serif" font-size="13" lengthAdjust="spacingAndGlyphs" textLength="236" x="38.5" y="361.8403">Consulter le dossier client du contact</text><polygon fill="#383838" points="301.5,391.9063,311.5,395.9063,301.5,399.9063,305.5,395.9063" style="stroke: #383838; stroke-width: 1.0;"/><line style="stroke: #383838; stroke-width: 1.0;" x1="31.5" x2="307.5" y1="395.9063" y2="395.9063"/><text fill="#000000" font-family="sans-serif" font-size="13" lengthAdjust="spacingAndGlyphs" textLength="258" x="38.5" y="390.9731">Consulter la liste des agents de l'agence</text><polygon fill="#383838" points="677.5,436.0391,687.5,440.0391,677.5,444.0391,681.5,440.0391" style="stroke: #383838; stroke-width: 1.0;"/><line style="stroke: #383838; stroke-width: 1.0;" x1="313.5" x2="683.5" y1="440.0391" y2="440.0391"/><text fill="#000000" font-family="sans-serif" font-size="13" lengthAdjust="spacingAndGlyphs" textLength="161" x="320.5" y="420.106">ObtenirAgents(idAgence)</text><text fill="#000000" font-family="sans-serif" font-size="13" lengthAdjust="spacingAndGlyphs" textLength="98" x="320.5" y="435.2388">: Liste&lt;Agent&gt;</text><polygon fill="#383838" points="301.5,465.3047,311.5,469.3047,301.5,473.3047,305.5,469.3047" style="stroke: #383838; stroke-width: 1.0;"/><line style="stroke: #383838; stroke-width: 1.0;" x1="31.5" x2="307.5" y1="469.3047" y2="469.3047"/><text fill="#000000" font-family="sans-serif" font-size="13" lengthAdjust="spacingAndGlyphs" textLength="141" x="38.5" y="464.3716">Sélectionner un agent</text><polygon fill="#383838" points="301.5,494.4375,311.5,498.4375,301.5,502.4375,305.5,498.4375" style="stroke: #383838; stroke-width: 1.0;"/><line style="stroke: #383838; stroke-width: 1.0;" x1="31.5" x2="307.5" y1="498.4375" y2="498.4375"/><text fill="#000000" font-family="sans-serif" font-size="13" lengthAdjust="spacingAndGlyphs" textLength="187" x="38.5" y="493.5044">Consulter le détail d'un agent</text><polygon fill="#383838" points="677.5,538.5703,687.5,542.5703,677.5,546.5703,681.5,542.5703" style="stroke: #383838; stroke-width: 1.0;"/><line style="stroke: #383838; stroke-width: 1.0;" x1="313.5" x2="683.5" y1="542.5703" y2="542.5703"/><text fill="#000000" font-family="sans-serif" font-size="13" lengthAdjust="spacingAndGlyphs" textLength="188" x="320.5" y="522.6372">ObtenirDetailsAgent(idAgent)</text><text fill="#000000" font-family="sans-serif" font-size="13" lengthAdjust="spacingAndGlyphs" textLength="155" x="320.5" y="537.77">: agent, Liste&lt;Contact&gt;</text><polygon fill="#383838" points="301.5,567.8359,311.5,571.8359,301.5,575.8359,305.5,571.8359" style="stroke: #383838; stroke-width: 1.0;"/><line style="stroke: #383838; stroke-width: 1.0;" x1="31.5" x2="307.5" y1="571.8359" y2="571.8359"/><text fill="#000000" font-family="sans-serif" font-size="13" lengthAdjust="spacingAndGlyphs" textLength="253" x="38.5" y="566.9028">Affecter le contact à l'agent sélectionné</text><polygon fill="#383838" points="677.5,611.9688,687.5,615.9688,677.5,619.9688,681.5,615.9688" style="stroke: #383838; stroke-width: 1.0;"/><line style="stroke: #383838; stroke-width: 1.0;" x1="313.5" x2="683.5" y1="615.9688" y2="615.9688"/><text fill="#000000" font-family="sans-serif" font-size="13" lengthAdjust="spacingAndGlyphs" textLength="228" x="320.5" y="596.0356">AffecterContact(idContact, idAgent)</text><text fill="#000000" font-family="sans-serif" font-size="13" lengthAdjust="spacingAndGlyphs" textLength="34" x="320.5" y="611.1685">: void</text></g></svg>