<?xml version="1.0" encoding="UTF-8" standalone="yes"?><svg xmlns="http://www.w3.org/2000/svg" xmlns:xlink="http://www.w3.org/1999/xlink" height="753px" style="width:977px;height:753px;" version="1.1" viewBox="0 0 977 753" width="977px"><defs/><g><text fill="#000000" font-family="sans-serif" font-size="20" lengthAdjust="spacingAndGlyphs" textLength="569" x="207.75" y="28.5645">Diagramme de séquence système du CU 6 (partie client)</text><line style="stroke: none; stroke-width: 1.0;" x1="207.75" x2="776.75" y1="38.2813" y2="38.2813"/><line style="stroke: #383838; stroke-width: 1.0; stroke-dasharray: 5.0,5.0;" x1="31" x2="31" y1="129.5781" y2="677.3672"/><line style="stroke: #383838; stroke-width: 1.0; stroke-dasharray: 5.0,5.0;" x1="370" x2="370" y1="129.5781" y2="677.3672"/><line style="stroke: #383838; stroke-width: 1.0; stroke-dasharray: 5.0,5.0;" x1="954.5" x2="954.5" y1="129.5781" y2="677.3672"/><text fill="#000000" font-family="sans-serif" font-size="14" lengthAdjust="spacingAndGlyphs" textLength="41" x="8" y="126.2764">Agent</text><ellipse cx="31.5" cy="60.2813" fill="#F8F8F8" rx="8" ry="8" style="stroke: #383838; stroke-width: 2.0;"/><path d="M31.5,68.2813 L31.5,95.2813 M18.5,76.2813 L44.5,76.2813 M31.5,95.2813 L18.5,110.2813 M31.5,95.2813 L44.5,110.2813 " fill="#F8F8F8" style="stroke: #383838; stroke-width: 2.0;"/><text fill="#000000" font-family="sans-serif" font-size="14" lengthAdjust="spacingAndGlyphs" textLength="41" x="8" y="689.3623">Agent</text><ellipse cx="31.5" cy="702.6641" fill="#F8F8F8" rx="8" ry="8" style="stroke: #383838; stroke-width: 2.0;"/><path d="M31.5,710.6641 L31.5,737.6641 M18.5,718.6641 L44.5,718.6641 M31.5,737.6641 L18.5,752.6641 M31.5,737.6641 L44.5,752.6641 " fill="#F8F8F8" style="stroke: #383838; stroke-width: 2.0;"/><rect fill="#F8F8F8" height="30.2969" style="stroke: #383838; stroke-width: 1.0;" width="39" x="351" y="98.2813"/><text fill="#000000" font-family="sans-serif" font-size="14" lengthAdjust="spacingAndGlyphs" textLength="25" x="358" y="118.2764">IHM</text><rect fill="#F8F8F8" height="30.2969" style="stroke: #383838; stroke-width: 1.0;" width="39" x="351" y="676.3672"/><text fill="#000000" font-family="sans-serif" font-size="14" lengthAdjust="spacingAndGlyphs" textLength="25" x="358" y="696.3623">IHM</text><rect fill="#F8F8F8" height="30.2969" style="stroke: #383838; stroke-width: 1.0;" width="44" x="932.5" y="98.2813"/><text fill="#000000" font-family="sans-serif" font-size="14" lengthAdjust="spacingAndGlyphs" textLength="30" x="939.5" y="118.2764">SMA</text><rect fill="#F8F8F8" height="30.2969" style="stroke: #383838; stroke-width: 1.0;" width="44" x="932.5" y="676.3672"/><text fill="#000000" font-family="sans-serif" font-size="14" lengthAdjust="spacingAndGlyphs" textLength="30" x="939.5" y="696.3623">SMA</text><polygon fill="#383838" points="358.5,156.5781,368.5,160.5781,358.5,164.5781,362.5,160.5781" style="stroke: #383838; stroke-width: 1.0;"/><line style="stroke: #383838; stroke-width: 1.0;" x1="31.5" x2="364.5" y1="160.5781" y2="160.5781"/><text fill="#000000" font-family="sans-serif" font-size="13" lengthAdjust="spacingAndGlyphs" textLength="199" x="38.5" y="155.645">Saisir les informations du client</text><polygon fill="#383838" points="358.5,185.7109,368.5,189.7109,358.5,193.7109,362.5,189.7109" style="stroke: #383838; stroke-width: 1.0;"/><line style="stroke: #383838; stroke-width: 1.0;" x1="31.5" x2="364.5" y1="189.7109" y2="189.7109"/><text fill="#000000" font-family="sans-serif" font-size="13" lengthAdjust="spacingAndGlyphs" textLength="125" x="38.5" y="184.7778">Rechercher le client</text><polygon fill="#383838" points="942.5,229.8438,952.5,233.8438,942.5,237.8438,946.5,233.8438" style="stroke: #383838; stroke-width: 1.0;"/><line style="stroke: #383838; stroke-width: 1.0;" x1="370.5" x2="948.5" y1="233.8438" y2="233.8438"/><text fill="#000000" font-family="sans-serif" font-size="13" lengthAdjust="spacingAndGlyphs" textLength="560" x="377.5" y="213.9106">SM15 - RechercherClient(idClient, noCompte, denomination, idAgence, texteRecherche)</text><text fill="#000000" font-family="sans-serif" font-size="13" lengthAdjust="spacingAndGlyphs" textLength="44" x="377.5" y="229.0435">: Client</text><polygon fill="#383838" points="358.5,259.1094,368.5,263.1094,358.5,267.1094,362.5,263.1094" style="stroke: #383838; stroke-width: 1.0;"/><line style="stroke: #383838; stroke-width: 1.0;" x1="31.5" x2="364.5" y1="263.1094" y2="263.1094"/><text fill="#000000" font-family="sans-serif" font-size="13" lengthAdjust="spacingAndGlyphs" textLength="229" x="38.5" y="258.1763">Consulter son dossier client (CU 10)</text><polygon fill="#383838" points="358.5,288.2422,368.5,292.2422,358.5,296.2422,362.5,292.2422" style="stroke: #383838; stroke-width: 1.0;"/><line style="stroke: #383838; stroke-width: 1.0;" x1="31.5" x2="364.5" y1="292.2422" y2="292.2422"/><text fill="#000000" font-family="sans-serif" font-size="13" lengthAdjust="spacingAndGlyphs" textLength="183" x="38.5" y="287.3091">Voir les plages agenda libres</text><polygon fill="#383838" points="942.5,332.375,952.5,336.375,942.5,340.375,946.5,336.375" style="stroke: #383838; stroke-width: 1.0;"/><line style="stroke: #383838; stroke-width: 1.0;" x1="370.5" x2="948.5" y1="336.375" y2="336.375"/><text fill="#000000" font-family="sans-serif" font-size="13" lengthAdjust="spacingAndGlyphs" textLength="235" x="377.5" y="316.4419">SM16 - ObtenirPlagesLibres(idAgent)</text><text fill="#000000" font-family="sans-serif" font-size="13" lengthAdjust="spacingAndGlyphs" textLength="144" x="377.5" y="331.5747">: Liste&lt;PlageAgenda&gt;</text><polygon fill="#383838" points="358.5,361.6406,368.5,365.6406,358.5,369.6406,362.5,365.6406" style="stroke: #383838; stroke-width: 1.0;"/><line style="stroke: #383838; stroke-width: 1.0;" x1="31.5" x2="364.5" y1="365.6406" y2="365.6406"/><text fill="#000000" font-family="sans-serif" font-size="13" lengthAdjust="spacingAndGlyphs" textLength="234" x="38.5" y="360.7075">Saisir les infos concernant le contact</text><polygon fill="#383838" points="358.5,390.7734,368.5,394.7734,358.5,398.7734,362.5,394.7734" style="stroke: #383838; stroke-width: 1.0;"/><line style="stroke: #383838; stroke-width: 1.0;" x1="31.5" x2="364.5" y1="394.7734" y2="394.7734"/><text fill="#000000" font-family="sans-serif" font-size="13" lengthAdjust="spacingAndGlyphs" textLength="166" x="38.5" y="389.8403">Créer un nouveau contact</text><polygon fill="#383838" points="942.5,434.9063,952.5,438.9063,942.5,442.9063,946.5,438.9063" style="stroke: #383838; stroke-width: 1.0;"/><line style="stroke: #383838; stroke-width: 1.0;" x1="370.5" x2="948.5" y1="438.9063" y2="438.9063"/><text fill="#000000" font-family="sans-serif" font-size="13" lengthAdjust="spacingAndGlyphs" textLength="401" x="377.5" y="418.9731">SM17 - CreerContactSpontane(idClient, idAgent, motifContact)</text><text fill="#000000" font-family="sans-serif" font-size="13" lengthAdjust="spacingAndGlyphs" textLength="34" x="377.5" y="434.106">: void</text><polygon fill="#383838" points="358.5,464.1719,368.5,468.1719,358.5,472.1719,362.5,468.1719" style="stroke: #383838; stroke-width: 1.0;"/><line style="stroke: #383838; stroke-width: 1.0;" x1="31.5" x2="364.5" y1="468.1719" y2="468.1719"/><text fill="#000000" font-family="sans-serif" font-size="13" lengthAdjust="spacingAndGlyphs" textLength="315" x="38.5" y="463.2388">Saisir les informations concernant le rendez-vous</text><polygon fill="#383838" points="358.5,493.3047,368.5,497.3047,358.5,501.3047,362.5,497.3047" style="stroke: #383838; stroke-width: 1.0;"/><line style="stroke: #383838; stroke-width: 1.0;" x1="31.5" x2="364.5" y1="497.3047" y2="497.3047"/><text fill="#000000" font-family="sans-serif" font-size="13" lengthAdjust="spacingAndGlyphs" textLength="202" x="38.5" y="492.3716">Créer un rendez-vous spontané</text><polygon fill="#383838" points="942.5,537.4375,952.5,541.4375,942.5,545.4375,946.5,541.4375" style="stroke: #383838; stroke-width: 1.0;"/><line style="stroke: #383838; stroke-width: 1.0;" x1="370.5" x2="948.5" y1="541.4375" y2="541.4375"/><text fill="#000000" font-family="sans-serif" font-size="13" lengthAdjust="spacingAndGlyphs" textLength="456" x="377.5" y="521.5044">SM18 - CreerRDVSpontane(idContact, dateDeb, dateFin, commentaire)</text><text fill="#000000" font-family="sans-serif" font-size="13" lengthAdjust="spacingAndGlyphs" textLength="34" x="377.5" y="536.6372">: void</text><polygon fill="#383838" points="358.5,566.7031,368.5,570.7031,358.5,574.7031,362.5,570.7031" style="stroke: #383838; stroke-width: 1.0;"/><line style="stroke: #383838; stroke-width: 1.0;" x1="31.5" x2="364.5" y1="570.7031" y2="570.7031"/><text fill="#000000" font-family="sans-serif" font-size="13" lengthAdjust="spacingAndGlyphs" textLength="281" x="38.5" y="565.77">Ecrire lettre de confirmation de rendez-vous</text><polygon fill="#383838" points="358.5,610.8359,368.5,614.8359,358.5,618.8359,362.5,614.8359" style="stroke: #383838; stroke-width: 1.0;"/><line style="stroke: #383838; stroke-width: 1.0;" x1="31.5" x2="364.5" y1="614.8359" y2="614.8359"/><text fill="#000000" font-family="sans-serif" font-size="13" lengthAdjust="spacingAndGlyphs" textLength="90" x="38.5" y="594.9028">Editer la lettre</text><text fill="#000000" font-family="sans-serif" font-size="13" lengthAdjust="spacingAndGlyphs" textLength="203" x="38.5" y="610.0356">de confirmation du rendez-vous</text><polygon fill="#383838" points="942.5,655.1016,952.5,659.1016,942.5,663.1016,946.5,659.1016" style="stroke: #383838; stroke-width: 1.0;"/><line style="stroke: #383838; stroke-width: 1.0;" x1="370.5" x2="948.5" y1="659.1016" y2="659.1016"/><text fill="#000000" font-family="sans-serif" font-size="13" lengthAdjust="spacingAndGlyphs" textLength="412" x="377.5" y="639.1685">SM14 - EnregistrerLettreConfirmationRdv(idContact, texteLettre)</text><text fill="#000000" font-family="sans-serif" font-size="13" lengthAdjust="spacingAndGlyphs" textLength="34" x="377.5" y="654.3013">: void</text></g></svg>