<?xml version="1.0" encoding="UTF-8" standalone="yes"?><svg xmlns="http://www.w3.org/2000/svg" xmlns:xlink="http://www.w3.org/1999/xlink" height="622px" style="width:809px;height:622px;" version="1.1" viewBox="0 0 809 622" width="809px"><defs/><g><text fill="#000000" font-family="sans-serif" font-size="20" lengthAdjust="spacingAndGlyphs" textLength="426" x="195" y="28.5645">Diagramme de séquence système du CU 2</text><line style="stroke: none; stroke-width: 1.0;" x1="195" x2="621" y1="38.2813" y2="38.2813"/><line style="stroke: #383838; stroke-width: 1.0; stroke-dasharray: 5.0,5.0;" x1="61" x2="61" y1="129.5781" y2="545.7031"/><line style="stroke: #383838; stroke-width: 1.0; stroke-dasharray: 5.0,5.0;" x1="342.5" x2="342.5" y1="129.5781" y2="545.7031"/><line style="stroke: #383838; stroke-width: 1.0; stroke-dasharray: 5.0,5.0;" x1="786" x2="786" y1="129.5781" y2="545.7031"/><text fill="#000000" font-family="sans-serif" font-size="14" lengthAdjust="spacingAndGlyphs" textLength="100" x="8" y="126.2764">Chef d'agence</text><ellipse cx="61" cy="60.2813" fill="#F8F8F8" rx="8" ry="8" style="stroke: #383838; stroke-width: 2.0;"/><path d="M61,68.2813 L61,95.2813 M48,76.2813 L74,76.2813 M61,95.2813 L48,110.2813 M61,95.2813 L74,110.2813 " fill="#F8F8F8" style="stroke: #383838; stroke-width: 2.0;"/><text fill="#000000" font-family="sans-serif" font-size="14" lengthAdjust="spacingAndGlyphs" textLength="100" x="8" y="557.6982">Chef d'agence</text><ellipse cx="61" cy="571" fill="#F8F8F8" rx="8" ry="8" style="stroke: #383838; stroke-width: 2.0;"/><path d="M61,579 L61,606 M48,587 L74,587 M61,606 L48,621 M61,606 L74,621 " fill="#F8F8F8" style="stroke: #383838; stroke-width: 2.0;"/><rect fill="#F8F8F8" height="30.2969" style="stroke: #383838; stroke-width: 1.0;" width="39" x="323.5" y="98.2813"/><text fill="#000000" font-family="sans-serif" font-size="14" lengthAdjust="spacingAndGlyphs" textLength="25" x="330.5" y="118.2764">IHM</text><rect fill="#F8F8F8" height="30.2969" style="stroke: #383838; stroke-width: 1.0;" width="39" x="323.5" y="544.7031"/><text fill="#000000" font-family="sans-serif" font-size="14" lengthAdjust="spacingAndGlyphs" textLength="25" x="330.5" y="564.6982">IHM</text><rect fill="#F8F8F8" height="30.2969" style="stroke: #383838; stroke-width: 1.0;" width="44" x="764" y="98.2813"/><text fill="#000000" font-family="sans-serif" font-size="14" lengthAdjust="spacingAndGlyphs" textLength="30" x="771" y="118.2764">SMA</text><rect fill="#F8F8F8" height="30.2969" style="stroke: #383838; stroke-width: 1.0;" width="44" x="764" y="544.7031"/><text fill="#000000" font-family="sans-serif" font-size="14" lengthAdjust="spacingAndGlyphs" textLength="30" x="771" y="564.6982">SMA</text><polygon fill="#383838" points="331,171.5781,341,175.5781,331,179.5781,335,175.5781" style="stroke: #383838; stroke-width: 1.0;"/><line style="stroke: #383838; stroke-width: 1.0;" x1="61" x2="337" y1="175.5781" y2="175.5781"/><text fill="#000000" font-family="sans-serif" font-size="13" lengthAdjust="spacingAndGlyphs" textLength="192" x="68" y="155.645">Consulter la liste des contacts</text><text fill="#000000" font-family="sans-serif" font-size="13" lengthAdjust="spacingAndGlyphs" textLength="120" x="72" y="170.7778">prévus de l'agence</text><polygon fill="#383838" points="774,215.8438,784,219.8438,774,223.8438,778,219.8438" style="stroke: #383838; stroke-width: 1.0;"/><line style="stroke: #383838; stroke-width: 1.0;" x1="343" x2="780" y1="219.8438" y2="219.8438"/><text fill="#000000" font-family="sans-serif" font-size="13" lengthAdjust="spacingAndGlyphs" textLength="257" x="350" y="199.9106">SM2 - ObtenirContactsPrevus(idAgence)</text><text fill="#000000" font-family="sans-serif" font-size="13" lengthAdjust="spacingAndGlyphs" textLength="419" x="350" y="215.0435">: Liste &lt;Contact, PlageAgenda, TacheElementaire, Agent, Client&gt;</text><polygon fill="#383838" points="331,245.1094,341,249.1094,331,253.1094,335,249.1094" style="stroke: #383838; stroke-width: 1.0;"/><line style="stroke: #383838; stroke-width: 1.0;" x1="61" x2="337" y1="249.1094" y2="249.1094"/><text fill="#000000" font-family="sans-serif" font-size="13" lengthAdjust="spacingAndGlyphs" textLength="152" x="68" y="244.1763">Sélectionner un contact</text><polygon fill="#383838" points="331,289.2422,341,293.2422,331,297.2422,335,293.2422" style="stroke: #383838; stroke-width: 1.0;"/><line style="stroke: #383838; stroke-width: 1.0;" x1="61" x2="337" y1="293.2422" y2="293.2422"/><text fill="#000000" font-family="sans-serif" font-size="13" lengthAdjust="spacingAndGlyphs" textLength="198" x="68" y="273.3091">Consulter le détail d'un contact</text><text fill="#000000" font-family="sans-serif" font-size="13" lengthAdjust="spacingAndGlyphs" textLength="41" x="68" y="288.4419">(CU 4)</text><polygon fill="#383838" points="331,318.5078,341,322.5078,331,326.5078,335,322.5078" style="stroke: #383838; stroke-width: 1.0;"/><line style="stroke: #383838; stroke-width: 1.0;" x1="61" x2="337" y1="322.5078" y2="322.5078"/><text fill="#000000" font-family="sans-serif" font-size="13" lengthAdjust="spacingAndGlyphs" textLength="236" x="68" y="317.5747">Consulter le dossier client du contact</text><polygon fill="#383838" points="774,347.6406,784,351.6406,774,355.6406,778,351.6406" style="stroke: #383838; stroke-width: 1.0;"/><line style="stroke: #383838; stroke-width: 1.0;" x1="343" x2="780" y1="351.6406" y2="351.6406"/><text fill="#000000" font-family="sans-serif" font-size="13" lengthAdjust="spacingAndGlyphs" textLength="311" x="350" y="346.7075">SM3 - ObtenirClientDuContact(idContact) : Client</text><polygon fill="#383838" points="331,376.7734,341,380.7734,331,384.7734,335,380.7734" style="stroke: #383838; stroke-width: 1.0;"/><line style="stroke: #383838; stroke-width: 1.0;" x1="61" x2="337" y1="380.7734" y2="380.7734"/><text fill="#000000" font-family="sans-serif" font-size="13" lengthAdjust="spacingAndGlyphs" textLength="258" x="68" y="375.8403">Consulter la liste des agents de l'agence</text><polygon fill="#383838" points="774,420.9063,784,424.9063,774,428.9063,778,424.9063" style="stroke: #383838; stroke-width: 1.0;"/><line style="stroke: #383838; stroke-width: 1.0;" x1="343" x2="780" y1="424.9063" y2="424.9063"/><text fill="#000000" font-family="sans-serif" font-size="13" lengthAdjust="spacingAndGlyphs" textLength="202" x="350" y="404.9731">SM4 - ObtenirAgents(idAgence)</text><text fill="#000000" font-family="sans-serif" font-size="13" lengthAdjust="spacingAndGlyphs" textLength="98" x="350" y="420.106">: Liste&lt;Agent&gt;</text><polygon fill="#383838" points="331,450.1719,341,454.1719,331,458.1719,335,454.1719" style="stroke: #383838; stroke-width: 1.0;"/><line style="stroke: #383838; stroke-width: 1.0;" x1="61" x2="337" y1="454.1719" y2="454.1719"/><text fill="#000000" font-family="sans-serif" font-size="13" lengthAdjust="spacingAndGlyphs" textLength="141" x="68" y="449.2388">Sélectionner un agent</text><polygon fill="#383838" points="331,479.3047,341,483.3047,331,487.3047,335,483.3047" style="stroke: #383838; stroke-width: 1.0;"/><line style="stroke: #383838; stroke-width: 1.0;" x1="61" x2="337" y1="483.3047" y2="483.3047"/><text fill="#000000" font-family="sans-serif" font-size="13" lengthAdjust="spacingAndGlyphs" textLength="253" x="68" y="478.3716">Affecter le contact à l'agent sélectionné</text><polygon fill="#383838" points="774,523.4375,784,527.4375,774,531.4375,778,527.4375" style="stroke: #383838; stroke-width: 1.0;"/><line style="stroke: #383838; stroke-width: 1.0;" x1="343" x2="780" y1="527.4375" y2="527.4375"/><text fill="#000000" font-family="sans-serif" font-size="13" lengthAdjust="spacingAndGlyphs" textLength="413" x="350" y="507.5044">SM5 - AffecterContact(idContact, idAncienAgent, idNouvelAgent)</text><text fill="#000000" font-family="sans-serif" font-size="13" lengthAdjust="spacingAndGlyphs" textLength="34" x="350" y="522.6372">: void</text></g></svg>