<?xml version="1.0" encoding="UTF-8" standalone="yes"?><svg xmlns="http://www.w3.org/2000/svg" xmlns:xlink="http://www.w3.org/1999/xlink" height="550px" style="width:986px;height:550px;" version="1.1" viewBox="0 0 986 550" width="986px"><defs/><g><text fill="#000000" font-family="sans-serif" font-size="20" lengthAdjust="spacingAndGlyphs" textLength="127" x="435.5" y="28.5645">DSS du CU 5</text><line style="stroke: none; stroke-width: 1.0;" x1="435.5" x2="562.5" y1="38.2813" y2="38.2813"/><rect fill="#FFFFFF" height="237" style="stroke: #000000; stroke-width: 1.0;" width="972" x="13" y="219.9766"/><rect fill="#FFFFFF" height="88.2031" style="stroke: none; stroke-width: 1.0;" width="972" x="13" y="368.7734"/><line style="stroke: #383838; stroke-width: 1.0; stroke-dasharray: 5.0,5.0;" x1="76" x2="76" y1="129.5781" y2="473.9766"/><line style="stroke: #383838; stroke-width: 1.0; stroke-dasharray: 5.0,5.0;" x1="353.5" x2="353.5" y1="129.5781" y2="473.9766"/><line style="stroke: #383838; stroke-width: 1.0; stroke-dasharray: 5.0,5.0;" x1="953" x2="953" y1="129.5781" y2="473.9766"/><text fill="#000000" font-family="sans-serif" font-size="14" lengthAdjust="spacingAndGlyphs" textLength="100" x="23" y="126.2764">Chef d'agence</text><ellipse cx="76" cy="60.2813" fill="#F8F8F8" rx="8" ry="8" style="stroke: #383838; stroke-width: 2.0;"/><path d="M76,68.2813 L76,95.2813 M63,76.2813 L89,76.2813 M76,95.2813 L63,110.2813 M76,95.2813 L89,110.2813 " fill="#F8F8F8" style="stroke: #383838; stroke-width: 2.0;"/><text fill="#000000" font-family="sans-serif" font-size="14" lengthAdjust="spacingAndGlyphs" textLength="100" x="23" y="485.9717">Chef d'agence</text><ellipse cx="76" cy="499.2734" fill="#F8F8F8" rx="8" ry="8" style="stroke: #383838; stroke-width: 2.0;"/><path d="M76,507.2734 L76,534.2734 M63,515.2734 L89,515.2734 M76,534.2734 L63,549.2734 M76,534.2734 L89,549.2734 " fill="#F8F8F8" style="stroke: #383838; stroke-width: 2.0;"/><rect fill="#F8F8F8" height="30.2969" style="stroke: #383838; stroke-width: 1.0;" width="39" x="334.5" y="98.2813"/><text fill="#000000" font-family="sans-serif" font-size="14" lengthAdjust="spacingAndGlyphs" textLength="25" x="341.5" y="118.2764">IHM</text><rect fill="#F8F8F8" height="30.2969" style="stroke: #383838; stroke-width: 1.0;" width="39" x="334.5" y="472.9766"/><text fill="#000000" font-family="sans-serif" font-size="14" lengthAdjust="spacingAndGlyphs" textLength="25" x="341.5" y="492.9717">IHM</text><rect fill="#F8F8F8" height="30.2969" style="stroke: #383838; stroke-width: 1.0;" width="44" x="931" y="98.2813"/><text fill="#000000" font-family="sans-serif" font-size="14" lengthAdjust="spacingAndGlyphs" textLength="30" x="938" y="118.2764">SMA</text><rect fill="#F8F8F8" height="30.2969" style="stroke: #383838; stroke-width: 1.0;" width="44" x="931" y="472.9766"/><text fill="#000000" font-family="sans-serif" font-size="14" lengthAdjust="spacingAndGlyphs" textLength="30" x="938" y="492.9717">SMA</text><polygon fill="#383838" points="342,171.5781,352,175.5781,342,179.5781,346,175.5781" style="stroke: #383838; stroke-width: 1.0;"/><line style="stroke: #383838; stroke-width: 1.0;" x1="76" x2="348" y1="175.5781" y2="175.5781"/><text fill="#000000" font-family="sans-serif" font-size="13" lengthAdjust="spacingAndGlyphs" textLength="119" x="83" y="155.645">Consulter l'agenda</text><text fill="#000000" font-family="sans-serif" font-size="13" lengthAdjust="spacingAndGlyphs" textLength="41" x="83" y="170.7778">(CU 7)</text><polygon fill="#383838" points="342,200.8438,352,204.8438,342,208.8438,346,204.8438" style="stroke: #383838; stroke-width: 1.0;"/><line style="stroke: #383838; stroke-width: 1.0;" x1="76" x2="348" y1="204.8438" y2="204.8438"/><text fill="#000000" font-family="sans-serif" font-size="13" lengthAdjust="spacingAndGlyphs" textLength="184" x="83" y="199.9106">Passer en mode planification</text><rect fill="none" height="237" style="stroke: #000000; stroke-width: 1.0;" width="972" x="13" y="219.9766"/><polygon fill="#EEEEEE" points="13,219.9766,77,219.9766,77,226.9766,67,236.9766,13,236.9766,13,219.9766" style="stroke: #000000; stroke-width: 1.0;"/><text fill="#000000" font-family="sans-serif" font-size="13" font-weight="bold" lengthAdjust="spacingAndGlyphs" textLength="19" x="28" y="233.0435">alt</text><text fill="#000000" font-family="sans-serif" font-size="11" font-weight="bold" lengthAdjust="spacingAndGlyphs" textLength="124" x="92" y="232.187">[ajouter une plage]</text><polygon fill="#383838" points="342,254.1094,352,258.1094,342,262.1094,346,258.1094" style="stroke: #383838; stroke-width: 1.0;"/><line style="stroke: #383838; stroke-width: 1.0;" x1="76" x2="348" y1="258.1094" y2="258.1094"/><text fill="#000000" font-family="sans-serif" font-size="13" lengthAdjust="spacingAndGlyphs" textLength="227" x="83" y="253.1763">Sélectionner une plage horaire libre</text><polygon fill="#383838" points="342,283.2422,352,287.2422,342,291.2422,346,287.2422" style="stroke: #383838; stroke-width: 1.0;"/><line style="stroke: #383838; stroke-width: 1.0;" x1="76" x2="348" y1="287.2422" y2="287.2422"/><text fill="#000000" font-family="sans-serif" font-size="13" lengthAdjust="spacingAndGlyphs" textLength="254" x="83" y="282.3091">Sélectionner le type d'activité à planifier</text><polygon fill="#383838" points="342,312.375,352,316.375,342,320.375,346,316.375" style="stroke: #383838; stroke-width: 1.0;"/><line style="stroke: #383838; stroke-width: 1.0;" x1="76" x2="348" y1="316.375" y2="316.375"/><text fill="#000000" font-family="sans-serif" font-size="13" lengthAdjust="spacingAndGlyphs" textLength="154" x="83" y="311.4419">Créer une plage agenda</text><polygon fill="#383838" points="941,356.5078,951,360.5078,941,364.5078,945,360.5078" style="stroke: #383838; stroke-width: 1.0;"/><line style="stroke: #383838; stroke-width: 1.0;" x1="354" x2="947" y1="360.5078" y2="360.5078"/><text fill="#000000" font-family="sans-serif" font-size="13" lengthAdjust="spacingAndGlyphs" textLength="575" x="361" y="340.5747">SM11 - CreerPlageAgenda(idAgent, idActivite, datePlageHoraireDeb, datePlageHoraireFin)</text><text fill="#000000" font-family="sans-serif" font-size="13" lengthAdjust="spacingAndGlyphs" textLength="34" x="361" y="355.7075">: void</text><line style="stroke: #000000; stroke-width: 1.0; stroke-dasharray: 2.0,2.0;" x1="13" x2="985" y1="369.7734" y2="369.7734"/><text fill="#000000" font-family="sans-serif" font-size="11" font-weight="bold" lengthAdjust="spacingAndGlyphs" textLength="165" x="18" y="379.9839">[terminer la planification]</text><polygon fill="#383838" points="342,400.5781,352,404.5781,342,408.5781,346,404.5781" style="stroke: #383838; stroke-width: 1.0;"/><line style="stroke: #383838; stroke-width: 1.0;" x1="76" x2="348" y1="404.5781" y2="404.5781"/><text fill="#000000" font-family="sans-serif" font-size="13" lengthAdjust="spacingAndGlyphs" textLength="239" x="83" y="399.645">Valider et sortir du mode planification</text><polygon fill="#383838" points="941,444.7109,951,448.7109,941,452.7109,945,448.7109" style="stroke: #383838; stroke-width: 1.0;"/><line style="stroke: #383838; stroke-width: 1.0;" x1="354" x2="947" y1="448.7109" y2="448.7109"/><text fill="#000000" font-family="sans-serif" font-size="13" lengthAdjust="spacingAndGlyphs" textLength="423" x="361" y="428.7778">SM12 - MajNbContactsPotentiels(idAgent, Liste&lt;idPlageAgenda&gt;)</text><text fill="#000000" font-family="sans-serif" font-size="13" lengthAdjust="spacingAndGlyphs" textLength="34" x="361" y="443.9106">: void</text></g></svg>