<?xml version="1.0" encoding="UTF-8" standalone="yes"?><svg xmlns="http://www.w3.org/2000/svg" xmlns:xlink="http://www.w3.org/1999/xlink" height="891px" style="width:908px;height:891px;" version="1.1" viewBox="0 0 908 891" width="908px"><defs/><g><text fill="#000000" font-family="sans-serif" font-size="20" lengthAdjust="spacingAndGlyphs" textLength="426" x="247.25" y="28.5645">Diagramme de séquence système du CU 7</text><line style="stroke: none; stroke-width: 1.0;" x1="247.25" x2="673.25" y1="38.2813" y2="38.2813"/><text fill="#000000" font-family="sans-serif" font-size="20" lengthAdjust="spacingAndGlyphs" textLength="155" x="382.75" y="61.8457">Actions agenda</text><line style="stroke: none; stroke-width: 1.0;" x1="247.25" x2="673.25" y1="71.5625" y2="71.5625"/><rect fill="#FFFFFF" height="618.4688" style="stroke: #000000; stroke-width: 1.0;" width="894.5" x="13" y="179.8594"/><rect fill="#FFFFFF" height="132.4688" style="stroke: none; stroke-width: 1.0;" width="894.5" x="13" y="402.0547"/><rect fill="#FFFFFF" height="146.4688" style="stroke: none; stroke-width: 1.0;" width="894.5" x="13" y="534.5234"/><rect fill="#FFFFFF" height="117.3359" style="stroke: none; stroke-width: 1.0;" width="894.5" x="13" y="680.9922"/><line style="stroke: #383838; stroke-width: 1.0; stroke-dasharray: 5.0,5.0;" x1="46" x2="46" y1="162.8594" y2="815.3281"/><line style="stroke: #383838; stroke-width: 1.0; stroke-dasharray: 5.0,5.0;" x1="328" x2="328" y1="162.8594" y2="815.3281"/><line style="stroke: #383838; stroke-width: 1.0; stroke-dasharray: 5.0,5.0;" x1="875.5" x2="875.5" y1="162.8594" y2="815.3281"/><text fill="#000000" font-family="sans-serif" font-size="14" lengthAdjust="spacingAndGlyphs" textLength="41" x="23" y="159.5576">Agent</text><ellipse cx="46.5" cy="93.5625" fill="#F8F8F8" rx="8" ry="8" style="stroke: #383838; stroke-width: 2.0;"/><path d="M46.5,101.5625 L46.5,128.5625 M33.5,109.5625 L59.5,109.5625 M46.5,128.5625 L33.5,143.5625 M46.5,128.5625 L59.5,143.5625 " fill="#F8F8F8" style="stroke: #383838; stroke-width: 2.0;"/><text fill="#000000" font-family="sans-serif" font-size="14" lengthAdjust="spacingAndGlyphs" textLength="41" x="23" y="827.3232">Agent</text><ellipse cx="46.5" cy="840.625" fill="#F8F8F8" rx="8" ry="8" style="stroke: #383838; stroke-width: 2.0;"/><path d="M46.5,848.625 L46.5,875.625 M33.5,856.625 L59.5,856.625 M46.5,875.625 L33.5,890.625 M46.5,875.625 L59.5,890.625 " fill="#F8F8F8" style="stroke: #383838; stroke-width: 2.0;"/><rect fill="#F8F8F8" height="30.2969" style="stroke: #383838; stroke-width: 1.0;" width="39" x="309" y="131.5625"/><text fill="#000000" font-family="sans-serif" font-size="14" lengthAdjust="spacingAndGlyphs" textLength="25" x="316" y="151.5576">IHM</text><rect fill="#F8F8F8" height="30.2969" style="stroke: #383838; stroke-width: 1.0;" width="39" x="309" y="814.3281"/><text fill="#000000" font-family="sans-serif" font-size="14" lengthAdjust="spacingAndGlyphs" textLength="25" x="316" y="834.3232">IHM</text><rect fill="#F8F8F8" height="30.2969" style="stroke: #383838; stroke-width: 1.0;" width="44" x="853.5" y="131.5625"/><text fill="#000000" font-family="sans-serif" font-size="14" lengthAdjust="spacingAndGlyphs" textLength="30" x="860.5" y="151.5576">SMA</text><rect fill="#F8F8F8" height="30.2969" style="stroke: #383838; stroke-width: 1.0;" width="44" x="853.5" y="814.3281"/><text fill="#000000" font-family="sans-serif" font-size="14" lengthAdjust="spacingAndGlyphs" textLength="30" x="860.5" y="834.3232">SMA</text><rect fill="none" height="618.4688" style="stroke: #000000; stroke-width: 1.0;" width="894.5" x="13" y="179.8594"/><polygon fill="#EEEEEE" points="13,179.8594,77,179.8594,77,186.8594,67,196.8594,13,196.8594,13,179.8594" style="stroke: #000000; stroke-width: 1.0;"/><text fill="#000000" font-family="sans-serif" font-size="13" font-weight="bold" lengthAdjust="spacingAndGlyphs" textLength="19" x="28" y="192.9263">alt</text><text fill="#000000" font-family="sans-serif" font-size="11" font-weight="bold" lengthAdjust="spacingAndGlyphs" textLength="98" x="92" y="192.0698">[réaffecter rdv]</text><polygon fill="#383838" points="316.5,213.9922,326.5,217.9922,316.5,221.9922,320.5,217.9922" style="stroke: #383838; stroke-width: 1.0;"/><line style="stroke: #383838; stroke-width: 1.0;" x1="46.5" x2="322.5" y1="217.9922" y2="217.9922"/><text fill="#000000" font-family="sans-serif" font-size="13" lengthAdjust="spacingAndGlyphs" textLength="183" x="53.5" y="213.0591">Sélectionner un rendez-vous</text><polygon fill="#383838" points="316.5,243.125,326.5,247.125,316.5,251.125,320.5,247.125" style="stroke: #383838; stroke-width: 1.0;"/><line style="stroke: #383838; stroke-width: 1.0;" x1="46.5" x2="322.5" y1="247.125" y2="247.125"/><text fill="#000000" font-family="sans-serif" font-size="13" lengthAdjust="spacingAndGlyphs" textLength="258" x="53.5" y="242.1919">Consulter la liste des agents de l'agence</text><polygon fill="#383838" points="863.5,287.2578,873.5,291.2578,863.5,295.2578,867.5,291.2578" style="stroke: #383838; stroke-width: 1.0;"/><line style="stroke: #383838; stroke-width: 1.0;" x1="328.5" x2="869.5" y1="291.2578" y2="291.2578"/><text fill="#000000" font-family="sans-serif" font-size="13" lengthAdjust="spacingAndGlyphs" textLength="161" x="335.5" y="271.3247">ObtenirAgents(idAgence)</text><text fill="#000000" font-family="sans-serif" font-size="13" lengthAdjust="spacingAndGlyphs" textLength="98" x="335.5" y="286.4575">: Liste&lt;Agent&gt;</text><polygon fill="#383838" points="316.5,316.5234,326.5,320.5234,316.5,324.5234,320.5,320.5234" style="stroke: #383838; stroke-width: 1.0;"/><line style="stroke: #383838; stroke-width: 1.0;" x1="46.5" x2="322.5" y1="320.5234" y2="320.5234"/><text fill="#000000" font-family="sans-serif" font-size="13" lengthAdjust="spacingAndGlyphs" textLength="141" x="53.5" y="315.5903">Sélectionner un agent</text><polygon fill="#383838" points="316.5,345.6563,326.5,349.6563,316.5,353.6563,320.5,349.6563" style="stroke: #383838; stroke-width: 1.0;"/><line style="stroke: #383838; stroke-width: 1.0;" x1="46.5" x2="322.5" y1="349.6563" y2="349.6563"/><text fill="#000000" font-family="sans-serif" font-size="13" lengthAdjust="spacingAndGlyphs" textLength="96" x="53.5" y="344.7231">Reaffecter RDV</text><polygon fill="#383838" points="863.5,389.7891,873.5,393.7891,863.5,397.7891,867.5,393.7891" style="stroke: #383838; stroke-width: 1.0;"/><line style="stroke: #383838; stroke-width: 1.0;" x1="328.5" x2="869.5" y1="393.7891" y2="393.7891"/><text fill="#000000" font-family="sans-serif" font-size="13" lengthAdjust="spacingAndGlyphs" textLength="250" x="335.5" y="373.856">ReaffecterRdv(idPlageAgenda, idAgent)</text><text fill="#000000" font-family="sans-serif" font-size="13" lengthAdjust="spacingAndGlyphs" textLength="34" x="335.5" y="388.9888">: void</text><line style="stroke: #000000; stroke-width: 1.0; stroke-dasharray: 2.0,2.0;" x1="13" x2="907.5" y1="403.0547" y2="403.0547"/><text fill="#000000" font-family="sans-serif" font-size="11" font-weight="bold" lengthAdjust="spacingAndGlyphs" textLength="142" x="18" y="413.2651">[consulter détails rdv]</text><polygon fill="#383838" points="316.5,433.8594,326.5,437.8594,316.5,441.8594,320.5,437.8594" style="stroke: #383838; stroke-width: 1.0;"/><line style="stroke: #383838; stroke-width: 1.0;" x1="46.5" x2="322.5" y1="437.8594" y2="437.8594"/><text fill="#000000" font-family="sans-serif" font-size="13" lengthAdjust="spacingAndGlyphs" textLength="183" x="53.5" y="432.9263">Sélectionner un rendez-vous</text><polygon fill="#383838" points="316.5,462.9922,326.5,466.9922,316.5,470.9922,320.5,466.9922" style="stroke: #383838; stroke-width: 1.0;"/><line style="stroke: #383838; stroke-width: 1.0;" x1="46.5" x2="322.5" y1="466.9922" y2="466.9922"/><text fill="#000000" font-family="sans-serif" font-size="13" lengthAdjust="spacingAndGlyphs" textLength="138" x="53.5" y="462.0591">Consulter détails RDV</text><polygon fill="#383838" points="863.5,522.125,873.5,526.125,863.5,530.125,867.5,526.125" style="stroke: #383838; stroke-width: 1.0;"/><line style="stroke: #383838; stroke-width: 1.0;" x1="328.5" x2="869.5" y1="526.125" y2="526.125"/><text fill="#000000" font-family="sans-serif" font-size="13" lengthAdjust="spacingAndGlyphs" textLength="219" x="335.5" y="491.1919">ObtenirDetailsRdv(idPlageAgenda)</text><text fill="#000000" font-family="sans-serif" font-size="13" lengthAdjust="spacingAndGlyphs" textLength="200" x="335.5" y="506.3247">: PlageAgenda, Agent, Contact,</text><text fill="#000000" font-family="sans-serif" font-size="13" lengthAdjust="spacingAndGlyphs" textLength="143" x="335.5" y="521.4575">MotifDeContact, Client</text><line style="stroke: #000000; stroke-width: 1.0; stroke-dasharray: 2.0,2.0;" x1="13" x2="907.5" y1="535.5234" y2="535.5234"/><text fill="#000000" font-family="sans-serif" font-size="11" font-weight="bold" lengthAdjust="spacingAndGlyphs" textLength="153" x="18" y="545.7339">[modifier plage horaire]</text><polygon fill="#383838" points="316.5,566.3281,326.5,570.3281,316.5,574.3281,320.5,570.3281" style="stroke: #383838; stroke-width: 1.0;"/><line style="stroke: #383838; stroke-width: 1.0;" x1="46.5" x2="322.5" y1="570.3281" y2="570.3281"/><text fill="#000000" font-family="sans-serif" font-size="13" lengthAdjust="spacingAndGlyphs" textLength="183" x="53.5" y="565.395">Sélectionner un rendez-vous</text><polygon fill="#383838" points="316.5,595.4609,326.5,599.4609,316.5,603.4609,320.5,599.4609" style="stroke: #383838; stroke-width: 1.0;"/><line style="stroke: #383838; stroke-width: 1.0;" x1="46.5" x2="322.5" y1="599.4609" y2="599.4609"/><text fill="#000000" font-family="sans-serif" font-size="13" lengthAdjust="spacingAndGlyphs" textLength="196" x="53.5" y="594.5278">Sélectionner une plage horaire</text><polygon fill="#383838" points="316.5,624.5938,326.5,628.5938,316.5,632.5938,320.5,628.5938" style="stroke: #383838; stroke-width: 1.0;"/><line style="stroke: #383838; stroke-width: 1.0;" x1="46.5" x2="322.5" y1="628.5938" y2="628.5938"/><text fill="#000000" font-family="sans-serif" font-size="13" lengthAdjust="spacingAndGlyphs" textLength="138" x="53.5" y="623.6606">Modifier plage horaire</text><polygon fill="#383838" points="863.5,668.7266,873.5,672.7266,863.5,676.7266,867.5,672.7266" style="stroke: #383838; stroke-width: 1.0;"/><line style="stroke: #383838; stroke-width: 1.0;" x1="328.5" x2="869.5" y1="672.7266" y2="672.7266"/><text fill="#000000" font-family="sans-serif" font-size="13" lengthAdjust="spacingAndGlyphs" textLength="519" x="335.5" y="652.7935">ModifierPlageHoraire(idPlageAgenda, datePlageHoraireDeb, datePlageHoraireFin)</text><text fill="#000000" font-family="sans-serif" font-size="13" lengthAdjust="spacingAndGlyphs" textLength="92" x="335.5" y="667.9263">: PlageAgenda</text><line style="stroke: #000000; stroke-width: 1.0; stroke-dasharray: 2.0,2.0;" x1="13" x2="907.5" y1="681.9922" y2="681.9922"/><text fill="#000000" font-family="sans-serif" font-size="11" font-weight="bold" lengthAdjust="spacingAndGlyphs" textLength="83" x="18" y="692.2026">[annuler rdv]</text><polygon fill="#383838" points="316.5,712.7969,326.5,716.7969,316.5,720.7969,320.5,716.7969" style="stroke: #383838; stroke-width: 1.0;"/><line style="stroke: #383838; stroke-width: 1.0;" x1="46.5" x2="322.5" y1="716.7969" y2="716.7969"/><text fill="#000000" font-family="sans-serif" font-size="13" lengthAdjust="spacingAndGlyphs" textLength="183" x="53.5" y="711.8638">Sélectionner un rendez-vous</text><polygon fill="#383838" points="316.5,741.9297,326.5,745.9297,316.5,749.9297,320.5,745.9297" style="stroke: #383838; stroke-width: 1.0;"/><line style="stroke: #383838; stroke-width: 1.0;" x1="46.5" x2="322.5" y1="745.9297" y2="745.9297"/><text fill="#000000" font-family="sans-serif" font-size="13" lengthAdjust="spacingAndGlyphs" textLength="80" x="53.5" y="740.9966">Annuler RDV</text><polygon fill="#383838" points="863.5,786.0625,873.5,790.0625,863.5,794.0625,867.5,790.0625" style="stroke: #383838; stroke-width: 1.0;"/><line style="stroke: #383838; stroke-width: 1.0;" x1="328.5" x2="869.5" y1="790.0625" y2="790.0625"/><text fill="#000000" font-family="sans-serif" font-size="13" lengthAdjust="spacingAndGlyphs" textLength="177" x="335.5" y="770.1294">AnnulerRdv(idPlageAgenda)</text><text fill="#000000" font-family="sans-serif" font-size="13" lengthAdjust="spacingAndGlyphs" textLength="34" x="335.5" y="785.2622">: void</text></g></svg>