<?xml version="1.0" encoding="UTF-8" standalone="yes"?><svg xmlns="http://www.w3.org/2000/svg" xmlns:xlink="http://www.w3.org/1999/xlink" height="891px" style="width:942px;height:891px;" version="1.1" viewBox="0 0 942 891" width="942px"><defs/><g><text fill="#000000" font-family="sans-serif" font-size="20" lengthAdjust="spacingAndGlyphs" textLength="432" x="261.25" y="28.5645">Diagramme de Séquence Système du CU 4</text><line style="stroke: none; stroke-width: 1.0;" x1="261.25" x2="693.25" y1="38.2813" y2="38.2813"/><rect fill="#FFFFFF" height="549.0078" style="stroke: #000000; stroke-width: 1.0;" width="928.5" x="13" y="249.1094"/><rect fill="#FFFFFF" height="414.2109" style="stroke: none; stroke-width: 1.0;" width="928.5" x="13" y="383.9063"/><rect fill="#FFFFFF" height="296.875" style="stroke: #000000; stroke-width: 1.0;" width="908.5" x="23" y="494.2422"/><rect fill="#FFFFFF" height="59.0703" style="stroke: none; stroke-width: 1.0;" width="908.5" x="23" y="613.9063"/><rect fill="#FFFFFF" height="59.0703" style="stroke: none; stroke-width: 1.0;" width="908.5" x="23" y="672.9766"/><rect fill="#FFFFFF" height="59.0703" style="stroke: none; stroke-width: 1.0;" width="908.5" x="23" y="732.0469"/><line style="stroke: #383838; stroke-width: 1.0; stroke-dasharray: 5.0,5.0;" x1="56" x2="56" y1="129.5781" y2="815.1172"/><line style="stroke: #383838; stroke-width: 1.0; stroke-dasharray: 5.0,5.0;" x1="394" x2="394" y1="129.5781" y2="815.1172"/><line style="stroke: #383838; stroke-width: 1.0; stroke-dasharray: 5.0,5.0;" x1="899.5" x2="899.5" y1="129.5781" y2="815.1172"/><text fill="#000000" font-family="sans-serif" font-size="14" lengthAdjust="spacingAndGlyphs" textLength="41" x="33" y="126.2764">Agent</text><ellipse cx="56.5" cy="60.2813" fill="#F8F8F8" rx="8" ry="8" style="stroke: #383838; stroke-width: 2.0;"/><path d="M56.5,68.2813 L56.5,95.2813 M43.5,76.2813 L69.5,76.2813 M56.5,95.2813 L43.5,110.2813 M56.5,95.2813 L69.5,110.2813 " fill="#F8F8F8" style="stroke: #383838; stroke-width: 2.0;"/><text fill="#000000" font-family="sans-serif" font-size="14" lengthAdjust="spacingAndGlyphs" textLength="41" x="33" y="827.1123">Agent</text><ellipse cx="56.5" cy="840.4141" fill="#F8F8F8" rx="8" ry="8" style="stroke: #383838; stroke-width: 2.0;"/><path d="M56.5,848.4141 L56.5,875.4141 M43.5,856.4141 L69.5,856.4141 M56.5,875.4141 L43.5,890.4141 M56.5,875.4141 L69.5,890.4141 " fill="#F8F8F8" style="stroke: #383838; stroke-width: 2.0;"/><rect fill="#F8F8F8" height="30.2969" style="stroke: #383838; stroke-width: 1.0;" width="39" x="375" y="98.2813"/><text fill="#000000" font-family="sans-serif" font-size="14" lengthAdjust="spacingAndGlyphs" textLength="25" x="382" y="118.2764">IHM</text><rect fill="#F8F8F8" height="30.2969" style="stroke: #383838; stroke-width: 1.0;" width="39" x="375" y="814.1172"/><text fill="#000000" font-family="sans-serif" font-size="14" lengthAdjust="spacingAndGlyphs" textLength="25" x="382" y="834.1123">IHM</text><rect fill="#F8F8F8" height="30.2969" style="stroke: #383838; stroke-width: 1.0;" width="44" x="877.5" y="98.2813"/><text fill="#000000" font-family="sans-serif" font-size="14" lengthAdjust="spacingAndGlyphs" textLength="30" x="884.5" y="118.2764">SMA</text><rect fill="#F8F8F8" height="30.2969" style="stroke: #383838; stroke-width: 1.0;" width="44" x="877.5" y="814.1172"/><text fill="#000000" font-family="sans-serif" font-size="14" lengthAdjust="spacingAndGlyphs" textLength="30" x="884.5" y="834.1123">SMA</text><polygon fill="#383838" points="382.5,156.5781,392.5,160.5781,382.5,164.5781,386.5,160.5781" style="stroke: #383838; stroke-width: 1.0;"/><line style="stroke: #383838; stroke-width: 1.0;" x1="56.5" x2="388.5" y1="160.5781" y2="160.5781"/><text fill="#000000" font-family="sans-serif" font-size="13" lengthAdjust="spacingAndGlyphs" textLength="314" x="63.5" y="155.645">Consulter la liste des contacts à traiter de l'agent</text><polygon fill="#383838" points="887.5,200.7109,897.5,204.7109,887.5,208.7109,891.5,204.7109" style="stroke: #383838; stroke-width: 1.0;"/><line style="stroke: #383838; stroke-width: 1.0;" x1="394.5" x2="893.5" y1="204.7109" y2="204.7109"/><text fill="#000000" font-family="sans-serif" font-size="13" lengthAdjust="spacingAndGlyphs" textLength="254" x="401.5" y="184.7778">SM7 - ObtenirContactsATraiter(idAgent)</text><text fill="#000000" font-family="sans-serif" font-size="13" lengthAdjust="spacingAndGlyphs" textLength="465" x="401.5" y="199.9106">: Agent, Liste &lt;Contact, PlageAgenda, TacheElementaire, Agent, Client&gt;</text><polygon fill="#383838" points="382.5,229.9766,392.5,233.9766,382.5,237.9766,386.5,233.9766" style="stroke: #383838; stroke-width: 1.0;"/><line style="stroke: #383838; stroke-width: 1.0;" x1="56.5" x2="388.5" y1="233.9766" y2="233.9766"/><text fill="#000000" font-family="sans-serif" font-size="13" lengthAdjust="spacingAndGlyphs" textLength="152" x="63.5" y="229.0435">Sélectionner un contact</text><rect fill="none" height="549.0078" style="stroke: #000000; stroke-width: 1.0;" width="928.5" x="13" y="249.1094"/><polygon fill="#EEEEEE" points="13,249.1094,77,249.1094,77,256.1094,67,266.1094,13,266.1094,13,249.1094" style="stroke: #000000; stroke-width: 1.0;"/><text fill="#000000" font-family="sans-serif" font-size="13" font-weight="bold" lengthAdjust="spacingAndGlyphs" textLength="19" x="28" y="262.1763">alt</text><text fill="#000000" font-family="sans-serif" font-size="11" font-weight="bold" lengthAdjust="spacingAndGlyphs" textLength="297" x="92" y="261.3198">[sélection d'autres contacts d'un même client]</text><polygon fill="#383838" points="382.5,283.2422,392.5,287.2422,382.5,291.2422,386.5,287.2422" style="stroke: #383838; stroke-width: 1.0;"/><line style="stroke: #383838; stroke-width: 1.0;" x1="56.5" x2="388.5" y1="287.2422" y2="287.2422"/><text fill="#000000" font-family="sans-serif" font-size="13" lengthAdjust="spacingAndGlyphs" textLength="166" x="63.5" y="282.3091">Sélectionner des contacts</text><polygon fill="#383838" points="382.5,327.375,392.5,331.375,382.5,335.375,386.5,331.375" style="stroke: #383838; stroke-width: 1.0;"/><line style="stroke: #383838; stroke-width: 1.0;" x1="56.5" x2="388.5" y1="331.375" y2="331.375"/><text fill="#000000" font-family="sans-serif" font-size="13" lengthAdjust="spacingAndGlyphs" textLength="147" x="63.5" y="311.4419">Regrouper les contacts</text><text fill="#000000" font-family="sans-serif" font-size="13" lengthAdjust="spacingAndGlyphs" textLength="104" x="63.5" y="326.5747">(si même client)</text><polygon fill="#383838" points="887.5,371.6406,897.5,375.6406,887.5,379.6406,891.5,375.6406" style="stroke: #383838; stroke-width: 1.0;"/><line style="stroke: #383838; stroke-width: 1.0;" x1="394.5" x2="893.5" y1="375.6406" y2="375.6406"/><text fill="#000000" font-family="sans-serif" font-size="13" lengthAdjust="spacingAndGlyphs" textLength="481" x="401.5" y="355.7075">SM8 - GrouperContacts(idContactPrincipal, Liste&lt;idContactsSecondaires&gt;)</text><text fill="#000000" font-family="sans-serif" font-size="13" lengthAdjust="spacingAndGlyphs" textLength="34" x="401.5" y="370.8403">: void</text><line style="stroke: #000000; stroke-width: 1.0; stroke-dasharray: 2.0,2.0;" x1="13" x2="941.5" y1="384.9063" y2="384.9063"/><text fill="#000000" font-family="sans-serif" font-size="11" font-weight="bold" lengthAdjust="spacingAndGlyphs" textLength="183" x="18" y="395.1167">[sélection d'un seul contact]</text><polygon fill="#383838" points="382.5,415.7109,392.5,419.7109,382.5,423.7109,386.5,419.7109" style="stroke: #383838; stroke-width: 1.0;"/><line style="stroke: #383838; stroke-width: 1.0;" x1="56.5" x2="388.5" y1="419.7109" y2="419.7109"/><text fill="#000000" font-family="sans-serif" font-size="13" lengthAdjust="spacingAndGlyphs" textLength="198" x="63.5" y="414.7778">Consulter le détail d'un contact</text><polygon fill="#383838" points="887.5,474.8438,897.5,478.8438,887.5,482.8438,891.5,478.8438" style="stroke: #383838; stroke-width: 1.0;"/><line style="stroke: #383838; stroke-width: 1.0;" x1="394.5" x2="893.5" y1="478.8438" y2="478.8438"/><text fill="#000000" font-family="sans-serif" font-size="13" lengthAdjust="spacingAndGlyphs" textLength="253" x="401.5" y="443.9106">SM9 - ObtenirDetailsContact(idContact)</text><text fill="#000000" font-family="sans-serif" font-size="13" lengthAdjust="spacingAndGlyphs" textLength="259" x="401.5" y="459.0435">: Contact, MotifDeContact, Client, Agent,</text><text fill="#000000" font-family="sans-serif" font-size="13" lengthAdjust="spacingAndGlyphs" textLength="352" x="401.5" y="474.1763">Liste&lt;PropositionCommerciale, Offre, Liste&lt;Produit&gt;&gt;</text><rect fill="none" height="296.875" style="stroke: #000000; stroke-width: 1.0;" width="908.5" x="23" y="494.2422"/><polygon fill="#EEEEEE" points="23,494.2422,87,494.2422,87,501.2422,77,511.2422,23,511.2422,23,494.2422" style="stroke: #000000; stroke-width: 1.0;"/><text fill="#000000" font-family="sans-serif" font-size="13" font-weight="bold" lengthAdjust="spacingAndGlyphs" textLength="19" x="38" y="507.3091">alt</text><text fill="#000000" font-family="sans-serif" font-size="11" font-weight="bold" lengthAdjust="spacingAndGlyphs" textLength="131" x="102" y="506.4526">[annulation contact]</text><polygon fill="#383838" points="382.5,528.375,392.5,532.375,382.5,536.375,386.5,532.375" style="stroke: #383838; stroke-width: 1.0;"/><line style="stroke: #383838; stroke-width: 1.0;" x1="56.5" x2="388.5" y1="532.375" y2="532.375"/><text fill="#000000" font-family="sans-serif" font-size="13" lengthAdjust="spacingAndGlyphs" textLength="169" x="63.5" y="527.4419">Saisir le motif d'annulation</text><polygon fill="#383838" points="382.5,557.5078,392.5,561.5078,382.5,565.5078,386.5,561.5078" style="stroke: #383838; stroke-width: 1.0;"/><line style="stroke: #383838; stroke-width: 1.0;" x1="56.5" x2="388.5" y1="561.5078" y2="561.5078"/><text fill="#000000" font-family="sans-serif" font-size="13" lengthAdjust="spacingAndGlyphs" textLength="116" x="63.5" y="556.5747">Annuler le contact</text><polygon fill="#383838" points="887.5,601.6406,897.5,605.6406,887.5,609.6406,891.5,605.6406" style="stroke: #383838; stroke-width: 1.0;"/><line style="stroke: #383838; stroke-width: 1.0;" x1="394.5" x2="893.5" y1="605.6406" y2="605.6406"/><text fill="#000000" font-family="sans-serif" font-size="13" lengthAdjust="spacingAndGlyphs" textLength="260" x="401.5" y="585.7075">SM10 - AnnulerContact(idContact, motif)</text><text fill="#000000" font-family="sans-serif" font-size="13" lengthAdjust="spacingAndGlyphs" textLength="34" x="401.5" y="600.8403">: void</text><line style="stroke: #000000; stroke-width: 1.0; stroke-dasharray: 2.0,2.0;" x1="23" x2="931.5" y1="614.9063" y2="614.9063"/><text fill="#000000" font-family="sans-serif" font-size="11" font-weight="bold" lengthAdjust="spacingAndGlyphs" textLength="71" x="28" y="625.1167">[prise RDV]</text><polygon fill="#383838" points="382.5,660.7109,392.5,664.7109,382.5,668.7109,386.5,664.7109" style="stroke: #383838; stroke-width: 1.0;"/><line style="stroke: #383838; stroke-width: 1.0;" x1="56.5" x2="388.5" y1="664.7109" y2="664.7109"/><text fill="#000000" font-family="sans-serif" font-size="13" lengthAdjust="spacingAndGlyphs" textLength="81" x="63.5" y="644.7778">Prendre RDV</text><text fill="#000000" font-family="sans-serif" font-size="13" lengthAdjust="spacingAndGlyphs" textLength="41" x="63.5" y="659.9106">(CU 6)</text><line style="stroke: #000000; stroke-width: 1.0; stroke-dasharray: 2.0,2.0;" x1="23" x2="931.5" y1="673.9766" y2="673.9766"/><text fill="#000000" font-family="sans-serif" font-size="11" font-weight="bold" lengthAdjust="spacingAndGlyphs" textLength="114" x="28" y="684.187">[preparation RDV]</text><polygon fill="#383838" points="382.5,719.7813,392.5,723.7813,382.5,727.7813,386.5,723.7813" style="stroke: #383838; stroke-width: 1.0;"/><line style="stroke: #383838; stroke-width: 1.0;" x1="56.5" x2="388.5" y1="723.7813" y2="723.7813"/><text fill="#000000" font-family="sans-serif" font-size="13" lengthAdjust="spacingAndGlyphs" textLength="101" x="63.5" y="703.8481">Preparer le RDV</text><text fill="#000000" font-family="sans-serif" font-size="13" lengthAdjust="spacingAndGlyphs" textLength="41" x="63.5" y="718.981">(CU 8)</text><line style="stroke: #000000; stroke-width: 1.0; stroke-dasharray: 2.0,2.0;" x1="23" x2="931.5" y1="733.0469" y2="733.0469"/><text fill="#000000" font-family="sans-serif" font-size="11" font-weight="bold" lengthAdjust="spacingAndGlyphs" textLength="95" x="28" y="743.2573">[conduire RDV]</text><polygon fill="#383838" points="382.5,778.8516,392.5,782.8516,382.5,786.8516,386.5,782.8516" style="stroke: #383838; stroke-width: 1.0;"/><line style="stroke: #383838; stroke-width: 1.0;" x1="56.5" x2="388.5" y1="782.8516" y2="782.8516"/><text fill="#000000" font-family="sans-serif" font-size="13" lengthAdjust="spacingAndGlyphs" textLength="103" x="63.5" y="762.9185">Conduire le RDV</text><text fill="#000000" font-family="sans-serif" font-size="13" lengthAdjust="spacingAndGlyphs" textLength="41" x="63.5" y="778.0513">(CU 9)</text></g></svg>