<?xml version="1.0" encoding="UTF-8" standalone="yes"?><svg xmlns="http://www.w3.org/2000/svg" xmlns:xlink="http://www.w3.org/1999/xlink" height="975px" style="width:867px;height:975px;" version="1.1" viewBox="0 0 867 975" width="867px"><defs/><g><text fill="#000000" font-family="sans-serif" font-size="20" lengthAdjust="spacingAndGlyphs" textLength="426" x="226.75" y="28.5645">Diagramme de séquence système du CU 8</text><line style="stroke: none; stroke-width: 1.0;" x1="226.75" x2="652.75" y1="38.2813" y2="38.2813"/><rect fill="#FFFFFF" height="412.9297" style="stroke: #000000; stroke-width: 1.0;" width="853.5" x="13" y="366.7734"/><rect fill="#FFFFFF" height="293.2656" style="stroke: none; stroke-width: 1.0;" width="853.5" x="13" y="486.4375"/><line style="stroke: #383838; stroke-width: 1.0; stroke-dasharray: 5.0,5.0;" x1="46" x2="46" y1="129.5781" y2="899.2344"/><line style="stroke: #383838; stroke-width: 1.0; stroke-dasharray: 5.0,5.0;" x1="420" x2="420" y1="129.5781" y2="899.2344"/><line style="stroke: #383838; stroke-width: 1.0; stroke-dasharray: 5.0,5.0;" x1="834.5" x2="834.5" y1="129.5781" y2="899.2344"/><text fill="#000000" font-family="sans-serif" font-size="14" lengthAdjust="spacingAndGlyphs" textLength="41" x="23" y="126.2764">Agent</text><ellipse cx="46.5" cy="60.2813" fill="#F8F8F8" rx="8" ry="8" style="stroke: #383838; stroke-width: 2.0;"/><path d="M46.5,68.2813 L46.5,95.2813 M33.5,76.2813 L59.5,76.2813 M46.5,95.2813 L33.5,110.2813 M46.5,95.2813 L59.5,110.2813 " fill="#F8F8F8" style="stroke: #383838; stroke-width: 2.0;"/><text fill="#000000" font-family="sans-serif" font-size="14" lengthAdjust="spacingAndGlyphs" textLength="41" x="23" y="911.2295">Agent</text><ellipse cx="46.5" cy="924.5313" fill="#F8F8F8" rx="8" ry="8" style="stroke: #383838; stroke-width: 2.0;"/><path d="M46.5,932.5313 L46.5,959.5313 M33.5,940.5313 L59.5,940.5313 M46.5,959.5313 L33.5,974.5313 M46.5,959.5313 L59.5,974.5313 " fill="#F8F8F8" style="stroke: #383838; stroke-width: 2.0;"/><rect fill="#F8F8F8" height="30.2969" style="stroke: #383838; stroke-width: 1.0;" width="39" x="401" y="98.2813"/><text fill="#000000" font-family="sans-serif" font-size="14" lengthAdjust="spacingAndGlyphs" textLength="25" x="408" y="118.2764">IHM</text><rect fill="#F8F8F8" height="30.2969" style="stroke: #383838; stroke-width: 1.0;" width="39" x="401" y="898.2344"/><text fill="#000000" font-family="sans-serif" font-size="14" lengthAdjust="spacingAndGlyphs" textLength="25" x="408" y="918.2295">IHM</text><rect fill="#F8F8F8" height="30.2969" style="stroke: #383838; stroke-width: 1.0;" width="44" x="812.5" y="98.2813"/><text fill="#000000" font-family="sans-serif" font-size="14" lengthAdjust="spacingAndGlyphs" textLength="30" x="819.5" y="118.2764">SMA</text><rect fill="#F8F8F8" height="30.2969" style="stroke: #383838; stroke-width: 1.0;" width="44" x="812.5" y="898.2344"/><text fill="#000000" font-family="sans-serif" font-size="14" lengthAdjust="spacingAndGlyphs" textLength="30" x="819.5" y="918.2295">SMA</text><polygon fill="#383838" points="408.5,156.5781,418.5,160.5781,408.5,164.5781,412.5,160.5781" style="stroke: #383838; stroke-width: 1.0;"/><line style="stroke: #383838; stroke-width: 1.0;" x1="46.5" x2="414.5" y1="160.5781" y2="160.5781"/><text fill="#000000" font-family="sans-serif" font-size="13" lengthAdjust="spacingAndGlyphs" textLength="122" x="53.5" y="155.645">Identifier le contact</text><polygon fill="#383838" points="822.5,200.7109,832.5,204.7109,822.5,208.7109,826.5,204.7109" style="stroke: #383838; stroke-width: 1.0;"/><line style="stroke: #383838; stroke-width: 1.0;" x1="420.5" x2="828.5" y1="204.7109" y2="204.7109"/><text fill="#000000" font-family="sans-serif" font-size="13" lengthAdjust="spacingAndGlyphs" textLength="308" x="427.5" y="184.7778">IdentifierContact(denomination, nomClient, etc.)</text><text fill="#000000" font-family="sans-serif" font-size="13" lengthAdjust="spacingAndGlyphs" textLength="58" x="427.5" y="199.9106">: Contact</text><polygon fill="#383838" points="408.5,244.9766,418.5,248.9766,408.5,252.9766,412.5,248.9766" style="stroke: #383838; stroke-width: 1.0;"/><line style="stroke: #383838; stroke-width: 1.0;" x1="46.5" x2="414.5" y1="248.9766" y2="248.9766"/><text fill="#000000" font-family="sans-serif" font-size="13" lengthAdjust="spacingAndGlyphs" textLength="198" x="53.5" y="229.0435">Consulter le détail d'un contact</text><text fill="#000000" font-family="sans-serif" font-size="13" lengthAdjust="spacingAndGlyphs" textLength="41" x="53.5" y="244.1763">(CU 4)</text><polygon fill="#383838" points="408.5,274.2422,418.5,278.2422,408.5,282.2422,412.5,278.2422" style="stroke: #383838; stroke-width: 1.0;"/><line style="stroke: #383838; stroke-width: 1.0;" x1="46.5" x2="414.5" y1="278.2422" y2="278.2422"/><text fill="#000000" font-family="sans-serif" font-size="13" lengthAdjust="spacingAndGlyphs" textLength="138" x="53.5" y="273.3091">Sélectionner un client</text><polygon fill="#383838" points="408.5,303.375,418.5,307.375,408.5,311.375,412.5,307.375" style="stroke: #383838; stroke-width: 1.0;"/><line style="stroke: #383838; stroke-width: 1.0;" x1="46.5" x2="414.5" y1="307.375" y2="307.375"/><text fill="#000000" font-family="sans-serif" font-size="13" lengthAdjust="spacingAndGlyphs" textLength="184" x="53.5" y="302.4419">Consulter le dossier du client</text><polygon fill="#383838" points="822.5,347.5078,832.5,351.5078,822.5,355.5078,826.5,351.5078" style="stroke: #383838; stroke-width: 1.0;"/><line style="stroke: #383838; stroke-width: 1.0;" x1="420.5" x2="828.5" y1="351.5078" y2="351.5078"/><text fill="#000000" font-family="sans-serif" font-size="13" lengthAdjust="spacingAndGlyphs" textLength="188" x="427.5" y="331.5747">ObtenirDossierClient(idClient)</text><text fill="#000000" font-family="sans-serif" font-size="13" lengthAdjust="spacingAndGlyphs" textLength="44" x="427.5" y="346.7075">: Client</text><rect fill="none" height="412.9297" style="stroke: #000000; stroke-width: 1.0;" width="853.5" x="13" y="366.7734"/><polygon fill="#EEEEEE" points="13,366.7734,77,366.7734,77,373.7734,67,383.7734,13,383.7734,13,366.7734" style="stroke: #000000; stroke-width: 1.0;"/><text fill="#000000" font-family="sans-serif" font-size="13" font-weight="bold" lengthAdjust="spacingAndGlyphs" textLength="19" x="28" y="379.8403">alt</text><text fill="#000000" font-family="sans-serif" font-size="11" font-weight="bold" lengthAdjust="spacingAndGlyphs" textLength="121" x="92" y="378.9839">[Mise à jour client]</text><polygon fill="#383838" points="408.5,400.9063,418.5,404.9063,408.5,408.9063,412.5,404.9063" style="stroke: #383838; stroke-width: 1.0;"/><line style="stroke: #383838; stroke-width: 1.0;" x1="46.5" x2="414.5" y1="404.9063" y2="404.9063"/><text fill="#000000" font-family="sans-serif" font-size="13" lengthAdjust="spacingAndGlyphs" textLength="199" x="53.5" y="399.9731">Saisir les informations du client</text><polygon fill="#383838" points="408.5,430.0391,418.5,434.0391,408.5,438.0391,412.5,434.0391" style="stroke: #383838; stroke-width: 1.0;"/><line style="stroke: #383838; stroke-width: 1.0;" x1="46.5" x2="414.5" y1="434.0391" y2="434.0391"/><text fill="#000000" font-family="sans-serif" font-size="13" lengthAdjust="spacingAndGlyphs" textLength="188" x="53.5" y="429.106">Mettre à jour les informations</text><polygon fill="#383838" points="822.5,474.1719,832.5,478.1719,822.5,482.1719,826.5,478.1719" style="stroke: #383838; stroke-width: 1.0;"/><line style="stroke: #383838; stroke-width: 1.0;" x1="420.5" x2="828.5" y1="478.1719" y2="478.1719"/><text fill="#000000" font-family="sans-serif" font-size="13" lengthAdjust="spacingAndGlyphs" textLength="154" x="427.5" y="458.2388">MAJInfos(saisie, idClient)</text><text fill="#000000" font-family="sans-serif" font-size="13" lengthAdjust="spacingAndGlyphs" textLength="34" x="427.5" y="473.3716">: void</text><line style="stroke: #000000; stroke-width: 1.0; stroke-dasharray: 2.0,2.0;" x1="13" x2="866.5" y1="487.4375" y2="487.4375"/><text fill="#000000" font-family="sans-serif" font-size="11" font-weight="bold" lengthAdjust="spacingAndGlyphs" textLength="168" x="18" y="497.6479">[Proposition commerciale]</text><polygon fill="#383838" points="408.5,518.2422,418.5,522.2422,408.5,526.2422,412.5,522.2422" style="stroke: #383838; stroke-width: 1.0;"/><line style="stroke: #383838; stroke-width: 1.0;" x1="46.5" x2="414.5" y1="522.2422" y2="522.2422"/><text fill="#000000" font-family="sans-serif" font-size="13" lengthAdjust="spacingAndGlyphs" textLength="173" x="53.5" y="517.3091">Consulter la liste des offres</text><polygon fill="#383838" points="822.5,562.375,832.5,566.375,822.5,570.375,826.5,566.375" style="stroke: #383838; stroke-width: 1.0;"/><line style="stroke: #383838; stroke-width: 1.0;" x1="420.5" x2="828.5" y1="566.375" y2="566.375"/><text fill="#000000" font-family="sans-serif" font-size="13" lengthAdjust="spacingAndGlyphs" textLength="121" x="427.5" y="546.4419">ObtenirOffres(void)</text><text fill="#000000" font-family="sans-serif" font-size="13" lengthAdjust="spacingAndGlyphs" textLength="91" x="427.5" y="561.5747">: Liste&lt;Offre&gt;</text><polygon fill="#383838" points="408.5,591.6406,418.5,595.6406,408.5,599.6406,412.5,595.6406" style="stroke: #383838; stroke-width: 1.0;"/><line style="stroke: #383838; stroke-width: 1.0;" x1="46.5" x2="414.5" y1="595.6406" y2="595.6406"/><text fill="#000000" font-family="sans-serif" font-size="13" lengthAdjust="spacingAndGlyphs" textLength="141" x="53.5" y="590.7075">Sélectionner une offre</text><polygon fill="#383838" points="408.5,620.7734,418.5,624.7734,408.5,628.7734,412.5,624.7734" style="stroke: #383838; stroke-width: 1.0;"/><line style="stroke: #383838; stroke-width: 1.0;" x1="46.5" x2="414.5" y1="624.7734" y2="624.7734"/><text fill="#000000" font-family="sans-serif" font-size="13" lengthAdjust="spacingAndGlyphs" textLength="245" x="53.5" y="619.8403">Voir le détails d'une offre du catalogue</text><polygon fill="#383838" points="822.5,664.9063,832.5,668.9063,822.5,672.9063,826.5,668.9063" style="stroke: #383838; stroke-width: 1.0;"/><line style="stroke: #383838; stroke-width: 1.0;" x1="420.5" x2="828.5" y1="668.9063" y2="668.9063"/><text fill="#000000" font-family="sans-serif" font-size="13" lengthAdjust="spacingAndGlyphs" textLength="174" x="427.5" y="648.9731">ObtenirDetailsOffre(idOffre)</text><text fill="#000000" font-family="sans-serif" font-size="13" lengthAdjust="spacingAndGlyphs" textLength="237" x="427.5" y="664.106">: Liste&lt;Produit&gt;, commentairesOffre</text><polygon fill="#383838" points="408.5,694.1719,418.5,698.1719,408.5,702.1719,412.5,698.1719" style="stroke: #383838; stroke-width: 1.0;"/><line style="stroke: #383838; stroke-width: 1.0;" x1="46.5" x2="414.5" y1="698.1719" y2="698.1719"/><text fill="#000000" font-family="sans-serif" font-size="13" lengthAdjust="spacingAndGlyphs" textLength="195" x="53.5" y="693.2388">Rédiger une proposition d'offre</text><polygon fill="#383838" points="408.5,723.3047,418.5,727.3047,408.5,731.3047,412.5,727.3047" style="stroke: #383838; stroke-width: 1.0;"/><line style="stroke: #383838; stroke-width: 1.0;" x1="46.5" x2="414.5" y1="727.3047" y2="727.3047"/><text fill="#000000" font-family="sans-serif" font-size="13" lengthAdjust="spacingAndGlyphs" textLength="225" x="53.5" y="722.3716">Créer une proposition commerciale</text><polygon fill="#383838" points="822.5,767.4375,832.5,771.4375,822.5,775.4375,826.5,771.4375" style="stroke: #383838; stroke-width: 1.0;"/><line style="stroke: #383838; stroke-width: 1.0;" x1="420.5" x2="828.5" y1="771.4375" y2="771.4375"/><text fill="#000000" font-family="sans-serif" font-size="13" lengthAdjust="spacingAndGlyphs" textLength="323" x="427.5" y="751.5044">AjouterPropositionCommerciale(idOffre, idContact)</text><text fill="#000000" font-family="sans-serif" font-size="13" lengthAdjust="spacingAndGlyphs" textLength="34" x="427.5" y="766.6372">: void</text><polygon fill="#383838" points="408.5,803.7031,418.5,807.7031,408.5,811.7031,412.5,807.7031" style="stroke: #383838; stroke-width: 1.0;"/><line style="stroke: #383838; stroke-width: 1.0;" x1="46.5" x2="414.5" y1="807.7031" y2="807.7031"/><text fill="#000000" font-family="sans-serif" font-size="13" lengthAdjust="spacingAndGlyphs" textLength="350" x="53.5" y="802.77">Saisir les annotations du compte-rendu de préparation</text><polygon fill="#383838" points="408.5,832.8359,418.5,836.8359,408.5,840.8359,412.5,836.8359" style="stroke: #383838; stroke-width: 1.0;"/><line style="stroke: #383838; stroke-width: 1.0;" x1="46.5" x2="414.5" y1="836.8359" y2="836.8359"/><text fill="#000000" font-family="sans-serif" font-size="13" lengthAdjust="spacingAndGlyphs" textLength="277" x="53.5" y="831.9028">Enregistrer le compte rendu de préparation</text><polygon fill="#383838" points="822.5,876.9688,832.5,880.9688,822.5,884.9688,826.5,880.9688" style="stroke: #383838; stroke-width: 1.0;"/><line style="stroke: #383838; stroke-width: 1.0;" x1="420.5" x2="828.5" y1="880.9688" y2="880.9688"/><text fill="#000000" font-family="sans-serif" font-size="13" lengthAdjust="spacingAndGlyphs" textLength="390" x="427.5" y="861.0356">EnregistrerCompteRenduPreparation(annotations, idContact)</text><text fill="#000000" font-family="sans-serif" font-size="13" lengthAdjust="spacingAndGlyphs" textLength="34" x="427.5" y="876.1685">: void</text></g></svg>