<?xml version="1.0" encoding="UTF-8" standalone="yes"?><svg xmlns="http://www.w3.org/2000/svg" xmlns:xlink="http://www.w3.org/1999/xlink" height="430px" style="width:651px;height:430px;" version="1.1" viewBox="0 0 651 430" width="651px"><defs/><g><text fill="#000000" font-family="sans-serif" font-size="20" lengthAdjust="spacingAndGlyphs" textLength="426" x="116.25" y="28.5645">Diagramme de séquence système du CU 3</text><line style="stroke: none; stroke-width: 1.0;" x1="116.25" x2="542.25" y1="38.2813" y2="38.2813"/><line style="stroke: #383838; stroke-width: 1.0; stroke-dasharray: 5.0,5.0;" x1="31" x2="31" y1="129.5781" y2="354.6406"/><line style="stroke: #383838; stroke-width: 1.0; stroke-dasharray: 5.0,5.0;" x1="358" x2="358" y1="129.5781" y2="354.6406"/><line style="stroke: #383838; stroke-width: 1.0; stroke-dasharray: 5.0,5.0;" x1="628.5" x2="628.5" y1="129.5781" y2="354.6406"/><text fill="#000000" font-family="sans-serif" font-size="14" lengthAdjust="spacingAndGlyphs" textLength="41" x="8" y="126.2764">Agent</text><ellipse cx="31.5" cy="60.2813" fill="#F8F8F8" rx="8" ry="8" style="stroke: #383838; stroke-width: 2.0;"/><path d="M31.5,68.2813 L31.5,95.2813 M18.5,76.2813 L44.5,76.2813 M31.5,95.2813 L18.5,110.2813 M31.5,95.2813 L44.5,110.2813 " fill="#F8F8F8" style="stroke: #383838; stroke-width: 2.0;"/><text fill="#000000" font-family="sans-serif" font-size="14" lengthAdjust="spacingAndGlyphs" textLength="41" x="8" y="366.6357">Agent</text><ellipse cx="31.5" cy="379.9375" fill="#F8F8F8" rx="8" ry="8" style="stroke: #383838; stroke-width: 2.0;"/><path d="M31.5,387.9375 L31.5,414.9375 M18.5,395.9375 L44.5,395.9375 M31.5,414.9375 L18.5,429.9375 M31.5,414.9375 L44.5,429.9375 " fill="#F8F8F8" style="stroke: #383838; stroke-width: 2.0;"/><rect fill="#F8F8F8" height="30.2969" style="stroke: #383838; stroke-width: 1.0;" width="39" x="339" y="98.2813"/><text fill="#000000" font-family="sans-serif" font-size="14" lengthAdjust="spacingAndGlyphs" textLength="25" x="346" y="118.2764">IHM</text><rect fill="#F8F8F8" height="30.2969" style="stroke: #383838; stroke-width: 1.0;" width="39" x="339" y="353.6406"/><text fill="#000000" font-family="sans-serif" font-size="14" lengthAdjust="spacingAndGlyphs" textLength="25" x="346" y="373.6357">IHM</text><rect fill="#F8F8F8" height="30.2969" style="stroke: #383838; stroke-width: 1.0;" width="44" x="606.5" y="98.2813"/><text fill="#000000" font-family="sans-serif" font-size="14" lengthAdjust="spacingAndGlyphs" textLength="30" x="613.5" y="118.2764">SMA</text><rect fill="#F8F8F8" height="30.2969" style="stroke: #383838; stroke-width: 1.0;" width="44" x="606.5" y="353.6406"/><text fill="#000000" font-family="sans-serif" font-size="14" lengthAdjust="spacingAndGlyphs" textLength="30" x="613.5" y="373.6357">SMA</text><polygon fill="#383838" points="346.5,156.5781,356.5,160.5781,346.5,164.5781,350.5,160.5781" style="stroke: #383838; stroke-width: 1.0;"/><line style="stroke: #383838; stroke-width: 1.0;" x1="31.5" x2="352.5" y1="160.5781" y2="160.5781"/><text fill="#000000" font-family="sans-serif" font-size="13" lengthAdjust="spacingAndGlyphs" textLength="303" x="38.5" y="155.645">Consulter la liste des agents de l'agence (CU 2)</text><polygon fill="#383838" points="346.5,185.7109,356.5,189.7109,346.5,193.7109,350.5,189.7109" style="stroke: #383838; stroke-width: 1.0;"/><line style="stroke: #383838; stroke-width: 1.0;" x1="31.5" x2="352.5" y1="189.7109" y2="189.7109"/><text fill="#000000" font-family="sans-serif" font-size="13" lengthAdjust="spacingAndGlyphs" textLength="141" x="38.5" y="184.7778">Sélectionner un agent</text><polygon fill="#383838" points="346.5,214.8438,356.5,218.8438,346.5,222.8438,350.5,218.8438" style="stroke: #383838; stroke-width: 1.0;"/><line style="stroke: #383838; stroke-width: 1.0;" x1="31.5" x2="352.5" y1="218.8438" y2="218.8438"/><text fill="#000000" font-family="sans-serif" font-size="13" lengthAdjust="spacingAndGlyphs" textLength="187" x="38.5" y="213.9106">Consulter le détail d'un agent</text><polygon fill="#383838" points="616.5,258.9766,626.5,262.9766,616.5,266.9766,620.5,262.9766" style="stroke: #383838; stroke-width: 1.0;"/><line style="stroke: #383838; stroke-width: 1.0;" x1="358.5" x2="622.5" y1="262.9766" y2="262.9766"/><text fill="#000000" font-family="sans-serif" font-size="13" lengthAdjust="spacingAndGlyphs" textLength="201" x="365.5" y="243.0435">ObtenirContactsAgent(idAgent)</text><text fill="#000000" font-family="sans-serif" font-size="13" lengthAdjust="spacingAndGlyphs" textLength="246" x="365.5" y="258.1763">: Liste&lt;Client, Contact, PlageAgenda&gt;</text><polygon fill="#383838" points="346.5,288.2422,356.5,292.2422,346.5,296.2422,350.5,292.2422" style="stroke: #383838; stroke-width: 1.0;"/><line style="stroke: #383838; stroke-width: 1.0;" x1="31.5" x2="352.5" y1="292.2422" y2="292.2422"/><text fill="#000000" font-family="sans-serif" font-size="13" lengthAdjust="spacingAndGlyphs" textLength="152" x="38.5" y="287.3091">Sélectionner un contact</text><polygon fill="#383838" points="346.5,332.375,356.5,336.375,346.5,340.375,350.5,336.375" style="stroke: #383838; stroke-width: 1.0;"/><line style="stroke: #383838; stroke-width: 1.0;" x1="31.5" x2="352.5" y1="336.375" y2="336.375"/><text fill="#000000" font-family="sans-serif" font-size="13" lengthAdjust="spacingAndGlyphs" textLength="198" x="38.5" y="316.4419">Consulter le détail d'un contact</text><text fill="#000000" font-family="sans-serif" font-size="13" lengthAdjust="spacingAndGlyphs" textLength="41" x="38.5" y="331.5747">(CU 4)</text></g></svg>