<?xml version="1.0" encoding="UTF-8" standalone="yes"?><svg xmlns="http://www.w3.org/2000/svg" xmlns:xlink="http://www.w3.org/1999/xlink" height="592px" style="width:712px;height:592px;" version="1.1" viewBox="0 0 712 592" width="712px"><defs/><g><text fill="#000000" font-family="sans-serif" font-size="20" lengthAdjust="spacingAndGlyphs" textLength="426" x="146.75" y="28.5645">Diagramme de séquence système du CU 3</text><line style="stroke: none; stroke-width: 1.0;" x1="146.75" x2="572.75" y1="38.2813" y2="38.2813"/><line style="stroke: #383838; stroke-width: 1.0; stroke-dasharray: 5.0,5.0;" x1="31" x2="31" y1="129.5781" y2="516.5703"/><line style="stroke: #383838; stroke-width: 1.0; stroke-dasharray: 5.0,5.0;" x1="313" x2="313" y1="129.5781" y2="516.5703"/><line style="stroke: #383838; stroke-width: 1.0; stroke-dasharray: 5.0,5.0;" x1="689.5" x2="689.5" y1="129.5781" y2="516.5703"/><text fill="#000000" font-family="sans-serif" font-size="14" lengthAdjust="spacingAndGlyphs" textLength="41" x="8" y="126.2764">Agent</text><ellipse cx="31.5" cy="60.2813" fill="#F8F8F8" rx="8" ry="8" style="stroke: #383838; stroke-width: 2.0;"/><path d="M31.5,68.2813 L31.5,95.2813 M18.5,76.2813 L44.5,76.2813 M31.5,95.2813 L18.5,110.2813 M31.5,95.2813 L44.5,110.2813 " fill="#F8F8F8" style="stroke: #383838; stroke-width: 2.0;"/><text fill="#000000" font-family="sans-serif" font-size="14" lengthAdjust="spacingAndGlyphs" textLength="41" x="8" y="528.5654">Agent</text><ellipse cx="31.5" cy="541.8672" fill="#F8F8F8" rx="8" ry="8" style="stroke: #383838; stroke-width: 2.0;"/><path d="M31.5,549.8672 L31.5,576.8672 M18.5,557.8672 L44.5,557.8672 M31.5,576.8672 L18.5,591.8672 M31.5,576.8672 L44.5,591.8672 " fill="#F8F8F8" style="stroke: #383838; stroke-width: 2.0;"/><rect fill="#F8F8F8" height="30.2969" style="stroke: #383838; stroke-width: 1.0;" width="39" x="294" y="98.2813"/><text fill="#000000" font-family="sans-serif" font-size="14" lengthAdjust="spacingAndGlyphs" textLength="25" x="301" y="118.2764">IHM</text><rect fill="#F8F8F8" height="30.2969" style="stroke: #383838; stroke-width: 1.0;" width="39" x="294" y="515.5703"/><text fill="#000000" font-family="sans-serif" font-size="14" lengthAdjust="spacingAndGlyphs" textLength="25" x="301" y="535.5654">IHM</text><rect fill="#F8F8F8" height="30.2969" style="stroke: #383838; stroke-width: 1.0;" width="44" x="667.5" y="98.2813"/><text fill="#000000" font-family="sans-serif" font-size="14" lengthAdjust="spacingAndGlyphs" textLength="30" x="674.5" y="118.2764">SMA</text><rect fill="#F8F8F8" height="30.2969" style="stroke: #383838; stroke-width: 1.0;" width="44" x="667.5" y="515.5703"/><text fill="#000000" font-family="sans-serif" font-size="14" lengthAdjust="spacingAndGlyphs" textLength="30" x="674.5" y="535.5654">SMA</text><polygon fill="#383838" points="301.5,156.5781,311.5,160.5781,301.5,164.5781,305.5,160.5781" style="stroke: #383838; stroke-width: 1.0;"/><line style="stroke: #383838; stroke-width: 1.0;" x1="31.5" x2="307.5" y1="160.5781" y2="160.5781"/><text fill="#000000" font-family="sans-serif" font-size="13" lengthAdjust="spacingAndGlyphs" textLength="258" x="38.5" y="155.645">Consulter la liste des agents de l'agence</text><polygon fill="#383838" points="677.5,200.7109,687.5,204.7109,677.5,208.7109,681.5,204.7109" style="stroke: #383838; stroke-width: 1.0;"/><line style="stroke: #383838; stroke-width: 1.0;" x1="313.5" x2="683.5" y1="204.7109" y2="204.7109"/><text fill="#000000" font-family="sans-serif" font-size="13" lengthAdjust="spacingAndGlyphs" textLength="161" x="320.5" y="184.7778">ObtenirAgents(idAgence)</text><text fill="#000000" font-family="sans-serif" font-size="13" lengthAdjust="spacingAndGlyphs" textLength="98" x="320.5" y="199.9106">: Liste&lt;Agent&gt;</text><polygon fill="#383838" points="301.5,229.9766,311.5,233.9766,301.5,237.9766,305.5,233.9766" style="stroke: #383838; stroke-width: 1.0;"/><line style="stroke: #383838; stroke-width: 1.0;" x1="31.5" x2="307.5" y1="233.9766" y2="233.9766"/><text fill="#000000" font-family="sans-serif" font-size="13" lengthAdjust="spacingAndGlyphs" textLength="141" x="38.5" y="229.0435">Sélectionner un agent</text><polygon fill="#383838" points="301.5,259.1094,311.5,263.1094,301.5,267.1094,305.5,263.1094" style="stroke: #383838; stroke-width: 1.0;"/><line style="stroke: #383838; stroke-width: 1.0;" x1="31.5" x2="307.5" y1="263.1094" y2="263.1094"/><text fill="#000000" font-family="sans-serif" font-size="13" lengthAdjust="spacingAndGlyphs" textLength="187" x="38.5" y="258.1763">Consulter le détail d'un agent</text><polygon fill="#383838" points="677.5,303.2422,687.5,307.2422,677.5,311.2422,681.5,307.2422" style="stroke: #383838; stroke-width: 1.0;"/><line style="stroke: #383838; stroke-width: 1.0;" x1="313.5" x2="683.5" y1="307.2422" y2="307.2422"/><text fill="#000000" font-family="sans-serif" font-size="13" lengthAdjust="spacingAndGlyphs" textLength="188" x="320.5" y="287.3091">ObtenirDetailsAgent(idAgent)</text><text fill="#000000" font-family="sans-serif" font-size="13" lengthAdjust="spacingAndGlyphs" textLength="155" x="320.5" y="302.4419">: agent, Liste&lt;Contact&gt;</text><polygon fill="#383838" points="301.5,332.5078,311.5,336.5078,301.5,340.5078,305.5,336.5078" style="stroke: #383838; stroke-width: 1.0;"/><line style="stroke: #383838; stroke-width: 1.0;" x1="31.5" x2="307.5" y1="336.5078" y2="336.5078"/><text fill="#000000" font-family="sans-serif" font-size="13" lengthAdjust="spacingAndGlyphs" textLength="214" x="38.5" y="331.5747">Consulter les contacts d'un agent</text><polygon fill="#383838" points="677.5,376.6406,687.5,380.6406,677.5,384.6406,681.5,380.6406" style="stroke: #383838; stroke-width: 1.0;"/><line style="stroke: #383838; stroke-width: 1.0;" x1="313.5" x2="683.5" y1="380.6406" y2="380.6406"/><text fill="#000000" font-family="sans-serif" font-size="13" lengthAdjust="spacingAndGlyphs" textLength="201" x="320.5" y="360.7075">ObtenirContactsAgent(idAgent)</text><text fill="#000000" font-family="sans-serif" font-size="13" lengthAdjust="spacingAndGlyphs" textLength="110" x="320.5" y="375.8403">: Liste&lt;Contact&gt;</text><polygon fill="#383838" points="301.5,405.9063,311.5,409.9063,301.5,413.9063,305.5,409.9063" style="stroke: #383838; stroke-width: 1.0;"/><line style="stroke: #383838; stroke-width: 1.0;" x1="31.5" x2="307.5" y1="409.9063" y2="409.9063"/><text fill="#000000" font-family="sans-serif" font-size="13" lengthAdjust="spacingAndGlyphs" textLength="152" x="38.5" y="404.9731">Sélectionner un contact</text><polygon fill="#383838" points="301.5,435.0391,311.5,439.0391,301.5,443.0391,305.5,439.0391" style="stroke: #383838; stroke-width: 1.0;"/><line style="stroke: #383838; stroke-width: 1.0;" x1="31.5" x2="307.5" y1="439.0391" y2="439.0391"/><text fill="#000000" font-family="sans-serif" font-size="13" lengthAdjust="spacingAndGlyphs" textLength="198" x="38.5" y="434.106">Consulter le détail d'un contact</text><polygon fill="#383838" points="677.5,494.1719,687.5,498.1719,677.5,502.1719,681.5,498.1719" style="stroke: #383838; stroke-width: 1.0;"/><line style="stroke: #383838; stroke-width: 1.0;" x1="313.5" x2="683.5" y1="498.1719" y2="498.1719"/><text fill="#000000" font-family="sans-serif" font-size="13" lengthAdjust="spacingAndGlyphs" textLength="212" x="320.5" y="463.2388">ObtenirDetailsContact(idContact)</text><text fill="#000000" font-family="sans-serif" font-size="13" lengthAdjust="spacingAndGlyphs" textLength="258" x="320.5" y="478.3716">: contact, motifDeContact, Client, agent,</text><text fill="#000000" font-family="sans-serif" font-size="13" lengthAdjust="spacingAndGlyphs" textLength="352" x="320.5" y="493.5044">Liste&lt;PropositionCommerciale, Offre, Liste&lt;Produit&gt;&gt;</text></g></svg>