<?xml version="1.0" encoding="UTF-8" standalone="yes"?><svg xmlns="http://www.w3.org/2000/svg" xmlns:xlink="http://www.w3.org/1999/xlink" height="949px" style="width:858px;height:949px;" version="1.1" viewBox="0 0 858 949" width="858px"><defs/><g><text fill="#000000" font-family="sans-serif" font-size="20" lengthAdjust="spacingAndGlyphs" textLength="127" x="371.75" y="28.5645">DSS du CU 4</text><line style="stroke: none; stroke-width: 1.0;" x1="371.75" x2="498.75" y1="38.2813" y2="38.2813"/><rect fill="#FFFFFF" height="607.2734" style="stroke: #000000; stroke-width: 1.0;" width="844.5" x="13" y="249.1094"/><rect fill="#FFFFFF" height="472.4766" style="stroke: none; stroke-width: 1.0;" width="844.5" x="13" y="383.9063"/><rect fill="#FFFFFF" height="355.1406" style="stroke: #000000; stroke-width: 1.0;" width="824.5" x="23" y="494.2422"/><rect fill="#FFFFFF" height="59.0703" style="stroke: none; stroke-width: 1.0;" width="824.5" x="23" y="672.1719"/><rect fill="#FFFFFF" height="59.0703" style="stroke: none; stroke-width: 1.0;" width="824.5" x="23" y="731.2422"/><rect fill="#FFFFFF" height="59.0703" style="stroke: none; stroke-width: 1.0;" width="824.5" x="23" y="790.3125"/><line style="stroke: #383838; stroke-width: 1.0; stroke-dasharray: 5.0,5.0;" x1="56" x2="56" y1="129.5781" y2="873.3828"/><line style="stroke: #383838; stroke-width: 1.0; stroke-dasharray: 5.0,5.0;" x1="394" x2="394" y1="129.5781" y2="873.3828"/><line style="stroke: #383838; stroke-width: 1.0; stroke-dasharray: 5.0,5.0;" x1="815.5" x2="815.5" y1="129.5781" y2="873.3828"/><text fill="#000000" font-family="sans-serif" font-size="14" lengthAdjust="spacingAndGlyphs" textLength="41" x="33" y="126.2764">Agent</text><ellipse cx="56.5" cy="60.2813" fill="#F8F8F8" rx="8" ry="8" style="stroke: #383838; stroke-width: 2.0;"/><path d="M56.5,68.2813 L56.5,95.2813 M43.5,76.2813 L69.5,76.2813 M56.5,95.2813 L43.5,110.2813 M56.5,95.2813 L69.5,110.2813 " fill="#F8F8F8" style="stroke: #383838; stroke-width: 2.0;"/><text fill="#000000" font-family="sans-serif" font-size="14" lengthAdjust="spacingAndGlyphs" textLength="41" x="33" y="885.3779">Agent</text><ellipse cx="56.5" cy="898.6797" fill="#F8F8F8" rx="8" ry="8" style="stroke: #383838; stroke-width: 2.0;"/><path d="M56.5,906.6797 L56.5,933.6797 M43.5,914.6797 L69.5,914.6797 M56.5,933.6797 L43.5,948.6797 M56.5,933.6797 L69.5,948.6797 " fill="#F8F8F8" style="stroke: #383838; stroke-width: 2.0;"/><rect fill="#F8F8F8" height="30.2969" style="stroke: #383838; stroke-width: 1.0;" width="39" x="375" y="98.2813"/><text fill="#000000" font-family="sans-serif" font-size="14" lengthAdjust="spacingAndGlyphs" textLength="25" x="382" y="118.2764">IHM</text><rect fill="#F8F8F8" height="30.2969" style="stroke: #383838; stroke-width: 1.0;" width="39" x="375" y="872.3828"/><text fill="#000000" font-family="sans-serif" font-size="14" lengthAdjust="spacingAndGlyphs" textLength="25" x="382" y="892.3779">IHM</text><rect fill="#F8F8F8" height="30.2969" style="stroke: #383838; stroke-width: 1.0;" width="44" x="793.5" y="98.2813"/><text fill="#000000" font-family="sans-serif" font-size="14" lengthAdjust="spacingAndGlyphs" textLength="30" x="800.5" y="118.2764">SMA</text><rect fill="#F8F8F8" height="30.2969" style="stroke: #383838; stroke-width: 1.0;" width="44" x="793.5" y="872.3828"/><text fill="#000000" font-family="sans-serif" font-size="14" lengthAdjust="spacingAndGlyphs" textLength="30" x="800.5" y="892.3779">SMA</text><polygon fill="#383838" points="382.5,156.5781,392.5,160.5781,382.5,164.5781,386.5,160.5781" style="stroke: #383838; stroke-width: 1.0;"/><line style="stroke: #383838; stroke-width: 1.0;" x1="56.5" x2="388.5" y1="160.5781" y2="160.5781"/><text fill="#000000" font-family="sans-serif" font-size="13" lengthAdjust="spacingAndGlyphs" textLength="314" x="63.5" y="155.645">Consulter la liste des contacts à traiter de l'agent</text><polygon fill="#383838" points="803.5,200.7109,813.5,204.7109,803.5,208.7109,807.5,204.7109" style="stroke: #383838; stroke-width: 1.0;"/><line style="stroke: #383838; stroke-width: 1.0;" x1="394.5" x2="809.5" y1="204.7109" y2="204.7109"/><text fill="#000000" font-family="sans-serif" font-size="13" lengthAdjust="spacingAndGlyphs" textLength="213" x="401.5" y="184.7778">ObtenirContactsATraiter(idAgent)</text><text fill="#000000" font-family="sans-serif" font-size="13" lengthAdjust="spacingAndGlyphs" textLength="296" x="401.5" y="199.9106">: Liste &lt;Contact, PlageAgenda, Agent, Client&gt;</text><polygon fill="#383838" points="382.5,229.9766,392.5,233.9766,382.5,237.9766,386.5,233.9766" style="stroke: #383838; stroke-width: 1.0;"/><line style="stroke: #383838; stroke-width: 1.0;" x1="56.5" x2="388.5" y1="233.9766" y2="233.9766"/><text fill="#000000" font-family="sans-serif" font-size="13" lengthAdjust="spacingAndGlyphs" textLength="152" x="63.5" y="229.0435">Sélectionner un contact</text><rect fill="none" height="607.2734" style="stroke: #000000; stroke-width: 1.0;" width="844.5" x="13" y="249.1094"/><polygon fill="#EEEEEE" points="13,249.1094,77,249.1094,77,256.1094,67,266.1094,13,266.1094,13,249.1094" style="stroke: #000000; stroke-width: 1.0;"/><text fill="#000000" font-family="sans-serif" font-size="13" font-weight="bold" lengthAdjust="spacingAndGlyphs" textLength="19" x="28" y="262.1763">alt</text><text fill="#000000" font-family="sans-serif" font-size="11" font-weight="bold" lengthAdjust="spacingAndGlyphs" textLength="297" x="92" y="261.3198">[sélection d'autres contacts d'un même client]</text><polygon fill="#383838" points="382.5,283.2422,392.5,287.2422,382.5,291.2422,386.5,287.2422" style="stroke: #383838; stroke-width: 1.0;"/><line style="stroke: #383838; stroke-width: 1.0;" x1="56.5" x2="388.5" y1="287.2422" y2="287.2422"/><text fill="#000000" font-family="sans-serif" font-size="13" lengthAdjust="spacingAndGlyphs" textLength="166" x="63.5" y="282.3091">Sélectionner des contacts</text><polygon fill="#383838" points="382.5,327.375,392.5,331.375,382.5,335.375,386.5,331.375" style="stroke: #383838; stroke-width: 1.0;"/><line style="stroke: #383838; stroke-width: 1.0;" x1="56.5" x2="388.5" y1="331.375" y2="331.375"/><text fill="#000000" font-family="sans-serif" font-size="13" lengthAdjust="spacingAndGlyphs" textLength="147" x="63.5" y="311.4419">Regrouper les contacts</text><text fill="#000000" font-family="sans-serif" font-size="13" lengthAdjust="spacingAndGlyphs" textLength="104" x="63.5" y="326.5747">(si même client)</text><polygon fill="#383838" points="803.5,371.6406,813.5,375.6406,803.5,379.6406,807.5,375.6406" style="stroke: #383838; stroke-width: 1.0;"/><line style="stroke: #383838; stroke-width: 1.0;" x1="394.5" x2="809.5" y1="375.6406" y2="375.6406"/><text fill="#000000" font-family="sans-serif" font-size="13" lengthAdjust="spacingAndGlyphs" textLength="397" x="401.5" y="355.7075">GrouperContacts(idContactPrincipal, Liste&lt;idContactPrevus&gt;)</text><text fill="#000000" font-family="sans-serif" font-size="13" lengthAdjust="spacingAndGlyphs" textLength="34" x="401.5" y="370.8403">: void</text><line style="stroke: #000000; stroke-width: 1.0; stroke-dasharray: 2.0,2.0;" x1="13" x2="857.5" y1="384.9063" y2="384.9063"/><text fill="#000000" font-family="sans-serif" font-size="11" font-weight="bold" lengthAdjust="spacingAndGlyphs" textLength="183" x="18" y="395.1167">[sélection d'un seul contact]</text><polygon fill="#383838" points="382.5,415.7109,392.5,419.7109,382.5,423.7109,386.5,419.7109" style="stroke: #383838; stroke-width: 1.0;"/><line style="stroke: #383838; stroke-width: 1.0;" x1="56.5" x2="388.5" y1="419.7109" y2="419.7109"/><text fill="#000000" font-family="sans-serif" font-size="13" lengthAdjust="spacingAndGlyphs" textLength="198" x="63.5" y="414.7778">Consulter le détail d'un contact</text><polygon fill="#383838" points="803.5,474.8438,813.5,478.8438,803.5,482.8438,807.5,478.8438" style="stroke: #383838; stroke-width: 1.0;"/><line style="stroke: #383838; stroke-width: 1.0;" x1="394.5" x2="809.5" y1="478.8438" y2="478.8438"/><text fill="#000000" font-family="sans-serif" font-size="13" lengthAdjust="spacingAndGlyphs" textLength="212" x="401.5" y="443.9106">ObtenirDetailsContact(idContact)</text><text fill="#000000" font-family="sans-serif" font-size="13" lengthAdjust="spacingAndGlyphs" textLength="258" x="401.5" y="459.0435">: contact, motifDeContact, Client, agent,</text><text fill="#000000" font-family="sans-serif" font-size="13" lengthAdjust="spacingAndGlyphs" textLength="352" x="401.5" y="474.1763">Liste&lt;PropositionCommerciale, Offre, Liste&lt;Produit&gt;&gt;</text><rect fill="none" height="355.1406" style="stroke: #000000; stroke-width: 1.0;" width="824.5" x="23" y="494.2422"/><polygon fill="#EEEEEE" points="23,494.2422,87,494.2422,87,501.2422,77,511.2422,23,511.2422,23,494.2422" style="stroke: #000000; stroke-width: 1.0;"/><text fill="#000000" font-family="sans-serif" font-size="13" font-weight="bold" lengthAdjust="spacingAndGlyphs" textLength="19" x="38" y="507.3091">alt</text><text fill="#000000" font-family="sans-serif" font-size="11" font-weight="bold" lengthAdjust="spacingAndGlyphs" textLength="131" x="102" y="506.4526">[annulation contact]</text><polygon fill="#383838" points="382.5,528.375,392.5,532.375,382.5,536.375,386.5,532.375" style="stroke: #383838; stroke-width: 1.0;"/><line style="stroke: #383838; stroke-width: 1.0;" x1="56.5" x2="388.5" y1="532.375" y2="532.375"/><text fill="#000000" font-family="sans-serif" font-size="13" lengthAdjust="spacingAndGlyphs" textLength="116" x="63.5" y="527.4419">Annuler le contact</text><polygon fill="#383838" points="803.5,572.5078,813.5,576.5078,803.5,580.5078,807.5,576.5078" style="stroke: #383838; stroke-width: 1.0;"/><line style="stroke: #383838; stroke-width: 1.0;" x1="394.5" x2="809.5" y1="576.5078" y2="576.5078"/><text fill="#000000" font-family="sans-serif" font-size="13" lengthAdjust="spacingAndGlyphs" textLength="211" x="401.5" y="556.5747">AnnulerContact(idContact, motif)</text><text fill="#000000" font-family="sans-serif" font-size="13" lengthAdjust="spacingAndGlyphs" textLength="34" x="401.5" y="571.7075">: void</text><polygon fill="#383838" points="382.5,601.7734,392.5,605.7734,382.5,609.7734,386.5,605.7734" style="stroke: #383838; stroke-width: 1.0;"/><line style="stroke: #383838; stroke-width: 1.0;" x1="56.5" x2="388.5" y1="605.7734" y2="605.7734"/><text fill="#000000" font-family="sans-serif" font-size="13" lengthAdjust="spacingAndGlyphs" textLength="169" x="63.5" y="600.8403">Saisir le motif d'annulation</text><polygon fill="#383838" points="382.5,630.9063,392.5,634.9063,382.5,638.9063,386.5,634.9063" style="stroke: #383838; stroke-width: 1.0;"/><line style="stroke: #383838; stroke-width: 1.0;" x1="56.5" x2="388.5" y1="634.9063" y2="634.9063"/><text fill="#000000" font-family="sans-serif" font-size="13" lengthAdjust="spacingAndGlyphs" textLength="204" x="63.5" y="629.9731">Enregistrer le motif d'annulation</text><polygon fill="#383838" points="803.5,660.0391,813.5,664.0391,803.5,668.0391,807.5,664.0391" style="stroke: #383838; stroke-width: 1.0;"/><line style="stroke: #383838; stroke-width: 1.0;" x1="394.5" x2="809.5" y1="664.0391" y2="664.0391"/><text fill="#000000" font-family="sans-serif" font-size="13" lengthAdjust="spacingAndGlyphs" textLength="196" x="401.5" y="659.106">SM_EnregistrerMotifAnnulation</text><line style="stroke: #000000; stroke-width: 1.0; stroke-dasharray: 2.0,2.0;" x1="23" x2="847.5" y1="673.1719" y2="673.1719"/><text fill="#000000" font-family="sans-serif" font-size="11" font-weight="bold" lengthAdjust="spacingAndGlyphs" textLength="71" x="28" y="683.3823">[prise RDV]</text><polygon fill="#383838" points="382.5,718.9766,392.5,722.9766,382.5,726.9766,386.5,722.9766" style="stroke: #383838; stroke-width: 1.0;"/><line style="stroke: #383838; stroke-width: 1.0;" x1="56.5" x2="388.5" y1="722.9766" y2="722.9766"/><text fill="#000000" font-family="sans-serif" font-size="13" lengthAdjust="spacingAndGlyphs" textLength="81" x="63.5" y="703.0435">Prendre RDV</text><text fill="#000000" font-family="sans-serif" font-size="13" lengthAdjust="spacingAndGlyphs" textLength="41" x="63.5" y="718.1763">(CU 6)</text><line style="stroke: #000000; stroke-width: 1.0; stroke-dasharray: 2.0,2.0;" x1="23" x2="847.5" y1="732.2422" y2="732.2422"/><text fill="#000000" font-family="sans-serif" font-size="11" font-weight="bold" lengthAdjust="spacingAndGlyphs" textLength="114" x="28" y="742.4526">[preparation RDV]</text><polygon fill="#383838" points="382.5,778.0469,392.5,782.0469,382.5,786.0469,386.5,782.0469" style="stroke: #383838; stroke-width: 1.0;"/><line style="stroke: #383838; stroke-width: 1.0;" x1="56.5" x2="388.5" y1="782.0469" y2="782.0469"/><text fill="#000000" font-family="sans-serif" font-size="13" lengthAdjust="spacingAndGlyphs" textLength="101" x="63.5" y="762.1138">Preparer le RDV</text><text fill="#000000" font-family="sans-serif" font-size="13" lengthAdjust="spacingAndGlyphs" textLength="41" x="63.5" y="777.2466">(CU 8)</text><line style="stroke: #000000; stroke-width: 1.0; stroke-dasharray: 2.0,2.0;" x1="23" x2="847.5" y1="791.3125" y2="791.3125"/><text fill="#000000" font-family="sans-serif" font-size="11" font-weight="bold" lengthAdjust="spacingAndGlyphs" textLength="95" x="28" y="801.5229">[conduire RDV]</text><polygon fill="#383838" points="382.5,837.1172,392.5,841.1172,382.5,845.1172,386.5,841.1172" style="stroke: #383838; stroke-width: 1.0;"/><line style="stroke: #383838; stroke-width: 1.0;" x1="56.5" x2="388.5" y1="841.1172" y2="841.1172"/><text fill="#000000" font-family="sans-serif" font-size="13" lengthAdjust="spacingAndGlyphs" textLength="103" x="63.5" y="821.1841">Conduire le RDV</text><text fill="#000000" font-family="sans-serif" font-size="13" lengthAdjust="spacingAndGlyphs" textLength="41" x="63.5" y="836.3169">(CU 9)</text></g></svg>