<?xml version="1.0" encoding="UTF-8" standalone="yes"?><svg xmlns="http://www.w3.org/2000/svg" xmlns:xlink="http://www.w3.org/1999/xlink" height="1004px" style="width:916px;height:1004px;" version="1.1" viewBox="0 0 916 1004" width="916px"><defs/><g><text fill="#000000" font-family="sans-serif" font-size="20" lengthAdjust="spacingAndGlyphs" textLength="426" x="251.25" y="28.5645">Diagramme de séquence système du CU 8</text><line style="stroke: none; stroke-width: 1.0;" x1="251.25" x2="677.25" y1="38.2813" y2="38.2813"/><rect fill="#FFFFFF" height="544.5938" style="stroke: #000000; stroke-width: 1.0;" width="902.5" x="13" y="264.2422"/><rect fill="#FFFFFF" height="366.6641" style="stroke: none; stroke-width: 1.0;" width="902.5" x="13" y="442.1719"/><line style="stroke: #383838; stroke-width: 1.0; stroke-dasharray: 5.0,5.0;" x1="46" x2="46" y1="129.5781" y2="928.3672"/><line style="stroke: #383838; stroke-width: 1.0; stroke-dasharray: 5.0,5.0;" x1="420" x2="420" y1="129.5781" y2="928.3672"/><line style="stroke: #383838; stroke-width: 1.0; stroke-dasharray: 5.0,5.0;" x1="883.5" x2="883.5" y1="129.5781" y2="928.3672"/><text fill="#000000" font-family="sans-serif" font-size="14" lengthAdjust="spacingAndGlyphs" textLength="41" x="23" y="126.2764">Agent</text><ellipse cx="46.5" cy="60.2813" fill="#F8F8F8" rx="8" ry="8" style="stroke: #383838; stroke-width: 2.0;"/><path d="M46.5,68.2813 L46.5,95.2813 M33.5,76.2813 L59.5,76.2813 M46.5,95.2813 L33.5,110.2813 M46.5,95.2813 L59.5,110.2813 " fill="#F8F8F8" style="stroke: #383838; stroke-width: 2.0;"/><text fill="#000000" font-family="sans-serif" font-size="14" lengthAdjust="spacingAndGlyphs" textLength="41" x="23" y="940.3623">Agent</text><ellipse cx="46.5" cy="953.6641" fill="#F8F8F8" rx="8" ry="8" style="stroke: #383838; stroke-width: 2.0;"/><path d="M46.5,961.6641 L46.5,988.6641 M33.5,969.6641 L59.5,969.6641 M46.5,988.6641 L33.5,1003.6641 M46.5,988.6641 L59.5,1003.6641 " fill="#F8F8F8" style="stroke: #383838; stroke-width: 2.0;"/><rect fill="#F8F8F8" height="30.2969" style="stroke: #383838; stroke-width: 1.0;" width="39" x="401" y="98.2813"/><text fill="#000000" font-family="sans-serif" font-size="14" lengthAdjust="spacingAndGlyphs" textLength="25" x="408" y="118.2764">IHM</text><rect fill="#F8F8F8" height="30.2969" style="stroke: #383838; stroke-width: 1.0;" width="39" x="401" y="927.3672"/><text fill="#000000" font-family="sans-serif" font-size="14" lengthAdjust="spacingAndGlyphs" textLength="25" x="408" y="947.3623">IHM</text><rect fill="#F8F8F8" height="30.2969" style="stroke: #383838; stroke-width: 1.0;" width="44" x="861.5" y="98.2813"/><text fill="#000000" font-family="sans-serif" font-size="14" lengthAdjust="spacingAndGlyphs" textLength="30" x="868.5" y="118.2764">SMA</text><rect fill="#F8F8F8" height="30.2969" style="stroke: #383838; stroke-width: 1.0;" width="44" x="861.5" y="927.3672"/><text fill="#000000" font-family="sans-serif" font-size="14" lengthAdjust="spacingAndGlyphs" textLength="30" x="868.5" y="947.3623">SMA</text><polygon fill="#383838" points="408.5,156.5781,418.5,160.5781,408.5,164.5781,412.5,160.5781" style="stroke: #383838; stroke-width: 1.0;"/><line style="stroke: #383838; stroke-width: 1.0;" x1="46.5" x2="414.5" y1="160.5781" y2="160.5781"/><text fill="#000000" font-family="sans-serif" font-size="13" lengthAdjust="spacingAndGlyphs" textLength="122" x="53.5" y="155.645">Identifier le contact</text><polygon fill="#383838" points="871.5,200.7109,881.5,204.7109,871.5,208.7109,875.5,204.7109" style="stroke: #383838; stroke-width: 1.0;"/><line style="stroke: #383838; stroke-width: 1.0;" x1="420.5" x2="877.5" y1="204.7109" y2="204.7109"/><text fill="#000000" font-family="sans-serif" font-size="13" lengthAdjust="spacingAndGlyphs" textLength="225" x="427.5" y="184.7778">SM25 - IdentifierContact(idContact)</text><text fill="#000000" font-family="sans-serif" font-size="13" lengthAdjust="spacingAndGlyphs" textLength="58" x="427.5" y="199.9106">: Contact</text><polygon fill="#383838" points="408.5,244.9766,418.5,248.9766,408.5,252.9766,412.5,248.9766" style="stroke: #383838; stroke-width: 1.0;"/><line style="stroke: #383838; stroke-width: 1.0;" x1="46.5" x2="414.5" y1="248.9766" y2="248.9766"/><text fill="#000000" font-family="sans-serif" font-size="13" lengthAdjust="spacingAndGlyphs" textLength="198" x="53.5" y="229.0435">Consulter le détail d'un contact</text><text fill="#000000" font-family="sans-serif" font-size="13" lengthAdjust="spacingAndGlyphs" textLength="41" x="53.5" y="244.1763">(CU 4)</text><rect fill="none" height="544.5938" style="stroke: #000000; stroke-width: 1.0;" width="902.5" x="13" y="264.2422"/><polygon fill="#EEEEEE" points="13,264.2422,77,264.2422,77,271.2422,67,281.2422,13,281.2422,13,264.2422" style="stroke: #000000; stroke-width: 1.0;"/><text fill="#000000" font-family="sans-serif" font-size="13" font-weight="bold" lengthAdjust="spacingAndGlyphs" textLength="19" x="28" y="277.3091">alt</text><text fill="#000000" font-family="sans-serif" font-size="11" font-weight="bold" lengthAdjust="spacingAndGlyphs" textLength="121" x="92" y="276.4526">[Mise à jour client]</text><polygon fill="#383838" points="408.5,298.375,418.5,302.375,408.5,306.375,412.5,302.375" style="stroke: #383838; stroke-width: 1.0;"/><line style="stroke: #383838; stroke-width: 1.0;" x1="46.5" x2="414.5" y1="302.375" y2="302.375"/><text fill="#000000" font-family="sans-serif" font-size="13" lengthAdjust="spacingAndGlyphs" textLength="138" x="53.5" y="297.4419">Sélectionner un client</text><polygon fill="#383838" points="408.5,327.5078,418.5,331.5078,408.5,335.5078,412.5,331.5078" style="stroke: #383838; stroke-width: 1.0;"/><line style="stroke: #383838; stroke-width: 1.0;" x1="46.5" x2="414.5" y1="331.5078" y2="331.5078"/><text fill="#000000" font-family="sans-serif" font-size="13" lengthAdjust="spacingAndGlyphs" textLength="237" x="53.5" y="326.5747">Consulter le dossier du client (CU 10)</text><polygon fill="#383838" points="408.5,356.6406,418.5,360.6406,408.5,364.6406,412.5,360.6406" style="stroke: #383838; stroke-width: 1.0;"/><line style="stroke: #383838; stroke-width: 1.0;" x1="46.5" x2="414.5" y1="360.6406" y2="360.6406"/><text fill="#000000" font-family="sans-serif" font-size="13" lengthAdjust="spacingAndGlyphs" textLength="199" x="53.5" y="355.7075">Saisir les informations du client</text><polygon fill="#383838" points="408.5,385.7734,418.5,389.7734,408.5,393.7734,412.5,389.7734" style="stroke: #383838; stroke-width: 1.0;"/><line style="stroke: #383838; stroke-width: 1.0;" x1="46.5" x2="414.5" y1="389.7734" y2="389.7734"/><text fill="#000000" font-family="sans-serif" font-size="13" lengthAdjust="spacingAndGlyphs" textLength="188" x="53.5" y="384.8403">Mettre à jour les informations</text><polygon fill="#383838" points="871.5,429.9063,881.5,433.9063,871.5,437.9063,875.5,433.9063" style="stroke: #383838; stroke-width: 1.0;"/><line style="stroke: #383838; stroke-width: 1.0;" x1="420.5" x2="877.5" y1="433.9063" y2="433.9063"/><text fill="#000000" font-family="sans-serif" font-size="13" lengthAdjust="spacingAndGlyphs" textLength="314" x="427.5" y="413.9731">SM26 - MAJInfos(denomination, adresse, idClient)</text><text fill="#000000" font-family="sans-serif" font-size="13" lengthAdjust="spacingAndGlyphs" textLength="34" x="427.5" y="429.106">: void</text><line style="stroke: #000000; stroke-width: 1.0; stroke-dasharray: 2.0,2.0;" x1="13" x2="915.5" y1="443.1719" y2="443.1719"/><text fill="#000000" font-family="sans-serif" font-size="11" font-weight="bold" lengthAdjust="spacingAndGlyphs" textLength="168" x="18" y="453.3823">[Proposition commerciale]</text><polygon fill="#383838" points="408.5,473.9766,418.5,477.9766,408.5,481.9766,412.5,477.9766" style="stroke: #383838; stroke-width: 1.0;"/><line style="stroke: #383838; stroke-width: 1.0;" x1="46.5" x2="414.5" y1="477.9766" y2="477.9766"/><text fill="#000000" font-family="sans-serif" font-size="13" lengthAdjust="spacingAndGlyphs" textLength="173" x="53.5" y="473.0435">Consulter la liste des offres</text><polygon fill="#383838" points="871.5,518.1094,881.5,522.1094,871.5,526.1094,875.5,522.1094" style="stroke: #383838; stroke-width: 1.0;"/><line style="stroke: #383838; stroke-width: 1.0;" x1="420.5" x2="877.5" y1="522.1094" y2="522.1094"/><text fill="#000000" font-family="sans-serif" font-size="13" lengthAdjust="spacingAndGlyphs" textLength="170" x="427.5" y="502.1763">SM27 - ObtenirOffres(void)</text><text fill="#000000" font-family="sans-serif" font-size="13" lengthAdjust="spacingAndGlyphs" textLength="91" x="427.5" y="517.3091">: Liste&lt;Offre&gt;</text><polygon fill="#383838" points="408.5,547.375,418.5,551.375,408.5,555.375,412.5,551.375" style="stroke: #383838; stroke-width: 1.0;"/><line style="stroke: #383838; stroke-width: 1.0;" x1="46.5" x2="414.5" y1="551.375" y2="551.375"/><text fill="#000000" font-family="sans-serif" font-size="13" lengthAdjust="spacingAndGlyphs" textLength="141" x="53.5" y="546.4419">Sélectionner une offre</text><polygon fill="#383838" points="408.5,576.5078,418.5,580.5078,408.5,584.5078,412.5,580.5078" style="stroke: #383838; stroke-width: 1.0;"/><line style="stroke: #383838; stroke-width: 1.0;" x1="46.5" x2="414.5" y1="580.5078" y2="580.5078"/><text fill="#000000" font-family="sans-serif" font-size="13" lengthAdjust="spacingAndGlyphs" textLength="245" x="53.5" y="575.5747">Voir le détails d'une offre du catalogue</text><polygon fill="#383838" points="871.5,620.6406,881.5,624.6406,871.5,628.6406,875.5,624.6406" style="stroke: #383838; stroke-width: 1.0;"/><line style="stroke: #383838; stroke-width: 1.0;" x1="420.5" x2="877.5" y1="624.6406" y2="624.6406"/><text fill="#000000" font-family="sans-serif" font-size="13" lengthAdjust="spacingAndGlyphs" textLength="223" x="427.5" y="604.7075">SM28 - ObtenirDetailsOffre(idOffre)</text><text fill="#000000" font-family="sans-serif" font-size="13" lengthAdjust="spacingAndGlyphs" textLength="237" x="427.5" y="619.8403">: Liste&lt;Produit&gt;, commentairesOffre</text><polygon fill="#383838" points="408.5,649.9063,418.5,653.9063,408.5,657.9063,412.5,653.9063" style="stroke: #383838; stroke-width: 1.0;"/><line style="stroke: #383838; stroke-width: 1.0;" x1="46.5" x2="414.5" y1="653.9063" y2="653.9063"/><text fill="#000000" font-family="sans-serif" font-size="13" lengthAdjust="spacingAndGlyphs" textLength="225" x="53.5" y="648.9731">Créer une proposition commerciale</text><polygon fill="#383838" points="871.5,694.0391,881.5,698.0391,871.5,702.0391,875.5,698.0391" style="stroke: #383838; stroke-width: 1.0;"/><line style="stroke: #383838; stroke-width: 1.0;" x1="420.5" x2="877.5" y1="698.0391" y2="698.0391"/><text fill="#000000" font-family="sans-serif" font-size="13" lengthAdjust="spacingAndGlyphs" textLength="372" x="427.5" y="678.106">SM29 - AjouterPropositionCommerciale(idOffre, idContact)</text><text fill="#000000" font-family="sans-serif" font-size="13" lengthAdjust="spacingAndGlyphs" textLength="34" x="427.5" y="693.2388">: void</text><polygon fill="#383838" points="408.5,723.3047,418.5,727.3047,408.5,731.3047,412.5,727.3047" style="stroke: #383838; stroke-width: 1.0;"/><line style="stroke: #383838; stroke-width: 1.0;" x1="46.5" x2="414.5" y1="727.3047" y2="727.3047"/><text fill="#000000" font-family="sans-serif" font-size="13" lengthAdjust="spacingAndGlyphs" textLength="195" x="53.5" y="722.3716">Rédiger une proposition d'offre</text><polygon fill="#383838" points="408.5,752.4375,418.5,756.4375,408.5,760.4375,412.5,756.4375" style="stroke: #383838; stroke-width: 1.0;"/><line style="stroke: #383838; stroke-width: 1.0;" x1="46.5" x2="414.5" y1="756.4375" y2="756.4375"/><text fill="#000000" font-family="sans-serif" font-size="13" lengthAdjust="spacingAndGlyphs" textLength="213" x="53.5" y="751.5044">Annoter proposition commerciale</text><polygon fill="#383838" points="871.5,796.5703,881.5,800.5703,871.5,804.5703,875.5,800.5703" style="stroke: #383838; stroke-width: 1.0;"/><line style="stroke: #383838; stroke-width: 1.0;" x1="420.5" x2="877.5" y1="800.5703" y2="800.5703"/><text fill="#000000" font-family="sans-serif" font-size="13" lengthAdjust="spacingAndGlyphs" textLength="432" x="427.5" y="780.6372">SM30 - AnnoterProposition(annotations, idPropositionCommerciale)</text><text fill="#000000" font-family="sans-serif" font-size="13" lengthAdjust="spacingAndGlyphs" textLength="34" x="427.5" y="795.77">: void</text><polygon fill="#383838" points="408.5,832.8359,418.5,836.8359,408.5,840.8359,412.5,836.8359" style="stroke: #383838; stroke-width: 1.0;"/><line style="stroke: #383838; stroke-width: 1.0;" x1="46.5" x2="414.5" y1="836.8359" y2="836.8359"/><text fill="#000000" font-family="sans-serif" font-size="13" lengthAdjust="spacingAndGlyphs" textLength="350" x="53.5" y="831.9028">Saisir les annotations du compte-rendu de préparation</text><polygon fill="#383838" points="408.5,861.9688,418.5,865.9688,408.5,869.9688,412.5,865.9688" style="stroke: #383838; stroke-width: 1.0;"/><line style="stroke: #383838; stroke-width: 1.0;" x1="46.5" x2="414.5" y1="865.9688" y2="865.9688"/><text fill="#000000" font-family="sans-serif" font-size="13" lengthAdjust="spacingAndGlyphs" textLength="277" x="53.5" y="861.0356">Enregistrer le compte rendu de préparation</text><polygon fill="#383838" points="871.5,906.1016,881.5,910.1016,871.5,914.1016,875.5,910.1016" style="stroke: #383838; stroke-width: 1.0;"/><line style="stroke: #383838; stroke-width: 1.0;" x1="420.5" x2="877.5" y1="910.1016" y2="910.1016"/><text fill="#000000" font-family="sans-serif" font-size="13" lengthAdjust="spacingAndGlyphs" textLength="439" x="427.5" y="890.1685">SM31 - EnregistrerCompteRenduPreparation(annotations, idContact)</text><text fill="#000000" font-family="sans-serif" font-size="13" lengthAdjust="spacingAndGlyphs" textLength="34" x="427.5" y="905.3013">: void</text></g></svg>