<?xml version="1.0" encoding="UTF-8" standalone="yes"?><svg xmlns="http://www.w3.org/2000/svg" xmlns:xlink="http://www.w3.org/1999/xlink" height="1019px" style="width:867px;height:1019px;" version="1.1" viewBox="0 0 867 1019" width="867px"><defs/><g><text fill="#000000" font-family="sans-serif" font-size="20" lengthAdjust="spacingAndGlyphs" textLength="426" x="226.75" y="28.5645">Diagramme de séquence système du CU 8</text><line style="stroke: none; stroke-width: 1.0;" x1="226.75" x2="652.75" y1="38.2813" y2="38.2813"/><rect fill="#FFFFFF" height="412.9297" style="stroke: #000000; stroke-width: 1.0;" width="853.5" x="13" y="411.0391"/><rect fill="#FFFFFF" height="293.2656" style="stroke: none; stroke-width: 1.0;" width="853.5" x="13" y="530.7031"/><line style="stroke: #383838; stroke-width: 1.0; stroke-dasharray: 5.0,5.0;" x1="46" x2="46" y1="129.5781" y2="943.5"/><line style="stroke: #383838; stroke-width: 1.0; stroke-dasharray: 5.0,5.0;" x1="420" x2="420" y1="129.5781" y2="943.5"/><line style="stroke: #383838; stroke-width: 1.0; stroke-dasharray: 5.0,5.0;" x1="834.5" x2="834.5" y1="129.5781" y2="943.5"/><text fill="#000000" font-family="sans-serif" font-size="14" lengthAdjust="spacingAndGlyphs" textLength="41" x="23" y="126.2764">Agent</text><ellipse cx="46.5" cy="60.2813" fill="#F8F8F8" rx="8" ry="8" style="stroke: #383838; stroke-width: 2.0;"/><path d="M46.5,68.2813 L46.5,95.2813 M33.5,76.2813 L59.5,76.2813 M46.5,95.2813 L33.5,110.2813 M46.5,95.2813 L59.5,110.2813 " fill="#F8F8F8" style="stroke: #383838; stroke-width: 2.0;"/><text fill="#000000" font-family="sans-serif" font-size="14" lengthAdjust="spacingAndGlyphs" textLength="41" x="23" y="955.4951">Agent</text><ellipse cx="46.5" cy="968.7969" fill="#F8F8F8" rx="8" ry="8" style="stroke: #383838; stroke-width: 2.0;"/><path d="M46.5,976.7969 L46.5,1003.7969 M33.5,984.7969 L59.5,984.7969 M46.5,1003.7969 L33.5,1018.7969 M46.5,1003.7969 L59.5,1018.7969 " fill="#F8F8F8" style="stroke: #383838; stroke-width: 2.0;"/><rect fill="#F8F8F8" height="30.2969" style="stroke: #383838; stroke-width: 1.0;" width="39" x="401" y="98.2813"/><text fill="#000000" font-family="sans-serif" font-size="14" lengthAdjust="spacingAndGlyphs" textLength="25" x="408" y="118.2764">IHM</text><rect fill="#F8F8F8" height="30.2969" style="stroke: #383838; stroke-width: 1.0;" width="39" x="401" y="942.5"/><text fill="#000000" font-family="sans-serif" font-size="14" lengthAdjust="spacingAndGlyphs" textLength="25" x="408" y="962.4951">IHM</text><rect fill="#F8F8F8" height="30.2969" style="stroke: #383838; stroke-width: 1.0;" width="44" x="812.5" y="98.2813"/><text fill="#000000" font-family="sans-serif" font-size="14" lengthAdjust="spacingAndGlyphs" textLength="30" x="819.5" y="118.2764">SMA</text><rect fill="#F8F8F8" height="30.2969" style="stroke: #383838; stroke-width: 1.0;" width="44" x="812.5" y="942.5"/><text fill="#000000" font-family="sans-serif" font-size="14" lengthAdjust="spacingAndGlyphs" textLength="30" x="819.5" y="962.4951">SMA</text><polygon fill="#383838" points="408.5,156.5781,418.5,160.5781,408.5,164.5781,412.5,160.5781" style="stroke: #383838; stroke-width: 1.0;"/><line style="stroke: #383838; stroke-width: 1.0;" x1="46.5" x2="414.5" y1="160.5781" y2="160.5781"/><text fill="#000000" font-family="sans-serif" font-size="13" lengthAdjust="spacingAndGlyphs" textLength="122" x="53.5" y="155.645">Identifier le contact</text><polygon fill="#383838" points="822.5,200.7109,832.5,204.7109,822.5,208.7109,826.5,204.7109" style="stroke: #383838; stroke-width: 1.0;"/><line style="stroke: #383838; stroke-width: 1.0;" x1="420.5" x2="828.5" y1="204.7109" y2="204.7109"/><text fill="#000000" font-family="sans-serif" font-size="13" lengthAdjust="spacingAndGlyphs" textLength="176" x="427.5" y="184.7778">IdentifierContact(idContact)</text><text fill="#000000" font-family="sans-serif" font-size="13" lengthAdjust="spacingAndGlyphs" textLength="58" x="427.5" y="199.9106">: Contact</text><polygon fill="#383838" points="408.5,229.9766,418.5,233.9766,408.5,237.9766,412.5,233.9766" style="stroke: #383838; stroke-width: 1.0;"/><line style="stroke: #383838; stroke-width: 1.0;" x1="46.5" x2="414.5" y1="233.9766" y2="233.9766"/><text fill="#000000" font-family="sans-serif" font-size="13" lengthAdjust="spacingAndGlyphs" textLength="165" x="53.5" y="229.0435">Voir les détails du contact</text><polygon fill="#383838" points="822.5,289.1094,832.5,293.1094,822.5,297.1094,826.5,293.1094" style="stroke: #383838; stroke-width: 1.0;"/><line style="stroke: #383838; stroke-width: 1.0;" x1="420.5" x2="828.5" y1="293.1094" y2="293.1094"/><text fill="#000000" font-family="sans-serif" font-size="13" lengthAdjust="spacingAndGlyphs" textLength="212" x="427.5" y="258.1763">ObtenirDetailsContact(idContact)</text><text fill="#000000" font-family="sans-serif" font-size="13" lengthAdjust="spacingAndGlyphs" textLength="258" x="427.5" y="273.3091">: contact, motifDeContact, Client, agent,</text><text fill="#000000" font-family="sans-serif" font-size="13" lengthAdjust="spacingAndGlyphs" textLength="352" x="427.5" y="288.4419">Liste&lt;PropositionCommerciale, Offre, Liste&lt;Produit&gt;&gt;</text><polygon fill="#383838" points="408.5,318.5078,418.5,322.5078,408.5,326.5078,412.5,322.5078" style="stroke: #383838; stroke-width: 1.0;"/><line style="stroke: #383838; stroke-width: 1.0;" x1="46.5" x2="414.5" y1="322.5078" y2="322.5078"/><text fill="#000000" font-family="sans-serif" font-size="13" lengthAdjust="spacingAndGlyphs" textLength="138" x="53.5" y="317.5747">Sélectionner un client</text><polygon fill="#383838" points="408.5,347.6406,418.5,351.6406,408.5,355.6406,412.5,351.6406" style="stroke: #383838; stroke-width: 1.0;"/><line style="stroke: #383838; stroke-width: 1.0;" x1="46.5" x2="414.5" y1="351.6406" y2="351.6406"/><text fill="#000000" font-family="sans-serif" font-size="13" lengthAdjust="spacingAndGlyphs" textLength="184" x="53.5" y="346.7075">Consulter le dossier du client</text><polygon fill="#383838" points="822.5,391.7734,832.5,395.7734,822.5,399.7734,826.5,395.7734" style="stroke: #383838; stroke-width: 1.0;"/><line style="stroke: #383838; stroke-width: 1.0;" x1="420.5" x2="828.5" y1="395.7734" y2="395.7734"/><text fill="#000000" font-family="sans-serif" font-size="13" lengthAdjust="spacingAndGlyphs" textLength="188" x="427.5" y="375.8403">ObtenirDossierClient(idClient)</text><text fill="#000000" font-family="sans-serif" font-size="13" lengthAdjust="spacingAndGlyphs" textLength="44" x="427.5" y="390.9731">: Client</text><rect fill="none" height="412.9297" style="stroke: #000000; stroke-width: 1.0;" width="853.5" x="13" y="411.0391"/><polygon fill="#EEEEEE" points="13,411.0391,77,411.0391,77,418.0391,67,428.0391,13,428.0391,13,411.0391" style="stroke: #000000; stroke-width: 1.0;"/><text fill="#000000" font-family="sans-serif" font-size="13" font-weight="bold" lengthAdjust="spacingAndGlyphs" textLength="19" x="28" y="424.106">alt</text><text fill="#000000" font-family="sans-serif" font-size="11" font-weight="bold" lengthAdjust="spacingAndGlyphs" textLength="121" x="92" y="423.2495">[Mise à jour client]</text><polygon fill="#383838" points="408.5,445.1719,418.5,449.1719,408.5,453.1719,412.5,449.1719" style="stroke: #383838; stroke-width: 1.0;"/><line style="stroke: #383838; stroke-width: 1.0;" x1="46.5" x2="414.5" y1="449.1719" y2="449.1719"/><text fill="#000000" font-family="sans-serif" font-size="13" lengthAdjust="spacingAndGlyphs" textLength="199" x="53.5" y="444.2388">Saisir les informations du client</text><polygon fill="#383838" points="408.5,474.3047,418.5,478.3047,408.5,482.3047,412.5,478.3047" style="stroke: #383838; stroke-width: 1.0;"/><line style="stroke: #383838; stroke-width: 1.0;" x1="46.5" x2="414.5" y1="478.3047" y2="478.3047"/><text fill="#000000" font-family="sans-serif" font-size="13" lengthAdjust="spacingAndGlyphs" textLength="188" x="53.5" y="473.3716">Mettre à jour les informations</text><polygon fill="#383838" points="822.5,518.4375,832.5,522.4375,822.5,526.4375,826.5,522.4375" style="stroke: #383838; stroke-width: 1.0;"/><line style="stroke: #383838; stroke-width: 1.0;" x1="420.5" x2="828.5" y1="522.4375" y2="522.4375"/><text fill="#000000" font-family="sans-serif" font-size="13" lengthAdjust="spacingAndGlyphs" textLength="154" x="427.5" y="502.5044">MAJInfos(saisie, idClient)</text><text fill="#000000" font-family="sans-serif" font-size="13" lengthAdjust="spacingAndGlyphs" textLength="34" x="427.5" y="517.6372">: void</text><line style="stroke: #000000; stroke-width: 1.0; stroke-dasharray: 2.0,2.0;" x1="13" x2="866.5" y1="531.7031" y2="531.7031"/><text fill="#000000" font-family="sans-serif" font-size="11" font-weight="bold" lengthAdjust="spacingAndGlyphs" textLength="168" x="18" y="541.9136">[Proposition commerciale]</text><polygon fill="#383838" points="408.5,562.5078,418.5,566.5078,408.5,570.5078,412.5,566.5078" style="stroke: #383838; stroke-width: 1.0;"/><line style="stroke: #383838; stroke-width: 1.0;" x1="46.5" x2="414.5" y1="566.5078" y2="566.5078"/><text fill="#000000" font-family="sans-serif" font-size="13" lengthAdjust="spacingAndGlyphs" textLength="173" x="53.5" y="561.5747">Consulter la liste des offres</text><polygon fill="#383838" points="822.5,606.6406,832.5,610.6406,822.5,614.6406,826.5,610.6406" style="stroke: #383838; stroke-width: 1.0;"/><line style="stroke: #383838; stroke-width: 1.0;" x1="420.5" x2="828.5" y1="610.6406" y2="610.6406"/><text fill="#000000" font-family="sans-serif" font-size="13" lengthAdjust="spacingAndGlyphs" textLength="121" x="427.5" y="590.7075">ObtenirOffres(void)</text><text fill="#000000" font-family="sans-serif" font-size="13" lengthAdjust="spacingAndGlyphs" textLength="91" x="427.5" y="605.8403">: Liste&lt;Offre&gt;</text><polygon fill="#383838" points="408.5,635.9063,418.5,639.9063,408.5,643.9063,412.5,639.9063" style="stroke: #383838; stroke-width: 1.0;"/><line style="stroke: #383838; stroke-width: 1.0;" x1="46.5" x2="414.5" y1="639.9063" y2="639.9063"/><text fill="#000000" font-family="sans-serif" font-size="13" lengthAdjust="spacingAndGlyphs" textLength="141" x="53.5" y="634.9731">Sélectionner une offre</text><polygon fill="#383838" points="408.5,665.0391,418.5,669.0391,408.5,673.0391,412.5,669.0391" style="stroke: #383838; stroke-width: 1.0;"/><line style="stroke: #383838; stroke-width: 1.0;" x1="46.5" x2="414.5" y1="669.0391" y2="669.0391"/><text fill="#000000" font-family="sans-serif" font-size="13" lengthAdjust="spacingAndGlyphs" textLength="245" x="53.5" y="664.106">Voir le détails d'une offre du catalogue</text><polygon fill="#383838" points="822.5,709.1719,832.5,713.1719,822.5,717.1719,826.5,713.1719" style="stroke: #383838; stroke-width: 1.0;"/><line style="stroke: #383838; stroke-width: 1.0;" x1="420.5" x2="828.5" y1="713.1719" y2="713.1719"/><text fill="#000000" font-family="sans-serif" font-size="13" lengthAdjust="spacingAndGlyphs" textLength="174" x="427.5" y="693.2388">ObtenirDetailsOffre(idOffre)</text><text fill="#000000" font-family="sans-serif" font-size="13" lengthAdjust="spacingAndGlyphs" textLength="237" x="427.5" y="708.3716">: Liste&lt;Produit&gt;, commentairesOffre</text><polygon fill="#383838" points="408.5,738.4375,418.5,742.4375,408.5,746.4375,412.5,742.4375" style="stroke: #383838; stroke-width: 1.0;"/><line style="stroke: #383838; stroke-width: 1.0;" x1="46.5" x2="414.5" y1="742.4375" y2="742.4375"/><text fill="#000000" font-family="sans-serif" font-size="13" lengthAdjust="spacingAndGlyphs" textLength="195" x="53.5" y="737.5044">Rédiger une proposition d'offre</text><polygon fill="#383838" points="408.5,767.5703,418.5,771.5703,408.5,775.5703,412.5,771.5703" style="stroke: #383838; stroke-width: 1.0;"/><line style="stroke: #383838; stroke-width: 1.0;" x1="46.5" x2="414.5" y1="771.5703" y2="771.5703"/><text fill="#000000" font-family="sans-serif" font-size="13" lengthAdjust="spacingAndGlyphs" textLength="225" x="53.5" y="766.6372">Créer une proposition commerciale</text><polygon fill="#383838" points="822.5,811.7031,832.5,815.7031,822.5,819.7031,826.5,815.7031" style="stroke: #383838; stroke-width: 1.0;"/><line style="stroke: #383838; stroke-width: 1.0;" x1="420.5" x2="828.5" y1="815.7031" y2="815.7031"/><text fill="#000000" font-family="sans-serif" font-size="13" lengthAdjust="spacingAndGlyphs" textLength="323" x="427.5" y="795.77">AjouterPropositionCommerciale(idOffre, idContact)</text><text fill="#000000" font-family="sans-serif" font-size="13" lengthAdjust="spacingAndGlyphs" textLength="34" x="427.5" y="810.9028">: void</text><polygon fill="#383838" points="408.5,847.9688,418.5,851.9688,408.5,855.9688,412.5,851.9688" style="stroke: #383838; stroke-width: 1.0;"/><line style="stroke: #383838; stroke-width: 1.0;" x1="46.5" x2="414.5" y1="851.9688" y2="851.9688"/><text fill="#000000" font-family="sans-serif" font-size="13" lengthAdjust="spacingAndGlyphs" textLength="350" x="53.5" y="847.0356">Saisir les annotations du compte-rendu de préparation</text><polygon fill="#383838" points="408.5,877.1016,418.5,881.1016,408.5,885.1016,412.5,881.1016" style="stroke: #383838; stroke-width: 1.0;"/><line style="stroke: #383838; stroke-width: 1.0;" x1="46.5" x2="414.5" y1="881.1016" y2="881.1016"/><text fill="#000000" font-family="sans-serif" font-size="13" lengthAdjust="spacingAndGlyphs" textLength="277" x="53.5" y="876.1685">Enregistrer le compte rendu de préparation</text><polygon fill="#383838" points="822.5,921.2344,832.5,925.2344,822.5,929.2344,826.5,925.2344" style="stroke: #383838; stroke-width: 1.0;"/><line style="stroke: #383838; stroke-width: 1.0;" x1="420.5" x2="828.5" y1="925.2344" y2="925.2344"/><text fill="#000000" font-family="sans-serif" font-size="13" lengthAdjust="spacingAndGlyphs" textLength="390" x="427.5" y="905.3013">EnregistrerCompteRenduPreparation(annotations, idContact)</text><text fill="#000000" font-family="sans-serif" font-size="13" lengthAdjust="spacingAndGlyphs" textLength="34" x="427.5" y="920.4341">: void</text></g></svg>