<?xml version="1.0" encoding="UTF-8" standalone="yes"?><svg xmlns="http://www.w3.org/2000/svg" xmlns:xlink="http://www.w3.org/1999/xlink" height="475px" style="width:821px;height:475px;" version="1.1" viewBox="0 0 821 475" width="821px"><defs/><g><text fill="#000000" font-family="sans-serif" font-size="20" lengthAdjust="spacingAndGlyphs" textLength="426" x="201.25" y="28.5645">Diagramme de séquence système du CU 3</text><line style="stroke: none; stroke-width: 1.0;" x1="201.25" x2="627.25" y1="38.2813" y2="38.2813"/><line style="stroke: #383838; stroke-width: 1.0; stroke-dasharray: 5.0,5.0;" x1="31" x2="31" y1="129.5781" y2="398.9063"/><line style="stroke: #383838; stroke-width: 1.0; stroke-dasharray: 5.0,5.0;" x1="313" x2="313" y1="129.5781" y2="398.9063"/><line style="stroke: #383838; stroke-width: 1.0; stroke-dasharray: 5.0,5.0;" x1="798.5" x2="798.5" y1="129.5781" y2="398.9063"/><text fill="#000000" font-family="sans-serif" font-size="14" lengthAdjust="spacingAndGlyphs" textLength="41" x="8" y="126.2764">Agent</text><ellipse cx="31.5" cy="60.2813" fill="#F8F8F8" rx="8" ry="8" style="stroke: #383838; stroke-width: 2.0;"/><path d="M31.5,68.2813 L31.5,95.2813 M18.5,76.2813 L44.5,76.2813 M31.5,95.2813 L18.5,110.2813 M31.5,95.2813 L44.5,110.2813 " fill="#F8F8F8" style="stroke: #383838; stroke-width: 2.0;"/><text fill="#000000" font-family="sans-serif" font-size="14" lengthAdjust="spacingAndGlyphs" textLength="41" x="8" y="410.9014">Agent</text><ellipse cx="31.5" cy="424.2031" fill="#F8F8F8" rx="8" ry="8" style="stroke: #383838; stroke-width: 2.0;"/><path d="M31.5,432.2031 L31.5,459.2031 M18.5,440.2031 L44.5,440.2031 M31.5,459.2031 L18.5,474.2031 M31.5,459.2031 L44.5,474.2031 " fill="#F8F8F8" style="stroke: #383838; stroke-width: 2.0;"/><rect fill="#F8F8F8" height="30.2969" style="stroke: #383838; stroke-width: 1.0;" width="39" x="294" y="98.2813"/><text fill="#000000" font-family="sans-serif" font-size="14" lengthAdjust="spacingAndGlyphs" textLength="25" x="301" y="118.2764">IHM</text><rect fill="#F8F8F8" height="30.2969" style="stroke: #383838; stroke-width: 1.0;" width="39" x="294" y="397.9063"/><text fill="#000000" font-family="sans-serif" font-size="14" lengthAdjust="spacingAndGlyphs" textLength="25" x="301" y="417.9014">IHM</text><rect fill="#F8F8F8" height="30.2969" style="stroke: #383838; stroke-width: 1.0;" width="44" x="776.5" y="98.2813"/><text fill="#000000" font-family="sans-serif" font-size="14" lengthAdjust="spacingAndGlyphs" textLength="30" x="783.5" y="118.2764">SMA</text><rect fill="#F8F8F8" height="30.2969" style="stroke: #383838; stroke-width: 1.0;" width="44" x="776.5" y="397.9063"/><text fill="#000000" font-family="sans-serif" font-size="14" lengthAdjust="spacingAndGlyphs" textLength="30" x="783.5" y="417.9014">SMA</text><polygon fill="#383838" points="301.5,156.5781,311.5,160.5781,301.5,164.5781,305.5,160.5781" style="stroke: #383838; stroke-width: 1.0;"/><line style="stroke: #383838; stroke-width: 1.0;" x1="31.5" x2="307.5" y1="160.5781" y2="160.5781"/><text fill="#000000" font-family="sans-serif" font-size="13" lengthAdjust="spacingAndGlyphs" textLength="258" x="38.5" y="155.645">Consulter la liste des agents de l'agence</text><polygon fill="#383838" points="786.5,200.7109,796.5,204.7109,786.5,208.7109,790.5,204.7109" style="stroke: #383838; stroke-width: 1.0;"/><line style="stroke: #383838; stroke-width: 1.0;" x1="313.5" x2="792.5" y1="204.7109" y2="204.7109"/><text fill="#000000" font-family="sans-serif" font-size="13" lengthAdjust="spacingAndGlyphs" textLength="202" x="320.5" y="184.7778">SM4 - ObtenirAgents(idAgence)</text><text fill="#000000" font-family="sans-serif" font-size="13" lengthAdjust="spacingAndGlyphs" textLength="143" x="320.5" y="199.9106">: Liste&lt;Agent&gt; (CU 2)</text><polygon fill="#383838" points="301.5,229.9766,311.5,233.9766,301.5,237.9766,305.5,233.9766" style="stroke: #383838; stroke-width: 1.0;"/><line style="stroke: #383838; stroke-width: 1.0;" x1="31.5" x2="307.5" y1="233.9766" y2="233.9766"/><text fill="#000000" font-family="sans-serif" font-size="13" lengthAdjust="spacingAndGlyphs" textLength="141" x="38.5" y="229.0435">Sélectionner un agent</text><polygon fill="#383838" points="301.5,259.1094,311.5,263.1094,301.5,267.1094,305.5,263.1094" style="stroke: #383838; stroke-width: 1.0;"/><line style="stroke: #383838; stroke-width: 1.0;" x1="31.5" x2="307.5" y1="263.1094" y2="263.1094"/><text fill="#000000" font-family="sans-serif" font-size="13" lengthAdjust="spacingAndGlyphs" textLength="187" x="38.5" y="258.1763">Consulter le détail d'un agent</text><polygon fill="#383838" points="786.5,303.2422,796.5,307.2422,786.5,311.2422,790.5,307.2422" style="stroke: #383838; stroke-width: 1.0;"/><line style="stroke: #383838; stroke-width: 1.0;" x1="313.5" x2="792.5" y1="307.2422" y2="307.2422"/><text fill="#000000" font-family="sans-serif" font-size="13" lengthAdjust="spacingAndGlyphs" textLength="242" x="320.5" y="287.3091">SM6 - ObtenirContactsAgent(idAgent)</text><text fill="#000000" font-family="sans-serif" font-size="13" lengthAdjust="spacingAndGlyphs" textLength="461" x="320.5" y="302.4419">: Agent, Liste&lt;Agent, Client, Contact, PlageAgenda, TacheElementaire&gt;</text><polygon fill="#383838" points="301.5,332.5078,311.5,336.5078,301.5,340.5078,305.5,336.5078" style="stroke: #383838; stroke-width: 1.0;"/><line style="stroke: #383838; stroke-width: 1.0;" x1="31.5" x2="307.5" y1="336.5078" y2="336.5078"/><text fill="#000000" font-family="sans-serif" font-size="13" lengthAdjust="spacingAndGlyphs" textLength="152" x="38.5" y="331.5747">Sélectionner un contact</text><polygon fill="#383838" points="301.5,376.6406,311.5,380.6406,301.5,384.6406,305.5,380.6406" style="stroke: #383838; stroke-width: 1.0;"/><line style="stroke: #383838; stroke-width: 1.0;" x1="31.5" x2="307.5" y1="380.6406" y2="380.6406"/><text fill="#000000" font-family="sans-serif" font-size="13" lengthAdjust="spacingAndGlyphs" textLength="198" x="38.5" y="360.7075">Consulter le détail d'un contact</text><text fill="#000000" font-family="sans-serif" font-size="13" lengthAdjust="spacingAndGlyphs" textLength="41" x="38.5" y="375.8403">(CU 4)</text></g></svg>