<?xml version="1.0" encoding="UTF-8" standalone="yes"?><svg xmlns="http://www.w3.org/2000/svg" xmlns:xlink="http://www.w3.org/1999/xlink" height="2057px" style="width:888px;height:2057px;" version="1.1" viewBox="0 0 888 2057" width="888px"><defs/><g><text fill="#000000" font-family="sans-serif" font-size="20" lengthAdjust="spacingAndGlyphs" textLength="121" x="389.75" y="28.5645">DSS - CU 10</text><line style="stroke: none; stroke-width: 1.0;" x1="389.75" x2="510.75" y1="38.2813" y2="38.2813"/><rect fill="#FFFFFF" height="837.6484" style="stroke: #000000; stroke-width: 1.0;" width="874.5" x="13" y="265.2422"/><rect fill="#FFFFFF" height="598.3203" style="stroke: #000000; stroke-width: 1.0;" width="854.5" x="23" y="377.9063"/><rect fill="#FFFFFF" height="299.5938" style="stroke: none; stroke-width: 1.0;" width="854.5" x="23" y="601.2344"/><rect fill="#FFFFFF" height="181.0625" style="stroke: #000000; stroke-width: 1.0;" width="834.5" x="33" y="712.7656"/><rect fill="#FFFFFF" height="90.5313" style="stroke: none; stroke-width: 1.0;" width="834.5" x="33" y="803.2969"/><rect fill="#FFFFFF" height="75.3984" style="stroke: none; stroke-width: 1.0;" width="854.5" x="23" y="900.8281"/><rect fill="#FFFFFF" height="119.6641" style="stroke: none; stroke-width: 1.0;" width="874.5" x="13" y="983.2266"/><rect fill="#FFFFFF" height="538.0547" style="stroke: #000000; stroke-width: 1.0;" width="854.5" x="23" y="1116.8906"/><rect fill="#FFFFFF" height="134.7969" style="stroke: #000000; stroke-width: 1.0;" width="834.5" x="33" y="1244.6875"/><rect fill="#FFFFFF" height="105.6641" style="stroke: #000000; stroke-width: 1.0;" width="834.5" x="33" y="1393.4844"/><rect fill="#FFFFFF" height="134.7969" style="stroke: #000000; stroke-width: 1.0;" width="834.5" x="33" y="1513.1484"/><rect fill="#FFFFFF" height="295.5938" style="stroke: #000000; stroke-width: 1.0;" width="834.5" x="33" y="1668.9453"/><line style="stroke: #383838; stroke-width: 1.0; stroke-dasharray: 5.0,5.0;" x1="66" x2="66" y1="129.5781" y2="1981.5391"/><line style="stroke: #383838; stroke-width: 1.0; stroke-dasharray: 5.0,5.0;" x1="360" x2="360" y1="129.5781" y2="1981.5391"/><line style="stroke: #383838; stroke-width: 1.0; stroke-dasharray: 5.0,5.0;" x1="835.5" x2="835.5" y1="129.5781" y2="1981.5391"/><text fill="#000000" font-family="sans-serif" font-size="14" lengthAdjust="spacingAndGlyphs" textLength="41" x="43" y="126.2764">Agent</text><ellipse cx="66.5" cy="60.2813" fill="#F8F8F8" rx="8" ry="8" style="stroke: #383838; stroke-width: 2.0;"/><path d="M66.5,68.2813 L66.5,95.2813 M53.5,76.2813 L79.5,76.2813 M66.5,95.2813 L53.5,110.2813 M66.5,95.2813 L79.5,110.2813 " fill="#F8F8F8" style="stroke: #383838; stroke-width: 2.0;"/><text fill="#000000" font-family="sans-serif" font-size="14" lengthAdjust="spacingAndGlyphs" textLength="41" x="43" y="1993.5342">Agent</text><ellipse cx="66.5" cy="2006.8359" fill="#F8F8F8" rx="8" ry="8" style="stroke: #383838; stroke-width: 2.0;"/><path d="M66.5,2014.8359 L66.5,2041.8359 M53.5,2022.8359 L79.5,2022.8359 M66.5,2041.8359 L53.5,2056.8359 M66.5,2041.8359 L79.5,2056.8359 " fill="#F8F8F8" style="stroke: #383838; stroke-width: 2.0;"/><rect fill="#F8F8F8" height="30.2969" style="stroke: #383838; stroke-width: 1.0;" width="39" x="341" y="98.2813"/><text fill="#000000" font-family="sans-serif" font-size="14" lengthAdjust="spacingAndGlyphs" textLength="25" x="348" y="118.2764">IHM</text><rect fill="#F8F8F8" height="30.2969" style="stroke: #383838; stroke-width: 1.0;" width="39" x="341" y="1980.5391"/><text fill="#000000" font-family="sans-serif" font-size="14" lengthAdjust="spacingAndGlyphs" textLength="25" x="348" y="2000.5342">IHM</text><rect fill="#F8F8F8" height="30.2969" style="stroke: #383838; stroke-width: 1.0;" width="44" x="813.5" y="98.2813"/><text fill="#000000" font-family="sans-serif" font-size="14" lengthAdjust="spacingAndGlyphs" textLength="30" x="820.5" y="118.2764">SMA</text><rect fill="#F8F8F8" height="30.2969" style="stroke: #383838; stroke-width: 1.0;" width="44" x="813.5" y="1980.5391"/><text fill="#000000" font-family="sans-serif" font-size="14" lengthAdjust="spacingAndGlyphs" textLength="30" x="820.5" y="2000.5342">SMA</text><rect fill="#FFFFFF" height="40.2656" style="stroke: #000000; stroke-width: 1.0;" width="343" x="40" y="139.5781"/><polygon fill="#EEEEEE" points="40,139.5781,106,139.5781,106,146.5781,96,156.5781,40,156.5781,40,139.5781" style="stroke: #000000; stroke-width: 1.0;"/><text fill="#000000" font-family="sans-serif" font-size="13" font-weight="bold" lengthAdjust="spacingAndGlyphs" textLength="21" x="53" y="153.645">ref</text><text fill="#000000" font-family="sans-serif" font-size="13" lengthAdjust="spacingAndGlyphs" textLength="108" x="157.5" y="172.645">Identifier le client</text><polygon fill="#383838" points="348.5,201.8438,358.5,205.8438,348.5,209.8438,352.5,205.8438" style="stroke: #383838; stroke-width: 1.0;"/><line style="stroke: #383838; stroke-width: 1.0;" x1="66.5" x2="354.5" y1="205.8438" y2="205.8438"/><text fill="#000000" font-family="sans-serif" font-size="13" lengthAdjust="spacingAndGlyphs" textLength="184" x="73.5" y="200.9106">Consulter le dossier du client</text><polygon fill="#383838" points="823.5,245.9766,833.5,249.9766,823.5,253.9766,827.5,249.9766" style="stroke: #383838; stroke-width: 1.0;"/><line style="stroke: #383838; stroke-width: 1.0;" x1="360.5" x2="829.5" y1="249.9766" y2="249.9766"/><text fill="#000000" font-family="sans-serif" font-size="13" lengthAdjust="spacingAndGlyphs" textLength="250" x="367.5" y="230.0435">SM34 - ObtenirClientEtAgence(idClient)</text><text fill="#000000" font-family="sans-serif" font-size="13" lengthAdjust="spacingAndGlyphs" textLength="100" x="367.5" y="245.1763">: Client, Agence</text><rect fill="none" height="837.6484" style="stroke: #000000; stroke-width: 1.0;" width="874.5" x="13" y="265.2422"/><polygon fill="#EEEEEE" points="13,265.2422,83,265.2422,83,272.2422,73,282.2422,13,282.2422,13,265.2422" style="stroke: #000000; stroke-width: 1.0;"/><text fill="#000000" font-family="sans-serif" font-size="13" font-weight="bold" lengthAdjust="spacingAndGlyphs" textLength="25" x="28" y="278.3091">opt</text><text fill="#000000" font-family="sans-serif" font-size="11" font-weight="bold" lengthAdjust="spacingAndGlyphs" textLength="43" x="98" y="277.4526">[Bilan]</text><polygon fill="#383838" points="348.5,314.375,358.5,318.375,348.5,322.375,352.5,318.375" style="stroke: #383838; stroke-width: 1.0;"/><line style="stroke: #383838; stroke-width: 1.0;" x1="66.5" x2="354.5" y1="318.375" y2="318.375"/><text fill="#000000" font-family="sans-serif" font-size="13" lengthAdjust="spacingAndGlyphs" textLength="133" x="73.5" y="298.4419">Consulter bilan client</text><text fill="#000000" font-family="sans-serif" font-size="13" lengthAdjust="spacingAndGlyphs" textLength="187" x="73.5" y="313.5747">(cotation, liste de personnes)</text><polygon fill="#383838" points="823.5,358.6406,833.5,362.6406,823.5,366.6406,827.5,362.6406" style="stroke: #383838; stroke-width: 1.0;"/><line style="stroke: #383838; stroke-width: 1.0;" x1="360.5" x2="829.5" y1="362.6406" y2="362.6406"/><text fill="#000000" font-family="sans-serif" font-size="13" lengthAdjust="spacingAndGlyphs" textLength="234" x="367.5" y="342.7075">SM35 - ConsulterBilanClient(idClient)</text><text fill="#000000" font-family="sans-serif" font-size="13" lengthAdjust="spacingAndGlyphs" textLength="223" x="367.5" y="357.8403">: cotationsClient, Liste&lt;Personne&gt;</text><rect fill="none" height="598.3203" style="stroke: #000000; stroke-width: 1.0;" width="854.5" x="23" y="377.9063"/><polygon fill="#EEEEEE" points="23,377.9063,93,377.9063,93,384.9063,83,394.9063,23,394.9063,23,377.9063" style="stroke: #000000; stroke-width: 1.0;"/><text fill="#000000" font-family="sans-serif" font-size="13" font-weight="bold" lengthAdjust="spacingAndGlyphs" textLength="25" x="38" y="390.9731">opt</text><polygon fill="#383838" points="348.5,412.0391,358.5,416.0391,348.5,420.0391,352.5,416.0391" style="stroke: #383838; stroke-width: 1.0;"/><line style="stroke: #383838; stroke-width: 1.0;" x1="66.5" x2="354.5" y1="416.0391" y2="416.0391"/><text fill="#000000" font-family="sans-serif" font-size="13" lengthAdjust="spacingAndGlyphs" textLength="144" x="73.5" y="411.106">Sélectionner Personne</text><polygon fill="#383838" points="348.5,456.1719,358.5,460.1719,348.5,464.1719,352.5,460.1719" style="stroke: #383838; stroke-width: 1.0;"/><line style="stroke: #383838; stroke-width: 1.0;" x1="66.5" x2="354.5" y1="460.1719" y2="460.1719"/><text fill="#000000" font-family="sans-serif" font-size="13" lengthAdjust="spacingAndGlyphs" textLength="107" x="73.5" y="440.2388">Consulter details</text><text fill="#000000" font-family="sans-serif" font-size="13" lengthAdjust="spacingAndGlyphs" textLength="99" x="73.5" y="455.3716">d'une personne</text><polygon fill="#383838" points="823.5,500.4375,833.5,504.4375,823.5,508.4375,827.5,504.4375" style="stroke: #383838; stroke-width: 1.0;"/><line style="stroke: #383838; stroke-width: 1.0;" x1="360.5" x2="829.5" y1="504.4375" y2="504.4375"/><text fill="#000000" font-family="sans-serif" font-size="13" lengthAdjust="spacingAndGlyphs" textLength="288" x="367.5" y="484.5044">SM36 - ConsulterDetailPersonne(idPersonne)</text><text fill="#000000" font-family="sans-serif" font-size="13" lengthAdjust="spacingAndGlyphs" textLength="355" x="367.5" y="499.6372">: adresse, revenu, impot, dateNaissance, Liste&lt;Client&gt;</text><polygon fill="#383838" points="348.5,529.7031,358.5,533.7031,348.5,537.7031,352.5,533.7031" style="stroke: #383838; stroke-width: 1.0;"/><line style="stroke: #383838; stroke-width: 1.0;" x1="66.5" x2="354.5" y1="533.7031" y2="533.7031"/><text fill="#000000" font-family="sans-serif" font-size="13" lengthAdjust="spacingAndGlyphs" textLength="133" x="73.5" y="528.77">Mise à jour personne</text><polygon fill="#383838" points="823.5,588.8359,833.5,592.8359,823.5,596.8359,827.5,592.8359" style="stroke: #383838; stroke-width: 1.0;"/><line style="stroke: #383838; stroke-width: 1.0;" x1="360.5" x2="829.5" y1="592.8359" y2="592.8359"/><text fill="#000000" font-family="sans-serif" font-size="13" lengthAdjust="spacingAndGlyphs" textLength="359" x="367.5" y="557.9028">SM37 - MettreAJourPersonne(idPersonne, nom, prenom,</text><text fill="#000000" font-family="sans-serif" font-size="13" lengthAdjust="spacingAndGlyphs" textLength="256" x="367.5" y="573.0356">adresse, revenu, impot, dateNaissance)</text><text fill="#000000" font-family="sans-serif" font-size="13" lengthAdjust="spacingAndGlyphs" textLength="34" x="367.5" y="588.1685">: void</text><line style="stroke: #000000; stroke-width: 1.0; stroke-dasharray: 2.0,2.0;" x1="23" x2="877.5" y1="602.2344" y2="602.2344"/><polygon fill="#383838" points="348.5,620.2344,358.5,624.2344,348.5,628.2344,352.5,624.2344" style="stroke: #383838; stroke-width: 1.0;"/><line style="stroke: #383838; stroke-width: 1.0;" x1="66.5" x2="354.5" y1="624.2344" y2="624.2344"/><text fill="#000000" font-family="sans-serif" font-size="13" lengthAdjust="spacingAndGlyphs" textLength="119" x="73.5" y="619.3013">Saisir Informations</text><polygon fill="#383838" points="348.5,649.3672,358.5,653.3672,348.5,657.3672,352.5,653.3672" style="stroke: #383838; stroke-width: 1.0;"/><line style="stroke: #383838; stroke-width: 1.0;" x1="66.5" x2="354.5" y1="653.3672" y2="653.3672"/><text fill="#000000" font-family="sans-serif" font-size="13" lengthAdjust="spacingAndGlyphs" textLength="129" x="73.5" y="648.4341">Récupérer personne</text><polygon fill="#383838" points="823.5,693.5,833.5,697.5,823.5,701.5,827.5,697.5" style="stroke: #383838; stroke-width: 1.0;"/><line style="stroke: #383838; stroke-width: 1.0;" x1="360.5" x2="829.5" y1="697.5" y2="697.5"/><text fill="#000000" font-family="sans-serif" font-size="13" lengthAdjust="spacingAndGlyphs" textLength="412" x="367.5" y="677.5669">SM38 - RecupererPersonne(nom, prenom, trancheAge, adresse)</text><text fill="#000000" font-family="sans-serif" font-size="13" lengthAdjust="spacingAndGlyphs" textLength="68" x="367.5" y="692.6997">: Personne</text><rect fill="none" height="181.0625" style="stroke: #000000; stroke-width: 1.0;" width="834.5" x="33" y="712.7656"/><polygon fill="#EEEEEE" points="33,712.7656,103,712.7656,103,719.7656,93,729.7656,33,729.7656,33,712.7656" style="stroke: #000000; stroke-width: 1.0;"/><text fill="#000000" font-family="sans-serif" font-size="13" font-weight="bold" lengthAdjust="spacingAndGlyphs" textLength="25" x="48" y="725.8325">opt</text><polygon fill="#383838" points="348.5,746.8984,358.5,750.8984,348.5,754.8984,352.5,750.8984" style="stroke: #383838; stroke-width: 1.0;"/><line style="stroke: #383838; stroke-width: 1.0;" x1="66.5" x2="354.5" y1="750.8984" y2="750.8984"/><text fill="#000000" font-family="sans-serif" font-size="13" lengthAdjust="spacingAndGlyphs" textLength="138" x="73.5" y="745.9653">Ajouter une personne</text><polygon fill="#383838" points="823.5,791.0313,833.5,795.0313,823.5,799.0313,827.5,795.0313" style="stroke: #383838; stroke-width: 1.0;"/><line style="stroke: #383838; stroke-width: 1.0;" x1="360.5" x2="829.5" y1="795.0313" y2="795.0313"/><text fill="#000000" font-family="sans-serif" font-size="13" lengthAdjust="spacingAndGlyphs" textLength="291" x="367.5" y="775.0981">SM39 - AjouterPersonne(idClient, idPersonne)</text><text fill="#000000" font-family="sans-serif" font-size="13" lengthAdjust="spacingAndGlyphs" textLength="34" x="367.5" y="790.231">: void</text><line style="stroke: #000000; stroke-width: 1.0; stroke-dasharray: 2.0,2.0;" x1="33" x2="867.5" y1="804.2969" y2="804.2969"/><polygon fill="#383838" points="348.5,822.2969,358.5,826.2969,348.5,830.2969,352.5,826.2969" style="stroke: #383838; stroke-width: 1.0;"/><line style="stroke: #383838; stroke-width: 1.0;" x1="66.5" x2="354.5" y1="826.2969" y2="826.2969"/><text fill="#000000" font-family="sans-serif" font-size="13" lengthAdjust="spacingAndGlyphs" textLength="156" x="73.5" y="821.3638">Créer nouvelle personne</text><polygon fill="#383838" points="823.5,881.4297,833.5,885.4297,823.5,889.4297,827.5,885.4297" style="stroke: #383838; stroke-width: 1.0;"/><line style="stroke: #383838; stroke-width: 1.0;" x1="360.5" x2="829.5" y1="885.4297" y2="885.4297"/><text fill="#000000" font-family="sans-serif" font-size="13" lengthAdjust="spacingAndGlyphs" textLength="409" x="367.5" y="850.4966">SM40 - CreerEtAjouterNouvellePersonne(idClient, nom, prenom,</text><text fill="#000000" font-family="sans-serif" font-size="13" lengthAdjust="spacingAndGlyphs" textLength="270" x="367.5" y="865.6294">dateNaissance, adresse, revenus, impots)</text><text fill="#000000" font-family="sans-serif" font-size="13" lengthAdjust="spacingAndGlyphs" textLength="34" x="367.5" y="880.7622">: void</text><line style="stroke: #000000; stroke-width: 1.0; stroke-dasharray: 2.0,2.0;" x1="23" x2="877.5" y1="901.8281" y2="901.8281"/><polygon fill="#383838" points="348.5,919.8281,358.5,923.8281,348.5,927.8281,352.5,923.8281" style="stroke: #383838; stroke-width: 1.0;"/><line style="stroke: #383838; stroke-width: 1.0;" x1="66.5" x2="354.5" y1="923.8281" y2="923.8281"/><text fill="#000000" font-family="sans-serif" font-size="13" lengthAdjust="spacingAndGlyphs" textLength="134" x="73.5" y="918.895">Retirer une personne</text><polygon fill="#383838" points="823.5,963.9609,833.5,967.9609,823.5,971.9609,827.5,967.9609" style="stroke: #383838; stroke-width: 1.0;"/><line style="stroke: #383838; stroke-width: 1.0;" x1="360.5" x2="829.5" y1="967.9609" y2="967.9609"/><text fill="#000000" font-family="sans-serif" font-size="13" lengthAdjust="spacingAndGlyphs" textLength="287" x="367.5" y="948.0278">SM41 - RetirerPersonne(idClient, idPersonne)</text><text fill="#000000" font-family="sans-serif" font-size="13" lengthAdjust="spacingAndGlyphs" textLength="34" x="367.5" y="963.1606">: void</text><line style="stroke: #000000; stroke-width: 1.0; stroke-dasharray: 2.0,2.0;" x1="13" x2="887.5" y1="984.2266" y2="984.2266"/><polygon fill="#383838" points="348.5,1002.2266,358.5,1006.2266,348.5,1010.2266,352.5,1006.2266" style="stroke: #383838; stroke-width: 1.0;"/><line style="stroke: #383838; stroke-width: 1.0;" x1="66.5" x2="354.5" y1="1006.2266" y2="1006.2266"/><text fill="#000000" font-family="sans-serif" font-size="13" lengthAdjust="spacingAndGlyphs" textLength="140" x="73.5" y="1001.2935">Saisir Nouvelle Entete</text><polygon fill="#383838" points="348.5,1031.3594,358.5,1035.3594,348.5,1039.3594,352.5,1035.3594" style="stroke: #383838; stroke-width: 1.0;"/><line style="stroke: #383838; stroke-width: 1.0;" x1="66.5" x2="354.5" y1="1035.3594" y2="1035.3594"/><text fill="#000000" font-family="sans-serif" font-size="13" lengthAdjust="spacingAndGlyphs" textLength="106" x="73.5" y="1030.4263">Maj entête client</text><polygon fill="#383838" points="823.5,1090.4922,833.5,1094.4922,823.5,1098.4922,827.5,1094.4922" style="stroke: #383838; stroke-width: 1.0;"/><line style="stroke: #383838; stroke-width: 1.0;" x1="360.5" x2="829.5" y1="1094.4922" y2="1094.4922"/><text fill="#000000" font-family="sans-serif" font-size="13" lengthAdjust="spacingAndGlyphs" textLength="162" x="367.5" y="1059.5591">SM42 - MAJEnteteDossier</text><text fill="#000000" font-family="sans-serif" font-size="13" lengthAdjust="spacingAndGlyphs" textLength="259" x="367.5" y="1074.6919">(idClient, denomination, adressePostale)</text><text fill="#000000" font-family="sans-serif" font-size="13" lengthAdjust="spacingAndGlyphs" textLength="34" x="367.5" y="1089.8247">: void</text><rect fill="none" height="538.0547" style="stroke: #000000; stroke-width: 1.0;" width="854.5" x="23" y="1116.8906"/><polygon fill="#EEEEEE" points="23,1116.8906,93,1116.8906,93,1123.8906,83,1133.8906,23,1133.8906,23,1116.8906" style="stroke: #000000; stroke-width: 1.0;"/><text fill="#000000" font-family="sans-serif" font-size="13" font-weight="bold" lengthAdjust="spacingAndGlyphs" textLength="25" x="38" y="1129.9575">opt</text><text fill="#000000" font-family="sans-serif" font-size="11" font-weight="bold" lengthAdjust="spacingAndGlyphs" textLength="63" x="108" y="1129.1011">[Produits]</text><polygon fill="#383838" points="348.5,1181.0234,358.5,1185.0234,348.5,1189.0234,352.5,1185.0234" style="stroke: #383838; stroke-width: 1.0;"/><line style="stroke: #383838; stroke-width: 1.0;" x1="66.5" x2="354.5" y1="1185.0234" y2="1185.0234"/><text fill="#000000" font-family="sans-serif" font-size="13" lengthAdjust="spacingAndGlyphs" textLength="137" x="73.5" y="1150.0903">Consulter produits du</text><text fill="#000000" font-family="sans-serif" font-size="13" lengthAdjust="spacingAndGlyphs" textLength="113" x="73.5" y="1165.2231">client à la banque</text><text fill="#000000" font-family="sans-serif" font-size="13" lengthAdjust="spacingAndGlyphs" textLength="123" x="73.5" y="1180.356">et à la concurrence</text><polygon fill="#383838" points="823.5,1225.4219,833.5,1229.4219,823.5,1233.4219,827.5,1229.4219" style="stroke: #383838; stroke-width: 1.0;"/><line style="stroke: #383838; stroke-width: 1.0;" x1="360.5" x2="829.5" y1="1229.4219" y2="1229.4219"/><text fill="#000000" font-family="sans-serif" font-size="13" lengthAdjust="spacingAndGlyphs" textLength="205" x="367.5" y="1209.4888">SM43 - ObtenirProduits(idClient)</text><text fill="#000000" font-family="sans-serif" font-size="13" lengthAdjust="spacingAndGlyphs" textLength="164" x="367.5" y="1224.6216">: Liste&lt;Compte, Produit&gt;</text><rect fill="none" height="134.7969" style="stroke: #000000; stroke-width: 1.0;" width="834.5" x="33" y="1244.6875"/><polygon fill="#EEEEEE" points="33,1244.6875,103,1244.6875,103,1251.6875,93,1261.6875,33,1261.6875,33,1244.6875" style="stroke: #000000; stroke-width: 1.0;"/><text fill="#000000" font-family="sans-serif" font-size="13" font-weight="bold" lengthAdjust="spacingAndGlyphs" textLength="25" x="48" y="1257.7544">opt</text><text fill="#000000" font-family="sans-serif" font-size="11" font-weight="bold" lengthAdjust="spacingAndGlyphs" textLength="106" x="118" y="1256.8979">[Details compte]</text><polygon fill="#383838" points="348.5,1278.8203,358.5,1282.8203,348.5,1286.8203,352.5,1282.8203" style="stroke: #383838; stroke-width: 1.0;"/><line style="stroke: #383838; stroke-width: 1.0;" x1="66.5" x2="354.5" y1="1282.8203" y2="1282.8203"/><text fill="#000000" font-family="sans-serif" font-size="13" lengthAdjust="spacingAndGlyphs" textLength="135" x="73.5" y="1277.8872">Sélectionner Compte</text><polygon fill="#383838" points="348.5,1322.9531,358.5,1326.9531,348.5,1330.9531,352.5,1326.9531" style="stroke: #383838; stroke-width: 1.0;"/><line style="stroke: #383838; stroke-width: 1.0;" x1="66.5" x2="354.5" y1="1326.9531" y2="1326.9531"/><text fill="#000000" font-family="sans-serif" font-size="13" lengthAdjust="spacingAndGlyphs" textLength="107" x="73.5" y="1307.02">Consulter détails</text><text fill="#000000" font-family="sans-serif" font-size="13" lengthAdjust="spacingAndGlyphs" textLength="80" x="73.5" y="1322.1528">d'un compte</text><polygon fill="#383838" points="823.5,1367.2188,833.5,1371.2188,823.5,1375.2188,827.5,1371.2188" style="stroke: #383838; stroke-width: 1.0;"/><line style="stroke: #383838; stroke-width: 1.0;" x1="360.5" x2="829.5" y1="1371.2188" y2="1371.2188"/><text fill="#000000" font-family="sans-serif" font-size="13" lengthAdjust="spacingAndGlyphs" textLength="256" x="367.5" y="1351.2856">SM44 - ObtenirDetailCompte(idCompte)</text><text fill="#000000" font-family="sans-serif" font-size="13" lengthAdjust="spacingAndGlyphs" textLength="207" x="367.5" y="1366.4185">: numero, description, historique</text><rect fill="none" height="105.6641" style="stroke: #000000; stroke-width: 1.0;" width="834.5" x="33" y="1393.4844"/><polygon fill="#EEEEEE" points="33,1393.4844,103,1393.4844,103,1400.4844,93,1410.4844,33,1410.4844,33,1393.4844" style="stroke: #000000; stroke-width: 1.0;"/><text fill="#000000" font-family="sans-serif" font-size="13" font-weight="bold" lengthAdjust="spacingAndGlyphs" textLength="25" x="48" y="1406.5513">opt</text><text fill="#000000" font-family="sans-serif" font-size="11" font-weight="bold" lengthAdjust="spacingAndGlyphs" textLength="241" x="118" y="1405.6948">[Détail Produit / Sélectionner Produit]</text><polygon fill="#383838" points="348.5,1442.6172,358.5,1446.6172,348.5,1450.6172,352.5,1446.6172" style="stroke: #383838; stroke-width: 1.0;"/><line style="stroke: #383838; stroke-width: 1.0;" x1="66.5" x2="354.5" y1="1446.6172" y2="1446.6172"/><text fill="#000000" font-family="sans-serif" font-size="13" lengthAdjust="spacingAndGlyphs" textLength="100" x="73.5" y="1426.6841">Consulter détail</text><text fill="#000000" font-family="sans-serif" font-size="13" lengthAdjust="spacingAndGlyphs" textLength="76" x="77.5" y="1441.8169">d'un produit</text><polygon fill="#383838" points="823.5,1486.8828,833.5,1490.8828,823.5,1494.8828,827.5,1490.8828" style="stroke: #383838; stroke-width: 1.0;"/><line style="stroke: #383838; stroke-width: 1.0;" x1="360.5" x2="829.5" y1="1490.8828" y2="1490.8828"/><text fill="#000000" font-family="sans-serif" font-size="13" lengthAdjust="spacingAndGlyphs" textLength="244" x="367.5" y="1470.9497">SM45 - ObtenirDetailProduit(idProduit)</text><text fill="#000000" font-family="sans-serif" font-size="13" lengthAdjust="spacingAndGlyphs" textLength="164" x="367.5" y="1486.0825">: solde, découvert, interet</text><rect fill="none" height="134.7969" style="stroke: #000000; stroke-width: 1.0;" width="834.5" x="33" y="1513.1484"/><polygon fill="#EEEEEE" points="33,1513.1484,103,1513.1484,103,1520.1484,93,1530.1484,33,1530.1484,33,1513.1484" style="stroke: #000000; stroke-width: 1.0;"/><text fill="#000000" font-family="sans-serif" font-size="13" font-weight="bold" lengthAdjust="spacingAndGlyphs" textLength="25" x="48" y="1526.2153">opt</text><text fill="#000000" font-family="sans-serif" font-size="11" font-weight="bold" lengthAdjust="spacingAndGlyphs" textLength="132" x="118" y="1525.3589">[Mise à jour compte]</text><polygon fill="#383838" points="348.5,1547.2813,358.5,1551.2813,348.5,1555.2813,352.5,1551.2813" style="stroke: #383838; stroke-width: 1.0;"/><line style="stroke: #383838; stroke-width: 1.0;" x1="66.5" x2="354.5" y1="1551.2813" y2="1551.2813"/><text fill="#000000" font-family="sans-serif" font-size="13" lengthAdjust="spacingAndGlyphs" textLength="119" x="73.5" y="1546.3481">Saisir Informations</text><polygon fill="#383838" points="348.5,1591.4141,358.5,1595.4141,348.5,1599.4141,352.5,1595.4141" style="stroke: #383838; stroke-width: 1.0;"/><line style="stroke: #383838; stroke-width: 1.0;" x1="66.5" x2="354.5" y1="1595.4141" y2="1595.4141"/><text fill="#000000" font-family="sans-serif" font-size="13" lengthAdjust="spacingAndGlyphs" textLength="124" x="73.5" y="1575.481">Maj compte/produit</text><text fill="#000000" font-family="sans-serif" font-size="13" lengthAdjust="spacingAndGlyphs" textLength="106" x="73.5" y="1590.6138">à la concurrence</text><polygon fill="#383838" points="823.5,1635.6797,833.5,1639.6797,823.5,1643.6797,827.5,1639.6797" style="stroke: #383838; stroke-width: 1.0;"/><line style="stroke: #383838; stroke-width: 1.0;" x1="360.5" x2="829.5" y1="1639.6797" y2="1639.6797"/><text fill="#000000" font-family="sans-serif" font-size="13" lengthAdjust="spacingAndGlyphs" textLength="432" x="367.5" y="1619.7466">SM46 - MAJComptesConcurrence(idClient, txtComptesConcurrence)</text><text fill="#000000" font-family="sans-serif" font-size="13" lengthAdjust="spacingAndGlyphs" textLength="34" x="367.5" y="1634.8794">: void</text><rect fill="none" height="295.5938" style="stroke: #000000; stroke-width: 1.0;" width="834.5" x="33" y="1668.9453"/><polygon fill="#EEEEEE" points="33,1668.9453,103,1668.9453,103,1675.9453,93,1685.9453,33,1685.9453,33,1668.9453" style="stroke: #000000; stroke-width: 1.0;"/><text fill="#000000" font-family="sans-serif" font-size="13" font-weight="bold" lengthAdjust="spacingAndGlyphs" textLength="25" x="48" y="1682.0122">opt</text><text fill="#000000" font-family="sans-serif" font-size="11" font-weight="bold" lengthAdjust="spacingAndGlyphs" textLength="162" x="118" y="1681.1558">[Relations banque/client]</text><polygon fill="#383838" points="348.5,1718.0781,358.5,1722.0781,348.5,1726.0781,352.5,1722.0781" style="stroke: #383838; stroke-width: 1.0;"/><line style="stroke: #383838; stroke-width: 1.0;" x1="66.5" x2="354.5" y1="1722.0781" y2="1722.0781"/><text fill="#000000" font-family="sans-serif" font-size="13" lengthAdjust="spacingAndGlyphs" textLength="120" x="73.5" y="1702.145">Consulter relations</text><text fill="#000000" font-family="sans-serif" font-size="13" lengthAdjust="spacingAndGlyphs" textLength="87" x="77.5" y="1717.2778">banque-client</text><polygon fill="#383838" points="823.5,1777.3438,833.5,1781.3438,823.5,1785.3438,827.5,1781.3438" style="stroke: #383838; stroke-width: 1.0;"/><line style="stroke: #383838; stroke-width: 1.0;" x1="360.5" x2="829.5" y1="1781.3438" y2="1781.3438"/><text fill="#000000" font-family="sans-serif" font-size="13" lengthAdjust="spacingAndGlyphs" textLength="310" x="367.5" y="1746.4106">SM47 - ConsulterRelationsBanqueClient(idClient)</text><text fill="#000000" font-family="sans-serif" font-size="13" lengthAdjust="spacingAndGlyphs" textLength="303" x="367.5" y="1761.5435">: technique de contact, incidents, reclamations,</text><text fill="#000000" font-family="sans-serif" font-size="13" lengthAdjust="spacingAndGlyphs" textLength="451" x="367.5" y="1776.6763">Liste&lt;PropositionCommerciale&gt;, Liste&lt;Contact&gt;, Liste&lt;Evenement&gt;</text><polygon fill="#383838" points="348.5,1806.7422,358.5,1810.7422,348.5,1814.7422,352.5,1810.7422" style="stroke: #383838; stroke-width: 1.0;"/><line style="stroke: #383838; stroke-width: 1.0;" x1="66.5" x2="354.5" y1="1810.7422" y2="1810.7422"/><text fill="#000000" font-family="sans-serif" font-size="13" lengthAdjust="spacingAndGlyphs" textLength="270" x="73.5" y="1805.8091">Sélectionner une proposition commerciale</text><polygon fill="#383838" points="348.5,1835.875,358.5,1839.875,348.5,1843.875,352.5,1839.875" style="stroke: #383838; stroke-width: 1.0;"/><line style="stroke: #383838; stroke-width: 1.0;" x1="66.5" x2="354.5" y1="1839.875" y2="1839.875"/><text fill="#000000" font-family="sans-serif" font-size="13" lengthAdjust="spacingAndGlyphs" textLength="167" x="73.5" y="1834.9419">Identifier le contact (CU 8)</text><polygon fill="#383838" points="348.5,1865.0078,358.5,1869.0078,348.5,1873.0078,352.5,1869.0078" style="stroke: #383838; stroke-width: 1.0;"/><line style="stroke: #383838; stroke-width: 1.0;" x1="66.5" x2="354.5" y1="1869.0078" y2="1869.0078"/><text fill="#000000" font-family="sans-serif" font-size="13" lengthAdjust="spacingAndGlyphs" textLength="177" x="73.5" y="1864.0747">Sélectionner un événement</text><polygon fill="#383838" points="348.5,1894.1406,358.5,1898.1406,348.5,1902.1406,352.5,1898.1406" style="stroke: #383838; stroke-width: 1.0;"/><line style="stroke: #383838; stroke-width: 1.0;" x1="66.5" x2="354.5" y1="1898.1406" y2="1898.1406"/><text fill="#000000" font-family="sans-serif" font-size="13" lengthAdjust="spacingAndGlyphs" textLength="167" x="73.5" y="1893.2075">Identifier le contact (CU 8)</text><polygon fill="#383838" points="348.5,1923.2734,358.5,1927.2734,348.5,1931.2734,352.5,1927.2734" style="stroke: #383838; stroke-width: 1.0;"/><line style="stroke: #383838; stroke-width: 1.0;" x1="66.5" x2="354.5" y1="1927.2734" y2="1927.2734"/><text fill="#000000" font-family="sans-serif" font-size="13" lengthAdjust="spacingAndGlyphs" textLength="183" x="73.5" y="1922.3403">Sélectionner un rendez-vous</text><polygon fill="#383838" points="348.5,1952.4063,358.5,1956.4063,348.5,1960.4063,352.5,1956.4063" style="stroke: #383838; stroke-width: 1.0;"/><line style="stroke: #383838; stroke-width: 1.0;" x1="66.5" x2="354.5" y1="1956.4063" y2="1956.4063"/><text fill="#000000" font-family="sans-serif" font-size="13" lengthAdjust="spacingAndGlyphs" textLength="167" x="73.5" y="1951.4731">Identifier le contact (CU 8)</text></g></svg>