<?xml version="1.0" encoding="UTF-8" standalone="yes"?><svg xmlns="http://www.w3.org/2000/svg" xmlns:xlink="http://www.w3.org/1999/xlink" height="813px" style="width:788px;height:813px;" version="1.1" viewBox="0 0 788 813" width="788px"><defs/><g><text fill="#000000" font-family="sans-serif" font-size="20" lengthAdjust="spacingAndGlyphs" textLength="569" x="113.25" y="28.5645">Diagramme de séquence système du CU 6 (partie client)</text><line style="stroke: none; stroke-width: 1.0;" x1="113.25" x2="682.25" y1="38.2813" y2="38.2813"/><line style="stroke: #383838; stroke-width: 1.0; stroke-dasharray: 5.0,5.0;" x1="31" x2="31" y1="129.5781" y2="736.7656"/><line style="stroke: #383838; stroke-width: 1.0; stroke-dasharray: 5.0,5.0;" x1="370" x2="370" y1="129.5781" y2="736.7656"/><line style="stroke: #383838; stroke-width: 1.0; stroke-dasharray: 5.0,5.0;" x1="765.5" x2="765.5" y1="129.5781" y2="736.7656"/><text fill="#000000" font-family="sans-serif" font-size="14" lengthAdjust="spacingAndGlyphs" textLength="41" x="8" y="126.2764">Agent</text><ellipse cx="31.5" cy="60.2813" fill="#F8F8F8" rx="8" ry="8" style="stroke: #383838; stroke-width: 2.0;"/><path d="M31.5,68.2813 L31.5,95.2813 M18.5,76.2813 L44.5,76.2813 M31.5,95.2813 L18.5,110.2813 M31.5,95.2813 L44.5,110.2813 " fill="#F8F8F8" style="stroke: #383838; stroke-width: 2.0;"/><text fill="#000000" font-family="sans-serif" font-size="14" lengthAdjust="spacingAndGlyphs" textLength="41" x="8" y="748.7607">Agent</text><ellipse cx="31.5" cy="762.0625" fill="#F8F8F8" rx="8" ry="8" style="stroke: #383838; stroke-width: 2.0;"/><path d="M31.5,770.0625 L31.5,797.0625 M18.5,778.0625 L44.5,778.0625 M31.5,797.0625 L18.5,812.0625 M31.5,797.0625 L44.5,812.0625 " fill="#F8F8F8" style="stroke: #383838; stroke-width: 2.0;"/><rect fill="#F8F8F8" height="30.2969" style="stroke: #383838; stroke-width: 1.0;" width="39" x="351" y="98.2813"/><text fill="#000000" font-family="sans-serif" font-size="14" lengthAdjust="spacingAndGlyphs" textLength="25" x="358" y="118.2764">IHM</text><rect fill="#F8F8F8" height="30.2969" style="stroke: #383838; stroke-width: 1.0;" width="39" x="351" y="735.7656"/><text fill="#000000" font-family="sans-serif" font-size="14" lengthAdjust="spacingAndGlyphs" textLength="25" x="358" y="755.7607">IHM</text><rect fill="#F8F8F8" height="30.2969" style="stroke: #383838; stroke-width: 1.0;" width="44" x="743.5" y="98.2813"/><text fill="#000000" font-family="sans-serif" font-size="14" lengthAdjust="spacingAndGlyphs" textLength="30" x="750.5" y="118.2764">SMA</text><rect fill="#F8F8F8" height="30.2969" style="stroke: #383838; stroke-width: 1.0;" width="44" x="743.5" y="735.7656"/><text fill="#000000" font-family="sans-serif" font-size="14" lengthAdjust="spacingAndGlyphs" textLength="30" x="750.5" y="755.7607">SMA</text><polygon fill="#383838" points="358.5,156.5781,368.5,160.5781,358.5,164.5781,362.5,160.5781" style="stroke: #383838; stroke-width: 1.0;"/><line style="stroke: #383838; stroke-width: 1.0;" x1="31.5" x2="364.5" y1="160.5781" y2="160.5781"/><text fill="#000000" font-family="sans-serif" font-size="13" lengthAdjust="spacingAndGlyphs" textLength="199" x="38.5" y="155.645">Saisir les informations du client</text><polygon fill="#383838" points="358.5,185.7109,368.5,189.7109,358.5,193.7109,362.5,189.7109" style="stroke: #383838; stroke-width: 1.0;"/><line style="stroke: #383838; stroke-width: 1.0;" x1="31.5" x2="364.5" y1="189.7109" y2="189.7109"/><text fill="#000000" font-family="sans-serif" font-size="13" lengthAdjust="spacingAndGlyphs" textLength="125" x="38.5" y="184.7778">Rechercher le client</text><polygon fill="#383838" points="753.5,229.8438,763.5,233.8438,753.5,237.8438,757.5,233.8438" style="stroke: #383838; stroke-width: 1.0;"/><line style="stroke: #383838; stroke-width: 1.0;" x1="370.5" x2="759.5" y1="233.8438" y2="233.8438"/><text fill="#000000" font-family="sans-serif" font-size="13" lengthAdjust="spacingAndGlyphs" textLength="233" x="377.5" y="213.9106">RechercherClient(prenom, nom, etc)</text><text fill="#000000" font-family="sans-serif" font-size="13" lengthAdjust="spacingAndGlyphs" textLength="42" x="377.5" y="229.0435">: client</text><polygon fill="#383838" points="358.5,274.1094,368.5,278.1094,358.5,282.1094,362.5,278.1094" style="stroke: #383838; stroke-width: 1.0;"/><line style="stroke: #383838; stroke-width: 1.0;" x1="31.5" x2="364.5" y1="278.1094" y2="278.1094"/><text fill="#000000" font-family="sans-serif" font-size="13" lengthAdjust="spacingAndGlyphs" textLength="176" x="38.5" y="258.1763">Consulter son dossier client</text><text fill="#000000" font-family="sans-serif" font-size="13" lengthAdjust="spacingAndGlyphs" textLength="49" x="38.5" y="273.3091">(CU 10)</text><polygon fill="#383838" points="753.5,318.375,763.5,322.375,753.5,326.375,757.5,322.375" style="stroke: #383838; stroke-width: 1.0;"/><line style="stroke: #383838; stroke-width: 1.0;" x1="370.5" x2="759.5" y1="322.375" y2="322.375"/><text fill="#000000" font-family="sans-serif" font-size="13" lengthAdjust="spacingAndGlyphs" textLength="202" x="377.5" y="302.4419">ConsulterDossierClient(idClient)</text><text fill="#000000" font-family="sans-serif" font-size="13" lengthAdjust="spacingAndGlyphs" textLength="264" x="377.5" y="317.5747">: numero, denomination, adresse postale</text><polygon fill="#383838" points="358.5,347.6406,368.5,351.6406,358.5,355.6406,362.5,351.6406" style="stroke: #383838; stroke-width: 1.0;"/><line style="stroke: #383838; stroke-width: 1.0;" x1="31.5" x2="364.5" y1="351.6406" y2="351.6406"/><text fill="#000000" font-family="sans-serif" font-size="13" lengthAdjust="spacingAndGlyphs" textLength="183" x="38.5" y="346.7075">Voir les plages agenda libres</text><polygon fill="#383838" points="753.5,391.7734,763.5,395.7734,753.5,399.7734,757.5,395.7734" style="stroke: #383838; stroke-width: 1.0;"/><line style="stroke: #383838; stroke-width: 1.0;" x1="370.5" x2="759.5" y1="395.7734" y2="395.7734"/><text fill="#000000" font-family="sans-serif" font-size="13" lengthAdjust="spacingAndGlyphs" textLength="186" x="377.5" y="375.8403">ObtenirPlagesLibres(idAgent)</text><text fill="#000000" font-family="sans-serif" font-size="13" lengthAdjust="spacingAndGlyphs" textLength="144" x="377.5" y="390.9731">: Liste&lt;PlageAgenda&gt;</text><polygon fill="#383838" points="358.5,421.0391,368.5,425.0391,358.5,429.0391,362.5,425.0391" style="stroke: #383838; stroke-width: 1.0;"/><line style="stroke: #383838; stroke-width: 1.0;" x1="31.5" x2="364.5" y1="425.0391" y2="425.0391"/><text fill="#000000" font-family="sans-serif" font-size="13" lengthAdjust="spacingAndGlyphs" textLength="234" x="38.5" y="420.106">Saisir les infos concernant le contact</text><polygon fill="#383838" points="358.5,450.1719,368.5,454.1719,358.5,458.1719,362.5,454.1719" style="stroke: #383838; stroke-width: 1.0;"/><line style="stroke: #383838; stroke-width: 1.0;" x1="31.5" x2="364.5" y1="454.1719" y2="454.1719"/><text fill="#000000" font-family="sans-serif" font-size="13" lengthAdjust="spacingAndGlyphs" textLength="166" x="38.5" y="449.2388">Créer un nouveau contact</text><polygon fill="#383838" points="753.5,494.3047,763.5,498.3047,753.5,502.3047,757.5,498.3047" style="stroke: #383838; stroke-width: 1.0;"/><line style="stroke: #383838; stroke-width: 1.0;" x1="370.5" x2="759.5" y1="498.3047" y2="498.3047"/><text fill="#000000" font-family="sans-serif" font-size="13" lengthAdjust="spacingAndGlyphs" textLength="352" x="377.5" y="478.3716">CreerContactSpontane(idClient, idAgent, motifContact)</text><text fill="#000000" font-family="sans-serif" font-size="13" lengthAdjust="spacingAndGlyphs" textLength="193" x="377.5" y="493.5044">: contactPrevu, contactRealise</text><polygon fill="#383838" points="358.5,523.5703,368.5,527.5703,358.5,531.5703,362.5,527.5703" style="stroke: #383838; stroke-width: 1.0;"/><line style="stroke: #383838; stroke-width: 1.0;" x1="31.5" x2="364.5" y1="527.5703" y2="527.5703"/><text fill="#000000" font-family="sans-serif" font-size="13" lengthAdjust="spacingAndGlyphs" textLength="315" x="38.5" y="522.6372">Saisir les informations concernant le rendez-vous</text><polygon fill="#383838" points="358.5,552.7031,368.5,556.7031,358.5,560.7031,362.5,556.7031" style="stroke: #383838; stroke-width: 1.0;"/><line style="stroke: #383838; stroke-width: 1.0;" x1="31.5" x2="364.5" y1="556.7031" y2="556.7031"/><text fill="#000000" font-family="sans-serif" font-size="13" lengthAdjust="spacingAndGlyphs" textLength="202" x="38.5" y="551.77">Créer un rendez-vous spontané</text><polygon fill="#383838" points="753.5,596.8359,763.5,600.8359,753.5,604.8359,757.5,600.8359" style="stroke: #383838; stroke-width: 1.0;"/><line style="stroke: #383838; stroke-width: 1.0;" x1="370.5" x2="759.5" y1="600.8359" y2="600.8359"/><text fill="#000000" font-family="sans-serif" font-size="13" lengthAdjust="spacingAndGlyphs" textLength="371" x="377.5" y="580.9028">CreerRDVSpontane(idContactRealise, date, commentaire)</text><text fill="#000000" font-family="sans-serif" font-size="13" lengthAdjust="spacingAndGlyphs" textLength="92" x="377.5" y="596.0356">: plageAgenda</text><polygon fill="#383838" points="358.5,626.1016,368.5,630.1016,358.5,634.1016,362.5,630.1016" style="stroke: #383838; stroke-width: 1.0;"/><line style="stroke: #383838; stroke-width: 1.0;" x1="31.5" x2="364.5" y1="630.1016" y2="630.1016"/><text fill="#000000" font-family="sans-serif" font-size="13" lengthAdjust="spacingAndGlyphs" textLength="281" x="38.5" y="625.1685">Ecrire lettre de confirmation de rendez-vous</text><polygon fill="#383838" points="358.5,670.2344,368.5,674.2344,358.5,678.2344,362.5,674.2344" style="stroke: #383838; stroke-width: 1.0;"/><line style="stroke: #383838; stroke-width: 1.0;" x1="31.5" x2="364.5" y1="674.2344" y2="674.2344"/><text fill="#000000" font-family="sans-serif" font-size="13" lengthAdjust="spacingAndGlyphs" textLength="90" x="38.5" y="654.3013">Editer la lettre</text><text fill="#000000" font-family="sans-serif" font-size="13" lengthAdjust="spacingAndGlyphs" textLength="203" x="38.5" y="669.4341">de confirmation du rendez-vous</text><polygon fill="#383838" points="753.5,714.5,763.5,718.5,753.5,722.5,757.5,718.5" style="stroke: #383838; stroke-width: 1.0;"/><line style="stroke: #383838; stroke-width: 1.0;" x1="370.5" x2="759.5" y1="718.5" y2="718.5"/><text fill="#000000" font-family="sans-serif" font-size="13" lengthAdjust="spacingAndGlyphs" textLength="363" x="377.5" y="698.5669">EnregistrerLettreConfirmationRdv(idContact, texteLettre)</text><text fill="#000000" font-family="sans-serif" font-size="13" lengthAdjust="spacingAndGlyphs" textLength="34" x="377.5" y="713.6997">: void</text></g></svg>