<?xml version="1.0" encoding="UTF-8" standalone="yes"?><svg xmlns="http://www.w3.org/2000/svg" xmlns:xlink="http://www.w3.org/1999/xlink" height="1898px" style="width:805px;height:1898px;" version="1.1" viewBox="0 0 805 1898" width="805px"><defs/><g><text fill="#000000" font-family="sans-serif" font-size="20" lengthAdjust="spacingAndGlyphs" textLength="121" x="348.25" y="28.5645">DSS - CU 10</text><line style="stroke: none; stroke-width: 1.0;" x1="348.25" x2="469.25" y1="38.2813" y2="38.2813"/><rect fill="#FFFFFF" height="852.7813" style="stroke: #000000; stroke-width: 1.0;" width="791.5" x="13" y="265.2422"/><rect fill="#FFFFFF" height="613.4531" style="stroke: #000000; stroke-width: 1.0;" width="771.5" x="23" y="377.9063"/><rect fill="#FFFFFF" height="314.7266" style="stroke: none; stroke-width: 1.0;" width="771.5" x="23" y="601.2344"/><rect fill="#FFFFFF" height="196.1953" style="stroke: #000000; stroke-width: 1.0;" width="751.5" x="33" y="712.7656"/><rect fill="#FFFFFF" height="90.5313" style="stroke: none; stroke-width: 1.0;" width="751.5" x="33" y="818.4297"/><rect fill="#FFFFFF" height="75.3984" style="stroke: none; stroke-width: 1.0;" width="771.5" x="23" y="915.9609"/><rect fill="#FFFFFF" height="119.6641" style="stroke: none; stroke-width: 1.0;" width="791.5" x="13" y="998.3594"/><rect fill="#FFFFFF" height="538.0547" style="stroke: #000000; stroke-width: 1.0;" width="771.5" x="23" y="1132.0234"/><rect fill="#FFFFFF" height="134.7969" style="stroke: #000000; stroke-width: 1.0;" width="751.5" x="33" y="1259.8203"/><rect fill="#FFFFFF" height="105.6641" style="stroke: #000000; stroke-width: 1.0;" width="751.5" x="33" y="1408.6172"/><rect fill="#FFFFFF" height="134.7969" style="stroke: #000000; stroke-width: 1.0;" width="751.5" x="33" y="1528.2813"/><rect fill="#FFFFFF" height="120.7969" style="stroke: #000000; stroke-width: 1.0;" width="751.5" x="33" y="1684.0781"/><line style="stroke: #383838; stroke-width: 1.0; stroke-dasharray: 5.0,5.0;" x1="66" x2="66" y1="129.5781" y2="1821.875"/><line style="stroke: #383838; stroke-width: 1.0; stroke-dasharray: 5.0,5.0;" x1="277" x2="277" y1="129.5781" y2="1821.875"/><line style="stroke: #383838; stroke-width: 1.0; stroke-dasharray: 5.0,5.0;" x1="752.5" x2="752.5" y1="129.5781" y2="1821.875"/><text fill="#000000" font-family="sans-serif" font-size="14" lengthAdjust="spacingAndGlyphs" textLength="41" x="43" y="126.2764">Agent</text><ellipse cx="66.5" cy="60.2813" fill="#F8F8F8" rx="8" ry="8" style="stroke: #383838; stroke-width: 2.0;"/><path d="M66.5,68.2813 L66.5,95.2813 M53.5,76.2813 L79.5,76.2813 M66.5,95.2813 L53.5,110.2813 M66.5,95.2813 L79.5,110.2813 " fill="#F8F8F8" style="stroke: #383838; stroke-width: 2.0;"/><text fill="#000000" font-family="sans-serif" font-size="14" lengthAdjust="spacingAndGlyphs" textLength="41" x="43" y="1833.8701">Agent</text><ellipse cx="66.5" cy="1847.1719" fill="#F8F8F8" rx="8" ry="8" style="stroke: #383838; stroke-width: 2.0;"/><path d="M66.5,1855.1719 L66.5,1882.1719 M53.5,1863.1719 L79.5,1863.1719 M66.5,1882.1719 L53.5,1897.1719 M66.5,1882.1719 L79.5,1897.1719 " fill="#F8F8F8" style="stroke: #383838; stroke-width: 2.0;"/><rect fill="#F8F8F8" height="30.2969" style="stroke: #383838; stroke-width: 1.0;" width="39" x="258" y="98.2813"/><text fill="#000000" font-family="sans-serif" font-size="14" lengthAdjust="spacingAndGlyphs" textLength="25" x="265" y="118.2764">IHM</text><rect fill="#F8F8F8" height="30.2969" style="stroke: #383838; stroke-width: 1.0;" width="39" x="258" y="1820.875"/><text fill="#000000" font-family="sans-serif" font-size="14" lengthAdjust="spacingAndGlyphs" textLength="25" x="265" y="1840.8701">IHM</text><rect fill="#F8F8F8" height="30.2969" style="stroke: #383838; stroke-width: 1.0;" width="44" x="730.5" y="98.2813"/><text fill="#000000" font-family="sans-serif" font-size="14" lengthAdjust="spacingAndGlyphs" textLength="30" x="737.5" y="118.2764">SMA</text><rect fill="#F8F8F8" height="30.2969" style="stroke: #383838; stroke-width: 1.0;" width="44" x="730.5" y="1820.875"/><text fill="#000000" font-family="sans-serif" font-size="14" lengthAdjust="spacingAndGlyphs" textLength="30" x="737.5" y="1840.8701">SMA</text><rect fill="#FFFFFF" height="40.2656" style="stroke: #000000; stroke-width: 1.0;" width="260" x="40" y="139.5781"/><polygon fill="#EEEEEE" points="40,139.5781,106,139.5781,106,146.5781,96,156.5781,40,156.5781,40,139.5781" style="stroke: #000000; stroke-width: 1.0;"/><text fill="#000000" font-family="sans-serif" font-size="13" font-weight="bold" lengthAdjust="spacingAndGlyphs" textLength="21" x="53" y="153.645">ref</text><text fill="#000000" font-family="sans-serif" font-size="13" lengthAdjust="spacingAndGlyphs" textLength="108" x="116" y="172.645">Identifier le client</text><polygon fill="#383838" points="265.5,201.8438,275.5,205.8438,265.5,209.8438,269.5,205.8438" style="stroke: #383838; stroke-width: 1.0;"/><line style="stroke: #383838; stroke-width: 1.0;" x1="66.5" x2="271.5" y1="205.8438" y2="205.8438"/><text fill="#000000" font-family="sans-serif" font-size="13" lengthAdjust="spacingAndGlyphs" textLength="184" x="73.5" y="200.9106">Consulter le dossier du client</text><polygon fill="#383838" points="740.5,245.9766,750.5,249.9766,740.5,253.9766,744.5,249.9766" style="stroke: #383838; stroke-width: 1.0;"/><line style="stroke: #383838; stroke-width: 1.0;" x1="277.5" x2="746.5" y1="249.9766" y2="249.9766"/><text fill="#000000" font-family="sans-serif" font-size="13" lengthAdjust="spacingAndGlyphs" textLength="201" x="284.5" y="230.0435">ObtenirClientEtAgence(idClient)</text><text fill="#000000" font-family="sans-serif" font-size="13" lengthAdjust="spacingAndGlyphs" textLength="100" x="284.5" y="245.1763">: Client, Agence</text><rect fill="none" height="852.7813" style="stroke: #000000; stroke-width: 1.0;" width="791.5" x="13" y="265.2422"/><polygon fill="#EEEEEE" points="13,265.2422,83,265.2422,83,272.2422,73,282.2422,13,282.2422,13,265.2422" style="stroke: #000000; stroke-width: 1.0;"/><text fill="#000000" font-family="sans-serif" font-size="13" font-weight="bold" lengthAdjust="spacingAndGlyphs" textLength="25" x="28" y="278.3091">opt</text><text fill="#000000" font-family="sans-serif" font-size="11" font-weight="bold" lengthAdjust="spacingAndGlyphs" textLength="43" x="98" y="277.4526">[Bilan]</text><polygon fill="#383838" points="265.5,314.375,275.5,318.375,265.5,322.375,269.5,318.375" style="stroke: #383838; stroke-width: 1.0;"/><line style="stroke: #383838; stroke-width: 1.0;" x1="66.5" x2="271.5" y1="318.375" y2="318.375"/><text fill="#000000" font-family="sans-serif" font-size="13" lengthAdjust="spacingAndGlyphs" textLength="133" x="73.5" y="298.4419">Consulter bilan client</text><text fill="#000000" font-family="sans-serif" font-size="13" lengthAdjust="spacingAndGlyphs" textLength="187" x="73.5" y="313.5747">(cotation, liste de personnes)</text><polygon fill="#383838" points="740.5,358.6406,750.5,362.6406,740.5,366.6406,744.5,362.6406" style="stroke: #383838; stroke-width: 1.0;"/><line style="stroke: #383838; stroke-width: 1.0;" x1="277.5" x2="746.5" y1="362.6406" y2="362.6406"/><text fill="#000000" font-family="sans-serif" font-size="13" lengthAdjust="spacingAndGlyphs" textLength="185" x="284.5" y="342.7075">ConsulterBilanClient(idClient)</text><text fill="#000000" font-family="sans-serif" font-size="13" lengthAdjust="spacingAndGlyphs" textLength="223" x="284.5" y="357.8403">: cotationsClient, Liste&lt;Personne&gt;</text><rect fill="none" height="613.4531" style="stroke: #000000; stroke-width: 1.0;" width="771.5" x="23" y="377.9063"/><polygon fill="#EEEEEE" points="23,377.9063,93,377.9063,93,384.9063,83,394.9063,23,394.9063,23,377.9063" style="stroke: #000000; stroke-width: 1.0;"/><text fill="#000000" font-family="sans-serif" font-size="13" font-weight="bold" lengthAdjust="spacingAndGlyphs" textLength="25" x="38" y="390.9731">opt</text><polygon fill="#383838" points="265.5,412.0391,275.5,416.0391,265.5,420.0391,269.5,416.0391" style="stroke: #383838; stroke-width: 1.0;"/><line style="stroke: #383838; stroke-width: 1.0;" x1="66.5" x2="271.5" y1="416.0391" y2="416.0391"/><text fill="#000000" font-family="sans-serif" font-size="13" lengthAdjust="spacingAndGlyphs" textLength="144" x="73.5" y="411.106">Sélectionner Personne</text><polygon fill="#383838" points="265.5,456.1719,275.5,460.1719,265.5,464.1719,269.5,460.1719" style="stroke: #383838; stroke-width: 1.0;"/><line style="stroke: #383838; stroke-width: 1.0;" x1="66.5" x2="271.5" y1="460.1719" y2="460.1719"/><text fill="#000000" font-family="sans-serif" font-size="13" lengthAdjust="spacingAndGlyphs" textLength="107" x="73.5" y="440.2388">Consulter details</text><text fill="#000000" font-family="sans-serif" font-size="13" lengthAdjust="spacingAndGlyphs" textLength="99" x="73.5" y="455.3716">d'une personne</text><polygon fill="#383838" points="740.5,500.4375,750.5,504.4375,740.5,508.4375,744.5,504.4375" style="stroke: #383838; stroke-width: 1.0;"/><line style="stroke: #383838; stroke-width: 1.0;" x1="277.5" x2="746.5" y1="504.4375" y2="504.4375"/><text fill="#000000" font-family="sans-serif" font-size="13" lengthAdjust="spacingAndGlyphs" textLength="239" x="284.5" y="484.5044">ConsulterDetailPersonne(idPersonne)</text><text fill="#000000" font-family="sans-serif" font-size="13" lengthAdjust="spacingAndGlyphs" textLength="355" x="284.5" y="499.6372">: adresse, revenu, impot, dateNaissance, Liste&lt;Client&gt;</text><polygon fill="#383838" points="265.5,529.7031,275.5,533.7031,265.5,537.7031,269.5,533.7031" style="stroke: #383838; stroke-width: 1.0;"/><line style="stroke: #383838; stroke-width: 1.0;" x1="66.5" x2="271.5" y1="533.7031" y2="533.7031"/><text fill="#000000" font-family="sans-serif" font-size="13" lengthAdjust="spacingAndGlyphs" textLength="133" x="73.5" y="528.77">Mise à jour personne</text><polygon fill="#383838" points="740.5,588.8359,750.5,592.8359,740.5,596.8359,744.5,592.8359" style="stroke: #383838; stroke-width: 1.0;"/><line style="stroke: #383838; stroke-width: 1.0;" x1="277.5" x2="746.5" y1="592.8359" y2="592.8359"/><text fill="#000000" font-family="sans-serif" font-size="13" lengthAdjust="spacingAndGlyphs" textLength="310" x="284.5" y="557.9028">MettreAJourPersonne(idPersonne, nom, prenom,</text><text fill="#000000" font-family="sans-serif" font-size="13" lengthAdjust="spacingAndGlyphs" textLength="256" x="284.5" y="573.0356">adresse, revenu, impot, dateNaissance)</text><text fill="#000000" font-family="sans-serif" font-size="13" lengthAdjust="spacingAndGlyphs" textLength="34" x="284.5" y="588.1685">: void</text><line style="stroke: #000000; stroke-width: 1.0; stroke-dasharray: 2.0,2.0;" x1="23" x2="794.5" y1="602.2344" y2="602.2344"/><polygon fill="#383838" points="265.5,620.2344,275.5,624.2344,265.5,628.2344,269.5,624.2344" style="stroke: #383838; stroke-width: 1.0;"/><line style="stroke: #383838; stroke-width: 1.0;" x1="66.5" x2="271.5" y1="624.2344" y2="624.2344"/><text fill="#000000" font-family="sans-serif" font-size="13" lengthAdjust="spacingAndGlyphs" textLength="119" x="73.5" y="619.3013">Saisir Informations</text><polygon fill="#383838" points="265.5,649.3672,275.5,653.3672,265.5,657.3672,269.5,653.3672" style="stroke: #383838; stroke-width: 1.0;"/><line style="stroke: #383838; stroke-width: 1.0;" x1="66.5" x2="271.5" y1="653.3672" y2="653.3672"/><text fill="#000000" font-family="sans-serif" font-size="13" lengthAdjust="spacingAndGlyphs" textLength="129" x="73.5" y="648.4341">Récupérer personne</text><polygon fill="#383838" points="740.5,693.5,750.5,697.5,740.5,701.5,744.5,697.5" style="stroke: #383838; stroke-width: 1.0;"/><line style="stroke: #383838; stroke-width: 1.0;" x1="277.5" x2="746.5" y1="697.5" y2="697.5"/><text fill="#000000" font-family="sans-serif" font-size="13" lengthAdjust="spacingAndGlyphs" textLength="363" x="284.5" y="677.5669">RecupererPersonne(nom, prenom, trancheAge, adresse)</text><text fill="#000000" font-family="sans-serif" font-size="13" lengthAdjust="spacingAndGlyphs" textLength="68" x="284.5" y="692.6997">: Personne</text><rect fill="none" height="196.1953" style="stroke: #000000; stroke-width: 1.0;" width="751.5" x="33" y="712.7656"/><polygon fill="#EEEEEE" points="33,712.7656,103,712.7656,103,719.7656,93,729.7656,33,729.7656,33,712.7656" style="stroke: #000000; stroke-width: 1.0;"/><text fill="#000000" font-family="sans-serif" font-size="13" font-weight="bold" lengthAdjust="spacingAndGlyphs" textLength="25" x="48" y="725.8325">opt</text><polygon fill="#383838" points="265.5,746.8984,275.5,750.8984,265.5,754.8984,269.5,750.8984" style="stroke: #383838; stroke-width: 1.0;"/><line style="stroke: #383838; stroke-width: 1.0;" x1="66.5" x2="271.5" y1="750.8984" y2="750.8984"/><text fill="#000000" font-family="sans-serif" font-size="13" lengthAdjust="spacingAndGlyphs" textLength="138" x="73.5" y="745.9653">Ajouter une personne</text><polygon fill="#383838" points="740.5,806.0313,750.5,810.0313,740.5,814.0313,744.5,810.0313" style="stroke: #383838; stroke-width: 1.0;"/><line style="stroke: #383838; stroke-width: 1.0;" x1="277.5" x2="746.5" y1="810.0313" y2="810.0313"/><text fill="#000000" font-family="sans-serif" font-size="13" lengthAdjust="spacingAndGlyphs" textLength="257" x="284.5" y="775.0981">AjouterPersonne(idClient, nom, prenom,</text><text fill="#000000" font-family="sans-serif" font-size="13" lengthAdjust="spacingAndGlyphs" textLength="270" x="284.5" y="790.231">dateNaissance, adresse, revenus, impots)</text><text fill="#000000" font-family="sans-serif" font-size="13" lengthAdjust="spacingAndGlyphs" textLength="34" x="284.5" y="805.3638">: void</text><line style="stroke: #000000; stroke-width: 1.0; stroke-dasharray: 2.0,2.0;" x1="33" x2="784.5" y1="819.4297" y2="819.4297"/><polygon fill="#383838" points="265.5,837.4297,275.5,841.4297,265.5,845.4297,269.5,841.4297" style="stroke: #383838; stroke-width: 1.0;"/><line style="stroke: #383838; stroke-width: 1.0;" x1="66.5" x2="271.5" y1="841.4297" y2="841.4297"/><text fill="#000000" font-family="sans-serif" font-size="13" lengthAdjust="spacingAndGlyphs" textLength="156" x="73.5" y="836.4966">Créer nouvelle personne</text><polygon fill="#383838" points="740.5,896.5625,750.5,900.5625,740.5,904.5625,744.5,900.5625" style="stroke: #383838; stroke-width: 1.0;"/><line style="stroke: #383838; stroke-width: 1.0;" x1="277.5" x2="746.5" y1="900.5625" y2="900.5625"/><text fill="#000000" font-family="sans-serif" font-size="13" lengthAdjust="spacingAndGlyphs" textLength="360" x="284.5" y="865.6294">CreerEtAjouterNouvellePersonne(idClient, nom, prenom,</text><text fill="#000000" font-family="sans-serif" font-size="13" lengthAdjust="spacingAndGlyphs" textLength="270" x="284.5" y="880.7622">dateNaissance, adresse, revenus, impots)</text><text fill="#000000" font-family="sans-serif" font-size="13" lengthAdjust="spacingAndGlyphs" textLength="34" x="284.5" y="895.895">: void</text><line style="stroke: #000000; stroke-width: 1.0; stroke-dasharray: 2.0,2.0;" x1="23" x2="794.5" y1="916.9609" y2="916.9609"/><polygon fill="#383838" points="265.5,934.9609,275.5,938.9609,265.5,942.9609,269.5,938.9609" style="stroke: #383838; stroke-width: 1.0;"/><line style="stroke: #383838; stroke-width: 1.0;" x1="66.5" x2="271.5" y1="938.9609" y2="938.9609"/><text fill="#000000" font-family="sans-serif" font-size="13" lengthAdjust="spacingAndGlyphs" textLength="159" x="73.5" y="934.0278">Supprimer une personne</text><polygon fill="#383838" points="740.5,979.0938,750.5,983.0938,740.5,987.0938,744.5,983.0938" style="stroke: #383838; stroke-width: 1.0;"/><line style="stroke: #383838; stroke-width: 1.0;" x1="277.5" x2="746.5" y1="983.0938" y2="983.0938"/><text fill="#000000" font-family="sans-serif" font-size="13" lengthAdjust="spacingAndGlyphs" textLength="263" x="284.5" y="963.1606">SupprimerPersonne(idClient, idPersonne)</text><text fill="#000000" font-family="sans-serif" font-size="13" lengthAdjust="spacingAndGlyphs" textLength="34" x="284.5" y="978.2935">: void</text><line style="stroke: #000000; stroke-width: 1.0; stroke-dasharray: 2.0,2.0;" x1="13" x2="804.5" y1="999.3594" y2="999.3594"/><polygon fill="#383838" points="265.5,1017.3594,275.5,1021.3594,265.5,1025.3594,269.5,1021.3594" style="stroke: #383838; stroke-width: 1.0;"/><line style="stroke: #383838; stroke-width: 1.0;" x1="66.5" x2="271.5" y1="1021.3594" y2="1021.3594"/><text fill="#000000" font-family="sans-serif" font-size="13" lengthAdjust="spacingAndGlyphs" textLength="140" x="73.5" y="1016.4263">Saisir Nouvelle Entete</text><polygon fill="#383838" points="265.5,1046.4922,275.5,1050.4922,265.5,1054.4922,269.5,1050.4922" style="stroke: #383838; stroke-width: 1.0;"/><line style="stroke: #383838; stroke-width: 1.0;" x1="66.5" x2="271.5" y1="1050.4922" y2="1050.4922"/><text fill="#000000" font-family="sans-serif" font-size="13" lengthAdjust="spacingAndGlyphs" textLength="106" x="73.5" y="1045.5591">Maj entête client</text><polygon fill="#383838" points="740.5,1105.625,750.5,1109.625,740.5,1113.625,744.5,1109.625" style="stroke: #383838; stroke-width: 1.0;"/><line style="stroke: #383838; stroke-width: 1.0;" x1="277.5" x2="746.5" y1="1109.625" y2="1109.625"/><text fill="#000000" font-family="sans-serif" font-size="13" lengthAdjust="spacingAndGlyphs" textLength="113" x="284.5" y="1074.6919">MAJEnteteDossier</text><text fill="#000000" font-family="sans-serif" font-size="13" lengthAdjust="spacingAndGlyphs" textLength="259" x="284.5" y="1089.8247">(idClient, denomination, adressePostale)</text><text fill="#000000" font-family="sans-serif" font-size="13" lengthAdjust="spacingAndGlyphs" textLength="34" x="284.5" y="1104.9575">: void</text><rect fill="none" height="538.0547" style="stroke: #000000; stroke-width: 1.0;" width="771.5" x="23" y="1132.0234"/><polygon fill="#EEEEEE" points="23,1132.0234,93,1132.0234,93,1139.0234,83,1149.0234,23,1149.0234,23,1132.0234" style="stroke: #000000; stroke-width: 1.0;"/><text fill="#000000" font-family="sans-serif" font-size="13" font-weight="bold" lengthAdjust="spacingAndGlyphs" textLength="25" x="38" y="1145.0903">opt</text><text fill="#000000" font-family="sans-serif" font-size="11" font-weight="bold" lengthAdjust="spacingAndGlyphs" textLength="63" x="108" y="1144.2339">[Produits]</text><polygon fill="#383838" points="265.5,1196.1563,275.5,1200.1563,265.5,1204.1563,269.5,1200.1563" style="stroke: #383838; stroke-width: 1.0;"/><line style="stroke: #383838; stroke-width: 1.0;" x1="66.5" x2="271.5" y1="1200.1563" y2="1200.1563"/><text fill="#000000" font-family="sans-serif" font-size="13" lengthAdjust="spacingAndGlyphs" textLength="137" x="73.5" y="1165.2231">Consulter produits du</text><text fill="#000000" font-family="sans-serif" font-size="13" lengthAdjust="spacingAndGlyphs" textLength="113" x="73.5" y="1180.356">client à la banque</text><text fill="#000000" font-family="sans-serif" font-size="13" lengthAdjust="spacingAndGlyphs" textLength="123" x="73.5" y="1195.4888">et à la concurrence</text><polygon fill="#383838" points="740.5,1240.5547,750.5,1244.5547,740.5,1248.5547,744.5,1244.5547" style="stroke: #383838; stroke-width: 1.0;"/><line style="stroke: #383838; stroke-width: 1.0;" x1="277.5" x2="746.5" y1="1244.5547" y2="1244.5547"/><text fill="#000000" font-family="sans-serif" font-size="13" lengthAdjust="spacingAndGlyphs" textLength="156" x="284.5" y="1224.6216">ObtenirProduits(idClient)</text><text fill="#000000" font-family="sans-serif" font-size="13" lengthAdjust="spacingAndGlyphs" textLength="164" x="284.5" y="1239.7544">: Liste&lt;Compte, Produit&gt;</text><rect fill="none" height="134.7969" style="stroke: #000000; stroke-width: 1.0;" width="751.5" x="33" y="1259.8203"/><polygon fill="#EEEEEE" points="33,1259.8203,103,1259.8203,103,1266.8203,93,1276.8203,33,1276.8203,33,1259.8203" style="stroke: #000000; stroke-width: 1.0;"/><text fill="#000000" font-family="sans-serif" font-size="13" font-weight="bold" lengthAdjust="spacingAndGlyphs" textLength="25" x="48" y="1272.8872">opt</text><text fill="#000000" font-family="sans-serif" font-size="11" font-weight="bold" lengthAdjust="spacingAndGlyphs" textLength="106" x="118" y="1272.0308">[Details compte]</text><polygon fill="#383838" points="265.5,1293.9531,275.5,1297.9531,265.5,1301.9531,269.5,1297.9531" style="stroke: #383838; stroke-width: 1.0;"/><line style="stroke: #383838; stroke-width: 1.0;" x1="66.5" x2="271.5" y1="1297.9531" y2="1297.9531"/><text fill="#000000" font-family="sans-serif" font-size="13" lengthAdjust="spacingAndGlyphs" textLength="135" x="73.5" y="1293.02">Sélectionner Compte</text><polygon fill="#383838" points="265.5,1338.0859,275.5,1342.0859,265.5,1346.0859,269.5,1342.0859" style="stroke: #383838; stroke-width: 1.0;"/><line style="stroke: #383838; stroke-width: 1.0;" x1="66.5" x2="271.5" y1="1342.0859" y2="1342.0859"/><text fill="#000000" font-family="sans-serif" font-size="13" lengthAdjust="spacingAndGlyphs" textLength="107" x="73.5" y="1322.1528">Consulter détails</text><text fill="#000000" font-family="sans-serif" font-size="13" lengthAdjust="spacingAndGlyphs" textLength="80" x="73.5" y="1337.2856">d'un compte</text><polygon fill="#383838" points="740.5,1382.3516,750.5,1386.3516,740.5,1390.3516,744.5,1386.3516" style="stroke: #383838; stroke-width: 1.0;"/><line style="stroke: #383838; stroke-width: 1.0;" x1="277.5" x2="746.5" y1="1386.3516" y2="1386.3516"/><text fill="#000000" font-family="sans-serif" font-size="13" lengthAdjust="spacingAndGlyphs" textLength="207" x="284.5" y="1366.4185">ObtenirDetailCompte(idCompte)</text><text fill="#000000" font-family="sans-serif" font-size="13" lengthAdjust="spacingAndGlyphs" textLength="121" x="284.5" y="1381.5513">: details, historique</text><rect fill="none" height="105.6641" style="stroke: #000000; stroke-width: 1.0;" width="751.5" x="33" y="1408.6172"/><polygon fill="#EEEEEE" points="33,1408.6172,103,1408.6172,103,1415.6172,93,1425.6172,33,1425.6172,33,1408.6172" style="stroke: #000000; stroke-width: 1.0;"/><text fill="#000000" font-family="sans-serif" font-size="13" font-weight="bold" lengthAdjust="spacingAndGlyphs" textLength="25" x="48" y="1421.6841">opt</text><text fill="#000000" font-family="sans-serif" font-size="11" font-weight="bold" lengthAdjust="spacingAndGlyphs" textLength="241" x="118" y="1420.8276">[Détail Produit / Sélectionner Produit]</text><polygon fill="#383838" points="265.5,1457.75,275.5,1461.75,265.5,1465.75,269.5,1461.75" style="stroke: #383838; stroke-width: 1.0;"/><line style="stroke: #383838; stroke-width: 1.0;" x1="66.5" x2="271.5" y1="1461.75" y2="1461.75"/><text fill="#000000" font-family="sans-serif" font-size="13" lengthAdjust="spacingAndGlyphs" textLength="100" x="73.5" y="1441.8169">Consulter détail</text><text fill="#000000" font-family="sans-serif" font-size="13" lengthAdjust="spacingAndGlyphs" textLength="76" x="77.5" y="1456.9497">d'un produit</text><polygon fill="#383838" points="740.5,1502.0156,750.5,1506.0156,740.5,1510.0156,744.5,1506.0156" style="stroke: #383838; stroke-width: 1.0;"/><line style="stroke: #383838; stroke-width: 1.0;" x1="277.5" x2="746.5" y1="1506.0156" y2="1506.0156"/><text fill="#000000" font-family="sans-serif" font-size="13" lengthAdjust="spacingAndGlyphs" textLength="195" x="284.5" y="1486.0825">ObtenirDetailProduit(idProduit)</text><text fill="#000000" font-family="sans-serif" font-size="13" lengthAdjust="spacingAndGlyphs" textLength="176" x="284.5" y="1501.2153">: solde, découvert, interet...</text><rect fill="none" height="134.7969" style="stroke: #000000; stroke-width: 1.0;" width="751.5" x="33" y="1528.2813"/><polygon fill="#EEEEEE" points="33,1528.2813,103,1528.2813,103,1535.2813,93,1545.2813,33,1545.2813,33,1528.2813" style="stroke: #000000; stroke-width: 1.0;"/><text fill="#000000" font-family="sans-serif" font-size="13" font-weight="bold" lengthAdjust="spacingAndGlyphs" textLength="25" x="48" y="1541.3481">opt</text><text fill="#000000" font-family="sans-serif" font-size="11" font-weight="bold" lengthAdjust="spacingAndGlyphs" textLength="132" x="118" y="1540.4917">[Mise à jour compte]</text><polygon fill="#383838" points="265.5,1562.4141,275.5,1566.4141,265.5,1570.4141,269.5,1566.4141" style="stroke: #383838; stroke-width: 1.0;"/><line style="stroke: #383838; stroke-width: 1.0;" x1="66.5" x2="271.5" y1="1566.4141" y2="1566.4141"/><text fill="#000000" font-family="sans-serif" font-size="13" lengthAdjust="spacingAndGlyphs" textLength="119" x="73.5" y="1561.481">Saisir Informations</text><polygon fill="#383838" points="265.5,1606.5469,275.5,1610.5469,265.5,1614.5469,269.5,1610.5469" style="stroke: #383838; stroke-width: 1.0;"/><line style="stroke: #383838; stroke-width: 1.0;" x1="66.5" x2="271.5" y1="1610.5469" y2="1610.5469"/><text fill="#000000" font-family="sans-serif" font-size="13" lengthAdjust="spacingAndGlyphs" textLength="124" x="73.5" y="1590.6138">Maj compte/produit</text><text fill="#000000" font-family="sans-serif" font-size="13" lengthAdjust="spacingAndGlyphs" textLength="106" x="73.5" y="1605.7466">à la concurrence</text><polygon fill="#383838" points="740.5,1650.8125,750.5,1654.8125,740.5,1658.8125,744.5,1654.8125" style="stroke: #383838; stroke-width: 1.0;"/><line style="stroke: #383838; stroke-width: 1.0;" x1="277.5" x2="746.5" y1="1654.8125" y2="1654.8125"/><text fill="#000000" font-family="sans-serif" font-size="13" lengthAdjust="spacingAndGlyphs" textLength="383" x="284.5" y="1634.8794">MAJComptesConcurrence(idClient, txtComptesConcurrence)</text><text fill="#000000" font-family="sans-serif" font-size="13" lengthAdjust="spacingAndGlyphs" textLength="34" x="284.5" y="1650.0122">: void</text><rect fill="none" height="120.7969" style="stroke: #000000; stroke-width: 1.0;" width="751.5" x="33" y="1684.0781"/><polygon fill="#EEEEEE" points="33,1684.0781,103,1684.0781,103,1691.0781,93,1701.0781,33,1701.0781,33,1684.0781" style="stroke: #000000; stroke-width: 1.0;"/><text fill="#000000" font-family="sans-serif" font-size="13" font-weight="bold" lengthAdjust="spacingAndGlyphs" textLength="25" x="48" y="1697.145">opt</text><text fill="#000000" font-family="sans-serif" font-size="11" font-weight="bold" lengthAdjust="spacingAndGlyphs" textLength="162" x="118" y="1696.2886">[Relations banque/client]</text><polygon fill="#383838" points="265.5,1733.2109,275.5,1737.2109,265.5,1741.2109,269.5,1737.2109" style="stroke: #383838; stroke-width: 1.0;"/><line style="stroke: #383838; stroke-width: 1.0;" x1="66.5" x2="271.5" y1="1737.2109" y2="1737.2109"/><text fill="#000000" font-family="sans-serif" font-size="13" lengthAdjust="spacingAndGlyphs" textLength="120" x="73.5" y="1717.2778">Consulter relations</text><text fill="#000000" font-family="sans-serif" font-size="13" lengthAdjust="spacingAndGlyphs" textLength="87" x="77.5" y="1732.4106">banque-client</text><polygon fill="#383838" points="740.5,1792.4766,750.5,1796.4766,740.5,1800.4766,744.5,1796.4766" style="stroke: #383838; stroke-width: 1.0;"/><line style="stroke: #383838; stroke-width: 1.0;" x1="277.5" x2="746.5" y1="1796.4766" y2="1796.4766"/><text fill="#000000" font-family="sans-serif" font-size="13" lengthAdjust="spacingAndGlyphs" textLength="261" x="284.5" y="1761.5435">ConsulterRelationsBanqueClient(idClient)</text><text fill="#000000" font-family="sans-serif" font-size="13" lengthAdjust="spacingAndGlyphs" textLength="303" x="284.5" y="1776.6763">: technique de contact, incidents, reclamations,</text><text fill="#000000" font-family="sans-serif" font-size="13" lengthAdjust="spacingAndGlyphs" textLength="451" x="284.5" y="1791.8091">Liste&lt;PropositionCommerciale&gt;, Liste&lt;Contact&gt;, Liste&lt;Evenement&gt;</text></g></svg>