<?xml version="1.0" encoding="UTF-8" standalone="yes"?><svg xmlns="http://www.w3.org/2000/svg" xmlns:xlink="http://www.w3.org/1999/xlink" height="1852px" style="width:863px;height:1852px;" version="1.1" viewBox="0 0 863 1852" width="863px"><defs/><g><text fill="#000000" font-family="sans-serif" font-size="20" lengthAdjust="spacingAndGlyphs" textLength="121" x="377.25" y="28.5645">DSS - CU 10</text><line style="stroke: none; stroke-width: 1.0;" x1="377.25" x2="498.25" y1="38.2813" y2="38.2813"/><rect fill="#FFFFFF" height="822.5156" style="stroke: #000000; stroke-width: 1.0;" width="849.5" x="13" y="265.2422"/><rect fill="#FFFFFF" height="568.0547" style="stroke: #000000; stroke-width: 1.0;" width="829.5" x="23" y="393.0391"/><rect fill="#FFFFFF" height="284.4609" style="stroke: none; stroke-width: 1.0;" width="829.5" x="23" y="601.2344"/><rect fill="#FFFFFF" height="165.9297" style="stroke: #000000; stroke-width: 1.0;" width="809.5" x="33" y="712.7656"/><rect fill="#FFFFFF" height="75.3984" style="stroke: none; stroke-width: 1.0;" width="809.5" x="33" y="803.2969"/><rect fill="#FFFFFF" height="75.3984" style="stroke: none; stroke-width: 1.0;" width="829.5" x="23" y="885.6953"/><rect fill="#FFFFFF" height="119.6641" style="stroke: none; stroke-width: 1.0;" width="849.5" x="13" y="968.0938"/><rect fill="#FFFFFF" height="538.0547" style="stroke: #000000; stroke-width: 1.0;" width="829.5" x="23" y="1101.7578"/><rect fill="#FFFFFF" height="134.7969" style="stroke: #000000; stroke-width: 1.0;" width="809.5" x="33" y="1229.5547"/><rect fill="#FFFFFF" height="105.6641" style="stroke: #000000; stroke-width: 1.0;" width="809.5" x="33" y="1378.3516"/><rect fill="#FFFFFF" height="134.7969" style="stroke: #000000; stroke-width: 1.0;" width="809.5" x="33" y="1498.0156"/><rect fill="#FFFFFF" height="105.6641" style="stroke: #000000; stroke-width: 1.0;" width="809.5" x="33" y="1653.8125"/><line style="stroke: #383838; stroke-width: 1.0; stroke-dasharray: 5.0,5.0;" x1="66" x2="66" y1="129.5781" y2="1776.4766"/><line style="stroke: #383838; stroke-width: 1.0; stroke-dasharray: 5.0,5.0;" x1="330" x2="330" y1="129.5781" y2="1776.4766"/><line style="stroke: #383838; stroke-width: 1.0; stroke-dasharray: 5.0,5.0;" x1="810.5" x2="810.5" y1="129.5781" y2="1776.4766"/><text fill="#000000" font-family="sans-serif" font-size="14" lengthAdjust="spacingAndGlyphs" textLength="41" x="43" y="126.2764">Agent</text><ellipse cx="66.5" cy="60.2813" fill="#F8F8F8" rx="8" ry="8" style="stroke: #383838; stroke-width: 2.0;"/><path d="M66.5,68.2813 L66.5,95.2813 M53.5,76.2813 L79.5,76.2813 M66.5,95.2813 L53.5,110.2813 M66.5,95.2813 L79.5,110.2813 " fill="#F8F8F8" style="stroke: #383838; stroke-width: 2.0;"/><text fill="#000000" font-family="sans-serif" font-size="14" lengthAdjust="spacingAndGlyphs" textLength="41" x="43" y="1788.4717">Agent</text><ellipse cx="66.5" cy="1801.7734" fill="#F8F8F8" rx="8" ry="8" style="stroke: #383838; stroke-width: 2.0;"/><path d="M66.5,1809.7734 L66.5,1836.7734 M53.5,1817.7734 L79.5,1817.7734 M66.5,1836.7734 L53.5,1851.7734 M66.5,1836.7734 L79.5,1851.7734 " fill="#F8F8F8" style="stroke: #383838; stroke-width: 2.0;"/><rect fill="#F8F8F8" height="30.2969" style="stroke: #383838; stroke-width: 1.0;" width="39" x="311" y="98.2813"/><text fill="#000000" font-family="sans-serif" font-size="14" lengthAdjust="spacingAndGlyphs" textLength="25" x="318" y="118.2764">IHM</text><rect fill="#F8F8F8" height="30.2969" style="stroke: #383838; stroke-width: 1.0;" width="39" x="311" y="1775.4766"/><text fill="#000000" font-family="sans-serif" font-size="14" lengthAdjust="spacingAndGlyphs" textLength="25" x="318" y="1795.4717">IHM</text><rect fill="#F8F8F8" height="30.2969" style="stroke: #383838; stroke-width: 1.0;" width="44" x="788.5" y="98.2813"/><text fill="#000000" font-family="sans-serif" font-size="14" lengthAdjust="spacingAndGlyphs" textLength="30" x="795.5" y="118.2764">SMA</text><rect fill="#F8F8F8" height="30.2969" style="stroke: #383838; stroke-width: 1.0;" width="44" x="788.5" y="1775.4766"/><text fill="#000000" font-family="sans-serif" font-size="14" lengthAdjust="spacingAndGlyphs" textLength="30" x="795.5" y="1795.4717">SMA</text><rect fill="#FFFFFF" height="40.2656" style="stroke: #000000; stroke-width: 1.0;" width="313" x="40" y="139.5781"/><polygon fill="#EEEEEE" points="40,139.5781,106,139.5781,106,146.5781,96,156.5781,40,156.5781,40,139.5781" style="stroke: #000000; stroke-width: 1.0;"/><text fill="#000000" font-family="sans-serif" font-size="13" font-weight="bold" lengthAdjust="spacingAndGlyphs" textLength="21" x="53" y="153.645">ref</text><text fill="#000000" font-family="sans-serif" font-size="13" lengthAdjust="spacingAndGlyphs" textLength="108" x="142.5" y="172.645">Identifier le client</text><polygon fill="#383838" points="318.5,201.8438,328.5,205.8438,318.5,209.8438,322.5,205.8438" style="stroke: #383838; stroke-width: 1.0;"/><line style="stroke: #383838; stroke-width: 1.0;" x1="66.5" x2="324.5" y1="205.8438" y2="205.8438"/><text fill="#000000" font-family="sans-serif" font-size="13" lengthAdjust="spacingAndGlyphs" textLength="184" x="73.5" y="200.9106">Consulter le dossier du client</text><polygon fill="#383838" points="798.5,245.9766,808.5,249.9766,798.5,253.9766,802.5,249.9766" style="stroke: #383838; stroke-width: 1.0;"/><line style="stroke: #383838; stroke-width: 1.0;" x1="330.5" x2="804.5" y1="249.9766" y2="249.9766"/><text fill="#000000" font-family="sans-serif" font-size="13" lengthAdjust="spacingAndGlyphs" textLength="202" x="337.5" y="230.0435">ConsulterDossierClient(idClient)</text><text fill="#000000" font-family="sans-serif" font-size="13" lengthAdjust="spacingAndGlyphs" textLength="264" x="337.5" y="245.1763">: numero, denomination, adresse postale</text><rect fill="none" height="822.5156" style="stroke: #000000; stroke-width: 1.0;" width="849.5" x="13" y="265.2422"/><polygon fill="#EEEEEE" points="13,265.2422,83,265.2422,83,272.2422,73,282.2422,13,282.2422,13,265.2422" style="stroke: #000000; stroke-width: 1.0;"/><text fill="#000000" font-family="sans-serif" font-size="13" font-weight="bold" lengthAdjust="spacingAndGlyphs" textLength="25" x="28" y="278.3091">opt</text><text fill="#000000" font-family="sans-serif" font-size="11" font-weight="bold" lengthAdjust="spacingAndGlyphs" textLength="43" x="98" y="277.4526">[Bilan]</text><polygon fill="#383838" points="318.5,329.375,328.5,333.375,318.5,337.375,322.5,333.375" style="stroke: #383838; stroke-width: 1.0;"/><line style="stroke: #383838; stroke-width: 1.0;" x1="66.5" x2="324.5" y1="333.375" y2="333.375"/><text fill="#000000" font-family="sans-serif" font-size="13" lengthAdjust="spacingAndGlyphs" textLength="133" x="73.5" y="298.4419">Consulter bilan client</text><text fill="#000000" font-family="sans-serif" font-size="13" lengthAdjust="spacingAndGlyphs" textLength="101" x="73.5" y="313.5747">(Cotation, bilan,</text><text fill="#000000" font-family="sans-serif" font-size="13" lengthAdjust="spacingAndGlyphs" textLength="122" x="73.5" y="328.7075">liste de personnes)</text><polygon fill="#383838" points="798.5,373.7734,808.5,377.7734,798.5,381.7734,802.5,377.7734" style="stroke: #383838; stroke-width: 1.0;"/><line style="stroke: #383838; stroke-width: 1.0;" x1="330.5" x2="804.5" y1="377.7734" y2="377.7734"/><text fill="#000000" font-family="sans-serif" font-size="13" lengthAdjust="spacingAndGlyphs" textLength="185" x="337.5" y="357.8403">ConsulterBilanClient(idClient)</text><text fill="#000000" font-family="sans-serif" font-size="13" lengthAdjust="spacingAndGlyphs" textLength="208" x="337.5" y="372.9731">: cotationsClient, liste Personnes</text><rect fill="none" height="568.0547" style="stroke: #000000; stroke-width: 1.0;" width="829.5" x="23" y="393.0391"/><polygon fill="#EEEEEE" points="23,393.0391,93,393.0391,93,400.0391,83,410.0391,23,410.0391,23,393.0391" style="stroke: #000000; stroke-width: 1.0;"/><text fill="#000000" font-family="sans-serif" font-size="13" font-weight="bold" lengthAdjust="spacingAndGlyphs" textLength="25" x="38" y="406.106">opt</text><polygon fill="#383838" points="318.5,427.1719,328.5,431.1719,318.5,435.1719,322.5,431.1719" style="stroke: #383838; stroke-width: 1.0;"/><line style="stroke: #383838; stroke-width: 1.0;" x1="66.5" x2="324.5" y1="431.1719" y2="431.1719"/><text fill="#000000" font-family="sans-serif" font-size="13" lengthAdjust="spacingAndGlyphs" textLength="172" x="73.5" y="426.2388">Sélectionner une personne</text><polygon fill="#383838" points="318.5,471.3047,328.5,475.3047,318.5,479.3047,322.5,475.3047" style="stroke: #383838; stroke-width: 1.0;"/><line style="stroke: #383838; stroke-width: 1.0;" x1="66.5" x2="324.5" y1="475.3047" y2="475.3047"/><text fill="#000000" font-family="sans-serif" font-size="13" lengthAdjust="spacingAndGlyphs" textLength="107" x="73.5" y="455.3716">Consulter details</text><text fill="#000000" font-family="sans-serif" font-size="13" lengthAdjust="spacingAndGlyphs" textLength="99" x="73.5" y="470.5044">d'une personne</text><polygon fill="#383838" points="798.5,515.5703,808.5,519.5703,798.5,523.5703,802.5,519.5703" style="stroke: #383838; stroke-width: 1.0;"/><line style="stroke: #383838; stroke-width: 1.0;" x1="330.5" x2="804.5" y1="519.5703" y2="519.5703"/><text fill="#000000" font-family="sans-serif" font-size="13" lengthAdjust="spacingAndGlyphs" textLength="239" x="337.5" y="499.6372">ConsulterDetailPersonne(idPersonne)</text><text fill="#000000" font-family="sans-serif" font-size="13" lengthAdjust="spacingAndGlyphs" textLength="224" x="337.5" y="514.77">: données signalétiques...logement</text><polygon fill="#383838" points="318.5,544.8359,328.5,548.8359,318.5,552.8359,322.5,548.8359" style="stroke: #383838; stroke-width: 1.0;"/><line style="stroke: #383838; stroke-width: 1.0;" x1="66.5" x2="324.5" y1="548.8359" y2="548.8359"/><text fill="#000000" font-family="sans-serif" font-size="13" lengthAdjust="spacingAndGlyphs" textLength="133" x="73.5" y="543.9028">Mise à jour personne</text><polygon fill="#383838" points="798.5,588.9688,808.5,592.9688,798.5,596.9688,802.5,592.9688" style="stroke: #383838; stroke-width: 1.0;"/><line style="stroke: #383838; stroke-width: 1.0;" x1="330.5" x2="804.5" y1="592.9688" y2="592.9688"/><text fill="#000000" font-family="sans-serif" font-size="13" lengthAdjust="spacingAndGlyphs" textLength="200" x="337.5" y="573.0356">MettreAJourPersonne(idPers,...)</text><text fill="#000000" font-family="sans-serif" font-size="13" lengthAdjust="spacingAndGlyphs" textLength="34" x="337.5" y="588.1685">: void</text><line style="stroke: #000000; stroke-width: 1.0; stroke-dasharray: 2.0,2.0;" x1="23" x2="852.5" y1="602.2344" y2="602.2344"/><polygon fill="#383838" points="318.5,620.2344,328.5,624.2344,318.5,628.2344,322.5,624.2344" style="stroke: #383838; stroke-width: 1.0;"/><line style="stroke: #383838; stroke-width: 1.0;" x1="66.5" x2="324.5" y1="624.2344" y2="624.2344"/><text fill="#000000" font-family="sans-serif" font-size="13" lengthAdjust="spacingAndGlyphs" textLength="240" x="73.5" y="619.3013">Saisir les informations de la personne</text><polygon fill="#383838" points="318.5,649.3672,328.5,653.3672,318.5,657.3672,322.5,653.3672" style="stroke: #383838; stroke-width: 1.0;"/><line style="stroke: #383838; stroke-width: 1.0;" x1="66.5" x2="324.5" y1="653.3672" y2="653.3672"/><text fill="#000000" font-family="sans-serif" font-size="13" lengthAdjust="spacingAndGlyphs" textLength="129" x="73.5" y="648.4341">Récupérer personne</text><polygon fill="#383838" points="798.5,693.5,808.5,697.5,798.5,701.5,802.5,697.5" style="stroke: #383838; stroke-width: 1.0;"/><line style="stroke: #383838; stroke-width: 1.0;" x1="330.5" x2="804.5" y1="697.5" y2="697.5"/><text fill="#000000" font-family="sans-serif" font-size="13" lengthAdjust="spacingAndGlyphs" textLength="277" x="337.5" y="677.5669">RecupererPersonne(nom, prenom, agence)</text><text fill="#000000" font-family="sans-serif" font-size="13" lengthAdjust="spacingAndGlyphs" textLength="68" x="337.5" y="692.6997">: personne</text><rect fill="none" height="165.9297" style="stroke: #000000; stroke-width: 1.0;" width="809.5" x="33" y="712.7656"/><polygon fill="#EEEEEE" points="33,712.7656,103,712.7656,103,719.7656,93,729.7656,33,729.7656,33,712.7656" style="stroke: #000000; stroke-width: 1.0;"/><text fill="#000000" font-family="sans-serif" font-size="13" font-weight="bold" lengthAdjust="spacingAndGlyphs" textLength="25" x="48" y="725.8325">opt</text><polygon fill="#383838" points="318.5,746.8984,328.5,750.8984,318.5,754.8984,322.5,750.8984" style="stroke: #383838; stroke-width: 1.0;"/><line style="stroke: #383838; stroke-width: 1.0;" x1="66.5" x2="324.5" y1="750.8984" y2="750.8984"/><text fill="#000000" font-family="sans-serif" font-size="13" lengthAdjust="spacingAndGlyphs" textLength="138" x="73.5" y="745.9653">Ajouter une personne</text><polygon fill="#383838" points="798.5,791.0313,808.5,795.0313,798.5,799.0313,802.5,795.0313" style="stroke: #383838; stroke-width: 1.0;"/><line style="stroke: #383838; stroke-width: 1.0;" x1="330.5" x2="804.5" y1="795.0313" y2="795.0313"/><text fill="#000000" font-family="sans-serif" font-size="13" lengthAdjust="spacingAndGlyphs" textLength="242" x="337.5" y="775.0981">AjouterPersonne(idClient, idPersonne)</text><text fill="#000000" font-family="sans-serif" font-size="13" lengthAdjust="spacingAndGlyphs" textLength="34" x="337.5" y="790.231">: void</text><line style="stroke: #000000; stroke-width: 1.0; stroke-dasharray: 2.0,2.0;" x1="33" x2="842.5" y1="804.2969" y2="804.2969"/><polygon fill="#383838" points="318.5,822.2969,328.5,826.2969,318.5,830.2969,322.5,826.2969" style="stroke: #383838; stroke-width: 1.0;"/><line style="stroke: #383838; stroke-width: 1.0;" x1="66.5" x2="324.5" y1="826.2969" y2="826.2969"/><text fill="#000000" font-family="sans-serif" font-size="13" lengthAdjust="spacingAndGlyphs" textLength="156" x="73.5" y="821.3638">Créer nouvelle personne</text><polygon fill="#383838" points="798.5,866.4297,808.5,870.4297,798.5,874.4297,802.5,870.4297" style="stroke: #383838; stroke-width: 1.0;"/><line style="stroke: #383838; stroke-width: 1.0;" x1="330.5" x2="804.5" y1="870.4297" y2="870.4297"/><text fill="#000000" font-family="sans-serif" font-size="13" lengthAdjust="spacingAndGlyphs" textLength="304" x="337.5" y="850.4966">CreerEtAjouterNouvellePersonne(infos, idClient)</text><text fill="#000000" font-family="sans-serif" font-size="13" lengthAdjust="spacingAndGlyphs" textLength="68" x="337.5" y="865.6294">: personne</text><line style="stroke: #000000; stroke-width: 1.0; stroke-dasharray: 2.0,2.0;" x1="23" x2="852.5" y1="886.6953" y2="886.6953"/><polygon fill="#383838" points="318.5,904.6953,328.5,908.6953,318.5,912.6953,322.5,908.6953" style="stroke: #383838; stroke-width: 1.0;"/><line style="stroke: #383838; stroke-width: 1.0;" x1="66.5" x2="324.5" y1="908.6953" y2="908.6953"/><text fill="#000000" font-family="sans-serif" font-size="13" lengthAdjust="spacingAndGlyphs" textLength="159" x="73.5" y="903.7622">Supprimer une personne</text><polygon fill="#383838" points="798.5,948.8281,808.5,952.8281,798.5,956.8281,802.5,952.8281" style="stroke: #383838; stroke-width: 1.0;"/><line style="stroke: #383838; stroke-width: 1.0;" x1="330.5" x2="804.5" y1="952.8281" y2="952.8281"/><text fill="#000000" font-family="sans-serif" font-size="13" lengthAdjust="spacingAndGlyphs" textLength="263" x="337.5" y="932.895">SupprimerPersonne(idClient, idPersonne)</text><text fill="#000000" font-family="sans-serif" font-size="13" lengthAdjust="spacingAndGlyphs" textLength="34" x="337.5" y="948.0278">: void</text><line style="stroke: #000000; stroke-width: 1.0; stroke-dasharray: 2.0,2.0;" x1="13" x2="862.5" y1="969.0938" y2="969.0938"/><polygon fill="#383838" points="318.5,987.0938,328.5,991.0938,318.5,995.0938,322.5,991.0938" style="stroke: #383838; stroke-width: 1.0;"/><line style="stroke: #383838; stroke-width: 1.0;" x1="66.5" x2="324.5" y1="991.0938" y2="991.0938"/><text fill="#000000" font-family="sans-serif" font-size="13" lengthAdjust="spacingAndGlyphs" textLength="233" x="73.5" y="986.1606">Saisir les infos de l'entete du dossier</text><polygon fill="#383838" points="318.5,1016.2266,328.5,1020.2266,318.5,1024.2266,322.5,1020.2266" style="stroke: #383838; stroke-width: 1.0;"/><line style="stroke: #383838; stroke-width: 1.0;" x1="66.5" x2="324.5" y1="1020.2266" y2="1020.2266"/><text fill="#000000" font-family="sans-serif" font-size="13" lengthAdjust="spacingAndGlyphs" textLength="106" x="73.5" y="1015.2935">Maj entête client</text><polygon fill="#383838" points="798.5,1075.3594,808.5,1079.3594,798.5,1083.3594,802.5,1079.3594" style="stroke: #383838; stroke-width: 1.0;"/><line style="stroke: #383838; stroke-width: 1.0;" x1="330.5" x2="804.5" y1="1079.3594" y2="1079.3594"/><text fill="#000000" font-family="sans-serif" font-size="13" lengthAdjust="spacingAndGlyphs" textLength="113" x="337.5" y="1044.4263">MAJEnteteDossier</text><text fill="#000000" font-family="sans-serif" font-size="13" lengthAdjust="spacingAndGlyphs" textLength="317" x="337.5" y="1059.5591">(idClient, numero, denomination, adressePostale)</text><text fill="#000000" font-family="sans-serif" font-size="13" lengthAdjust="spacingAndGlyphs" textLength="34" x="337.5" y="1074.6919">: void</text><rect fill="none" height="538.0547" style="stroke: #000000; stroke-width: 1.0;" width="829.5" x="23" y="1101.7578"/><polygon fill="#EEEEEE" points="23,1101.7578,93,1101.7578,93,1108.7578,83,1118.7578,23,1118.7578,23,1101.7578" style="stroke: #000000; stroke-width: 1.0;"/><text fill="#000000" font-family="sans-serif" font-size="13" font-weight="bold" lengthAdjust="spacingAndGlyphs" textLength="25" x="38" y="1114.8247">opt</text><text fill="#000000" font-family="sans-serif" font-size="11" font-weight="bold" lengthAdjust="spacingAndGlyphs" textLength="63" x="108" y="1113.9683">[Produits]</text><polygon fill="#383838" points="318.5,1165.8906,328.5,1169.8906,318.5,1173.8906,322.5,1169.8906" style="stroke: #383838; stroke-width: 1.0;"/><line style="stroke: #383838; stroke-width: 1.0;" x1="66.5" x2="324.5" y1="1169.8906" y2="1169.8906"/><text fill="#000000" font-family="sans-serif" font-size="13" lengthAdjust="spacingAndGlyphs" textLength="137" x="73.5" y="1134.9575">Consulter produits du</text><text fill="#000000" font-family="sans-serif" font-size="13" lengthAdjust="spacingAndGlyphs" textLength="113" x="73.5" y="1150.0903">client à la banque</text><text fill="#000000" font-family="sans-serif" font-size="13" lengthAdjust="spacingAndGlyphs" textLength="123" x="73.5" y="1165.2231">et à la concurrence</text><polygon fill="#383838" points="798.5,1210.2891,808.5,1214.2891,798.5,1218.2891,802.5,1214.2891" style="stroke: #383838; stroke-width: 1.0;"/><line style="stroke: #383838; stroke-width: 1.0;" x1="330.5" x2="804.5" y1="1214.2891" y2="1214.2891"/><text fill="#000000" font-family="sans-serif" font-size="13" lengthAdjust="spacingAndGlyphs" textLength="156" x="337.5" y="1194.356">ObtenirProduits(idClient)</text><text fill="#000000" font-family="sans-serif" font-size="13" lengthAdjust="spacingAndGlyphs" textLength="164" x="337.5" y="1209.4888">: Liste&lt;Compte, Produit&gt;</text><rect fill="none" height="134.7969" style="stroke: #000000; stroke-width: 1.0;" width="809.5" x="33" y="1229.5547"/><polygon fill="#EEEEEE" points="33,1229.5547,103,1229.5547,103,1236.5547,93,1246.5547,33,1246.5547,33,1229.5547" style="stroke: #000000; stroke-width: 1.0;"/><text fill="#000000" font-family="sans-serif" font-size="13" font-weight="bold" lengthAdjust="spacingAndGlyphs" textLength="25" x="48" y="1242.6216">opt</text><text fill="#000000" font-family="sans-serif" font-size="11" font-weight="bold" lengthAdjust="spacingAndGlyphs" textLength="106" x="118" y="1241.7651">[Details compte]</text><polygon fill="#383838" points="318.5,1263.6875,328.5,1267.6875,318.5,1271.6875,322.5,1267.6875" style="stroke: #383838; stroke-width: 1.0;"/><line style="stroke: #383838; stroke-width: 1.0;" x1="66.5" x2="324.5" y1="1267.6875" y2="1267.6875"/><text fill="#000000" font-family="sans-serif" font-size="13" lengthAdjust="spacingAndGlyphs" textLength="153" x="73.5" y="1262.7544">Sélectionner un compte</text><polygon fill="#383838" points="318.5,1307.8203,328.5,1311.8203,318.5,1315.8203,322.5,1311.8203" style="stroke: #383838; stroke-width: 1.0;"/><line style="stroke: #383838; stroke-width: 1.0;" x1="66.5" x2="324.5" y1="1311.8203" y2="1311.8203"/><text fill="#000000" font-family="sans-serif" font-size="13" lengthAdjust="spacingAndGlyphs" textLength="107" x="73.5" y="1291.8872">Consulter détails</text><text fill="#000000" font-family="sans-serif" font-size="13" lengthAdjust="spacingAndGlyphs" textLength="80" x="73.5" y="1307.02">d'un compte</text><polygon fill="#383838" points="798.5,1352.0859,808.5,1356.0859,798.5,1360.0859,802.5,1356.0859" style="stroke: #383838; stroke-width: 1.0;"/><line style="stroke: #383838; stroke-width: 1.0;" x1="330.5" x2="804.5" y1="1356.0859" y2="1356.0859"/><text fill="#000000" font-family="sans-serif" font-size="13" lengthAdjust="spacingAndGlyphs" textLength="207" x="337.5" y="1336.1528">ObtenirDetailCompte(idCompte)</text><text fill="#000000" font-family="sans-serif" font-size="13" lengthAdjust="spacingAndGlyphs" textLength="121" x="337.5" y="1351.2856">: details, historique</text><rect fill="none" height="105.6641" style="stroke: #000000; stroke-width: 1.0;" width="809.5" x="33" y="1378.3516"/><polygon fill="#EEEEEE" points="33,1378.3516,103,1378.3516,103,1385.3516,93,1395.3516,33,1395.3516,33,1378.3516" style="stroke: #000000; stroke-width: 1.0;"/><text fill="#000000" font-family="sans-serif" font-size="13" font-weight="bold" lengthAdjust="spacingAndGlyphs" textLength="25" x="48" y="1391.4185">opt</text><text fill="#000000" font-family="sans-serif" font-size="11" font-weight="bold" lengthAdjust="spacingAndGlyphs" textLength="241" x="118" y="1390.562">[Détail Produit / Sélectionner Produit]</text><polygon fill="#383838" points="318.5,1427.4844,328.5,1431.4844,318.5,1435.4844,322.5,1431.4844" style="stroke: #383838; stroke-width: 1.0;"/><line style="stroke: #383838; stroke-width: 1.0;" x1="66.5" x2="324.5" y1="1431.4844" y2="1431.4844"/><text fill="#000000" font-family="sans-serif" font-size="13" lengthAdjust="spacingAndGlyphs" textLength="100" x="73.5" y="1411.5513">Consulter détail</text><text fill="#000000" font-family="sans-serif" font-size="13" lengthAdjust="spacingAndGlyphs" textLength="76" x="77.5" y="1426.6841">d'un produit</text><polygon fill="#383838" points="798.5,1471.75,808.5,1475.75,798.5,1479.75,802.5,1475.75" style="stroke: #383838; stroke-width: 1.0;"/><line style="stroke: #383838; stroke-width: 1.0;" x1="330.5" x2="804.5" y1="1475.75" y2="1475.75"/><text fill="#000000" font-family="sans-serif" font-size="13" lengthAdjust="spacingAndGlyphs" textLength="195" x="337.5" y="1455.8169">ObtenirDetailProduit(idProduit)</text><text fill="#000000" font-family="sans-serif" font-size="13" lengthAdjust="spacingAndGlyphs" textLength="50" x="337.5" y="1470.9497">: details</text><rect fill="none" height="134.7969" style="stroke: #000000; stroke-width: 1.0;" width="809.5" x="33" y="1498.0156"/><polygon fill="#EEEEEE" points="33,1498.0156,103,1498.0156,103,1505.0156,93,1515.0156,33,1515.0156,33,1498.0156" style="stroke: #000000; stroke-width: 1.0;"/><text fill="#000000" font-family="sans-serif" font-size="13" font-weight="bold" lengthAdjust="spacingAndGlyphs" textLength="25" x="48" y="1511.0825">opt</text><text fill="#000000" font-family="sans-serif" font-size="11" font-weight="bold" lengthAdjust="spacingAndGlyphs" textLength="132" x="118" y="1510.2261">[Mise à jour compte]</text><polygon fill="#383838" points="318.5,1532.1484,328.5,1536.1484,318.5,1540.1484,322.5,1536.1484" style="stroke: #383838; stroke-width: 1.0;"/><line style="stroke: #383838; stroke-width: 1.0;" x1="66.5" x2="324.5" y1="1536.1484" y2="1536.1484"/><text fill="#000000" font-family="sans-serif" font-size="13" lengthAdjust="spacingAndGlyphs" textLength="235" x="73.5" y="1531.2153">Saisir les infos concernant le compte</text><polygon fill="#383838" points="318.5,1576.2813,328.5,1580.2813,318.5,1584.2813,322.5,1580.2813" style="stroke: #383838; stroke-width: 1.0;"/><line style="stroke: #383838; stroke-width: 1.0;" x1="66.5" x2="324.5" y1="1580.2813" y2="1580.2813"/><text fill="#000000" font-family="sans-serif" font-size="13" lengthAdjust="spacingAndGlyphs" textLength="124" x="73.5" y="1560.3481">Maj compte/produit</text><text fill="#000000" font-family="sans-serif" font-size="13" lengthAdjust="spacingAndGlyphs" textLength="106" x="73.5" y="1575.481">à la concurrence</text><polygon fill="#383838" points="798.5,1620.5469,808.5,1624.5469,798.5,1628.5469,802.5,1624.5469" style="stroke: #383838; stroke-width: 1.0;"/><line style="stroke: #383838; stroke-width: 1.0;" x1="330.5" x2="804.5" y1="1624.5469" y2="1624.5469"/><text fill="#000000" font-family="sans-serif" font-size="13" lengthAdjust="spacingAndGlyphs" textLength="383" x="337.5" y="1604.6138">MAJComptesConcurrence(idClient, txtComptesConcurrence)</text><text fill="#000000" font-family="sans-serif" font-size="13" lengthAdjust="spacingAndGlyphs" textLength="34" x="337.5" y="1619.7466">: void</text><rect fill="none" height="105.6641" style="stroke: #000000; stroke-width: 1.0;" width="809.5" x="33" y="1653.8125"/><polygon fill="#EEEEEE" points="33,1653.8125,103,1653.8125,103,1660.8125,93,1670.8125,33,1670.8125,33,1653.8125" style="stroke: #000000; stroke-width: 1.0;"/><text fill="#000000" font-family="sans-serif" font-size="13" font-weight="bold" lengthAdjust="spacingAndGlyphs" textLength="25" x="48" y="1666.8794">opt</text><text fill="#000000" font-family="sans-serif" font-size="11" font-weight="bold" lengthAdjust="spacingAndGlyphs" textLength="162" x="118" y="1666.0229">[Relations banque/client]</text><polygon fill="#383838" points="318.5,1702.9453,328.5,1706.9453,318.5,1710.9453,322.5,1706.9453" style="stroke: #383838; stroke-width: 1.0;"/><line style="stroke: #383838; stroke-width: 1.0;" x1="66.5" x2="324.5" y1="1706.9453" y2="1706.9453"/><text fill="#000000" font-family="sans-serif" font-size="13" lengthAdjust="spacingAndGlyphs" textLength="120" x="73.5" y="1687.0122">Consulter relations</text><text fill="#000000" font-family="sans-serif" font-size="13" lengthAdjust="spacingAndGlyphs" textLength="87" x="77.5" y="1702.145">banque-client</text><polygon fill="#383838" points="798.5,1747.2109,808.5,1751.2109,798.5,1755.2109,802.5,1751.2109" style="stroke: #383838; stroke-width: 1.0;"/><line style="stroke: #383838; stroke-width: 1.0;" x1="330.5" x2="804.5" y1="1751.2109" y2="1751.2109"/><text fill="#000000" font-family="sans-serif" font-size="13" lengthAdjust="spacingAndGlyphs" textLength="261" x="337.5" y="1731.2778">ConsulterRelationsBanqueClient(idClient)</text><text fill="#000000" font-family="sans-serif" font-size="13" lengthAdjust="spacingAndGlyphs" textLength="456" x="337.5" y="1746.4106">: technique de contact, propositions, historique contacts, incidents, etc.</text></g></svg>