<?xml version="1.0" encoding="UTF-8" standalone="yes"?><svg xmlns="http://www.w3.org/2000/svg" xmlns:xlink="http://www.w3.org/1999/xlink" height="1083px" style="width:1034px;height:1083px;" version="1.1" viewBox="0 0 1034 1083" width="1034px"><defs/><g><text fill="#000000" font-family="sans-serif" font-size="20" lengthAdjust="spacingAndGlyphs" textLength="426" x="310.25" y="28.5645">Diagramme de séquence système du CU 7</text><line style="stroke: none; stroke-width: 1.0;" x1="310.25" x2="736.25" y1="38.2813" y2="38.2813"/><rect fill="#FFFFFF" height="770.0703" style="stroke: #000000; stroke-width: 1.0;" width="1020.5" x="13" y="219.9766"/><rect fill="#FFFFFF" height="117.3359" style="stroke: none; stroke-width: 1.0;" width="1020.5" x="13" y="413.0391"/><rect fill="#FFFFFF" height="60.0703" style="stroke: none; stroke-width: 1.0;" width="1020.5" x="13" y="530.375"/><rect fill="#FFFFFF" height="399.6016" style="stroke: none; stroke-width: 1.0;" width="1020.5" x="13" y="590.4453"/><rect fill="#FFFFFF" height="179.7344" style="stroke: #000000; stroke-width: 1.0;" width="1000.5" x="23" y="803.3125"/><rect fill="#FFFFFF" height="60.0703" style="stroke: none; stroke-width: 1.0;" width="1000.5" x="23" y="922.9766"/><line style="stroke: #383838; stroke-width: 1.0; stroke-dasharray: 5.0,5.0;" x1="56" x2="56" y1="129.5781" y2="1007.0469"/><line style="stroke: #383838; stroke-width: 1.0; stroke-dasharray: 5.0,5.0;" x1="465" x2="465" y1="129.5781" y2="1007.0469"/><line style="stroke: #383838; stroke-width: 1.0; stroke-dasharray: 5.0,5.0;" x1="991.5" x2="991.5" y1="129.5781" y2="1007.0469"/><text fill="#000000" font-family="sans-serif" font-size="14" lengthAdjust="spacingAndGlyphs" textLength="41" x="33" y="126.2764">Agent</text><ellipse cx="56.5" cy="60.2813" fill="#F8F8F8" rx="8" ry="8" style="stroke: #383838; stroke-width: 2.0;"/><path d="M56.5,68.2813 L56.5,95.2813 M43.5,76.2813 L69.5,76.2813 M56.5,95.2813 L43.5,110.2813 M56.5,95.2813 L69.5,110.2813 " fill="#F8F8F8" style="stroke: #383838; stroke-width: 2.0;"/><text fill="#000000" font-family="sans-serif" font-size="14" lengthAdjust="spacingAndGlyphs" textLength="41" x="33" y="1019.042">Agent</text><ellipse cx="56.5" cy="1032.3438" fill="#F8F8F8" rx="8" ry="8" style="stroke: #383838; stroke-width: 2.0;"/><path d="M56.5,1040.3438 L56.5,1067.3438 M43.5,1048.3438 L69.5,1048.3438 M56.5,1067.3438 L43.5,1082.3438 M56.5,1067.3438 L69.5,1082.3438 " fill="#F8F8F8" style="stroke: #383838; stroke-width: 2.0;"/><rect fill="#F8F8F8" height="30.2969" style="stroke: #383838; stroke-width: 1.0;" width="39" x="446" y="98.2813"/><text fill="#000000" font-family="sans-serif" font-size="14" lengthAdjust="spacingAndGlyphs" textLength="25" x="453" y="118.2764">IHM</text><rect fill="#F8F8F8" height="30.2969" style="stroke: #383838; stroke-width: 1.0;" width="39" x="446" y="1006.0469"/><text fill="#000000" font-family="sans-serif" font-size="14" lengthAdjust="spacingAndGlyphs" textLength="25" x="453" y="1026.042">IHM</text><rect fill="#F8F8F8" height="30.2969" style="stroke: #383838; stroke-width: 1.0;" width="44" x="969.5" y="98.2813"/><text fill="#000000" font-family="sans-serif" font-size="14" lengthAdjust="spacingAndGlyphs" textLength="30" x="976.5" y="118.2764">SMA</text><rect fill="#F8F8F8" height="30.2969" style="stroke: #383838; stroke-width: 1.0;" width="44" x="969.5" y="1006.0469"/><text fill="#000000" font-family="sans-serif" font-size="14" lengthAdjust="spacingAndGlyphs" textLength="30" x="976.5" y="1026.042">SMA</text><polygon fill="#383838" points="453.5,156.5781,463.5,160.5781,453.5,164.5781,457.5,160.5781" style="stroke: #383838; stroke-width: 1.0;"/><line style="stroke: #383838; stroke-width: 1.0;" x1="56.5" x2="459.5" y1="160.5781" y2="160.5781"/><text fill="#000000" font-family="sans-serif" font-size="13" lengthAdjust="spacingAndGlyphs" textLength="385" x="63.5" y="155.645">Consultation de l'agenda hebdomadaire de l'agent connecté</text><polygon fill="#383838" points="979.5,200.7109,989.5,204.7109,979.5,208.7109,983.5,204.7109" style="stroke: #383838; stroke-width: 1.0;"/><line style="stroke: #383838; stroke-width: 1.0;" x1="465.5" x2="985.5" y1="204.7109" y2="204.7109"/><text fill="#000000" font-family="sans-serif" font-size="13" lengthAdjust="spacingAndGlyphs" textLength="384" x="472.5" y="184.7778">SM19 - ObtenirAgendaAgent(idAgent, numSemaine, annee)</text><text fill="#000000" font-family="sans-serif" font-size="13" lengthAdjust="spacingAndGlyphs" textLength="450" x="472.5" y="199.9106">: Agent, Liste&lt;PlageAgenda, TypeActivite, Liste&lt;TacheElementaire&gt;&gt;</text><rect fill="none" height="770.0703" style="stroke: #000000; stroke-width: 1.0;" width="1020.5" x="13" y="219.9766"/><polygon fill="#EEEEEE" points="13,219.9766,77,219.9766,77,226.9766,67,236.9766,13,236.9766,13,219.9766" style="stroke: #000000; stroke-width: 1.0;"/><text fill="#000000" font-family="sans-serif" font-size="13" font-weight="bold" lengthAdjust="spacingAndGlyphs" textLength="19" x="28" y="233.0435">alt</text><text fill="#000000" font-family="sans-serif" font-size="11" font-weight="bold" lengthAdjust="spacingAndGlyphs" textLength="103" x="92" y="232.187">[changer agent]</text><polygon fill="#383838" points="453.5,254.1094,463.5,258.1094,453.5,262.1094,457.5,258.1094" style="stroke: #383838; stroke-width: 1.0;"/><line style="stroke: #383838; stroke-width: 1.0;" x1="56.5" x2="459.5" y1="258.1094" y2="258.1094"/><text fill="#000000" font-family="sans-serif" font-size="13" lengthAdjust="spacingAndGlyphs" textLength="258" x="63.5" y="253.1763">Consulter la liste des agents de l'agence</text><polygon fill="#383838" points="979.5,298.2422,989.5,302.2422,979.5,306.2422,983.5,302.2422" style="stroke: #383838; stroke-width: 1.0;"/><line style="stroke: #383838; stroke-width: 1.0;" x1="465.5" x2="985.5" y1="302.2422" y2="302.2422"/><text fill="#000000" font-family="sans-serif" font-size="13" lengthAdjust="spacingAndGlyphs" textLength="202" x="472.5" y="282.3091">SM4 - ObtenirAgents(idAgence)</text><text fill="#000000" font-family="sans-serif" font-size="13" lengthAdjust="spacingAndGlyphs" textLength="143" x="472.5" y="297.4419">: Liste&lt;Agent&gt; (CU 2)</text><polygon fill="#383838" points="453.5,327.5078,463.5,331.5078,453.5,335.5078,457.5,331.5078" style="stroke: #383838; stroke-width: 1.0;"/><line style="stroke: #383838; stroke-width: 1.0;" x1="56.5" x2="459.5" y1="331.5078" y2="331.5078"/><text fill="#000000" font-family="sans-serif" font-size="13" lengthAdjust="spacingAndGlyphs" textLength="141" x="63.5" y="326.5747">Sélectionner un agent</text><polygon fill="#383838" points="453.5,356.6406,463.5,360.6406,453.5,364.6406,457.5,360.6406" style="stroke: #383838; stroke-width: 1.0;"/><line style="stroke: #383838; stroke-width: 1.0;" x1="56.5" x2="459.5" y1="360.6406" y2="360.6406"/><text fill="#000000" font-family="sans-serif" font-size="13" lengthAdjust="spacingAndGlyphs" textLength="106" x="63.5" y="355.7075">Changer d'agent</text><polygon fill="#383838" points="979.5,400.7734,989.5,404.7734,979.5,408.7734,983.5,404.7734" style="stroke: #383838; stroke-width: 1.0;"/><line style="stroke: #383838; stroke-width: 1.0;" x1="465.5" x2="985.5" y1="404.7734" y2="404.7734"/><text fill="#000000" font-family="sans-serif" font-size="13" lengthAdjust="spacingAndGlyphs" textLength="384" x="472.5" y="384.8403">SM19 - ObtenirAgendaAgent(idAgent, numSemaine, annee)</text><text fill="#000000" font-family="sans-serif" font-size="13" lengthAdjust="spacingAndGlyphs" textLength="450" x="472.5" y="399.9731">: Agent, Liste&lt;PlageAgenda, TypeActivite, Liste&lt;TacheElementaire&gt;&gt;</text><line style="stroke: #000000; stroke-width: 1.0; stroke-dasharray: 2.0,2.0;" x1="13" x2="1033.5" y1="414.0391" y2="414.0391"/><text fill="#000000" font-family="sans-serif" font-size="11" font-weight="bold" lengthAdjust="spacingAndGlyphs" textLength="120" x="18" y="424.2495">[changer semaine]</text><polygon fill="#383838" points="453.5,444.8438,463.5,448.8438,453.5,452.8438,457.5,448.8438" style="stroke: #383838; stroke-width: 1.0;"/><line style="stroke: #383838; stroke-width: 1.0;" x1="56.5" x2="459.5" y1="448.8438" y2="448.8438"/><text fill="#000000" font-family="sans-serif" font-size="13" lengthAdjust="spacingAndGlyphs" textLength="167" x="63.5" y="443.9106">Sélectionner une semaine</text><polygon fill="#383838" points="453.5,473.9766,463.5,477.9766,453.5,481.9766,457.5,477.9766" style="stroke: #383838; stroke-width: 1.0;"/><line style="stroke: #383838; stroke-width: 1.0;" x1="56.5" x2="459.5" y1="477.9766" y2="477.9766"/><text fill="#000000" font-family="sans-serif" font-size="13" lengthAdjust="spacingAndGlyphs" textLength="133" x="63.5" y="473.0435">Changer de semaine</text><polygon fill="#383838" points="979.5,518.1094,989.5,522.1094,979.5,526.1094,983.5,522.1094" style="stroke: #383838; stroke-width: 1.0;"/><line style="stroke: #383838; stroke-width: 1.0;" x1="465.5" x2="985.5" y1="522.1094" y2="522.1094"/><text fill="#000000" font-family="sans-serif" font-size="13" lengthAdjust="spacingAndGlyphs" textLength="384" x="472.5" y="502.1763">SM19 - ObtenirAgendaAgent(idAgent, numSemaine, annee)</text><text fill="#000000" font-family="sans-serif" font-size="13" lengthAdjust="spacingAndGlyphs" textLength="450" x="472.5" y="517.3091">: Agent, Liste&lt;PlageAgenda, TypeActivite, Liste&lt;TacheElementaire&gt;&gt;</text><line style="stroke: #000000; stroke-width: 1.0; stroke-dasharray: 2.0,2.0;" x1="13" x2="1033.5" y1="531.375" y2="531.375"/><text fill="#000000" font-family="sans-serif" font-size="11" font-weight="bold" lengthAdjust="spacingAndGlyphs" textLength="185" x="18" y="541.5854">[actions sur plages horaires]</text><rect fill="#FFFFFF" height="40.2656" style="stroke: #000000; stroke-width: 1.0;" width="458" x="30" y="545.1797"/><polygon fill="#EEEEEE" points="30,545.1797,96,545.1797,96,552.1797,86,562.1797,30,562.1797,30,545.1797" style="stroke: #000000; stroke-width: 1.0;"/><text fill="#000000" font-family="sans-serif" font-size="13" font-weight="bold" lengthAdjust="spacingAndGlyphs" textLength="21" x="43" y="559.2466">ref</text><text fill="#000000" font-family="sans-serif" font-size="13" lengthAdjust="spacingAndGlyphs" textLength="131" x="193.5" y="578.2466">Actions Agenda CU7</text><line style="stroke: #000000; stroke-width: 1.0; stroke-dasharray: 2.0,2.0;" x1="13" x2="1033.5" y1="591.4453" y2="591.4453"/><text fill="#000000" font-family="sans-serif" font-size="11" font-weight="bold" lengthAdjust="spacingAndGlyphs" textLength="136" x="18" y="601.6558">[agenda de l'agence]</text><polygon fill="#383838" points="453.5,622.25,463.5,626.25,453.5,630.25,457.5,626.25" style="stroke: #383838; stroke-width: 1.0;"/><line style="stroke: #383838; stroke-width: 1.0;" x1="56.5" x2="459.5" y1="626.25" y2="626.25"/><text fill="#000000" font-family="sans-serif" font-size="13" lengthAdjust="spacingAndGlyphs" textLength="258" x="63.5" y="621.3169">Consulter la liste des agents de l'agence</text><polygon fill="#383838" points="979.5,666.3828,989.5,670.3828,979.5,674.3828,983.5,670.3828" style="stroke: #383838; stroke-width: 1.0;"/><line style="stroke: #383838; stroke-width: 1.0;" x1="465.5" x2="985.5" y1="670.3828" y2="670.3828"/><text fill="#000000" font-family="sans-serif" font-size="13" lengthAdjust="spacingAndGlyphs" textLength="202" x="472.5" y="650.4497">SM4 - ObtenirAgents(idAgence)</text><text fill="#000000" font-family="sans-serif" font-size="13" lengthAdjust="spacingAndGlyphs" textLength="143" x="472.5" y="665.5825">: Liste&lt;Agent&gt; (CU 2)</text><polygon fill="#383838" points="453.5,695.6484,463.5,699.6484,453.5,703.6484,457.5,699.6484" style="stroke: #383838; stroke-width: 1.0;"/><line style="stroke: #383838; stroke-width: 1.0;" x1="56.5" x2="459.5" y1="699.6484" y2="699.6484"/><text fill="#000000" font-family="sans-serif" font-size="13" lengthAdjust="spacingAndGlyphs" textLength="306" x="63.5" y="694.7153">Sélectionner les agents à afficher dans l'agenda</text><polygon fill="#383838" points="453.5,739.7813,463.5,743.7813,453.5,747.7813,457.5,743.7813" style="stroke: #383838; stroke-width: 1.0;"/><line style="stroke: #383838; stroke-width: 1.0;" x1="56.5" x2="459.5" y1="743.7813" y2="743.7813"/><text fill="#000000" font-family="sans-serif" font-size="13" lengthAdjust="spacingAndGlyphs" textLength="182" x="63.5" y="723.8481">Consulter l'agenda quotidien</text><text fill="#000000" font-family="sans-serif" font-size="13" lengthAdjust="spacingAndGlyphs" textLength="73" x="63.5" y="738.981">de l'agence</text><polygon fill="#383838" points="979.5,784.0469,989.5,788.0469,979.5,792.0469,983.5,788.0469" style="stroke: #383838; stroke-width: 1.0;"/><line style="stroke: #383838; stroke-width: 1.0;" x1="465.5" x2="985.5" y1="788.0469" y2="788.0469"/><text fill="#000000" font-family="sans-serif" font-size="13" lengthAdjust="spacingAndGlyphs" textLength="365" x="472.5" y="768.1138">SM20 - ObtenirAgendaAgence(dateJour, Liste&lt;idAgent&gt;)</text><text fill="#000000" font-family="sans-serif" font-size="13" lengthAdjust="spacingAndGlyphs" textLength="502" x="472.5" y="783.2466">: Liste&lt;Agent, Liste&lt;PlageAgenda, TypeActivite, Liste&lt;TacheElementaire&gt;&gt;&gt;</text><rect fill="none" height="179.7344" style="stroke: #000000; stroke-width: 1.0;" width="1000.5" x="23" y="803.3125"/><polygon fill="#EEEEEE" points="23,803.3125,87,803.3125,87,810.3125,77,820.3125,23,820.3125,23,803.3125" style="stroke: #000000; stroke-width: 1.0;"/><text fill="#000000" font-family="sans-serif" font-size="13" font-weight="bold" lengthAdjust="spacingAndGlyphs" textLength="19" x="38" y="816.3794">alt</text><text fill="#000000" font-family="sans-serif" font-size="11" font-weight="bold" lengthAdjust="spacingAndGlyphs" textLength="95" x="102" y="815.5229">[changer date]</text><polygon fill="#383838" points="453.5,837.4453,463.5,841.4453,453.5,845.4453,457.5,841.4453" style="stroke: #383838; stroke-width: 1.0;"/><line style="stroke: #383838; stroke-width: 1.0;" x1="56.5" x2="459.5" y1="841.4453" y2="841.4453"/><text fill="#000000" font-family="sans-serif" font-size="13" lengthAdjust="spacingAndGlyphs" textLength="141" x="63.5" y="836.5122">Sélectionner une date</text><polygon fill="#383838" points="453.5,866.5781,463.5,870.5781,453.5,874.5781,457.5,870.5781" style="stroke: #383838; stroke-width: 1.0;"/><line style="stroke: #383838; stroke-width: 1.0;" x1="56.5" x2="459.5" y1="870.5781" y2="870.5781"/><text fill="#000000" font-family="sans-serif" font-size="13" lengthAdjust="spacingAndGlyphs" textLength="107" x="63.5" y="865.645">Changer de date</text><polygon fill="#383838" points="979.5,910.7109,989.5,914.7109,979.5,918.7109,983.5,914.7109" style="stroke: #383838; stroke-width: 1.0;"/><line style="stroke: #383838; stroke-width: 1.0;" x1="465.5" x2="985.5" y1="914.7109" y2="914.7109"/><text fill="#000000" font-family="sans-serif" font-size="13" lengthAdjust="spacingAndGlyphs" textLength="365" x="472.5" y="894.7778">SM20 - ObtenirAgendaAgence(dateJour, Liste&lt;idAgent&gt;)</text><text fill="#000000" font-family="sans-serif" font-size="13" lengthAdjust="spacingAndGlyphs" textLength="502" x="472.5" y="909.9106">: Liste&lt;Agent, Liste&lt;PlageAgenda, TypeActivite, Liste&lt;TacheElementaire&gt;&gt;&gt;</text><line style="stroke: #000000; stroke-width: 1.0; stroke-dasharray: 2.0,2.0;" x1="23" x2="1023.5" y1="923.9766" y2="923.9766"/><text fill="#000000" font-family="sans-serif" font-size="11" font-weight="bold" lengthAdjust="spacingAndGlyphs" textLength="185" x="28" y="934.187">[actions sur plages horaires]</text><rect fill="#FFFFFF" height="40.2656" style="stroke: #000000; stroke-width: 1.0;" width="458" x="30" y="937.7813"/><polygon fill="#EEEEEE" points="30,937.7813,96,937.7813,96,944.7813,86,954.7813,30,954.7813,30,937.7813" style="stroke: #000000; stroke-width: 1.0;"/><text fill="#000000" font-family="sans-serif" font-size="13" font-weight="bold" lengthAdjust="spacingAndGlyphs" textLength="21" x="43" y="951.8481">ref</text><text fill="#000000" font-family="sans-serif" font-size="13" lengthAdjust="spacingAndGlyphs" textLength="131" x="193.5" y="970.8481">Actions Agenda CU7</text></g></svg>