<?xml version="1.0" encoding="UTF-8" standalone="yes"?><svg xmlns="http://www.w3.org/2000/svg" xmlns:xlink="http://www.w3.org/1999/xlink" height="1321px" style="width:1547px;height:1321px;" version="1.1" viewBox="0 0 1547 1321" width="1547px"><defs/><g><rect fill="#F8F8F8" height="1158" rx="12.5" ry="12.5" style="stroke: #383838; stroke-width: 1.5;" width="1516" x="30" y="162"/><rect fill="#FFFFFF" height="1125.7031" rx="12.5" ry="12.5" style="stroke: #FFFFFF; stroke-width: 1.0;" width="1510" x="33" y="191.2969"/><line style="stroke: #383838; stroke-width: 1.5;" x1="30" x2="1546" y1="188.2969" y2="188.2969"/><text fill="#000000" font-family="sans-serif" font-size="14" lengthAdjust="spacingAndGlyphs" textLength="75" x="750.5" y="178.9951">Application</text><rect fill="#F8F8F8" height="400.2969" rx="12.5" ry="12.5" style="stroke: #383838; stroke-width: 1.5;" width="612" x="73" y="320.5"/><rect fill="#FFFFFF" height="368" rx="12.5" ry="12.5" style="stroke: #FFFFFF; stroke-width: 1.0;" width="606" x="76" y="349.7969"/><line style="stroke: #383838; stroke-width: 1.5;" x1="73" x2="685" y1="346.7969" y2="346.7969"/><text fill="#000000" font-family="sans-serif" font-size="14" lengthAdjust="spacingAndGlyphs" textLength="89" x="334.5" y="338.4951">Onglet Client</text><rect fill="#F8F8F8" height="50" rx="12.5" ry="12.5" style="stroke: #383838; stroke-width: 1.5;" width="136" x="304" y="359.7969"/><line style="stroke: #383838; stroke-width: 1.5;" x1="304" x2="440" y1="386.0938" y2="386.0938"/><text fill="#000000" font-family="sans-serif" font-size="14" lengthAdjust="spacingAndGlyphs" textLength="112" x="314" y="377.792">Dossier Editable</text><rect fill="#F8F8F8" height="50" rx="12.5" ry="12.5" style="stroke: #383838; stroke-width: 1.5;" width="164" x="122" y="359.7969"/><line style="stroke: #383838; stroke-width: 1.5;" x1="122" x2="286" y1="386.0938" y2="386.0938"/><text fill="#000000" font-family="sans-serif" font-size="14" lengthAdjust="spacingAndGlyphs" textLength="144" x="132" y="377.792">Dossier Non Editable</text><ellipse cx="94" cy="384.7969" fill="#000000" rx="10" ry="10" style="stroke: none; stroke-width: 1.0;"/><path d="M104.3125,384.7969 C108.4195,384.7969 112.5265,384.7969 116.6335,384.7969 " fill="none" style="stroke: #383838; stroke-width: 1.0;"/><polygon fill="#383838" points="121.8357,384.7969,112.8357,380.7969,116.8357,384.7969,112.8357,388.7969,121.8357,384.7969" style="stroke: #383838; stroke-width: 1.0;"/><path d="M291.037,403.5224 C295.301,403.4535 299.565,403.2398 303.829,402.881 " fill="none" style="stroke: #383838; stroke-width: 1.0;"/><polygon fill="#383838" points="286.031,403.5366,295.0424,407.5108,291.031,403.5223,295.0195,399.5109,286.031,403.5366" style="stroke: #383838; stroke-width: 1.0;"/><path d="M286.031,366.0572 C290.295,366.0126 294.56,366.1129 298.824,366.3582 " fill="none" style="stroke: #383838; stroke-width: 1.0;"/><polygon fill="#383838" points="303.829,366.7127,295.1351,362.085,298.8416,366.3584,294.5682,370.0649,303.829,366.7127" style="stroke: #383838; stroke-width: 1.0;"/><line style="stroke: #383838; stroke-width: 1.5; stroke-dasharray: 8.0,10.0;" x1="78" x2="678" y1="419.7969" y2="419.7969"/><rect fill="#F8F8F8" height="50" rx="12.5" ry="12.5" style="stroke: #383838; stroke-width: 1.5;" width="193" x="303.5" y="483.7969"/><line style="stroke: #383838; stroke-width: 1.5;" x1="303.5" x2="496.5" y1="510.0938" y2="510.0938"/><text fill="#000000" font-family="sans-serif" font-size="14" lengthAdjust="spacingAndGlyphs" textLength="173" x="313.5" y="501.792">Resultat recherche client</text><rect fill="#F8F8F8" height="50" rx="12.5" ry="12.5" style="stroke: #383838; stroke-width: 1.5;" width="199" x="300.5" y="569.7969"/><line style="stroke: #383838; stroke-width: 1.5;" x1="300.5" x2="499.5" y1="596.0938" y2="596.0938"/><text fill="#000000" font-family="sans-serif" font-size="14" lengthAdjust="spacingAndGlyphs" textLength="179" x="310.5" y="587.792">Onglet Bilan dossier client</text><rect fill="#F8F8F8" height="50" rx="12.5" ry="12.5" style="stroke: #383838; stroke-width: 1.5;" width="119" x="163.5" y="569.7969"/><line style="stroke: #383838; stroke-width: 1.5;" x1="163.5" x2="282.5" y1="596.0938" y2="596.0938"/><text fill="#000000" font-family="sans-serif" font-size="14" lengthAdjust="spacingAndGlyphs" textLength="99" x="173.5" y="587.792">Onglet Produit</text><rect fill="#F8F8F8" height="50" rx="12.5" ry="12.5" style="stroke: #383838; stroke-width: 1.5;" width="134" x="518" y="569.7969"/><line style="stroke: #383838; stroke-width: 1.5;" x1="518" x2="652" y1="596.0938" y2="596.0938"/><text fill="#000000" font-family="sans-serif" font-size="14" lengthAdjust="spacingAndGlyphs" textLength="114" x="528" y="587.792">Onglet Relations</text><rect fill="#F8F8F8" height="50" rx="12.5" ry="12.5" style="stroke: #383838; stroke-width: 1.5;" width="278" x="84" y="655.7969"/><line style="stroke: #383838; stroke-width: 1.5;" x1="84" x2="362" y1="682.0938" y2="682.0938"/><text fill="#000000" font-family="sans-serif" font-size="14" lengthAdjust="spacingAndGlyphs" textLength="258" x="94" y="673.792">Vue donnant les détails d'un prooduit</text><ellipse cx="400" cy="437.7969" fill="#000000" rx="10" ry="10" style="stroke: none; stroke-width: 1.0;"/><path d="M400,447.8179 C400,455.6739 400,467.5129 400,478.6019 " fill="none" style="stroke: #383838; stroke-width: 1.0;"/><polygon fill="#383838" points="400,483.6279,404,474.6279,400,478.6279,396,474.6279,400,483.6279" style="stroke: #383838; stroke-width: 1.0;"/><path d="M400,534.0929 C400,543.5829 400,554.5499 400,564.4739 " fill="none" style="stroke: #383838; stroke-width: 1.0;"/><polygon fill="#383838" points="400,569.5549,404,560.5549,400,564.5549,396,560.5549,400,569.5549" style="stroke: #383838; stroke-width: 1.0;"/><path d="M287.971,612.2216 C292.048,612.6809 296.125,613.0208 300.203,613.2414 " fill="none" style="stroke: #383838; stroke-width: 1.0;"/><polygon fill="#383838" points="282.807,611.5759,291.2415,616.661,287.7684,612.1959,292.2335,608.7227,282.807,611.5759" style="stroke: #383838; stroke-width: 1.0;"/><path d="M499.727,613.4325 C504.036,613.296 508.346,613.0374 512.655,612.6567 " fill="none" style="stroke: #383838; stroke-width: 1.0;"/><polygon fill="#383838" points="517.714,612.1537,508.3618,609.0657,512.7386,612.6494,509.1549,617.0262,517.714,612.1537" style="stroke: #383838; stroke-width: 1.0;"/><path d="M282.807,578.0179 C286.884,577.4579 290.961,577.0169 295.038,576.6959 " fill="none" style="stroke: #383838; stroke-width: 1.0;"/><polygon fill="#383838" points="300.203,576.3529,290.9567,572.9609,295.2141,576.6858,291.4893,580.9432,300.203,576.3529" style="stroke: #383838; stroke-width: 1.0;"/><path d="M265.359,569.7399 C275.7,564.8089 286.971,560.3689 298,557.7969 C342.365,547.4489 458.464,548.2139 503,557.7969 C513.235,559.9989 523.732,563.5849 533.652,567.6789 " fill="none" style="stroke: #383838; stroke-width: 1.0;"/><polygon fill="#383838" points="538.472,569.7249,531.751,562.5257,533.8697,567.7708,528.6245,569.8894,538.472,569.7249" style="stroke: #383838; stroke-width: 1.0;"/><path d="M549.524,569.6199 C534.141,560.1809 515.449,550.5869 497,545.7969 C455.488,535.0189 345.312,534.2739 304,545.7969 C288.497,550.1209 273.001,558.3079 259.777,566.7689 " fill="none" style="stroke: #383838; stroke-width: 1.0;"/><polygon fill="#383838" points="255.382,569.6429,265.1034,568.0635,259.5663,566.9057,260.724,561.3686,255.382,569.6429" style="stroke: #383838; stroke-width: 1.0;"/><path d="M517.714,577.4399 C513.404,576.9639 509.095,576.6099 504.786,576.3779 " fill="none" style="stroke: #383838; stroke-width: 1.0;"/><polygon fill="#383838" points="499.727,576.1609,508.5473,580.5429,504.7224,576.3751,508.8901,572.5502,499.727,576.1609" style="stroke: #383838; stroke-width: 1.0;"/><path d="M216.814,620.0932 C216.173,629.5833 216.078,640.5496 216.531,650.4738 " fill="none" style="stroke: #383838; stroke-width: 1.0;"/><polygon fill="#383838" points="216.818,655.5552,220.3045,646.3441,216.5363,650.5631,212.3172,646.7949,216.818,655.5552" style="stroke: #383838; stroke-width: 1.0;"/><path d="M229.182,655.5552 C229.826,646.0707 229.922,635.1054 229.472,625.1771 " fill="none" style="stroke: #383838; stroke-width: 1.0;"/><polygon fill="#383838" points="229.186,620.0932,225.6973,629.3034,229.4665,625.0853,233.6847,628.8546,229.186,620.0932" style="stroke: #383838; stroke-width: 1.0;"/><rect fill="#F8F8F8" height="631.2969" rx="12.5" ry="12.5" style="stroke: #383838; stroke-width: 1.5;" width="801" x="720.5" y="205"/><rect fill="#FFFFFF" height="599" rx="12.5" ry="12.5" style="stroke: #FFFFFF; stroke-width: 1.0;" width="795" x="723.5" y="234.2969"/><line style="stroke: #383838; stroke-width: 1.5;" x1="720.5" x2="1521.5" y1="231.2969" y2="231.2969"/><text fill="#000000" font-family="sans-serif" font-size="14" lengthAdjust="spacingAndGlyphs" textLength="103" x="1069.5" y="222.9951">Onglet Agenda</text><rect fill="#F8F8F8" height="50" rx="12.5" ry="12.5" style="stroke: #383838; stroke-width: 1.5;" width="150" x="893.5" y="244.2969"/><line style="stroke: #383838; stroke-width: 1.5;" x1="893.5" x2="1043.5" y1="270.5938" y2="270.5938"/><text fill="#000000" font-family="sans-serif" font-size="14" lengthAdjust="spacingAndGlyphs" textLength="130" x="903.5" y="262.292">Mode Consultation</text><rect fill="#F8F8F8" height="50" rx="12.5" ry="12.5" style="stroke: #383838; stroke-width: 1.5;" width="144" x="731.5" y="244.2969"/><line style="stroke: #383838; stroke-width: 1.5;" x1="731.5" x2="875.5" y1="270.5938" y2="270.5938"/><text fill="#000000" font-family="sans-serif" font-size="14" lengthAdjust="spacingAndGlyphs" textLength="124" x="741.5" y="262.292">Mode Planification</text><ellipse cx="1071.5" cy="269.2969" fill="#000000" rx="10" ry="10" style="stroke: none; stroke-width: 1.0;"/><path d="M1048.889,269.2969 C1052.956,269.2969 1057.023,269.2969 1061.089,269.2969 " fill="none" style="stroke: #383838; stroke-width: 1.0;"/><polygon fill="#383838" points="1043.738,269.2969,1052.738,273.2969,1048.738,269.2969,1052.738,265.2969,1043.738,269.2969" style="stroke: #383838; stroke-width: 1.0;"/><path d="M880.684,287.969 C884.94,288.0937 889.196,288.0686 893.452,287.8939 " fill="none" style="stroke: #383838; stroke-width: 1.0;"/><polygon fill="#383838" points="875.688,287.7539,884.5083,292.1359,880.6834,287.9682,884.8512,284.1433,875.688,287.7539" style="stroke: #383838; stroke-width: 1.0;"/><path d="M875.688,250.8399 C879.851,250.6033 884.015,250.51 888.178,250.56 " fill="none" style="stroke: #383838; stroke-width: 1.0;"/><polygon fill="#383838" points="893.452,250.6999,884.5615,246.4621,888.4538,250.567,884.3489,254.4593,893.452,250.6999" style="stroke: #383838; stroke-width: 1.0;"/><line style="stroke: #383838; stroke-width: 1.5; stroke-dasharray: 8.0,10.0;" x1="725.5" x2="1514.5" y1="304.2969" y2="304.2969"/><ellipse cx="958.5" cy="409.2969" fill="#000000" rx="10" ry="10" style="stroke: none; stroke-width: 1.0;"/><rect fill="#F8F8F8" height="50" rx="12.5" ry="12.5" style="stroke: #383838; stroke-width: 1.5;" width="92" x="912.5" y="456.2969"/><line style="stroke: #383838; stroke-width: 1.5;" x1="912.5" x2="1004.5" y1="482.5938" y2="482.5938"/><text fill="#000000" font-family="sans-serif" font-size="14" lengthAdjust="spacingAndGlyphs" textLength="72" x="922.5" y="474.292">Vue Agent</text><rect fill="#F8F8F8" height="50" rx="12.5" ry="12.5" style="stroke: #383838; stroke-width: 1.5;" width="104" x="1076.5" y="456.2969"/><line style="stroke: #383838; stroke-width: 1.5;" x1="1076.5" x2="1180.5" y1="482.5938" y2="482.5938"/><text fill="#000000" font-family="sans-serif" font-size="14" lengthAdjust="spacingAndGlyphs" textLength="84" x="1086.5" y="474.292">Vue Agence</text><rect fill="#F8F8F8" height="50" rx="12.5" ry="12.5" style="stroke: #383838; stroke-width: 1.5;" width="262" x="731.5" y="597.2969"/><line style="stroke: #383838; stroke-width: 1.5;" x1="731.5" x2="993.5" y1="623.5938" y2="623.5938"/><text fill="#000000" font-family="sans-serif" font-size="14" lengthAdjust="spacingAndGlyphs" textLength="242" x="741.5" y="615.292">Popup de consultation d'une tache</text><rect fill="#F8F8F8" height="50" rx="12.5" ry="12.5" style="stroke: #383838; stroke-width: 1.5;" width="179" x="1046" y="597.2969"/><line style="stroke: #383838; stroke-width: 1.5;" x1="1046" x2="1225" y1="623.5938" y2="623.5938"/><text fill="#000000" font-family="sans-serif" font-size="14" lengthAdjust="spacingAndGlyphs" textLength="159" x="1056" y="615.292">Popup d'ajout d'activite</text><rect fill="#F8F8F8" height="50" rx="12.5" ry="12.5" style="stroke: #383838; stroke-width: 1.5;" width="288" x="906.5" y="684.2969"/><line style="stroke: #383838; stroke-width: 1.5;" x1="906.5" x2="1194.5" y1="710.5938" y2="710.5938"/><text fill="#000000" font-family="sans-serif" font-size="14" lengthAdjust="spacingAndGlyphs" textLength="268" x="916.5" y="702.292">Popup d'ajout d'un contact commercial</text><rect fill="#F8F8F8" height="50" rx="12.5" ry="12.5" style="stroke: #383838; stroke-width: 1.5;" width="275" x="1213" y="684.2969"/><line style="stroke: #383838; stroke-width: 1.5;" x1="1213" x2="1488" y1="710.5938" y2="710.5938"/><text fill="#000000" font-family="sans-serif" font-size="14" lengthAdjust="spacingAndGlyphs" textLength="255" x="1223" y="702.292">Popup d'ajout d'un contact spontane</text><rect fill="#F8F8F8" height="50" rx="12.5" ry="12.5" style="stroke: #383838; stroke-width: 1.5;" width="244" x="928.5" y="771.2969"/><line style="stroke: #383838; stroke-width: 1.5;" x1="928.5" x2="1172.5" y1="797.5938" y2="797.5938"/><text fill="#000000" font-family="sans-serif" font-size="14" lengthAdjust="spacingAndGlyphs" textLength="224" x="938.5" y="789.292">Popup de selection d'un contact</text><rect fill="#F8F8F8" height="50" rx="12.5" ry="12.5" style="stroke: #383838; stroke-width: 1.5;" width="229" x="1236" y="771.2969"/><line style="stroke: #383838; stroke-width: 1.5;" x1="1236" x2="1465" y1="797.5938" y2="797.5938"/><text fill="#000000" font-family="sans-serif" font-size="14" lengthAdjust="spacingAndGlyphs" textLength="209" x="1246" y="789.292">Popup de selection d'un client</text><rect fill="#F8F8F8" height="50" rx="12.5" ry="12.5" style="stroke: #383838; stroke-width: 1.5;" width="201" x="1260" y="597.2969"/><line style="stroke: #383838; stroke-width: 1.5;" x1="1260" x2="1461" y1="623.5938" y2="623.5938"/><text fill="#000000" font-family="sans-serif" font-size="14" lengthAdjust="spacingAndGlyphs" textLength="181" x="1270" y="615.292">Popup d'ajout d'une tâche</text><rect fill="#F8F8F8" height="50" rx="12.5" ry="12.5" style="stroke: #383838; stroke-width: 1.5;" width="301" x="924" y="312.2969"/><line style="stroke: #383838; stroke-width: 1.5;" x1="924" x2="1225" y1="338.5938" y2="338.5938"/><text fill="#000000" font-family="sans-serif" font-size="14" lengthAdjust="spacingAndGlyphs" textLength="281" x="934" y="330.292">Popup de consultation d'un rendez-vous</text><path d="M958.5,419.4479 C958.5,427.4829 958.5,439.6229 958.5,450.9509 " fill="none" style="stroke: #383838; stroke-width: 1.0;"/><polygon fill="#383838" points="958.5,456.0809,962.5,447.0809,958.5,451.0809,954.5,447.0809,958.5,456.0809" style="stroke: #383838; stroke-width: 1.0;"/><path d="M1009.687,497.0799 C1031.875,500.9739 1054.063,501.0349 1076.252,497.2629 " fill="none" style="stroke: #383838; stroke-width: 1.0;"/><polygon fill="#383838" points="1004.652,496.1309,1012.7544,501.7301,1009.5653,497.0578,1014.2376,493.8687,1004.652,496.1309" style="stroke: #383838; stroke-width: 1.0;"/><path d="M1004.652,466.4629 C1026.841,461.9899 1049.029,461.3489 1071.217,464.5409 " fill="none" style="stroke: #383838; stroke-width: 1.0;"/><polygon fill="#383838" points="1076.252,465.3309,1067.9817,459.9828,1071.3126,464.555,1066.7403,467.8859,1076.252,465.3309" style="stroke: #383838; stroke-width: 1.0;"/><path d="M1129.719,506.5089 C1130.911,530.1819 1132.729,566.2719 1134.007,591.6509 " fill="none" style="stroke: #383838; stroke-width: 1.0;"/><polygon fill="#383838" points="1134.271,596.8959,1137.8107,587.7051,1134.0181,591.9023,1129.8209,588.1097,1134.271,596.8959" style="stroke: #383838; stroke-width: 1.0;"/><text fill="#000000" font-family="sans-serif" font-size="13" lengthAdjust="spacingAndGlyphs" textLength="125" x="1133.5" y="556.3638">[Mode Planification]</text><path d="M1225.218,598.7659 C1256.172,586.2559 1279.518,568.1119 1263.5,543.2969 C1246.227,516.5379 1214.076,501.3939 1185.482,492.8889 " fill="none" style="stroke: #383838; stroke-width: 1.0;"/><polygon fill="#383838" points="1180.558,491.4779,1188.1084,497.8018,1185.3646,492.8549,1190.3116,490.1112,1180.558,491.4779" style="stroke: #383838; stroke-width: 1.0;"/><path d="M929.61,506.4989 C914.116,522.4309 900.61,543.3879 913.5,560.2969 C921.762,571.1349 984.229,587.7389 1040.801,600.8879 " fill="none" style="stroke: #383838; stroke-width: 1.0;"/><polygon fill="#383838" points="1045.906,602.0689,1038.0393,596.143,1041.0347,600.9418,1036.236,603.9371,1045.906,602.0689" style="stroke: #383838; stroke-width: 1.0;"/><text fill="#000000" font-family="sans-serif" font-size="13" lengthAdjust="spacingAndGlyphs" textLength="125" x="914.5" y="556.3638">[Mode Planification]</text><path d="M1106.687,597.0369 C1088.001,581.4539 1063.029,560.9089 1040.5,543.2969 C1026.185,532.1059 1010.201,520.1069 996.174,509.7379 " fill="none" style="stroke: #383838; stroke-width: 1.0;"/><polygon fill="#383838" points="991.888,506.5749,996.7561,515.1365,995.9117,509.543,1001.5052,508.6986,991.888,506.5749" style="stroke: #383838; stroke-width: 1.0;"/><path d="M1180.775,492.7679 C1206.317,499.3509 1236.793,509.4689 1261.5,524.2969 C1291.606,542.3649 1319.556,571.3499 1338.026,592.9369 " fill="none" style="stroke: #383838; stroke-width: 1.0;"/><polygon fill="#383838" points="1341.363,596.8769,1338.5991,587.4238,1338.1317,593.0613,1332.4942,592.5939,1341.363,596.8769" style="stroke: #383838; stroke-width: 1.0;"/><text fill="#000000" font-family="sans-serif" font-size="13" lengthAdjust="spacingAndGlyphs" textLength="125" x="1306.5" y="556.3638">[Mode Planification]</text><path d="M1408.678,597.1859 C1432.105,582.2599 1452.161,562.3629 1436.5,543.2969 C1405.395,505.4279 1266.047,490.6619 1185.85,485.2279 " fill="none" style="stroke: #383838; stroke-width: 1.0;"/><polygon fill="#383838" points="1180.655,484.8829,1189.37,489.4707,1185.644,485.2143,1189.9004,481.4883,1180.655,484.8829" style="stroke: #383838; stroke-width: 1.0;"/><path d="M854.976,591.6649 C854.934,570.5329 860.232,542.7109 876.5,524.2969 C886.084,513.4489 899.173,504.7099 912.143,498.0709 " fill="none" style="stroke: #383838; stroke-width: 1.0;"/><polygon fill="#383838" points="855.099,596.8839,858.8844,587.7915,854.9804,591.8853,850.8867,587.9813,855.099,596.8839" style="stroke: #383838; stroke-width: 1.0;"/><path d="M869.181,596.8839 C872.114,575.3159 876.853,544.2709 894.5,524.2969 C899.377,518.7769 905.161,513.8029 911.238,509.3739 " fill="none" style="stroke: #383838; stroke-width: 1.0;"/><polygon fill="#383838" points="915.484,506.3949,905.8187,508.2877,911.3904,509.2658,910.4123,514.8375,915.484,506.3949" style="stroke: #383838; stroke-width: 1.0;"/><path d="M1100.354,506.3399 C1082.985,523.4469 1059.798,545.8679 1035.5,560.2969 C1010.953,574.8739 982.454,586.5259 955.734,595.5779 " fill="none" style="stroke: #383838; stroke-width: 1.0;"/><polygon fill="#383838" points="950.767,597.2379,960.571,598.1768,955.5088,595.652,958.0336,590.5899,950.767,597.2379" style="stroke: #383838; stroke-width: 1.0;"/><path d="M967.958,597.2379 C996.891,587.9649 1027.426,575.7809 1053.5,560.2969 C1075.9,546.9949 1097.355,526.9009 1111.772,510.4399 " fill="none" style="stroke: #383838; stroke-width: 1.0;"/><polygon fill="#383838" points="1115.282,506.3399,1106.3907,510.5761,1112.0306,510.1384,1112.4683,515.7783,1115.282,506.3399" style="stroke: #383838; stroke-width: 1.0;"/><path d="M1046.252,366.1549 C1023.092,392.3479 991.476,431.1579 973.048,456.0899 " fill="none" style="stroke: #383838; stroke-width: 1.0;"/><polygon fill="#383838" points="1049.605,362.3849,1040.6347,366.4511,1046.2819,366.1208,1046.6122,371.768,1049.605,362.3849" style="stroke: #383838; stroke-width: 1.0;"/><path d="M1060.039,362.3849 C1041.653,387.2729 1010.045,426.0809 986.858,452.3139 " fill="none" style="stroke: #383838; stroke-width: 1.0;"/><polygon fill="#383838" points="983.501,456.0899,992.4705,452.0219,986.8234,452.3533,986.492,446.7062,983.501,456.0899" style="stroke: #383838; stroke-width: 1.0;"/><path d="M1124.521,456.0899 C1117.072,431.4649 1102.668,393.3009 1091.018,367.1269 " fill="none" style="stroke: #383838; stroke-width: 1.0;"/><polygon fill="#383838" points="1088.877,362.3849,1088.9367,372.2336,1090.9354,366.9415,1096.2274,368.9402,1088.877,362.3849" style="stroke: #383838; stroke-width: 1.0;"/><path d="M1078.443,362.3849 C1085.87,386.9669 1100.267,425.1289 1111.926,451.3409 " fill="none" style="stroke: #383838; stroke-width: 1.0;"/><polygon fill="#383838" points="1114.068,456.0899,1114.0109,446.2412,1112.0108,451.5327,1106.7193,449.5327,1114.068,456.0899" style="stroke: #383838; stroke-width: 1.0;"/><path d="M1105.215,647.4269 C1094.281,657.6559 1082.215,669.6429 1072.145,680.2619 " fill="none" style="stroke: #383838; stroke-width: 1.0;"/><polygon fill="#383838" points="1068.531,684.1059,1077.6097,680.2879,1071.9556,680.4627,1071.7807,674.8086,1068.531,684.1059" style="stroke: #383838; stroke-width: 1.0;"/><path d="M1080.85,684.1059 C1091.788,673.8709 1103.852,661.8829 1113.914,651.2699 " fill="none" style="stroke: #383838; stroke-width: 1.0;"/><polygon fill="#383838" points="1117.525,647.4269,1108.447,651.2467,1114.1012,651.0707,1114.2771,656.7248,1117.525,647.4269" style="stroke: #383838; stroke-width: 1.0;"/><path d="M1190.101,647.3139 C1216.929,658.2199 1249.572,671.1419 1278.411,682.2779 " fill="none" style="stroke: #383838; stroke-width: 1.0;"/><polygon fill="#383838" points="1283.376,684.1919,1276.4171,677.2224,1278.7106,682.3934,1273.5396,684.687,1283.376,684.1919" style="stroke: #383838; stroke-width: 1.0;"/><path d="M1295.683,684.1919 C1268.824,673.2759 1236.175,660.3519 1207.357,649.2259 " fill="none" style="stroke: #383838; stroke-width: 1.0;"/><polygon fill="#383838" points="1202.396,647.3139,1209.3568,654.2815,1207.0618,649.1111,1212.2323,646.8161,1202.396,647.3139" style="stroke: #383838; stroke-width: 1.0;"/><path d="M1044.345,734.4271 C1043.671,744.2074 1043.57,755.5948 1044.042,765.8569 " fill="none" style="stroke: #383838; stroke-width: 1.0;"/><polygon fill="#383838" points="1044.341,771.1063,1047.8222,761.8932,1044.0564,766.1144,1039.8352,762.3485,1044.341,771.1063" style="stroke: #383838; stroke-width: 1.0;"/><path d="M1056.659,771.1063 C1057.331,761.3195 1057.43,749.9311 1056.955,739.6736 " fill="none" style="stroke: #383838; stroke-width: 1.0;"/><polygon fill="#383838" points="1056.655,734.4271,1053.1761,743.6411,1056.9409,739.4189,1061.163,743.1836,1056.655,734.4271" style="stroke: #383838; stroke-width: 1.0;"/><path d="M1344.345,734.4271 C1343.671,744.2074 1343.57,755.5948 1344.042,765.8569 " fill="none" style="stroke: #383838; stroke-width: 1.0;"/><polygon fill="#383838" points="1344.341,771.1063,1347.8222,761.8932,1344.0564,766.1144,1339.8352,762.3485,1344.341,771.1063" style="stroke: #383838; stroke-width: 1.0;"/><path d="M1356.659,771.1063 C1357.331,761.3195 1357.43,749.9311 1356.955,739.6736 " fill="none" style="stroke: #383838; stroke-width: 1.0;"/><polygon fill="#383838" points="1356.655,734.4271,1353.1761,743.6411,1356.9409,739.4189,1361.163,743.1836,1356.655,734.4271" style="stroke: #383838; stroke-width: 1.0;"/><rect fill="#F8F8F8" height="400.2969" rx="12.5" ry="12.5" style="stroke: #383838; stroke-width: 1.5;" width="536" x="137" y="896"/><rect fill="#FFFFFF" height="368" rx="12.5" ry="12.5" style="stroke: #FFFFFF; stroke-width: 1.0;" width="530" x="140" y="925.2969"/><line style="stroke: #383838; stroke-width: 1.5;" x1="137" x2="673" y1="922.2969" y2="922.2969"/><text fill="#000000" font-family="sans-serif" font-size="14" lengthAdjust="spacingAndGlyphs" textLength="125" x="342.5" y="913.9951">Onglet Personnes</text><rect fill="#F8F8F8" height="50" rx="12.5" ry="12.5" style="stroke: #383838; stroke-width: 1.5;" width="214" x="355.5" y="935.2969"/><line style="stroke: #383838; stroke-width: 1.5;" x1="355.5" x2="569.5" y1="961.5938" y2="961.5938"/><text fill="#000000" font-family="sans-serif" font-size="14" lengthAdjust="spacingAndGlyphs" textLength="194" x="365.5" y="953.292">Mode personne consultable</text><rect fill="#F8F8F8" height="50" rx="12.5" ry="12.5" style="stroke: #383838; stroke-width: 1.5;" width="189" x="148" y="935.2969"/><line style="stroke: #383838; stroke-width: 1.5;" x1="148" x2="337" y1="961.5938" y2="961.5938"/><text fill="#000000" font-family="sans-serif" font-size="14" lengthAdjust="spacingAndGlyphs" textLength="169" x="158" y="953.292">Mode personne editable</text><ellipse cx="597.5" cy="960.2969" fill="#000000" rx="10" ry="10" style="stroke: none; stroke-width: 1.0;"/><path d="M574.587,960.2969 C578.876,960.2969 583.166,960.2969 587.456,960.2969 " fill="none" style="stroke: #383838; stroke-width: 1.0;"/><polygon fill="#383838" points="569.551,960.2969,578.551,964.2969,574.551,960.2969,578.551,956.2969,569.551,960.2969" style="stroke: #383838; stroke-width: 1.0;"/><path d="M342.131,978.8803 C346.476,979.0199 350.821,979.0718 355.165,979.0359 " fill="none" style="stroke: #383838; stroke-width: 1.0;"/><polygon fill="#383838" points="337.031,978.6761,345.8638,983.0329,342.027,978.8761,346.1838,975.0393,337.031,978.6761" style="stroke: #383838; stroke-width: 1.0;"/><path d="M337.031,941.9177 C341.376,941.7094 345.721,941.5889 350.065,941.5561 " fill="none" style="stroke: #383838; stroke-width: 1.0;"/><polygon fill="#383838" points="355.165,941.5579,346.165,937.5579,350.165,941.5579,346.165,945.5579,355.165,941.5579" style="stroke: #383838; stroke-width: 1.0;"/><line style="stroke: #383838; stroke-width: 1.5; stroke-dasharray: 8.0,10.0;" x1="142" x2="666" y1="995.2969" y2="995.2969"/><rect fill="#F8F8F8" height="50" rx="12.5" ry="12.5" style="stroke: #383838; stroke-width: 1.5;" width="234" x="262.5" y="1059.2969"/><line style="stroke: #383838; stroke-width: 1.5;" x1="262.5" x2="496.5" y1="1085.5938" y2="1085.5938"/><text fill="#000000" font-family="sans-serif" font-size="14" lengthAdjust="spacingAndGlyphs" textLength="214" x="272.5" y="1077.292">Vue de gestion des personnes</text><rect fill="#F8F8F8" height="50" rx="12.5" ry="12.5" style="stroke: #383838; stroke-width: 1.5;" width="243" x="148" y="1145.2969"/><line style="stroke: #383838; stroke-width: 1.5;" x1="148" x2="391" y1="1171.5938" y2="1171.5938"/><text fill="#000000" font-family="sans-serif" font-size="14" lengthAdjust="spacingAndGlyphs" textLength="223" x="158" y="1163.292">Vue de creation d'une personne</text><rect fill="#F8F8F8" height="50" rx="12.5" ry="12.5" style="stroke: #383838; stroke-width: 1.5;" width="161" x="409" y="1145.2969"/><line style="stroke: #383838; stroke-width: 1.5;" x1="409" x2="570" y1="1171.5938" y2="1171.5938"/><text fill="#000000" font-family="sans-serif" font-size="14" lengthAdjust="spacingAndGlyphs" textLength="141" x="419" y="1163.292">Liste des personnes</text><rect fill="#F8F8F8" height="50" rx="12.5" ry="12.5" style="stroke: #383838; stroke-width: 1.5;" width="300" x="339.5" y="1231.2969"/><line style="stroke: #383838; stroke-width: 1.5;" x1="339.5" x2="639.5" y1="1257.5938" y2="1257.5938"/><text fill="#000000" font-family="sans-serif" font-size="14" lengthAdjust="spacingAndGlyphs" textLength="276" x="349.5" y="1249.292">Vue donnant les détails d'une personne</text><ellipse cx="379.5" cy="1013.2969" fill="#000000" rx="10" ry="10" style="stroke: none; stroke-width: 1.0;"/><path d="M379.5,1023.3179 C379.5,1031.1739 379.5,1043.0129 379.5,1054.1019 " fill="none" style="stroke: #383838; stroke-width: 1.0;"/><polygon fill="#383838" points="379.5,1059.1279,383.5,1050.1279,379.5,1054.1279,375.5,1050.1279,379.5,1059.1279" style="stroke: #383838; stroke-width: 1.0;"/><path d="M404.851,1109.3679 C417.499,1119.5609 433.052,1131.4879 447.395,1142.0069 " fill="none" style="stroke: #383838; stroke-width: 1.0;"/><polygon fill="#383838" points="451.803,1145.2219,446.8909,1136.6854,447.7641,1142.2745,442.175,1143.1477,451.803,1145.2219" style="stroke: #383838; stroke-width: 1.0;"/><path d="M464.145,1145.2219 C451.496,1135.0289 435.942,1123.1019 421.6,1112.5839 " fill="none" style="stroke: #383838; stroke-width: 1.0;"/><polygon fill="#383838" points="417.192,1109.3679,422.1056,1117.9035,421.2314,1112.3146,426.8203,1111.4404,417.192,1109.3679" style="stroke: #383838; stroke-width: 1.0;"/><path d="M341.808,1109.3679 C327.76,1119.5609 312.075,1131.4879 298.869,1142.0069 " fill="none" style="stroke: #383838; stroke-width: 1.0;"/><polygon fill="#383838" points="294.855,1145.2219,304.3793,1142.7142,298.7564,1142.0947,299.3758,1136.4719,294.855,1145.2219" style="stroke: #383838; stroke-width: 1.0;"/><path d="M307.197,1145.2219 C321.245,1135.0289 336.93,1123.1019 350.135,1112.5839 " fill="none" style="stroke: #383838; stroke-width: 1.0;"/><polygon fill="#383838" points="354.149,1109.3679,344.6237,1111.8718,350.2463,1112.4934,349.6246,1118.116,354.149,1109.3679" style="stroke: #383838; stroke-width: 1.0;"/><path d="M483.314,1195.5932 C482.673,1205.0833 482.578,1216.0496 483.031,1225.9738 " fill="none" style="stroke: #383838; stroke-width: 1.0;"/><polygon fill="#383838" points="483.318,1231.0552,486.8045,1221.8441,483.0363,1226.0631,478.8172,1222.2949,483.318,1231.0552" style="stroke: #383838; stroke-width: 1.0;"/><path d="M495.682,1231.0552 C496.326,1221.5707 496.422,1210.6054 495.972,1200.6771 " fill="none" style="stroke: #383838; stroke-width: 1.0;"/><polygon fill="#383838" points="495.686,1195.5932,492.1973,1204.8034,495.9665,1200.5853,500.1847,1204.3546,495.686,1195.5932" style="stroke: #383838; stroke-width: 1.0;"/><rect fill="#F8F8F8" height="386.2969" rx="12.5" ry="12.5" style="stroke: #383838; stroke-width: 1.5;" width="774" x="708" y="903"/><rect fill="#FFFFFF" height="354" rx="12.5" ry="12.5" style="stroke: #FFFFFF; stroke-width: 1.0;" width="768" x="711" y="932.2969"/><line style="stroke: #383838; stroke-width: 1.5;" x1="708" x2="1482" y1="929.2969" y2="929.2969"/><text fill="#000000" font-family="sans-serif" font-size="14" lengthAdjust="spacingAndGlyphs" textLength="112" x="1039" y="920.9951">Onglet Contacts</text><rect fill="#F8F8F8" height="50" rx="12.5" ry="12.5" style="stroke: #383838; stroke-width: 1.5;" width="146" x="976.5" y="998.2969"/><line style="stroke: #383838; stroke-width: 1.5;" x1="976.5" x2="1122.5" y1="1024.5938" y2="1024.5938"/><text fill="#000000" font-family="sans-serif" font-size="14" lengthAdjust="spacingAndGlyphs" textLength="126" x="986.5" y="1016.292">Liste des contacts</text><rect fill="#F8F8F8" height="50" rx="12.5" ry="12.5" style="stroke: #383838; stroke-width: 1.5;" width="239" x="719" y="998.2969"/><line style="stroke: #383838; stroke-width: 1.5;" x1="719" x2="958" y1="1024.5938" y2="1024.5938"/><text fill="#000000" font-family="sans-serif" font-size="14" lengthAdjust="spacingAndGlyphs" textLength="215" x="729" y="1016.292">Popup motif annulation contact</text><rect fill="#F8F8F8" height="50" rx="12.5" ry="12.5" style="stroke: #383838; stroke-width: 1.5;" width="308" x="1140.5" y="998.2969"/><line style="stroke: #383838; stroke-width: 1.5;" x1="1140.5" x2="1448.5" y1="1024.5938" y2="1024.5938"/><text fill="#000000" font-family="sans-serif" font-size="14" lengthAdjust="spacingAndGlyphs" textLength="288" x="1150.5" y="1016.292">Popup d'affectation d'un agent au contact</text><ellipse cx="1049.5" cy="952.2969" fill="#000000" rx="10" ry="10" style="stroke: none; stroke-width: 1.0;"/><rect fill="#F8F8F8" height="190.2969" rx="12.5" ry="12.5" style="stroke: #383838; stroke-width: 1.5;" width="427" x="836" y="1084.2969"/><rect fill="#FFFFFF" height="158" rx="12.5" ry="12.5" style="stroke: #FFFFFF; stroke-width: 1.0;" width="421" x="839" y="1113.5938"/><line style="stroke: #383838; stroke-width: 1.5;" x1="836" x2="1263" y1="1110.5938" y2="1110.5938"/><text fill="#000000" font-family="sans-serif" font-size="14" lengthAdjust="spacingAndGlyphs" textLength="85" x="1007" y="1102.292">Vue Contact</text><rect fill="#F8F8F8" height="50" rx="12.5" ry="12.5" style="stroke: #383838; stroke-width: 1.5;" width="153" x="1038" y="1123.5938"/><line style="stroke: #383838; stroke-width: 1.5;" x1="1038" x2="1191" y1="1149.8906" y2="1149.8906"/><text fill="#000000" font-family="sans-serif" font-size="14" lengthAdjust="spacingAndGlyphs" textLength="129" x="1048" y="1141.5889">Onglet preparation</text><rect fill="#F8F8F8" height="50" rx="12.5" ry="12.5" style="stroke: #383838; stroke-width: 1.5;" width="173" x="847" y="1123.5938"/><line style="stroke: #383838; stroke-width: 1.5;" x1="847" x2="1020" y1="1149.8906" y2="1149.8906"/><text fill="#000000" font-family="sans-serif" font-size="14" lengthAdjust="spacingAndGlyphs" textLength="149" x="857" y="1141.5889">Onglet compte-rendu</text><rect fill="#F8F8F8" height="50" rx="12.5" ry="12.5" style="stroke: #383838; stroke-width: 1.5;" width="193" x="1018" y="1209.5938"/><line style="stroke: #383838; stroke-width: 1.5;" x1="1018" x2="1211" y1="1235.8906" y2="1235.8906"/><text fill="#000000" font-family="sans-serif" font-size="14" lengthAdjust="spacingAndGlyphs" textLength="173" x="1028" y="1227.5889">Popup d'ajout d'une offre</text><ellipse cx="1219.5" cy="1148.5938" fill="#000000" rx="10" ry="10" style="stroke: none; stroke-width: 1.0;"/><path d="M1196.298,1148.5938 C1200.642,1148.5938 1204.986,1148.5938 1209.329,1148.5938 " fill="none" style="stroke: #383838; stroke-width: 1.0;"/><polygon fill="#383838" points="1191.199,1148.5938,1200.199,1152.5938,1196.199,1148.5938,1200.199,1144.5938,1191.199,1148.5938" style="stroke: #383838; stroke-width: 1.0;"/><path d="M1025.365,1167.3395 C1029.513,1167.3136 1033.661,1167.1695 1037.809,1166.9072 " fill="none" style="stroke: #383838; stroke-width: 1.0;"/><polygon fill="#383838" points="1020.111,1167.3092,1029.088,1171.3605,1025.1109,1167.3377,1029.1337,1163.3606,1020.111,1167.3092" style="stroke: #383838; stroke-width: 1.0;"/><path d="M1020.111,1129.8788 C1024.259,1129.8048 1028.407,1129.8488 1032.555,1130.0118 " fill="none" style="stroke: #383838; stroke-width: 1.0;"/><polygon fill="#383838" points="1037.809,1130.2808,1029.0253,1125.8258,1032.8155,1130.0251,1028.6162,1133.8153,1037.809,1130.2808" style="stroke: #383838; stroke-width: 1.0;"/><path d="M1108.314,1173.8901 C1107.673,1183.3802 1107.578,1194.3465 1108.031,1204.2707 " fill="none" style="stroke: #383838; stroke-width: 1.0;"/><polygon fill="#383838" points="1108.318,1209.3521,1111.8045,1200.141,1108.0363,1204.36,1103.8172,1200.5918,1108.318,1209.3521" style="stroke: #383838; stroke-width: 1.0;"/><path d="M1120.682,1209.3521 C1121.326,1199.8676 1121.422,1188.9023 1120.972,1178.974 " fill="none" style="stroke: #383838; stroke-width: 1.0;"/><polygon fill="#383838" points="1120.686,1173.8901,1117.1973,1183.1003,1120.9665,1178.8822,1125.1847,1182.6514,1120.686,1173.8901" style="stroke: #383838; stroke-width: 1.0;"/><path d="M1049.5,962.3179 C1049.5,970.1739 1049.5,982.0129 1049.5,993.1019 " fill="none" style="stroke: #383838; stroke-width: 1.0;"/><polygon fill="#383838" points="1049.5,998.1279,1053.5,989.1279,1049.5,993.1279,1045.5,989.1279,1049.5,998.1279" style="stroke: #383838; stroke-width: 1.0;"/><path d="M1044.438,1048.3589 C1043.752,1057.1629 1043.275,1067.7549 1043.007,1079.0459 " fill="none" style="stroke: #383838; stroke-width: 1.0;"/><polygon fill="#383838" points="1042.899,1084.2779,1047.0859,1075.3633,1043.0033,1079.279,1039.0876,1075.1964,1042.899,1084.2779" style="stroke: #383838; stroke-width: 1.0;"/><path d="M1056.101,1084.2779 C1055.905,1073.2129 1055.514,1062.6409 1054.929,1053.5409 " fill="none" style="stroke: #383838; stroke-width: 1.0;"/><polygon fill="#383838" points="1054.562,1048.3589,1051.2098,1057.6197,1054.9163,1053.3463,1059.1897,1057.0528,1054.562,1048.3589" style="stroke: #383838; stroke-width: 1.0;"/><path d="M963.138,1041.4299 C967.505,1041.1479 971.871,1040.7709 976.238,1040.2959 " fill="none" style="stroke: #383838; stroke-width: 1.0;"/><polygon fill="#383838" points="958.012,1041.7159,967.2218,1045.2057,963.0042,1041.4359,966.7739,1037.2182,958.012,1041.7159" style="stroke: #383838; stroke-width: 1.0;"/><path d="M958.012,1004.8779 C962.378,1005.0839 966.745,1005.3859 971.112,1005.7849 " fill="none" style="stroke: #383838; stroke-width: 1.0;"/><polygon fill="#383838" points="976.238,1006.2979,967.6803,1001.4229,971.2628,1005.8008,966.8849,1009.3833,976.238,1006.2979" style="stroke: #383838; stroke-width: 1.0;"/><path d="M1122.713,1039.0119 C1126.973,1039.5359 1131.234,1039.9929 1135.494,1040.3819 " fill="none" style="stroke: #383838; stroke-width: 1.0;"/><polygon fill="#383838" points="1140.496,1040.8069,1131.8679,1036.0575,1135.514,1040.3825,1131.189,1044.0286,1140.496,1040.8069" style="stroke: #383838; stroke-width: 1.0;"/><path d="M1140.496,1005.7869 C1136.235,1006.1229 1131.975,1006.5259 1127.714,1006.9979 " fill="none" style="stroke: #383838; stroke-width: 1.0;"/><polygon fill="#383838" points="1122.713,1007.5819,1132.1162,1010.5111,1127.6793,1007.002,1131.1883,1002.5651,1122.713,1007.5819" style="stroke: #383838; stroke-width: 1.0;"/><rect fill="#F8F8F8" height="50" rx="12.5" ry="12.5" style="stroke: #383838; stroke-width: 1.5;" width="177" x="1032.5" y="88"/><line style="stroke: #383838; stroke-width: 1.5;" x1="1032.5" x2="1209.5" y1="114.2969" y2="114.2969"/><text fill="#000000" font-family="sans-serif" font-size="14" lengthAdjust="spacingAndGlyphs" textLength="157" x="1042.5" y="105.9951">Page d'authentification</text><ellipse cx="1121" cy="18" fill="#000000" rx="10" ry="10" style="stroke: none; stroke-width: 1.0;"/><ellipse cx="38" cy="113" fill="none" rx="10" ry="10" style="stroke: #000000; stroke-width: 1.0;"/><ellipse cx="38.5" cy="113.5" fill="#000000" rx="6" ry="6" style="stroke: none; stroke-width: 1.0;"/><path d="M1121,28.26 C1121,40.86 1121,63.98 1121,82.74 " fill="none" style="stroke: #383838; stroke-width: 1.0;"/><polygon fill="#383838" points="1121,87.91,1125,78.91,1121,82.91,1117,78.91,1121,87.91" style="stroke: #383838; stroke-width: 1.0;"/><path d="M1121,138.15 C1121,153.34 1121,174.78 1121,199.84 " fill="none" style="stroke: #383838; stroke-width: 1.0;"/><polygon fill="#383838" points="1121,204.9,1125,195.9,1121,199.9,1117,195.9,1121,204.9" style="stroke: #383838; stroke-width: 1.0;"/><path d="M685.147,375.084 C695.175,373.666 705.203,372.577 715.231,371.817 " fill="none" style="stroke: #383838; stroke-width: 1.0;"/><polygon fill="#383838" points="720.475,371.45,711.217,368.0899,715.4873,371.8,711.7771,376.0703,720.475,371.45" style="stroke: #383838; stroke-width: 1.0;"/><path d="M720.475,669.55 C710.355,668.899 700.235,667.913 690.115,666.592 " fill="none" style="stroke: #383838; stroke-width: 1.0;"/><polygon fill="#383838" points="685.147,665.916,693.5254,671.0932,690.1013,666.5903,694.6042,663.1663,685.147,665.916" style="stroke: #383838; stroke-width: 1.0;"/><path d="M375.83,720.875 C377.616,775.7 380.294,835.236 383.449,890.353 " fill="none" style="stroke: #383838; stroke-width: 1.0;"/><polygon fill="#383838" points="383.755,895.673,387.2289,886.4571,383.4664,890.6813,379.2422,886.9189,383.755,895.673" style="stroke: #383838; stroke-width: 1.0;"/><path d="M408.89,895.673 C407.145,840.851 404.469,781.314 401.276,726.195 " fill="none" style="stroke: #383838; stroke-width: 1.0;"/><polygon fill="#383838" points="400.966,720.875,397.4974,730.0928,401.2574,725.8665,405.4838,729.6266,400.966,720.875" style="stroke: #383838; stroke-width: 1.0;"/><path d="M555.736,720.549 C597.139,760.282 642.013,800.633 686,836 C712.811,857.557 741.427,879.04 770.603,899.89 " fill="none" style="stroke: #383838; stroke-width: 1.0;"/><polygon fill="#383838" points="774.911,902.962,769.905,894.4802,770.8398,900.0593,765.2607,900.9941,774.911,902.962" style="stroke: #383838; stroke-width: 1.0;"/><path d="M809.73,902.962 C779.246,881.153 749.129,858.617 721,836 C678.387,801.738 634.943,762.799 593.92,724.276 " fill="none" style="stroke: #383838; stroke-width: 1.0;"/><polygon fill="#383838" points="589.957,720.549,593.7713,729.6292,593.5988,723.975,599.253,723.8024,589.957,720.549" style="stroke: #383838; stroke-width: 1.0;"/><path d="M720.429,832.168 C694.879,852.687 669.622,873.042 645.188,892.808 " fill="none" style="stroke: #383838; stroke-width: 1.0;"/><polygon fill="#383838" points="641.273,895.975,650.7854,893.4227,645.1597,892.8296,645.7528,887.2039,641.273,895.975" style="stroke: #383838; stroke-width: 1.0;"/><path d="M666.621,895.799 C689.798,877.434 713.557,858.539 737.467,839.457 " fill="none" style="stroke: #383838; stroke-width: 1.0;"/><polygon fill="#383838" points="741.619,836.144,732.0892,838.6305,737.7106,839.2624,737.0786,844.8839,741.619,836.144" style="stroke: #383838; stroke-width: 1.0;"/><path d="M1094.03,836.353 C1093.17,857.133 1092.41,877.714 1091.76,897.654 " fill="none" style="stroke: #383838; stroke-width: 1.0;"/><polygon fill="#383838" points="1091.6,902.709,1095.8833,893.8403,1091.7585,897.7115,1087.8873,893.5867,1091.6,902.709" style="stroke: #383838; stroke-width: 1.0;"/><path d="M1116.54,902.709 C1117.74,882.797 1118.87,862.2 1119.92,841.368 " fill="none" style="stroke: #383838; stroke-width: 1.0;"/><polygon fill="#383838" points="1120.17,836.353,1115.7256,845.142,1119.9203,841.3468,1123.7156,845.5415,1120.17,836.353" style="stroke: #383838; stroke-width: 1.0;"/><path d="M673.184,1238.564 C683.006,1240.465 692.828,1242.002 702.649,1243.174 " fill="none" style="stroke: #383838; stroke-width: 1.0;"/><polygon fill="#383838" points="707.786,1243.754,699.292,1238.7688,702.8176,1243.1926,698.3938,1246.7183,707.786,1243.754" style="stroke: #383838; stroke-width: 1.0;"/><path d="M707.786,948.246 C697.964,949.291 688.142,950.701 678.32,952.475 " fill="none" style="stroke: #383838; stroke-width: 1.0;"/><polygon fill="#383838" points="673.184,953.436,682.7662,955.7121,678.0987,952.5162,681.2946,947.8486,673.184,953.436" style="stroke: #383838; stroke-width: 1.0;"/><path d="M38,128.31 C38,136.61 38,148.19 38,162.19 " fill="none" style="stroke: #383838; stroke-width: 1.0;"/><polygon fill="#383838" points="38,123.23,34,132.23,38,128.23,42,132.23,38,123.23" style="stroke: #383838; stroke-width: 1.0;"/></g></svg>