<?xml version="1.0" encoding="UTF-8" standalone="yes"?><svg xmlns="http://www.w3.org/2000/svg" xmlns:xlink="http://www.w3.org/1999/xlink" height="1329px" style="width:1547px;height:1329px;" version="1.1" viewBox="0 0 1547 1329" width="1547px"><defs/><g><rect fill="#F8F8F8" height="1166" rx="12.5" ry="12.5" style="stroke: #383838; stroke-width: 1.5;" width="1516" x="30" y="162"/><rect fill="#FFFFFF" height="1133.7031" rx="12.5" ry="12.5" style="stroke: #FFFFFF; stroke-width: 1.0;" width="1510" x="33" y="191.2969"/><line style="stroke: #383838; stroke-width: 1.5;" x1="30" x2="1546" y1="188.2969" y2="188.2969"/><text fill="#000000" font-family="sans-serif" font-size="14" lengthAdjust="spacingAndGlyphs" textLength="75" x="750" y="178.9951">Application</text><rect fill="#F8F8F8" height="400.2969" rx="12.5" ry="12.5" style="stroke: #383838; stroke-width: 1.5;" width="612" x="73" y="325"/><rect fill="#FFFFFF" height="368" rx="12.5" ry="12.5" style="stroke: #FFFFFF; stroke-width: 1.0;" width="606" x="76" y="354.2969"/><line style="stroke: #383838; stroke-width: 1.5;" x1="73" x2="685" y1="351.2969" y2="351.2969"/><text fill="#000000" font-family="sans-serif" font-size="14" lengthAdjust="spacingAndGlyphs" textLength="89" x="334.5" y="342.9951">Onglet Client</text><rect fill="#F8F8F8" height="50" rx="12.5" ry="12.5" style="stroke: #383838; stroke-width: 1.5;" width="136" x="304" y="364.2969"/><line style="stroke: #383838; stroke-width: 1.5;" x1="304" x2="440" y1="390.5938" y2="390.5938"/><text fill="#000000" font-family="sans-serif" font-size="14" lengthAdjust="spacingAndGlyphs" textLength="112" x="314" y="382.292">Dossier Editable</text><rect fill="#F8F8F8" height="50" rx="12.5" ry="12.5" style="stroke: #383838; stroke-width: 1.5;" width="164" x="122" y="364.2969"/><line style="stroke: #383838; stroke-width: 1.5;" x1="122" x2="286" y1="390.5938" y2="390.5938"/><text fill="#000000" font-family="sans-serif" font-size="14" lengthAdjust="spacingAndGlyphs" textLength="144" x="132" y="382.292">Dossier Non Editable</text><ellipse cx="94" cy="389.2969" fill="#000000" rx="10" ry="10" style="stroke: none; stroke-width: 1.0;"/><path d="M104.3125,389.2969 C108.4195,389.2969 112.5265,389.2969 116.6335,389.2969 " fill="none" style="stroke: #383838; stroke-width: 1.0;"/><polygon fill="#383838" points="121.8357,389.2969,112.8357,385.2969,116.8357,389.2969,112.8357,393.2969,121.8357,389.2969" style="stroke: #383838; stroke-width: 1.0;"/><path d="M291.037,408.0224 C295.301,407.9535 299.565,407.7398 303.829,407.381 " fill="none" style="stroke: #383838; stroke-width: 1.0;"/><polygon fill="#383838" points="286.031,408.0366,295.0424,412.0108,291.031,408.0223,295.0195,404.0109,286.031,408.0366" style="stroke: #383838; stroke-width: 1.0;"/><path d="M286.031,370.5572 C290.295,370.5126 294.56,370.6129 298.824,370.8582 " fill="none" style="stroke: #383838; stroke-width: 1.0;"/><polygon fill="#383838" points="303.829,371.2127,295.1351,366.585,298.8416,370.8584,294.5682,374.5649,303.829,371.2127" style="stroke: #383838; stroke-width: 1.0;"/><line style="stroke: #383838; stroke-width: 1.5; stroke-dasharray: 8.0,10.0;" x1="78" x2="678" y1="424.2969" y2="424.2969"/><rect fill="#F8F8F8" height="50" rx="12.5" ry="12.5" style="stroke: #383838; stroke-width: 1.5;" width="193" x="303.75" y="488.2969"/><line style="stroke: #383838; stroke-width: 1.5;" x1="303.75" x2="496.75" y1="514.5938" y2="514.5938"/><text fill="#000000" font-family="sans-serif" font-size="14" lengthAdjust="spacingAndGlyphs" textLength="173" x="313.75" y="506.292">Resultat recherche client</text><rect fill="#F8F8F8" height="50" rx="12.5" ry="12.5" style="stroke: #383838; stroke-width: 1.5;" width="199" x="300.75" y="574.2969"/><line style="stroke: #383838; stroke-width: 1.5;" x1="300.75" x2="499.75" y1="600.5938" y2="600.5938"/><text fill="#000000" font-family="sans-serif" font-size="14" lengthAdjust="spacingAndGlyphs" textLength="179" x="310.75" y="592.292">Onglet Bilan dossier client</text><rect fill="#F8F8F8" height="50" rx="12.5" ry="12.5" style="stroke: #383838; stroke-width: 1.5;" width="119" x="163.75" y="574.2969"/><line style="stroke: #383838; stroke-width: 1.5;" x1="163.75" x2="282.75" y1="600.5938" y2="600.5938"/><text fill="#000000" font-family="sans-serif" font-size="14" lengthAdjust="spacingAndGlyphs" textLength="99" x="173.75" y="592.292">Onglet Produit</text><rect fill="#F8F8F8" height="50" rx="12.5" ry="12.5" style="stroke: #383838; stroke-width: 1.5;" width="134" x="518" y="574.2969"/><line style="stroke: #383838; stroke-width: 1.5;" x1="518" x2="652" y1="600.5938" y2="600.5938"/><text fill="#000000" font-family="sans-serif" font-size="14" lengthAdjust="spacingAndGlyphs" textLength="114" x="528" y="592.292">Onglet Relations</text><rect fill="#F8F8F8" height="50" rx="12.5" ry="12.5" style="stroke: #383838; stroke-width: 1.5;" width="278" x="84" y="660.2969"/><line style="stroke: #383838; stroke-width: 1.5;" x1="84" x2="362" y1="686.5938" y2="686.5938"/><text fill="#000000" font-family="sans-serif" font-size="14" lengthAdjust="spacingAndGlyphs" textLength="258" x="94" y="678.292">Vue donnant les détails d'un prooduit</text><ellipse cx="400" cy="442.2969" fill="#000000" rx="10" ry="10" style="stroke: none; stroke-width: 1.0;"/><path d="M400,452.3179 C400,460.1739 400,472.0129 400,483.1019 " fill="none" style="stroke: #383838; stroke-width: 1.0;"/><polygon fill="#383838" points="400,488.1279,404,479.1279,400,483.1279,396,479.1279,400,488.1279" style="stroke: #383838; stroke-width: 1.0;"/><path d="M400,538.5929 C400,548.0829 400,559.0499 400,568.9739 " fill="none" style="stroke: #383838; stroke-width: 1.0;"/><polygon fill="#383838" points="400,574.0549,404,565.0549,400,569.0549,396,565.0549,400,574.0549" style="stroke: #383838; stroke-width: 1.0;"/><path d="M287.497,616.6677 C291.787,617.1607 296.077,617.5215 300.367,617.7502 " fill="none" style="stroke: #383838; stroke-width: 1.0;"/><polygon fill="#383838" points="282.461,616.0282,290.8853,621.1303,287.4212,616.6582,291.8933,613.1941,282.461,616.0282" style="stroke: #383838; stroke-width: 1.0;"/><path d="M499.365,617.9436 C503.773,617.811 508.181,617.5506 512.589,617.1625 " fill="none" style="stroke: #383838; stroke-width: 1.0;"/><polygon fill="#383838" points="517.763,616.6483,508.4117,613.5576,512.7875,617.1426,509.2025,621.5184,517.763,616.6483" style="stroke: #383838; stroke-width: 1.0;"/><path d="M282.461,582.5659 C286.751,581.9689 291.041,581.5049 295.331,581.1729 " fill="none" style="stroke: #383838; stroke-width: 1.0;"/><polygon fill="#383838" points="300.367,580.8439,291.1255,577.4388,295.3776,581.1696,291.6467,585.4218,300.367,580.8439" style="stroke: #383838; stroke-width: 1.0;"/><path d="M265.359,574.2399 C275.7,569.3089 286.971,564.8689 298,562.2969 C342.148,551.9999 457.659,552.8609 502,562.2969 C512.344,564.4979 522.961,568.0829 533,572.1769 " fill="none" style="stroke: #383838; stroke-width: 1.0;"/><polygon fill="#383838" points="537.878,574.2229,531.1258,567.053,533.2672,572.2888,528.0313,574.4303,537.878,574.2229" style="stroke: #383838; stroke-width: 1.0;"/><path d="M549.083,574.1169 C533.519,564.6779 514.62,555.0839 496,550.2969 C454.677,539.6729 345.098,538.8329 304,550.2969 C288.497,554.6209 273.001,562.8079 259.777,571.2689 " fill="none" style="stroke: #383838; stroke-width: 1.0;"/><polygon fill="#383838" points="255.382,574.1429,265.1034,572.5635,259.5663,571.4057,260.724,565.8686,255.382,574.1429" style="stroke: #383838; stroke-width: 1.0;"/><path d="M517.763,581.9459 C513.355,581.4579 508.948,581.0969 504.54,580.8649 " fill="none" style="stroke: #383838; stroke-width: 1.0;"/><polygon fill="#383838" points="499.365,580.6499,508.1916,585.0193,504.3607,580.857,508.523,577.0262,499.365,580.6499" style="stroke: #383838; stroke-width: 1.0;"/><path d="M216.814,624.5932 C216.173,634.0833 216.078,645.0496 216.531,654.9738 " fill="none" style="stroke: #383838; stroke-width: 1.0;"/><polygon fill="#383838" points="216.818,660.0552,220.3045,650.8441,216.5363,655.0631,212.3172,651.2949,216.818,660.0552" style="stroke: #383838; stroke-width: 1.0;"/><path d="M229.182,660.0552 C229.826,650.5707 229.922,639.6054 229.472,629.6771 " fill="none" style="stroke: #383838; stroke-width: 1.0;"/><polygon fill="#383838" points="229.186,624.5932,225.6973,633.8034,229.4665,629.5853,233.6847,633.3546,229.186,624.5932" style="stroke: #383838; stroke-width: 1.0;"/><rect fill="#F8F8F8" height="638.2969" rx="12.5" ry="12.5" style="stroke: #383838; stroke-width: 1.5;" width="801" x="720.75" y="206"/><rect fill="#FFFFFF" height="606" rx="12.5" ry="12.5" style="stroke: #FFFFFF; stroke-width: 1.0;" width="795" x="723.75" y="235.2969"/><line style="stroke: #383838; stroke-width: 1.5;" x1="720.75" x2="1521.75" y1="232.2969" y2="232.2969"/><text fill="#000000" font-family="sans-serif" font-size="14" lengthAdjust="spacingAndGlyphs" textLength="103" x="1069.75" y="223.9951">Onglet Agenda</text><rect fill="#F8F8F8" height="50" rx="12.5" ry="12.5" style="stroke: #383838; stroke-width: 1.5;" width="150" x="894.25" y="245.2969"/><line style="stroke: #383838; stroke-width: 1.5;" x1="894.25" x2="1044.25" y1="271.5938" y2="271.5938"/><text fill="#000000" font-family="sans-serif" font-size="14" lengthAdjust="spacingAndGlyphs" textLength="130" x="904.25" y="263.292">Mode Consultation</text><rect fill="#F8F8F8" height="50" rx="12.5" ry="12.5" style="stroke: #383838; stroke-width: 1.5;" width="144" x="731.75" y="245.2969"/><line style="stroke: #383838; stroke-width: 1.5;" x1="731.75" x2="875.75" y1="271.5938" y2="271.5938"/><text fill="#000000" font-family="sans-serif" font-size="14" lengthAdjust="spacingAndGlyphs" textLength="124" x="741.75" y="263.292">Mode Planification</text><ellipse cx="1071.75" cy="270.2969" fill="#000000" rx="10" ry="10" style="stroke: none; stroke-width: 1.0;"/><path d="M1048.66,270.2969 C1052.983,270.2969 1057.306,270.2969 1061.629,270.2969 " fill="none" style="stroke: #383838; stroke-width: 1.0;"/><polygon fill="#383838" points="1043.586,270.2969,1052.586,274.2969,1048.586,270.2969,1052.586,266.2969,1043.586,270.2969" style="stroke: #383838; stroke-width: 1.0;"/><path d="M881.036,288.972 C885.379,289.0967 889.722,289.0656 894.065,288.8786 " fill="none" style="stroke: #383838; stroke-width: 1.0;"/><polygon fill="#383838" points="875.938,288.7539,884.7583,293.1359,880.9334,288.9682,885.1012,285.1433,875.938,288.7539" style="stroke: #383838; stroke-width: 1.0;"/><path d="M875.938,251.8399 C880.281,251.5931 884.624,251.5022 888.967,251.5672 " fill="none" style="stroke: #383838; stroke-width: 1.0;"/><polygon fill="#383838" points="894.065,251.7151,885.1854,247.4545,889.0671,251.5694,884.9523,255.4511,894.065,251.7151" style="stroke: #383838; stroke-width: 1.0;"/><line style="stroke: #383838; stroke-width: 1.5; stroke-dasharray: 8.0,10.0;" x1="725.75" x2="1514.75" y1="305.2969" y2="305.2969"/><ellipse cx="909.75" cy="411.2969" fill="#000000" rx="10" ry="10" style="stroke: none; stroke-width: 1.0;"/><rect fill="#F8F8F8" height="50" rx="12.5" ry="12.5" style="stroke: #383838; stroke-width: 1.5;" width="92" x="863.75" y="459.2969"/><line style="stroke: #383838; stroke-width: 1.5;" x1="863.75" x2="955.75" y1="485.5938" y2="485.5938"/><text fill="#000000" font-family="sans-serif" font-size="14" lengthAdjust="spacingAndGlyphs" textLength="72" x="873.75" y="477.292">Vue Agent</text><rect fill="#F8F8F8" height="50" rx="12.5" ry="12.5" style="stroke: #383838; stroke-width: 1.5;" width="104" x="1086.75" y="459.2969"/><line style="stroke: #383838; stroke-width: 1.5;" x1="1086.75" x2="1190.75" y1="485.5938" y2="485.5938"/><text fill="#000000" font-family="sans-serif" font-size="14" lengthAdjust="spacingAndGlyphs" textLength="84" x="1096.75" y="477.292">Vue Agence</text><rect fill="#F8F8F8" height="50" rx="12.5" ry="12.5" style="stroke: #383838; stroke-width: 1.5;" width="262" x="731.75" y="603.2969"/><line style="stroke: #383838; stroke-width: 1.5;" x1="731.75" x2="993.75" y1="629.5938" y2="629.5938"/><text fill="#000000" font-family="sans-serif" font-size="14" lengthAdjust="spacingAndGlyphs" textLength="242" x="741.75" y="621.292">Popup de consultation d'une tache</text><rect fill="#F8F8F8" height="50" rx="12.5" ry="12.5" style="stroke: #383838; stroke-width: 1.5;" width="179" x="1047.5" y="603.2969"/><line style="stroke: #383838; stroke-width: 1.5;" x1="1047.5" x2="1226.5" y1="629.5938" y2="629.5938"/><text fill="#000000" font-family="sans-serif" font-size="14" lengthAdjust="spacingAndGlyphs" textLength="159" x="1057.5" y="621.292">Popup d'ajout d'activite</text><rect fill="#F8F8F8" height="50" rx="12.5" ry="12.5" style="stroke: #383838; stroke-width: 1.5;" width="288" x="907.75" y="691.2969"/><line style="stroke: #383838; stroke-width: 1.5;" x1="907.75" x2="1195.75" y1="717.5938" y2="717.5938"/><text fill="#000000" font-family="sans-serif" font-size="14" lengthAdjust="spacingAndGlyphs" textLength="268" x="917.75" y="709.292">Popup d'ajout d'un contact commercial</text><rect fill="#F8F8F8" height="50" rx="12.5" ry="12.5" style="stroke: #383838; stroke-width: 1.5;" width="275" x="1214.5" y="691.2969"/><line style="stroke: #383838; stroke-width: 1.5;" x1="1214.5" x2="1489.5" y1="717.5938" y2="717.5938"/><text fill="#000000" font-family="sans-serif" font-size="14" lengthAdjust="spacingAndGlyphs" textLength="255" x="1224.5" y="709.292">Popup d'ajout d'un contact spontane</text><rect fill="#F8F8F8" height="50" rx="12.5" ry="12.5" style="stroke: #383838; stroke-width: 1.5;" width="244" x="929.75" y="779.2969"/><line style="stroke: #383838; stroke-width: 1.5;" x1="929.75" x2="1173.75" y1="805.5938" y2="805.5938"/><text fill="#000000" font-family="sans-serif" font-size="14" lengthAdjust="spacingAndGlyphs" textLength="224" x="939.75" y="797.292">Popup de selection d'un contact</text><rect fill="#F8F8F8" height="50" rx="12.5" ry="12.5" style="stroke: #383838; stroke-width: 1.5;" width="229" x="1237.5" y="779.2969"/><line style="stroke: #383838; stroke-width: 1.5;" x1="1237.5" x2="1466.5" y1="805.5938" y2="805.5938"/><text fill="#000000" font-family="sans-serif" font-size="14" lengthAdjust="spacingAndGlyphs" textLength="209" x="1247.5" y="797.292">Popup de selection d'un client</text><rect fill="#F8F8F8" height="50" rx="12.5" ry="12.5" style="stroke: #383838; stroke-width: 1.5;" width="201" x="1262.5" y="603.2969"/><line style="stroke: #383838; stroke-width: 1.5;" x1="1262.5" x2="1463.5" y1="629.5938" y2="629.5938"/><text fill="#000000" font-family="sans-serif" font-size="14" lengthAdjust="spacingAndGlyphs" textLength="181" x="1272.5" y="621.292">Popup d'ajout d'une tâche</text><rect fill="#F8F8F8" height="50" rx="12.5" ry="12.5" style="stroke: #383838; stroke-width: 1.5;" width="301" x="930.5" y="313.2969"/><line style="stroke: #383838; stroke-width: 1.5;" x1="930.5" x2="1231.5" y1="339.5938" y2="339.5938"/><text fill="#000000" font-family="sans-serif" font-size="14" lengthAdjust="spacingAndGlyphs" textLength="281" x="940.5" y="331.292">Popup de consultation d'un rendez-vous</text><path d="M909.75,421.5789 C909.75,429.7929 909.75,442.2389 909.75,453.8079 " fill="none" style="stroke: #383838; stroke-width: 1.0;"/><polygon fill="#383838" points="909.75,459.0429,913.75,450.0429,909.75,454.0429,905.75,450.0429,909.75,459.0429" style="stroke: #383838; stroke-width: 1.0;"/><path d="M960.926,497.3119 C1002.813,504.8989 1044.699,504.9579 1086.586,497.4899 " fill="none" style="stroke: #383838; stroke-width: 1.0;"/><polygon fill="#383838" points="955.818,496.3499,963.9217,501.9472,960.7315,497.2757,965.403,494.0856,955.818,496.3499" style="stroke: #383838; stroke-width: 1.0;"/><path d="M955.818,472.2439 C997.705,464.0459 1039.591,463.3739 1081.478,470.2309 " fill="none" style="stroke: #383838; stroke-width: 1.0;"/><polygon fill="#383838" points="1086.586,471.1039,1078.3893,465.6436,1081.6576,470.2608,1077.0404,473.5291,1086.586,471.1039" style="stroke: #383838; stroke-width: 1.0;"/><path d="M1138.411,509.3849 C1138.066,533.8649 1137.531,571.8129 1137.162,598.0139 " fill="none" style="stroke: #383838; stroke-width: 1.0;"/><polygon fill="#383838" points="1137.091,603.0899,1141.2192,594.1479,1137.1624,598.0904,1133.22,594.0336,1137.091,603.0899" style="stroke: #383838; stroke-width: 1.0;"/><text fill="#000000" font-family="sans-serif" font-size="13" lengthAdjust="spacingAndGlyphs" textLength="125" x="1139.75" y="560.3638">[Mode Planification]</text><path d="M1226.083,603.1429 C1243.762,594.1629 1260.12,581.9279 1270.75,565.2969 C1292.89,530.6589 1241.092,508.8059 1196.021,496.8539 " fill="none" style="stroke: #383838; stroke-width: 1.0;"/><polygon fill="#383838" points="1191.125,495.5869,1198.8354,501.7146,1195.9655,496.8399,1200.8402,493.9699,1191.125,495.5869" style="stroke: #383838; stroke-width: 1.0;"/><path d="M904.084,509.5879 C901.532,526.9499 901.414,549.8779 913.75,565.2969 C922.325,576.0139 985.264,592.9519 1042.098,606.4169 " fill="none" style="stroke: #383838; stroke-width: 1.0;"/><polygon fill="#383838" points="1047.226,607.6269,1039.3853,601.6667,1042.3597,606.4785,1037.5479,609.4529,1047.226,607.6269" style="stroke: #383838; stroke-width: 1.0;"/><text fill="#000000" font-family="sans-serif" font-size="13" lengthAdjust="spacingAndGlyphs" textLength="125" x="914.75" y="560.3638">[Mode Planification]</text><path d="M1111.962,603.2939 C1093.573,586.2939 1067.354,563.6899 1041.75,547.2969 C1016.257,530.9749 985.785,516.3749 960.545,505.4499 " fill="none" style="stroke: #383838; stroke-width: 1.0;"/><polygon fill="#383838" points="955.895,503.4529,962.5865,510.6795,960.4893,505.4257,965.7431,503.3286,955.895,503.4529" style="stroke: #383838; stroke-width: 1.0;"/><path d="M1191.062,493.4889 C1218.793,499.6109 1252.461,510.0059 1278.75,527.2969 C1306.809,545.7529 1330.52,576.3299 1345.521,598.8229 " fill="none" style="stroke: #383838; stroke-width: 1.0;"/><polygon fill="#383838" points="1348.404,603.2079,1346.803,593.49,1345.6576,599.0297,1340.1179,597.8843,1348.404,603.2079" style="stroke: #383838; stroke-width: 1.0;"/><text fill="#000000" font-family="sans-serif" font-size="13" lengthAdjust="spacingAndGlyphs" textLength="125" x="1319.75" y="560.3638">[Mode Planification]</text><path d="M1418.404,603.1389 C1444.997,588.1939 1467.715,567.9639 1450.75,547.2969 C1419.164,508.8169 1277.32,493.7859 1196.185,488.2609 " fill="none" style="stroke: #383838; stroke-width: 1.0;"/><polygon fill="#383838" points="1190.931,487.9099,1199.6447,492.5002,1195.9199,488.2428,1200.1773,484.5179,1190.931,487.9099" style="stroke: #383838; stroke-width: 1.0;"/><path d="M858.426,598.1969 C860.033,577.6079 865.896,549.7759 876.75,527.2969 C879.598,521.3979 882.939,515.1949 886.462,509.4199 " fill="none" style="stroke: #383838; stroke-width: 1.0;"/><polygon fill="#383838" points="858.108,603.2679,862.6633,594.5358,858.4209,598.2777,854.679,594.0352,858.108,603.2679" style="stroke: #383838; stroke-width: 1.0;"/><path d="M872.34,603.2679 C877.075,582.3629 882.976,551.6809 894.75,527.2969 C896.842,522.9649 899.199,518.4689 901.497,514.0989 " fill="none" style="stroke: #383838; stroke-width: 1.0;"/><polygon fill="#383838" points="903.953,509.4199,896.2279,515.5291,901.6288,513.8468,903.311,519.2478,903.953,509.4199" style="stroke: #383838; stroke-width: 1.0;"/><path d="M1108.417,509.4749 C1089.121,527.0099 1063.202,550.2029 1036.75,565.2969 C1010.723,580.1479 980.577,592.1839 952.738,601.5619 " fill="none" style="stroke: #383838; stroke-width: 1.0;"/><polygon fill="#383838" points="947.931,603.1619,957.7335,604.1159,952.6753,601.5833,955.2078,596.525,947.931,603.1619" style="stroke: #383838; stroke-width: 1.0;"/><path d="M965.025,603.1619 C995.075,593.5679 1027.217,581.0069 1054.75,565.2969 C1079.342,551.2639 1103.473,530.2309 1119.73,513.2529 " fill="none" style="stroke: #383838; stroke-width: 1.0;"/><polygon fill="#383838" points="1123.28,509.4749,1114.2028,513.2966,1119.8569,513.1194,1120.0341,518.7735,1123.28,509.4749" style="stroke: #383838; stroke-width: 1.0;"/><path d="M1042.919,366.5849 C1009.382,393.2789 961.645,433.5429 933.267,459.1159 " fill="none" style="stroke: #383838; stroke-width: 1.0;"/><polygon fill="#383838" points="1046.937,363.3989,1037.3997,365.8564,1043.0192,366.5054,1042.3702,372.1249,1046.937,363.3989" style="stroke: #383838; stroke-width: 1.0;"/><path d="M1057.32,363.3989 C1028.982,388.9429 981.25,429.2049 947.684,455.9259 " fill="none" style="stroke: #383838; stroke-width: 1.0;"/><polygon fill="#383838" points="943.663,459.1159,953.1993,456.6545,947.5796,456.0078,948.2263,450.388,943.663,459.1159" style="stroke: #383838; stroke-width: 1.0;"/><path d="M1134.208,459.1159 C1126.067,434.0619 1110.41,394.9089 1097.939,368.2299 " fill="none" style="stroke: #383838; stroke-width: 1.0;"/><polygon fill="#383838" points="1095.65,363.3989,1095.8897,373.2448,1097.7913,367.9172,1103.1189,369.8187,1095.65,363.3989" style="stroke: #383838; stroke-width: 1.0;"/><path d="M1085.266,363.3989 C1093.391,388.4229 1109.044,427.5749 1121.522,454.2799 " fill="none" style="stroke: #383838; stroke-width: 1.0;"/><polygon fill="#383838" points="1123.813,459.1159,1123.5758,449.2699,1121.6729,454.597,1116.3457,452.6941,1123.813,459.1159" style="stroke: #383838; stroke-width: 1.0;"/><path d="M1106.465,653.7109 C1095.437,664.1489 1083.259,676.3959 1073.138,687.2069 " fill="none" style="stroke: #383838; stroke-width: 1.0;"/><polygon fill="#383838" points="1069.508,691.1199,1078.5626,687.245,1072.9097,687.4553,1072.6994,681.8024,1069.508,691.1199" style="stroke: #383838; stroke-width: 1.0;"/><path d="M1081.785,691.1199 C1092.795,680.7089 1104.98,668.4659 1115.132,657.6319 " fill="none" style="stroke: #383838; stroke-width: 1.0;"/><polygon fill="#383838" points="1118.775,653.7109,1109.718,657.5801,1115.3711,657.3733,1115.5779,663.0264,1118.775,653.7109" style="stroke: #383838; stroke-width: 1.0;"/><path d="M1190.794,653.3669 C1218.076,664.5929 1251.477,677.9699 1280.79,689.4129 " fill="none" style="stroke: #383838; stroke-width: 1.0;"/><polygon fill="#383838" points="1285.458,691.2329,1278.525,684.2376,1280.7993,689.4171,1275.6198,691.6915,1285.458,691.2329" style="stroke: #383838; stroke-width: 1.0;"/><path d="M1297.72,691.2329 C1270.441,680.0069 1237.039,666.6309 1207.725,655.1869 " fill="none" style="stroke: #383838; stroke-width: 1.0;"/><polygon fill="#383838" points="1203.057,653.3669,1209.99,660.3621,1207.7157,655.1826,1212.8952,652.9083,1203.057,653.3669" style="stroke: #383838; stroke-width: 1.0;"/><path d="M1045.595,741.711 C1044.909,751.7825 1044.816,763.5384 1045.317,774.0639 " fill="none" style="stroke: #383838; stroke-width: 1.0;"/><polygon fill="#383838" points="1045.611,779.1194,1049.082,769.9024,1045.3208,774.1278,1041.0955,770.3667,1045.611,779.1194" style="stroke: #383838; stroke-width: 1.0;"/><path d="M1057.889,779.1194 C1058.584,769.0746 1058.686,757.3224 1058.194,746.7777 " fill="none" style="stroke: #383838; stroke-width: 1.0;"/><polygon fill="#383838" points="1057.905,741.711,1054.4245,750.9244,1058.19,746.7028,1062.4115,750.4683,1057.905,741.711" style="stroke: #383838; stroke-width: 1.0;"/><path d="M1345.595,741.711 C1344.909,751.7825 1344.816,763.5384 1345.317,774.0639 " fill="none" style="stroke: #383838; stroke-width: 1.0;"/><polygon fill="#383838" points="1345.611,779.1194,1349.082,769.9024,1345.3208,774.1278,1341.0955,770.3667,1345.611,779.1194" style="stroke: #383838; stroke-width: 1.0;"/><path d="M1357.889,779.1194 C1358.584,769.0746 1358.686,757.3224 1358.194,746.7777 " fill="none" style="stroke: #383838; stroke-width: 1.0;"/><polygon fill="#383838" points="1357.905,741.711,1354.4245,750.9244,1358.19,746.7028,1362.4115,750.4683,1357.905,741.711" style="stroke: #383838; stroke-width: 1.0;"/><rect fill="#F8F8F8" height="400.2969" rx="12.5" ry="12.5" style="stroke: #383838; stroke-width: 1.5;" width="534.5" x="125" y="904"/><rect fill="#FFFFFF" height="368" rx="12.5" ry="12.5" style="stroke: #FFFFFF; stroke-width: 1.0;" width="528.5" x="128" y="933.2969"/><line style="stroke: #383838; stroke-width: 1.5;" x1="125" x2="659.5" y1="930.2969" y2="930.2969"/><text fill="#000000" font-family="sans-serif" font-size="14" lengthAdjust="spacingAndGlyphs" textLength="125" x="329.75" y="921.9951">Onglet Personnes</text><rect fill="#F8F8F8" height="50" rx="12.5" ry="12.5" style="stroke: #383838; stroke-width: 1.5;" width="214" x="343.75" y="943.2969"/><line style="stroke: #383838; stroke-width: 1.5;" x1="343.75" x2="557.75" y1="969.5938" y2="969.5938"/><text fill="#000000" font-family="sans-serif" font-size="14" lengthAdjust="spacingAndGlyphs" textLength="194" x="353.75" y="961.292">Mode personne consultable</text><rect fill="#F8F8F8" height="50" rx="12.5" ry="12.5" style="stroke: #383838; stroke-width: 1.5;" width="189" x="136" y="943.2969"/><line style="stroke: #383838; stroke-width: 1.5;" x1="136" x2="325" y1="969.5938" y2="969.5938"/><text fill="#000000" font-family="sans-serif" font-size="14" lengthAdjust="spacingAndGlyphs" textLength="169" x="146" y="961.292">Mode personne editable</text><ellipse cx="585.25" cy="968.2969" fill="#000000" rx="10" ry="10" style="stroke: none; stroke-width: 1.0;"/><path d="M561.904,968.2969 C566.275,968.2969 570.646,968.2969 575.016,968.2969 " fill="none" style="stroke: #383838; stroke-width: 1.0;"/><polygon fill="#383838" points="556.773,968.2969,565.773,972.2969,561.773,968.2969,565.773,964.2969,556.773,968.2969" style="stroke: #383838; stroke-width: 1.0;"/><path d="M330.019,986.8847 C334.481,987.0262 338.943,987.0751 343.406,987.0314 " fill="none" style="stroke: #383838; stroke-width: 1.0;"/><polygon fill="#383838" points="324.781,986.6761,333.615,991.0304,329.7771,986.8747,333.9328,983.0367,324.781,986.6761" style="stroke: #383838; stroke-width: 1.0;"/><path d="M324.781,949.9177 C329.243,949.7038 333.705,949.5824 338.167,949.5536 " fill="none" style="stroke: #383838; stroke-width: 1.0;"/><polygon fill="#383838" points="343.406,949.5623,334.4117,945.5494,338.406,949.5551,334.4003,953.5494,343.406,949.5623" style="stroke: #383838; stroke-width: 1.0;"/><line style="stroke: #383838; stroke-width: 1.5; stroke-dasharray: 8.0,10.0;" x1="130" x2="652.5" y1="1003.2969" y2="1003.2969"/><rect fill="#F8F8F8" height="50" rx="12.5" ry="12.5" style="stroke: #383838; stroke-width: 1.5;" width="234" x="250.25" y="1067.2969"/><line style="stroke: #383838; stroke-width: 1.5;" x1="250.25" x2="484.25" y1="1093.5938" y2="1093.5938"/><text fill="#000000" font-family="sans-serif" font-size="14" lengthAdjust="spacingAndGlyphs" textLength="214" x="260.25" y="1085.292">Vue de gestion des personnes</text><rect fill="#F8F8F8" height="50" rx="12.5" ry="12.5" style="stroke: #383838; stroke-width: 1.5;" width="243" x="136" y="1153.2969"/><line style="stroke: #383838; stroke-width: 1.5;" x1="136" x2="379" y1="1179.5938" y2="1179.5938"/><text fill="#000000" font-family="sans-serif" font-size="14" lengthAdjust="spacingAndGlyphs" textLength="223" x="146" y="1171.292">Vue de creation d'une personne</text><rect fill="#F8F8F8" height="50" rx="12.5" ry="12.5" style="stroke: #383838; stroke-width: 1.5;" width="161" x="397" y="1153.2969"/><line style="stroke: #383838; stroke-width: 1.5;" x1="397" x2="558" y1="1179.5938" y2="1179.5938"/><text fill="#000000" font-family="sans-serif" font-size="14" lengthAdjust="spacingAndGlyphs" textLength="141" x="407" y="1171.292">Liste des personnes</text><rect fill="#F8F8F8" height="50" rx="12.5" ry="12.5" style="stroke: #383838; stroke-width: 1.5;" width="300" x="327.75" y="1239.2969"/><line style="stroke: #383838; stroke-width: 1.5;" x1="327.75" x2="627.75" y1="1265.5938" y2="1265.5938"/><text fill="#000000" font-family="sans-serif" font-size="14" lengthAdjust="spacingAndGlyphs" textLength="276" x="337.75" y="1257.292">Vue donnant les détails d'une personne</text><ellipse cx="367.25" cy="1021.2969" fill="#000000" rx="10" ry="10" style="stroke: none; stroke-width: 1.0;"/><path d="M367.25,1031.3179 C367.25,1039.1739 367.25,1051.0129 367.25,1062.1019 " fill="none" style="stroke: #383838; stroke-width: 1.0;"/><polygon fill="#383838" points="367.25,1067.1279,371.25,1058.1279,367.25,1062.1279,363.25,1058.1279,367.25,1067.1279" style="stroke: #383838; stroke-width: 1.0;"/><path d="M392.601,1117.3679 C405.249,1127.5609 420.802,1139.4879 435.145,1150.0069 " fill="none" style="stroke: #383838; stroke-width: 1.0;"/><polygon fill="#383838" points="439.553,1153.2219,434.6409,1144.6854,435.5141,1150.2745,429.925,1151.1477,439.553,1153.2219" style="stroke: #383838; stroke-width: 1.0;"/><path d="M451.895,1153.2219 C439.246,1143.0289 423.692,1131.1019 409.35,1120.5839 " fill="none" style="stroke: #383838; stroke-width: 1.0;"/><polygon fill="#383838" points="404.942,1117.3679,409.8556,1125.9035,408.9814,1120.3146,414.5703,1119.4404,404.942,1117.3679" style="stroke: #383838; stroke-width: 1.0;"/><path d="M329.558,1117.3679 C315.51,1127.5609 299.825,1139.4879 286.619,1150.0069 " fill="none" style="stroke: #383838; stroke-width: 1.0;"/><polygon fill="#383838" points="282.605,1153.2219,292.1293,1150.7142,286.5064,1150.0947,287.1258,1144.4719,282.605,1153.2219" style="stroke: #383838; stroke-width: 1.0;"/><path d="M294.947,1153.2219 C308.995,1143.0289 324.68,1131.1019 337.885,1120.5839 " fill="none" style="stroke: #383838; stroke-width: 1.0;"/><polygon fill="#383838" points="341.899,1117.3679,332.3737,1119.8718,337.9963,1120.4934,337.3746,1126.116,341.899,1117.3679" style="stroke: #383838; stroke-width: 1.0;"/><path d="M471.064,1203.5932 C470.423,1213.0833 470.328,1224.0496 470.781,1233.9738 " fill="none" style="stroke: #383838; stroke-width: 1.0;"/><polygon fill="#383838" points="471.068,1239.0552,474.5545,1229.8441,470.7863,1234.0631,466.5672,1230.2949,471.068,1239.0552" style="stroke: #383838; stroke-width: 1.0;"/><path d="M483.432,1239.0552 C484.076,1229.5707 484.172,1218.6054 483.722,1208.6771 " fill="none" style="stroke: #383838; stroke-width: 1.0;"/><polygon fill="#383838" points="483.436,1203.5932,479.9473,1212.8034,483.7165,1208.5853,487.9347,1212.3546,483.436,1203.5932" style="stroke: #383838; stroke-width: 1.0;"/><rect fill="#F8F8F8" height="386.2969" rx="12.5" ry="12.5" style="stroke: #383838; stroke-width: 1.5;" width="773.5" x="720" y="911"/><rect fill="#FFFFFF" height="354" rx="12.5" ry="12.5" style="stroke: #FFFFFF; stroke-width: 1.0;" width="767.5" x="723" y="940.2969"/><line style="stroke: #383838; stroke-width: 1.5;" x1="720" x2="1493.5" y1="937.2969" y2="937.2969"/><text fill="#000000" font-family="sans-serif" font-size="14" lengthAdjust="spacingAndGlyphs" textLength="112" x="1050.75" y="928.9951">Onglet Contacts</text><rect fill="#F8F8F8" height="50" rx="12.5" ry="12.5" style="stroke: #383838; stroke-width: 1.5;" width="146" x="988.25" y="1006.2969"/><line style="stroke: #383838; stroke-width: 1.5;" x1="988.25" x2="1134.25" y1="1032.5938" y2="1032.5938"/><text fill="#000000" font-family="sans-serif" font-size="14" lengthAdjust="spacingAndGlyphs" textLength="126" x="998.25" y="1024.292">Liste des contacts</text><rect fill="#F8F8F8" height="50" rx="12.5" ry="12.5" style="stroke: #383838; stroke-width: 1.5;" width="239" x="731" y="1006.2969"/><line style="stroke: #383838; stroke-width: 1.5;" x1="731" x2="970" y1="1032.5938" y2="1032.5938"/><text fill="#000000" font-family="sans-serif" font-size="14" lengthAdjust="spacingAndGlyphs" textLength="215" x="741" y="1024.292">Popup motif annulation contact</text><rect fill="#F8F8F8" height="50" rx="12.5" ry="12.5" style="stroke: #383838; stroke-width: 1.5;" width="308" x="1152.25" y="1006.2969"/><line style="stroke: #383838; stroke-width: 1.5;" x1="1152.25" x2="1460.25" y1="1032.5938" y2="1032.5938"/><text fill="#000000" font-family="sans-serif" font-size="14" lengthAdjust="spacingAndGlyphs" textLength="288" x="1162.25" y="1024.292">Popup d'affectation d'un agent au contact</text><ellipse cx="1061.25" cy="960.2969" fill="#000000" rx="10" ry="10" style="stroke: none; stroke-width: 1.0;"/><rect fill="#F8F8F8" height="190.2969" rx="12.5" ry="12.5" style="stroke: #383838; stroke-width: 1.5;" width="426.5" x="848.75" y="1092.2969"/><rect fill="#FFFFFF" height="158" rx="12.5" ry="12.5" style="stroke: #FFFFFF; stroke-width: 1.0;" width="420.5" x="851.75" y="1121.5938"/><line style="stroke: #383838; stroke-width: 1.5;" x1="848.75" x2="1275.25" y1="1118.5938" y2="1118.5938"/><text fill="#000000" font-family="sans-serif" font-size="14" lengthAdjust="spacingAndGlyphs" textLength="85" x="1019.5" y="1110.292">Vue Contact</text><rect fill="#F8F8F8" height="50" rx="12.5" ry="12.5" style="stroke: #383838; stroke-width: 1.5;" width="153" x="1050.75" y="1131.5938"/><line style="stroke: #383838; stroke-width: 1.5;" x1="1050.75" x2="1203.75" y1="1157.8906" y2="1157.8906"/><text fill="#000000" font-family="sans-serif" font-size="14" lengthAdjust="spacingAndGlyphs" textLength="129" x="1060.75" y="1149.5889">Onglet preparation</text><rect fill="#F8F8F8" height="50" rx="12.5" ry="12.5" style="stroke: #383838; stroke-width: 1.5;" width="173" x="859.75" y="1131.5938"/><line style="stroke: #383838; stroke-width: 1.5;" x1="859.75" x2="1032.75" y1="1157.8906" y2="1157.8906"/><text fill="#000000" font-family="sans-serif" font-size="14" lengthAdjust="spacingAndGlyphs" textLength="149" x="869.75" y="1149.5889">Onglet compte-rendu</text><rect fill="#F8F8F8" height="50" rx="12.5" ry="12.5" style="stroke: #383838; stroke-width: 1.5;" width="193" x="1030.75" y="1217.5938"/><line style="stroke: #383838; stroke-width: 1.5;" x1="1030.75" x2="1223.75" y1="1243.8906" y2="1243.8906"/><text fill="#000000" font-family="sans-serif" font-size="14" lengthAdjust="spacingAndGlyphs" textLength="173" x="1040.75" y="1235.5889">Popup d'ajout d'une offre</text><ellipse cx="1232" cy="1156.5938" fill="#000000" rx="10" ry="10" style="stroke: none; stroke-width: 1.0;"/><path d="M1208.462,1156.5938 C1212.869,1156.5938 1217.275,1156.5938 1221.682,1156.5938 " fill="none" style="stroke: #383838; stroke-width: 1.0;"/><polygon fill="#383838" points="1203.289,1156.5938,1212.289,1160.5938,1208.289,1156.5938,1212.289,1152.5938,1203.289,1156.5938" style="stroke: #383838; stroke-width: 1.0;"/><path d="M1037.358,1175.3421 C1041.703,1175.325 1046.047,1175.1783 1050.392,1174.902 " fill="none" style="stroke: #383838; stroke-width: 1.0;"/><polygon fill="#383838" points="1032.258,1175.3025,1041.2269,1179.3719,1037.2579,1175.3411,1041.2886,1171.3721,1032.258,1175.3025" style="stroke: #383838; stroke-width: 1.0;"/><path d="M1032.258,1137.8848 C1036.602,1137.8007 1040.947,1137.8458 1045.292,1138.0208 " fill="none" style="stroke: #383838; stroke-width: 1.0;"/><polygon fill="#383838" points="1050.392,1138.2858,1041.6122,1133.8231,1045.3988,1138.0257,1041.1962,1141.8123,1050.392,1138.2858" style="stroke: #383838; stroke-width: 1.0;"/><path d="M1120.814,1181.8901 C1120.173,1191.3802 1120.078,1202.3465 1120.531,1212.2707 " fill="none" style="stroke: #383838; stroke-width: 1.0;"/><polygon fill="#383838" points="1120.818,1217.3521,1124.3045,1208.141,1120.5363,1212.36,1116.3172,1208.5918,1120.818,1217.3521" style="stroke: #383838; stroke-width: 1.0;"/><path d="M1133.182,1217.3521 C1133.826,1207.8676 1133.922,1196.9023 1133.472,1186.974 " fill="none" style="stroke: #383838; stroke-width: 1.0;"/><polygon fill="#383838" points="1133.186,1181.8901,1129.6973,1191.1003,1133.4665,1186.8822,1137.6847,1190.6514,1133.186,1181.8901" style="stroke: #383838; stroke-width: 1.0;"/><path d="M1061.25,970.3179 C1061.25,978.1739 1061.25,990.0129 1061.25,1001.1019 " fill="none" style="stroke: #383838; stroke-width: 1.0;"/><polygon fill="#383838" points="1061.25,1006.1279,1065.25,997.1279,1061.25,1001.1279,1057.25,997.1279,1061.25,1006.1279" style="stroke: #383838; stroke-width: 1.0;"/><path d="M1056.188,1056.3589 C1055.502,1065.1629 1055.025,1075.7549 1054.757,1087.0459 " fill="none" style="stroke: #383838; stroke-width: 1.0;"/><polygon fill="#383838" points="1054.649,1092.2779,1058.8359,1083.3633,1054.7533,1087.279,1050.8376,1083.1964,1054.649,1092.2779" style="stroke: #383838; stroke-width: 1.0;"/><path d="M1067.851,1092.2779 C1067.655,1081.2129 1067.264,1070.6409 1066.679,1061.5409 " fill="none" style="stroke: #383838; stroke-width: 1.0;"/><polygon fill="#383838" points="1066.312,1056.3589,1062.9598,1065.6197,1066.6663,1061.3463,1070.9397,1065.0528,1066.312,1056.3589" style="stroke: #383838; stroke-width: 1.0;"/><path d="M974.888,1049.4299 C979.255,1049.1479 983.621,1048.7709 987.988,1048.2959 " fill="none" style="stroke: #383838; stroke-width: 1.0;"/><polygon fill="#383838" points="969.762,1049.7159,978.9718,1053.2057,974.7542,1049.4359,978.5239,1045.2182,969.762,1049.7159" style="stroke: #383838; stroke-width: 1.0;"/><path d="M969.762,1012.8779 C974.128,1013.0839 978.495,1013.3859 982.862,1013.7849 " fill="none" style="stroke: #383838; stroke-width: 1.0;"/><polygon fill="#383838" points="987.988,1014.2979,979.4303,1009.4229,983.0128,1013.8008,978.6349,1017.3833,987.988,1014.2979" style="stroke: #383838; stroke-width: 1.0;"/><path d="M1134.463,1047.0119 C1138.723,1047.5359 1142.984,1047.9929 1147.244,1048.3819 " fill="none" style="stroke: #383838; stroke-width: 1.0;"/><polygon fill="#383838" points="1152.246,1048.8069,1143.6179,1044.0575,1147.264,1048.3825,1142.939,1052.0286,1152.246,1048.8069" style="stroke: #383838; stroke-width: 1.0;"/><path d="M1152.246,1013.7869 C1147.985,1014.1229 1143.725,1014.5259 1139.464,1014.9979 " fill="none" style="stroke: #383838; stroke-width: 1.0;"/><polygon fill="#383838" points="1134.463,1015.5819,1143.8662,1018.5111,1139.4293,1015.002,1142.9383,1010.5651,1134.463,1015.5819" style="stroke: #383838; stroke-width: 1.0;"/><rect fill="#F8F8F8" height="50" rx="12.5" ry="12.5" style="stroke: #383838; stroke-width: 1.5;" width="177" x="1032.75" y="88"/><line style="stroke: #383838; stroke-width: 1.5;" x1="1032.75" x2="1209.75" y1="114.2969" y2="114.2969"/><text fill="#000000" font-family="sans-serif" font-size="14" lengthAdjust="spacingAndGlyphs" textLength="157" x="1042.75" y="105.9951">Page d'authentification</text><ellipse cx="1121" cy="18" fill="#000000" rx="10" ry="10" style="stroke: none; stroke-width: 1.0;"/><ellipse cx="38" cy="113" fill="none" rx="10" ry="10" style="stroke: #000000; stroke-width: 1.0;"/><ellipse cx="38.5" cy="113.5" fill="#000000" rx="6" ry="6" style="stroke: none; stroke-width: 1.0;"/><path d="M1121,28.26 C1121,40.86 1121,63.98 1121,82.74 " fill="none" style="stroke: #383838; stroke-width: 1.0;"/><polygon fill="#383838" points="1121,87.91,1125,78.91,1121,82.91,1117,78.91,1121,87.91" style="stroke: #383838; stroke-width: 1.0;"/><path d="M1121,138.12 C1121,153.48 1121,175.28 1121,200.78 " fill="none" style="stroke: #383838; stroke-width: 1.0;"/><polygon fill="#383838" points="1121,205.93,1125,196.93,1121,200.93,1117,196.93,1121,205.93" style="stroke: #383838; stroke-width: 1.0;"/><path d="M685.147,379.584 C695.175,378.166 705.203,377.077 715.231,376.317 " fill="none" style="stroke: #383838; stroke-width: 1.0;"/><polygon fill="#383838" points="720.475,375.95,711.217,372.5899,715.4873,376.3,711.7771,380.5703,720.475,375.95" style="stroke: #383838; stroke-width: 1.0;"/><path d="M720.475,674.05 C710.355,673.399 700.235,672.413 690.115,671.092 " fill="none" style="stroke: #383838; stroke-width: 1.0;"/><polygon fill="#383838" points="685.147,670.416,693.5254,675.5932,690.1013,671.0903,694.6042,667.6663,685.147,670.416" style="stroke: #383838; stroke-width: 1.0;"/><path d="M371.299,725.379 C371.839,781.346 373.191,842.275 375.137,898.533 " fill="none" style="stroke: #383838; stroke-width: 1.0;"/><polygon fill="#383838" points="375.315,903.613,378.9962,894.478,375.1392,898.6161,371.0011,894.7592,375.315,903.613" style="stroke: #383838; stroke-width: 1.0;"/><path d="M400.418,903.613 C399.92,847.646 398.57,786.717 396.584,730.459 " fill="none" style="stroke: #383838; stroke-width: 1.0;"/><polygon fill="#383838" points="396.402,725.379,392.726,734.5161,396.5806,730.3758,400.7209,734.2304,396.402,725.379" style="stroke: #383838; stroke-width: 1.0;"/><path d="M552.554,725.353 C594.71,766.298 640.704,807.887 686,844 C713.165,865.658 742.199,887.131 771.847,907.907 " fill="none" style="stroke: #383838; stroke-width: 1.0;"/><polygon fill="#383838" points="776.225,910.967,771.1392,902.5328,772.1266,908.1029,766.5566,909.0902,776.225,910.967" style="stroke: #383838; stroke-width: 1.0;"/><path d="M811.05,910.967 C780.06,889.243 749.501,866.723 721,844 C677.031,808.945 632.404,768.73 590.512,728.953 " fill="none" style="stroke: #383838; stroke-width: 1.0;"/><polygon fill="#383838" points="586.726,725.353,590.4907,734.4539,590.349,728.7988,596.0041,728.6571,586.726,725.353" style="stroke: #383838; stroke-width: 1.0;"/><path d="M720.561,832.872 C691.596,855.843 662.936,878.659 635.322,900.732 " fill="none" style="stroke: #383838; stroke-width: 1.0;"/><polygon fill="#383838" points="631.255,903.983,640.7828,901.4889,635.1609,900.8614,635.7883,895.2395,631.255,903.983" style="stroke: #383838; stroke-width: 1.0;"/><path d="M656.603,903.785 C680.084,885.398 704.164,866.475 728.41,847.356 " fill="none" style="stroke: #383838; stroke-width: 1.0;"/><polygon fill="#383838" points="732.62,844.036,723.0761,846.468,728.6939,847.132,728.0298,852.7498,732.62,844.036" style="stroke: #383838; stroke-width: 1.0;"/><path d="M1100.59,844.036 C1100.17,864.99 1099.84,885.733 1099.62,905.818 " fill="none" style="stroke: #383838; stroke-width: 1.0;"/><polygon fill="#383838" points="1099.57,910.91,1103.6675,901.954,1099.6243,905.9103,1095.6679,901.8671,1099.57,910.91" style="stroke: #383838; stroke-width: 1.0;"/><path d="M1124.47,910.91 C1125.25,890.855 1125.96,870.098 1126.57,849.093 " fill="none" style="stroke: #383838; stroke-width: 1.0;"/><polygon fill="#383838" points="1126.72,844.036,1122.4613,852.9165,1126.5754,849.0339,1130.458,853.1479,1126.72,844.036" style="stroke: #383838; stroke-width: 1.0;"/><path d="M659.078,1244.404 C677.603,1248.336 696.129,1251.06 714.654,1252.5749 " fill="none" style="stroke: #383838; stroke-width: 1.0;"/><polygon fill="#383838" points="719.88,1252.9703,711.2074,1248.3028,714.8942,1252.5932,710.6039,1256.28,719.88,1252.9703" style="stroke: #383838; stroke-width: 1.0;"/><path d="M719.88,955.03 C701.354,956.318 682.828,958.814 664.303,962.519 " fill="none" style="stroke: #383838; stroke-width: 1.0;"/><polygon fill="#383838" points="659.078,963.596,668.7005,965.6956,663.9749,962.586,667.0845,957.8605,659.078,963.596" style="stroke: #383838; stroke-width: 1.0;"/><path d="M38,128.47 C38,136.79 38,148.37 38,162.37 " fill="none" style="stroke: #383838; stroke-width: 1.0;"/><polygon fill="#383838" points="38,123.33,34,132.33,38,128.33,42,132.33,38,123.33" style="stroke: #383838; stroke-width: 1.0;"/></g></svg>