<?xml version="1.0" encoding="UTF-8" standalone="yes"?><svg xmlns="http://www.w3.org/2000/svg" xmlns:xlink="http://www.w3.org/1999/xlink" height="1307px" style="width:1314px;height:1307px;" version="1.1" viewBox="0 0 1314 1307" width="1314px"><defs/><g><rect fill="#F8F8F8" height="1144" rx="12.5" ry="12.5" style="stroke: #383838; stroke-width: 1.5;" width="1283" x="30" y="162"/><rect fill="#FFFFFF" height="1111.7031" rx="12.5" ry="12.5" style="stroke: #FFFFFF; stroke-width: 1.0;" width="1277" x="33" y="191.2969"/><line style="stroke: #383838; stroke-width: 1.5;" x1="30" x2="1313" y1="188.2969" y2="188.2969"/><text fill="#000000" font-family="sans-serif" font-size="14" lengthAdjust="spacingAndGlyphs" textLength="75" x="634" y="178.9951">Application</text><rect fill="#F8F8F8" height="246.2969" rx="12.5" ry="12.5" style="stroke: #383838; stroke-width: 1.5;" width="344" x="225" y="966"/><rect fill="#FFFFFF" height="214" rx="12.5" ry="12.5" style="stroke: #FFFFFF; stroke-width: 1.0;" width="338" x="228" y="995.2969"/><line style="stroke: #383838; stroke-width: 1.5;" x1="225" x2="569" y1="992.2969" y2="992.2969"/><text fill="#000000" font-family="sans-serif" font-size="14" lengthAdjust="spacingAndGlyphs" textLength="125" x="334.5" y="983.9951">Onglet Personnes</text><rect fill="#F8F8F8" height="50" rx="12.5" ry="12.5" style="stroke: #383838; stroke-width: 1.5;" width="161" x="305.5" y="1061.2969"/><line style="stroke: #383838; stroke-width: 1.5;" x1="305.5" x2="466.5" y1="1087.5938" y2="1087.5938"/><text fill="#000000" font-family="sans-serif" font-size="14" lengthAdjust="spacingAndGlyphs" textLength="141" x="315.5" y="1079.292">Liste des personnes</text><rect fill="#F8F8F8" height="50" rx="12.5" ry="12.5" style="stroke: #383838; stroke-width: 1.5;" width="300" x="236" y="1147.2969"/><line style="stroke: #383838; stroke-width: 1.5;" x1="236" x2="536" y1="1173.5938" y2="1173.5938"/><text fill="#000000" font-family="sans-serif" font-size="14" lengthAdjust="spacingAndGlyphs" textLength="276" x="246" y="1165.292">Vue donnant les détails d'une personne</text><ellipse cx="386" cy="1015.2969" fill="#000000" rx="10" ry="10" style="stroke: none; stroke-width: 1.0;"/><path d="M386,1025.3179 C386,1033.1739 386,1045.0129 386,1056.1019 " fill="none" style="stroke: #383838; stroke-width: 1.0;"/><polygon fill="#383838" points="386,1061.1279,390,1052.1279,386,1056.1279,382,1052.1279,386,1061.1279" style="stroke: #383838; stroke-width: 1.0;"/><path d="M379.814,1111.5932 C379.173,1121.0833 379.078,1132.0496 379.531,1141.9738 " fill="none" style="stroke: #383838; stroke-width: 1.0;"/><polygon fill="#383838" points="379.818,1147.0552,383.3045,1137.8441,379.5363,1142.0631,375.3172,1138.2949,379.818,1147.0552" style="stroke: #383838; stroke-width: 1.0;"/><path d="M392.182,1147.0552 C392.826,1137.5707 392.922,1126.6054 392.472,1116.6771 " fill="none" style="stroke: #383838; stroke-width: 1.0;"/><polygon fill="#383838" points="392.186,1111.5932,388.6973,1120.8034,392.4665,1116.5853,396.6847,1120.3546,392.186,1111.5932" style="stroke: #383838; stroke-width: 1.0;"/><rect fill="#F8F8F8" height="314.2969" rx="12.5" ry="12.5" style="stroke: #383838; stroke-width: 1.5;" width="533" x="73.5" y="363.5"/><rect fill="#FFFFFF" height="282" rx="12.5" ry="12.5" style="stroke: #FFFFFF; stroke-width: 1.0;" width="527" x="76.5" y="392.7969"/><line style="stroke: #383838; stroke-width: 1.5;" x1="73.5" x2="606.5" y1="389.7969" y2="389.7969"/><text fill="#000000" font-family="sans-serif" font-size="14" lengthAdjust="spacingAndGlyphs" textLength="89" x="295.5" y="381.4951">Onglet Client</text><rect fill="#F8F8F8" height="50" rx="12.5" ry="12.5" style="stroke: #383838; stroke-width: 1.5;" width="136" x="304.5" y="402.7969"/><line style="stroke: #383838; stroke-width: 1.5;" x1="304.5" x2="440.5" y1="429.0938" y2="429.0938"/><text fill="#000000" font-family="sans-serif" font-size="14" lengthAdjust="spacingAndGlyphs" textLength="112" x="314.5" y="420.792">Dossier Editable</text><rect fill="#F8F8F8" height="50" rx="12.5" ry="12.5" style="stroke: #383838; stroke-width: 1.5;" width="164" x="122.5" y="402.7969"/><line style="stroke: #383838; stroke-width: 1.5;" x1="122.5" x2="286.5" y1="429.0938" y2="429.0938"/><text fill="#000000" font-family="sans-serif" font-size="14" lengthAdjust="spacingAndGlyphs" textLength="144" x="132.5" y="420.792">Dossier Non Editable</text><ellipse cx="94.5" cy="427.7969" fill="#000000" rx="10" ry="10" style="stroke: none; stroke-width: 1.0;"/><path d="M104.8125,427.7969 C108.9195,427.7969 113.0265,427.7969 117.1335,427.7969 " fill="none" style="stroke: #383838; stroke-width: 1.0;"/><polygon fill="#383838" points="122.3357,427.7969,113.3357,423.7969,117.3357,427.7969,113.3357,431.7969,122.3357,427.7969" style="stroke: #383838; stroke-width: 1.0;"/><path d="M291.537,446.5224 C295.801,446.4535 300.065,446.2398 304.329,445.881 " fill="none" style="stroke: #383838; stroke-width: 1.0;"/><polygon fill="#383838" points="286.531,446.5366,295.5424,450.5108,291.531,446.5223,295.5195,442.5109,286.531,446.5366" style="stroke: #383838; stroke-width: 1.0;"/><path d="M286.531,409.0572 C290.795,409.0126 295.06,409.1129 299.324,409.3582 " fill="none" style="stroke: #383838; stroke-width: 1.0;"/><polygon fill="#383838" points="304.329,409.7127,295.6351,405.085,299.3416,409.3584,295.0682,413.0649,304.329,409.7127" style="stroke: #383838; stroke-width: 1.0;"/><line style="stroke: #383838; stroke-width: 1.5; stroke-dasharray: 8.0,10.0;" x1="78.5" x2="599.5" y1="462.7969" y2="462.7969"/><rect fill="#F8F8F8" height="50" rx="12.5" ry="12.5" style="stroke: #383838; stroke-width: 1.5;" width="193" x="224.5" y="526.7969"/><line style="stroke: #383838; stroke-width: 1.5;" x1="224.5" x2="417.5" y1="553.0938" y2="553.0938"/><text fill="#000000" font-family="sans-serif" font-size="14" lengthAdjust="spacingAndGlyphs" textLength="173" x="234.5" y="544.792">Resultat recherche client</text><rect fill="#F8F8F8" height="50" rx="12.5" ry="12.5" style="stroke: #383838; stroke-width: 1.5;" width="199" x="221.5" y="612.7969"/><line style="stroke: #383838; stroke-width: 1.5;" x1="221.5" x2="420.5" y1="639.0938" y2="639.0938"/><text fill="#000000" font-family="sans-serif" font-size="14" lengthAdjust="spacingAndGlyphs" textLength="179" x="231.5" y="630.792">Onglet Bilan dossier client</text><rect fill="#F8F8F8" height="50" rx="12.5" ry="12.5" style="stroke: #383838; stroke-width: 1.5;" width="119" x="84.5" y="612.7969"/><line style="stroke: #383838; stroke-width: 1.5;" x1="84.5" x2="203.5" y1="639.0938" y2="639.0938"/><text fill="#000000" font-family="sans-serif" font-size="14" lengthAdjust="spacingAndGlyphs" textLength="99" x="94.5" y="630.792">Onglet Produit</text><rect fill="#F8F8F8" height="50" rx="12.5" ry="12.5" style="stroke: #383838; stroke-width: 1.5;" width="134" x="439" y="612.7969"/><line style="stroke: #383838; stroke-width: 1.5;" x1="439" x2="573" y1="639.0938" y2="639.0938"/><text fill="#000000" font-family="sans-serif" font-size="14" lengthAdjust="spacingAndGlyphs" textLength="114" x="449" y="630.792">Onglet Relations</text><ellipse cx="321" cy="480.7969" fill="#000000" rx="10" ry="10" style="stroke: none; stroke-width: 1.0;"/><path d="M321,490.8179 C321,498.6739 321,510.5129 321,521.6019 " fill="none" style="stroke: #383838; stroke-width: 1.0;"/><polygon fill="#383838" points="321,526.6279,325,517.6279,321,521.6279,317,517.6279,321,526.6279" style="stroke: #383838; stroke-width: 1.0;"/><path d="M321,577.0932 C321,586.5833 321,597.5496 321,607.4738 " fill="none" style="stroke: #383838; stroke-width: 1.0;"/><polygon fill="#383838" points="321,612.5552,325,603.5552,321,607.5552,317,603.5552,321,612.5552" style="stroke: #383838; stroke-width: 1.0;"/><path d="M208.971,655.2216 C213.048,655.6809 217.125,656.0208 221.203,656.2413 " fill="none" style="stroke: #383838; stroke-width: 1.0;"/><polygon fill="#383838" points="203.807,654.5759,212.2415,659.661,208.7684,655.1959,213.2335,651.7228,203.807,654.5759" style="stroke: #383838; stroke-width: 1.0;"/><path d="M420.727,656.4324 C425.036,656.2959 429.346,656.0374 433.655,655.6567 " fill="none" style="stroke: #383838; stroke-width: 1.0;"/><polygon fill="#383838" points="438.714,655.1537,429.3618,652.0657,433.7386,655.6494,430.1549,660.0263,438.714,655.1537" style="stroke: #383838; stroke-width: 1.0;"/><path d="M203.807,621.0179 C207.884,620.4577 211.961,620.017 216.038,619.6956 " fill="none" style="stroke: #383838; stroke-width: 1.0;"/><polygon fill="#383838" points="221.203,619.3524,211.9567,615.9604,216.2141,619.6852,212.4892,623.9426,221.203,619.3524" style="stroke: #383838; stroke-width: 1.0;"/><path d="M186.359,612.7394 C196.7,607.8091 207.971,603.3694 219,600.7969 C263.365,590.449 379.464,591.2143 424,600.7969 C434.235,602.9991 444.732,606.5848 454.652,610.6785 " fill="none" style="stroke: #383838; stroke-width: 1.0;"/><polygon fill="#383838" points="459.472,612.7251,452.7514,605.5256,454.8697,610.7708,449.6245,612.8892,459.472,612.7251" style="stroke: #383838; stroke-width: 1.0;"/><path d="M470.524,612.6201 C455.141,603.1811 436.449,593.5869 418,588.7969 C376.488,578.0186 266.312,577.2736 225,588.7969 C209.497,593.1213 194.001,601.3077 180.7768,609.7684 " fill="none" style="stroke: #383838; stroke-width: 1.0;"/><polygon fill="#383838" points="176.3822,612.6431,186.1036,611.0638,180.5665,609.906,181.7243,604.3689,176.3822,612.6431" style="stroke: #383838; stroke-width: 1.0;"/><path d="M438.714,620.4401 C434.404,619.9638 430.095,619.6097 425.786,619.3777 " fill="none" style="stroke: #383838; stroke-width: 1.0;"/><polygon fill="#383838" points="420.727,619.1613,429.5473,623.5433,425.7224,619.3756,429.8902,615.5507,420.727,619.1613" style="stroke: #383838; stroke-width: 1.0;"/><rect fill="#F8F8F8" height="631.2969" rx="12.5" ry="12.5" style="stroke: #383838; stroke-width: 1.5;" width="647" x="641.5" y="205"/><rect fill="#FFFFFF" height="599" rx="12.5" ry="12.5" style="stroke: #FFFFFF; stroke-width: 1.0;" width="641" x="644.5" y="234.2969"/><line style="stroke: #383838; stroke-width: 1.5;" x1="641.5" x2="1288.5" y1="231.2969" y2="231.2969"/><text fill="#000000" font-family="sans-serif" font-size="14" lengthAdjust="spacingAndGlyphs" textLength="103" x="913.5" y="222.9951">Onglet Agenda</text><rect fill="#F8F8F8" height="50" rx="12.5" ry="12.5" style="stroke: #383838; stroke-width: 1.5;" width="150" x="814.5" y="244.2969"/><line style="stroke: #383838; stroke-width: 1.5;" x1="814.5" x2="964.5" y1="270.5938" y2="270.5938"/><text fill="#000000" font-family="sans-serif" font-size="14" lengthAdjust="spacingAndGlyphs" textLength="130" x="824.5" y="262.292">Mode Consultation</text><rect fill="#F8F8F8" height="50" rx="12.5" ry="12.5" style="stroke: #383838; stroke-width: 1.5;" width="144" x="652.5" y="244.2969"/><line style="stroke: #383838; stroke-width: 1.5;" x1="652.5" x2="796.5" y1="270.5938" y2="270.5938"/><text fill="#000000" font-family="sans-serif" font-size="14" lengthAdjust="spacingAndGlyphs" textLength="124" x="662.5" y="262.292">Mode Planification</text><ellipse cx="992.5" cy="269.2969" fill="#000000" rx="10" ry="10" style="stroke: none; stroke-width: 1.0;"/><path d="M969.889,269.2969 C973.956,269.2969 978.023,269.2969 982.089,269.2969 " fill="none" style="stroke: #383838; stroke-width: 1.0;"/><polygon fill="#383838" points="964.738,269.2969,973.738,273.2969,969.738,269.2969,973.738,265.2969,964.738,269.2969" style="stroke: #383838; stroke-width: 1.0;"/><path d="M801.684,287.969 C805.94,288.0937 810.196,288.0686 814.452,287.8939 " fill="none" style="stroke: #383838; stroke-width: 1.0;"/><polygon fill="#383838" points="796.688,287.7539,805.5083,292.1359,801.6834,287.9682,805.8512,284.1433,796.688,287.7539" style="stroke: #383838; stroke-width: 1.0;"/><path d="M796.688,250.8399 C800.851,250.6033 805.015,250.51 809.178,250.56 " fill="none" style="stroke: #383838; stroke-width: 1.0;"/><polygon fill="#383838" points="814.452,250.6999,805.5615,246.4621,809.4538,250.567,805.3489,254.4593,814.452,250.6999" style="stroke: #383838; stroke-width: 1.0;"/><line style="stroke: #383838; stroke-width: 1.5; stroke-dasharray: 8.0,10.0;" x1="646.5" x2="1281.5" y1="304.2969" y2="304.2969"/><ellipse cx="866.5" cy="409.2969" fill="#000000" rx="10" ry="10" style="stroke: none; stroke-width: 1.0;"/><rect fill="#F8F8F8" height="50" rx="12.5" ry="12.5" style="stroke: #383838; stroke-width: 1.5;" width="92" x="773.5" y="456.2969"/><line style="stroke: #383838; stroke-width: 1.5;" x1="773.5" x2="865.5" y1="482.5938" y2="482.5938"/><text fill="#000000" font-family="sans-serif" font-size="14" lengthAdjust="spacingAndGlyphs" textLength="72" x="783.5" y="474.292">Vue Agent</text><rect fill="#F8F8F8" height="50" rx="12.5" ry="12.5" style="stroke: #383838; stroke-width: 1.5;" width="104" x="937.5" y="456.2969"/><line style="stroke: #383838; stroke-width: 1.5;" x1="937.5" x2="1041.5" y1="482.5938" y2="482.5938"/><text fill="#000000" font-family="sans-serif" font-size="14" lengthAdjust="spacingAndGlyphs" textLength="84" x="947.5" y="474.292">Vue Agence</text><rect fill="#F8F8F8" height="50" rx="12.5" ry="12.5" style="stroke: #383838; stroke-width: 1.5;" width="262" x="754.5" y="312.2969"/><line style="stroke: #383838; stroke-width: 1.5;" x1="754.5" x2="1016.5" y1="338.5938" y2="338.5938"/><text fill="#000000" font-family="sans-serif" font-size="14" lengthAdjust="spacingAndGlyphs" textLength="242" x="764.5" y="330.292">Popup de consultation d'une tache</text><rect fill="#F8F8F8" height="50" rx="12.5" ry="12.5" style="stroke: #383838; stroke-width: 1.5;" width="179" x="792" y="597.2969"/><line style="stroke: #383838; stroke-width: 1.5;" x1="792" x2="971" y1="623.5938" y2="623.5938"/><text fill="#000000" font-family="sans-serif" font-size="14" lengthAdjust="spacingAndGlyphs" textLength="159" x="802" y="615.292">Popup d'ajout d'activite</text><rect fill="#F8F8F8" height="50" rx="12.5" ry="12.5" style="stroke: #383838; stroke-width: 1.5;" width="288" x="652.5" y="684.2969"/><line style="stroke: #383838; stroke-width: 1.5;" x1="652.5" x2="940.5" y1="710.5938" y2="710.5938"/><text fill="#000000" font-family="sans-serif" font-size="14" lengthAdjust="spacingAndGlyphs" textLength="268" x="662.5" y="702.292">Popup d'ajout d'un contact commercial</text><rect fill="#F8F8F8" height="50" rx="12.5" ry="12.5" style="stroke: #383838; stroke-width: 1.5;" width="275" x="959" y="684.2969"/><line style="stroke: #383838; stroke-width: 1.5;" x1="959" x2="1234" y1="710.5938" y2="710.5938"/><text fill="#000000" font-family="sans-serif" font-size="14" lengthAdjust="spacingAndGlyphs" textLength="255" x="969" y="702.292">Popup d'ajout d'un contact spontane</text><rect fill="#F8F8F8" height="50" rx="12.5" ry="12.5" style="stroke: #383838; stroke-width: 1.5;" width="244" x="674.5" y="771.2969"/><line style="stroke: #383838; stroke-width: 1.5;" x1="674.5" x2="918.5" y1="797.5938" y2="797.5938"/><text fill="#000000" font-family="sans-serif" font-size="14" lengthAdjust="spacingAndGlyphs" textLength="224" x="684.5" y="789.292">Popup de selection d'un contact</text><rect fill="#F8F8F8" height="50" rx="12.5" ry="12.5" style="stroke: #383838; stroke-width: 1.5;" width="229" x="982" y="771.2969"/><line style="stroke: #383838; stroke-width: 1.5;" x1="982" x2="1211" y1="797.5938" y2="797.5938"/><text fill="#000000" font-family="sans-serif" font-size="14" lengthAdjust="spacingAndGlyphs" textLength="209" x="992" y="789.292">Popup de selection d'un client</text><rect fill="#F8F8F8" height="50" rx="12.5" ry="12.5" style="stroke: #383838; stroke-width: 1.5;" width="201" x="1024" y="597.2969"/><line style="stroke: #383838; stroke-width: 1.5;" x1="1024" x2="1225" y1="623.5938" y2="623.5938"/><text fill="#000000" font-family="sans-serif" font-size="14" lengthAdjust="spacingAndGlyphs" textLength="181" x="1034" y="615.292">Popup d'ajout d'une tâche</text><path d="M861.291,418.0559 C855.841,426.1719 846.958,439.4019 838.78,451.5819 " fill="none" style="stroke: #383838; stroke-width: 1.0;"/><polygon fill="#383838" points="835.806,456.0109,844.1436,450.7683,838.593,451.8597,837.5016,446.3091,835.806,456.0109" style="stroke: #383838; stroke-width: 1.0;"/><path d="M870.687,497.0799 C892.875,500.9739 915.063,501.0349 937.252,497.2629 " fill="none" style="stroke: #383838; stroke-width: 1.0;"/><polygon fill="#383838" points="865.652,496.1309,873.7544,501.7301,870.5653,497.0578,875.2376,493.8687,865.652,496.1309" style="stroke: #383838; stroke-width: 1.0;"/><path d="M865.652,466.4629 C887.841,461.9899 910.029,461.3489 932.217,464.5409 " fill="none" style="stroke: #383838; stroke-width: 1.0;"/><polygon fill="#383838" points="937.252,465.3309,928.9817,459.9828,932.3126,464.555,927.7403,467.8859,937.252,465.3309" style="stroke: #383838; stroke-width: 1.0;"/><path d="M970.751,506.6549 C955.611,526.2959 933.737,554.6169 914.5,579.2969 C911.096,583.6649 907.484,588.2799 903.946,592.7899 " fill="none" style="stroke: #383838; stroke-width: 1.0;"/><polygon fill="#383838" points="900.727,596.8919,909.4297,592.2807,903.8136,592.9583,903.136,587.3422,900.727,596.8919" style="stroke: #383838; stroke-width: 1.0;"/><text fill="#000000" font-family="sans-serif" font-size="13" lengthAdjust="spacingAndGlyphs" textLength="125" x="943.5" y="556.3638">[Mode Planification]</text><path d="M892.878,596.9469 C900.905,580.9529 912.511,559.9819 925.5,543.2969 C934.654,531.5389 946.068,519.9269 956.713,510.0399 " fill="none" style="stroke: #383838; stroke-width: 1.0;"/><polygon fill="#383838" points="960.594,506.4789,951.258,509.6155,956.9096,509.859,956.6662,515.5106,960.594,506.4789" style="stroke: #383838; stroke-width: 1.0;"/><path d="M773.49,497.5259 C739.8208,511.2739 702.9945,533.4369 721.5,560.2969 C736.9015,582.6519 761.674,596.8199 787.171,605.7969 " fill="none" style="stroke: #383838; stroke-width: 1.0;"/><polygon fill="#383838" points="791.939,607.4139,784.7001,600.7357,787.2038,605.8083,782.1312,608.3121,791.939,607.4139" style="stroke: #383838; stroke-width: 1.0;"/><text fill="#000000" font-family="sans-serif" font-size="13" lengthAdjust="spacingAndGlyphs" textLength="125" x="722.5" y="556.3638">[Mode Planification]</text><path d="M871.658,597.2839 C865.234,581.7999 856.57,561.2709 848.5,543.2969 C843.752,532.7219 838.346,521.2169 833.499,511.0789 " fill="none" style="stroke: #383838; stroke-width: 1.0;"/><polygon fill="#383838" points="831.315,506.5249,831.5987,516.3696,833.4765,511.0335,838.8126,512.9113,831.315,506.5249" style="stroke: #383838; stroke-width: 1.0;"/><path d="M1041.595,486.4769 C1067.852,491.4309 1097.799,501.9899 1115.5,524.2969 C1130.425,543.1049 1131.564,570.8839 1129.618,591.8999 " fill="none" style="stroke: #383838; stroke-width: 1.0;"/><polygon fill="#383838" points="1129.063,597.0879,1133.9967,588.5639,1129.5943,592.1162,1126.042,587.7138,1129.063,597.0879" style="stroke: #383838; stroke-width: 1.0;"/><text fill="#000000" font-family="sans-serif" font-size="13" lengthAdjust="spacingAndGlyphs" textLength="125" x="1129.5" y="556.3638">[Mode Planification]</text><path d="M1111.796,597.1649 C1102.514,580.8699 1088.896,559.4669 1073.5,543.2969 C1061.561,530.7579 1046.755,519.0399 1032.913,509.2929 " fill="none" style="stroke: #383838; stroke-width: 1.0;"/><polygon fill="#383838" points="1028.653,506.3319,1033.7595,514.7535,1032.7584,509.1859,1038.326,508.1849,1028.653,506.3319" style="stroke: #383838; stroke-width: 1.0;"/><path d="M857.462,366.7109 C850.565,376.7339 843.763,388.2599 838.5,399.2969 C829.726,417.6959 822.324,439.5999 818.718,455.9889 " fill="none" style="stroke: #383838; stroke-width: 1.0;"/><polygon fill="#383838" points="860.419,362.5129,851.9663,367.5678,857.5399,366.6008,858.5069,372.1743,860.419,362.5129" style="stroke: #383838; stroke-width: 1.0;"/><path d="M876.912,362.5129 C870.54,373.4309 862.515,386.6829 856.5,399.2969 C848.549,415.9709 841.724,435.5239 835.777,451.2409 " fill="none" style="stroke: #383838; stroke-width: 1.0;"/><polygon fill="#383838" points="833.959,455.9889,840.914,449.0155,835.7478,451.3198,833.4435,446.1535,833.959,455.9889" style="stroke: #383838; stroke-width: 1.0;"/><path d="M976.997,456.0899 C960.744,431.2609 932.573,392.6659 911.652,366.4779 " fill="none" style="stroke: #383838; stroke-width: 1.0;"/><polygon fill="#383838" points="908.359,362.3849,910.8841,371.9045,911.4933,366.2806,917.1172,366.8897,908.359,362.3849" style="stroke: #383838; stroke-width: 1.0;"/><path d="M897.925,362.3849 C914.141,387.1709 942.305,425.7639 963.249,451.9909 " fill="none" style="stroke: #383838; stroke-width: 1.0;"/><polygon fill="#383838" points="966.545,456.0899,964.0199,446.5702,963.4107,452.1942,957.7868,451.585,966.545,456.0899" style="stroke: #383838; stroke-width: 1.0;"/><path d="M851.215,647.4269 C840.281,657.6559 828.215,669.6429 818.145,680.2619 " fill="none" style="stroke: #383838; stroke-width: 1.0;"/><polygon fill="#383838" points="814.531,684.1059,823.6097,680.2879,817.9556,680.4627,817.7807,674.8086,814.531,684.1059" style="stroke: #383838; stroke-width: 1.0;"/><path d="M826.85,684.1059 C837.788,673.8709 849.852,661.8829 859.914,651.2699 " fill="none" style="stroke: #383838; stroke-width: 1.0;"/><polygon fill="#383838" points="863.525,647.4269,854.447,651.2467,860.1012,651.0707,860.2771,656.7248,863.525,647.4269" style="stroke: #383838; stroke-width: 1.0;"/><path d="M936.101,647.3139 C962.929,658.2199 995.572,671.1419 1024.411,682.2779 " fill="none" style="stroke: #383838; stroke-width: 1.0;"/><polygon fill="#383838" points="1029.376,684.1919,1022.4171,677.2224,1024.7106,682.3934,1019.5396,684.687,1029.376,684.1919" style="stroke: #383838; stroke-width: 1.0;"/><path d="M1041.683,684.1919 C1014.824,673.2759 982.175,660.3519 953.357,649.2259 " fill="none" style="stroke: #383838; stroke-width: 1.0;"/><polygon fill="#383838" points="948.396,647.3139,955.3568,654.2815,953.0618,649.1111,958.2323,646.8161,948.396,647.3139" style="stroke: #383838; stroke-width: 1.0;"/><path d="M790.345,734.4271 C789.671,744.2074 789.57,755.5948 790.042,765.8569 " fill="none" style="stroke: #383838; stroke-width: 1.0;"/><polygon fill="#383838" points="790.341,771.1063,793.8222,761.8932,790.0564,766.1144,785.8352,762.3485,790.341,771.1063" style="stroke: #383838; stroke-width: 1.0;"/><path d="M802.659,771.1063 C803.331,761.3195 803.43,749.9311 802.955,739.6736 " fill="none" style="stroke: #383838; stroke-width: 1.0;"/><polygon fill="#383838" points="802.655,734.4271,799.1761,743.6411,802.9409,739.4189,807.163,743.1836,802.655,734.4271" style="stroke: #383838; stroke-width: 1.0;"/><path d="M1090.345,734.4271 C1089.671,744.2074 1089.57,755.5948 1090.042,765.8569 " fill="none" style="stroke: #383838; stroke-width: 1.0;"/><polygon fill="#383838" points="1090.341,771.1063,1093.8222,761.8932,1090.0564,766.1144,1085.8352,762.3485,1090.341,771.1063" style="stroke: #383838; stroke-width: 1.0;"/><path d="M1102.659,771.1063 C1103.331,761.3195 1103.43,749.9311 1102.955,739.6736 " fill="none" style="stroke: #383838; stroke-width: 1.0;"/><polygon fill="#383838" points="1102.655,734.4271,1099.1761,743.6411,1102.9409,739.4189,1107.163,743.1836,1102.655,734.4271" style="stroke: #383838; stroke-width: 1.0;"/><rect fill="#F8F8F8" height="386.2969" rx="12.5" ry="12.5" style="stroke: #383838; stroke-width: 1.5;" width="608" x="604" y="896"/><rect fill="#FFFFFF" height="354" rx="12.5" ry="12.5" style="stroke: #FFFFFF; stroke-width: 1.0;" width="602" x="607" y="925.2969"/><line style="stroke: #383838; stroke-width: 1.5;" x1="604" x2="1212" y1="922.2969" y2="922.2969"/><text fill="#000000" font-family="sans-serif" font-size="14" lengthAdjust="spacingAndGlyphs" textLength="112" x="852" y="913.9951">Onglet Contacts</text><rect fill="#F8F8F8" height="50" rx="12.5" ry="12.5" style="stroke: #383838; stroke-width: 1.5;" width="146" x="824" y="991.2969"/><line style="stroke: #383838; stroke-width: 1.5;" x1="824" x2="970" y1="1017.5938" y2="1017.5938"/><text fill="#000000" font-family="sans-serif" font-size="14" lengthAdjust="spacingAndGlyphs" textLength="126" x="834" y="1009.292">Liste des contacts</text><ellipse cx="897" cy="945.2969" fill="#000000" rx="10" ry="10" style="stroke: none; stroke-width: 1.0;"/><rect fill="#F8F8F8" height="190.2969" rx="12.5" ry="12.5" style="stroke: #383838; stroke-width: 1.5;" width="564" x="615" y="1077.2969"/><rect fill="#FFFFFF" height="158" rx="12.5" ry="12.5" style="stroke: #FFFFFF; stroke-width: 1.0;" width="558" x="618" y="1106.5938"/><line style="stroke: #383838; stroke-width: 1.5;" x1="615" x2="1179" y1="1103.5938" y2="1103.5938"/><text fill="#000000" font-family="sans-serif" font-size="14" lengthAdjust="spacingAndGlyphs" textLength="85" x="854.5" y="1095.292">Vue Contact</text><rect fill="#F8F8F8" height="50" rx="12.5" ry="12.5" style="stroke: #383838; stroke-width: 1.5;" width="153" x="837.5" y="1116.5938"/><line style="stroke: #383838; stroke-width: 1.5;" x1="837.5" x2="990.5" y1="1142.8906" y2="1142.8906"/><text fill="#000000" font-family="sans-serif" font-size="14" lengthAdjust="spacingAndGlyphs" textLength="129" x="847.5" y="1134.5889">Onglet preparation</text><rect fill="#F8F8F8" height="50" rx="12.5" ry="12.5" style="stroke: #383838; stroke-width: 1.5;" width="173" x="646.5" y="1116.5938"/><line style="stroke: #383838; stroke-width: 1.5;" x1="646.5" x2="819.5" y1="1142.8906" y2="1142.8906"/><text fill="#000000" font-family="sans-serif" font-size="14" lengthAdjust="spacingAndGlyphs" textLength="149" x="656.5" y="1134.5889">Onglet compte-rendu</text><rect fill="#F8F8F8" height="50" rx="12.5" ry="12.5" style="stroke: #383838; stroke-width: 1.5;" width="308" x="626" y="1202.5938"/><line style="stroke: #383838; stroke-width: 1.5;" x1="626" x2="934" y1="1228.8906" y2="1228.8906"/><text fill="#000000" font-family="sans-serif" font-size="14" lengthAdjust="spacingAndGlyphs" textLength="288" x="636" y="1220.5889">Popup d'affectation d'un agent au contact</text><rect fill="#F8F8F8" height="50" rx="12.5" ry="12.5" style="stroke: #383838; stroke-width: 1.5;" width="193" x="952.5" y="1202.5938"/><line style="stroke: #383838; stroke-width: 1.5;" x1="952.5" x2="1145.5" y1="1228.8906" y2="1228.8906"/><text fill="#000000" font-family="sans-serif" font-size="14" lengthAdjust="spacingAndGlyphs" textLength="173" x="962.5" y="1220.5889">Popup d'ajout d'une offre</text><ellipse cx="1019" cy="1141.5938" fill="#000000" rx="10" ry="10" style="stroke: none; stroke-width: 1.0;"/><path d="M995.798,1141.5938 C1000.142,1141.5938 1004.486,1141.5938 1008.829,1141.5938 " fill="none" style="stroke: #383838; stroke-width: 1.0;"/><polygon fill="#383838" points="990.699,1141.5938,999.699,1145.5938,995.699,1141.5938,999.699,1137.5938,990.699,1141.5938" style="stroke: #383838; stroke-width: 1.0;"/><path d="M824.865,1160.3395 C829.013,1160.3136 833.161,1160.1695 837.309,1159.9072 " fill="none" style="stroke: #383838; stroke-width: 1.0;"/><polygon fill="#383838" points="819.611,1160.3092,828.588,1164.3605,824.6109,1160.3377,828.6337,1156.3606,819.611,1160.3092" style="stroke: #383838; stroke-width: 1.0;"/><path d="M819.611,1122.8788 C823.759,1122.8048 827.907,1122.8488 832.055,1123.0118 " fill="none" style="stroke: #383838; stroke-width: 1.0;"/><polygon fill="#383838" points="837.309,1123.2808,828.5253,1118.8258,832.3155,1123.0251,828.1162,1126.8153,837.309,1123.2808" style="stroke: #383838; stroke-width: 1.0;"/><path d="M869.43,1166.6648 C852.324,1176.9457 833.048,1188.9909 816.748,1199.5753 " fill="none" style="stroke: #383838; stroke-width: 1.0;"/><polygon fill="#383838" points="812.234,1202.5193,821.9576,1200.9532,816.422,1199.7879,817.5874,1194.2524,812.234,1202.5193" style="stroke: #383838; stroke-width: 1.0;"/><path d="M824.576,1202.5193 C841.682,1192.238 860.958,1180.1927 877.258,1169.6087 " fill="none" style="stroke: #383838; stroke-width: 1.0;"/><polygon fill="#383838" points="881.772,1166.6648,872.0481,1168.2284,877.5833,1169.3951,876.4166,1174.9303,881.772,1166.6648" style="stroke: #383838; stroke-width: 1.0;"/><path d="M946.515,1166.6648 C962.467,1177.0335 981.96,1189.1969 999.675,1199.8464 " fill="none" style="stroke: #383838; stroke-width: 1.0;"/><polygon fill="#383838" points="1004.138,1202.5193,998.4735,1194.4624,999.8489,1199.9495,994.3618,1201.3249,1004.138,1202.5193" style="stroke: #383838; stroke-width: 1.0;"/><path d="M1016.48,1202.5193 C1000.527,1192.1502 981.034,1179.9867 963.319,1169.3376 " fill="none" style="stroke: #383838; stroke-width: 1.0;"/><polygon fill="#383838" points="958.856,1166.6648,964.5206,1174.7215,963.1451,1169.2345,968.6322,1167.859,958.856,1166.6648" style="stroke: #383838; stroke-width: 1.0;"/><path d="M897,955.3179 C897,963.1739 897,975.0129 897,986.1019 " fill="none" style="stroke: #383838; stroke-width: 1.0;"/><polygon fill="#383838" points="897,991.1279,901,982.1279,897,986.1279,893,982.1279,897,991.1279" style="stroke: #383838; stroke-width: 1.0;"/><path d="M891.938,1041.3589 C891.252,1050.1629 890.775,1060.7549 890.507,1072.0459 " fill="none" style="stroke: #383838; stroke-width: 1.0;"/><polygon fill="#383838" points="890.399,1077.2779,894.5859,1068.3633,890.5033,1072.279,886.5876,1068.1964,890.399,1077.2779" style="stroke: #383838; stroke-width: 1.0;"/><path d="M903.601,1077.2779 C903.405,1066.2129 903.014,1055.6409 902.429,1046.5409 " fill="none" style="stroke: #383838; stroke-width: 1.0;"/><polygon fill="#383838" points="902.062,1041.3589,898.7098,1050.6197,902.4163,1046.3463,906.6897,1050.0528,902.062,1041.3589" style="stroke: #383838; stroke-width: 1.0;"/><rect fill="#F8F8F8" height="50" rx="12.5" ry="12.5" style="stroke: #383838; stroke-width: 1.5;" width="177" x="876.5" y="88"/><line style="stroke: #383838; stroke-width: 1.5;" x1="876.5" x2="1053.5" y1="114.2969" y2="114.2969"/><text fill="#000000" font-family="sans-serif" font-size="14" lengthAdjust="spacingAndGlyphs" textLength="157" x="886.5" y="105.9951">Page d'authentification</text><ellipse cx="965" cy="18" fill="#000000" rx="10" ry="10" style="stroke: none; stroke-width: 1.0;"/><ellipse cx="38" cy="113" fill="none" rx="10" ry="10" style="stroke: #000000; stroke-width: 1.0;"/><ellipse cx="38.5" cy="113.5" fill="#000000" rx="6" ry="6" style="stroke: none; stroke-width: 1.0;"/><path d="M965,28.26 C965,40.86 965,63.98 965,82.74 " fill="none" style="stroke: #383838; stroke-width: 1.0;"/><polygon fill="#383838" points="965,87.91,969,78.91,965,82.91,961,78.91,965,87.91" style="stroke: #383838; stroke-width: 1.0;"/><path d="M965,138.15 C965,153.34 965,174.78 965,199.84 " fill="none" style="stroke: #383838; stroke-width: 1.0;"/><polygon fill="#383838" points="965,204.9,969,195.9,965,199.9,961,195.9,965,204.9" style="stroke: #383838; stroke-width: 1.0;"/><path d="M606.724,405.277 C616.556,404.191 626.388,403.456 636.22,403.07 " fill="none" style="stroke: #383838; stroke-width: 1.0;"/><polygon fill="#383838" points="641.362,402.9,632.2354,399.1979,636.3647,403.0643,632.4983,407.1936,641.362,402.9" style="stroke: #383838; stroke-width: 1.0;"/><path d="M641.362,638.1 C631.53,637.836 621.697,637.223 611.865,636.259 " fill="none" style="stroke: #383838; stroke-width: 1.0;"/><polygon fill="#383838" points="606.724,635.723,615.2606,640.6349,611.697,636.2416,616.0903,632.678,606.724,635.723" style="stroke: #383838; stroke-width: 1.0;"/><path d="M344.191,677.798 C351.332,766.905 362.656,877.146 373.369,960.896 " fill="none" style="stroke: #383838; stroke-width: 1.0;"/><polygon fill="#383838" points="374.008,965.869,376.8284,956.4326,373.3708,960.9098,368.8936,957.4522,374.008,965.869" style="stroke: #383838; stroke-width: 1.0;"/><path d="M396.044,965.869 C390.227,883.111 379.464,772.858 368.559,682.879 " fill="none" style="stroke: #383838; stroke-width: 1.0;"/><polygon fill="#383838" points="367.941,677.798,365.0581,687.2155,368.5453,682.7613,372.9995,686.2485,367.941,677.798" style="stroke: #383838; stroke-width: 1.0;"/><path d="M458.907,677.821 C504.093,729.326 556.713,786.149 607,836 C625.73,854.567 645.542,873.486 665.706,892.194 " fill="none" style="stroke: #383838; stroke-width: 1.0;"/><polygon fill="#383838" points="669.475,895.684,665.5911,886.6333,665.8071,892.286,660.1543,892.502,669.475,895.684" style="stroke: #383838; stroke-width: 1.0;"/><path d="M704.315,895.684 C683.013,875.843 661.896,855.723 642,836 C592.989,787.415 541.764,732.207 495.641,681.755 " fill="none" style="stroke: #383838; stroke-width: 1.0;"/><polygon fill="#383838" points="492.047,677.821,495.1648,687.1633,495.4197,681.5122,501.0708,681.7671,492.047,677.821" style="stroke: #383838; stroke-width: 1.0;"/><path d="M641.289,823.899 C616.759,848.253 592.443,872.512 569,896 C547.76,917.281 525.27,939.98 503.766,962.043 " fill="none" style="stroke: #383838; stroke-width: 1.0;"/><polygon fill="#383838" points="500.044,965.866,509.1884,962.2082,503.5321,962.2836,503.4566,956.6273,500.044,965.866" style="stroke: #383838; stroke-width: 1.0;"/><path d="M534.389,965.866 C557.664,942.611 581.531,918.512 604,896 C622.302,877.663 641.136,858.856 660.143,839.9 " fill="none" style="stroke: #383838; stroke-width: 1.0;"/><polygon fill="#383838" points="663.946,836.107,654.7493,839.6314,660.4062,839.6382,660.3993,845.2951,663.946,836.107" style="stroke: #383838; stroke-width: 1.0;"/><path d="M920.653,836.226 C918.874,854.732 917.186,873.057 915.623,890.879 " fill="none" style="stroke: #383838; stroke-width: 1.0;"/><polygon fill="#383838" points="915.185,895.893,919.954,887.2758,915.6207,890.912,911.9844,886.5787,915.185,895.893" style="stroke: #383838; stroke-width: 1.0;"/><path d="M940.188,895.893 C942.229,878.168 944.246,859.91 946.207,841.44 " fill="none" style="stroke: #383838; stroke-width: 1.0;"/><polygon fill="#383838" points="946.759,836.226,941.835,844.7556,946.2333,841.1983,949.7907,845.5966,946.759,836.226" style="stroke: #383838; stroke-width: 1.0;"/><path d="M569.163,1171.436 C579.025,1173.759 588.888,1175.669 598.75,1177.167 " fill="none" style="stroke: #383838; stroke-width: 1.0;"/><polygon fill="#383838" points="603.907,1177.913,595.5722,1172.6659,598.9585,1177.1973,594.4271,1180.5835,603.907,1177.913" style="stroke: #383838; stroke-width: 1.0;"/><path d="M603.907,1000.087 C593.954,1001.454 584.002,1003.24 574.049,1005.447 " fill="none" style="stroke: #383838; stroke-width: 1.0;"/><polygon fill="#383838" points="569.163,1006.564,578.8281,1008.4577,574.0373,1005.4497,577.0452,1000.6589,569.163,1006.564" style="stroke: #383838; stroke-width: 1.0;"/><path d="M38,128.31 C38,136.61 38,148.19 38,162.19 " fill="none" style="stroke: #383838; stroke-width: 1.0;"/><polygon fill="#383838" points="38,123.23,34,132.23,38,128.23,42,132.23,38,123.23" style="stroke: #383838; stroke-width: 1.0;"/></g></svg>